<svg width="18" height="18" viewBox="0 0 18 18" fill="none" xmlns="http://www.w3.org/2000/svg">
<path d="M9.2928 16.8363C5.78392 16.8363 1.99835 14.6354 1.99835 9.80594C1.99835 4.97654 5.78392 2.77563 9.2928 2.77563C11.2422 2.77563 13.0406 3.41704 14.3738 4.58666C15.8201 5.86947 16.5872 7.6805 16.5872 9.80594C16.5872 11.9314 15.8201 13.7298 14.3738 15.0126C13.0406 16.1823 11.2296 16.8363 9.2928 16.8363Z" fill="url(#paint0_radial_1193_1177)"/>
<path d="M15.3152 5.6272C15.9855 6.70878 16.3352 7.99663 16.3352 9.4291C16.3352 11.5545 15.568 13.353 14.1217 14.6358C12.7886 15.8054 10.9775 16.4594 9.04071 16.4594C6.76937 16.4594 4.38736 15.535 2.98129 13.5743C4.33454 15.7954 6.88005 16.8367 9.29225 16.8367C11.229 16.8367 13.0401 16.1827 14.3732 15.0131C15.8195 13.7303 16.5867 11.9318 16.5867 9.8064C16.5867 8.20414 16.1503 6.78047 15.3152 5.6272Z" fill="#EB8F00"/>
<path d="M9.37481 13.9013C7.77255 13.9013 6.63059 13.07 6.28725 12.5468C6.15771 12.3796 6.13004 12.1532 6.21682 11.9595C6.28348 11.8375 6.41302 11.7621 6.55262 11.7633C6.60418 11.7633 6.65575 11.7721 6.70479 11.7885C7.57258 12.0501 8.47433 12.1796 9.3811 12.1746C10.2828 12.1796 11.1808 12.0488 12.0448 11.7885C12.0939 11.7721 12.1454 11.7646 12.197 11.7633C12.3366 11.7621 12.4662 11.8375 12.5328 11.9595C12.6196 12.1532 12.5919 12.3796 12.4624 12.5468C12.119 13.07 10.9783 13.9013 9.37481 13.9013Z" fill="#422B0D"/>
<path d="M13.5562 9.69396L13.531 9.65875C13.5084 9.62605 13.4845 9.59461 13.4581 9.56442C13.3675 9.46255 13.2656 9.37074 13.1537 9.29277C13.0028 9.18713 12.8393 9.10035 12.667 9.03495C12.5727 8.99848 12.4758 8.96704 12.3777 8.94188C12.3287 8.92931 12.2746 8.91799 12.2193 8.90667L12.1438 8.89283L12.218 8.85385L12.4381 8.73814C12.5802 8.6652 12.7148 8.60231 12.828 8.55075C12.9412 8.49919 13.0342 8.46271 13.0971 8.43882L13.1927 8.40486L13.2204 8.39354C13.3977 8.3206 13.4807 8.11686 13.4078 7.93953C13.3575 7.81879 13.2443 7.73705 13.1147 7.72698C13.0632 7.72447 13.0103 7.72447 12.9588 7.72698C12.8318 7.7383 12.7047 7.76094 12.5815 7.79238C12.413 7.83514 12.2482 7.88922 12.0872 7.95462C12.0017 7.99235 11.9111 8.02756 11.8244 8.07284C11.7376 8.11812 11.6433 8.16591 11.5653 8.20741C11.4873 8.24891 11.393 8.31054 11.3138 8.36462C11.2345 8.4187 11.154 8.47529 11.0786 8.53063C10.939 8.63376 10.8069 8.74694 10.6849 8.8702C10.5931 8.96075 10.5101 9.05884 10.4334 9.16323C10.4107 9.19341 10.3894 9.22611 10.3705 9.25881C10.3604 9.27893 10.3542 9.289 10.3542 9.289C10.3076 9.40218 10.3038 9.52795 10.3441 9.64365C10.4145 9.82098 10.6157 9.90776 10.7931 9.83733C10.7943 9.83733 10.7956 9.83608 10.7969 9.83608L10.827 9.82476L10.8509 9.81973L10.8811 9.81218C10.9025 9.81218 10.9415 9.79709 10.9817 9.78829C11.022 9.77948 11.071 9.77068 11.1238 9.76187C11.2484 9.74427 11.3754 9.73421 11.5011 9.73421C11.6495 9.73421 11.7992 9.74427 11.9464 9.76565C11.9728 9.76565 12.0394 9.77822 12.0721 9.78451C12.1048 9.7908 12.14 9.79583 12.1778 9.80464C12.2507 9.82224 12.3224 9.83733 12.3903 9.85746C12.511 9.89141 12.6293 9.93292 12.745 9.98322C12.8204 10.0184 12.8946 10.0574 12.9663 10.1014C13.0166 10.1316 13.0418 10.1505 13.0418 10.1505L13.077 10.1769C13.2279 10.2913 13.4442 10.2612 13.5574 10.109C13.6505 9.98574 13.6492 9.81595 13.5562 9.69396Z" fill="#422B0D"/>
<path d="M6.91296 7.79968C6.386 7.79968 5.90683 8.24489 5.90683 8.9844C5.90683 9.7239 6.386 10.1679 6.91296 10.1679C7.43992 10.1679 7.91909 9.72264 7.91909 8.9844C7.91909 8.24615 7.43992 7.79968 6.91296 7.79968Z" fill="#422B0D"/>
<path d="M6.86477 8.29281C6.68618 8.20729 6.47112 8.28275 6.38434 8.46134C6.31768 8.60094 6.34787 8.76821 6.4598 8.87637C6.63839 8.96189 6.85345 8.88643 6.94023 8.70784C7.00688 8.56824 6.9767 8.40097 6.86477 8.29281Z" fill="#896024"/>
<path d="M5.37276 1.26634H5.87723C5.87723 1.26634 7.94935 0.98811 9.35061 1.0004C10.6863 1.01211 12.6503 1.26634 12.6503 1.26634H13.4442C14.2525 2.58339 14.8333 3.93589 15.0996 5.32523C12.6503 5.6285 9.39003 6.34217 9.39003 6.34217C9.39003 6.34217 6.30149 5.70793 3.6268 5.16637C4.03316 3.74415 4.53399 2.45352 5.37276 1.26634Z" fill="#7F2125"/>
<path d="M5.37276 1.26634H5.87723C5.87723 1.26634 7.94935 0.98811 9.35061 1.0004C10.6863 1.01211 12.6503 1.26634 12.6503 1.26634H13.4442M5.37276 1.26634C4.53399 2.45352 4.03316 3.74415 3.6268 5.16637C6.30149 5.70793 9.39003 6.34217 9.39003 6.34217C9.39003 6.34217 12.6503 5.6285 15.0996 5.32523C14.8333 3.93589 14.2525 2.58339 13.4442 1.26634M5.37276 1.26634C6.02894 1.96964 6.96377 1.52784 9.35061 2.06907C11.5116 1.5442 12.5521 2.00447 13.4442 1.26634" stroke="#67211F" stroke-width="0.0587614"/>
<path d="M9.4003 6.33444L9.3773 2.07237C11.002 1.5796 12.2356 1.96431 13.4545 1.29004C13.9854 2.09567 14.8636 3.60415 15.1099 5.31343C13.2399 5.52976 10.2663 6.14817 9.4003 6.33444Z" fill="#67211F" stroke="#67211F" stroke-width="0.0368795"/>
<path d="M12.075 1.67656C12.4439 1.43515 12.7392 1.5911 12.724 1.24438H13.4521C13.0817 1.63276 12.3321 1.62136 12.075 1.67656Z" fill="#67211F" fill-opacity="0.56"/>
<path d="M6.5814 1.72308C6.2125 1.47921 5.86639 1.61137 5.88156 1.26111L5.4064 1.27601C5.77677 1.66835 6.32433 1.66732 6.5814 1.72308Z" fill="#67211F"/>
<path d="M9.425 1.30466L9.34215 2.02384L9.4943 2.01348L9.425 1.30466Z" fill="#67211F" stroke="#67211F" stroke-width="0.0894087"/>
<path d="M7.42931 1.78959C7.16393 1.77248 7.0042 1.75625 6.78484 1.73953C6.57676 3.28727 6.47745 4.34646 7.02198 5.83182C7.3779 5.90928 7.74924 5.95707 8.10521 6.02709C7.33672 4.59441 7.31403 3.2278 7.42931 1.78959Z" fill="#D60000" stroke="#67211F" stroke-width="0.0368795"/>
<path d="M6.99201 1.76232L6.80202 1.7458L6.7615 2.02928L6.99201 1.76232Z" fill="#398F00" stroke="#67211F" stroke-width="0.00745073"/>
<path d="M6.67003 2.81877L7.39809 1.99036L7.40731 1.80417L6.99038 1.76345L6.76043 2.02976L6.67003 2.81877Z" fill="#FF7F00" stroke="#67211F" stroke-width="0.00745073"/>
<path d="M7.14692 2.27196C7.14692 2.27196 6.91907 2.01178 6.83876 1.94157L6.76211 2.03034L6.67936 2.81196C6.79179 2.68127 7.14692 2.27196 7.14692 2.27196Z" fill="#D60000" stroke="#67211F" stroke-width="0.00745073"/>
<path d="M7.36135 2.89144C7.36495 2.56995 7.37425 2.37064 7.39962 1.99025L6.67922 2.81127C6.65094 3.13912 6.64329 3.32005 6.63401 3.6379L7.36135 2.89144Z" fill="#007FFF" stroke="#67211F" stroke-width="0.00596058"/>
<path d="M7.18522 3.06909L6.83245 2.63402L6.67915 2.81156C6.65651 3.1351 6.64544 3.31464 6.63395 3.6382L7.18522 3.06909Z" fill="#398F00" stroke="#67211F" stroke-width="0.00596058"/>
<path d="M7.20991 3.82153L6.8646 3.40143L6.63491 3.63794C6.63955 3.97325 6.661 4.12244 6.68136 4.39828L7.20991 3.82153Z" fill="#D60000" stroke="#67211F" stroke-width="0.00596058"/>
<path d="M7.17064 4.67192L6.8254 4.24436L6.67988 4.39962C6.73756 4.74282 6.75195 4.83235 6.81041 5.08615L7.17064 4.67192Z" fill="#007FFF" stroke="#67211F" stroke-width="0.00596058"/>
<path d="M7.25602 5.3793L6.9183 4.95926L6.81097 5.08502C6.89161 5.40607 6.89926 5.39868 6.97296 5.64517L7.25602 5.3793Z" fill="#FF7F00" stroke="#67211F" stroke-width="0.00596058"/>
<path d="M7.43498 5.89601L7.12735 5.50602L6.97437 5.64631C6.99661 5.7061 7.0263 5.78085 7.04114 5.81823L7.43498 5.89601Z" fill="#007FFF" stroke="#67211F" stroke-width="0.00596058"/>
<path d="M7.39251 3.62283C7.36771 3.37215 7.35888 3.21758 7.36099 2.89241L6.86335 3.40236C7.08859 3.67245 7.04359 3.61247 7.20866 3.82246L7.39251 3.62283Z" fill="#FF7F00" stroke="#67211F" stroke-width="0.00596058"/>
<path d="M7.47774 4.31497C7.44942 4.08377 7.41254 3.96425 7.39273 3.62881L6.82589 4.2425C7.04548 4.52882 7.00188 4.46457 7.1712 4.66253L7.47774 4.31497Z" fill="#398F00" stroke="#67211F" stroke-width="0.00596058"/>
<path d="M7.64614 4.98161C7.58003 4.73519 7.54301 4.63057 7.47749 4.3171L6.91797 4.96065C7.0905 5.18561 7.0905 5.18561 7.26322 5.38821L7.64614 4.98161Z" fill="#D60000" stroke="#67211F" stroke-width="0.00596058"/>
<path d="M7.84658 5.54124C7.67399 5.32373 7.69649 5.35372 7.51644 5.12126L7.12612 5.50544C7.29865 5.7304 7.26863 5.69289 7.42618 5.89537L7.84658 5.54124Z" fill="#398F00" stroke="#67211F" stroke-width="0.00596058"/>
<path d="M7.64521 4.98069L7.51499 5.12117L7.84513 5.54114L7.85271 5.54121L7.64521 4.98069Z" fill="#007FFF" stroke="#67211F" stroke-width="0.00596058"/>
<path d="M7.42837 3.97226L7.39338 3.63669L7.34747 3.68101L7.27854 3.75494L7.42837 3.97226Z" fill="#007FFF" stroke="#67211F" stroke-width="0.00596058"/>
<path d="M7.63381 5.72544L7.85552 5.53357C7.9343 5.72515 7.98287 5.82745 8.07899 6.00481L7.80627 5.95784L7.63381 5.72544Z" fill="#FF7F00" stroke="#67211F" stroke-width="0.00447043"/>
<g filter="url(#filter0_d_1193_1177)">
<path d="M8.58096 2.87405L8.70468 2.6852C8.70468 2.6852 8.8391 3.23909 8.74526 3.59342C8.67064 3.87516 8.39553 4.24281 8.39553 4.24281C8.26962 4.56025 8.27767 4.73435 8.34593 5.0423L8.09484 5.33382C8.09484 5.33382 8.0172 4.93017 7.89176 4.73221C7.70976 4.44499 7.40946 4.5231 7.22427 4.27066C6.95008 3.89688 7.09225 3.10774 7.09225 3.10774L7.31473 3.29795C7.31473 3.29795 7.44957 3.10147 7.58134 2.8195C7.62853 2.71851 7.67532 2.60657 7.71539 2.48875C7.77665 2.30866 7.84485 2.01905 7.84485 2.01905L7.97347 2.27896L8.07691 2.14076C8.07691 2.14076 8.08592 2.33998 8.12409 2.45138C8.2117 2.70706 8.3123 2.80013 8.58096 2.87405Z" fill="#939297"/>
<path d="M8.58096 2.87405C8.62928 2.8003 8.70468 2.6852 8.70468 2.6852C8.70468 2.6852 8.8391 3.23909 8.74526 3.59342C8.67064 3.87516 8.39553 4.24281 8.39553 4.24281C8.26962 4.56025 8.27767 4.73435 8.34593 5.0423L8.09484 5.33382C8.09484 5.33382 8.0172 4.93017 7.89176 4.73221C7.70976 4.44499 7.40946 4.5231 7.22427 4.27066C6.95008 3.89688 7.09225 3.10774 7.09225 3.10774L7.31473 3.29795M8.58096 2.87405C8.3123 2.80013 8.2117 2.70706 8.12409 2.45138C8.08592 2.33998 8.07691 2.14076 8.07691 2.14076L7.97347 2.27896M8.58096 2.87405C8.5736 2.90078 8.35751 3.36177 8.35751 3.36177C8.35751 3.36177 8.18853 3.04228 8.11255 2.82562M7.31473 3.29795C7.44201 3.44251 7.46117 3.53698 7.49724 3.70447L7.66242 3.10513L7.91447 3.47307M7.31473 3.29795C7.31473 3.29795 7.44957 3.10147 7.58134 2.8195C7.62853 2.71851 7.67532 2.60657 7.71539 2.48875C7.77665 2.30866 7.84485 2.01905 7.84485 2.01905L7.97347 2.27896M7.97347 2.27896C7.97347 2.27896 8.03949 2.61731 8.11255 2.82562M8.11255 2.82562L7.95849 2.67213L7.91447 3.47307M7.91447 3.47307L7.89176 3.86886" stroke="#F8F7FC" stroke-width="0.0368795"/>
</g>
<path d="M5.05074 7.53129C4.94132 7.53255 4.83945 7.47973 4.77531 7.39169C4.71494 7.30114 4.70362 7.18543 4.74638 7.08482C5.00294 6.4409 5.49846 5.92023 6.12981 5.63348C6.36248 5.52532 6.61024 5.45238 6.86554 5.41842C6.88189 5.41717 6.89824 5.41717 6.91459 5.41842C7.07306 5.41214 7.21014 5.52658 7.23278 5.68379C7.25542 5.85106 7.15606 6.00952 6.99508 6.06109L6.94855 5.97305L6.97999 6.06612C6.30463 6.30256 5.72862 6.76034 5.34503 7.36402C5.28466 7.46715 5.17399 7.53003 5.05451 7.53003L5.05074 7.53129Z" fill="#422B0D"/>
<defs>
<filter id="filter0_d_1193_1177" x="7.0369" y="1.96472" width="1.8883" height="3.52329" filterUnits="userSpaceOnUse" color-interpolation-filters="sRGB">
<feFlood flood-opacity="0" result="BackgroundImageFix"/>
<feColorMatrix in="SourceAlpha" type="matrix" values="0 0 0 0 0 0 0 0 0 0 0 0 0 0 0 0 0 0 127 0" result="hardAlpha"/>
<feOffset dx="0.0745073" dy="0.0596058"/>
<feGaussianBlur stdDeviation="0.0268226"/>
<feComposite in2="hardAlpha" operator="out"/>
<feColorMatrix type="matrix" values="0 0 0 0 0 0 0 0 0 0 0 0 0 0 0 0 0 0 0.25 0"/>
<feBlend mode="normal" in2="BackgroundImageFix" result="effect1_dropShadow_1193_1177"/>
<feBlend mode="normal" in="SourceGraphic" in2="effect1_dropShadow_1193_1177" result="shape"/>
</filter>
<radialGradient id="paint0_radial_1193_1177" cx="0" cy="0" r="1" gradientUnits="userSpaceOnUse" gradientTransform="translate(9.2928 9.80594) scale(7.16361 7.16358)">
<stop offset="0.5" stop-color="#FDE030"/>
<stop offset="0.92" stop-color="#F7C02B"/>
<stop offset="1" stop-color="#F4A223"/>
</radialGradient>
</defs>
</svg>
