<svg width="19" height="18" viewBox="0 0 19 18" fill="none" xmlns="http://www.w3.org/2000/svg">
<path d="M9.93887 16.8926C6.45233 16.8926 2.69086 14.7057 2.69086 9.90707C2.69086 5.1084 6.45233 2.92151 9.93887 2.92151C11.8758 2.92151 13.6629 3.55883 14.9875 4.72101C16.4246 5.99565 17.1869 7.79515 17.1869 9.90707C17.1869 12.019 16.4246 13.806 14.9875 15.0806C13.6629 16.2428 11.8633 16.8926 9.93887 16.8926Z" fill="url(#paint0_radial_1200_6451)"/>
<path d="M15.9221 5.75439C16.5882 6.8291 16.9356 8.10874 16.9356 9.5321C16.9356 11.644 16.1733 13.431 14.7362 14.7057C13.4115 15.8678 11.612 16.5177 9.68754 16.5177C7.43066 16.5177 5.06381 15.5992 3.66669 13.651C5.01132 15.8578 7.54063 16.8926 9.93747 16.8926C11.8619 16.8926 13.6615 16.2427 14.9861 15.0806C16.4232 13.8059 17.1855 12.0189 17.1855 9.90699C17.1855 8.31493 16.7519 6.90033 15.9221 5.75439Z" fill="#EB8F00"/>
<path d="M9.1629 10.3501L9.13791 10.3326L9.12541 10.3227C8.67429 9.99899 7.56334 9.10424 7.10097 8.78808C6.90352 8.64312 6.63109 8.65812 6.45114 8.82557C6.2587 9.02426 6.26494 9.34043 6.46239 9.53287C6.47864 9.54787 6.49488 9.56286 6.51363 9.57536C6.52612 9.58786 6.53862 9.58786 6.55112 9.60035L7.91199 10.2014C7.80952 10.2014 7.7083 10.2014 7.61333 10.2127L7.17594 10.2502C7.02599 10.2752 6.86353 10.3002 6.70107 10.3252C6.53862 10.3501 6.35117 10.4001 6.16372 10.4501C6.00876 10.4939 5.8663 10.5751 5.75133 10.6876C5.64261 10.785 5.57263 10.9175 5.55139 11.0624C5.53639 11.2012 5.56763 11.3424 5.63887 11.4623C5.69885 11.5698 5.79757 11.6498 5.91379 11.6873C6.03001 11.7248 6.15372 11.7373 6.27619 11.7248C6.4099 11.7073 6.53737 11.6598 6.65109 11.5873C6.81354 11.4998 6.976 11.4124 7.12596 11.3499C7.26842 11.2824 7.41588 11.2237 7.56584 11.1737C7.7058 11.1249 7.84701 11.0824 7.99072 11.0487C8.14318 11.0112 8.29689 10.9825 8.4531 10.9612C8.61555 10.9362 8.803 10.9237 9.00294 10.9112C9.14666 10.8825 9.25038 10.7575 9.25288 10.6113C9.26412 10.5151 9.23163 10.4189 9.1629 10.3501Z" fill="#422B0D"/>
<path d="M14.4255 11.0606C14.4042 10.9157 14.3343 10.7832 14.2255 10.6857C14.1106 10.5733 13.9681 10.492 13.8131 10.4483C13.6257 10.3983 13.4507 10.3608 13.2758 10.3233C13.1008 10.2858 12.9509 10.2733 12.8009 10.2483L12.3635 10.2109C12.2648 10.2021 12.1599 10.1996 12.0536 10.1996L13.4133 9.59852C13.4258 9.58603 13.4383 9.58603 13.4507 9.57353C13.6732 9.40982 13.7207 9.09616 13.5557 8.87497C13.542 8.85748 13.5282 8.83998 13.5132 8.82374C13.3333 8.65628 13.0609 8.64129 12.8634 8.78625C12.4135 9.10241 11.3026 9.99716 10.8515 10.3208L10.839 10.3308L10.814 10.3483C10.7452 10.417 10.7127 10.5133 10.724 10.6095C10.7265 10.7557 10.8302 10.8807 10.9739 10.9094C11.1739 10.9219 11.3613 10.9344 11.5238 10.9594C11.68 10.9806 11.8349 11.0106 11.9886 11.0481C12.1324 11.0819 12.2736 11.1243 12.4135 11.1731C12.5622 11.2231 12.7085 11.2806 12.8509 11.348C13.0009 11.4105 13.1633 11.498 13.3258 11.5855C13.4383 11.6604 13.567 11.7067 13.7007 11.7229C13.8231 11.7354 13.9469 11.7229 14.0631 11.6854C14.1793 11.648 14.278 11.568 14.338 11.4605C14.4092 11.3405 14.4405 11.1993 14.4255 11.0606Z" fill="#422B0D"/>
<path d="M9.98909 12.4453C11.3387 12.4453 12.2135 13.4325 12.4509 13.8949C12.5384 14.0699 12.5384 14.2198 12.4634 14.2823C12.3834 14.3323 12.281 14.3323 12.201 14.2823C12.161 14.2661 12.1235 14.2448 12.0885 14.2198C11.4762 13.7799 10.7426 13.54 9.98909 13.5325C9.23805 13.5425 8.50575 13.7774 7.88967 14.2073C7.85468 14.2323 7.81719 14.2536 7.7772 14.2698C7.69722 14.3198 7.59475 14.3198 7.51477 14.2698C7.43979 14.1948 7.43979 14.0574 7.52727 13.8824C7.7647 13.4325 8.63946 12.4453 9.98909 12.4453Z" fill="#422B0D"/>
<path d="M5.41663 7.39689C5.14171 7.44688 5.12921 7.84677 5.42913 7.85927C6.09145 7.86801 6.73127 7.62183 7.21614 7.17196C7.40109 7.012 7.5573 6.82205 7.67851 6.60961C7.75099 6.50589 7.726 6.36343 7.62228 6.29095C7.51856 6.21847 7.3761 6.24347 7.30362 6.34719L7.29112 6.35968C6.80125 6.90703 6.14018 7.27318 5.41663 7.39689Z" fill="#422B0D"/>
<path d="M12.5527 6.34719C12.4802 6.24347 12.3377 6.21847 12.234 6.29095C12.1303 6.36343 12.1053 6.50589 12.1778 6.60961C12.299 6.82205 12.4552 7.012 12.6401 7.17196C13.1275 7.61808 13.7661 7.86427 14.4272 7.85927C14.7396 7.84677 14.7146 7.44688 14.4397 7.39689C13.7074 7.27693 13.0413 6.90578 12.5527 6.34719Z" fill="#422B0D"/>
<path d="M6.0879 1.30043H6.5808C6.5808 1.30043 8.60541 1.02484 9.97454 1.03701C11.2796 1.04861 13.1986 1.30043 13.1986 1.30043H13.9743C14.764 2.60497 15.3315 3.94463 15.5917 5.32076C13.0406 4.59468 9.97454 6.12934 9.97454 6.12934C9.97454 6.12934 6.86247 4.62146 4.38197 5.16341C4.77902 3.7547 5.26836 2.47633 6.0879 1.30043Z" fill="#7F2125"/>
<path d="M6.0879 1.30043H6.5808C6.5808 1.30043 8.60541 1.02484 9.97454 1.03701C11.2796 1.04861 13.1986 1.30043 13.1986 1.30043H13.9743M6.0879 1.30043C5.26836 2.47633 4.77902 3.7547 4.38197 5.16341C6.86247 4.62146 9.97454 6.12935 9.97454 6.12935C9.97454 6.12935 13.0406 4.59468 15.5917 5.32076C15.3315 3.94463 14.764 2.60497 13.9743 1.30043M6.0879 1.30043C6.72903 1.99705 7.64243 1.55945 9.97454 2.09553C12.086 1.57565 13.1027 2.03155 13.9743 1.30043" stroke="#67211F" stroke-width="0.0582032"/>
<path d="M9.99105 6.10656L9.99854 2.09899C11.586 1.61091 12.7913 1.99196 13.9822 1.3241C14.501 2.12207 15.359 3.61623 15.5997 5.30927C13.538 4.77817 11.3581 5.47927 9.99105 6.10656Z" fill="#67211F" stroke="#67211F" stroke-width="0.0365292"/>
<path d="M7.26593 1.75202C6.90548 1.51047 6.56731 1.64136 6.58214 1.29443L6.11787 1.30919C6.47974 1.69781 7.01475 1.69679 7.26593 1.75202Z" fill="#67211F"/>
<path d="M12.6354 1.70785C12.9958 1.46874 13.2843 1.62321 13.2695 1.27979H13.9809C13.619 1.66447 12.8866 1.65318 12.6354 1.70785Z" fill="#67211F" fill-opacity="0.56"/>
<path d="M10.0456 1.33873L9.96461 2.05107L10.1133 2.04081L10.0456 1.33873Z" fill="#67211F" stroke="#67211F" stroke-width="0.0885594"/>
<path d="M8.09957 1.83328C7.83751 1.81862 7.67972 1.80396 7.46308 1.78931C7.3283 3.3391 7.27657 3.72285 7.55738 5.25788C7.93822 5.35764 8.22621 5.45176 8.55497 5.55308C7.78405 4.15015 7.99828 3.24888 8.09957 1.83328Z" fill="#D60000" stroke="#67211F" stroke-width="0.0365292"/>
<path d="M7.67453 1.81175L7.48458 1.79688L7.44659 2.07945L7.67453 1.81175Z" fill="#398F00" stroke="#67211F" stroke-width="0.00737995"/>
<path d="M7.36275 2.85268L8.07412 2.03187L8.08161 1.84865L7.66976 1.81201L7.44512 2.07584L7.36275 2.85268Z" fill="#FF7F00" stroke="#67211F" stroke-width="0.00737995"/>
<path d="M7.82538 2.30976C7.82538 2.30976 7.59824 2.05571 7.51836 1.9873L7.44348 2.07525L7.3686 2.84475C7.47843 2.71528 7.82538 2.30976 7.82538 2.30976Z" fill="#D60000" stroke="#67211F" stroke-width="0.00737995"/>
<path d="M8.0439 2.918C8.04467 2.60174 8.05212 2.40562 8.07386 2.03125L7.36997 2.84472C7.3449 3.16744 7.33892 3.34546 7.33253 3.65818L8.0439 2.918Z" fill="#007FFF" stroke="#67211F" stroke-width="0.00590396"/>
<path d="M7.87167 3.09388L7.51973 2.66882L7.36997 2.84471C7.35043 3.16314 7.34106 3.33983 7.33253 3.65819L7.87167 3.09388Z" fill="#398F00" stroke="#67211F" stroke-width="0.00590396"/>
<path d="M7.90163 3.83411L7.55717 3.42371L7.33253 3.65822C7.34002 3.98801 7.36248 4.13458 7.38497 4.40574L7.90163 3.83411Z" fill="#D60000" stroke="#67211F" stroke-width="0.00590396"/>
<path d="M7.87288 4.66932L7.52842 4.25159L7.38615 4.40549C7.44605 4.7426 7.46103 4.83055 7.52093 5.07972L7.87288 4.66932Z" fill="#007FFF" stroke="#67211F" stroke-width="0.00590396"/>
<path d="M7.96367 5.3676L7.62506 4.9552L7.51972 5.08039L7.56728 5.24451L7.96367 5.3676Z" fill="#FF7F00" stroke="#67211F" stroke-width="0.00590396"/>
<path d="M8.08094 3.63593C8.05429 3.38956 8.04423 3.23759 8.0435 2.91772L7.55677 3.4234C7.78141 3.68723 7.73648 3.6286 7.90122 3.8338L8.08094 3.63593Z" fill="#FF7F00" stroke="#67211F" stroke-width="0.00590396"/>
<path d="M8.17052 4.31791C8.14057 4.09072 8.10313 3.97346 8.08067 3.64368L7.52654 4.25195C7.74576 4.53179 7.70217 4.46894 7.871 4.66229L8.17052 4.31791Z" fill="#398F00" stroke="#67211F" stroke-width="0.00590396"/>
<path d="M8.34485 4.97012C8.27746 4.72827 8.24002 4.62567 8.17262 4.31787L7.62599 4.95546C7.79822 5.17532 7.79822 5.17532 7.97044 5.37319L8.34485 4.97012Z" fill="#D60000" stroke="#67211F" stroke-width="0.00590396"/>
<path d="M8.55991 5.54066C8.38685 5.32709 8.39771 5.33767 8.21712 5.10938L7.95845 5.36268C8.27588 5.4461 8.27032 5.44425 8.27032 5.44425L8.55991 5.54066Z" fill="#398F00" stroke="#67211F" stroke-width="0.00590396"/>
<path d="M8.3457 4.96997L8.21778 5.10989L8.54887 5.5223H8.55639L8.3457 4.96997Z" fill="#007FFF" stroke="#67211F" stroke-width="0.00590396"/>
<path d="M8.11967 3.9824L8.08204 3.651L8.0369 3.69519L7.96917 3.76883L8.11967 3.9824Z" fill="#007FFF" stroke="#67211F" stroke-width="0.00590396"/>
<g filter="url(#filter0_d_1200_6451)">
<path d="M9.07087 2.73732L9.19175 2.55026C9.19175 2.55026 9.32309 3.09889 9.2314 3.44985C9.15849 3.72892 8.88969 4.09308 8.88969 4.09308C8.76666 4.4075 8.77453 4.57995 8.84122 4.88497L8.59589 5.17372C8.59589 5.17372 8.52004 4.77391 8.39747 4.57783C8.21964 4.29334 7.92623 4.37071 7.74529 4.12066C7.47738 3.75043 7.61629 2.96879 7.61629 2.96879L7.83367 3.1572C7.83367 3.1572 7.96542 2.96258 8.09417 2.68328C8.14027 2.58326 8.186 2.47238 8.22515 2.35568C8.285 2.1773 8.35164 1.89044 8.35164 1.89044L8.47731 2.14788L8.57837 2.011C8.57837 2.011 8.58718 2.20832 8.62448 2.31867C8.71007 2.57191 8.80837 2.6641 9.07087 2.73732Z" fill="url(#paint1_linear_1200_6451)"/>
<path d="M9.07087 2.73732C9.11808 2.66427 9.19175 2.55026 9.19175 2.55026C9.19175 2.55026 9.32309 3.09889 9.2314 3.44985C9.15849 3.72892 8.88969 4.09308 8.88969 4.09308C8.76666 4.4075 8.77453 4.57995 8.84122 4.88497L8.59589 5.17372C8.59589 5.17372 8.52004 4.77391 8.39747 4.57783C8.21964 4.29334 7.92623 4.37071 7.74529 4.12066C7.47738 3.75043 7.61629 2.96879 7.61629 2.96879L7.83367 3.1572M9.07087 2.73732C8.80837 2.6641 8.71007 2.57191 8.62448 2.31867C8.58718 2.20832 8.57837 2.011 8.57837 2.011L8.47731 2.14788M9.07087 2.73732C9.06367 2.76379 8.85254 3.2204 8.85254 3.2204C8.85254 3.2204 8.68744 2.90395 8.6132 2.68935M7.83367 3.1572C7.95804 3.30038 7.97675 3.39395 8.01199 3.55985L8.17339 2.9662L8.41966 3.33065L8.46267 2.53732L8.6132 2.68935M7.83367 3.1572C7.83367 3.1572 7.96542 2.96258 8.09417 2.68328C8.14027 2.58326 8.186 2.47238 8.22515 2.35568C8.285 2.1773 8.35164 1.89044 8.35164 1.89044L8.47731 2.14788M8.47731 2.14788C8.47731 2.14788 8.54182 2.48301 8.6132 2.68935" stroke="#F8F7FC" stroke-width="0.0365292"/>
</g>
<defs>
<filter id="filter0_d_1200_6451" x="7.56199" y="1.83606" width="1.84716" height="3.49072" filterUnits="userSpaceOnUse" color-interpolation-filters="sRGB">
<feFlood flood-opacity="0" result="BackgroundImageFix"/>
<feColorMatrix in="SourceAlpha" type="matrix" values="0 0 0 0 0 0 0 0 0 0 0 0 0 0 0 0 0 0 127 0" result="hardAlpha"/>
<feOffset dx="0.0737995" dy="0.0590396"/>
<feGaussianBlur stdDeviation="0.0265678"/>
<feComposite in2="hardAlpha" operator="out"/>
<feColorMatrix type="matrix" values="0 0 0 0 0 0 0 0 0 0 0 0 0 0 0 0 0 0 0.25 0"/>
<feBlend mode="normal" in2="BackgroundImageFix" result="effect1_dropShadow_1200_6451"/>
<feBlend mode="normal" in="SourceGraphic" in2="effect1_dropShadow_1200_6451" result="shape"/>
</filter>
<radialGradient id="paint0_radial_1200_6451" cx="0" cy="0" r="1" gradientUnits="userSpaceOnUse" gradientTransform="translate(9.93887 9.90707) scale(7.11802 7.11799)">
<stop offset="0.5" stop-color="#FDE030"/>
<stop offset="0.92" stop-color="#F7C02B"/>
<stop offset="1" stop-color="#F4A223"/>
</radialGradient>
<linearGradient id="paint1_linear_1200_6451" x1="8.75358" y1="1.99658" x2="7.95899" y2="5.00553" gradientUnits="userSpaceOnUse">
<stop stop-color="#C9C9C9"/>
<stop offset="1" stop-color="#939297"/>
</linearGradient>
</defs>
</svg>
