<svg width="18" height="18" viewBox="0 0 18 18" fill="none" xmlns="http://www.w3.org/2000/svg">
<path d="M8.78954 16.1288C5.52361 16.1288 2.00015 14.0803 2.00015 9.58529C2.00015 5.09026 5.52361 3.04175 8.78954 3.04175C10.6039 3.04175 12.2779 3.63874 13.5187 4.72738C14.8649 5.92137 15.5789 7.60701 15.5789 9.58529C15.5789 11.5636 14.8649 13.2375 13.5187 14.4315C12.2779 15.5201 10.5922 16.1288 8.78954 16.1288Z" fill="url(#paint0_radial_1193_1608)"/>
<path d="M14.396 5.69543C15.0199 6.70213 15.3453 7.90081 15.3453 9.2341C15.3453 11.2124 14.6313 12.8863 13.2851 14.0803C12.0443 15.1689 10.3587 15.7776 8.55595 15.7776C6.44188 15.7776 4.22011 14.9173 2.91608 13.0923C4.17563 15.1596 6.54372 16.1288 8.79007 16.1288C10.5928 16.1288 12.2784 15.5201 13.5192 14.4315C14.8654 13.2375 15.5795 11.5635 15.5795 9.58527C15.5795 8.09395 15.1733 6.76886 14.396 5.69543Z" fill="#EB8F00"/>
<path d="M8.78954 16.1288C5.52361 16.1288 2.00015 14.0803 2.00015 9.58529C2.00015 5.09026 5.52361 3.04175 8.78954 3.04175C10.6039 3.04175 12.2779 3.63874 13.5187 4.72738C14.8649 5.92137 15.5789 7.60701 15.5789 9.58529C15.5789 11.5636 14.8649 13.2375 13.5187 14.4315C12.2779 15.5201 10.5922 16.1288 8.78954 16.1288Z" fill="url(#paint1_radial_1193_1608)"/>
<path d="M11.849 11.4831C10.9922 11.208 9.95152 11.0616 8.83595 11.0616C7.70283 11.0616 6.65516 11.222 5.78424 11.5006C5.45414 12.0473 5.25397 12.6806 5.25397 13.356C5.25397 13.9296 5.82755 14.269 6.3309 14.0349C6.96302 13.7423 7.88778 13.4496 8.83595 13.4496C9.78413 13.4496 10.7206 13.7423 11.341 14.0349C11.8444 14.269 12.4179 13.9296 12.4179 13.356C12.4179 12.6735 12.199 12.0332 11.849 11.4831Z" fill="#422B0D"/>
<path d="M11.852 11.483C11.1449 10.3709 9.90294 10.09 8.83888 10.09C7.68235 10.09 6.4626 10.3791 5.78717 11.5005C6.65808 11.2219 7.70576 11.0615 8.83888 11.0615C9.95328 11.0615 10.9951 11.2079 11.852 11.483Z" fill="white"/>
<path d="M8.82819 9.9137C9.23789 9.92423 9.65111 9.96169 10.0526 10.0659C10.4553 10.1642 10.8463 10.3328 11.1893 10.5739C11.5287 10.8209 11.8143 11.1416 12.0098 11.5069C12.2088 11.8662 12.354 12.256 12.4266 12.6599C12.464 12.8612 12.4839 13.0661 12.4839 13.2709C12.4874 13.3692 12.4781 13.4851 12.4488 13.5893C12.4184 13.6947 12.3645 13.7918 12.2955 13.8761C12.1573 14.0458 11.9466 14.1465 11.7324 14.1617C11.6259 14.1676 11.5182 14.1535 11.4175 14.1208C11.3157 14.0833 11.2302 14.0376 11.1389 13.9978C10.4132 13.6771 9.62769 13.4687 8.82819 13.45C9.62887 13.4395 10.4272 13.6186 11.174 13.9171C11.2677 13.9534 11.3613 13.999 11.448 14.0271C11.5381 14.0529 11.6329 14.0611 11.7242 14.0529C11.908 14.033 12.0836 13.9393 12.1936 13.7942C12.2486 13.7216 12.2908 13.6396 12.3118 13.5519C12.3329 13.4617 12.3376 13.3763 12.3317 13.2756C12.3236 13.0801 12.2978 12.8858 12.2557 12.6962C12.1725 12.3157 12.0215 11.9505 11.8214 11.6181C11.6247 11.2844 11.3555 11.0058 11.0406 10.7928C10.721 10.5856 10.3605 10.444 9.98355 10.3667C9.60779 10.2848 9.21799 10.2625 8.82819 10.2672V9.9137Z" fill="#EB8F00"/>
<path d="M8.85767 10.2643C8.46904 10.2596 8.07806 10.2818 7.7023 10.3638C7.32537 10.441 6.96483 10.5827 6.64526 10.7899C6.33038 11.0029 6.06114 11.2815 5.86448 11.6151C5.66314 11.9476 5.51331 12.3116 5.4302 12.6932C5.38806 12.884 5.36113 13.0772 5.35411 13.2727C5.34709 13.3733 5.35294 13.4588 5.37401 13.5489C5.39625 13.6367 5.43839 13.7187 5.49224 13.7912C5.60227 13.9364 5.77786 14.03 5.96164 14.0499C6.05412 14.0581 6.14777 14.0499 6.2379 14.0242C6.32452 13.9961 6.41817 13.9516 6.51182 13.9141C7.25748 13.6156 8.05699 13.4366 8.85767 13.4471C8.05699 13.4658 7.27153 13.6742 6.54694 13.9949C6.45563 14.0347 6.37018 14.0804 6.26834 14.1178C6.16767 14.1506 6.05997 14.1647 5.95345 14.1588C5.7404 14.1448 5.5297 14.0429 5.3904 13.8732C5.32133 13.7889 5.26749 13.6917 5.23705 13.5864C5.20779 13.4834 5.19842 13.3675 5.20193 13.268C5.2031 13.0631 5.22301 12.8595 5.25929 12.6569C5.33304 12.2531 5.47702 11.8633 5.67602 11.5039C5.87268 11.1399 6.1583 10.818 6.4966 10.571C6.83958 10.3298 7.23056 10.1601 7.63324 10.0629C8.03592 9.95993 8.44914 9.9213 8.85767 9.91077V10.2643Z" fill="#EB8F00"/>
<path d="M14.396 5.69543C15.0199 6.70213 15.3453 7.90081 15.3453 9.2341C15.3453 11.2124 14.6313 12.8863 13.2851 14.0803C12.0443 15.1689 10.3587 15.7776 8.55595 15.7776C6.44188 15.7776 4.22011 14.9173 2.91608 13.0923C4.17563 15.1596 6.54372 16.1288 8.79007 16.1288C10.5928 16.1288 12.2784 15.5201 13.5192 14.4315C14.8654 13.2375 15.5795 11.5635 15.5795 9.58527C15.5795 8.09395 15.1733 6.76886 14.396 5.69543Z" fill="#EB8F00"/>
<path d="M3.9406 7.59565C3.87973 7.60618 3.81652 7.59682 3.76267 7.57107C3.65615 7.51956 3.57538 7.39431 3.63625 7.23043C3.85983 6.65216 4.32221 6.16754 4.90516 5.89831C5.12172 5.79764 5.34881 5.73092 5.58176 5.69931C5.75618 5.67941 5.85802 5.78593 5.8826 5.89948C5.90952 6.0259 5.85217 6.18042 5.68828 6.23427L5.67424 6.23895C5.04329 6.45668 4.48024 6.90267 4.13141 7.46103C4.08341 7.54063 4.01318 7.58277 3.9406 7.59565Z" fill="#422B0D"/>
<path d="M13.4631 7.46105C13.1143 6.90269 12.5512 6.4567 11.9203 6.23897L11.9062 6.23429C11.7423 6.18161 11.6838 6.02592 11.7119 5.8995C11.7365 5.78478 11.8395 5.67943 12.0127 5.69933C12.2445 5.72977 12.4728 5.79766 12.6893 5.89833C13.2723 6.16756 13.7347 6.65218 13.9582 7.23045C14.0191 7.39433 13.9383 7.51958 13.8318 7.57109C13.7791 7.59684 13.7159 7.60621 13.6539 7.59567C13.5813 7.58279 13.5111 7.54065 13.4631 7.46105Z" fill="#422B0D"/>
<path d="M14.4251 15.215C14.4251 14.8556 13.7754 14.5571 12.9595 14.5384L12.7079 8.38696C12.6833 8.36823 12.6587 8.34599 12.6388 8.32141C12.6388 8.32141 12.6318 8.31205 12.6177 8.29566C12.6107 8.28746 12.6025 8.27693 12.5932 8.26405C12.5826 8.25118 12.5721 8.23713 12.5627 8.23011C12.5428 8.21021 12.5182 8.18562 12.4901 8.15753C12.4609 8.12826 12.4258 8.09666 12.3895 8.06505C12.3146 8.00184 12.2256 7.94331 12.1319 7.90234C12.0383 7.86371 11.9435 7.8403 11.8463 7.84147H11.8311L11.7972 7.84264C11.7667 7.84264 11.7726 7.84498 11.7632 7.84616C11.755 7.84498 11.7222 7.85318 11.7 7.85669C11.6532 7.8684 11.604 7.88244 11.5572 7.90234C11.4635 7.94331 10.9614 7.96555 10.9286 7.98545L10.8747 15.1553C10.3445 15.3156 9.76385 15.5849 9.76385 15.8857C9.76385 16.3762 10.6804 16.7753 11.8112 16.7753C12.942 16.7753 13.8586 16.3785 13.8586 15.888C13.8586 15.8389 13.8469 15.792 13.8293 15.7452C14.1922 15.6211 14.4251 15.4303 14.4251 15.215Z" fill="#29B6F6"/>
<path d="M11.4554 14.7319C11.466 15.1123 11.2365 15.4565 10.883 15.5981C10.4534 15.7702 10.0437 16.0125 10.6571 16.1576C10.6571 16.1576 11.1195 16.3847 11.3548 16.2665C11.4601 16.2138 11.4238 16.1272 11.3513 16.0488C11.2717 15.9633 11.3115 15.8252 11.425 15.7994L11.5257 15.7772C11.7809 15.721 11.96 15.4904 11.9529 15.2294L11.7645 7.54686L11.3794 7.51526L11.4554 14.7319Z" fill="#81D4FA"/>
<path d="M6.83248 15.1564L6.7798 8.00067C6.72244 7.97492 6.62411 8.31322 6.61006 8.29566C6.60304 8.28746 6.59485 8.27693 6.58548 8.26405C6.57495 8.25118 6.56441 8.23713 6.55505 8.2301C6.53515 8.2102 6.51056 8.18562 6.48247 8.15753C6.45321 8.12826 6.41809 8.09666 6.3818 8.06505C6.30688 8.00184 6.21792 7.94331 6.12427 7.90234C6.03063 7.86371 5.93581 7.8403 5.83865 7.84147H5.82343L5.78949 7.84264C5.75905 7.84264 5.7649 7.84498 5.75554 7.84616C5.74734 7.84498 5.71457 7.85318 5.69233 7.85669C5.6455 7.8684 5.59634 7.88244 5.54952 7.90234C5.45587 7.94331 5.3669 8.00184 5.29199 8.06505C5.21824 8.12826 5.1562 8.19031 5.11406 8.23713C5.07192 8.28512 5.04733 8.31205 5.04733 8.31205L5.01222 8.35185C5.00871 8.35536 5.00519 8.3577 5.00168 8.36121L4.74884 14.5384C3.93177 14.5571 3.28326 14.8532 3.28326 15.2126C3.28326 15.428 3.51621 15.6211 3.87792 15.7441C3.86036 15.7909 3.84866 15.8389 3.84866 15.888C3.84866 16.3785 4.76522 16.7765 5.89601 16.7765C7.02679 16.7765 7.94336 16.3762 7.94336 15.8857C7.94336 15.5849 7.36158 15.3168 6.83248 15.1564Z" fill="#29B6F6"/>
<path d="M5.4678 7.97493L5.26295 14.4435C5.2571 14.632 5.09907 14.7795 4.91178 14.7713C4.66829 14.7608 4.33468 14.7889 4.06076 14.9586C3.91327 15.0499 3.8524 15.2829 3.98701 15.4128C4.13451 15.5544 4.5208 15.4315 4.71395 15.4116C4.79823 15.4034 4.90943 15.4116 4.93168 15.4936C4.94455 15.5404 4.91646 15.5907 4.87783 15.6188C4.8392 15.6481 4.79121 15.6598 4.74438 15.6738C4.66712 15.6961 4.58986 15.723 4.52899 15.7757C4.46929 15.8283 4.43067 15.9126 4.45174 15.9899C4.47983 16.0894 4.58986 16.1374 4.68702 16.1713C4.85793 16.2334 5.03235 16.2954 5.21379 16.3036C5.22432 16.1748 5.02415 16.0859 5.06395 15.963C5.078 15.9196 5.11897 15.8916 5.15994 15.8717C5.26997 15.8201 5.39523 15.8096 5.51346 15.7815C5.70777 15.7359 6.05895 15.6375 5.96764 15.3706C5.93721 15.2829 5.87517 15.2114 5.82249 15.1342C5.62466 14.8415 5.58603 14.584 5.62115 14.2328C5.64924 13.9589 5.71948 9.62427 5.7663 7.84148C5.77801 7.41422 5.63871 7.80753 5.49941 7.81807C5.4877 7.83328 5.47951 7.96088 5.4678 7.97493Z" fill="#81D4FA"/>
<path d="M7.03288 8.5934L7.00946 8.56999C6.99776 8.55828 6.96264 8.52316 6.95094 8.51146C6.92752 8.48805 6.90411 8.47634 6.86899 8.44122C6.83388 8.41781 6.79876 8.38269 6.75194 8.35928C6.70511 8.33587 6.65829 8.30075 6.61147 8.27734C6.56464 8.25393 6.50611 8.23052 6.44758 8.20711C6.38905 8.18369 6.33053 8.17199 6.272 8.16028C6.21347 8.14858 6.15494 8.14858 6.0847 8.14858H6.09641H6.0847H6.06129H6.02617C5.99106 8.14858 5.99106 8.14858 5.97935 8.14858C5.95594 8.14858 5.92082 8.16028 5.89741 8.16028C5.83888 8.17199 5.78035 8.18369 5.72182 8.20711C5.66329 8.23052 5.60476 8.24222 5.55794 8.27734C5.51112 8.30075 5.46429 8.32416 5.41747 8.35928C5.33553 8.41781 5.26529 8.47634 5.21847 8.51146C5.17165 8.55828 5.14824 8.58169 5.14824 8.58169L5.12482 8.6051C4.98435 8.74557 4.75024 8.74557 4.58636 8.62851C4.4693 8.53487 4.43418 8.37099 4.49271 8.25393L4.50441 8.21881C4.51612 8.1954 4.52783 8.16028 4.55124 8.12517C4.59806 8.04323 4.68 7.92617 4.80877 7.7974C4.8673 7.73887 4.94924 7.66864 5.03118 7.61011C5.11312 7.55158 5.21847 7.49305 5.32382 7.44623C5.42918 7.39941 5.55794 7.35258 5.675 7.32917C5.73353 7.31747 5.80376 7.30576 5.874 7.29405C5.90912 7.29405 5.95594 7.28235 5.96764 7.28235H6.06129C6.19006 7.28235 6.31882 7.29405 6.44758 7.31747C6.57635 7.34088 6.69341 7.3877 6.79876 7.43452C6.90411 7.48135 7.00946 7.53988 7.09141 7.59841C7.18505 7.65693 7.25529 7.71546 7.31382 7.7857C7.37235 7.84423 7.43088 7.90276 7.46599 7.96128C7.4894 7.9847 7.50111 8.01981 7.52452 8.04323C7.53623 8.06664 7.55964 8.09005 7.57135 8.11346C7.60646 8.16028 7.60646 8.18369 7.61817 8.20711C7.62987 8.23052 7.62987 8.23052 7.62987 8.23052C7.71182 8.4061 7.61817 8.6051 7.41917 8.67534C7.31382 8.73387 7.13823 8.69875 7.03288 8.5934Z" fill="#422B0D"/>
<path d="M12.523 8.55093C12.523 8.55093 12.5148 8.54274 12.4996 8.52752C12.4867 8.51464 12.4575 8.48187 12.4399 8.46899C12.4177 8.45026 12.3907 8.42802 12.3591 8.40227C12.3252 8.37651 12.2866 8.34842 12.2444 8.31915C12.2011 8.29223 12.1543 8.26414 12.1039 8.23956C12.0548 8.21263 11.9986 8.1939 11.9424 8.17283C11.8862 8.15293 11.8265 8.1424 11.7668 8.12952C11.7071 8.12016 11.6451 8.11547 11.583 8.11547C11.6182 8.11547 11.5924 8.11547 11.5994 8.11547H11.5983H11.5959H11.5912H11.5819H11.5631L11.5269 8.11664C11.4964 8.11664 11.4917 8.11899 11.48 8.12016C11.4613 8.12016 11.4274 8.12601 11.3981 8.13069C11.3384 8.14357 11.2787 8.1541 11.2225 8.174C11.1675 8.19507 11.1113 8.2138 11.0621 8.24073C11.0118 8.26648 10.965 8.2934 10.9217 8.32033C10.8374 8.37651 10.7683 8.4327 10.7227 8.47484C10.6758 8.51698 10.6489 8.54274 10.6489 8.54274L10.6196 8.572C10.478 8.70896 10.2392 8.71715 10.0847 8.5919C9.96295 8.4924 9.93252 8.33905 9.99339 8.21146C9.99339 8.21146 9.99924 8.19976 10.0109 8.17634C10.0227 8.1541 10.0367 8.11899 10.0625 8.07802C10.1104 7.9949 10.19 7.87785 10.3165 7.75494C10.3797 7.69407 10.4534 7.62968 10.5412 7.57115C10.6267 7.51028 10.7262 7.45527 10.8362 7.40727C10.9462 7.36045 11.0656 7.31948 11.1921 7.29373C11.2564 7.28202 11.3161 7.27032 11.3946 7.26329C11.4309 7.25978 11.4742 7.25627 11.4929 7.2551L11.583 7.25159C11.7153 7.25393 11.8464 7.26797 11.974 7.29256C12.1004 7.31831 12.2198 7.35928 12.3299 7.4061C12.4387 7.4541 12.5394 7.50911 12.6249 7.56998C12.7127 7.62851 12.7852 7.69172 12.8484 7.75376C12.9117 7.81464 12.962 7.87551 13.0041 7.93052C13.024 7.95862 13.0428 7.98437 13.0603 8.00895C13.0767 8.03587 13.0931 8.06046 13.106 8.0827C13.1376 8.13186 13.1399 8.15059 13.1516 8.17283C13.1598 8.19156 13.1645 8.2021 13.1645 8.2021C13.2429 8.37651 13.1481 8.57434 12.9526 8.64458C12.7993 8.69959 12.6272 8.65745 12.523 8.55093Z" fill="#422B0D"/>
<path d="M4.97378 2.28242H5.46055C5.46055 2.28242 6.34811 2.17946 7.34042 2.11376C7.75674 2.06058 8.24085 2.01569 8.81211 2C9.29867 2 9.72604 2.0486 10.1063 2.11542C11.0909 2.18119 11.9961 2.28242 11.9961 2.28242H12.7622C13.542 3.38042 14.1025 4.50798 14.3595 5.66624C11.84 5.05511 8.79917 6.21851 8.79917 6.21851C8.79917 6.21851 5.73558 5.19973 3.28906 5.5338C3.68117 4.34812 4.16443 3.27215 4.97378 2.28242Z" fill="#7F2125"/>
<path d="M4.97378 2.28242H5.46055C5.46055 2.28242 7.46 2.05047 8.81211 2.06071C10.101 2.07047 11.9961 2.28242 11.9961 2.28242H12.7622M4.97378 2.28242C4.16443 3.27215 3.68117 4.34812 3.28906 5.5338C5.73558 5.19973 8.79917 6.21851 8.79917 6.21851C8.79917 6.21851 11.84 5.05511 14.3595 5.66624C14.1025 4.50798 13.542 3.38042 12.7622 2.28242M4.97378 2.28242C5.6964 2.55844 6.60198 2.06071 8.81211 2C10.9035 2 11.9013 2.89779 12.7622 2.28242" stroke="#67211F" stroke-width="0.065961"/>
<path d="M8.82617 6.19582V2.06787C10.7503 2.09051 11.1125 2.30936 12.7677 2.30231C13.28 2.97394 14.1274 4.23154 14.3651 5.65653C12.329 5.20952 10.1762 5.66784 8.82617 6.19582Z" fill="#67211F" stroke="#67211F" stroke-width="0.0413981"/>
<path d="M6.21721 2.28665C5.86376 2.08701 5.54557 2.38476 5.46503 2.27156L5.00977 2.28376C5.36462 2.60495 5.97091 2.241 6.21721 2.28665Z" fill="#67211F"/>
<path d="M11.4388 2.62543C11.7948 2.42417 12.0797 2.55419 12.065 2.26514H12.7676C12.4102 2.58892 11.6869 2.57941 11.4388 2.62543Z" fill="#67211F" fill-opacity="0.56"/>
<path d="M8.88126 2.31497L8.87069 2.90473L8.96599 2.90337L8.88126 2.31497Z" fill="#67211F" stroke="#67211F" stroke-width="0.100363"/>
<path d="M6.74903 2.22659C6.49038 2.24393 6.34035 2.30752 6.12625 2.31937C6.16639 3.84816 6.15354 4.21554 6.5996 5.67975C6.98419 5.73113 7.27709 5.78821 7.61077 5.84741C6.69874 4.57129 6.80708 3.62038 6.74903 2.22659Z" fill="#D60000" stroke="#67211F" stroke-width="0.0413981"/>
<path d="M6.32578 2.30198L6.13991 2.32692L6.1348 2.58659L6.32578 2.30198Z" fill="#398F00" stroke="#67211F" stroke-width="0.00836361"/>
<path d="M6.13917 3.35524L6.74556 2.46829L6.73956 2.23387L6.32455 2.30254L6.13357 2.58715L6.13917 3.35524Z" fill="#FF7F00" stroke="#67211F" stroke-width="0.00836361"/>
<path d="M6.53656 2.76932C6.53656 2.76932 6.28555 2.5488 6.19961 2.49168L6.13595 2.58655L6.14807 3.34659C6.24138 3.20697 6.53656 2.76932 6.53656 2.76932Z" fill="#D60000" stroke="#67211F" stroke-width="0.00836361"/>
<path d="M6.81773 3.33716C6.78332 3.02841 6.76882 2.8361 6.74852 2.46812L6.14865 3.347C6.15994 3.66498 6.17388 3.83944 6.20237 4.14542L6.81773 3.33716Z" fill="#007FFF" stroke="#67211F" stroke-width="0.00669088"/>
<path d="M6.66781 3.52992L6.27539 3.15757L6.14807 3.34731C6.16432 3.66044 6.17477 3.83401 6.2018 4.14574L6.66781 3.52992Z" fill="#398F00" stroke="#67211F" stroke-width="0.00669088"/>
<path d="M6.77758 4.24784L6.39414 3.88889L6.1999 4.14489C6.24391 4.46584 6.28224 4.60618 6.33445 4.8681L6.77758 4.24784Z" fill="#D60000" stroke="#67211F" stroke-width="0.00669088"/>
<path d="M6.8441 5.06718L6.45984 4.70108L6.33742 4.86846C6.43366 5.19024 6.45812 5.27426 6.54458 5.51021L6.8441 5.06718Z" fill="#007FFF" stroke="#67211F" stroke-width="0.00669088"/>
<path d="M7.00626 5.73684L6.63016 5.37699L6.5412 5.51124L6.60577 5.66491L7.00626 5.73684Z" fill="#FF7F00" stroke="#67211F" stroke-width="0.00669088"/>
<path d="M6.93571 4.03316C6.88219 3.79593 6.85543 3.64883 6.81914 3.33674L6.39802 3.88902C6.64767 4.11938 6.59709 4.06759 6.78146 4.24797L6.93571 4.03316Z" fill="#FF7F00" stroke="#67211F" stroke-width="0.00669088"/>
<path d="M7.09715 4.68818C7.04252 4.47007 6.99276 4.36015 6.93406 4.04101L6.45826 4.70156C6.70435 4.9482 6.65462 4.89213 6.84169 5.06044L7.09715 4.68818Z" fill="#398F00" stroke="#67211F" stroke-width="0.00669088"/>
<path d="M7.33807 5.30368C7.24508 5.07579 7.19696 4.98017 7.09664 4.68791L6.63144 5.37616C6.82479 5.56994 6.82479 5.56994 7.01569 5.74226L7.33807 5.30368Z" fill="#D60000" stroke="#67211F" stroke-width="0.00669088"/>
<path d="M7.60366 5.84868C7.41112 5.66206 7.42858 5.65528 7.22707 5.45525L7.00264 5.73234C7.32166 5.77522 7.30616 5.78834 7.30616 5.78834L7.60366 5.84868Z" fill="#398F00" stroke="#67211F" stroke-width="0.00669088"/>
<path d="M7.33578 5.30397L7.22642 5.45523L7.58773 5.83284L7.6096 5.8488L7.33578 5.30397Z" fill="#007FFF" stroke="#67211F" stroke-width="0.00669088"/>
<path d="M7.00776 4.3653L6.93437 4.04796L6.8952 4.0963L6.83726 4.17596L7.00776 4.3653Z" fill="#007FFF" stroke="#67211F" stroke-width="0.00669088"/>
<g filter="url(#filter0_d_1193_1608)">
<path d="M7.91654 3.49151L8.03592 3.33406C8.03592 3.33406 8.16562 3.79583 8.07507 4.09123C8.00307 4.32611 7.73761 4.63262 7.73761 4.63262C7.61611 4.89726 7.62389 5.0424 7.68975 5.29914L7.44746 5.54217C7.44746 5.54217 7.37255 5.20565 7.25151 5.04062C7.07589 4.80117 6.78613 4.86629 6.60744 4.65583C6.34286 4.34422 6.48004 3.68633 6.48004 3.68633L6.69472 3.84491C6.69472 3.84491 6.82483 3.68111 6.95198 3.44603C6.99751 3.36184 7.04266 3.26851 7.08133 3.17029C7.14043 3.02015 7.20625 2.77871 7.20625 2.77871L7.33035 2.99539L7.43016 2.88018C7.43016 2.88018 7.43886 3.04626 7.4757 3.13914C7.56023 3.35229 7.6573 3.42988 7.91654 3.49151Z" fill="url(#paint2_linear_1193_1608)"/>
<path d="M7.91654 3.49151C7.96316 3.43002 8.03592 3.33406 8.03592 3.33406C8.03592 3.33406 8.16562 3.79583 8.07507 4.09123C8.00307 4.32611 7.73761 4.63262 7.73761 4.63262C7.61611 4.89726 7.62389 5.0424 7.68975 5.29914L7.44746 5.54217C7.44746 5.54217 7.37255 5.20565 7.25151 5.04062C7.07589 4.80117 6.78613 4.86629 6.60744 4.65583C6.34286 4.34422 6.48004 3.68633 6.48004 3.68633L6.69472 3.84491M7.91654 3.49151C7.6573 3.42988 7.56023 3.35229 7.4757 3.13914C7.43886 3.04626 7.43016 2.88018 7.43016 2.88018L7.33035 2.99539M7.91654 3.49151C7.90943 3.51379 7.70092 3.89811 7.70092 3.89811C7.70092 3.89811 7.53787 3.63175 7.46456 3.45113M6.69472 3.84491C6.81754 3.96542 6.83602 4.04418 6.87082 4.18381L7.03022 3.68415L7.27342 3.9909L7.3159 3.32317L7.46456 3.45113M6.69472 3.84491C6.69472 3.84491 6.82483 3.68111 6.95198 3.44603C6.99751 3.36184 7.04266 3.26851 7.08133 3.17029C7.14043 3.02015 7.20625 2.77871 7.20625 2.77871L7.33035 2.99539M7.33035 2.99539C7.33035 2.99539 7.39406 3.27746 7.46456 3.45113" stroke="#F8F7FC" stroke-width="0.0413981"/>
</g>
<defs>
<filter id="filter0_d_1193_1608" x="6.42334" y="2.72388" width="1.84886" height="2.9865" filterUnits="userSpaceOnUse" color-interpolation-filters="sRGB">
<feFlood flood-opacity="0" result="BackgroundImageFix"/>
<feColorMatrix in="SourceAlpha" type="matrix" values="0 0 0 0 0 0 0 0 0 0 0 0 0 0 0 0 0 0 127 0" result="hardAlpha"/>
<feOffset dx="0.0836361" dy="0.0669089"/>
<feGaussianBlur stdDeviation="0.030109"/>
<feComposite in2="hardAlpha" operator="out"/>
<feColorMatrix type="matrix" values="0 0 0 0 0 0 0 0 0 0 0 0 0 0 0 0 0 0 0.25 0"/>
<feBlend mode="normal" in2="BackgroundImageFix" result="effect1_dropShadow_1193_1608"/>
<feBlend mode="normal" in="SourceGraphic" in2="effect1_dropShadow_1193_1608" result="shape"/>
</filter>
<radialGradient id="paint0_radial_1193_1608" cx="0" cy="0" r="1" gradientUnits="userSpaceOnUse" gradientTransform="translate(8.78954 9.58527) scale(6.66761 6.66758)">
<stop offset="0.5" stop-color="#FDE030"/>
<stop offset="0.9188" stop-color="#F7C02B"/>
<stop offset="1" stop-color="#F4A223"/>
</radialGradient>
<radialGradient id="paint1_radial_1193_1608" cx="0" cy="0" r="1" gradientUnits="userSpaceOnUse" gradientTransform="translate(8.78954 9.58527) scale(6.66761 6.66758)">
<stop offset="0.5" stop-color="#FDE030"/>
<stop offset="0.9188" stop-color="#F7C02B"/>
<stop offset="1" stop-color="#F4A223"/>
</radialGradient>
<linearGradient id="paint2_linear_1193_1608" x1="7.60319" y1="2.86805" x2="7.02285" y2="5.4466" gradientUnits="userSpaceOnUse">
<stop stop-color="#C9C9C9"/>
<stop offset="1" stop-color="#939297"/>
</linearGradient>
</defs>
</svg>
