<svg width="18" height="18" viewBox="0 0 18 18" fill="none" xmlns="http://www.w3.org/2000/svg">
<path d="M9.29079 16.8177C5.78191 16.8177 1.99634 14.6168 1.99634 9.78739C1.99634 4.95798 5.78191 2.75708 9.29079 2.75708C11.2402 2.75708 13.0386 3.39849 14.3717 4.56811C15.8181 5.85092 16.5852 7.66195 16.5852 9.78739C16.5852 11.9128 15.8181 13.7113 14.3717 14.9941C13.0386 16.1637 11.2276 16.8177 9.29079 16.8177Z" fill="url(#paint0_radial_1193_893)"/>
<path d="M15.3134 5.60876C15.9837 6.69035 16.3333 7.97819 16.3333 9.41067C16.3333 11.5361 15.5662 13.3346 14.1198 14.6174C12.7867 15.787 10.9757 16.441 9.03888 16.441C6.76754 16.441 4.38553 15.5166 2.97946 13.5559C4.33271 15.7769 6.87822 16.8183 9.29042 16.8183C11.2272 16.8183 13.0383 16.1643 14.3714 14.9947C15.8177 13.7119 16.5849 11.9134 16.5849 9.78796C16.5849 8.18571 16.1485 6.76204 15.3134 5.60876Z" fill="#EB8F00"/>
<path d="M9.34106 14.4455C9.82526 14.4455 10.3057 14.5285 10.7622 14.6882C11.7306 15.0265 12.5695 13.9336 12.0073 13.0784C11.4212 12.1943 10.5094 11.9427 9.34106 11.9427C8.17269 11.9427 7.26214 12.183 6.67607 13.0746C6.11264 13.9311 6.95276 15.0215 7.92116 14.6844C8.37769 14.5247 8.85812 14.4442 9.34106 14.4455Z" fill="#422B0D"/>
<path d="M6.82614 8.16235C6.29918 8.16235 5.82001 8.60756 5.82001 9.34707C5.82001 10.0866 6.29918 10.5305 6.82614 10.5305C7.35436 10.5305 7.83227 10.0853 7.83227 9.34707C7.83227 8.60882 7.35939 8.16235 6.82614 8.16235Z" fill="#422B0D"/>
<path d="M6.78434 8.65707C6.60575 8.57155 6.39069 8.64701 6.30391 8.8256C6.23726 8.9652 6.26744 9.13247 6.37937 9.24062C6.55796 9.32615 6.77302 9.25069 6.8598 9.0721C6.92645 8.9325 6.89627 8.76523 6.78434 8.65707Z" fill="#896024"/>
<path d="M11.6551 8.16235C11.1282 8.16235 10.649 8.60756 10.649 9.34707C10.649 10.0866 11.1282 10.5305 11.6551 10.5305C12.1821 10.5305 12.6612 10.0853 12.6612 9.34707C12.6612 8.60882 12.1821 8.16235 11.6551 8.16235Z" fill="#422B0D"/>
<path d="M11.6046 8.65707C11.426 8.57155 11.2109 8.64701 11.1242 8.8256C11.0575 8.9652 11.0877 9.13247 11.1996 9.24062C11.3782 9.32615 11.5933 9.25069 11.68 9.0721C11.7467 8.9325 11.7165 8.76523 11.6046 8.65707Z" fill="#896024"/>
<path d="M5.35253 1.26695H5.85699C5.85699 1.26695 7.92911 0.98872 9.33038 1.00101C10.6661 1.01272 12.6301 1.26695 12.6301 1.26695H13.424C14.2322 2.584 14.8131 3.9365 15.0794 5.32584C12.6301 5.62911 9.3698 6.34278 9.3698 6.34278C9.3698 6.34278 6.28126 5.70854 3.60657 5.16698C4.01293 3.74476 4.51375 2.45413 5.35253 1.26695Z" fill="#7F2125"/>
<path d="M5.35253 1.26695H5.85699C5.85699 1.26695 7.92911 0.98872 9.33038 1.00101C10.6661 1.01272 12.6301 1.26695 12.6301 1.26695H13.424M5.35253 1.26695C4.51375 2.45413 4.01293 3.74476 3.60657 5.16698C6.28126 5.70854 9.3698 6.34278 9.3698 6.34278C9.3698 6.34278 12.6301 5.62911 15.0794 5.32584C14.8131 3.9365 14.2322 2.584 13.424 1.26695M5.35253 1.26695C6.0087 1.97025 6.94354 1.52845 9.33038 2.06968C11.4914 1.54481 12.5319 2.00508 13.424 1.26695" stroke="#67211F" stroke-width="0.0587614"/>
<path d="M9.38005 6.33505L9.35706 2.07298C10.9818 1.58021 12.2153 1.96492 13.4342 1.29065C13.9651 2.09628 14.8433 3.60476 15.0896 5.31404C13.2196 5.53038 10.2461 6.14879 9.38005 6.33505Z" fill="#67211F" stroke="#67211F" stroke-width="0.0368795"/>
<path d="M12.0548 1.67607C12.4237 1.43466 12.719 1.59062 12.7038 1.2439H13.4319C13.0615 1.63227 12.3118 1.62087 12.0548 1.67607Z" fill="#67211F" fill-opacity="0.56"/>
<path d="M6.56117 1.7232C6.19226 1.47933 5.84615 1.61149 5.86133 1.26123L5.38617 1.27613C5.75653 1.66847 6.3041 1.66744 6.56117 1.7232Z" fill="#67211F"/>
<path d="M9.40478 1.30515L9.32193 2.02433L9.47408 2.01397L9.40478 1.30515Z" fill="#67211F" stroke="#67211F" stroke-width="0.0894087"/>
<path d="M7.409 1.78995C7.14362 1.77285 6.98389 1.75662 6.76454 1.73989C6.55645 3.28763 6.45714 4.34683 7.00167 5.83218C7.35759 5.90965 7.72893 5.95744 8.0849 6.02745C7.31641 4.59478 7.29372 3.22816 7.409 1.78995Z" fill="#D60000" stroke="#67211F" stroke-width="0.0368795"/>
<path d="M6.97362 1.76317L6.78363 1.74665L6.74311 2.03013L6.97362 1.76317Z" fill="#398F00" stroke="#67211F" stroke-width="0.00745073"/>
<path d="M6.64972 2.81963L7.37778 1.99121L7.387 1.80502L6.97007 1.7643L6.74012 2.03061L6.64972 2.81963Z" fill="#FF7F00" stroke="#67211F" stroke-width="0.00745073"/>
<path d="M7.12661 2.27183C7.12661 2.27183 6.89876 2.01165 6.81845 1.94145L6.7418 2.03022L6.65905 2.81184C6.77148 2.68115 7.12661 2.27183 7.12661 2.27183Z" fill="#D60000" stroke="#67211F" stroke-width="0.00745073"/>
<path d="M7.34102 2.8923C7.34463 2.5708 7.35393 2.37149 7.3793 1.99111L6.65889 2.81212C6.63061 3.13998 6.62297 3.3209 6.61369 3.63875L7.34102 2.8923Z" fill="#007FFF" stroke="#67211F" stroke-width="0.00596058"/>
<path d="M7.16681 3.06933L6.81405 2.63427L6.66075 2.81181C6.63811 3.13535 6.62703 3.31488 6.61554 3.63845L7.16681 3.06933Z" fill="#398F00" stroke="#67211F" stroke-width="0.00596058"/>
<path d="M7.1896 3.82141L6.84429 3.40131L6.6146 3.63782C6.61924 3.97313 6.64069 4.12232 6.66105 4.39816L7.1896 3.82141Z" fill="#D60000" stroke="#67211F" stroke-width="0.00596058"/>
<path d="M7.15226 4.67228L6.80702 4.24473L6.6615 4.39998C6.71917 4.74319 6.73356 4.83271 6.79202 5.08652L7.15226 4.67228Z" fill="#007FFF" stroke="#67211F" stroke-width="0.00596058"/>
<path d="M7.23571 5.37966L6.89799 4.95962L6.79066 5.08539C6.8713 5.40644 6.87895 5.39905 6.95265 5.64553L7.23571 5.37966Z" fill="#FF7F00" stroke="#67211F" stroke-width="0.00596058"/>
<path d="M7.41466 5.89589L7.10702 5.5059L6.95405 5.64619C6.97628 5.70598 7.00597 5.78073 7.02082 5.81811L7.41466 5.89589Z" fill="#007FFF" stroke="#67211F" stroke-width="0.00596058"/>
<path d="M7.37412 3.62319C7.34933 3.37252 7.3405 3.21794 7.34261 2.89277L6.84497 3.40273C7.0702 3.67282 7.02521 3.61284 7.19027 3.82283L7.37412 3.62319Z" fill="#FF7F00" stroke="#67211F" stroke-width="0.00596058"/>
<path d="M7.45741 4.31583C7.4291 4.08462 7.39221 3.96511 7.3724 3.62967L6.80557 4.24335C7.02515 4.52968 6.98156 4.46542 7.15087 4.66339L7.45741 4.31583Z" fill="#398F00" stroke="#67211F" stroke-width="0.00596058"/>
<path d="M7.62582 4.98185C7.5597 4.73543 7.52269 4.63082 7.45716 4.31735L6.89765 4.9609C7.07017 5.18585 7.07017 5.18585 7.24289 5.38845L7.62582 4.98185Z" fill="#D60000" stroke="#67211F" stroke-width="0.00596058"/>
<path d="M7.82624 5.5416C7.65365 5.3241 7.67615 5.35409 7.4961 5.12162L7.10578 5.50581C7.27831 5.73076 7.24829 5.69326 7.40584 5.89574L7.82624 5.5416Z" fill="#398F00" stroke="#67211F" stroke-width="0.00596058"/>
<path d="M7.6268 4.98093L7.49659 5.12141L7.82672 5.54139L7.83431 5.54145L7.6268 4.98093Z" fill="#007FFF" stroke="#67211F" stroke-width="0.00596058"/>
<path d="M7.40614 3.97262L7.37115 3.63705L7.32524 3.68138L7.25631 3.75531L7.40614 3.97262Z" fill="#007FFF" stroke="#67211F" stroke-width="0.00596058"/>
<path d="M7.61347 5.72581L7.83518 5.53393C7.91396 5.72552 7.96253 5.82781 8.05865 6.00518L7.78593 5.95821L7.61347 5.72581Z" fill="#FF7F00" stroke="#67211F" stroke-width="0.00447043"/>
<g filter="url(#filter0_d_1193_893)">
<path d="M8.56074 2.87454L8.68446 2.68568C8.68446 2.68568 8.81888 3.23957 8.72504 3.59391C8.65042 3.87565 8.37532 4.2433 8.37532 4.2433C8.2494 4.56074 8.25745 4.73484 8.32571 5.04279L8.07462 5.33431C8.07462 5.33431 7.99698 4.93066 7.87154 4.7327C7.68954 4.44548 7.38924 4.52359 7.20406 4.27114C6.92986 3.89736 7.07203 3.10823 7.07203 3.10823L7.29451 3.29844C7.29451 3.29844 7.42935 3.10196 7.56112 2.81998C7.60831 2.719 7.65511 2.60706 7.69518 2.48924C7.75643 2.30914 7.82463 2.01954 7.82463 2.01954L7.95325 2.27945L8.05669 2.14125C8.05669 2.14125 8.06571 2.34047 8.10388 2.45187C8.19148 2.70754 8.29209 2.80062 8.56074 2.87454Z" fill="#939297"/>
<path d="M8.56074 2.87454C8.60906 2.80079 8.68446 2.68568 8.68446 2.68568C8.68446 2.68568 8.81888 3.23957 8.72504 3.59391C8.65042 3.87565 8.37532 4.2433 8.37532 4.2433C8.2494 4.56074 8.25745 4.73484 8.32571 5.04279L8.07462 5.33431C8.07462 5.33431 7.99698 4.93066 7.87154 4.7327C7.68954 4.44548 7.38924 4.52359 7.20406 4.27114C6.92986 3.89736 7.07203 3.10823 7.07203 3.10823L7.29451 3.29844M8.56074 2.87454C8.29209 2.80062 8.19148 2.70754 8.10388 2.45187C8.06571 2.34047 8.05669 2.14125 8.05669 2.14125L7.95325 2.27945M8.56074 2.87454C8.55338 2.90126 8.33729 3.36225 8.33729 3.36225C8.33729 3.36225 8.16831 3.04276 8.09233 2.82611M7.29451 3.29844C7.4218 3.443 7.44095 3.53747 7.47702 3.70496L7.64221 3.10561L7.89425 3.47356M7.29451 3.29844C7.29451 3.29844 7.42935 3.10196 7.56112 2.81998C7.60831 2.719 7.65511 2.60706 7.69518 2.48924C7.75643 2.30914 7.82463 2.01954 7.82463 2.01954L7.95325 2.27945M7.95325 2.27945C7.95325 2.27945 8.01928 2.61779 8.09233 2.82611M8.09233 2.82611L7.93827 2.67262L7.89425 3.47356M7.89425 3.47356L7.87154 3.86935" stroke="#F8F7FC" stroke-width="0.0368795"/>
</g>
<defs>
<filter id="filter0_d_1193_893" x="7.01669" y="1.96521" width="1.88828" height="3.52329" filterUnits="userSpaceOnUse" color-interpolation-filters="sRGB">
<feFlood flood-opacity="0" result="BackgroundImageFix"/>
<feColorMatrix in="SourceAlpha" type="matrix" values="0 0 0 0 0 0 0 0 0 0 0 0 0 0 0 0 0 0 127 0" result="hardAlpha"/>
<feOffset dx="0.0745073" dy="0.0596058"/>
<feGaussianBlur stdDeviation="0.0268226"/>
<feComposite in2="hardAlpha" operator="out"/>
<feColorMatrix type="matrix" values="0 0 0 0 0 0 0 0 0 0 0 0 0 0 0 0 0 0 0.25 0"/>
<feBlend mode="normal" in2="BackgroundImageFix" result="effect1_dropShadow_1193_893"/>
<feBlend mode="normal" in="SourceGraphic" in2="effect1_dropShadow_1193_893" result="shape"/>
</filter>
<radialGradient id="paint0_radial_1193_893" cx="0" cy="0" r="1" gradientUnits="userSpaceOnUse" gradientTransform="translate(9.29079 9.78739) scale(7.16361 7.16358)">
<stop offset="0.5" stop-color="#FDE030"/>
<stop offset="0.92" stop-color="#F7C02B"/>
<stop offset="1" stop-color="#F4A223"/>
</radialGradient>
</defs>
</svg>
