<svg width="19" height="19" viewBox="0 0 19 19" fill="none" xmlns="http://www.w3.org/2000/svg">
<path d="M9.97928 17.8884C6.49273 17.8884 2.73126 15.7015 2.73126 10.9028C2.73126 6.10413 6.49273 3.91724 9.97928 3.91724C11.9162 3.91724 13.7033 4.55456 15.0279 5.71674C16.465 6.99138 17.2273 8.79088 17.2273 10.9028C17.2273 13.0147 16.465 14.8017 15.0279 16.0764C13.7033 17.2385 11.9038 17.8884 9.97928 17.8884Z" fill="url(#paint0_radial_1200_7584)"/>
<path d="M8.22071 8.16538C8.17822 8.14164 8.13698 8.1179 8.09574 8.0979C7.05228 7.5793 5.78637 8.00418 5.26776 9.04764C4.74916 10.0911 5.17404 11.357 6.2175 11.8756C7.26097 12.3942 8.52687 11.9693 9.04548 10.9259C9.53909 9.93239 9.17919 8.72523 8.22071 8.16538Z" fill="white"/>
<path d="M7.24877 9.39389C7.75328 9.39389 8.16227 8.9849 8.16227 8.48039C8.16227 7.97588 7.75328 7.56689 7.24877 7.56689C6.74425 7.56689 6.33527 7.97588 6.33527 8.48039C6.33527 8.9849 6.74425 9.39389 7.24877 9.39389Z" fill="#422B0D"/>
<path d="M13.7965 8.16641C13.754 8.14267 13.7115 8.11893 13.6716 8.09893C12.6318 7.58157 11.3709 8.00646 10.8536 9.04492C10.3362 10.0846 10.7611 11.3455 11.7996 11.8629C12.8393 12.3802 14.1002 11.9554 14.6175 10.9169C15.1099 9.92717 14.7513 8.72501 13.7965 8.16641Z" fill="white"/>
<path d="M12.8259 9.39389C13.3305 9.39389 13.7394 8.9849 13.7394 8.48039C13.7394 7.97588 13.3305 7.56689 12.8259 7.56689C12.3214 7.56689 11.9124 7.97588 11.9124 8.48039C11.9124 8.9849 12.3214 9.39389 12.8259 9.39389Z" fill="#422B0D"/>
<path d="M10.7429 10.0209C10.8191 10.537 11.0728 11.0106 11.4602 11.3605C11.6439 11.5217 11.8563 11.6492 12.085 11.7354C12.3124 11.8216 12.5536 11.8641 12.796 11.8604C13.2897 11.8604 13.767 11.6792 14.1357 11.3517C14.5231 11.0018 14.7767 10.5282 14.853 10.0121H14.878C14.878 11.1618 13.9457 12.094 12.796 12.094C11.6464 12.094 10.7141 11.1618 10.7141 10.0121C10.7141 10.0121 10.7141 10.0121 10.7141 10.0109L10.7429 10.0209Z" fill="#F4A223"/>
<path d="M5.17291 10.021C5.24914 10.5371 5.50282 11.0107 5.89021 11.3606C6.07391 11.5218 6.28635 11.6493 6.51504 11.7355C6.74248 11.8217 6.98366 11.8642 7.2261 11.8604C7.71971 11.8604 8.19583 11.6792 8.56573 11.3518C8.95312 11.0019 9.2068 10.5283 9.28303 10.0122H9.30803C9.30803 11.1619 8.37578 12.0941 7.2261 12.0941C6.07641 12.0941 5.14417 11.1631 5.14417 10.0135C5.14417 10.0135 5.14417 10.0135 5.14417 10.0122L5.17291 10.021Z" fill="#F4A223"/>
<path d="M15.9635 6.75037C16.6295 7.82507 16.9769 9.10471 16.9769 10.5281C16.9769 12.64 16.2146 14.427 14.7775 15.7016C13.4529 16.8638 11.6534 17.5136 9.72892 17.5136C7.47204 17.5136 5.10519 16.5951 3.70807 14.6469C5.0527 16.8538 7.58201 17.8885 9.97885 17.8885C11.9033 17.8885 13.7028 17.2387 15.0275 16.0765C16.4646 14.8019 17.2269 13.0149 17.2269 10.903C17.2269 9.31091 16.7932 7.8963 15.9635 6.75037Z" fill="#EB8F00"/>
<path d="M11.4017 15.2887H8.65248C8.37631 15.2887 8.15262 15.065 8.15262 14.7888C8.15262 14.5126 8.37631 14.2889 8.65248 14.2889H11.4017C11.6779 14.2889 11.9016 14.5126 11.9016 14.7888C11.9016 15.065 11.6779 15.2887 11.4017 15.2887Z" fill="#422B0D"/>
<path d="M6.07674 2.33425H6.57077C6.57077 2.33425 8.60002 2.05866 9.97228 2.07083C11.2804 2.08243 13.2037 2.33425 13.2037 2.33425H13.9812C14.7727 3.63878 15.3415 4.97844 15.6023 6.35457C13.0453 5.62849 9.97228 7.16316 9.97228 7.16316C9.97228 7.16316 6.85309 5.65527 4.36691 6.19723C4.76486 4.78852 5.25533 3.51014 6.07674 2.33425Z" fill="#7F2125"/>
<path d="M6.07674 2.33425H6.57077C6.57077 2.33425 8.60002 2.05866 9.97228 2.07083C11.2804 2.08243 13.2037 2.33425 13.2037 2.33425H13.9812M6.07674 2.33425C5.25533 3.51014 4.76486 4.78852 4.36691 6.19723C6.85309 5.65527 9.97228 7.16316 9.97228 7.16316C9.97228 7.16316 13.0453 5.62849 15.6023 6.35457C15.3415 4.97844 14.7727 3.63878 13.9812 2.33425M6.07674 2.33425C6.71934 3.03087 7.63484 2.59326 9.97228 3.12934C12.0886 2.60946 13.1076 3.06537 13.9812 2.33425" stroke="#67211F" stroke-width="0.0582032"/>
<path d="M9.9895 7.14038L9.99701 3.1328C11.5881 2.64472 12.7961 3.02578 13.9898 2.35791C14.5097 3.15589 15.3697 4.65004 15.611 6.34308C13.5446 5.81199 11.3597 6.51308 9.9895 7.14038Z" fill="#67211F" stroke="#67211F" stroke-width="0.0365292"/>
<path d="M7.2593 2.78608C6.89803 2.54452 6.55908 2.67542 6.57394 2.32849L6.10861 2.34325C6.47131 2.73186 7.00755 2.73085 7.2593 2.78608Z" fill="#67211F"/>
<path d="M12.6396 2.74154C13.0009 2.50243 13.2901 2.6569 13.2752 2.31348H13.9882C13.6255 2.69816 12.8914 2.68687 12.6396 2.74154Z" fill="#67211F" fill-opacity="0.56"/>
<path d="M10.0423 2.37242L9.9612 3.08476L10.1102 3.0745L10.0423 2.37242Z" fill="#67211F" stroke="#67211F" stroke-width="0.0885594"/>
<path d="M8.09286 2.86709C7.83019 2.85243 7.67205 2.83778 7.4549 2.82312C7.31982 4.37291 7.26797 4.75667 7.54942 6.2917C7.93113 6.39145 8.21978 6.48557 8.54929 6.58689C7.77661 5.18396 7.99133 4.2827 8.09286 2.86709Z" fill="#D60000" stroke="#67211F" stroke-width="0.0365292"/>
<path d="M7.66752 2.84544L7.47713 2.83057L7.43906 3.11314L7.66752 2.84544Z" fill="#398F00" stroke="#67211F" stroke-width="0.00737995"/>
<path d="M7.35431 3.88637L8.06731 3.06556L8.07482 2.88235L7.66203 2.8457L7.43687 3.10953L7.35431 3.88637Z" fill="#FF7F00" stroke="#67211F" stroke-width="0.00737995"/>
<path d="M7.8179 3.34346C7.8179 3.34346 7.59024 3.0894 7.51018 3.021L7.43513 3.10894L7.36008 3.87844C7.47015 3.74897 7.8179 3.34346 7.8179 3.34346Z" fill="#D60000" stroke="#67211F" stroke-width="0.00737995"/>
<path d="M8.03799 3.95169C8.03876 3.63543 8.04622 3.43931 8.06801 3.06494L7.36251 3.87841C7.33738 4.20113 7.33139 4.37915 7.32498 4.69187L8.03799 3.95169Z" fill="#007FFF" stroke="#67211F" stroke-width="0.00590396"/>
<path d="M7.86536 4.1277L7.51261 3.70264L7.36251 3.87852C7.34293 4.19695 7.33353 4.37364 7.32498 4.692L7.86536 4.1277Z" fill="#398F00" stroke="#67211F" stroke-width="0.00590396"/>
<path d="M7.89538 4.8678L7.55014 4.4574L7.32498 4.69191C7.33249 5.0217 7.355 5.16827 7.37755 5.43943L7.89538 4.8678Z" fill="#D60000" stroke="#67211F" stroke-width="0.00590396"/>
<path d="M7.86449 5.70325L7.51925 5.28552L7.37665 5.43942C7.43669 5.77654 7.4517 5.86448 7.51174 6.11366L7.86449 5.70325Z" fill="#007FFF" stroke="#67211F" stroke-width="0.00590396"/>
<path d="M7.95907 6.4013L7.61969 5.98889L7.5141 6.11409L7.56177 6.2782L7.95907 6.4013Z" fill="#FF7F00" stroke="#67211F" stroke-width="0.00590396"/>
<path d="M8.07264 4.66987C8.04593 4.4235 8.03586 4.27153 8.03512 3.95166L7.54727 4.45734C7.77243 4.72117 7.7274 4.66254 7.89252 4.86774L8.07264 4.66987Z" fill="#FF7F00" stroke="#67211F" stroke-width="0.00590396"/>
<path d="M8.16541 5.35172C8.13539 5.12454 8.09787 5.00728 8.07535 4.67749L7.51996 5.28577C7.73967 5.56561 7.69598 5.50276 7.8652 5.6961L8.16541 5.35172Z" fill="#398F00" stroke="#67211F" stroke-width="0.00590396"/>
<path d="M8.33797 6.00393C8.27042 5.76209 8.2329 5.65949 8.16535 5.35168L7.61746 5.98927C7.79008 6.20913 7.79008 6.20913 7.96271 6.40701L8.33797 6.00393Z" fill="#D60000" stroke="#67211F" stroke-width="0.00590396"/>
<path d="M8.55472 6.57435C8.38125 6.36078 8.39215 6.37136 8.21114 6.14307L7.95187 6.39637C8.27003 6.47979 8.26446 6.47794 8.26446 6.47794L8.55472 6.57435Z" fill="#398F00" stroke="#67211F" stroke-width="0.00590396"/>
<path d="M8.33845 6.00378L8.21024 6.14371L8.54208 6.55611H8.54962L8.33845 6.00378Z" fill="#007FFF" stroke="#67211F" stroke-width="0.00590396"/>
<path d="M8.11342 5.01597L8.07571 4.68457L8.03046 4.72876L7.96259 4.8024L8.11342 5.01597Z" fill="#007FFF" stroke="#67211F" stroke-width="0.00590396"/>
<g filter="url(#filter0_d_1200_7584)">
<path d="M9.06714 3.77126L9.1883 3.5842C9.1883 3.5842 9.31994 4.13282 9.22804 4.48379C9.15496 4.76286 8.88555 5.12701 8.88555 5.12701C8.76224 5.44143 8.77013 5.61388 8.83697 5.91891L8.59107 6.20766C8.59107 6.20766 8.51505 5.80784 8.3922 5.61176C8.21396 5.32728 7.91988 5.40464 7.73853 5.15459C7.47 4.78436 7.60923 4.00273 7.60923 4.00273L7.82711 4.19113C7.82711 4.19113 7.95916 3.99652 8.0882 3.71722C8.13441 3.6172 8.18024 3.50631 8.21948 3.38962C8.27947 3.21123 8.34626 2.92437 8.34626 2.92437L8.47222 3.18182L8.57351 3.04493C8.57351 3.04493 8.58235 3.24226 8.61973 3.3526C8.70552 3.60585 8.80404 3.69804 9.06714 3.77126Z" fill="url(#paint1_linear_1200_7584)"/>
<path d="M9.06714 3.77126C9.11446 3.6982 9.1883 3.5842 9.1883 3.5842C9.1883 3.5842 9.31994 4.13282 9.22804 4.48379C9.15496 4.76286 8.88555 5.12701 8.88555 5.12701C8.76224 5.44143 8.77013 5.61388 8.83697 5.91891L8.59107 6.20766C8.59107 6.20766 8.51505 5.80784 8.3922 5.61176C8.21396 5.32728 7.91988 5.40464 7.73853 5.15459C7.47 4.78436 7.60923 4.00273 7.60923 4.00273L7.82711 4.19113M9.06714 3.77126C8.80404 3.69804 8.70552 3.60585 8.61973 3.3526C8.58235 3.24226 8.57351 3.04493 8.57351 3.04493L8.47222 3.18182M9.06714 3.77126C9.05993 3.79773 8.84831 4.25434 8.84831 4.25434C8.84831 4.25434 8.68283 3.93788 8.60842 3.72329M7.82711 4.19113C7.95176 4.33431 7.97052 4.42789 8.00584 4.59378L8.16761 4.00014L8.41444 4.36459L8.45755 3.57125L8.60842 3.72329M7.82711 4.19113C7.82711 4.19113 7.95916 3.99652 8.0882 3.71722C8.13441 3.6172 8.18024 3.50631 8.21948 3.38962C8.27947 3.21123 8.34626 2.92437 8.34626 2.92437L8.47222 3.18182M8.47222 3.18182C8.47222 3.18182 8.53688 3.51695 8.60842 3.72329" stroke="#F8F7FC" stroke-width="0.0365292"/>
</g>
<defs>
<filter id="filter0_d_1200_7584" x="7.55484" y="2.87012" width="1.85103" height="3.49059" filterUnits="userSpaceOnUse" color-interpolation-filters="sRGB">
<feFlood flood-opacity="0" result="BackgroundImageFix"/>
<feColorMatrix in="SourceAlpha" type="matrix" values="0 0 0 0 0 0 0 0 0 0 0 0 0 0 0 0 0 0 127 0" result="hardAlpha"/>
<feOffset dx="0.0737995" dy="0.0590396"/>
<feGaussianBlur stdDeviation="0.0265678"/>
<feComposite in2="hardAlpha" operator="out"/>
<feColorMatrix type="matrix" values="0 0 0 0 0 0 0 0 0 0 0 0 0 0 0 0 0 0 0.25 0"/>
<feBlend mode="normal" in2="BackgroundImageFix" result="effect1_dropShadow_1200_7584"/>
<feBlend mode="normal" in="SourceGraphic" in2="effect1_dropShadow_1200_7584" result="shape"/>
</filter>
<radialGradient id="paint0_radial_1200_7584" cx="0" cy="0" r="1" gradientUnits="userSpaceOnUse" gradientTransform="translate(9.97928 10.9028) scale(7.11802 7.11799)">
<stop offset="0.5" stop-color="#FDE030"/>
<stop offset="0.92" stop-color="#F7C02B"/>
<stop offset="1" stop-color="#F4A223"/>
</radialGradient>
<linearGradient id="paint1_linear_1200_7584" x1="8.74913" y1="3.03052" x2="7.95611" y2="6.04036" gradientUnits="userSpaceOnUse">
<stop stop-color="#C9C9C9"/>
<stop offset="1" stop-color="#939297"/>
</linearGradient>
</defs>
</svg>
