<svg width="19" height="18" viewBox="0 0 19 18" fill="none" xmlns="http://www.w3.org/2000/svg">
<path d="M9.95548 1.12439C13.442 1.12439 17.2035 3.31128 17.2035 8.10995C17.2035 12.9086 13.442 15.0955 9.95548 15.0955C8.01851 15.0955 6.23149 14.4582 4.90686 13.296C3.46975 12.0214 2.70746 10.2219 2.70746 8.10995C2.70746 5.99804 3.46975 4.21103 4.90686 2.93639C6.23149 1.77421 8.031 1.12439 9.95548 1.12439Z" fill="url(#paint0_radial_1206_10706)"/>
<path d="M12.3986 10.8547C12.9222 10.8547 13.3983 10.4123 13.3983 9.67754C13.3983 8.94399 12.9222 8.50037 12.3986 8.50037C11.875 8.50037 11.3988 8.94274 11.3988 9.67754C11.3988 10.4123 11.8737 10.8547 12.3986 10.8547Z" fill="#422B0D"/>
<path d="M12.4456 10.3629C12.5743 10.4528 12.768 10.4241 12.8929 10.2441C13.0179 10.0629 12.9767 9.873 12.848 9.78302C12.7192 9.69305 12.5255 9.72179 12.4006 9.90174C12.2756 10.0817 12.3156 10.2729 12.4456 10.3629Z" fill="#896024"/>
<path d="M7.60373 10.8547C8.12734 10.8547 8.60346 10.4123 8.60346 9.67754C8.60346 8.94399 8.12734 8.50037 7.60373 8.50037C7.08012 8.50037 6.604 8.94274 6.604 9.67754C6.604 10.4123 7.08012 10.8547 7.60373 10.8547Z" fill="#422B0D"/>
<path d="M7.6524 10.3629C7.78111 10.4528 7.97481 10.4241 8.09978 10.2441C8.22474 10.0642 8.1835 9.873 8.05479 9.78302C7.92607 9.69305 7.73238 9.72179 7.60741 9.90174C7.48245 10.0817 7.52368 10.2729 7.6524 10.3629Z" fill="#896024"/>
<path d="M10.0279 4.52307C11.3637 4.52307 12.421 5.15665 13.0045 5.83271C13.0633 5.90019 13.077 5.99266 13.0395 6.07264C13.002 6.15387 12.9221 6.2076 12.8333 6.2076C12.7934 6.2076 12.7546 6.19636 12.7184 6.17636C12.1173 5.83021 11.1088 5.40033 10.0304 5.40033H10.0129C8.93441 5.40033 7.92593 5.82896 7.32485 6.17636C7.28861 6.19636 7.24987 6.2076 7.20988 6.2076C7.1224 6.2076 7.04118 6.15387 7.00369 6.07264C6.96745 5.99266 6.98119 5.90019 7.03868 5.83271C7.62227 5.1554 8.67948 4.52307 10.0154 4.52307" fill="#422B0D"/>
<path d="M15.9388 3.95715C16.6049 5.03185 16.9523 6.3115 16.9523 7.73485C16.9523 9.84677 16.19 11.6338 14.7529 12.9084C13.4283 14.0706 11.6288 14.7204 9.7043 14.7204C7.44741 14.7204 5.07556 13.8019 3.68344 11.8537C5.02807 14.0606 7.55613 15.0953 9.95423 15.0953C11.8787 15.0953 13.6782 14.4455 15.0028 13.2833C16.44 12.0087 17.2022 10.2217 17.2022 8.10975C17.2022 6.51769 16.7686 5.10309 15.9388 3.95715Z" fill="#EB8F00"/>
<path d="M13.8054 16.6678L13.3125 16.6678C13.3125 16.6678 11.2879 16.9434 9.91876 16.9312C8.61365 16.9196 6.6947 16.6678 6.6947 16.6678L5.91899 16.6678C5.12929 15.3633 4.56177 14.0236 4.30157 12.6475C6.85273 13.3736 9.91876 11.8389 9.91876 11.8389C9.91876 11.8389 13.0308 13.3468 15.5113 12.8048C15.1143 14.2136 14.6249 15.4919 13.8054 16.6678Z" fill="#7F2125"/>
<path d="M13.8054 16.6678L13.3125 16.6678C13.3125 16.6678 11.2879 16.9434 9.91876 16.9312C8.61365 16.9196 6.6947 16.6678 6.6947 16.6678L5.91899 16.6678M13.8054 16.6678C14.6249 15.4919 15.1143 14.2136 15.5113 12.8048C13.0308 13.3468 9.91876 11.8389 9.91876 11.8389C9.91876 11.8389 6.85273 13.3736 4.30157 12.6475C4.56177 14.0236 5.12929 15.3633 5.91899 16.6678M13.8054 16.6678C13.1643 15.9712 12.2509 16.4088 9.91876 15.8727C7.80727 16.3926 6.79064 15.9367 5.91899 16.6678" stroke="#67211F" stroke-width="0.0582032"/>
<path d="M9.90216 11.8616L9.89467 15.8691C8.30719 16.3572 7.10194 15.9762 5.91098 16.644C5.39225 15.8461 4.53421 14.3519 4.29354 12.6589C6.35521 13.19 8.53511 12.4889 9.90216 11.8616Z" fill="#67211F" stroke="#67211F" stroke-width="0.0365292"/>
<path d="M12.6276 16.2162C12.9881 16.4578 13.3262 16.3269 13.3114 16.6738L13.7757 16.6591C13.4138 16.2705 12.8788 16.2715 12.6276 16.2162Z" fill="#67211F"/>
<path d="M7.26109 16.2605C6.90064 16.4996 6.61214 16.3452 6.62696 16.6886L5.91559 16.6886C6.27746 16.3039 7.00991 16.3152 7.26109 16.2605Z" fill="#67211F" fill-opacity="0.56"/>
<path d="M9.84798 16.6294L9.92893 15.9171L9.78027 15.9273L9.84798 16.6294Z" fill="#67211F" stroke="#67211F" stroke-width="0.0885594"/>
<path d="M11.7943 16.135C12.0564 16.1496 12.2142 16.1643 12.4308 16.179C12.5656 14.6292 12.6173 14.2454 12.3365 12.7104C11.9557 12.6106 11.6677 12.5165 11.3389 12.4152C12.1098 13.8181 11.8956 14.7194 11.7943 16.135Z" fill="#D60000" stroke="#67211F" stroke-width="0.0365292"/>
<path d="M12.2213 16.1565L12.4113 16.1714L12.4492 15.8888L12.2213 16.1565Z" fill="#398F00" stroke="#67211F" stroke-width="0.00737995"/>
<path d="M12.5312 15.1158L11.8198 15.9366L11.8123 16.1199L12.2241 16.1565L12.4488 15.8927L12.5312 15.1158Z" fill="#FF7F00" stroke="#67211F" stroke-width="0.00737995"/>
<path d="M12.0675 15.6583C12.0675 15.6583 12.2947 15.9123 12.3746 15.9807L12.4494 15.8928L12.5243 15.1233C12.4145 15.2527 12.0675 15.6583 12.0675 15.6583Z" fill="#D60000" stroke="#67211F" stroke-width="0.00737995"/>
<path d="M11.8471 15.0504C11.8463 15.3666 11.8389 15.5628 11.8171 15.9371L12.521 15.1237C12.5461 14.8009 12.552 14.6229 12.5584 14.3102L11.8471 15.0504Z" fill="#007FFF" stroke="#67211F" stroke-width="0.00590396"/>
<path d="M12.0193 14.874L12.3712 15.2991L12.521 15.1232C12.5405 14.8048 12.5499 14.6281 12.5584 14.3097L12.0193 14.874Z" fill="#398F00" stroke="#67211F" stroke-width="0.00590396"/>
<path d="M11.9893 14.1343L12.3338 14.5447L12.5584 14.3102C12.551 13.9804 12.5285 13.8338 12.506 13.5626L11.9893 14.1343Z" fill="#D60000" stroke="#67211F" stroke-width="0.00590396"/>
<path d="M12.022 13.2987L12.3665 13.7164L12.5087 13.5625C12.4488 13.2254 12.4338 13.1375 12.3739 12.8883L12.022 13.2987Z" fill="#007FFF" stroke="#67211F" stroke-width="0.00590396"/>
<path d="M11.9312 12.6005L12.2698 13.0129L12.3752 12.8877L12.3276 12.7236L11.9312 12.6005Z" fill="#FF7F00" stroke="#67211F" stroke-width="0.00590396"/>
<path d="M11.812 14.3321C11.8386 14.5785 11.8487 14.7304 11.8494 15.0503L12.3362 14.5446C12.1115 14.2808 12.1564 14.3394 11.9917 14.1342L11.812 14.3321Z" fill="#FF7F00" stroke="#67211F" stroke-width="0.00590396"/>
<path d="M11.7234 13.6505C11.7533 13.8777 11.7908 13.9949 11.8132 14.3247L12.3673 13.7164C12.1481 13.4366 12.1917 13.4994 12.0229 13.3061L11.7234 13.6505Z" fill="#398F00" stroke="#67211F" stroke-width="0.00590396"/>
<path d="M11.5491 12.9983C11.6164 13.2401 11.6539 13.3427 11.7213 13.6505L12.2679 13.0129C12.0957 12.7931 12.0957 12.7931 11.9235 12.5952L11.5491 12.9983Z" fill="#D60000" stroke="#67211F" stroke-width="0.00590396"/>
<path d="M11.333 12.4277C11.5061 12.6413 11.4952 12.6307 11.6758 12.859L11.9345 12.6057C11.617 12.5223 11.6226 12.5241 11.6226 12.5241L11.333 12.4277Z" fill="#398F00" stroke="#67211F" stroke-width="0.00590396"/>
<path d="M11.5492 12.9982L11.6771 12.8582L11.346 12.4458L11.3385 12.4458L11.5492 12.9982Z" fill="#007FFF" stroke="#67211F" stroke-width="0.00590396"/>
<path d="M11.7742 13.9861L11.8118 14.3175L11.857 14.2733L11.9247 14.1997L11.7742 13.9861Z" fill="#007FFF" stroke="#67211F" stroke-width="0.00590396"/>
<g filter="url(#filter0_d_1206_10706)">
<path d="M10.8237 15.2306L10.7028 15.4176C10.7028 15.4176 10.5714 14.869 10.6631 14.518C10.736 14.239 11.0048 13.8748 11.0048 13.8748C11.1279 13.5604 11.12 13.3879 11.0533 13.0829L11.2986 12.7942C11.2986 12.7942 11.3745 13.194 11.4971 13.3901C11.6749 13.6746 11.9683 13.5972 12.1492 13.8472C12.4172 14.2175 12.2782 14.9991 12.2782 14.9991L12.0609 14.8107C12.0609 14.8107 11.9291 15.0053 11.8004 15.2846C11.7543 15.3846 11.7085 15.4955 11.6694 15.6122C11.6095 15.7906 11.5429 16.0775 11.5429 16.0775L11.4172 15.82L11.3162 15.9569C11.3162 15.9569 11.3074 15.7596 11.2701 15.6492C11.1845 15.396 11.0862 15.3038 10.8237 15.2306Z" fill="url(#paint1_linear_1206_10706)"/>
<path d="M10.8237 15.2306C10.7765 15.3036 10.7028 15.4176 10.7028 15.4176C10.7028 15.4176 10.5714 14.869 10.6631 14.518C10.736 14.239 11.0048 13.8748 11.0048 13.8748C11.1279 13.5604 11.12 13.3879 11.0533 13.0829L11.2986 12.7942C11.2986 12.7942 11.3745 13.194 11.4971 13.3901C11.6749 13.6746 11.9683 13.5972 12.1492 13.8472C12.4172 14.2175 12.2782 14.9991 12.2782 14.9991L12.0609 14.8107M10.8237 15.2306C11.0862 15.3038 11.1845 15.396 11.2701 15.6492C11.3074 15.7596 11.3162 15.9569 11.3162 15.9569L11.4172 15.82M10.8237 15.2306C10.8309 15.2041 11.042 14.7475 11.042 14.7475C11.042 14.7475 11.2071 15.0639 11.2813 15.2785M12.0609 14.8107C11.9365 14.6675 11.9178 14.5739 11.8825 14.408L11.7211 15.0017L11.4749 14.6372L11.4319 15.4306L11.2813 15.2785M12.0609 14.8107C12.0609 14.8107 11.9291 15.0053 11.8004 15.2846C11.7543 15.3846 11.7085 15.4955 11.6694 15.6122C11.6095 15.7906 11.5429 16.0775 11.5429 16.0775L11.4172 15.82M11.4172 15.82C11.4172 15.82 11.3527 15.4849 11.2813 15.2785" stroke="#F8F7FC" stroke-width="0.0365292"/>
</g>
<defs>
<filter id="filter0_d_1206_10706" x="10.6123" y="12.7533" width="1.84718" height="3.49072" filterUnits="userSpaceOnUse" color-interpolation-filters="sRGB">
<feFlood flood-opacity="0" result="BackgroundImageFix"/>
<feColorMatrix in="SourceAlpha" type="matrix" values="0 0 0 0 0 0 0 0 0 0 0 0 0 0 0 0 0 0 127 0" result="hardAlpha"/>
<feOffset dx="0.0737995" dy="0.0590396"/>
<feGaussianBlur stdDeviation="0.0265678"/>
<feComposite in2="hardAlpha" operator="out"/>
<feColorMatrix type="matrix" values="0 0 0 0 0 0 0 0 0 0 0 0 0 0 0 0 0 0 0.25 0"/>
<feBlend mode="normal" in2="BackgroundImageFix" result="effect1_dropShadow_1206_10706"/>
<feBlend mode="normal" in="SourceGraphic" in2="effect1_dropShadow_1206_10706" result="shape"/>
</filter>
<radialGradient id="paint0_radial_1206_10706" cx="0" cy="0" r="1" gradientUnits="userSpaceOnUse" gradientTransform="translate(9.95548 8.10995) rotate(180) scale(7.11802 7.11799)">
<stop offset="0.5" stop-color="#FDE030"/>
<stop offset="0.9188" stop-color="#F7C02B"/>
<stop offset="1" stop-color="#F4A223"/>
</radialGradient>
<linearGradient id="paint1_linear_1206_10706" x1="11.141" y1="15.9713" x2="11.9355" y2="12.9624" gradientUnits="userSpaceOnUse">
<stop stop-color="#C9C9C9"/>
<stop offset="1" stop-color="#939297"/>
</linearGradient>
</defs>
</svg>
