<svg width="18" height="19" viewBox="0 0 18 19" fill="none" xmlns="http://www.w3.org/2000/svg">
<path d="M8.87729 17.8885C5.39074 17.8885 1.62927 15.7016 1.62927 10.9029C1.62927 6.10425 5.39074 3.91736 8.87729 3.91736C10.8143 3.91736 12.6013 4.55468 13.9259 5.71686C15.363 6.9915 16.1253 8.791 16.1253 10.9029C16.1253 13.0148 15.363 14.8018 13.9259 16.0765C12.6013 17.2387 10.8018 17.8885 8.87729 17.8885Z" fill="url(#paint0_radial_1200_7616)"/>
<path d="M14.8606 6.75037C15.5267 7.82507 15.8741 9.10471 15.8741 10.5281C15.8741 12.64 15.1118 14.427 13.6747 15.7016C12.3501 16.8638 10.5506 17.5136 8.62608 17.5136C6.3692 17.5136 4.00234 16.5951 2.60522 14.6469C3.94986 16.8538 6.47917 17.8885 8.87601 17.8885C10.8005 17.8885 12.6 17.2387 13.9246 16.0765C15.3617 14.8019 16.124 13.0149 16.124 10.903C16.124 9.31091 15.6904 7.8963 14.8606 6.75037Z" fill="#EB8F00"/>
<path d="M16.079 14.7221L14.9818 13.8873C14.7619 13.7211 14.4682 13.6924 14.2195 13.8111C14.2095 13.7986 14.1983 13.7873 14.1845 13.7773L13.8821 13.5374C13.6884 13.3837 13.576 13.15 13.576 12.9026V12.5827C13.576 12.4052 13.431 12.2603 13.2535 12.2603H12.8374C12.66 12.2603 12.515 12.4052 12.515 12.5827V13.0075C12.515 13.185 12.37 13.33 12.1926 13.33H11.7765C11.599 13.3287 11.4553 13.185 11.4553 13.0075V12.5827C11.4553 12.4052 11.3103 12.2603 11.1329 12.2603H10.7167C10.5393 12.2603 10.3943 12.4052 10.3943 12.5827V13.0075C10.3943 13.185 10.2494 13.33 10.0719 13.33H9.65703C9.47958 13.33 9.33462 13.185 9.33462 13.0075V12.5827C9.33462 12.4052 9.18966 12.2603 9.01221 12.2603H8.59607C8.41862 12.2603 8.27366 12.4052 8.27366 12.5827V13.0075C8.27366 13.185 8.1287 13.33 7.95125 13.33H7.53636C7.35891 13.33 7.21395 13.185 7.21395 13.0075V12.5827C7.21395 12.4052 7.06899 12.2603 6.89154 12.2603H6.4754C6.29795 12.2603 6.15299 12.4052 6.15299 12.5827V13.0075C6.15299 13.185 6.00803 13.33 5.83058 13.33H5.41569C5.23824 13.33 5.09328 13.185 5.09328 13.0075V12.5827C5.09328 12.4052 4.94832 12.2603 4.77087 12.2603H4.35473C4.17728 12.2603 4.03232 12.4052 4.03232 12.5827V13.7411C4.03357 13.9185 4.17728 14.0623 4.35473 14.0635H4.77087C4.94832 14.0635 5.09203 14.2072 5.09328 14.3847V14.6521C5.09203 14.8295 5.23574 14.9733 5.41319 14.9745C5.41444 14.9745 5.41444 14.9745 5.41569 14.9745H5.83058C6.00803 14.9758 6.15174 14.832 6.15299 14.6546C6.15299 14.6533 6.15299 14.6533 6.15299 14.6521V14.3847C6.15424 14.2072 6.29795 14.0635 6.4754 14.0635H6.89154C7.06899 14.0635 7.2127 14.2072 7.21395 14.3847V14.6521C7.2127 14.8295 7.35641 14.9733 7.53386 14.9745C7.53511 14.9745 7.53511 14.9745 7.53636 14.9745H7.95125C8.1287 14.9758 8.27241 14.832 8.27366 14.6546C8.27366 14.6533 8.27366 14.6533 8.27366 14.6521V14.3847C8.27491 14.2072 8.41862 14.0635 8.59607 14.0635H9.01221C9.18966 14.0635 9.33337 14.2072 9.33462 14.3847V14.6521C9.33337 14.8295 9.47708 14.9733 9.65453 14.9745C9.65578 14.9745 9.65578 14.9745 9.65703 14.9745H10.0719C10.2494 14.9758 10.3931 14.832 10.3943 14.6546C10.3943 14.6533 10.3943 14.6533 10.3943 14.6521V14.3847C10.3956 14.2072 10.5393 14.0635 10.7167 14.0635H11.1329C11.3103 14.0635 11.454 14.2072 11.4553 14.3847V14.6521C11.454 14.8295 11.5977 14.9733 11.7752 14.9745H11.7765H12.1926C12.37 14.9758 12.5137 14.832 12.515 14.6546C12.515 14.6533 12.515 14.6533 12.515 14.6521V14.3847C12.5162 14.2072 12.66 14.0635 12.8374 14.0635H12.9811C13.0786 14.0635 13.1723 14.096 13.2485 14.156L13.6422 14.4696L13.6597 14.4796C13.5597 14.7771 13.6609 15.1045 13.9096 15.2944L15.0068 16.1292C15.3317 16.3754 15.7941 16.3116 16.0403 15.988L16.2177 15.7543C16.4627 15.4306 16.4002 14.9695 16.079 14.7221ZM14.5619 14.9208C14.4645 15.0507 14.2808 15.077 14.1508 14.9807C14.1496 14.9795 14.1496 14.9795 14.1483 14.9782C14.0183 14.8808 13.9921 14.6958 14.0896 14.5659C14.0908 14.5646 14.0908 14.5634 14.0921 14.5621L14.3295 14.2497C14.4257 14.1197 14.6094 14.0935 14.7381 14.1897C14.7394 14.191 14.7406 14.1922 14.7431 14.1935C14.8069 14.2397 14.8481 14.3109 14.8581 14.3884C14.8681 14.4659 14.8481 14.5459 14.8006 14.6084L14.5619 14.9208ZM15.7641 15.4356L15.6179 15.6281C15.5067 15.7743 15.2967 15.803 15.1505 15.6918L14.9406 15.5368C14.7944 15.4256 14.7656 15.2157 14.8769 15.0695L15.0243 14.877C15.1355 14.7308 15.3455 14.7021 15.4917 14.8133L15.7004 14.9733C15.8441 15.0845 15.8728 15.2894 15.7641 15.4356Z" fill="#616161"/>
<path d="M11.3973 7.79541C11.8585 7.79541 12.2721 8.33651 12.2721 9.23251C12.2721 10.1285 11.8535 10.6696 11.3973 10.6696C10.9375 10.6696 10.5226 10.1298 10.5226 9.23251C10.5226 8.33526 10.9375 7.79541 11.3973 7.79541Z" fill="#422B0D"/>
<path d="M6.45334 7.79541C5.99222 7.79541 5.57858 8.33651 5.57858 9.23251C5.57858 10.1285 5.99722 10.6696 6.45334 10.6696C6.91447 10.6696 7.3281 10.1298 7.3281 9.23251C7.3281 8.33526 6.91447 7.79541 6.45334 7.79541Z" fill="#422B0D"/>
<path d="M6.56035 8.38689C6.3804 8.30316 6.16796 8.38189 6.08423 8.56184C6.0205 8.6993 6.05049 8.86176 6.15796 8.96798C6.33791 9.0517 6.55035 8.97298 6.63408 8.79303C6.69781 8.65557 6.66907 8.49311 6.56035 8.38689Z" fill="#896024"/>
<path d="M11.3277 8.3859C11.1477 8.30343 10.9353 8.3834 10.8528 8.56335C10.7903 8.69957 10.8203 8.86077 10.9265 8.96699C11.1065 9.05072 11.3189 8.97199 11.4026 8.79204C11.4664 8.65458 11.4364 8.49212 11.3289 8.3859H11.3277Z" fill="#896024"/>
<path d="M4.99325 2.33425H5.48728C5.48728 2.33425 7.51652 2.05866 8.88879 2.07083C10.1969 2.08243 12.1202 2.33425 12.1202 2.33425H12.8977C13.6892 3.63878 14.258 4.97844 14.5188 6.35457C11.9618 5.62849 8.88879 7.16316 8.88879 7.16316C8.88879 7.16316 5.76959 5.65527 3.28342 6.19723C3.68137 4.78852 4.17183 3.51014 4.99325 2.33425Z" fill="#7F2125"/>
<path d="M4.99325 2.33425H5.48728C5.48728 2.33425 7.51652 2.05866 8.88879 2.07083C10.1969 2.08243 12.1202 2.33425 12.1202 2.33425H12.8977M4.99325 2.33425C4.17183 3.51014 3.68137 4.78852 3.28342 6.19723C5.76959 5.65527 8.88879 7.16316 8.88879 7.16316C8.88879 7.16316 11.9618 5.62849 14.5188 6.35457C14.258 4.97844 13.6892 3.63878 12.8977 2.33425M4.99325 2.33425C5.63585 3.03087 6.55134 2.59326 8.88879 3.12934C11.0051 2.60946 12.0241 3.06537 12.8977 2.33425" stroke="#67211F" stroke-width="0.0582032"/>
<path d="M8.90582 7.14038L8.91333 3.1328C10.5044 2.64472 11.7125 3.02578 12.9061 2.35791C13.4261 3.15589 14.2861 4.65004 14.5273 6.34308C12.4609 5.81199 10.276 6.51308 8.90582 7.14038Z" fill="#67211F" stroke="#67211F" stroke-width="0.0365292"/>
<path d="M6.174 2.78608C5.81273 2.54452 5.47378 2.67542 5.48864 2.32849L5.02332 2.34325C5.38602 2.73186 5.92225 2.73085 6.174 2.78608Z" fill="#67211F"/>
<path d="M11.5543 2.74154C11.9156 2.50243 12.2048 2.6569 12.1899 2.31348H12.9029C12.5402 2.69816 11.8061 2.68687 11.5543 2.74154Z" fill="#67211F" fill-opacity="0.56"/>
<path d="M8.95802 2.37242L8.87688 3.08476L9.02589 3.0745L8.95802 2.37242Z" fill="#67211F" stroke="#67211F" stroke-width="0.0885594"/>
<path d="M7.00695 2.86709C6.74428 2.85243 6.58614 2.83778 6.369 2.82312C6.23392 4.37291 6.18207 4.75667 6.46351 6.2917C6.84523 6.39145 7.13388 6.48557 7.46339 6.58689C6.6907 5.18396 6.90543 4.2827 7.00695 2.86709Z" fill="#D60000" stroke="#67211F" stroke-width="0.0365292"/>
<path d="M6.58152 2.84568L6.39113 2.83081L6.35306 3.11338L6.58152 2.84568Z" fill="#398F00" stroke="#67211F" stroke-width="0.00737995"/>
<path d="M6.26938 3.88612L6.98238 3.06532L6.98989 2.8821L6.5771 2.84546L6.35194 3.10929L6.26938 3.88612Z" fill="#FF7F00" stroke="#67211F" stroke-width="0.00737995"/>
<path d="M6.73306 3.34346C6.73306 3.34346 6.5054 3.0894 6.42534 3.021L6.35029 3.10894L6.27524 3.87844C6.38532 3.74897 6.73306 3.34346 6.73306 3.34346Z" fill="#D60000" stroke="#67211F" stroke-width="0.00737995"/>
<path d="M6.95315 3.95169C6.95392 3.63543 6.96138 3.43931 6.98317 3.06494L6.27767 3.87841C6.25254 4.20113 6.24655 4.37915 6.24014 4.69187L6.95315 3.95169Z" fill="#007FFF" stroke="#67211F" stroke-width="0.00590396"/>
<path d="M6.78052 4.1277L6.42778 3.70264L6.27767 3.87852C6.25809 4.19695 6.24869 4.37364 6.24014 4.692L6.78052 4.1277Z" fill="#398F00" stroke="#67211F" stroke-width="0.00590396"/>
<path d="M6.81054 4.8678L6.4653 4.4574L6.24014 4.69191C6.24765 5.0217 6.27016 5.16827 6.29271 5.43943L6.81054 4.8678Z" fill="#D60000" stroke="#67211F" stroke-width="0.00590396"/>
<path d="M6.77965 5.70325L6.43441 5.28552L6.29181 5.43942C6.35185 5.77654 6.36686 5.86448 6.4269 6.11366L6.77965 5.70325Z" fill="#007FFF" stroke="#67211F" stroke-width="0.00590396"/>
<path d="M6.87325 6.4013L6.53387 5.98889L6.42828 6.11409L6.47596 6.2782L6.87325 6.4013Z" fill="#FF7F00" stroke="#67211F" stroke-width="0.00590396"/>
<path d="M6.98878 4.66987C6.96207 4.4235 6.95199 4.27153 6.95125 3.95166L6.46341 4.45734C6.68857 4.72117 6.64354 4.66254 6.80865 4.86774L6.98878 4.66987Z" fill="#FF7F00" stroke="#67211F" stroke-width="0.00590396"/>
<path d="M7.08155 5.35172C7.05153 5.12454 7.014 5.00728 6.99149 4.67749L6.4361 5.28577C6.65581 5.56561 6.61212 5.50276 6.78134 5.6961L7.08155 5.35172Z" fill="#398F00" stroke="#67211F" stroke-width="0.00590396"/>
<path d="M7.25508 6.00393C7.18754 5.76209 7.15001 5.65949 7.08246 5.35168L6.53458 5.98927C6.7072 6.20913 6.7072 6.20913 6.87982 6.40701L7.25508 6.00393Z" fill="#D60000" stroke="#67211F" stroke-width="0.00590396"/>
<path d="M7.4689 6.57435C7.29544 6.36078 7.30633 6.37136 7.12533 6.14307L6.86606 6.39637C7.18421 6.47979 7.17864 6.47794 7.17864 6.47794L7.4689 6.57435Z" fill="#398F00" stroke="#67211F" stroke-width="0.00590396"/>
<path d="M7.25556 6.00378L7.12735 6.14371L7.45919 6.55611H7.46673L7.25556 6.00378Z" fill="#007FFF" stroke="#67211F" stroke-width="0.00590396"/>
<path d="M7.02761 5.01597L6.9899 4.68457L6.94465 4.72876L6.87677 4.8024L7.02761 5.01597Z" fill="#007FFF" stroke="#67211F" stroke-width="0.00590396"/>
<g filter="url(#filter0_d_1200_7616)">
<path d="M7.98184 3.77126L8.103 3.5842C8.103 3.5842 8.23464 4.13282 8.14274 4.48379C8.06967 4.76286 7.80025 5.12701 7.80025 5.12701C7.67694 5.44143 7.68483 5.61388 7.75167 5.91891L7.50578 6.20766C7.50578 6.20766 7.42975 5.80784 7.3069 5.61176C7.12867 5.32728 6.83458 5.40464 6.65323 5.15459C6.38471 4.78436 6.52393 4.00273 6.52393 4.00273L6.74182 4.19113C6.74182 4.19113 6.87386 3.99652 7.0029 3.71722C7.04912 3.6172 7.09494 3.50631 7.13419 3.38962C7.19417 3.21123 7.26096 2.92437 7.26096 2.92437L7.38692 3.18182L7.48822 3.04493C7.48822 3.04493 7.49705 3.24226 7.53443 3.3526C7.62022 3.60585 7.71874 3.69804 7.98184 3.77126Z" fill="url(#paint1_linear_1200_7616)"/>
<path d="M7.98184 3.77126C8.02916 3.6982 8.103 3.5842 8.103 3.5842C8.103 3.5842 8.23464 4.13282 8.14274 4.48379C8.06967 4.76286 7.80025 5.12701 7.80025 5.12701C7.67694 5.44143 7.68483 5.61388 7.75167 5.91891L7.50578 6.20766C7.50578 6.20766 7.42975 5.80784 7.3069 5.61176C7.12867 5.32728 6.83458 5.40464 6.65323 5.15459C6.38471 4.78436 6.52393 4.00273 6.52393 4.00273L6.74182 4.19113M7.98184 3.77126C7.71874 3.69804 7.62022 3.60585 7.53443 3.3526C7.49705 3.24226 7.48822 3.04493 7.48822 3.04493L7.38692 3.18182M7.98184 3.77126C7.97463 3.79773 7.76301 4.25434 7.76301 4.25434C7.76301 4.25434 7.59753 3.93788 7.52312 3.72329M6.74182 4.19113C6.86646 4.33431 6.88522 4.42789 6.92054 4.59378L7.08231 4.00014L7.32914 4.36459L7.37225 3.57125L7.52312 3.72329M6.74182 4.19113C6.74182 4.19113 6.87386 3.99652 7.0029 3.71722C7.04912 3.6172 7.09494 3.50631 7.13419 3.38962C7.19417 3.21123 7.26096 2.92437 7.26096 2.92437L7.38692 3.18182M7.38692 3.18182C7.38692 3.18182 7.45158 3.51695 7.52312 3.72329" stroke="#F8F7FC" stroke-width="0.0365292"/>
</g>
<defs>
<filter id="filter0_d_1200_7616" x="6.46954" y="2.87012" width="1.85103" height="3.49059" filterUnits="userSpaceOnUse" color-interpolation-filters="sRGB">
<feFlood flood-opacity="0" result="BackgroundImageFix"/>
<feColorMatrix in="SourceAlpha" type="matrix" values="0 0 0 0 0 0 0 0 0 0 0 0 0 0 0 0 0 0 127 0" result="hardAlpha"/>
<feOffset dx="0.0737995" dy="0.0590396"/>
<feGaussianBlur stdDeviation="0.0265678"/>
<feComposite in2="hardAlpha" operator="out"/>
<feColorMatrix type="matrix" values="0 0 0 0 0 0 0 0 0 0 0 0 0 0 0 0 0 0 0.25 0"/>
<feBlend mode="normal" in2="BackgroundImageFix" result="effect1_dropShadow_1200_7616"/>
<feBlend mode="normal" in="SourceGraphic" in2="effect1_dropShadow_1200_7616" result="shape"/>
</filter>
<radialGradient id="paint0_radial_1200_7616" cx="0" cy="0" r="1" gradientUnits="userSpaceOnUse" gradientTransform="translate(8.87729 10.9029) scale(7.11802 7.11799)">
<stop offset="0.5" stop-color="#FDE030"/>
<stop offset="0.92" stop-color="#F7C02B"/>
<stop offset="1" stop-color="#F4A223"/>
</radialGradient>
<linearGradient id="paint1_linear_1200_7616" x1="7.66383" y1="3.03052" x2="6.87081" y2="6.04036" gradientUnits="userSpaceOnUse">
<stop stop-color="#C9C9C9"/>
<stop offset="1" stop-color="#939297"/>
</linearGradient>
</defs>
</svg>
