<svg width="18" height="18" viewBox="0 0 18 18" fill="none" xmlns="http://www.w3.org/2000/svg">
<path d="M9.01462 16.8925C5.52807 16.8925 1.7666 14.7056 1.7666 9.90695C1.7666 5.10828 5.52807 2.92139 9.01462 2.92139C10.9516 2.92139 12.7386 3.55871 14.0632 4.72089C15.5003 5.99553 16.2626 7.79503 16.2626 9.90695C16.2626 12.0189 15.5003 13.8059 14.0632 15.0805C12.7386 16.2427 10.9391 16.8925 9.01462 16.8925Z" fill="url(#paint0_radial_1200_6575)"/>
<path d="M15.0008 5.75439C15.6669 6.8291 16.0143 8.10874 16.0143 9.5321C16.0143 11.644 15.252 13.431 13.8149 14.7057C12.4903 15.8678 10.6908 16.5177 8.76628 16.5177C6.50939 16.5177 4.14254 15.5992 2.74542 13.651C4.09005 15.8578 6.61936 16.8926 9.01621 16.8926C10.9407 16.8926 12.7402 16.2427 14.0648 15.0806C15.5019 13.8059 16.2642 12.0189 16.2642 9.90699C16.2642 8.31493 15.8306 6.90033 15.0008 5.75439Z" fill="#EB8F00"/>
<path d="M9.06616 12.9462C10.4158 12.9462 11.2906 13.9334 11.528 14.3958C11.6155 14.5707 11.6155 14.7207 11.5405 14.7832C11.4605 14.8331 11.358 14.8331 11.2781 14.7832C11.2381 14.7669 11.2006 14.7457 11.1656 14.7207C10.5533 14.2808 9.81971 14.0409 9.06616 14.0334C8.31512 14.0434 7.58282 14.2783 6.96674 14.7082C6.93175 14.7332 6.89426 14.7544 6.85427 14.7707C6.77429 14.8206 6.67182 14.8206 6.59184 14.7707C6.51686 14.6957 6.51686 14.5582 6.60434 14.3833C6.84177 13.9334 7.71653 12.9462 9.06616 12.9462Z" fill="#422B0D"/>
<path d="M10.3675 10.5103C10.1975 10.6678 10.1875 10.9327 10.345 11.1014C10.37 11.1289 10.3987 11.1526 10.43 11.1726C10.7949 11.4438 11.2048 11.6475 11.6421 11.7725C12.0833 11.8824 12.5394 11.9162 12.9918 11.8724C13.2267 11.8662 13.4129 11.67 13.4067 11.4351C13.4054 11.4013 13.4004 11.3676 13.3917 11.3351C13.3179 11.1189 13.1067 10.9802 12.8793 10.9977C12.5444 11.0302 12.207 11.0102 11.8796 10.9352C11.5572 10.8365 11.2522 10.684 10.9798 10.4853C10.7949 10.3491 10.5399 10.3591 10.3675 10.5103Z" fill="#422B0D"/>
<path d="M7.76586 10.5103C7.93581 10.6678 7.94581 10.9327 7.78835 11.1014C7.76336 11.1289 7.73462 11.1526 7.70338 11.1726C7.33848 11.4438 6.92859 11.6475 6.49121 11.7725C6.05008 11.8824 5.59395 11.9162 5.14158 11.8724C4.91289 11.8687 4.73169 11.68 4.73544 11.4513C4.73669 11.4113 4.74294 11.3726 4.75418 11.3351C4.82791 11.1189 5.03911 10.9802 5.26654 10.9977C5.60145 11.0302 5.93886 11.0102 6.26627 10.9352C6.58868 10.8365 6.8936 10.684 7.16602 10.4853C7.34597 10.3491 7.59841 10.3591 7.76586 10.5103Z" fill="#422B0D"/>
<path d="M5.13519 1.30043H5.62809C5.62809 1.30043 7.65269 1.02484 9.02183 1.03701C10.3269 1.04861 12.2459 1.30043 12.2459 1.30043H13.0216C13.8113 2.60497 14.3788 3.94463 14.639 5.32076C12.0879 4.59468 9.02183 6.12934 9.02183 6.12934C9.02183 6.12934 5.90976 4.62146 3.42926 5.16341C3.8263 3.7547 4.31564 2.47633 5.13519 1.30043Z" fill="#7F2125"/>
<path d="M5.13519 1.30043H5.62809C5.62809 1.30043 7.65269 1.02484 9.02183 1.03701C10.3269 1.04861 12.2459 1.30043 12.2459 1.30043H13.0216M5.13519 1.30043C4.31564 2.47633 3.8263 3.7547 3.42926 5.16341C5.90976 4.62146 9.02183 6.12935 9.02183 6.12935C9.02183 6.12935 12.0879 4.59468 14.639 5.32076C14.3788 3.94463 13.8113 2.60497 13.0216 1.30043M5.13519 1.30043C5.77632 1.99705 6.68972 1.55945 9.02183 2.09553C11.1333 1.57565 12.1499 2.03155 13.0216 1.30043" stroke="#67211F" stroke-width="0.0582032"/>
<path d="M9.03918 6.10656L9.04667 2.09899C10.6342 1.61091 11.8394 1.99196 13.0304 1.3241C13.5491 2.12207 14.4071 3.61623 14.6478 5.30927C12.5861 4.77817 10.4062 5.47927 9.03918 6.10656Z" fill="#67211F" stroke="#67211F" stroke-width="0.0365292"/>
<path d="M6.31547 1.75202C5.95503 1.51047 5.61686 1.64136 5.63168 1.29443L5.16742 1.30919C5.52929 1.69781 6.0643 1.69679 6.31547 1.75202Z" fill="#67211F"/>
<path d="M11.68 1.70785C12.0405 1.46874 12.329 1.62321 12.3142 1.27979H13.0255C12.6637 1.66447 11.9312 1.65318 11.68 1.70785Z" fill="#67211F" fill-opacity="0.56"/>
<path d="M9.09218 1.33873L9.01122 2.05107L9.15989 2.04081L9.09218 1.33873Z" fill="#67211F" stroke="#67211F" stroke-width="0.0885594"/>
<path d="M7.14755 1.83328C6.88548 1.81862 6.7277 1.80396 6.51105 1.78931C6.37628 3.3391 6.32455 3.72285 6.60535 5.25788C6.98619 5.35764 7.27418 5.45176 7.60294 5.55308C6.83202 4.15015 7.04626 3.24888 7.14755 1.83328Z" fill="#D60000" stroke="#67211F" stroke-width="0.0365292"/>
<path d="M6.71763 1.81163L6.52768 1.79675L6.48969 2.07933L6.71763 1.81163Z" fill="#398F00" stroke="#67211F" stroke-width="0.00737995"/>
<path d="M6.41266 2.85231L7.12403 2.0315L7.13152 1.84829L6.71967 1.81165L6.49503 2.07548L6.41266 2.85231Z" fill="#FF7F00" stroke="#67211F" stroke-width="0.00737995"/>
<path d="M6.87627 2.30976C6.87627 2.30976 6.64913 2.05571 6.56926 1.9873L6.49438 2.07525L6.41949 2.84475C6.52932 2.71528 6.87627 2.30976 6.87627 2.30976Z" fill="#D60000" stroke="#67211F" stroke-width="0.00737995"/>
<path d="M7.09187 2.918C7.09264 2.60174 7.10008 2.40562 7.12182 2.03125L6.41794 2.84472C6.39287 3.16744 6.38689 3.34546 6.38049 3.65818L7.09187 2.918Z" fill="#007FFF" stroke="#67211F" stroke-width="0.00590396"/>
<path d="M6.91964 3.09388L6.5677 2.66882L6.41793 2.84471C6.3984 3.16314 6.38903 3.33983 6.38049 3.65819L6.91964 3.09388Z" fill="#398F00" stroke="#67211F" stroke-width="0.00590396"/>
<path d="M6.94959 3.83411L6.60514 3.42371L6.38049 3.65822C6.38798 3.98801 6.41045 4.13458 6.43294 4.40574L6.94959 3.83411Z" fill="#D60000" stroke="#67211F" stroke-width="0.00590396"/>
<path d="M6.91694 4.66932L6.57248 4.25159L6.43021 4.40549C6.49011 4.7426 6.50509 4.83055 6.56499 5.07972L6.91694 4.66932Z" fill="#007FFF" stroke="#67211F" stroke-width="0.00590396"/>
<path d="M7.01067 5.3676L6.67206 4.9552L6.56671 5.08039L6.61427 5.24451L7.01067 5.3676Z" fill="#FF7F00" stroke="#67211F" stroke-width="0.00590396"/>
<path d="M7.12793 3.63593C7.10128 3.38956 7.09123 3.23759 7.09049 2.91772L6.60376 3.4234C6.8284 3.68723 6.78348 3.6286 6.94821 3.8338L7.12793 3.63593Z" fill="#FF7F00" stroke="#67211F" stroke-width="0.00590396"/>
<path d="M7.21655 4.31791C7.1866 4.09072 7.14916 3.97346 7.12669 3.64368L6.57257 4.25195C6.79178 4.53179 6.74819 4.46894 6.91703 4.66229L7.21655 4.31791Z" fill="#398F00" stroke="#67211F" stroke-width="0.00590396"/>
<path d="M7.39184 4.97012C7.32444 4.72827 7.287 4.62567 7.21961 4.31787L6.67297 4.95546C6.8452 5.17532 6.8452 5.17532 7.01743 5.37319L7.39184 4.97012Z" fill="#D60000" stroke="#67211F" stroke-width="0.00590396"/>
<path d="M7.60983 5.54066C7.43676 5.32709 7.44763 5.33767 7.26704 5.10938L7.00836 5.36268C7.32579 5.4461 7.32023 5.44425 7.32023 5.44425L7.60983 5.54066Z" fill="#398F00" stroke="#67211F" stroke-width="0.00590396"/>
<path d="M7.39171 4.96997L7.26379 5.10989L7.59488 5.5223H7.6024L7.39171 4.96997Z" fill="#007FFF" stroke="#67211F" stroke-width="0.00590396"/>
<path d="M7.16862 3.9824L7.131 3.651L7.08585 3.69519L7.01813 3.76883L7.16862 3.9824Z" fill="#007FFF" stroke="#67211F" stroke-width="0.00590396"/>
<g filter="url(#filter0_d_1200_6575)">
<path d="M8.11942 2.73732L8.2403 2.55026C8.2403 2.55026 8.37164 3.09889 8.27995 3.44985C8.20704 3.72892 7.93824 4.09308 7.93824 4.09308C7.81521 4.4075 7.82308 4.57995 7.88977 4.88497L7.64444 5.17372C7.64444 5.17372 7.56859 4.77391 7.44602 4.57783C7.26819 4.29334 6.97478 4.37071 6.79384 4.12066C6.52593 3.75043 6.66484 2.96879 6.66484 2.96879L6.88222 3.1572C6.88222 3.1572 7.01397 2.96258 7.14272 2.68328C7.18882 2.58326 7.23455 2.47238 7.2737 2.35568C7.33355 2.1773 7.40019 1.89044 7.40019 1.89044L7.52586 2.14788L7.62692 2.011C7.62692 2.011 7.63573 2.20832 7.67303 2.31867C7.75862 2.57191 7.85692 2.6641 8.11942 2.73732Z" fill="url(#paint1_linear_1200_6575)"/>
<path d="M8.11942 2.73732C8.16663 2.66427 8.2403 2.55026 8.2403 2.55026C8.2403 2.55026 8.37164 3.09889 8.27995 3.44985C8.20704 3.72892 7.93824 4.09308 7.93824 4.09308C7.81521 4.4075 7.82308 4.57995 7.88977 4.88497L7.64444 5.17372C7.64444 5.17372 7.56859 4.77391 7.44602 4.57783C7.26819 4.29334 6.97478 4.37071 6.79384 4.12066C6.52593 3.75043 6.66484 2.96879 6.66484 2.96879L6.88222 3.1572M8.11942 2.73732C7.85692 2.6641 7.75862 2.57191 7.67303 2.31867C7.63573 2.20832 7.62692 2.011 7.62692 2.011L7.52586 2.14788M8.11942 2.73732C8.11222 2.76379 7.90109 3.2204 7.90109 3.2204C7.90109 3.2204 7.73599 2.90395 7.66175 2.68935M6.88222 3.1572C7.00659 3.30038 7.0253 3.39395 7.06054 3.55985L7.22194 2.9662L7.46821 3.33065L7.51122 2.53732L7.66175 2.68935M6.88222 3.1572C6.88222 3.1572 7.01397 2.96258 7.14272 2.68328C7.18882 2.58326 7.23455 2.47238 7.2737 2.35568C7.33355 2.1773 7.40019 1.89044 7.40019 1.89044L7.52586 2.14788M7.52586 2.14788C7.52586 2.14788 7.59037 2.48301 7.66175 2.68935" stroke="#F8F7FC" stroke-width="0.0365292"/>
</g>
<defs>
<filter id="filter0_d_1200_6575" x="6.61053" y="1.83606" width="1.84718" height="3.49072" filterUnits="userSpaceOnUse" color-interpolation-filters="sRGB">
<feFlood flood-opacity="0" result="BackgroundImageFix"/>
<feColorMatrix in="SourceAlpha" type="matrix" values="0 0 0 0 0 0 0 0 0 0 0 0 0 0 0 0 0 0 127 0" result="hardAlpha"/>
<feOffset dx="0.0737995" dy="0.0590396"/>
<feGaussianBlur stdDeviation="0.0265678"/>
<feComposite in2="hardAlpha" operator="out"/>
<feColorMatrix type="matrix" values="0 0 0 0 0 0 0 0 0 0 0 0 0 0 0 0 0 0 0.25 0"/>
<feBlend mode="normal" in2="BackgroundImageFix" result="effect1_dropShadow_1200_6575"/>
<feBlend mode="normal" in="SourceGraphic" in2="effect1_dropShadow_1200_6575" result="shape"/>
</filter>
<radialGradient id="paint0_radial_1200_6575" cx="0" cy="0" r="1" gradientUnits="userSpaceOnUse" gradientTransform="translate(9.01462 9.90695) scale(7.11802 7.11799)">
<stop offset="0.5" stop-color="#FDE030"/>
<stop offset="0.92" stop-color="#F7C02B"/>
<stop offset="1" stop-color="#F4A223"/>
</radialGradient>
<linearGradient id="paint1_linear_1200_6575" x1="7.80213" y1="1.99658" x2="7.00754" y2="5.00553" gradientUnits="userSpaceOnUse">
<stop stop-color="#C9C9C9"/>
<stop offset="1" stop-color="#939297"/>
</linearGradient>
</defs>
</svg>
