<svg width="18" height="18" viewBox="0 0 18 18" fill="none" xmlns="http://www.w3.org/2000/svg">
<path d="M9.2975 16.8361C5.78862 16.8361 2.00305 14.6352 2.00305 9.80582C2.00305 4.97641 5.78862 2.77551 9.2975 2.77551C11.2469 2.77551 13.0453 3.41692 14.3785 4.58654C15.8248 5.86935 16.5919 7.68038 16.5919 9.80582C16.5919 11.9313 15.8248 13.7297 14.3785 15.0125C13.0453 16.1821 11.2343 16.8361 9.2975 16.8361Z" fill="url(#paint0_radial_1193_1056)"/>
<path d="M15.32 5.6272C15.9904 6.70878 16.34 7.99663 16.34 9.4291C16.34 11.5545 15.5728 13.353 14.1265 14.6358C12.7934 15.8054 10.9824 16.4594 9.04557 16.4594C6.77423 16.4594 4.39221 15.535 2.98615 13.5743C4.33939 15.7954 6.8849 16.8367 9.2971 16.8367C11.2339 16.8367 13.0449 16.1827 14.3781 15.0131C15.8244 13.7303 16.5915 11.9318 16.5915 9.8064C16.5915 8.20414 16.1551 6.78047 15.32 5.6272Z" fill="#EB8F00"/>
<path d="M7.45953 9.05049L7.44066 9.02534L7.38659 8.95617L7.31993 8.88448C7.29226 8.85304 7.25956 8.82285 7.22812 8.79016C7.19668 8.75746 7.15769 8.72601 7.12248 8.6996C7.08978 8.67445 7.05456 8.65056 7.01683 8.63169C6.99168 8.61786 6.96401 8.60654 6.93508 8.60025C6.92628 8.59899 6.91748 8.59899 6.90867 8.60025C6.90867 8.60025 6.90113 8.60025 6.89735 8.60025H6.88729C6.90239 8.60025 6.85334 8.60025 6.92125 8.60025H6.85208C6.83321 8.60025 6.84579 8.60025 6.85208 8.60025H6.86214C6.86214 8.60025 6.8722 8.60025 6.86214 8.60025H6.84831C6.81938 8.60654 6.79171 8.6166 6.7653 8.63169C6.72883 8.65181 6.69236 8.67445 6.65966 8.6996C6.62318 8.72727 6.58797 8.75746 6.55527 8.79016C6.48861 8.8543 6.4295 8.91592 6.39177 8.96497L6.32638 9.04043L6.29745 9.07439C6.11635 9.27687 5.81073 9.30957 5.59064 9.1511C5.44978 9.05301 5.3781 8.88322 5.40577 8.71344C5.40577 8.71344 5.41457 8.66313 5.43846 8.57384C5.47619 8.44681 5.52902 8.32356 5.59567 8.20786C5.70257 8.01921 5.84721 7.85446 6.02076 7.72366C6.13521 7.63563 6.26223 7.5652 6.39806 7.51615C6.43579 7.50106 6.47478 7.48974 6.51377 7.47968C6.55527 7.4671 6.59677 7.4583 6.63953 7.45075L6.71625 7.43943L6.78039 7.43188H6.84956H6.94892H7.01306C7.05582 7.43188 7.09732 7.4432 7.13883 7.44949C7.21932 7.46333 7.29981 7.48471 7.37652 7.51363C7.51235 7.56268 7.63938 7.63311 7.75382 7.72115C7.92738 7.85194 8.07201 8.0167 8.17891 8.20534C8.2179 8.27074 8.25186 8.33991 8.27953 8.41034C8.30342 8.46694 8.32354 8.52353 8.33989 8.58264C8.3487 8.61283 8.35624 8.64301 8.36002 8.67319V8.70463C8.39775 8.9612 8.21916 9.20015 7.9626 9.23788C7.95631 9.23914 7.95002 9.23914 7.94373 9.2404C7.76011 9.26681 7.57649 9.19386 7.45953 9.05049Z" fill="#422B0D"/>
<path d="M12.4224 9.05037L12.4022 9.02522L12.3482 8.95604L12.2815 8.88436C12.2538 8.85292 12.2211 8.82273 12.1897 8.79003C12.1583 8.75733 12.1193 8.72589 12.0841 8.69948C12.0514 8.67433 12.0161 8.65043 11.9784 8.63157C11.9533 8.61773 11.9256 8.60642 11.8967 8.60013C11.8879 8.59887 11.8791 8.59887 11.8703 8.60013C11.8703 8.60013 11.8627 8.60013 11.8589 8.60013H11.8489C11.864 8.60013 11.8149 8.60013 11.8828 8.60013H11.8137C11.7948 8.60013 11.8074 8.60013 11.8137 8.60013H11.8237C11.8237 8.60013 11.8338 8.60013 11.8237 8.60013H11.8099C11.781 8.60642 11.7533 8.61648 11.7269 8.63157C11.6904 8.65043 11.6552 8.67433 11.6225 8.69948C11.5848 8.72715 11.5495 8.75733 11.5168 8.79003C11.4502 8.85417 11.3911 8.9158 11.3534 8.96485L11.288 9.04031L11.2603 9.07426C11.0779 9.27675 10.7736 9.30945 10.5522 9.15098C10.4114 9.05288 10.3397 8.8831 10.3673 8.71332C10.3673 8.71332 10.3761 8.66301 10.4013 8.57372C10.439 8.44543 10.4906 8.32218 10.5585 8.20774C10.6654 8.01909 10.8088 7.85434 10.9823 7.72354C11.0968 7.6355 11.2238 7.56507 11.3596 7.51603C11.3974 7.50093 11.4364 7.48962 11.4753 7.47955C11.5168 7.46698 11.5584 7.45817 11.6011 7.45063L11.6791 7.43931L11.742 7.43176H11.8111H11.9105H11.9746C12.0174 7.43176 12.0589 7.44308 12.1004 7.44937C12.1822 7.4632 12.2614 7.48458 12.3381 7.51351C12.4739 7.56256 12.601 7.63299 12.7154 7.72102C12.889 7.85182 13.0336 8.01657 13.1405 8.20522C13.1795 8.27062 13.2134 8.33979 13.2411 8.41022C13.265 8.46556 13.2851 8.52215 13.3015 8.58C13.3103 8.61019 13.3178 8.64037 13.3216 8.67056V8.702C13.3618 8.95856 13.1858 9.19877 12.9292 9.23902C12.9254 9.23902 12.9217 9.24028 12.9179 9.24028C12.7305 9.27172 12.5406 9.19877 12.4224 9.05037Z" fill="#422B0D"/>
<path d="M14.1328 10.9041C13.9567 10.5859 13.5744 10.4463 13.2348 10.5746C11.9444 10.9506 10.6063 11.138 9.26184 11.1317C7.9174 11.138 6.57925 10.9506 5.28889 10.5746C4.95058 10.4463 4.56825 10.5846 4.39217 10.9016C4.22113 11.2172 4.34438 11.5832 4.48901 11.8989C5.29643 13.6722 7.07603 14.7336 9.25178 14.7399H9.27191C11.4477 14.7399 13.2273 13.6722 14.0359 11.8989C14.1793 11.5807 14.3038 11.2198 14.1328 10.9041Z" fill="#422B0D"/>
<path d="M11.2764 14.2377C11.2298 14.195 11.182 14.156 11.1343 14.112C10.6211 13.6605 9.95708 13.4178 9.27292 13.4316C8.56862 13.4203 7.8832 13.6542 7.3336 14.0944C7.28581 14.1334 7.2355 14.1711 7.18897 14.2201C7.14243 14.2692 7.11728 14.3044 7.0871 14.3459C7.77881 14.6163 8.5158 14.7546 9.25908 14.7509H9.2792C9.99104 14.7509 10.6966 14.6239 11.3632 14.3736C11.338 14.3258 11.3091 14.2805 11.2764 14.2377Z" fill="#ED7770"/>
<path d="M13.2383 10.5736C11.948 10.9497 10.6098 11.1371 9.26539 11.1308C7.92094 11.1371 6.58279 10.9497 5.29243 10.5736C4.95412 10.4454 4.57179 10.5837 4.39571 10.9006C4.37056 10.9484 4.35044 10.9987 4.33786 11.0503C4.37936 11.0717 4.42715 11.0931 4.48375 11.1157C5.99798 11.8741 7.67193 12.2589 9.36474 12.2388C10.9884 12.2576 12.5932 11.9042 14.0596 11.2075C14.1187 11.1823 14.1678 11.1585 14.2118 11.1358C14.2017 11.0541 14.1753 10.9736 14.1363 10.9006C13.9602 10.5837 13.5779 10.4441 13.2383 10.5736Z" fill="white"/>
<path d="M14.1378 10.9053C13.9592 10.5871 13.5756 10.4463 13.2335 10.5746C11.9432 10.9506 10.605 11.138 9.26184 11.1317C7.9174 11.138 6.57925 10.9506 5.28889 10.5746C4.95057 10.4463 4.56825 10.5846 4.39217 10.9016C4.22113 11.2172 4.34438 11.5832 4.48901 11.8989C4.55315 12.041 4.62484 12.1806 4.70407 12.3152C4.70407 12.3152 4.43996 11.3367 4.66886 11.0525C4.74683 10.9317 4.87763 10.8563 5.021 10.8487C5.08011 10.8487 5.13797 10.8588 5.19456 10.8764C6.50756 11.2625 7.86961 11.4574 9.23921 11.4549H9.28322C10.6528 11.4574 12.0149 11.2625 13.3279 10.8764C13.3845 10.8588 13.4423 10.8487 13.5014 10.8487C13.6448 10.8563 13.7769 10.9317 13.8548 11.0525C14.0875 11.3367 13.8196 12.3189 13.8196 12.3189C13.8976 12.1844 13.9756 12.046 14.041 11.9027C14.1843 11.587 14.3088 11.2223 14.1378 10.9053Z" fill="#EB8F00"/>
<path d="M5.35939 1.26634H5.86386C5.86386 1.26634 7.93598 0.98811 9.33724 1.0004C10.673 1.01211 12.637 1.26634 12.637 1.26634H13.4309C14.2391 2.58339 14.8199 3.93589 15.0863 5.32523C12.637 5.6285 9.37667 6.34217 9.37667 6.34217C9.37667 6.34217 6.28813 5.70793 3.61343 5.16637C4.01979 3.74415 4.52062 2.45352 5.35939 1.26634Z" fill="#7F2125"/>
<path d="M5.35939 1.26634H5.86386C5.86386 1.26634 7.93598 0.98811 9.33724 1.0004C10.673 1.01211 12.637 1.26634 12.637 1.26634H13.4309M5.35939 1.26634C4.52062 2.45352 4.01979 3.74415 3.61343 5.16637C6.28813 5.70793 9.37667 6.34217 9.37667 6.34217C9.37667 6.34217 12.637 5.6285 15.0863 5.32523C14.8199 3.93589 14.2391 2.58339 13.4309 1.26634M5.35939 1.26634C6.01557 1.96964 6.95041 1.52784 9.33724 2.06907C11.4983 1.5442 12.5388 2.00447 13.4309 1.26634" stroke="#67211F" stroke-width="0.0587614"/>
<path d="M9.38691 6.33444L9.36392 2.07237C10.9887 1.5796 12.2222 1.96431 13.4411 1.29004C13.972 2.09567 14.8502 3.60415 15.0965 5.31343C13.2265 5.52976 10.2529 6.14817 9.38691 6.33444Z" fill="#67211F" stroke="#67211F" stroke-width="0.0368795"/>
<path d="M12.0616 1.67656C12.4306 1.43515 12.7258 1.5911 12.7107 1.24438H13.4387C13.0684 1.63276 12.3187 1.62136 12.0616 1.67656Z" fill="#67211F" fill-opacity="0.56"/>
<path d="M6.568 1.72308C6.1991 1.47921 5.85299 1.61137 5.86817 1.26111L5.39301 1.27601C5.76337 1.66835 6.31094 1.66732 6.568 1.72308Z" fill="#67211F"/>
<path d="M9.41162 1.30466L9.32876 2.02384L9.48092 2.01348L9.41162 1.30466Z" fill="#67211F" stroke="#67211F" stroke-width="0.0894087"/>
<path d="M7.41742 1.78959C7.15204 1.77248 6.99232 1.75625 6.77296 1.73953C6.56487 3.28727 6.46557 4.34646 7.0101 5.83182C7.36601 5.90928 7.73735 5.95707 8.09333 6.02709C7.32483 4.59441 7.30214 3.2278 7.41742 1.78959Z" fill="#D60000" stroke="#67211F" stroke-width="0.0368795"/>
<path d="M6.98205 1.76232L6.79205 1.7458L6.75153 2.02928L6.98205 1.76232Z" fill="#398F00" stroke="#67211F" stroke-width="0.00745073"/>
<path d="M6.66007 2.81877L7.38812 1.99036L7.39735 1.80417L6.98042 1.76345L6.75046 2.02976L6.66007 2.81877Z" fill="#FF7F00" stroke="#67211F" stroke-width="0.00745073"/>
<path d="M7.13503 2.27196C7.13503 2.27196 6.90718 2.01178 6.82687 1.94157L6.75022 2.03034L6.66747 2.81196C6.7799 2.68127 7.13503 2.27196 7.13503 2.27196Z" fill="#D60000" stroke="#67211F" stroke-width="0.00745073"/>
<path d="M7.34945 2.89144C7.35305 2.56995 7.36235 2.37064 7.38772 1.99025L6.66732 2.81127C6.63903 3.13912 6.63139 3.32005 6.62211 3.6379L7.34945 2.89144Z" fill="#007FFF" stroke="#67211F" stroke-width="0.00596058"/>
<path d="M7.17524 3.06909L6.82247 2.63402L6.66917 2.81156C6.64653 3.1351 6.63546 3.31464 6.62397 3.6382L7.17524 3.06909Z" fill="#398F00" stroke="#67211F" stroke-width="0.00596058"/>
<path d="M7.19802 3.82153L6.85272 3.40143L6.62303 3.63794C6.62766 3.97325 6.64911 4.12244 6.66947 4.39828L7.19802 3.82153Z" fill="#D60000" stroke="#67211F" stroke-width="0.00596058"/>
<path d="M7.16068 4.67192L6.81544 4.24436L6.66992 4.39962C6.7276 4.74282 6.74198 4.83235 6.80045 5.08615L7.16068 4.67192Z" fill="#007FFF" stroke="#67211F" stroke-width="0.00596058"/>
<path d="M7.24413 5.3793L6.90641 4.95926L6.79909 5.08502C6.87972 5.40607 6.88737 5.39868 6.96108 5.64517L7.24413 5.3793Z" fill="#FF7F00" stroke="#67211F" stroke-width="0.00596058"/>
<path d="M7.42311 5.89601L7.11547 5.50602L6.9625 5.64631C6.98474 5.7061 7.01443 5.78085 7.02927 5.81823L7.42311 5.89601Z" fill="#007FFF" stroke="#67211F" stroke-width="0.00596058"/>
<path d="M7.38254 3.62283C7.35775 3.37215 7.34892 3.21758 7.35103 2.89241L6.85339 3.40236C7.07862 3.67245 7.03363 3.61247 7.1987 3.82246L7.38254 3.62283Z" fill="#FF7F00" stroke="#67211F" stroke-width="0.00596058"/>
<path d="M7.46391 4.31497C7.4356 4.08377 7.39871 3.96425 7.3789 3.62881L6.81207 4.2425C7.03165 4.52882 6.98806 4.46457 7.15737 4.66253L7.46391 4.31497Z" fill="#398F00" stroke="#67211F" stroke-width="0.00596058"/>
<path d="M7.63424 4.98161C7.56813 4.73519 7.53111 4.63057 7.46559 4.3171L6.90607 4.96065C7.0786 5.18561 7.0786 5.18561 7.25132 5.38821L7.63424 4.98161Z" fill="#D60000" stroke="#67211F" stroke-width="0.00596058"/>
<path d="M7.83469 5.54124C7.6621 5.32373 7.6846 5.35372 7.50456 5.12126L7.11424 5.50544C7.28676 5.7304 7.25674 5.69289 7.41429 5.89537L7.83469 5.54124Z" fill="#398F00" stroke="#67211F" stroke-width="0.00596058"/>
<path d="M7.63523 4.98069L7.50501 5.12117L7.83515 5.54114L7.84273 5.54121L7.63523 4.98069Z" fill="#007FFF" stroke="#67211F" stroke-width="0.00596058"/>
<path d="M7.41456 3.97226L7.37957 3.63669L7.33366 3.68101L7.26473 3.75494L7.41456 3.97226Z" fill="#007FFF" stroke="#67211F" stroke-width="0.00596058"/>
<path d="M7.62 5.72544L7.84171 5.53357C7.92049 5.72515 7.96906 5.82745 8.06518 6.00481L7.79246 5.95784L7.62 5.72544Z" fill="#FF7F00" stroke="#67211F" stroke-width="0.00447043"/>
<g filter="url(#filter0_d_1193_1056)">
<path d="M8.56566 2.87405L8.68938 2.6852C8.68938 2.6852 8.8238 3.23909 8.72995 3.59342C8.65534 3.87516 8.38023 4.24281 8.38023 4.24281C8.25431 4.56025 8.26237 4.73435 8.33062 5.0423L8.07953 5.33382C8.07953 5.33382 8.0019 4.93017 7.87645 4.73221C7.69445 4.44499 7.39416 4.5231 7.20897 4.27066C6.93478 3.89688 7.07694 3.10774 7.07694 3.10774L7.29943 3.29795C7.29943 3.29795 7.43426 3.10147 7.56603 2.8195C7.61322 2.71851 7.66002 2.60657 7.70009 2.48875C7.76134 2.30866 7.82955 2.01905 7.82955 2.01905L7.95816 2.27896L8.0616 2.14076C8.0616 2.14076 8.07062 2.33998 8.10879 2.45138C8.19639 2.70706 8.297 2.80013 8.56566 2.87405Z" fill="#939297"/>
<path d="M8.56566 2.87405C8.61397 2.8003 8.68938 2.6852 8.68938 2.6852C8.68938 2.6852 8.8238 3.23909 8.72995 3.59342C8.65534 3.87516 8.38023 4.24281 8.38023 4.24281C8.25431 4.56025 8.26237 4.73435 8.33062 5.0423L8.07953 5.33382C8.07953 5.33382 8.0019 4.93017 7.87645 4.73221C7.69445 4.44499 7.39416 4.5231 7.20897 4.27066C6.93478 3.89688 7.07694 3.10774 7.07694 3.10774L7.29943 3.29795M8.56566 2.87405C8.297 2.80013 8.19639 2.70706 8.10879 2.45138C8.07062 2.33998 8.0616 2.14076 8.0616 2.14076L7.95816 2.27896M8.56566 2.87405C8.55829 2.90078 8.3422 3.36177 8.3422 3.36177C8.3422 3.36177 8.17323 3.04228 8.09725 2.82562M7.29943 3.29795C7.42671 3.44251 7.44586 3.53698 7.48193 3.70447L7.64712 3.10513L7.89916 3.47307M7.29943 3.29795C7.29943 3.29795 7.43426 3.10147 7.56603 2.8195C7.61322 2.71851 7.66002 2.60657 7.70009 2.48875C7.76134 2.30866 7.82955 2.01905 7.82955 2.01905L7.95816 2.27896M7.95816 2.27896C7.95816 2.27896 8.02419 2.61731 8.09725 2.82562M8.09725 2.82562L7.94319 2.67213L7.89916 3.47307M7.89916 3.47307L7.87645 3.86886" stroke="#F8F7FC" stroke-width="0.0368795"/>
</g>
<defs>
<filter id="filter0_d_1193_1056" x="7.02161" y="1.96472" width="1.88828" height="3.52329" filterUnits="userSpaceOnUse" color-interpolation-filters="sRGB">
<feFlood flood-opacity="0" result="BackgroundImageFix"/>
<feColorMatrix in="SourceAlpha" type="matrix" values="0 0 0 0 0 0 0 0 0 0 0 0 0 0 0 0 0 0 127 0" result="hardAlpha"/>
<feOffset dx="0.0745073" dy="0.0596058"/>
<feGaussianBlur stdDeviation="0.0268226"/>
<feComposite in2="hardAlpha" operator="out"/>
<feColorMatrix type="matrix" values="0 0 0 0 0 0 0 0 0 0 0 0 0 0 0 0 0 0 0.25 0"/>
<feBlend mode="normal" in2="BackgroundImageFix" result="effect1_dropShadow_1193_1056"/>
<feBlend mode="normal" in="SourceGraphic" in2="effect1_dropShadow_1193_1056" result="shape"/>
</filter>
<radialGradient id="paint0_radial_1193_1056" cx="0" cy="0" r="1" gradientUnits="userSpaceOnUse" gradientTransform="translate(9.2975 9.80582) scale(7.16361 7.16358)">
<stop offset="0.5" stop-color="#FDE030"/>
<stop offset="0.92" stop-color="#F7C02B"/>
<stop offset="1" stop-color="#F4A223"/>
</radialGradient>
</defs>
</svg>
