<svg width="19" height="18" viewBox="0 0 19 18" fill="none" xmlns="http://www.w3.org/2000/svg">
<path d="M9.94051 16.8925C6.45396 16.8925 2.69249 14.7056 2.69249 9.90695C2.69249 5.10828 6.45396 2.92139 9.94051 2.92139C11.8775 2.92139 13.6645 3.55871 14.9891 4.72089C16.4262 5.99553 17.1885 7.79503 17.1885 9.90695C17.1885 12.0189 16.4262 13.8059 14.9891 15.0805C13.6645 16.2427 11.865 16.8925 9.94051 16.8925Z" fill="url(#paint0_radial_1200_6626)"/>
<path d="M15.9268 5.75439C16.5928 6.8291 16.9402 8.10874 16.9402 9.5321C16.9402 11.644 16.1779 13.431 14.7408 14.7057C13.4162 15.8678 11.6167 16.5177 9.69221 16.5177C7.43533 16.5177 5.06847 15.5992 3.67136 13.651C5.01599 15.8578 7.5453 16.8926 9.94214 16.8926C11.8666 16.8926 13.6661 16.2427 14.9908 15.0806C16.4279 13.8059 17.1902 12.0189 17.1902 9.90699C17.1902 8.31493 16.7565 6.90033 15.9268 5.75439Z" fill="#EB8F00"/>
<path d="M9.99319 11.9702C11.3428 11.9702 12.2926 12.67 12.58 13.1074C12.69 13.2461 12.7137 13.4336 12.6425 13.5948C12.5875 13.696 12.4825 13.7585 12.3675 13.7572C12.3251 13.7547 12.2826 13.746 12.2426 13.7322C11.5115 13.5235 10.7542 13.4186 9.99319 13.4198C9.2359 13.4148 8.4811 13.5248 7.7563 13.7447C7.71631 13.7585 7.67382 13.7672 7.63134 13.7697C7.51637 13.7735 7.4089 13.711 7.35641 13.6073C7.28393 13.4461 7.30892 13.2574 7.41889 13.1199C7.69382 12.67 8.65606 11.9702 9.99319 11.9702Z" fill="#422B0D"/>
<path d="M6.61946 15.1064C5.80719 15.1064 5.18236 14.3191 5.18236 13.6443C5.18236 13.1694 5.3948 12.6196 5.69472 11.8573C5.73221 11.7448 5.78219 11.6324 5.83218 11.5074C6.00713 11.055 6.20708 10.6127 6.43202 10.1828C6.477 10.0965 6.57948 10.0591 6.66945 10.0953C6.70694 10.114 6.73818 10.1453 6.75693 10.1828C6.94438 10.5702 7.15682 11.045 7.36926 11.5324C7.89412 12.7071 8.04408 13.1819 8.04408 13.6568C8.05657 14.3191 7.41925 15.1064 6.61946 15.1064Z" fill="url(#paint1_radial_1200_6626)"/>
<path d="M7.49421 14.2058C7.31051 14.4894 6.89438 14.4357 6.89438 13.9646C6.89438 13.6634 6.95561 12.1163 7.21429 12.3325C7.63917 12.6849 7.75914 13.8046 7.49421 14.2058Z" fill="#81D4FA"/>
<path d="M5.74647 7.88363C5.59026 8.11481 5.21911 7.9661 5.32783 7.68618C5.58401 7.0776 6.06263 6.59023 6.66746 6.32531C6.88865 6.22034 7.12734 6.15411 7.37102 6.12786C7.49474 6.10287 7.61595 6.18285 7.64095 6.30656C7.66594 6.43028 7.58596 6.5515 7.461 6.57649H7.44475C6.74744 6.80767 6.14886 7.2688 5.74647 7.88363Z" fill="#422B0D"/>
<path d="M14.1543 7.88363C14.3105 8.11481 14.6817 7.9661 14.5729 7.68618C14.3155 7.07635 13.8344 6.58898 13.2271 6.32531C13.0059 6.22034 12.7697 6.15411 12.526 6.12786C12.4023 6.10287 12.2811 6.18285 12.2573 6.30656C12.2323 6.43028 12.3123 6.5515 12.436 6.57649H12.4523C13.1508 6.80642 13.7519 7.26755 14.1543 7.88363Z" fill="#422B0D"/>
<path d="M7.57626 7.91321C7.05266 7.91321 6.57654 8.35559 6.57654 9.09038C6.57654 9.82518 7.05266 10.2663 7.57626 10.2663C8.09987 10.2663 8.57599 9.82393 8.57599 9.09038C8.57599 8.35684 8.09987 7.91321 7.57626 7.91321Z" fill="#422B0D"/>
<path d="M7.53051 8.40563C7.35306 8.32065 7.13937 8.39563 7.05314 8.57308C6.98691 8.71179 7.0169 8.87799 7.12812 8.98546C7.30557 9.07044 7.51926 8.99546 7.60549 8.81801C7.67172 8.6793 7.64173 8.5131 7.53051 8.40563Z" fill="#896024"/>
<path d="M12.3662 7.91321C11.8426 7.91321 11.3665 8.35559 11.3665 9.09038C11.3665 9.82518 11.8426 10.2663 12.3662 10.2663C12.8898 10.2663 13.366 9.82393 13.366 9.09038C13.366 8.35684 12.8923 7.91321 12.3662 7.91321Z" fill="#422B0D"/>
<path d="M12.3244 8.40575C12.147 8.32077 11.9333 8.39575 11.8471 8.5732C11.7808 8.71191 11.8108 8.87812 11.922 8.98559C12.0995 9.07056 12.3132 8.99558 12.3994 8.81813C12.4656 8.67942 12.4356 8.51322 12.3244 8.40575Z" fill="#896024"/>
<path d="M6.08697 1.30043H6.57987C6.57987 1.30043 8.60448 1.02484 9.97361 1.03701C11.2787 1.04861 13.1977 1.30043 13.1977 1.30043H13.9734C14.7631 2.60497 15.3306 3.94463 15.5908 5.32076C13.0396 4.59468 9.97361 6.12934 9.97361 6.12934C9.97361 6.12934 6.86154 4.62146 4.38104 5.16341C4.77809 3.7547 5.26743 2.47633 6.08697 1.30043Z" fill="#7F2125"/>
<path d="M6.08697 1.30043H6.57987C6.57987 1.30043 8.60448 1.02484 9.97361 1.03701C11.2787 1.04861 13.1977 1.30043 13.1977 1.30043H13.9734M6.08697 1.30043C5.26743 2.47633 4.77809 3.7547 4.38104 5.16341C6.86154 4.62146 9.97361 6.12935 9.97361 6.12935C9.97361 6.12935 13.0396 4.59468 15.5908 5.32076C15.3306 3.94463 14.7631 2.60497 13.9734 1.30043M6.08697 1.30043C6.7281 1.99705 7.6415 1.55945 9.97361 2.09553C12.0851 1.57565 13.1017 2.03155 13.9734 1.30043" stroke="#67211F" stroke-width="0.0582032"/>
<path d="M9.98799 6.10656L9.99548 2.09899C11.583 1.61091 12.7882 1.99196 13.9792 1.3241C14.4979 2.12207 15.3559 3.61623 15.5966 5.30927C13.5349 4.77817 11.355 5.47927 9.98799 6.10656Z" fill="#67211F" stroke="#67211F" stroke-width="0.0365292"/>
<path d="M7.26573 1.75202C6.90529 1.51047 6.56711 1.64136 6.58194 1.29443L6.11768 1.30919C6.47955 1.69781 7.01456 1.69679 7.26573 1.75202Z" fill="#67211F"/>
<path d="M12.6294 1.70785C12.9898 1.46874 13.2783 1.62321 13.2635 1.27979H13.9749C13.613 1.66447 12.8805 1.65318 12.6294 1.70785Z" fill="#67211F" fill-opacity="0.56"/>
<path d="M10.0424 1.33873L9.96149 2.05107L10.1102 2.04081L10.0424 1.33873Z" fill="#67211F" stroke="#67211F" stroke-width="0.0885594"/>
<path d="M8.09634 1.83328C7.83427 1.81862 7.67649 1.80396 7.45984 1.78931C7.32507 3.3391 7.27334 3.72285 7.55414 5.25788C7.93498 5.35764 8.22297 5.45176 8.55173 5.55308C7.78081 4.15015 7.99505 3.24888 8.09634 1.83328Z" fill="#D60000" stroke="#67211F" stroke-width="0.0365292"/>
<path d="M7.66935 1.81187L7.4794 1.797L7.44141 2.07957L7.66935 1.81187Z" fill="#398F00" stroke="#67211F" stroke-width="0.00737995"/>
<path d="M7.36049 2.85219L8.07186 2.03138L8.07935 1.84817L7.6675 1.81152L7.44286 2.07535L7.36049 2.85219Z" fill="#FF7F00" stroke="#67211F" stroke-width="0.00737995"/>
<path d="M7.82506 2.30976C7.82506 2.30976 7.59792 2.05571 7.51805 1.9873L7.44317 2.07525L7.36829 2.84475C7.47811 2.71528 7.82506 2.30976 7.82506 2.30976Z" fill="#D60000" stroke="#67211F" stroke-width="0.00737995"/>
<path d="M8.04164 2.918C8.04241 2.60174 8.04985 2.40562 8.07159 2.03125L7.3677 2.84472C7.34263 3.16744 7.33666 3.34546 7.33026 3.65818L8.04164 2.918Z" fill="#007FFF" stroke="#67211F" stroke-width="0.00590396"/>
<path d="M7.86941 3.09388L7.51746 2.66882L7.3677 2.84471C7.34817 3.16314 7.33879 3.33983 7.33026 3.65819L7.86941 3.09388Z" fill="#398F00" stroke="#67211F" stroke-width="0.00590396"/>
<path d="M7.89936 3.83411L7.55491 3.42371L7.33026 3.65822C7.33775 3.98801 7.36021 4.13458 7.38271 4.40574L7.89936 3.83411Z" fill="#D60000" stroke="#67211F" stroke-width="0.00590396"/>
<path d="M7.86866 4.66932L7.5242 4.25159L7.38193 4.40549C7.44183 4.7426 7.45681 4.83055 7.51671 5.07972L7.86866 4.66932Z" fill="#007FFF" stroke="#67211F" stroke-width="0.00590396"/>
<path d="M7.95946 5.3676L7.62085 4.9552L7.5155 5.08039L7.56307 5.24451L7.95946 5.3676Z" fill="#FF7F00" stroke="#67211F" stroke-width="0.00590396"/>
<path d="M8.0777 3.63593C8.05105 3.38956 8.041 3.23759 8.04026 2.91772L7.55353 3.4234C7.77817 3.68723 7.73324 3.6286 7.89798 3.8338L8.0777 3.63593Z" fill="#FF7F00" stroke="#67211F" stroke-width="0.00590396"/>
<path d="M8.16728 4.31791C8.13733 4.09072 8.09989 3.97346 8.07742 3.64368L7.5233 4.25195C7.74251 4.53179 7.69892 4.46894 7.86775 4.66229L8.16728 4.31791Z" fill="#398F00" stroke="#67211F" stroke-width="0.00590396"/>
<path d="M8.3416 4.97012C8.27421 4.72827 8.23677 4.62567 8.16938 4.31787L7.62274 4.95546C7.79497 5.17532 7.79497 5.17532 7.9672 5.37319L8.3416 4.97012Z" fill="#D60000" stroke="#67211F" stroke-width="0.00590396"/>
<path d="M8.55667 5.54066C8.3836 5.32709 8.39447 5.33767 8.21388 5.10938L7.9552 5.36268C8.27263 5.4461 8.26707 5.44425 8.26707 5.44425L8.55667 5.54066Z" fill="#398F00" stroke="#67211F" stroke-width="0.00590396"/>
<path d="M8.34246 4.96997L8.21454 5.10989L8.54562 5.5223H8.55315L8.34246 4.96997Z" fill="#007FFF" stroke="#67211F" stroke-width="0.00590396"/>
<path d="M8.1174 3.9824L8.07977 3.651L8.03463 3.69519L7.9669 3.76883L8.1174 3.9824Z" fill="#007FFF" stroke="#67211F" stroke-width="0.00590396"/>
<g filter="url(#filter0_d_1200_6626)">
<path d="M9.06774 2.73732L9.18862 2.55026C9.18862 2.55026 9.31996 3.09889 9.22827 3.44985C9.15536 3.72892 8.88656 4.09308 8.88656 4.09308C8.76353 4.4075 8.7714 4.57995 8.83809 4.88497L8.59276 5.17372C8.59276 5.17372 8.51691 4.77391 8.39434 4.57783C8.21651 4.29334 7.9231 4.37071 7.74216 4.12066C7.47425 3.75043 7.61316 2.96879 7.61316 2.96879L7.83054 3.1572C7.83054 3.1572 7.96229 2.96258 8.09103 2.68328C8.13714 2.58326 8.18286 2.47238 8.22202 2.35568C8.28186 2.1773 8.34851 1.89044 8.34851 1.89044L8.47417 2.14788L8.57524 2.011C8.57524 2.011 8.58405 2.20832 8.62135 2.31867C8.70694 2.57191 8.80524 2.6641 9.06774 2.73732Z" fill="url(#paint2_linear_1200_6626)"/>
<path d="M9.06774 2.73732C9.11495 2.66427 9.18862 2.55026 9.18862 2.55026C9.18862 2.55026 9.31996 3.09889 9.22827 3.44985C9.15536 3.72892 8.88656 4.09308 8.88656 4.09308C8.76353 4.4075 8.7714 4.57995 8.83809 4.88497L8.59276 5.17372C8.59276 5.17372 8.51691 4.77391 8.39434 4.57783C8.21651 4.29334 7.9231 4.37071 7.74216 4.12066C7.47425 3.75043 7.61316 2.96879 7.61316 2.96879L7.83054 3.1572M9.06774 2.73732C8.80524 2.6641 8.70694 2.57191 8.62135 2.31867C8.58405 2.20832 8.57524 2.011 8.57524 2.011L8.47417 2.14788M9.06774 2.73732C9.06054 2.76379 8.84941 3.2204 8.84941 3.2204C8.84941 3.2204 8.68431 2.90395 8.61007 2.68935M7.83054 3.1572C7.95491 3.30038 7.97362 3.39395 8.00886 3.55985L8.17026 2.9662L8.41652 3.33065L8.45954 2.53732L8.61007 2.68935M7.83054 3.1572C7.83054 3.1572 7.96229 2.96258 8.09103 2.68328C8.13714 2.58326 8.18286 2.47238 8.22202 2.35568C8.28186 2.1773 8.34851 1.89044 8.34851 1.89044L8.47417 2.14788M8.47417 2.14788C8.47417 2.14788 8.53869 2.48301 8.61007 2.68935" stroke="#F8F7FC" stroke-width="0.0365292"/>
</g>
<defs>
<filter id="filter0_d_1200_6626" x="7.55887" y="1.83606" width="1.84715" height="3.49072" filterUnits="userSpaceOnUse" color-interpolation-filters="sRGB">
<feFlood flood-opacity="0" result="BackgroundImageFix"/>
<feColorMatrix in="SourceAlpha" type="matrix" values="0 0 0 0 0 0 0 0 0 0 0 0 0 0 0 0 0 0 127 0" result="hardAlpha"/>
<feOffset dx="0.0737995" dy="0.0590396"/>
<feGaussianBlur stdDeviation="0.0265678"/>
<feComposite in2="hardAlpha" operator="out"/>
<feColorMatrix type="matrix" values="0 0 0 0 0 0 0 0 0 0 0 0 0 0 0 0 0 0 0.25 0"/>
<feBlend mode="normal" in2="BackgroundImageFix" result="effect1_dropShadow_1200_6626"/>
<feBlend mode="normal" in="SourceGraphic" in2="effect1_dropShadow_1200_6626" result="shape"/>
</filter>
<radialGradient id="paint0_radial_1200_6626" cx="0" cy="0" r="1" gradientUnits="userSpaceOnUse" gradientTransform="translate(9.94051 9.90695) scale(7.11802 7.11799)">
<stop offset="0.5" stop-color="#FDE030"/>
<stop offset="0.92" stop-color="#F7C02B"/>
<stop offset="1" stop-color="#F4A223"/>
</radialGradient>
<radialGradient id="paint1_radial_1200_6626" cx="0" cy="0" r="1" gradientUnits="userSpaceOnUse" gradientTransform="translate(6.72194 10.7193) scale(3.3016 5.08444)">
<stop offset="0.46" stop-color="#29B6F6"/>
<stop offset="1" stop-color="#1E88E5"/>
</radialGradient>
<linearGradient id="paint2_linear_1200_6626" x1="8.75045" y1="1.99658" x2="7.95585" y2="5.00553" gradientUnits="userSpaceOnUse">
<stop stop-color="#C9C9C9"/>
<stop offset="1" stop-color="#939297"/>
</linearGradient>
</defs>
</svg>
