<svg width="19" height="19" viewBox="0 0 19 19" fill="none" xmlns="http://www.w3.org/2000/svg">
<g clip-path="url(#clip0_1200_7834)">
<path d="M9.97263 17.5578C6.48608 17.5578 2.72461 15.3709 2.72461 10.5722C2.72461 5.77356 6.48608 3.58667 9.97263 3.58667C11.9096 3.58667 13.6966 4.22399 15.0212 5.38617C16.4584 6.66082 17.2206 8.46032 17.2206 10.5722C17.2206 12.6841 16.4584 14.4711 15.0212 15.7458C13.6966 16.908 11.8971 17.5578 9.97263 17.5578Z" fill="url(#paint0_radial_1200_7834)"/>
<path d="M15.9579 6.41943C16.624 7.49414 16.9714 8.77378 16.9714 10.1971C16.9714 12.309 16.2091 14.0961 14.772 15.3707C13.4473 16.5329 11.6478 17.1827 9.72334 17.1827C7.46646 17.1827 5.09961 16.2642 3.70249 14.316C5.04712 16.5229 7.57643 17.5576 9.97328 17.5576C11.8977 17.5576 13.6973 16.9078 15.0219 15.7456C16.459 14.4709 17.2213 12.6839 17.2213 10.572C17.2213 8.97997 16.7877 7.56537 15.9579 6.41943Z" fill="#EB8F00"/>
<path d="M10.0241 14.8716C8.36829 14.8716 7.18611 13.8956 6.83121 13.3545C6.6975 13.1808 6.66875 12.9471 6.75873 12.7472C6.82746 12.6197 6.96117 12.541 7.10613 12.5447C7.15862 12.5447 7.21236 12.5535 7.26234 12.5697C8.09711 12.8334 8.82691 13.2083 10.0241 13.2083C11.2213 13.2083 11.9536 12.8334 12.7858 12.5672C12.8358 12.551 12.8896 12.5422 12.942 12.5422C13.087 12.5385 13.2207 12.6172 13.2894 12.7447C13.3794 12.9446 13.3507 13.1783 13.217 13.352C12.8621 13.8956 11.6799 14.8716 10.0241 14.8716Z" fill="#422B0D"/>
<path d="M12.3131 16.4702C12.1881 15.8903 11.9906 15.338 12.0381 14.9706C12.1306 14.2583 12.5592 14.0121 12.5592 14.0121C12.3381 13.9583 12.1056 13.9846 11.9019 14.0871C11.492 14.2745 11.6695 14.3695 11.0384 14.4994C10.5073 14.6094 10.2011 14.3357 9.59505 14.4407C9.05395 14.5357 8.91899 14.7181 8.91899 14.7181C9.21641 14.8119 9.52382 14.8756 9.83374 14.9093C10.8335 15.0281 10.7085 15.9091 10.6373 16.284C10.4948 17.01 10.3024 18.2747 11.4958 18.2284C12.3618 18.1984 12.4843 17.2974 12.3131 16.4702Z" fill="url(#paint1_linear_1200_7834)"/>
<path d="M5.76328 10.0216C5.59332 9.86036 5.58583 9.59168 5.74703 9.42048C5.77078 9.39549 5.79702 9.37299 5.82576 9.3555C6.19191 9.08682 6.60055 8.88313 7.03543 8.75441C7.47531 8.64444 7.93018 8.6107 8.38131 8.65569C8.61625 8.66569 8.79995 8.86313 8.78995 9.09807C8.7887 9.13181 8.7837 9.16555 8.7737 9.19929C8.70247 9.41548 8.49128 9.55419 8.26509 9.53295C7.93018 9.49671 7.59278 9.5192 7.26537 9.59793C6.9442 9.69665 6.64054 9.85036 6.37061 10.0503C6.18691 10.184 5.93448 10.1728 5.76328 10.0216Z" fill="#422B0D"/>
<path d="M14.2842 10.0216C14.4541 9.86036 14.4616 9.59168 14.3004 9.42048C14.2767 9.39549 14.2504 9.37299 14.2217 9.3555C13.8555 9.08682 13.4469 8.88313 13.012 8.75441C12.5721 8.64444 12.1173 8.6107 11.6661 8.65569C11.4312 8.66569 11.2475 8.86313 11.2575 9.09807C11.2588 9.13181 11.2638 9.16555 11.2737 9.19929C11.345 9.41548 11.5562 9.55419 11.7824 9.53295C12.1173 9.49671 12.4547 9.5192 12.7821 9.59793C13.1032 9.69665 13.4069 9.85036 13.6768 10.0503C13.8605 10.184 14.113 10.1728 14.2842 10.0216Z" fill="#422B0D"/>
<path d="M12.0066 17.5317C11.8729 17.7392 11.5705 17.6992 11.5705 17.3568C11.5705 17.1368 11.6155 16.0109 11.8029 16.1684C12.1103 16.4245 12.1978 17.2406 12.0066 17.5317Z" fill="#81D4FA"/>
<path d="M6.09801 2.00344H6.59204C6.59204 2.00344 8.62129 1.72785 9.99356 1.74002C11.3016 1.75161 13.225 2.00344 13.225 2.00344H14.0025C14.794 3.30797 15.3628 4.64763 15.6236 6.02376C13.0666 5.29768 9.99356 6.83235 9.99356 6.83235C9.99356 6.83235 6.87436 5.32446 4.38818 5.86642C4.78614 4.45771 5.2766 3.17933 6.09801 2.00344Z" fill="#7F2125"/>
<path d="M6.09801 2.00344H6.59204C6.59204 2.00344 8.62129 1.72785 9.99356 1.74002C11.3016 1.75161 13.225 2.00344 13.225 2.00344H14.0025M6.09801 2.00344C5.2766 3.17933 4.78614 4.45771 4.38818 5.86642C6.87436 5.32446 9.99356 6.83235 9.99356 6.83235C9.99356 6.83235 13.0666 5.29768 15.6236 6.02376C15.3628 4.64763 14.794 3.30797 14.0025 2.00344M6.09801 2.00344C6.74061 2.70005 7.65611 2.26245 9.99356 2.79853C12.1099 2.27865 13.1288 2.73456 14.0025 2.00344" stroke="#67211F" stroke-width="0.0582032"/>
<path d="M10.0108 6.80981L10.0183 2.80224C11.6094 2.31415 12.8174 2.69521 14.0111 2.02734C14.531 2.82532 15.391 4.31947 15.6322 6.01252C13.5658 5.48142 11.3809 6.18251 10.0108 6.80981Z" fill="#67211F" stroke="#67211F" stroke-width="0.0365292"/>
<path d="M7.28198 2.45527C6.92071 2.21371 6.58176 2.34461 6.59662 1.99768L6.1313 2.01244C6.494 2.40105 7.03023 2.40004 7.28198 2.45527Z" fill="#67211F"/>
<path d="M12.6604 2.41085C13.0216 2.17174 13.3108 2.32621 13.2959 1.98279H14.0089C13.6462 2.36748 12.9121 2.35618 12.6604 2.41085Z" fill="#67211F" fill-opacity="0.56"/>
<path d="M10.064 2.04185L9.98291 2.7542L10.1319 2.74393L10.064 2.04185Z" fill="#67211F" stroke="#67211F" stroke-width="0.0885594"/>
<path d="M8.11596 2.53652C7.85329 2.52187 7.69514 2.50721 7.478 2.49255C7.34292 4.04234 7.29107 4.4261 7.57252 5.96113C7.95423 6.06089 8.24288 6.155 8.57239 6.25633C7.79971 4.8534 8.01443 3.95213 8.11596 2.53652Z" fill="#D60000" stroke="#67211F" stroke-width="0.0365292"/>
<path d="M7.68798 2.51451L7.49759 2.49963L7.45952 2.78221L7.68798 2.51451Z" fill="#398F00" stroke="#67211F" stroke-width="0.00737995"/>
<path d="M7.37647 3.55543L8.08947 2.73463L8.09697 2.55141L7.68418 2.51477L7.45902 2.7786L7.37647 3.55543Z" fill="#FF7F00" stroke="#67211F" stroke-width="0.00737995"/>
<path d="M7.84206 3.01289C7.84206 3.01289 7.6144 2.75883 7.53434 2.69043L7.45929 2.77837L7.38423 3.54788C7.49431 3.41841 7.84206 3.01289 7.84206 3.01289Z" fill="#D60000" stroke="#67211F" stroke-width="0.00737995"/>
<path d="M8.06019 3.62113C8.06096 3.30486 8.06842 3.10874 8.09021 2.73438L7.38471 3.54784C7.35959 3.87056 7.3536 4.04858 7.34718 4.36131L8.06019 3.62113Z" fill="#007FFF" stroke="#67211F" stroke-width="0.00590396"/>
<path d="M7.88757 3.79713L7.53482 3.37207L7.38471 3.54796C7.36513 3.86638 7.35574 4.04307 7.34718 4.36143L7.88757 3.79713Z" fill="#398F00" stroke="#67211F" stroke-width="0.00590396"/>
<path d="M7.91759 4.53711L7.57234 4.12671L7.34718 4.36122C7.35469 4.69101 7.37721 4.83759 7.39975 5.10874L7.91759 4.53711Z" fill="#D60000" stroke="#67211F" stroke-width="0.00590396"/>
<path d="M7.88768 5.37257L7.54243 4.95483L7.39983 5.10874C7.45987 5.44585 7.47489 5.5338 7.53493 5.78297L7.88768 5.37257Z" fill="#007FFF" stroke="#67211F" stroke-width="0.00590396"/>
<path d="M7.97935 6.07073L7.63996 5.65833L7.53438 5.78352L7.58205 5.94763L7.97935 6.07073Z" fill="#FF7F00" stroke="#67211F" stroke-width="0.00590396"/>
<path d="M8.0968 4.33918C8.07009 4.09281 8.06001 3.94084 8.05927 3.62097L7.57142 4.12665C7.79658 4.39048 7.75155 4.33185 7.91667 4.53705L8.0968 4.33918Z" fill="#FF7F00" stroke="#67211F" stroke-width="0.00590396"/>
<path d="M8.18763 5.02103C8.15761 4.79385 8.12008 4.67659 8.09757 4.3468L7.54218 4.95508C7.76189 5.23492 7.7182 5.17207 7.88742 5.36541L8.18763 5.02103Z" fill="#398F00" stroke="#67211F" stroke-width="0.00590396"/>
<path d="M8.36018 5.673C8.29263 5.43115 8.25511 5.32855 8.18756 5.02075L7.63967 5.65834C7.81229 5.8782 7.81229 5.8782 7.98492 6.07607L8.36018 5.673Z" fill="#D60000" stroke="#67211F" stroke-width="0.00590396"/>
<path d="M8.57693 6.24378C8.40346 6.03022 8.41436 6.04079 8.23335 5.8125L7.97408 6.0658C8.29224 6.14923 8.28667 6.14738 8.28667 6.14738L8.57693 6.24378Z" fill="#398F00" stroke="#67211F" stroke-width="0.00590396"/>
<path d="M8.36066 5.67322L8.23245 5.81314L8.56429 6.22554H8.57183L8.36066 5.67322Z" fill="#007FFF" stroke="#67211F" stroke-width="0.00590396"/>
<path d="M8.13662 4.68516L8.09891 4.35376L8.05366 4.39795L7.98578 4.47159L8.13662 4.68516Z" fill="#007FFF" stroke="#67211F" stroke-width="0.00590396"/>
<g filter="url(#filter0_d_1200_7834)">
<path d="M9.08786 3.44057L9.20902 3.25351C9.20902 3.25351 9.34066 3.80213 9.24876 4.1531C9.17568 4.43217 8.90627 4.79632 8.90627 4.79632C8.78296 5.11075 8.79085 5.2832 8.85769 5.58822L8.61179 5.87697C8.61179 5.87697 8.53577 5.47715 8.41292 5.28107C8.23468 4.99659 7.9406 5.07395 7.75925 4.82391C7.49073 4.45368 7.62995 3.67204 7.62995 3.67204L7.84783 3.86044C7.84783 3.86044 7.97988 3.66583 8.10892 3.38653C8.15513 3.28651 8.20096 3.17563 8.2402 3.05893C8.30019 2.88054 8.36698 2.59369 8.36698 2.59369L8.49294 2.85113L8.59424 2.71424C8.59424 2.71424 8.60307 2.91157 8.64045 3.02191C8.72624 3.27516 8.82476 3.36735 9.08786 3.44057Z" fill="url(#paint2_linear_1200_7834)"/>
<path d="M9.08786 3.44057C9.13518 3.36752 9.20902 3.25351 9.20902 3.25351C9.20902 3.25351 9.34066 3.80213 9.24876 4.1531C9.17568 4.43217 8.90627 4.79632 8.90627 4.79632C8.78296 5.11075 8.79085 5.2832 8.85769 5.58822L8.61179 5.87697C8.61179 5.87697 8.53577 5.47715 8.41292 5.28107C8.23468 4.99659 7.9406 5.07395 7.75925 4.82391C7.49073 4.45368 7.62995 3.67204 7.62995 3.67204L7.84783 3.86044M9.08786 3.44057C8.82476 3.36735 8.72624 3.27516 8.64045 3.02191C8.60307 2.91157 8.59424 2.71424 8.59424 2.71424L8.49294 2.85113M9.08786 3.44057C9.08065 3.46704 8.86903 3.92365 8.86903 3.92365C8.86903 3.92365 8.70355 3.60719 8.62914 3.3926M7.84783 3.86044C7.97248 4.00362 7.99124 4.0972 8.02656 4.2631L8.18833 3.66945L8.43516 4.0339L8.47827 3.24056L8.62914 3.3926M7.84783 3.86044C7.84783 3.86044 7.97988 3.66583 8.10892 3.38653C8.15513 3.28651 8.20096 3.17563 8.2402 3.05893C8.30019 2.88054 8.36698 2.59369 8.36698 2.59369L8.49294 2.85113M8.49294 2.85113C8.49294 2.85113 8.5576 3.18626 8.62914 3.3926" stroke="#F8F7FC" stroke-width="0.0365292"/>
</g>
<path d="M5.81329 7.77972C5.64583 8.00341 5.28218 7.83721 5.40465 7.56353C5.68957 6.9662 6.19443 6.50133 6.81301 6.26639C7.0392 6.17142 7.27914 6.11643 7.52282 6.10144C7.64779 6.08269 7.76401 6.16892 7.78275 6.29263C7.80149 6.41635 7.71527 6.53382 7.59155 6.55256H7.57531C6.8655 6.75126 6.24442 7.18364 5.81329 7.77972Z" fill="#422B0D"/>
<path d="M14.1679 6.88841C14.3479 7.1021 14.7015 6.9159 14.5641 6.64973C14.2454 6.06989 13.7156 5.63376 13.0845 5.43381C12.8545 5.35259 12.6121 5.3101 12.3672 5.30885C12.2397 5.3076 12.1372 5.41007 12.136 5.53754C12.136 5.64875 12.2147 5.74498 12.3247 5.76497H12.3409C13.0595 5.92243 13.7031 6.31732 14.1679 6.88841Z" fill="#422B0D"/>
</g>
<defs>
<filter id="filter0_d_1200_7834" x="7.57557" y="2.53943" width="1.85102" height="3.49059" filterUnits="userSpaceOnUse" color-interpolation-filters="sRGB">
<feFlood flood-opacity="0" result="BackgroundImageFix"/>
<feColorMatrix in="SourceAlpha" type="matrix" values="0 0 0 0 0 0 0 0 0 0 0 0 0 0 0 0 0 0 127 0" result="hardAlpha"/>
<feOffset dx="0.0737995" dy="0.0590396"/>
<feGaussianBlur stdDeviation="0.0265678"/>
<feComposite in2="hardAlpha" operator="out"/>
<feColorMatrix type="matrix" values="0 0 0 0 0 0 0 0 0 0 0 0 0 0 0 0 0 0 0.25 0"/>
<feBlend mode="normal" in2="BackgroundImageFix" result="effect1_dropShadow_1200_7834"/>
<feBlend mode="normal" in="SourceGraphic" in2="effect1_dropShadow_1200_7834" result="shape"/>
</filter>
<radialGradient id="paint0_radial_1200_7834" cx="0" cy="0" r="1" gradientUnits="userSpaceOnUse" gradientTransform="translate(9.97263 10.5722) scale(7.11802 7.11799)">
<stop offset="0.5" stop-color="#FDE030"/>
<stop offset="0.92" stop-color="#F7C02B"/>
<stop offset="1" stop-color="#F4A223"/>
</radialGradient>
<linearGradient id="paint1_linear_1200_7834" x1="10.7391" y1="18.2297" x2="10.7391" y2="13.9851" gradientUnits="userSpaceOnUse">
<stop offset="0.46" stop-color="#29B6F6"/>
<stop offset="1" stop-color="#1E88E5"/>
</linearGradient>
<linearGradient id="paint2_linear_1200_7834" x1="8.76985" y1="2.69983" x2="7.97683" y2="5.70967" gradientUnits="userSpaceOnUse">
<stop stop-color="#C9C9C9"/>
<stop offset="1" stop-color="#939297"/>
</linearGradient>
<clipPath id="clip0_1200_7834">
<rect width="17.996" height="17.996" fill="white" transform="translate(0.948486 0.984131)"/>
</clipPath>
</defs>
</svg>
