<svg width="19" height="18" viewBox="0 0 19 18" fill="none" xmlns="http://www.w3.org/2000/svg">
<path d="M9.99381 16.7452C6.50726 16.7452 2.74579 14.5583 2.74579 9.75961C2.74579 4.96094 6.50726 2.77405 9.99381 2.77405C11.9308 2.77405 13.7178 3.41137 15.0424 4.57355C16.4795 5.84819 17.2418 7.64769 17.2418 9.75961C17.2418 11.8715 16.4795 13.6585 15.0424 14.9332C13.7178 16.0953 11.9183 16.7452 9.99381 16.7452Z" fill="url(#paint0_radial_1206_12567)"/>
<path d="M11.969 7.63989C11.4454 7.63989 10.9693 8.08227 10.9693 8.81707C10.9693 9.55186 11.4454 9.99424 11.969 9.99424C12.4926 9.99424 12.9688 9.55186 12.9688 8.81707C12.9688 8.08227 12.4926 7.63989 11.969 7.63989Z" fill="#422B0D"/>
<path d="M11.9191 8.13348C11.7904 8.04351 11.5967 8.07225 11.4717 8.2522C11.3468 8.4334 11.388 8.62335 11.5167 8.71332C11.6454 8.8033 11.8391 8.77456 11.9641 8.59461C12.0903 8.41341 12.0478 8.22346 11.9191 8.13348Z" fill="#896024"/>
<path d="M15.9781 5.60754C16.6442 6.68225 16.9916 7.96189 16.9916 9.38525C16.9916 11.4972 16.2293 13.2842 14.7922 14.5588C13.4675 15.721 11.668 16.3708 9.74354 16.3708C7.48666 16.3708 5.11481 15.4523 3.72269 13.5041C5.06732 15.711 7.59538 16.7457 9.99347 16.7457C11.9179 16.7457 13.7175 16.0959 15.0421 14.9337C16.4792 13.6591 17.2415 11.8721 17.2415 9.76014C17.2415 8.16808 16.8079 6.75348 15.9781 5.60754Z" fill="#EB8F00"/>
<g opacity="0.9">
<path opacity="0.9" d="M14.7479 12.8653C15.9516 12.8653 16.9273 11.9702 16.9273 10.8659C16.9273 9.76164 15.9516 8.86646 14.7479 8.86646C13.5443 8.86646 12.5685 9.76164 12.5685 10.8659C12.5685 11.9702 13.5443 12.8653 14.7479 12.8653Z" fill="url(#paint1_radial_1206_12567)"/>
</g>
<g opacity="0.9">
<path opacity="0.9" d="M5.47768 13.2007C6.68133 13.2007 7.65709 12.3055 7.65709 11.2012C7.65709 10.097 6.68133 9.20178 5.47768 9.20178C4.27403 9.20178 3.29828 10.097 3.29828 11.2012C3.29828 12.3055 4.27403 13.2007 5.47768 13.2007Z" fill="url(#paint2_radial_1206_12567)"/>
</g>
<path d="M7.71768 6.5728C7.88638 6.35536 8.24254 6.54656 8.10007 6.82523C7.9926 7.02767 7.8364 7.23261 7.6527 7.40007C7.16533 7.87619 6.49676 8.13112 5.88443 8.13486C5.57202 8.13112 5.58576 7.72998 5.85944 7.67249C6.5555 7.54128 7.23281 7.16014 7.71768 6.5728Z" fill="#422B0D"/>
<path d="M12.1495 6.7417C11.8859 6.66422 11.9321 6.26434 12.2433 6.29433C12.4707 6.31932 12.7194 6.39055 12.9418 6.49927C13.5629 6.77794 14.0465 7.3053 14.2752 7.87264C14.3864 8.16506 14.009 8.29877 13.8553 8.06509C13.4779 7.46525 12.8744 6.97539 12.1495 6.7417Z" fill="#422B0D"/>
<path d="M6.75407 8.60355C6.56538 8.69353 6.4654 8.90347 6.51539 9.10591C6.64535 9.64327 7.06024 9.95568 7.50887 9.95568C8.05122 9.95568 8.54483 9.49706 8.54483 8.73727C8.54483 8.59231 8.52609 8.45734 8.4936 8.33613C8.42362 8.0762 8.1262 7.95123 7.88252 8.0662L6.75407 8.60355Z" fill="#422B0D"/>
<path d="M7.95616 8.49355C7.88743 8.38858 7.71373 8.36733 7.53003 8.4898C7.34633 8.61226 7.29884 8.77972 7.36757 8.88469C7.4363 8.98966 7.61001 9.0109 7.79371 8.88844C7.97741 8.76597 8.02614 8.59727 7.95616 8.49355Z" fill="#896024"/>
<path fill-rule="evenodd" clip-rule="evenodd" d="M5.21934 11.9225C5.63573 11.6771 6.14496 11.5955 6.61765 11.7008C6.76712 11.7341 6.86128 11.8823 6.82796 12.0318C6.79464 12.1813 6.64646 12.2754 6.49699 12.2421C6.1624 12.1675 5.79688 12.2258 5.50096 12.4003C5.36903 12.478 5.19905 12.4341 5.12128 12.3022C5.04352 12.1703 5.08742 12.0003 5.21934 11.9225Z" fill="#35220B"/>
<path d="M13.9491 11.9542C14.099 11.9854 14.1951 12.1323 14.1638 12.2822C13.9198 13.4511 12.6846 14.2986 11.5065 14.1089C11.1643 14.0539 10.8533 13.9265 10.5675 13.7883C10.4444 13.7288 10.3224 13.6655 10.2045 13.6043L10.2044 13.6043L10.1484 13.5752L9.74691 13.3762C9.20757 13.1295 8.64139 13.0374 8.24421 13.2816C8.18574 13.3174 8.12941 13.3613 8.05786 13.4173L8.0563 13.4185C7.98954 13.4707 7.90822 13.5344 7.81719 13.589C7.36796 13.8605 6.76871 13.848 6.33062 13.556C5.89274 13.2641 5.64928 12.7158 5.72789 12.1954C5.75076 12.044 5.89205 11.9398 6.04347 11.9627C6.19489 11.9855 6.2991 12.1268 6.27623 12.2782C6.22987 12.5851 6.3788 12.9216 6.63823 13.0946C6.8973 13.2673 7.26505 13.2749 7.53059 13.1143C7.58862 13.0794 7.64554 13.0358 7.71616 12.9805L7.72442 12.974L7.72442 12.974C7.78907 12.9234 7.8674 12.8621 7.95388 12.8091C8.60139 12.411 9.40227 12.6088 9.97759 12.8719C10.1237 12.9387 10.2662 13.0117 10.4035 13.0828L10.4608 13.1125C10.5791 13.1739 10.6934 13.2332 10.8088 13.289C11.0762 13.4183 11.3307 13.5189 11.5946 13.5614C12.4809 13.7041 13.4376 13.047 13.621 12.1689C13.6523 12.019 13.7992 11.9229 13.9491 11.9542Z" fill="#35220B"/>
<path fill-rule="evenodd" clip-rule="evenodd" d="M14.1699 12.0561C14.3779 12.1839 14.5839 12.3718 14.687 12.5915C14.752 12.7301 14.6924 12.8952 14.5538 12.9603C14.4152 13.0254 14.25 12.9657 14.185 12.8271C14.1443 12.7406 14.0354 12.6243 13.8797 12.5287C13.7234 12.4327 13.5737 12.3904 13.4818 12.3951C13.3288 12.403 13.1985 12.2855 13.1906 12.1325C13.1827 11.9796 13.3002 11.8492 13.4532 11.8413C13.6999 11.8286 13.9625 11.9287 14.1699 12.0561Z" fill="#35220B"/>
<path d="M5.92045 1.50881H6.43773C6.43773 1.50881 8.56247 1.23322 9.99931 1.24539C11.369 1.25699 13.3828 1.50881 13.3828 1.50881H14.1969C15.0256 2.81334 15.6212 4.153 15.8943 5.52913C13.217 4.80305 9.99931 6.33772 9.99931 6.33772C9.99931 6.33772 6.73333 4.82983 4.13016 5.37179C4.54684 3.96308 5.06038 2.68471 5.92045 1.50881Z" fill="#7F2125"/>
<path d="M5.92045 1.50881H6.43773C6.43773 1.50881 8.56247 1.23322 9.99931 1.24539C11.369 1.25699 13.3828 1.50881 13.3828 1.50881H14.1969M5.92045 1.50881C5.06038 2.68471 4.54684 3.96308 4.13016 5.37179C6.73333 4.82983 9.99931 6.33772 9.99931 6.33772C9.99931 6.33772 13.217 4.80305 15.8943 5.52913C15.6212 4.153 15.0256 2.81334 14.1969 1.50881M5.92045 1.50881C6.59329 2.20543 7.55187 1.76782 9.99931 2.3039C12.2152 1.78402 13.2821 2.23993 14.1969 1.50881" stroke="#67211F" stroke-width="0.0582032"/>
<path d="M10.0169 6.31518L10.0248 2.30761C11.6908 1.81952 12.9556 2.20058 14.2055 1.53271C14.7499 2.33069 15.6504 3.82485 15.9029 5.51789C13.7393 4.98679 11.4516 5.68789 10.0169 6.31518Z" fill="#67211F" stroke="#67211F" stroke-width="0.0365292"/>
<path d="M7.1579 1.96076C6.77963 1.71921 6.42473 1.8501 6.44029 1.50317L5.95306 1.51793C6.33283 1.90655 6.8943 1.90553 7.1579 1.96076Z" fill="#67211F"/>
<path d="M12.7892 1.91659C13.1674 1.67748 13.4702 1.83195 13.4546 1.48853H14.2012C13.8214 1.87321 13.0528 1.86192 12.7892 1.91659Z" fill="#67211F" fill-opacity="0.56"/>
<path d="M10.0718 1.54734L9.98687 2.25969L10.1429 2.24943L10.0718 1.54734Z" fill="#67211F" stroke="#67211F" stroke-width="0.0885594"/>
<path d="M8.03034 2.04202C7.75531 2.02736 7.58972 2.0127 7.36236 1.99805C7.22093 3.54784 7.16664 3.93159 7.46133 5.46662C7.861 5.56638 8.16324 5.6605 8.50825 5.76182C7.69921 4.35889 7.92404 3.45762 8.03034 2.04202Z" fill="#D60000" stroke="#67211F" stroke-width="0.0365292"/>
<path d="M7.58263 2.02012L7.38328 2.00525L7.34341 2.28782L7.58263 2.02012Z" fill="#398F00" stroke="#67211F" stroke-width="0.00737995"/>
<path d="M7.25662 3.06105L8.00318 2.24024L8.01104 2.05703L7.57882 2.02039L7.34307 2.28422L7.25662 3.06105Z" fill="#FF7F00" stroke="#67211F" stroke-width="0.00737995"/>
<path d="M7.74283 2.5185C7.74283 2.5185 7.50445 2.26445 7.42063 2.19604L7.34204 2.28399L7.26346 3.05349C7.37872 2.92402 7.74283 2.5185 7.74283 2.5185Z" fill="#D60000" stroke="#67211F" stroke-width="0.00737995"/>
<path d="M7.97199 3.1265C7.9728 2.81024 7.98061 2.61411 8.00342 2.23975L7.26473 3.05321C7.23842 3.37593 7.23215 3.55395 7.22543 3.86668L7.97199 3.1265Z" fill="#007FFF" stroke="#67211F" stroke-width="0.00590396"/>
<path d="M7.79124 3.30262L7.4219 2.87756L7.26473 3.05345C7.24422 3.37188 7.23439 3.54857 7.22543 3.86693L7.79124 3.30262Z" fill="#398F00" stroke="#67211F" stroke-width="0.00590396"/>
<path d="M7.82268 4.0426L7.46119 3.6322L7.22543 3.86672C7.23329 4.19651 7.25687 4.34308 7.28047 4.61424L7.82268 4.0426Z" fill="#D60000" stroke="#67211F" stroke-width="0.00590396"/>
<path d="M7.79083 4.87818L7.42934 4.46045L7.28003 4.61435C7.3429 4.95147 7.35861 5.03941 7.42148 5.28858L7.79083 4.87818Z" fill="#007FFF" stroke="#67211F" stroke-width="0.00590396"/>
<path d="M7.88827 5.57634L7.53292 5.16394L7.42236 5.28913L7.47228 5.45325L7.88827 5.57634Z" fill="#FF7F00" stroke="#67211F" stroke-width="0.00590396"/>
<path d="M8.01243 3.84467C7.98447 3.5983 7.97392 3.44633 7.97314 3.12646L7.46234 3.63214C7.6981 3.89597 7.65094 3.83734 7.82383 4.04254L8.01243 3.84467Z" fill="#FF7F00" stroke="#67211F" stroke-width="0.00590396"/>
<path d="M8.10698 4.52653C8.07555 4.29934 8.03626 4.18208 8.01268 3.85229L7.43115 4.46057C7.66121 4.74041 7.61546 4.67756 7.79264 4.87091L8.10698 4.52653Z" fill="#398F00" stroke="#67211F" stroke-width="0.00590396"/>
<path d="M8.28502 5.17886C8.2143 4.93701 8.175 4.83441 8.10428 4.52661L7.53061 5.1642C7.71135 5.38406 7.71135 5.38406 7.8921 5.58193L8.28502 5.17886Z" fill="#D60000" stroke="#67211F" stroke-width="0.00590396"/>
<path d="M8.51072 5.74682C8.32997 5.53429 8.34132 5.54481 8.15272 5.31763L7.88257 5.5697C8.21408 5.65272 8.20828 5.65088 8.20828 5.65088L8.51072 5.74682Z" fill="#398F00" stroke="#67211F" stroke-width="0.00590396"/>
<path d="M8.28686 5.17847L8.15262 5.31839L8.50008 5.73079H8.50797L8.28686 5.17847Z" fill="#007FFF" stroke="#67211F" stroke-width="0.00590396"/>
<path d="M8.05122 4.19089L8.01173 3.8595L7.96435 3.90368L7.89328 3.97733L8.05122 4.19089Z" fill="#007FFF" stroke="#67211F" stroke-width="0.00590396"/>
<g filter="url(#filter0_d_1206_12567)">
<path d="M9.04881 2.94594L9.17567 2.75888C9.17567 2.75888 9.3135 3.30751 9.21728 3.65847C9.14076 3.93754 8.85867 4.30169 8.85867 4.30169C8.72955 4.61612 8.73782 4.78857 8.8078 5.09359L8.55034 5.38234C8.55034 5.38234 8.47073 4.98253 8.3421 4.78644C8.15548 4.50196 7.84756 4.57932 7.65767 4.32928C7.37651 3.95905 7.52229 3.17741 7.52229 3.17741L7.75042 3.36581C7.75042 3.36581 7.88868 3.1712 8.0238 2.8919C8.07219 2.79188 8.12017 2.681 8.16126 2.5643C8.22407 2.38592 8.294 2.09906 8.294 2.09906L8.42589 2.3565L8.53195 2.21961C8.53195 2.21961 8.5412 2.41694 8.58034 2.52728C8.67017 2.78053 8.77333 2.87272 9.04881 2.94594Z" fill="url(#paint3_linear_1206_12567)"/>
<path d="M9.04881 2.94594C9.09835 2.87289 9.17567 2.75888 9.17567 2.75888C9.17567 2.75888 9.3135 3.30751 9.21728 3.65847C9.14076 3.93754 8.85867 4.30169 8.85867 4.30169C8.72955 4.61612 8.73782 4.78857 8.8078 5.09359L8.55034 5.38234C8.55034 5.38234 8.47073 4.98253 8.3421 4.78644C8.15548 4.50196 7.84756 4.57932 7.65767 4.32928C7.37651 3.95905 7.52229 3.17741 7.52229 3.17741L7.75042 3.36581M9.04881 2.94594C8.77333 2.87272 8.67017 2.78053 8.58034 2.52728C8.5412 2.41694 8.53195 2.21961 8.53195 2.21961L8.42589 2.3565M9.04881 2.94594C9.04125 2.97241 8.81968 3.42902 8.81968 3.42902C8.81968 3.42902 8.64641 3.11257 8.5685 2.89797M7.75042 3.36581C7.88094 3.509 7.90058 3.60257 7.93756 3.76847L8.10694 3.17482L8.36539 3.53927L8.41053 2.74594L8.5685 2.89797M7.75042 3.36581C7.75042 3.36581 7.88868 3.1712 8.0238 2.8919C8.07219 2.79188 8.12017 2.681 8.16126 2.5643C8.22407 2.38592 8.294 2.09906 8.294 2.09906L8.42589 2.3565M8.42589 2.3565C8.42589 2.3565 8.49359 2.69163 8.5685 2.89797" stroke="#F8F7FC" stroke-width="0.0365292"/>
</g>
<defs>
<filter id="filter0_d_1206_12567" x="7.46609" y="2.04663" width="1.93065" height="3.4873" filterUnits="userSpaceOnUse" color-interpolation-filters="sRGB">
<feFlood flood-opacity="0" result="BackgroundImageFix"/>
<feColorMatrix in="SourceAlpha" type="matrix" values="0 0 0 0 0 0 0 0 0 0 0 0 0 0 0 0 0 0 127 0" result="hardAlpha"/>
<feOffset dx="0.0737995" dy="0.0590396"/>
<feGaussianBlur stdDeviation="0.0265678"/>
<feComposite in2="hardAlpha" operator="out"/>
<feColorMatrix type="matrix" values="0 0 0 0 0 0 0 0 0 0 0 0 0 0 0 0 0 0 0.25 0"/>
<feBlend mode="normal" in2="BackgroundImageFix" result="effect1_dropShadow_1206_12567"/>
<feBlend mode="normal" in="SourceGraphic" in2="effect1_dropShadow_1206_12567" result="shape"/>
</filter>
<radialGradient id="paint0_radial_1206_12567" cx="0" cy="0" r="1" gradientUnits="userSpaceOnUse" gradientTransform="translate(9.99381 9.75959) scale(7.11802 7.11799)">
<stop offset="0.5" stop-color="#FDE030"/>
<stop offset="0.9188" stop-color="#F7C02B"/>
<stop offset="1" stop-color="#F4A223"/>
</radialGradient>
<radialGradient id="paint1_radial_1206_12567" cx="0" cy="0" r="1" gradientUnits="userSpaceOnUse" gradientTransform="translate(14.747 10.8662) scale(2.37108 2.07329)">
<stop stop-color="#ED7770"/>
<stop offset="0.9" stop-color="#ED7770" stop-opacity="0"/>
</radialGradient>
<radialGradient id="paint2_radial_1206_12567" cx="0" cy="0" r="1" gradientUnits="userSpaceOnUse" gradientTransform="translate(5.47761 11.2016) scale(2.37108 2.07329)">
<stop stop-color="#ED7770"/>
<stop offset="0.9" stop-color="#ED7770" stop-opacity="0"/>
</radialGradient>
<linearGradient id="paint3_linear_1206_12567" x1="8.71583" y1="2.2052" x2="7.95411" y2="5.23231" gradientUnits="userSpaceOnUse">
<stop stop-color="#C9C9C9"/>
<stop offset="1" stop-color="#939297"/>
</linearGradient>
</defs>
</svg>
