<svg width="19" height="18" viewBox="0 0 19 18" fill="none" xmlns="http://www.w3.org/2000/svg">
<path d="M9.92209 16.8925C6.43554 16.8925 2.67407 14.7056 2.67407 9.90695C2.67407 5.10828 6.43554 2.92139 9.92209 2.92139C11.8591 2.92139 13.6461 3.55871 14.9707 4.72089C16.4078 5.99553 17.1701 7.79503 17.1701 9.90695C17.1701 12.0189 16.4078 13.8059 14.9707 15.0805C13.6461 16.2427 11.8466 16.8925 9.92209 16.8925Z" fill="url(#paint0_radial_1200_6509)"/>
<path d="M11.0798 12.6613C11.2935 12.4726 11.4272 12.2114 11.4547 11.9277C11.4784 11.4778 11.3634 11.3229 11.216 11.1267C10.8773 10.6706 9.91633 10.7793 9.91633 10.7793C9.6664 10.7893 9.36148 10.9117 9.39772 11.2092C9.44646 11.3779 9.58392 11.5066 9.75638 11.5453C10.1313 11.6365 10.6774 11.5453 10.6924 11.9315C10.7099 12.3638 10.045 12.1814 9.99256 12.6438C9.94008 13.1061 10.6924 13.0424 10.6924 13.3573C10.6924 13.5985 10.4424 13.6397 10.1838 13.6947C9.96007 13.741 9.53019 13.8109 9.4952 14.0696C9.46021 14.3283 9.60892 14.6407 10.2138 14.5495C11.1647 14.4058 11.4847 13.8847 11.4847 13.5648C11.4909 13.2186 11.3422 12.8874 11.0798 12.6613Z" fill="#422B0D"/>
<path d="M8.09705 9.15701L8.07831 9.13202L8.02457 9.06329L7.95834 8.99206C7.93085 8.96081 7.89836 8.93082 7.86712 8.89833C7.83588 8.86584 7.79714 8.8346 7.76215 8.80836C7.72966 8.78336 7.69466 8.75962 7.65718 8.74088C7.63218 8.72713 7.60469 8.71588 7.57595 8.70963C7.5672 8.70838 7.55845 8.70838 7.5497 8.70963C7.5497 8.70963 7.54221 8.70963 7.53846 8.70963H7.52846C7.54346 8.70963 7.49472 8.70963 7.5622 8.70963H7.49347C7.47472 8.70963 7.48722 8.70963 7.49347 8.70963H7.50347C7.50347 8.70963 7.51346 8.70963 7.50347 8.70963H7.48972C7.46098 8.71588 7.43349 8.72588 7.40724 8.74088C7.371 8.76087 7.33476 8.78336 7.30227 8.80836C7.26603 8.83585 7.23104 8.86584 7.19855 8.89833C7.13232 8.96206 7.07358 9.0233 7.03609 9.07203L6.97111 9.14701L6.94237 9.18075C6.76242 9.38195 6.45875 9.41444 6.24006 9.25698C6.1001 9.15951 6.02887 8.99081 6.05636 8.8221C6.05636 8.8221 6.06511 8.77212 6.08885 8.68339C6.12634 8.55718 6.17883 8.43471 6.24506 8.31974C6.35128 8.13229 6.49499 7.96859 6.66745 7.83863C6.78116 7.75115 6.90738 7.68117 7.04234 7.63243C7.07983 7.61744 7.11857 7.60619 7.15731 7.59619C7.19855 7.5837 7.23979 7.57495 7.28228 7.56745L7.35851 7.5562L7.42224 7.54871H7.49097H7.58969H7.65343C7.69591 7.54871 7.73715 7.55995 7.77839 7.5662C7.85837 7.57995 7.93835 7.60119 8.01458 7.62993C8.14954 7.67867 8.27576 7.74865 8.38948 7.83613C8.56193 7.96609 8.70564 8.12979 8.81186 8.31724C8.8506 8.38222 8.88434 8.45096 8.91183 8.52094C8.93558 8.57717 8.95557 8.6334 8.97182 8.69214C8.98056 8.72213 8.98806 8.75212 8.99181 8.78211V8.81335C9.0293 9.06828 8.85185 9.30572 8.59692 9.34321C8.59067 9.34446 8.58442 9.34446 8.57817 9.34571C8.39572 9.37195 8.21327 9.29947 8.09705 9.15701Z" fill="#422B0D"/>
<path d="M13.0299 9.15701L13.0099 9.13202L12.9561 9.06329L12.8899 8.99206C12.8624 8.96081 12.8299 8.93082 12.7987 8.89833C12.7674 8.86584 12.7287 8.8346 12.6937 8.80836C12.6612 8.78336 12.6262 8.75962 12.5887 8.74088C12.5637 8.72713 12.5362 8.71588 12.5075 8.70963C12.4987 8.70838 12.49 8.70838 12.4813 8.70963C12.4813 8.70963 12.4738 8.70963 12.47 8.70963H12.46C12.475 8.70963 12.4263 8.70963 12.4937 8.70963H12.425C12.4063 8.70963 12.4188 8.70963 12.425 8.70963H12.435C12.435 8.70963 12.445 8.70963 12.435 8.70963H12.4213C12.3925 8.71588 12.365 8.72588 12.3388 8.74088C12.3026 8.75962 12.2676 8.78336 12.2351 8.80836C12.1976 8.83585 12.1626 8.86584 12.1301 8.89833C12.0639 8.96206 12.0051 9.0233 11.9676 9.07203L11.9027 9.14701L11.8752 9.18075C11.694 9.38195 11.3916 9.41444 11.1716 9.25698C11.0316 9.15951 10.9604 8.99081 10.9879 8.8221C10.9879 8.8221 10.9967 8.77212 11.0217 8.68339C11.0591 8.55593 11.1104 8.43346 11.1779 8.31974C11.2841 8.13229 11.4265 7.96859 11.599 7.83863C11.7127 7.75115 11.8389 7.68117 11.9739 7.63243C12.0114 7.61744 12.0501 7.60619 12.0889 7.59619C12.1301 7.5837 12.1713 7.57495 12.2138 7.56745L12.2913 7.5562L12.3538 7.54871H12.4225H12.5212H12.585C12.6275 7.54871 12.6687 7.55995 12.7099 7.5662C12.7912 7.57995 12.8699 7.60119 12.9461 7.62993C13.0811 7.67867 13.2073 7.74865 13.321 7.83613C13.4935 7.96609 13.6372 8.12979 13.7434 8.31724C13.7821 8.38222 13.8159 8.45096 13.8434 8.52094C13.8671 8.57592 13.8871 8.63216 13.9034 8.68964C13.9121 8.71963 13.9196 8.74962 13.9234 8.77961V8.81086C13.9633 9.06578 13.7884 9.30447 13.5335 9.34446C13.5297 9.34446 13.526 9.34571 13.5222 9.34571C13.336 9.37695 13.1473 9.30447 13.0299 9.15701Z" fill="#422B0D"/>
<path d="M15.9077 5.75635C16.5737 6.83105 16.9212 8.11069 16.9212 9.53405C16.9212 11.646 16.1589 13.433 14.7218 14.7076C13.3971 15.8698 11.5976 16.5196 9.67314 16.5196C7.41625 16.5196 5.0494 15.6011 3.65228 13.6529C4.99692 15.8598 7.52622 16.8945 9.92307 16.8945C11.8475 16.8945 13.647 16.2447 14.9717 15.0825C16.4088 13.8079 17.1711 12.0209 17.1711 9.90895C17.1711 8.31689 16.7375 6.90228 15.9077 5.75635Z" fill="#EB8F00"/>
<path d="M6.0906 1.30043H6.5835C6.5835 1.30043 8.60811 1.02484 9.97724 1.03701C11.2823 1.04861 13.2013 1.30043 13.2013 1.30043H13.977C14.7667 2.60497 15.3342 3.94463 15.5944 5.32076C13.0433 4.59468 9.97724 6.12934 9.97724 6.12934C9.97724 6.12934 6.86517 4.62146 4.38467 5.16341C4.78172 3.7547 5.27106 2.47633 6.0906 1.30043Z" fill="#7F2125"/>
<path d="M6.0906 1.30043H6.5835C6.5835 1.30043 8.60811 1.02484 9.97724 1.03701C11.2823 1.04861 13.2013 1.30043 13.2013 1.30043H13.977M6.0906 1.30043C5.27106 2.47633 4.78172 3.7547 4.38467 5.16341C6.86517 4.62146 9.97724 6.12935 9.97724 6.12935C9.97724 6.12935 13.0433 4.59468 15.5944 5.32076C15.3342 3.94463 14.7667 2.60497 13.977 1.30043M6.0906 1.30043C6.73173 1.99705 7.64513 1.55945 9.97724 2.09553C12.0887 1.57565 13.1054 2.03155 13.977 1.30043" stroke="#67211F" stroke-width="0.0582032"/>
<path d="M9.99628 6.10656L10.0038 2.09899C11.5913 1.61091 12.7965 1.99196 13.9875 1.3241C14.5062 2.12207 15.3642 3.61623 15.6049 5.30927C13.5432 4.77817 11.3633 5.47927 9.99628 6.10656Z" fill="#67211F" stroke="#67211F" stroke-width="0.0365292"/>
<path d="M7.27064 1.75202C6.9102 1.51047 6.57203 1.64136 6.58685 1.29443L6.12259 1.30919C6.48446 1.69781 7.01947 1.69679 7.27064 1.75202Z" fill="#67211F"/>
<path d="M12.6381 1.70785C12.9986 1.46874 13.2871 1.62321 13.2723 1.27979H13.9836C13.6218 1.66447 12.8893 1.65318 12.6381 1.70785Z" fill="#67211F" fill-opacity="0.56"/>
<path d="M10.0483 1.33873L9.96737 2.05107L10.116 2.04081L10.0483 1.33873Z" fill="#67211F" stroke="#67211F" stroke-width="0.0885594"/>
<path d="M8.1015 1.83328C7.83943 1.81862 7.68165 1.80396 7.465 1.78931C7.33023 3.3391 7.2785 3.72285 7.5593 5.25788C7.94014 5.35764 8.22813 5.45176 8.55689 5.55308C7.78597 4.15015 8.0002 3.24888 8.1015 1.83328Z" fill="#D60000" stroke="#67211F" stroke-width="0.0365292"/>
<path d="M7.67826 1.81175L7.48831 1.79688L7.45032 2.07945L7.67826 1.81175Z" fill="#398F00" stroke="#67211F" stroke-width="0.00737995"/>
<path d="M7.36661 2.85219L8.07798 2.03138L8.08547 1.84817L7.67362 1.81152L7.44898 2.07535L7.36661 2.85219Z" fill="#FF7F00" stroke="#67211F" stroke-width="0.00737995"/>
<path d="M7.83022 2.30976C7.83022 2.30976 7.60308 2.05571 7.52321 1.9873L7.44833 2.07525L7.37344 2.84475C7.48327 2.71528 7.83022 2.30976 7.83022 2.30976Z" fill="#D60000" stroke="#67211F" stroke-width="0.00737995"/>
<path d="M8.04777 2.918C8.04854 2.60174 8.05598 2.40562 8.07772 2.03125L7.37384 2.84472C7.34877 3.16744 7.34279 3.34546 7.3364 3.65818L8.04777 2.918Z" fill="#007FFF" stroke="#67211F" stroke-width="0.00590396"/>
<path d="M7.87554 3.09388L7.5236 2.66882L7.37384 2.84471C7.3543 3.16314 7.34493 3.33983 7.3364 3.65819L7.87554 3.09388Z" fill="#398F00" stroke="#67211F" stroke-width="0.00590396"/>
<path d="M7.90549 3.83411L7.56104 3.42371L7.3364 3.65822C7.34388 3.98801 7.36635 4.13458 7.38884 4.40574L7.90549 3.83411Z" fill="#D60000" stroke="#67211F" stroke-width="0.00590396"/>
<path d="M7.87479 4.66932L7.53034 4.25159L7.38806 4.40549C7.44797 4.7426 7.46294 4.83055 7.52285 5.07972L7.87479 4.66932Z" fill="#007FFF" stroke="#67211F" stroke-width="0.00590396"/>
<path d="M7.96852 5.3676L7.62991 4.9552L7.52457 5.08039L7.57213 5.24451L7.96852 5.3676Z" fill="#FF7F00" stroke="#67211F" stroke-width="0.00590396"/>
<path d="M8.08286 3.63593C8.05621 3.38956 8.04615 3.23759 8.04541 2.91772L7.55869 3.4234C7.78333 3.68723 7.7384 3.6286 7.90314 3.8338L8.08286 3.63593Z" fill="#FF7F00" stroke="#67211F" stroke-width="0.00590396"/>
<path d="M8.17441 4.31791C8.14445 4.09072 8.10701 3.97346 8.08455 3.64368L7.53043 4.25195C7.74964 4.53179 7.70605 4.46894 7.87488 4.66229L8.17441 4.31791Z" fill="#398F00" stroke="#67211F" stroke-width="0.00590396"/>
<path d="M8.34871 4.97012C8.28132 4.72827 8.24388 4.62567 8.17649 4.31787L7.62985 4.95546C7.80208 5.17532 7.80208 5.17532 7.97431 5.37319L8.34871 4.97012Z" fill="#D60000" stroke="#67211F" stroke-width="0.00590396"/>
<path d="M8.56378 5.54066C8.39071 5.32709 8.40158 5.33767 8.22099 5.10938L7.96231 5.36268C8.27974 5.4461 8.27418 5.44425 8.27418 5.44425L8.56378 5.54066Z" fill="#398F00" stroke="#67211F" stroke-width="0.00590396"/>
<path d="M8.34859 4.96997L8.22067 5.10989L8.55176 5.5223H8.55928L8.34859 4.96997Z" fill="#007FFF" stroke="#67211F" stroke-width="0.00590396"/>
<path d="M8.12355 3.9824L8.08592 3.651L8.04077 3.69519L7.97305 3.76883L8.12355 3.9824Z" fill="#007FFF" stroke="#67211F" stroke-width="0.00590396"/>
<g filter="url(#filter0_d_1200_6509)">
<path d="M9.07361 2.73732L9.1945 2.55026C9.1945 2.55026 9.32583 3.09889 9.23414 3.44985C9.16124 3.72892 8.89244 4.09308 8.89244 4.09308C8.76941 4.4075 8.77728 4.57995 8.84397 4.88497L8.59863 5.17372C8.59863 5.17372 8.52278 4.77391 8.40021 4.57783C8.22238 4.29334 7.92897 4.37071 7.74803 4.12066C7.48013 3.75043 7.61903 2.96879 7.61903 2.96879L7.83642 3.1572C7.83642 3.1572 7.96816 2.96258 8.09691 2.68328C8.14302 2.58326 8.18874 2.47238 8.22789 2.35568C8.28774 2.1773 8.35438 1.89044 8.35438 1.89044L8.48005 2.14788L8.58111 2.011C8.58111 2.011 8.58993 2.20832 8.62722 2.31867C8.71282 2.57191 8.81111 2.6641 9.07361 2.73732Z" fill="url(#paint1_linear_1200_6509)"/>
<path d="M9.07361 2.73732C9.12082 2.66427 9.1945 2.55026 9.1945 2.55026C9.1945 2.55026 9.32583 3.09889 9.23414 3.44985C9.16124 3.72892 8.89244 4.09308 8.89244 4.09308C8.76941 4.4075 8.77728 4.57995 8.84397 4.88497L8.59863 5.17372C8.59863 5.17372 8.52278 4.77391 8.40021 4.57783C8.22238 4.29334 7.92897 4.37071 7.74803 4.12066C7.48013 3.75043 7.61903 2.96879 7.61903 2.96879L7.83642 3.1572M9.07361 2.73732C8.81111 2.6641 8.71282 2.57191 8.62722 2.31867C8.58993 2.20832 8.58111 2.011 8.58111 2.011L8.48005 2.14788M9.07361 2.73732C9.06642 2.76379 8.85528 3.2204 8.85528 3.2204C8.85528 3.2204 8.69018 2.90395 8.61594 2.68935M7.83642 3.1572C7.96078 3.30038 7.97949 3.39395 8.01474 3.55985L8.17614 2.9662L8.4224 3.33065L8.46541 2.53732L8.61594 2.68935M7.83642 3.1572C7.83642 3.1572 7.96816 2.96258 8.09691 2.68328C8.14302 2.58326 8.18874 2.47238 8.22789 2.35568C8.28774 2.1773 8.35438 1.89044 8.35438 1.89044L8.48005 2.14788M8.48005 2.14788C8.48005 2.14788 8.54456 2.48301 8.61594 2.68935" stroke="#F8F7FC" stroke-width="0.0365292"/>
</g>
<defs>
<filter id="filter0_d_1200_6509" x="7.56473" y="1.83606" width="1.84718" height="3.49072" filterUnits="userSpaceOnUse" color-interpolation-filters="sRGB">
<feFlood flood-opacity="0" result="BackgroundImageFix"/>
<feColorMatrix in="SourceAlpha" type="matrix" values="0 0 0 0 0 0 0 0 0 0 0 0 0 0 0 0 0 0 127 0" result="hardAlpha"/>
<feOffset dx="0.0737995" dy="0.0590396"/>
<feGaussianBlur stdDeviation="0.0265678"/>
<feComposite in2="hardAlpha" operator="out"/>
<feColorMatrix type="matrix" values="0 0 0 0 0 0 0 0 0 0 0 0 0 0 0 0 0 0 0.25 0"/>
<feBlend mode="normal" in2="BackgroundImageFix" result="effect1_dropShadow_1200_6509"/>
<feBlend mode="normal" in="SourceGraphic" in2="effect1_dropShadow_1200_6509" result="shape"/>
</filter>
<radialGradient id="paint0_radial_1200_6509" cx="0" cy="0" r="1" gradientUnits="userSpaceOnUse" gradientTransform="translate(9.92209 9.90695) scale(7.11802 7.11799)">
<stop offset="0.5" stop-color="#FDE030"/>
<stop offset="0.92" stop-color="#F7C02B"/>
<stop offset="1" stop-color="#F4A223"/>
</radialGradient>
<linearGradient id="paint1_linear_1200_6509" x1="8.75632" y1="1.99658" x2="7.96173" y2="5.00553" gradientUnits="userSpaceOnUse">
<stop stop-color="#C9C9C9"/>
<stop offset="1" stop-color="#939297"/>
</linearGradient>
</defs>
</svg>
