<svg width="19" height="18" viewBox="0 0 19 18" fill="none" xmlns="http://www.w3.org/2000/svg">
<path d="M9.98682 16.894C6.50027 16.894 2.7388 14.7071 2.7388 9.90841C2.7388 5.10974 6.50027 2.92285 9.98682 2.92285C11.9238 2.92285 13.7108 3.56017 15.0354 4.72235C16.4725 5.997 17.2348 7.7965 17.2348 9.90841C17.2348 12.0203 16.4725 13.8073 15.0354 15.082C13.7108 16.2442 11.9113 16.894 9.98682 16.894Z" fill="url(#paint0_radial_1200_6213)"/>
<path d="M15.9711 5.75586C16.6372 6.83056 16.9846 8.11021 16.9846 9.53356C16.9846 11.6455 16.2223 13.4325 14.7852 14.7071C13.4605 15.8693 11.661 16.5191 9.73657 16.5191C7.47968 16.5191 5.11283 15.6006 3.71571 13.6524C5.06035 15.8593 7.58965 16.894 9.9865 16.894C11.911 16.894 13.7105 16.2442 15.0351 15.082C16.4722 13.8074 17.2345 12.0204 17.2345 9.90846C17.2345 8.3164 16.8009 6.90179 15.9711 5.75586Z" fill="#EB8F00"/>
<path d="M9.91089 13.497C8.77745 13.5058 7.69525 13.0297 6.9367 12.1874C6.87922 12.1212 6.86547 12.0274 6.90171 11.9475C6.93795 11.8662 7.01793 11.8137 7.10666 11.8125C7.14665 11.8125 7.18663 11.8237 7.22162 11.8437C7.82396 12.1899 8.83118 12.6198 9.91089 12.6198H9.92838C11.0068 12.6198 12.0153 12.1899 12.6164 11.8437C12.6514 11.8237 12.6914 11.8125 12.7314 11.8125C12.8201 11.8137 12.9001 11.8662 12.9363 11.9475C12.9738 12.0274 12.9601 12.1212 12.9013 12.1874C12.1428 13.0297 11.0581 13.507 9.92464 13.497" fill="#422B0D"/>
<path d="M8.16447 9.15713L8.14572 9.13214L8.09199 9.06341L8.02576 8.99218C7.99826 8.96094 7.96577 8.93094 7.93453 8.89845C7.90329 8.86596 7.86455 8.83472 7.82956 8.80848C7.79707 8.78348 7.76208 8.75974 7.72459 8.741C7.6996 8.72725 7.6721 8.716 7.64336 8.70976C7.63461 8.70851 7.62587 8.70851 7.61712 8.70976C7.61712 8.70976 7.60962 8.70976 7.60587 8.70976H7.59587C7.61087 8.70976 7.56213 8.70976 7.62961 8.70976H7.56088C7.54214 8.70976 7.55463 8.70976 7.56088 8.70976H7.57088C7.57088 8.70976 7.58088 8.70976 7.57088 8.70976H7.55713C7.52839 8.716 7.5009 8.726 7.47466 8.741C7.43842 8.76099 7.40218 8.78348 7.36969 8.80848C7.33345 8.83597 7.29846 8.86596 7.26596 8.89845C7.19973 8.96219 7.141 9.02342 7.10351 9.07215L7.03853 9.14713L7.00978 9.18087C6.82983 9.38207 6.52617 9.41456 6.30748 9.2571C6.16751 9.15963 6.09628 8.99093 6.12378 8.82222C6.12378 8.82222 6.13252 8.77224 6.15627 8.68351C6.19376 8.5573 6.24624 8.43483 6.31247 8.31986C6.4187 8.13242 6.56241 7.96871 6.73486 7.83875C6.84858 7.75127 6.97479 7.68129 7.10976 7.63255C7.14725 7.61756 7.18599 7.60631 7.22473 7.59632C7.26596 7.58382 7.3072 7.57507 7.34969 7.56757L7.42592 7.55633L7.48965 7.54883H7.55838H7.65711H7.72084C7.76333 7.54883 7.80457 7.56007 7.84581 7.56632C7.92578 7.58007 8.00576 7.60131 8.08199 7.63006C8.21695 7.67879 8.34317 7.74877 8.45689 7.83625C8.62934 7.96621 8.77305 8.12992 8.87927 8.31736C8.91801 8.38235 8.95175 8.45108 8.97925 8.52106C9.00299 8.57729 9.02298 8.63353 9.03923 8.69226C9.04798 8.72225 9.05547 8.75224 9.05922 8.78224V8.81348C9.09671 9.06841 8.91926 9.30584 8.66433 9.34333C8.65808 9.34458 8.65183 9.34458 8.64559 9.34583C8.46314 9.37207 8.28069 9.29959 8.16447 9.15713Z" fill="#422B0D"/>
<path d="M13.0951 9.15713L13.0751 9.13214L13.0214 9.06341L12.9551 8.99218C12.9276 8.96094 12.8952 8.93094 12.8639 8.89845C12.8327 8.86596 12.7939 8.83472 12.7589 8.80848C12.7264 8.78348 12.6915 8.75974 12.654 8.741C12.629 8.72725 12.6015 8.716 12.5727 8.70976C12.564 8.70851 12.5552 8.70851 12.5465 8.70976C12.5465 8.70976 12.539 8.70976 12.5353 8.70976H12.5253C12.5403 8.70976 12.4915 8.70976 12.559 8.70976H12.4903C12.4715 8.70976 12.484 8.70976 12.4903 8.70976H12.5003C12.5003 8.70976 12.5103 8.70976 12.5003 8.70976H12.4865C12.4578 8.716 12.4303 8.726 12.404 8.741C12.3678 8.75974 12.3328 8.78348 12.3003 8.80848C12.2628 8.83597 12.2278 8.86596 12.1953 8.89845C12.1291 8.96219 12.0704 9.02342 12.0329 9.07215L11.9679 9.14713L11.9404 9.18087C11.7592 9.38207 11.4568 9.41456 11.2369 9.2571C11.0969 9.15963 11.0257 8.99093 11.0532 8.82222C11.0532 8.82222 11.0619 8.77224 11.0869 8.68351C11.1244 8.55605 11.1756 8.43358 11.2431 8.31986C11.3493 8.13242 11.4918 7.96871 11.6642 7.83875C11.778 7.75127 11.9042 7.68129 12.0391 7.63255C12.0766 7.61756 12.1154 7.60631 12.1541 7.59632C12.1953 7.58382 12.2366 7.57507 12.2791 7.56757L12.3566 7.55633L12.419 7.54883H12.4878H12.5865H12.6502C12.6927 7.54883 12.7339 7.56007 12.7752 7.56632C12.8564 7.58007 12.9351 7.60131 13.0114 7.63006C13.1463 7.67879 13.2726 7.74877 13.3863 7.83625C13.5587 7.96621 13.7024 8.12992 13.8087 8.31736C13.8474 8.38235 13.8811 8.45108 13.9086 8.52106C13.9324 8.57604 13.9524 8.63228 13.9686 8.68976C13.9774 8.71975 13.9849 8.74974 13.9886 8.77974V8.81098C14.0286 9.06591 13.8536 9.30459 13.5987 9.34458C13.595 9.34458 13.5912 9.34583 13.5875 9.34583C13.4013 9.37707 13.2126 9.30459 13.0951 9.15713Z" fill="#422B0D"/>
<path d="M6.10101 2.0529H6.59391C6.59391 2.0529 8.61852 1.82026 9.98765 1.83053C11.2927 1.84032 13.2117 2.0529 13.2117 2.0529H13.9874C14.7771 3.15413 15.3446 4.28501 15.6048 5.44668C13.0537 4.83375 9.98765 6.12925 9.98765 6.12925C9.98765 6.12925 6.87558 4.85636 4.39508 5.31386C4.79212 4.12469 5.28146 3.04554 6.10101 2.0529Z" fill="#7F2125"/>
<path d="M6.10101 2.0529H6.59391C6.59391 2.0529 8.61852 1.82026 9.98765 1.83053C11.2927 1.84032 13.2117 2.0529 13.2117 2.0529H13.9874M6.10101 2.0529C5.28146 3.04554 4.79212 4.12469 4.39508 5.31386C6.87558 4.85636 9.98765 6.12925 9.98765 6.12925C9.98765 6.12925 13.0537 4.83375 15.6048 5.44668C15.3446 4.28501 14.7771 3.15413 13.9874 2.0529M6.10101 2.0529C6.74214 2.64095 7.65554 2.27155 9.98765 2.72409C12.0991 2.28522 13.1158 2.67008 13.9874 2.0529" stroke="#67211F" stroke-width="0.0582032"/>
<path d="M10.0067 6.11015L10.0142 2.72713C11.6017 2.31511 12.807 2.63678 13.9979 2.073C14.5167 2.74662 15.3747 4.00791 15.6154 5.43711C13.5537 4.98878 11.3738 5.58061 10.0067 6.11015Z" fill="#67211F" stroke="#67211F" stroke-width="0.0365292"/>
<path d="M7.28383 2.47956C6.92338 2.238 6.58521 2.3689 6.60004 2.02197L6.13577 2.03673C6.49764 2.42535 7.03266 2.42433 7.28383 2.47956Z" fill="#67211F"/>
<path d="M12.6494 2.43515C13.0098 2.19603 13.2983 2.35051 13.2835 2.00708H13.9949C13.633 2.39177 12.9006 2.38047 12.6494 2.43515Z" fill="#67211F" fill-opacity="0.56"/>
<path d="M10.1244 2.13217L10.0458 2.84478L10.1945 2.83402L10.1244 2.13217Z" fill="#67211F" stroke="#67211F" stroke-width="0.0885594"/>
<path d="M8.06812 2.45754C7.80576 2.45436 7.64762 2.4474 7.43066 2.44257C7.34471 3.78939 7.30509 4.12356 7.63398 5.44251C8.01771 5.51506 8.30847 5.5861 8.64019 5.66191C7.82566 4.47512 8.01141 3.68696 8.06812 2.45754Z" fill="#D60000" stroke="#67211F" stroke-width="0.0365292"/>
<path d="M7.64153 2.45419L7.45123 2.44821L7.42216 2.69426L7.64153 2.45419Z" fill="#398F00" stroke="#67211F" stroke-width="0.00737995"/>
<path d="M7.36313 3.36654L8.04822 2.63L8.04994 2.47109L7.63721 2.45431L7.42101 2.69091L7.36313 3.36654Z" fill="#FF7F00" stroke="#67211F" stroke-width="0.00737995"/>
<path d="M7.8097 2.87982C7.8097 2.87982 7.57471 2.66808 7.49274 2.61175L7.42068 2.69062L7.37004 3.35963C7.47573 3.24354 7.8097 2.87982 7.8097 2.87982Z" fill="#D60000" stroke="#67211F" stroke-width="0.00737995"/>
<path d="M8.0458 3.39861C8.03662 3.12474 8.0379 2.95465 8.04785 2.62971L7.37001 3.35962C7.3551 3.63996 7.35473 3.79433 7.35817 4.06534L8.0458 3.39861Z" fill="#007FFF" stroke="#67211F" stroke-width="0.00590396"/>
<path d="M7.87963 3.5571L7.51455 3.20182L7.37042 3.35956C7.36091 3.63598 7.3571 3.78931 7.35858 4.06528L7.87963 3.5571Z" fill="#398F00" stroke="#67211F" stroke-width="0.00590396"/>
<path d="M7.93153 4.19713L7.5744 3.85427L7.35727 4.06549C7.37513 4.35077 7.40219 4.47687 7.43319 4.71084L7.93153 4.19713Z" fill="#D60000" stroke="#67211F" stroke-width="0.00590396"/>
<path d="M7.92841 4.92143L7.57104 4.57223L7.4337 4.71065C7.50417 5.00038 7.5219 5.07598 7.58961 5.28956L7.92841 4.92143Z" fill="#007FFF" stroke="#67211F" stroke-width="0.00590396"/>
<path d="M8.04344 5.52298L7.69208 5.17818L7.59074 5.29041L7.64344 5.43079L8.04344 5.52298Z" fill="#FF7F00" stroke="#67211F" stroke-width="0.00590396"/>
<path d="M8.1069 4.01923C8.07252 3.80688 8.05769 3.67565 8.04689 3.39872L7.57639 3.85423C7.80918 4.07452 7.76244 4.02539 7.93352 4.19709L8.1069 4.01923Z" fill="#FF7F00" stroke="#67211F" stroke-width="0.00590396"/>
<path d="M8.21843 4.60608C8.18135 4.41045 8.14024 4.31028 8.10742 4.02554L7.57279 4.57235C7.80066 4.8067 7.75513 4.75386 7.92993 4.91514L8.21843 4.60608Z" fill="#398F00" stroke="#67211F" stroke-width="0.00590396"/>
<path d="M8.41053 5.16465C8.33558 4.95769 8.29493 4.87021 8.21791 4.60614L7.69168 5.17805C7.87071 5.36217 7.87071 5.36217 8.04905 5.52725L8.41053 5.16465Z" fill="#D60000" stroke="#67211F" stroke-width="0.00590396"/>
<path d="M8.64408 5.6508C8.46441 5.47216 8.47561 5.48093 8.28796 5.28981L8.03742 5.51852C8.35726 5.57924 8.35165 5.57784 8.35165 5.57784L8.64408 5.6508Z" fill="#398F00" stroke="#67211F" stroke-width="0.00590396"/>
<path d="M8.41076 5.16455L8.28733 5.29035L8.63117 5.63542L8.63868 5.63515L8.41076 5.16455Z" fill="#007FFF" stroke="#67211F" stroke-width="0.00590396"/>
<path d="M8.1577 4.32024L8.10921 4.03187L8.06506 4.07216L7.99906 4.13903L8.1577 4.32024Z" fill="#007FFF" stroke="#67211F" stroke-width="0.00590396"/>
<g filter="url(#filter0_d_1200_6213)">
<path d="M8.9576 3.33749L9.05624 3.18484C9.05624 3.18484 9.16342 3.63255 9.0886 3.91895C9.0291 4.14669 8.80975 4.44385 8.80975 4.44385C8.70935 4.70044 8.71577 4.84116 8.77019 5.09008L8.56999 5.32571C8.56999 5.32571 8.50809 4.99944 8.40807 4.83943C8.26295 4.60728 8.02352 4.67041 7.87586 4.46636C7.65724 4.16424 7.77059 3.52639 7.77059 3.52639L7.94799 3.68013C7.94799 3.68013 8.0555 3.52132 8.16056 3.2934C8.19819 3.21177 8.2355 3.12129 8.26745 3.02606C8.31629 2.88049 8.37067 2.6464 8.37067 2.6464L8.47322 2.85649L8.55569 2.74478C8.55569 2.74478 8.56289 2.90581 8.59332 2.99585C8.66317 3.20251 8.74339 3.27774 8.9576 3.33749Z" fill="url(#paint1_linear_1200_6213)"/>
<path d="M8.9576 3.33749C8.99612 3.27788 9.05624 3.18484 9.05624 3.18484C9.05624 3.18484 9.16342 3.63255 9.0886 3.91895C9.0291 4.14669 8.80975 4.44385 8.80975 4.44385C8.70935 4.70044 8.71577 4.84116 8.77019 5.09008L8.56999 5.32571C8.56999 5.32571 8.50809 4.99944 8.40807 4.83943C8.26295 4.60728 8.02352 4.67041 7.87586 4.46636C7.65724 4.16424 7.77059 3.52639 7.77059 3.52639L7.94799 3.68013M8.9576 3.33749C8.74339 3.27774 8.66317 3.20251 8.59332 2.99585C8.56289 2.90581 8.55569 2.74478 8.55569 2.74478L8.47322 2.85649M8.9576 3.33749C8.95172 3.35909 8.77943 3.73171 8.77943 3.73171C8.77943 3.73171 8.6447 3.47347 8.58412 3.29835M7.94799 3.68013C8.04947 3.79697 8.06474 3.87333 8.0935 4.00872L8.22521 3.52427L8.42618 3.82168L8.46128 3.17428L8.58412 3.29835M7.94799 3.68013C7.94799 3.68013 8.0555 3.52132 8.16056 3.2934C8.19819 3.21177 8.2355 3.12129 8.26745 3.02606C8.31629 2.88049 8.37067 2.6464 8.37067 2.6464L8.47322 2.85649M8.47322 2.85649C8.47322 2.85649 8.52586 3.12997 8.58412 3.29835" stroke="#F8F7FC" stroke-width="0.0365292"/>
</g>
<path d="M10.0139 0.242676C8.37688 0.242676 6.86198 0.375982 5.63019 0.602029C3.75885 0.94544 2.54089 1.50289 2.54089 2.13215C2.54089 3.17561 4.43787 4.27281 10.0139 4.27281C15.2824 4.27281 17.4806 3.17686 17.4806 2.13215C17.4806 1.50941 16.2928 0.957711 14.4598 0.613636C13.2178 0.380493 11.6795 0.242676 10.0139 0.242676ZM10.0139 2.92193C6.82472 2.92193 4.23793 2.672 4.23793 2.05717C4.23793 1.79104 4.72259 1.52117 5.53098 1.30065C6.59018 1.01171 8.20514 0.807519 10.0139 0.807519C11.8393 0.807519 13.4673 1.01714 14.5259 1.31195C15.3168 1.53219 15.7898 1.79998 15.7898 2.06342C15.7898 2.6795 13.198 2.92193 10.0139 2.92193Z" fill="#4FC3F7"/>
<defs>
<filter id="filter0_d_1200_6213" x="7.72292" y="2.59204" width="1.53746" height="2.88683" filterUnits="userSpaceOnUse" color-interpolation-filters="sRGB">
<feFlood flood-opacity="0" result="BackgroundImageFix"/>
<feColorMatrix in="SourceAlpha" type="matrix" values="0 0 0 0 0 0 0 0 0 0 0 0 0 0 0 0 0 0 127 0" result="hardAlpha"/>
<feOffset dx="0.0737995" dy="0.0590396"/>
<feGaussianBlur stdDeviation="0.0265678"/>
<feComposite in2="hardAlpha" operator="out"/>
<feColorMatrix type="matrix" values="0 0 0 0 0 0 0 0 0 0 0 0 0 0 0 0 0 0 0.25 0"/>
<feBlend mode="normal" in2="BackgroundImageFix" result="effect1_dropShadow_1200_6213"/>
<feBlend mode="normal" in="SourceGraphic" in2="effect1_dropShadow_1200_6213" result="shape"/>
</filter>
<radialGradient id="paint0_radial_1200_6213" cx="0" cy="0" r="1" gradientUnits="userSpaceOnUse" gradientTransform="translate(9.98682 9.9084) scale(7.11802 7.11799)">
<stop offset="0.5" stop-color="#FDE030"/>
<stop offset="0.92" stop-color="#F7C02B"/>
<stop offset="1" stop-color="#F4A223"/>
</radialGradient>
<linearGradient id="paint1_linear_1200_6213" x1="8.69867" y1="2.73302" x2="8.05025" y2="5.18846" gradientUnits="userSpaceOnUse">
<stop stop-color="#C9C9C9"/>
<stop offset="1" stop-color="#939297"/>
</linearGradient>
</defs>
</svg>
