<svg width="18" height="18" viewBox="0 0 18 18" fill="none" xmlns="http://www.w3.org/2000/svg">
<path d="M9.29701 16.7659C5.7869 16.7659 2 14.5642 2 9.7331C2 4.90199 5.7869 2.70032 9.29701 2.70032C11.2471 2.70032 13.0462 3.34195 14.3798 4.51198C15.8266 5.79524 16.594 7.60691 16.594 9.7331C16.594 11.8593 15.8266 13.6584 14.3798 14.9416C13.0462 16.1117 11.2345 16.7659 9.29701 16.7659Z" fill="url(#paint0_radial_1193_594)"/>
<path d="M15.3215 5.55609C15.9921 6.63806 16.3418 7.92635 16.3418 9.35933C16.3418 11.4855 15.5744 13.2846 14.1276 14.5679C12.794 15.7379 10.9823 16.3921 9.04483 16.3921C6.77269 16.3921 4.38984 15.4674 2.98328 13.506C4.337 15.7278 6.8834 16.7695 9.29645 16.7695C11.2339 16.7695 13.0456 16.1153 14.3792 14.9453C15.826 13.662 16.5935 11.8629 16.5935 9.73676C16.5935 8.13394 16.1569 6.70977 15.3215 5.55609Z" fill="#EB8F00"/>
<path d="M9.34831 12.7939C10.7071 12.7939 11.5877 13.7878 11.8268 14.2533C11.9148 14.4295 11.9148 14.5804 11.8394 14.6434C11.7588 14.6937 11.6557 14.6937 11.5752 14.6434C11.5349 14.627 11.4971 14.6056 11.4619 14.5804C10.8455 14.1376 10.1069 13.896 9.34831 13.8885C8.59218 13.8986 7.85493 14.1351 7.23469 14.5679C7.19946 14.593 7.16172 14.6144 7.12146 14.6308C7.04094 14.6811 6.93778 14.6811 6.85726 14.6308C6.78177 14.5553 6.78177 14.4169 6.86984 14.2408C7.10888 13.7878 7.98955 12.7939 9.34831 12.7939Z" fill="#422B0D"/>
<path d="M10.5692 11.1338C10.4446 10.9388 10.5012 10.6784 10.6962 10.5538C10.7289 10.5324 10.7654 10.5161 10.8032 10.5048C11.2284 10.3374 11.6813 10.2468 12.138 10.238C12.5947 10.2456 13.0476 10.3311 13.4766 10.4897C13.7044 10.5551 13.8365 10.7929 13.7698 11.0206C13.7597 11.0545 13.7459 11.0885 13.7283 11.1187C13.5999 11.3099 13.3584 11.3892 13.142 11.3125C12.8262 11.1917 12.4928 11.1237 12.1544 11.1112C11.8147 11.1225 11.4788 11.1904 11.1617 11.3125C10.9466 11.4005 10.7 11.3263 10.5692 11.1338Z" fill="#422B0D"/>
<path d="M4.95768 11.1338C4.83313 10.9363 4.89226 10.6771 5.08979 10.5526C5.1225 10.5324 5.15772 10.5161 5.19547 10.5048C5.62071 10.3362 6.07362 10.2468 6.53157 10.238C6.98827 10.2456 7.44118 10.3311 7.86894 10.4897C8.09666 10.5563 8.2275 10.7954 8.16208 11.0231C8.15201 11.0571 8.13817 11.0885 8.12056 11.1187C7.99223 11.3099 7.75068 11.3905 7.53303 11.3125C7.21724 11.1917 6.88384 11.1237 6.54541 11.1112C6.20573 11.1225 5.86981 11.1904 5.55277 11.3125C5.33763 11.4018 5.08853 11.3276 4.95768 11.1338Z" fill="#422B0D"/>
<path d="M4.98227 1.31197H5.53532C5.53532 1.31197 7.80699 0.986073 9.3432 1.00046C10.8076 1.01418 12.9607 1.31197 12.9607 1.31197H13.8311C14.7171 2.85461 15.3539 4.43879 15.6458 6.0661C12.9607 6.42132 9.38642 7.25724 9.38642 7.25724C9.38642 7.25724 6.00045 6.51435 3.06818 5.88003C3.51367 4.2142 4.06272 2.70249 4.98227 1.31197Z" fill="#7F2125"/>
<path d="M4.98227 1.31197H5.53532C5.53532 1.31197 7.80699 0.986073 9.3432 1.00046C10.8076 1.01418 12.9607 1.31197 12.9607 1.31197H13.8311M4.98227 1.31197C4.06272 2.70249 3.51367 4.2142 3.06818 5.88003C6.00045 6.51435 9.38642 7.25724 9.38642 7.25724C9.38642 7.25724 12.9607 6.42132 15.6458 6.0661C15.3539 4.43879 14.7171 2.85461 13.8311 1.31197M4.98227 1.31197C5.70164 2.13573 6.72651 1.61826 9.3432 2.25219C11.7124 1.63741 12.853 2.17653 13.8311 1.31197" stroke="#67211F" stroke-width="0.0473218"/>
<path d="M9.39444 7.24648L9.36923 2.25434C11.1504 1.67717 12.5028 2.12778 13.8391 1.33801C14.4211 2.28164 15.3838 4.04851 15.6539 6.05058C13.6038 6.30397 10.3439 7.02831 9.39444 7.24648Z" fill="#67211F" stroke="#67211F" stroke-width="0.0296999"/>
<path d="M12.3323 1.79618C12.7368 1.51342 13.0605 1.69609 13.0438 1.28998H13.842C13.436 1.74488 12.6141 1.73152 12.3323 1.79618Z" fill="#67211F" fill-opacity="0.56"/>
<path d="M6.30463 1.85031C5.9002 1.56467 5.52076 1.71946 5.5374 1.3092L5.01648 1.32666C5.42251 1.7862 6.02281 1.785 6.30463 1.85031Z" fill="#67211F"/>
<path d="M9.42473 1.35868L9.3339 2.20105L9.50071 2.18891L9.42473 1.35868Z" fill="#67211F" stroke="#67211F" stroke-width="0.0720027"/>
<path d="M7.23725 1.92716C6.94632 1.90712 6.77121 1.88811 6.53073 1.86852C6.3026 3.68138 6.19373 4.922 6.7907 6.66179C7.18089 6.75252 7.588 6.8085 7.97825 6.89051C7.13574 5.21243 7.11087 3.61172 7.23725 1.92716Z" fill="#D60000" stroke="#67211F" stroke-width="0.0296999"/>
<path d="M6.75804 1.89442L6.55025 1.87513L6.50594 2.20635L6.75804 1.89442Z" fill="#398F00" stroke="#67211F" stroke-width="0.00600023"/>
<path d="M6.40917 3.12919L7.20734 2.15888L7.21745 1.9408L6.76037 1.8931L6.50827 2.20503L6.40917 3.12919Z" fill="#FF7F00" stroke="#67211F" stroke-width="0.00600023"/>
<path d="M6.92355 2.49362C6.92355 2.49362 6.67376 2.18887 6.58571 2.10664L6.50168 2.21062L6.41097 3.12613C6.53422 2.97305 6.92355 2.49362 6.92355 2.49362Z" fill="#D60000" stroke="#67211F" stroke-width="0.00600023"/>
<path d="M7.15759 3.21412C7.16154 2.83755 7.17174 2.6041 7.19955 2.15856L6.40977 3.12021C6.37876 3.50422 6.37038 3.71613 6.36021 4.08843L7.15759 3.21412Z" fill="#007FFF" stroke="#67211F" stroke-width="0.00480018"/>
<path d="M6.96026 3.42513L6.57353 2.91554L6.40546 3.12349C6.38064 3.50245 6.3685 3.71274 6.3559 4.09173L6.96026 3.42513Z" fill="#398F00" stroke="#67211F" stroke-width="0.00480018"/>
<path d="M6.99462 4.30678L6.61606 3.81472L6.36425 4.09174C6.36933 4.48449 6.39285 4.65923 6.41517 4.98233L6.99462 4.30678Z" fill="#D60000" stroke="#67211F" stroke-width="0.00480018"/>
<path d="M6.95589 5.29986L6.5774 4.79907L6.41786 4.98092C6.4811 5.38291 6.49687 5.48778 6.56096 5.78506L6.95589 5.29986Z" fill="#007FFF" stroke="#67211F" stroke-width="0.00480018"/>
<path d="M7.04241 6.13188L6.67216 5.63989L6.5545 5.7872C6.6429 6.16324 6.65129 6.15459 6.73209 6.44329L7.04241 6.13188Z" fill="#FF7F00" stroke="#67211F" stroke-width="0.00480018"/>
<path d="M7.24271 6.7328L6.90545 6.27601L6.73774 6.44033C6.76212 6.51036 6.79467 6.59792 6.81094 6.6417L6.81094 6.6417L7.24271 6.7328Z" fill="#007FFF" stroke="#67211F" stroke-width="0.00480018"/>
<path d="M7.19906 4.07365C7.17187 3.78005 7.1622 3.59899 7.16451 3.21812L6.61894 3.81542C6.86587 4.13178 6.81654 4.06153 6.99751 4.30749L7.19906 4.07365Z" fill="#FF7F00" stroke="#67211F" stroke-width="0.00480018"/>
<path d="M7.29029 4.88472C7.25925 4.61392 7.21882 4.47393 7.1971 4.08103L6.57567 4.79983C6.81641 5.1352 6.76861 5.05994 6.95423 5.29182L7.29029 4.88472Z" fill="#398F00" stroke="#67211F" stroke-width="0.00480018"/>
<path d="M7.47164 5.66592C7.39916 5.37729 7.35858 5.25476 7.28674 4.88759L6.67335 5.64138C6.86248 5.90486 6.86248 5.90486 7.05184 6.14217L7.47164 5.66592Z" fill="#D60000" stroke="#67211F" stroke-width="0.00480018"/>
<path d="M7.68557 6.32271C7.49636 6.06795 7.52103 6.10308 7.32365 5.83079L6.89574 6.28079C7.08488 6.54427 7.05197 6.50035 7.22469 6.7375L7.68557 6.32271Z" fill="#398F00" stroke="#67211F" stroke-width="0.00480018"/>
<path d="M7.47586 5.66123L7.33311 5.82577L7.69504 6.31769L7.70335 6.31776L7.47586 5.66123Z" fill="#007FFF" stroke="#67211F" stroke-width="0.00480018"/>
<path d="M7.23736 4.47936L7.19901 4.08631L7.14867 4.13823L7.0731 4.22482L7.23736 4.47936Z" fill="#007FFF" stroke="#67211F" stroke-width="0.00480018"/>
<path d="M7.45648 6.53596L7.69954 6.31122C7.78591 6.53563 7.83915 6.65544 7.94452 6.86319L7.64554 6.80817L7.45648 6.53596Z" fill="#FF7F00" stroke="#67211F" stroke-width="0.00360014"/>
<g filter="url(#filter0_d_1193_594)">
<path d="M8.49972 3.19614L8.63535 2.97494C8.63535 2.97494 8.78272 3.62371 8.67984 4.03873C8.59803 4.36874 8.29643 4.79936 8.29643 4.79936C8.15839 5.17117 8.16722 5.3751 8.24205 5.7358L7.96678 6.07725C7.96678 6.07725 7.88167 5.60446 7.74414 5.37259C7.54461 5.03618 7.2154 5.12767 7.01238 4.83198C6.71178 4.39417 6.86764 3.46987 6.86764 3.46987L7.11155 3.69266C7.11155 3.69266 7.25937 3.46252 7.40383 3.13225C7.45556 3.01397 7.50686 2.88284 7.55079 2.74485C7.61794 2.5339 7.69272 2.19469 7.69272 2.19469L7.83372 2.49912L7.94712 2.33725C7.94712 2.33725 7.95701 2.57059 7.99885 2.70108C8.09489 3.00055 8.20519 3.10956 8.49972 3.19614Z" fill="#939297"/>
<path d="M8.49972 3.19614C8.55269 3.10976 8.63535 2.97494 8.63535 2.97494C8.63535 2.97494 8.78272 3.62371 8.67984 4.03873C8.59803 4.36874 8.29643 4.79936 8.29643 4.79936C8.15839 5.17117 8.16722 5.3751 8.24205 5.7358L7.96678 6.07725C7.96678 6.07725 7.88167 5.60446 7.74414 5.37259C7.54461 5.03618 7.2154 5.12766 7.01238 4.83198C6.71178 4.39417 6.86764 3.46987 6.86764 3.46987L7.11155 3.69266M8.49972 3.19614C8.20519 3.10956 8.09489 3.00055 7.99885 2.70108C7.95701 2.57059 7.94712 2.33725 7.94712 2.33725L7.83372 2.49912M8.49972 3.19614C8.49164 3.22745 8.25475 3.7674 8.25475 3.7674C8.25475 3.7674 8.0695 3.39319 7.9862 3.13942M7.11155 3.69266C7.25109 3.86197 7.27208 3.97263 7.31163 4.16881L7.49272 3.4668L7.76904 3.89778M7.11155 3.69266C7.11155 3.69266 7.25937 3.46252 7.40383 3.13225C7.45556 3.01397 7.50686 2.88284 7.55079 2.74485C7.61794 2.5339 7.69272 2.19469 7.69272 2.19469L7.83372 2.49912M7.83372 2.49912C7.83372 2.49912 7.9061 2.89542 7.9862 3.13942M7.9862 3.13942L7.8173 2.95964L7.76904 3.89778M7.76904 3.89778L7.74414 4.36136" stroke="#F8F7FC" stroke-width="0.0296999"/>
</g>
<path d="M4.78627 9.04723C3.72065 9.04723 2.89911 8.01559 2.89911 7.13115C2.89911 6.50839 3.17715 5.7875 3.56968 4.78856C3.61875 4.64137 3.68417 4.49417 3.74959 4.32936C3.93705 3.86134 4.10312 3.35433 4.35474 2.91525C4.47426 2.70138 4.74475 2.62589 4.95737 2.74541C5.02782 2.78567 5.08695 2.84354 5.12721 2.91525C5.36122 3.34678 5.521 3.81354 5.76507 4.35829C6.45326 5.89821 6.64575 6.52097 6.64575 7.14373C6.66965 8.01559 5.83553 9.04723 4.78627 9.04723Z" fill="#44B3E6"/>
<path d="M6.23581 7.74944C5.99551 8.12687 5.44949 8.05138 5.44949 7.43366C5.44949 7.03861 5.53001 5.01181 5.86844 5.29489C6.42075 5.75661 6.57801 7.22984 6.23581 7.74944Z" fill="#81D4FA"/>
<defs>
<filter id="filter0_d_1193_594" x="6.81247" y="2.14874" width="2.02184" height="4.0544" filterUnits="userSpaceOnUse" color-interpolation-filters="sRGB">
<feFlood flood-opacity="0" result="BackgroundImageFix"/>
<feColorMatrix in="SourceAlpha" type="matrix" values="0 0 0 0 0 0 0 0 0 0 0 0 0 0 0 0 0 0 127 0" result="hardAlpha"/>
<feOffset dx="0.0600023" dy="0.0480018"/>
<feGaussianBlur stdDeviation="0.0216008"/>
<feComposite in2="hardAlpha" operator="out"/>
<feColorMatrix type="matrix" values="0 0 0 0 0 0 0 0 0 0 0 0 0 0 0 0 0 0 0.25 0"/>
<feBlend mode="normal" in2="BackgroundImageFix" result="effect1_dropShadow_1193_594"/>
<feBlend mode="normal" in="SourceGraphic" in2="effect1_dropShadow_1193_594" result="shape"/>
</filter>
<radialGradient id="paint0_radial_1193_594" cx="0" cy="0" r="1" gradientUnits="userSpaceOnUse" gradientTransform="translate(9.29701 9.7331) scale(7.16613 7.1661)">
<stop offset="0.5" stop-color="#FDE030"/>
<stop offset="0.92" stop-color="#F7C02B"/>
<stop offset="1" stop-color="#F4A223"/>
</radialGradient>
</defs>
</svg>
