<svg width="19" height="18" viewBox="0 0 19 18" fill="none" xmlns="http://www.w3.org/2000/svg">
<g clip-path="url(#clip0_1206_10492)">
<path d="M11.7488 3.09513C6.85394 1.47183 2.12148 5.96308 3.84226 10.7967C4.22841 12.0401 3.79977 12.2588 4.01222 12.8312C4.2659 13.5147 5.04193 13.2011 5.04193 13.2011C5.04193 13.2011 5.04443 14.7144 5.29561 15.173C5.38559 15.3367 5.58678 15.4392 5.76923 15.4042C6.40406 15.2842 6.26535 14.1121 6.30159 13.8197C6.36907 13.2723 6.70273 13.516 6.8102 13.646C6.91767 13.7759 6.93891 13.9534 6.96141 14.1208C7.06513 15.1568 7.50001 15.8216 8.56597 15.4142C8.63595 15.388 8.86714 15.3355 8.8359 15.4704C8.8084 15.8491 8.78591 16.5776 8.80216 16.9575C8.8184 17.3312 8.94212 17.8523 9.41449 17.7361C10.5554 17.4199 9.97433 16.0078 10.0268 15.0718C10.0268 14.297 10.9041 14.4307 10.9041 14.9906C10.9041 15.5504 10.7066 16.319 11.1715 16.6514C11.985 17.2312 12.1625 16.3664 12.1175 15.9541C12.1175 15.9541 12.0725 14.9781 12.2062 14.8106C12.3399 14.6419 12.3937 15.1893 12.9735 15.0593C13.7521 14.8844 13.7196 14.0034 13.7883 13.5897C13.857 13.1761 14.0895 12.8099 14.2344 13.2261C14.3794 13.6422 14.1469 14.252 14.2344 14.7319C14.3219 15.2118 14.5081 15.3517 14.8443 15.3217C15.3679 15.2755 15.4516 14.7069 15.4591 14.252C15.4666 13.7972 15.4691 12.9311 15.5541 12.4963C15.7228 11.6353 15.7965 11.2691 15.9165 10.9005C16.9662 7.68136 15.1004 4.18733 11.7488 3.09513Z" fill="url(#paint0_radial_1206_10492)"/>
<path d="M11.7488 3.09513C6.85394 1.47183 2.12148 5.96308 3.84226 10.7967C4.22841 12.0401 3.79977 12.2588 4.01222 12.8312C4.2659 13.5147 5.04193 13.2011 5.04193 13.2011C5.04193 13.2011 5.04443 14.7144 5.29561 15.173C5.38559 15.3367 5.58678 15.4392 5.76923 15.4042C6.40406 15.2842 6.26535 14.1121 6.30159 13.8197C6.36907 13.2723 6.70273 13.516 6.8102 13.646C6.91767 13.7759 6.93891 13.9534 6.96141 14.1208C7.06513 15.1568 7.50001 15.8216 8.56597 15.4142C8.63595 15.388 8.86714 15.3355 8.8359 15.4704C8.8084 15.8491 8.78591 16.5776 8.80216 16.9575C8.8184 17.3312 8.94212 17.8523 9.41449 17.7361C10.5554 17.4199 9.97433 16.0078 10.0268 15.0718C10.0268 14.297 10.9041 14.4307 10.9041 14.9906C10.9041 15.5504 10.7066 16.319 11.1715 16.6514C11.985 17.2312 12.1625 16.3664 12.1175 15.9541C12.1175 15.9541 12.0725 14.9781 12.2062 14.8106C12.3399 14.6419 12.3937 15.1893 12.9735 15.0593C13.7521 14.8844 13.7196 14.0034 13.7883 13.5897C13.857 13.1761 14.0895 12.8099 14.2344 13.2261C14.3794 13.6422 14.1469 14.252 14.2344 14.7319C14.3219 15.2118 14.5081 15.3517 14.8443 15.3217C15.3679 15.2755 15.4516 14.7069 15.4591 14.252C15.4666 13.7972 15.4691 12.9311 15.5541 12.4963C15.7228 11.6353 15.7965 11.2691 15.9165 10.9005C16.9662 7.68136 15.1004 4.18733 11.7488 3.09513Z" fill="url(#paint1_radial_1206_10492)"/>
<path d="M12.0642 14.2212C11.9855 13.5139 12.3916 13.1915 12.7965 13.1915C13.2014 13.1915 13.625 13.1915 13.5288 14.2212C13.4926 14.6124 13.2014 14.9323 12.7965 14.9323C12.3916 14.9323 12.1067 14.6111 12.0642 14.2212Z" fill="url(#paint2_radial_1206_10492)"/>
<path d="M3.98617 12.2328C3.99992 12.1091 4.04615 11.9504 4.0474 11.7929C4.04865 11.6242 4.00491 11.4593 4.00491 11.4593C4.12488 11.2706 4.29608 11.1519 4.48603 11.1519C4.85093 11.1519 5.14585 11.5867 5.14585 12.1241C5.14585 12.6614 4.85093 13.0963 4.48603 13.0963C4.31233 13.0963 4.15487 12.9976 4.0374 12.8364C4.0374 12.8351 3.95118 12.564 3.98617 12.2328Z" fill="url(#paint3_radial_1206_10492)"/>
<path d="M5.04189 13.2012C5.04064 12.96 4.96566 12.124 5.37055 12.124C5.77544 12.124 5.98413 12.4427 6.05786 13C6.12909 13.5436 6.07536 14.2797 6.05536 14.5633C6.01287 15.1532 5.67672 15.3944 5.26433 15.1032C5.26308 15.1032 5.04814 14.5871 5.04189 13.2012Z" fill="url(#paint4_radial_1206_10492)"/>
<path d="M8.86006 15.2962C8.85881 15.055 8.83882 14.0615 9.24371 14.0615C9.6486 14.0615 9.87353 14.1977 9.94726 14.7551C10.0185 15.2987 10.1572 16.4071 10.0285 16.877C9.8273 17.6155 9.12999 17.4993 8.96253 17.2306C8.72635 16.8545 8.86006 15.2962 8.86006 15.2962Z" fill="url(#paint5_radial_1206_10492)"/>
<path d="M10.9983 14.2599C11.0495 13.7738 11.2619 13.5264 11.6668 13.5264C12.0717 13.5264 12.894 14.0825 12.2067 14.8073C12.0542 14.9672 12.1204 15.4046 12.048 16.0632C11.998 16.5093 11.6468 16.4631 11.4869 16.4631C10.7546 16.4631 10.8246 15.9344 10.9983 14.2599Z" fill="url(#paint6_radial_1206_10492)"/>
<path d="M14.2342 13.1884C14.1105 12.7148 14.5479 11.1689 14.9515 11.1689C15.3552 11.1689 14.959 12.0487 15.1852 14.4468C15.2277 14.8942 14.8416 15.0229 14.6816 15.0229C13.9493 15.0229 14.3942 13.802 14.2342 13.1884Z" fill="url(#paint7_radial_1206_10492)"/>
<path d="M15.5235 6.28406C15.5173 6.52399 16.3208 8.50094 15.5585 10.7816C15.4273 11.1727 15.3511 11.5676 15.1849 12.4211C14.9874 13.1334 15.2923 14.8979 14.715 15.3165C15.3011 15.404 15.4748 14.7092 15.4585 14.2493C15.466 13.7945 15.4685 12.9285 15.5535 12.4936C15.7222 11.6326 15.7959 11.2664 15.9159 10.8978C16.4295 9.32071 16.2421 7.67867 15.5235 6.28406Z" fill="#EB8F00"/>
<path d="M14.0414 12.8272C13.9901 12.5923 13.5753 12.7072 13.469 13.0097C13.3216 13.4283 13.3978 13.8519 13.3028 14.2581C13.2503 14.4955 12.9754 14.9279 12.5555 14.6517C12.3581 14.5217 12.1494 14.2793 11.9132 14.5767C11.5358 15.1941 11.9632 16.1163 11.6758 16.6249C11.5983 16.7624 11.4508 16.8049 11.4508 16.8049C11.892 16.9461 12.0769 16.6374 12.1169 16.22C12.1606 15.7614 12.0444 15.1666 12.2056 14.8092C12.2231 14.7867 12.2406 14.7767 12.2569 14.7767C12.3493 14.7767 12.4443 15.0778 12.803 15.0778C12.8542 15.0778 12.9104 15.0716 12.9729 15.0578C13.6365 14.9329 13.7477 14.1818 13.7827 13.6232C13.8164 13.0959 14.1126 13.1521 14.0414 12.8272Z" fill="#EB8F00"/>
<path d="M10.3831 14.3161C10.1007 14.1836 9.85323 14.4585 9.79324 14.7085C9.55206 15.3958 9.89697 15.9806 9.69577 16.6779C9.59705 16.9328 9.50832 17.0791 9.30838 17.1265C8.94598 17.2128 8.83101 17.4839 9.04095 17.6601C9.14342 17.7564 9.28088 17.7664 9.41585 17.7339C10.9517 17.3552 9.36461 14.8509 10.3868 14.5348C10.3981 14.5348 10.4618 14.511 10.6618 14.5797C10.6605 14.5797 10.6605 14.446 10.3831 14.3161Z" fill="#EB8F00"/>
<path d="M7.03158 13.3251C6.89037 13.114 6.68043 13.034 6.42675 13.1065C5.97187 13.2939 5.92813 13.5638 5.99562 14.4798C6.01686 14.7772 5.93063 15.3433 5.93063 15.3433C5.93063 15.3433 6.34427 15.1559 6.30303 13.8188C6.29179 13.4351 6.62919 13.4326 6.81164 13.6451C6.91911 13.775 6.94036 13.9525 6.96285 14.1199C7.04533 14.9447 7.33775 15.5345 7.99257 15.5345C8.20126 15.5383 8.51493 15.4196 8.65989 15.3933C8.80485 15.3671 8.87233 15.2271 8.83984 15.1346C8.70737 14.7597 8.22126 15.2159 7.99257 15.1596C7.85636 15.1596 7.38774 15.1746 7.28026 14.0974C7.26652 13.8475 7.17029 13.5301 7.03158 13.3251Z" fill="#EB8F00"/>
<path d="M5.22866 12.1888C5.16493 12.1126 5.10994 12.4387 4.96248 12.6711C4.76753 12.9786 4.47012 13.0673 4.09772 12.9798C4.1427 13.1485 4.37764 13.346 4.79503 13.261C5.16742 13.1848 5.22866 12.9773 5.22866 12.1888Z" fill="#EB8F00"/>
<path d="M7.92627 5.33073C7.46639 5.23826 6.97028 5.54192 6.84031 6.18674C6.71035 6.83157 7.05026 7.30268 7.51013 7.39516C7.97125 7.48763 8.46612 7.18397 8.59483 6.5404C8.7248 5.89682 8.39114 5.42446 7.92627 5.33073Z" fill="#422B0D"/>
<path d="M7.80168 5.75449C7.65979 5.64775 7.45887 5.67538 7.35087 5.81728C7.26674 5.92778 7.26422 6.07973 7.34334 6.194C7.48524 6.30074 7.68616 6.27311 7.79415 6.13121C7.87703 6.02071 7.87954 5.86876 7.80168 5.75449Z" fill="#896024"/>
<path d="M11.5343 6.49817C11.0657 6.49817 10.6396 6.89431 10.6396 7.55163C10.6396 8.20894 11.0657 8.60383 11.5343 8.60383C12.0042 8.60383 12.4291 8.20769 12.4291 7.55163C12.4291 6.89556 12.0092 6.49817 11.5343 6.49817Z" fill="#422B0D"/>
<path d="M11.4996 6.93828C11.3401 6.86167 11.148 6.92949 11.0701 7.08896C11.0099 7.21454 11.0375 7.36397 11.1367 7.45941C11.2962 7.53601 11.4883 7.4682 11.5662 7.30872C11.6264 7.1844 11.6001 7.03497 11.4996 6.93828Z" fill="#896024"/>
<path d="M9.74317 11.3933C8.5085 11.1909 7.63124 10.4111 7.20136 9.66129C7.15762 9.58631 7.16012 9.49384 7.20761 9.42136C7.2551 9.34763 7.33882 9.30764 7.4188 9.32014C7.45504 9.32638 7.49003 9.34263 7.52002 9.36762C8.01989 9.7975 8.8834 10.3698 9.88063 10.5335L9.97685 10.541C11.0691 10.6435 11.6614 10.3149 12.2262 10.0812C12.2625 10.0662 12.4599 10.0012 12.5299 10.1974C12.5586 10.2786 12.4937 10.3961 12.4349 10.4598C11.9788 10.9597 11.1753 11.5233 9.8094 11.3996L9.74317 11.3933Z" fill="#422B0D"/>
<path fill-rule="evenodd" clip-rule="evenodd" d="M7.40697 9.38555C7.35549 9.37773 7.29675 9.40352 7.26211 9.45731L7.26183 9.45774C7.22807 9.50928 7.22631 9.5748 7.25739 9.62809L7.25764 9.62852C7.67873 10.363 8.53923 11.1284 9.75053 11.3278L9.81425 11.3338C9.81431 11.3338 9.81436 11.3338 9.81441 11.3338C11.1556 11.4553 11.9398 10.9032 12.385 10.4154L12.3852 10.4151C12.4098 10.3883 12.4364 10.3494 12.4531 10.3096C12.4707 10.2679 12.4726 10.2372 12.4665 10.2197C12.4528 10.1815 12.4347 10.1603 12.4177 10.1478C12.4003 10.135 12.3799 10.1283 12.3576 10.126C12.3106 10.1212 12.264 10.1368 12.2504 10.1424C12.1866 10.1688 12.1222 10.1966 12.0566 10.2248C11.544 10.4456 10.9548 10.6994 9.97008 10.6071L9.87158 10.5994L9.8688 10.599C8.85517 10.4326 7.9809 9.85222 7.4762 9.41827C7.45503 9.40073 7.43101 9.38979 7.40697 9.38555ZM7.15102 9.38545C7.21127 9.29209 7.31963 9.23799 7.4279 9.25491L7.42893 9.25507C7.47706 9.26337 7.52269 9.28479 7.56126 9.31694L7.56205 9.31759C8.05668 9.74297 8.90809 10.3064 9.88747 10.4679L9.98192 10.4753C10.9323 10.5645 11.4937 10.3229 12.0039 10.1034C12.0698 10.0751 12.1349 10.0471 12.1998 10.0202C12.2225 10.0108 12.2927 9.98641 12.371 9.99441C12.4113 9.99853 12.4557 10.0115 12.4961 10.0412C12.5369 10.0712 12.5697 10.1154 12.5911 10.1753L12.5912 10.1755C12.6137 10.2391 12.5975 10.3078 12.5751 10.361C12.5519 10.4161 12.5166 10.4677 12.4826 10.5047C12.0155 11.0165 11.1927 11.5915 9.80232 11.4656L9.80207 11.4655L9.73359 11.4591L9.73135 11.4587C8.47461 11.2527 7.58144 10.4591 7.14298 9.69453C7.08677 9.59797 7.09 9.47877 7.15102 9.38545Z" fill="#422B0D"/>
<path d="M7.77711 0.816654L8.22326 0.901294C8.22326 0.901294 10.1072 0.978196 11.3442 1.22526C12.5234 1.46076 14.2134 2.03769 14.2134 2.03769L14.9155 2.17089C15.3872 3.58817 15.6511 5.00181 15.6302 6.39851C13.4563 5.24707 10.3951 6.22835 10.3951 6.22835C10.3951 6.22835 7.85922 4.21249 5.51298 4.319C6.13493 3.00316 6.81613 1.83122 7.77711 0.816654Z" fill="#7F2125"/>
<path d="M7.77711 0.816654L8.22326 0.901294C8.22326 0.901294 10.1072 0.978196 11.3442 1.22526C12.5234 1.46076 14.2134 2.03769 14.2134 2.03769L14.9155 2.17089M7.77711 0.816654C6.81613 1.83122 6.13493 3.00316 5.51298 4.319C7.85922 4.21249 10.3951 6.22835 10.3951 6.22835C10.3951 6.22835 13.4563 5.24707 15.6302 6.39851C15.6511 5.00181 15.3872 3.58817 14.9155 2.17089M7.77711 0.816654C8.2276 1.61116 9.13593 1.33807 11.1469 2.26522C13.155 2.11703 13.9903 2.73952 14.9155 2.17089" stroke="#67211F" stroke-width="0.0582032"/>
<path d="M10.4138 6.20916L11.1675 2.2731C12.6954 2.06617 13.7153 2.64751 14.9178 2.19586C15.2386 3.06892 15.7367 4.68424 15.639 6.38894C13.8719 5.51312 11.7681 5.8276 10.4138 6.20916Z" fill="#67211F" stroke="#67211F" stroke-width="0.0365292"/>
<path d="M8.75957 1.46312C8.47834 1.1639 8.14784 1.23443 8.22592 0.896129L7.80294 0.830907C8.05806 1.27485 8.54252 1.36572 8.75957 1.46312Z" fill="#67211F"/>
<path d="M13.6272 2.34125C13.998 2.16822 14.2303 2.36953 14.2809 2.02958L14.9248 2.15173C14.5256 2.46754 13.8647 2.33067 13.6272 2.34125Z" fill="#67211F" fill-opacity="0.56"/>
<path d="M11.3495 1.53401L11.1434 2.21998L11.2799 2.23542L11.3495 1.53401Z" fill="#67211F" stroke="#67211F" stroke-width="0.0885594"/>
<path d="M9.49716 1.68564C9.26268 1.62624 9.1226 1.58474 8.92923 1.53314C8.51838 3.03263 8.40003 3.40078 8.36809 4.95713C8.69421 5.12053 8.93735 5.26245 9.21604 5.41846C8.77973 3.90773 9.14162 3.05904 9.49716 1.68564Z" fill="#D60000" stroke="#67211F" stroke-width="0.0365292"/>
<path d="M9.11398 1.59111L8.94482 1.54388L8.85776 1.81498L9.11398 1.59111Z" fill="#398F00" stroke="#67211F" stroke-width="0.00737995"/>
<path d="M8.64139 2.56015L9.43828 1.87588L9.47921 1.69716L9.11325 1.59044L8.86074 1.81107L8.64139 2.56015Z" fill="#FF7F00" stroke="#67211F" stroke-width="0.00737995"/>
<path d="M9.16042 2.10704C9.16042 2.10704 9.00217 1.81843 8.94263 1.73751L8.85846 1.81105L8.64725 2.55421C8.77079 2.44587 9.16042 2.10704 9.16042 2.10704Z" fill="#D60000" stroke="#67211F" stroke-width="0.00737995"/>
<path d="M9.24571 2.74215C9.30536 2.43156 9.34865 2.24015 9.4381 1.87608L8.64936 2.55442C8.56652 2.86718 8.52793 3.04106 8.46385 3.3472L9.24571 2.74215Z" fill="#007FFF" stroke="#67211F" stroke-width="0.00590396"/>
<path d="M9.05695 2.88531L8.81761 2.40727L8.64927 2.55436C8.57224 2.86385 8.53082 3.03583 8.46376 3.34715L9.05695 2.88531Z" fill="#398F00" stroke="#67211F" stroke-width="0.00590396"/>
<path d="M8.94446 3.61739L8.70917 3.15503L8.46212 3.34686C8.40743 3.67216 8.40044 3.82002 8.37026 4.09029L8.94446 3.61739Z" fill="#D60000" stroke="#67211F" stroke-width="0.00590396"/>
<path d="M8.76322 4.4332L8.52929 3.96364L8.37183 4.09041C8.36322 4.43191 8.36038 4.52088 8.36816 4.77598L8.76322 4.4332Z" fill="#007FFF" stroke="#67211F" stroke-width="0.00590396"/>
<path d="M8.71771 5.13485L8.48808 4.67153L8.3694 4.77644L8.38186 4.94585L8.71771 5.13485Z" fill="#FF7F00" stroke="#67211F" stroke-width="0.00590396"/>
<path d="M9.14473 3.45395C9.16653 3.20733 9.18575 3.05629 9.2447 2.74191L8.70989 3.15514C8.86405 3.45292 8.83431 3.3876 8.94518 3.6175L9.14473 3.45395Z" fill="#FF7F00" stroke="#67211F" stroke-width="0.00590396"/>
<path d="M9.09953 4.13885C9.11477 3.9105 9.10273 3.78886 9.14387 3.461L8.52893 3.96346C8.67519 4.27604 8.64745 4.20681 8.76423 4.42575L9.09953 4.13885Z" fill="#398F00" stroke="#67211F" stroke-width="0.00590396"/>
<path d="M9.13339 4.80979C9.11746 4.56061 9.1027 4.45338 9.09907 4.1394L8.48544 4.67195C8.60035 4.91753 8.60035 4.91753 8.71936 5.14151L9.13339 4.80979Z" fill="#D60000" stroke="#67211F" stroke-width="0.00590396"/>
<path d="M9.22334 5.40713C9.10649 5.16759 9.11436 5.17985 8.99345 4.92455L8.7121 5.12899C8.98387 5.26546 8.97918 5.26269 8.97918 5.26269L9.22334 5.40713Z" fill="#398F00" stroke="#67211F" stroke-width="0.00590396"/>
<path d="M9.13541 4.80956L8.99354 4.92507L9.21636 5.3871L9.22317 5.38839L9.13541 4.80956Z" fill="#007FFF" stroke="#67211F" stroke-width="0.00590396"/>
<path d="M9.11455 3.80077L9.14226 3.46872L9.09316 3.50438L9.01814 3.56511L9.11455 3.80077Z" fill="#007FFF" stroke="#67211F" stroke-width="0.00590396"/>
<g filter="url(#filter0_d_1206_10492)">
<path d="M10.206 2.74085L10.3503 2.57782C10.3503 2.57782 10.367 3.13939 10.2185 3.46846C10.1005 3.73012 9.78936 4.04173 9.78936 4.04173C9.6194 4.32952 9.59438 4.5003 9.59789 4.81143L9.32201 5.05299C9.32201 5.05299 9.32787 4.64716 9.25347 4.43346C9.14554 4.12343 8.86553 4.14905 8.74836 3.87232C8.57487 3.46257 8.84629 2.71848 8.84629 2.71848L9.00794 2.94091C9.00794 2.94091 9.16346 2.77233 9.33206 2.52004C9.39243 2.42969 9.45449 2.3286 9.51168 2.22067C9.5991 2.05569 9.71288 1.7853 9.71288 1.7853L9.77865 2.05981L9.89564 1.94268C9.89564 1.94268 9.86684 2.13806 9.88003 2.25287C9.9103 2.51638 9.9821 2.62384 10.206 2.74085Z" fill="url(#paint8_linear_1206_10492)"/>
<path d="M10.206 2.74085C10.2624 2.67718 10.3503 2.57782 10.3503 2.57782C10.3503 2.57782 10.367 3.13939 10.2185 3.46846C10.1005 3.73012 9.78936 4.04173 9.78936 4.04173C9.6194 4.32952 9.59438 4.5003 9.59789 4.81143L9.32201 5.05299C9.32201 5.05299 9.32787 4.64716 9.25347 4.43346C9.14554 4.12343 8.86554 4.14905 8.74836 3.87232C8.57487 3.46257 8.84629 2.71848 8.84629 2.71848L9.00794 2.94091M10.206 2.74085C9.9821 2.62384 9.9103 2.51638 9.88003 2.25287C9.86684 2.13806 9.89564 1.94268 9.89564 1.94268L9.77865 2.05981M10.206 2.74085C10.1946 2.76562 9.91839 3.17797 9.91839 3.17797C9.91839 3.17797 9.82793 2.83871 9.80073 2.61513M9.00794 2.94091C9.09382 3.10294 9.09332 3.19809 9.0943 3.36713L9.35104 2.8116L9.50601 3.21196L9.69282 2.43991L9.80073 2.61513M9.00794 2.94091C9.00794 2.94091 9.16346 2.77233 9.33206 2.52004C9.39243 2.42969 9.45449 2.3286 9.51168 2.22067C9.5991 2.05569 9.71288 1.7853 9.71288 1.7853L9.77865 2.05981M9.77865 2.05981C9.77865 2.05981 9.77458 2.40015 9.80073 2.61513" stroke="#F8F7FC" stroke-width="0.0365292"/>
</g>
</g>
<defs>
<filter id="filter0_d_1206_10492" x="8.67239" y="1.72742" width="1.82344" height="3.47863" filterUnits="userSpaceOnUse" color-interpolation-filters="sRGB">
<feFlood flood-opacity="0" result="BackgroundImageFix"/>
<feColorMatrix in="SourceAlpha" type="matrix" values="0 0 0 0 0 0 0 0 0 0 0 0 0 0 0 0 0 0 127 0" result="hardAlpha"/>
<feOffset dx="0.0737995" dy="0.0590396"/>
<feGaussianBlur stdDeviation="0.0265678"/>
<feComposite in2="hardAlpha" operator="out"/>
<feColorMatrix type="matrix" values="0 0 0 0 0 0 0 0 0 0 0 0 0 0 0 0 0 0 0.25 0"/>
<feBlend mode="normal" in2="BackgroundImageFix" result="effect1_dropShadow_1206_10492"/>
<feBlend mode="normal" in="SourceGraphic" in2="effect1_dropShadow_1206_10492" result="shape"/>
</filter>
<radialGradient id="paint0_radial_1206_10492" cx="0" cy="0" r="1" gradientUnits="userSpaceOnUse" gradientTransform="translate(9.84562 9.13337) scale(6.45903 6.45901)">
<stop offset="0.5" stop-color="#FDE030"/>
<stop offset="0.9188" stop-color="#F7C02B"/>
<stop offset="1" stop-color="#F4A223"/>
</radialGradient>
<radialGradient id="paint1_radial_1206_10492" cx="0" cy="0" r="1" gradientUnits="userSpaceOnUse" gradientTransform="translate(9.94554 9.33929) rotate(10.2064) scale(6.75983 6.48241)">
<stop offset="0.5" stop-color="#FDE030"/>
<stop offset="0.9188" stop-color="#F7C02B"/>
<stop offset="1" stop-color="#F4A223"/>
</radialGradient>
<radialGradient id="paint2_radial_1206_10492" cx="0" cy="0" r="1" gradientUnits="userSpaceOnUse" gradientTransform="translate(12.7994 14.1615) rotate(0.392311) scale(0.84298 0.726372)">
<stop stop-color="#F7C02B"/>
<stop offset="0.7524" stop-color="#F7C02B" stop-opacity="0"/>
</radialGradient>
<radialGradient id="paint3_radial_1206_10492" cx="0" cy="0" r="1" gradientUnits="userSpaceOnUse" gradientTransform="translate(4.56373 12.2352) rotate(0.595886) scale(0.629674 0.824074)">
<stop stop-color="#F7C02B"/>
<stop offset="0.7524" stop-color="#F7C02B" stop-opacity="0"/>
</radialGradient>
<radialGradient id="paint4_radial_1206_10492" cx="0" cy="0" r="1" gradientUnits="userSpaceOnUse" gradientTransform="translate(5.65241 13.5756) rotate(11.783) scale(0.594983 1.51976)">
<stop stop-color="#F7C02B" stop-opacity="0.9706"/>
<stop offset="0.928" stop-color="#F7C02B" stop-opacity="0"/>
</radialGradient>
<radialGradient id="paint5_radial_1206_10492" cx="0" cy="0" r="1" gradientUnits="userSpaceOnUse" gradientTransform="translate(9.40491 15.7385) rotate(0.825081) scale(0.65696 1.67804)">
<stop offset="0.3068" stop-color="#F7C02B" stop-opacity="0.9706"/>
<stop offset="1" stop-color="#F7C02B" stop-opacity="0"/>
</radialGradient>
<radialGradient id="paint6_radial_1206_10492" cx="0" cy="0" r="1" gradientUnits="userSpaceOnUse" gradientTransform="translate(11.4412 15.158) scale(0.826924 1.67493)">
<stop offset="0.0737" stop-color="#F7C02B"/>
<stop offset="0.7875" stop-color="#F7C02B" stop-opacity="0"/>
</radialGradient>
<radialGradient id="paint7_radial_1206_10492" cx="0" cy="0" r="1" gradientUnits="userSpaceOnUse" gradientTransform="translate(14.6851 13.2677) rotate(12.3336) scale(0.684661 1.72409)">
<stop stop-color="#F7C02B"/>
<stop offset="0.7524" stop-color="#F7C02B" stop-opacity="0"/>
</radialGradient>
<linearGradient id="paint8_linear_1206_10492" x1="10.0569" y1="1.9586" x2="8.66489" y2="4.72198" gradientUnits="userSpaceOnUse">
<stop stop-color="#C9C9C9"/>
<stop offset="1" stop-color="#939297"/>
</linearGradient>
<clipPath id="clip0_1206_10492">
<rect width="17.996" height="17.996" fill="white" transform="translate(0.97934)"/>
</clipPath>
</defs>
</svg>
