<svg width="18" height="18" viewBox="0 0 18 18" fill="none" xmlns="http://www.w3.org/2000/svg">
<path d="M8.79622 16.8363C5.28734 16.8363 1.50177 14.6354 1.50177 9.80594C1.50177 4.97654 5.28734 2.77563 8.79622 2.77563C10.7456 2.77563 12.5441 3.41704 13.8772 4.58666C15.3235 5.86947 16.0907 7.6805 16.0907 9.80594C16.0907 11.9314 15.3235 13.7298 13.8772 15.0126C12.5441 16.1823 10.733 16.8363 8.79622 16.8363Z" fill="url(#paint0_radial_1193_1010)"/>
<path d="M14.8168 5.62732C15.4872 6.70891 15.8368 7.99675 15.8368 9.42922C15.8368 11.5547 15.0696 13.3531 13.6233 14.6359C12.2902 15.8055 10.4792 16.4595 8.54236 16.4595C6.27102 16.4595 3.88901 15.5352 2.48294 13.5745C3.83619 15.7955 6.3817 16.8368 8.7939 16.8368C10.7307 16.8368 12.5417 16.1828 13.8749 15.0132C15.3212 13.7304 16.0883 11.932 16.0883 9.80652C16.0883 8.20426 15.6519 6.78059 14.8168 5.62732Z" fill="#EB8F00"/>
<path d="M13.6342 10.9036C13.4581 10.5854 13.0758 10.4458 12.7362 10.5741C11.4458 10.9501 10.1077 11.1375 8.76325 11.1312C7.41881 11.1375 6.08065 10.9501 4.79029 10.5741C4.45198 10.4458 4.06965 10.5841 3.89358 10.9011C3.72253 11.2167 3.84579 11.5827 3.99042 11.8984C4.79784 13.6717 6.57743 14.7332 8.75319 14.7394H8.77331C10.9491 14.7394 12.7287 13.6717 13.5373 11.8984C13.6807 11.5802 13.8052 11.2193 13.6342 10.9036Z" fill="#422B0D"/>
<path d="M10.7759 14.2377C10.7293 14.195 10.6815 14.156 10.6337 14.112C10.1206 13.6605 9.45657 13.4178 8.7724 13.4316C8.06811 13.4203 7.38268 13.6542 6.83308 14.0944C6.78529 14.1334 6.73498 14.1711 6.68845 14.2201C6.64192 14.2692 6.61676 14.3044 6.58658 14.3459C7.27829 14.6163 8.01528 14.7546 8.75856 14.7509H8.77869C9.49052 14.7509 10.1961 14.6239 10.8626 14.3736C10.8375 14.3258 10.8086 14.2805 10.7759 14.2377Z" fill="#ED7770"/>
<path d="M12.7359 10.5746C11.4455 10.9507 10.1074 11.138 8.76294 11.1318C7.4185 11.138 6.08035 10.9507 4.78999 10.5746C4.45167 10.4463 4.06934 10.5847 3.89327 10.9016C3.86812 10.9494 3.848 10.9997 3.83542 11.0513C3.87692 11.0726 3.92471 11.094 3.98131 11.1167C5.49553 11.875 7.16948 12.2599 8.8623 12.2398C10.4859 12.2586 12.0907 11.9052 13.5572 11.2085C13.6163 11.1833 13.6653 11.1594 13.7093 11.1368C13.6993 11.055 13.6729 10.9746 13.6339 10.9016C13.4578 10.5847 13.0755 10.4451 12.7359 10.5746Z" fill="white"/>
<path d="M13.6392 10.9048C13.4606 10.5867 13.077 10.4458 12.7349 10.5741C11.4446 10.9501 10.1064 11.1375 8.76325 11.1312C7.41881 11.1375 6.08065 10.9501 4.79029 10.5741C4.45198 10.4458 4.06965 10.5841 3.89358 10.9011C3.72253 11.2167 3.84579 11.5827 3.99042 11.8984C4.05456 12.0405 4.12624 12.1801 4.20548 12.3147C4.20548 12.3147 3.94137 11.3362 4.17026 11.052C4.24824 10.9313 4.37903 10.8558 4.52241 10.8483C4.58152 10.8483 4.63937 10.8583 4.69597 10.8759C6.00897 11.262 7.37101 11.457 8.74061 11.4544H8.78463C10.1542 11.457 11.5163 11.262 12.8293 10.8759C12.8859 10.8583 12.9437 10.8483 13.0028 10.8483C13.1462 10.8558 13.2783 10.9313 13.3562 11.052C13.5889 11.3362 13.321 12.3185 13.321 12.3185C13.399 12.1839 13.477 12.0455 13.5424 11.9022C13.6857 11.5865 13.8103 11.2218 13.6392 10.9048Z" fill="#EB8F00"/>
<path d="M13.4585 9.07654C13.4585 9.07654 15.5965 9.13565 16.4504 10.7115C16.8076 11.373 16.8277 12.4722 16.0882 12.8734C15.194 13.3652 14.3552 12.6672 14.2483 11.9226C13.9603 9.90282 13.4585 9.07654 13.4585 9.07654Z" fill="#29B6F6"/>
<path d="M16.2989 12.1172C16.2146 12.2706 16.0297 12.3373 15.8675 12.2731C15.7229 12.1964 15.6839 12.0115 15.6612 11.8493L15.5921 11.3462C15.5631 11.1463 15.3594 10.4986 15.5732 10.3929C15.743 10.3099 16.0687 10.5388 16.1643 10.6709C16.3743 10.9702 16.4737 11.8229 16.2989 12.1172Z" fill="#81D4FA"/>
<path d="M15.5728 10.3987C15.7426 10.3157 16.0683 10.5446 16.1639 10.6766C16.3739 10.9696 16.4733 11.8223 16.2985 12.1166C16.2142 12.2701 16.0293 12.3367 15.8671 12.2726C15.7225 12.1959 15.6835 12.011 15.6609 11.8487L15.5917 11.3457" fill="#81D4FA"/>
<path d="M4.22982 9.07654C4.22982 9.07654 2.09179 9.13565 1.23783 10.7115C0.880658 11.3667 0.866823 12.4609 1.60004 12.8671C2.49424 13.3589 3.3331 12.6609 3.44 11.9163C3.72801 9.90282 4.22982 9.07654 4.22982 9.07654Z" fill="#29B6F6"/>
<path d="M1.39126 12.1172C1.47552 12.2706 1.6604 12.3373 1.82264 12.2731C1.96727 12.1964 2.00626 12.0115 2.0289 11.8493L2.09807 11.3462C2.12699 11.1463 2.33073 10.4986 2.11693 10.3929C1.94715 10.3099 1.62141 10.5388 1.52583 10.6709C1.3158 10.9702 1.21644 11.8229 1.39126 12.1172Z" fill="#81D4FA"/>
<path d="M6.85172 8.92226L6.83285 8.89459L6.80644 8.86063C6.79638 8.8468 6.78632 8.83548 6.77374 8.82416L6.69703 8.74619C6.66433 8.71349 6.62785 8.68079 6.58761 8.64683C6.5046 8.57515 6.41154 8.51729 6.31092 8.47202C6.21408 8.42926 6.10844 8.40662 6.0028 8.40662C6.04681 8.40662 6.01411 8.40662 6.02418 8.40662H5.95249C5.93991 8.40536 5.92859 8.40536 5.91602 8.40662C5.89338 8.40913 5.87074 8.41291 5.8481 8.41794C5.79654 8.43051 5.74497 8.44686 5.69593 8.46699C5.59531 8.511 5.50225 8.57011 5.41924 8.6418C5.35133 8.6984 5.28719 8.76002 5.22808 8.82668L5.15639 8.90717L5.11866 8.94993C4.96648 9.12348 4.70363 9.14109 4.53007 8.99017C4.40053 8.87698 4.354 8.69462 4.41185 8.53238L4.42569 8.49214C4.43701 8.46573 4.44707 8.42548 4.47096 8.37769C4.52881 8.24187 4.60427 8.11233 4.69483 7.99536C4.91492 7.70485 5.2243 7.49356 5.57519 7.39295C5.64688 7.37408 5.71982 7.36025 5.79402 7.35019C5.83175 7.35019 5.88709 7.33887 5.90344 7.33887H5.99902C6.14114 7.34138 6.28325 7.36151 6.4216 7.39672C6.55365 7.43319 6.67942 7.48601 6.7989 7.55393C6.99383 7.66837 7.16488 7.81929 7.30196 7.99914C7.39503 8.12113 7.47426 8.25318 7.53589 8.39404C7.54595 8.41416 7.55475 8.43429 7.55978 8.45567C7.56607 8.47202 7.56984 8.48585 7.57362 8.49717L7.58494 8.53113C7.65662 8.75373 7.53463 8.99269 7.31202 9.06437C7.14475 9.11845 6.95988 9.06312 6.85046 8.92603L6.85172 8.92226Z" fill="#422B0D"/>
<path d="M12.5526 8.92226L12.53 8.89459L12.5036 8.86063C12.4935 8.8468 12.4835 8.83548 12.4709 8.82416L12.3929 8.74619C12.359 8.71097 12.3225 8.67827 12.2848 8.64683C12.2017 8.57515 12.1087 8.51729 12.0081 8.47202C11.9112 8.42926 11.8056 8.40662 11.6999 8.40662C11.744 8.40662 11.7113 8.40662 11.7213 8.40662H11.6484C11.6358 8.40536 11.6245 8.40536 11.6119 8.40662C11.5893 8.40913 11.5666 8.41291 11.544 8.41794C11.4924 8.43051 11.4409 8.44686 11.3918 8.46699C11.2899 8.51352 11.1944 8.57389 11.1088 8.64683C11.0409 8.70468 10.978 8.76631 10.9189 8.83171L10.8472 8.9122L10.8095 8.95496C10.6573 9.12852 10.3945 9.14612 10.2209 8.9952C10.0914 8.88201 10.0449 8.69965 10.1027 8.53742L10.1165 8.49717C10.1279 8.47076 10.1379 8.43051 10.1606 8.38272C10.2209 8.24438 10.2976 8.11484 10.3907 7.99536C10.6108 7.70485 10.9202 7.49356 11.2711 7.39295C11.3428 7.37408 11.4157 7.36025 11.4899 7.35019C11.5276 7.35019 11.583 7.33887 11.5993 7.33887H11.6949C11.837 7.34138 11.9791 7.36151 12.1175 7.39672C12.2483 7.43445 12.374 7.48727 12.4923 7.55518C12.6872 7.66837 12.8582 7.82055 12.9953 8.0004C13.0482 8.06831 13.0947 8.14 13.1374 8.2142C13.1714 8.27331 13.2016 8.33368 13.2293 8.3953C13.2393 8.41542 13.2469 8.43554 13.2532 8.45693C13.2532 8.47327 13.2632 8.48711 13.267 8.49843L13.2783 8.53238C13.35 8.75499 13.228 8.99395 13.0054 9.06563C12.8381 9.11971 12.6533 9.06437 12.5438 8.92729L12.5526 8.92226Z" fill="#422B0D"/>
<path d="M4.85146 1.26634H5.35593C5.35593 1.26634 7.42805 0.98811 8.82931 1.0004C10.165 1.01211 12.129 1.26634 12.129 1.26634H12.9229C13.7312 2.58339 14.312 3.93589 14.5783 5.32523C12.129 5.6285 8.86873 6.34217 8.86873 6.34217C8.86873 6.34217 5.78019 5.70793 3.1055 5.16637C3.51186 3.74415 4.01268 2.45352 4.85146 1.26634Z" fill="#7F2125"/>
<path d="M4.85146 1.26634H5.35593C5.35593 1.26634 7.42805 0.98811 8.82931 1.0004C10.165 1.01211 12.129 1.26634 12.129 1.26634H12.9229M4.85146 1.26634C4.01268 2.45352 3.51186 3.74415 3.1055 5.16637C5.78019 5.70793 8.86873 6.34217 8.86873 6.34217C8.86873 6.34217 12.129 5.6285 14.5783 5.32523C14.312 3.93589 13.7312 2.58339 12.9229 1.26634M4.85146 1.26634C5.50764 1.96964 6.44247 1.52784 8.82931 2.06907C10.9903 1.5442 12.0308 2.00447 12.9229 1.26634" stroke="#67211F" stroke-width="0.0587614"/>
<path d="M8.87513 6.33444L8.85214 2.07237C10.4769 1.5796 11.7104 1.96431 12.9293 1.29004C13.4602 2.09567 14.3384 3.60415 14.5847 5.31343C12.7147 5.52976 9.74115 6.14817 8.87513 6.33444Z" fill="#67211F" stroke="#67211F" stroke-width="0.0368795"/>
<path d="M11.5498 1.67656C11.9187 1.43515 12.214 1.5911 12.1988 1.24438H12.9269C12.5565 1.63276 11.8069 1.62136 11.5498 1.67656Z" fill="#67211F" fill-opacity="0.56"/>
<path d="M6.05622 1.72308C5.68732 1.47921 5.34121 1.61137 5.35639 1.26111L4.88123 1.27601C5.25159 1.66835 5.79916 1.66732 6.05622 1.72308Z" fill="#67211F"/>
<path d="M8.90176 1.30466L8.81891 2.02384L8.97106 2.01348L8.90176 1.30466Z" fill="#67211F" stroke="#67211F" stroke-width="0.0894087"/>
<path d="M6.90726 1.78959C6.64188 1.77248 6.48216 1.75625 6.2628 1.73953C6.05471 3.28727 5.9554 4.34646 6.49994 5.83182C6.85585 5.90928 7.22719 5.95707 7.58316 6.02709C6.81467 4.59441 6.79198 3.2278 6.90726 1.78959Z" fill="#D60000" stroke="#67211F" stroke-width="0.0368795"/>
<path d="M6.46996 1.76232L6.27997 1.7458L6.23945 2.02928L6.46996 1.76232Z" fill="#398F00" stroke="#67211F" stroke-width="0.00745073"/>
<path d="M6.14991 2.81877L6.87796 1.99036L6.88718 1.80417L6.47026 1.76345L6.2403 2.02976L6.14991 2.81877Z" fill="#FF7F00" stroke="#67211F" stroke-width="0.00745073"/>
<path d="M6.62487 2.27196C6.62487 2.27196 6.39702 2.01178 6.31671 1.94157L6.24006 2.03034L6.15731 2.81196C6.26974 2.68127 6.62487 2.27196 6.62487 2.27196Z" fill="#D60000" stroke="#67211F" stroke-width="0.00745073"/>
<path d="M6.83736 2.89144C6.84097 2.56995 6.85026 2.37064 6.87563 1.99025L6.15523 2.81127C6.12695 3.13912 6.1193 3.32005 6.11003 3.6379L6.83736 2.89144Z" fill="#007FFF" stroke="#67211F" stroke-width="0.00596058"/>
<path d="M6.66315 3.06909L6.31039 2.63402L6.15709 2.81156C6.13445 3.1351 6.12337 3.31464 6.11188 3.6382L6.66315 3.06909Z" fill="#398F00" stroke="#67211F" stroke-width="0.00596058"/>
<path d="M6.68594 3.82153L6.34063 3.40143L6.11094 3.63794C6.11558 3.97325 6.13703 4.12244 6.15739 4.39828L6.68594 3.82153Z" fill="#D60000" stroke="#67211F" stroke-width="0.00596058"/>
<path d="M6.65052 4.67192L6.30528 4.24436L6.15976 4.39962C6.21743 4.74282 6.23182 4.83235 6.29028 5.08615L6.65052 4.67192Z" fill="#007FFF" stroke="#67211F" stroke-width="0.00596058"/>
<path d="M6.73397 5.3793L6.39625 4.95926L6.28893 5.08502C6.36956 5.40607 6.37721 5.39868 6.45091 5.64517L6.73397 5.3793Z" fill="#FF7F00" stroke="#67211F" stroke-width="0.00596058"/>
<path d="M6.91075 5.89601L6.60311 5.50602L6.45014 5.64631C6.47238 5.7061 6.50207 5.78085 6.51691 5.81823L6.91075 5.89601Z" fill="#007FFF" stroke="#67211F" stroke-width="0.00596058"/>
<path d="M6.87046 3.62283C6.84566 3.37215 6.83683 3.21758 6.83895 2.89241L6.3413 3.40236C6.56654 3.67245 6.52154 3.61247 6.68661 3.82246L6.87046 3.62283Z" fill="#FF7F00" stroke="#67211F" stroke-width="0.00596058"/>
<path d="M6.95567 4.31497C6.92736 4.08377 6.89047 3.96425 6.87066 3.62881L6.30383 4.2425C6.52341 4.52882 6.47982 4.46457 6.64913 4.66253L6.95567 4.31497Z" fill="#398F00" stroke="#67211F" stroke-width="0.00596058"/>
<path d="M7.12191 4.98161C7.0558 4.73519 7.01878 4.63057 6.95326 4.3171L6.39374 4.96065C6.56627 5.18561 6.56627 5.18561 6.73899 5.38821L7.12191 4.98161Z" fill="#D60000" stroke="#67211F" stroke-width="0.00596058"/>
<path d="M7.32236 5.54124C7.14977 5.32373 7.17227 5.35372 6.99223 5.12126L6.60191 5.50544C6.77443 5.7304 6.74441 5.69289 6.90196 5.89537L7.32236 5.54124Z" fill="#398F00" stroke="#67211F" stroke-width="0.00596058"/>
<path d="M7.1229 4.98069L6.99268 5.12117L7.32282 5.54114L7.3304 5.54121L7.1229 4.98069Z" fill="#007FFF" stroke="#67211F" stroke-width="0.00596058"/>
<path d="M6.90415 3.97226L6.86917 3.63669L6.82326 3.68101L6.75432 3.75494L6.90415 3.97226Z" fill="#007FFF" stroke="#67211F" stroke-width="0.00596058"/>
<path d="M7.10959 5.72544L7.33131 5.53357C7.41009 5.72515 7.45865 5.82745 7.55477 6.00481L7.28205 5.95784L7.10959 5.72544Z" fill="#FF7F00" stroke="#67211F" stroke-width="0.00447043"/>
<g filter="url(#filter0_d_1193_1010)">
<path d="M8.05772 2.87405L8.18144 2.6852C8.18144 2.6852 8.31586 3.23909 8.22202 3.59342C8.1474 3.87516 7.87229 4.24281 7.87229 4.24281C7.74638 4.56025 7.75443 4.73435 7.82269 5.0423L7.5716 5.33382C7.5716 5.33382 7.49396 4.93017 7.36852 4.73221C7.18652 4.44499 6.88622 4.5231 6.70104 4.27066C6.42684 3.89688 6.56901 3.10774 6.56901 3.10774L6.79149 3.29795C6.79149 3.29795 6.92633 3.10147 7.0581 2.8195C7.10529 2.71851 7.15208 2.60657 7.19215 2.48875C7.25341 2.30866 7.32161 2.01905 7.32161 2.01905L7.45023 2.27896L7.55367 2.14076C7.55367 2.14076 7.56269 2.33998 7.60086 2.45138C7.68846 2.70706 7.78906 2.80013 8.05772 2.87405Z" fill="#939297"/>
<path d="M8.05772 2.87405C8.10604 2.8003 8.18144 2.6852 8.18144 2.6852C8.18144 2.6852 8.31586 3.23909 8.22202 3.59342C8.1474 3.87516 7.87229 4.24281 7.87229 4.24281C7.74638 4.56025 7.75443 4.73435 7.82269 5.0423L7.5716 5.33382C7.5716 5.33382 7.49396 4.93017 7.36852 4.73221C7.18652 4.44499 6.88622 4.5231 6.70104 4.27066C6.42684 3.89688 6.56901 3.10774 6.56901 3.10774L6.79149 3.29795M8.05772 2.87405C7.78906 2.80013 7.68846 2.70706 7.60086 2.45138C7.56269 2.33998 7.55367 2.14076 7.55367 2.14076L7.45023 2.27896M8.05772 2.87405C8.05036 2.90078 7.83427 3.36177 7.83427 3.36177C7.83427 3.36177 7.66529 3.04228 7.58931 2.82562M6.79149 3.29795C6.91877 3.44251 6.93793 3.53698 6.974 3.70447L7.13918 3.10513L7.39123 3.47307M6.79149 3.29795C6.79149 3.29795 6.92633 3.10147 7.0581 2.8195C7.10529 2.71851 7.15208 2.60657 7.19215 2.48875C7.25341 2.30866 7.32161 2.01905 7.32161 2.01905L7.45023 2.27896M7.45023 2.27896C7.45023 2.27896 7.51625 2.61731 7.58931 2.82562M7.58931 2.82562L7.43525 2.67213L7.39123 3.47307M7.39123 3.47307L7.36852 3.86886" stroke="#F8F7FC" stroke-width="0.0368795"/>
</g>
<path d="M5.75614 5.82095C5.7008 5.68764 5.54988 5.61972 5.41405 5.66877C5.21031 5.73543 5.01412 5.8222 4.82672 5.92659C4.32869 6.20076 3.90234 6.58938 3.5829 7.05848C3.49486 7.17796 3.5175 7.34523 3.63446 7.43578C3.69609 7.48734 3.77658 7.5125 3.85707 7.50244C3.91743 7.49363 3.97277 7.46471 4.01553 7.42069C4.49847 6.94781 5.03927 6.53781 5.62408 6.20076L5.63792 6.19321C5.77123 6.12153 5.82405 5.95677 5.75614 5.82095Z" fill="#422B0D"/>
<path d="M12.2011 5.69546C12.2564 5.56215 12.4074 5.49423 12.5432 5.54328C12.7457 5.60868 12.9419 5.69294 13.1293 5.79481C13.6273 6.06898 14.0536 6.45634 14.3743 6.92671C14.4611 7.04618 14.4385 7.21219 14.3228 7.304C14.2612 7.35557 14.1807 7.37946 14.1002 7.37066C14.0398 7.36186 13.9845 7.33293 13.9417 7.28891C13.4588 6.81603 12.918 6.40604 12.3332 6.06898L12.3193 6.06144C12.1898 5.98975 12.137 5.83003 12.2011 5.69546Z" fill="#422B0D"/>
<defs>
<filter id="filter0_d_1193_1010" x="6.51367" y="1.96472" width="1.88828" height="3.52329" filterUnits="userSpaceOnUse" color-interpolation-filters="sRGB">
<feFlood flood-opacity="0" result="BackgroundImageFix"/>
<feColorMatrix in="SourceAlpha" type="matrix" values="0 0 0 0 0 0 0 0 0 0 0 0 0 0 0 0 0 0 127 0" result="hardAlpha"/>
<feOffset dx="0.0745073" dy="0.0596058"/>
<feGaussianBlur stdDeviation="0.0268226"/>
<feComposite in2="hardAlpha" operator="out"/>
<feColorMatrix type="matrix" values="0 0 0 0 0 0 0 0 0 0 0 0 0 0 0 0 0 0 0.25 0"/>
<feBlend mode="normal" in2="BackgroundImageFix" result="effect1_dropShadow_1193_1010"/>
<feBlend mode="normal" in="SourceGraphic" in2="effect1_dropShadow_1193_1010" result="shape"/>
</filter>
<radialGradient id="paint0_radial_1193_1010" cx="0" cy="0" r="1" gradientUnits="userSpaceOnUse" gradientTransform="translate(8.79622 9.80594) scale(7.16361 7.16358)">
<stop offset="0.5" stop-color="#FDE030"/>
<stop offset="0.92" stop-color="#F7C02B"/>
<stop offset="1" stop-color="#F4A223"/>
</radialGradient>
</defs>
</svg>
