<svg width="18" height="18" viewBox="0 0 18 18" fill="none" xmlns="http://www.w3.org/2000/svg">
<path d="M8.78939 16.1896C5.52346 16.1896 2 14.1411 2 9.64608C2 5.15105 5.52346 3.10254 8.78939 3.10254C10.6038 3.10254 12.2777 3.69953 13.5185 4.78817C14.8647 5.98216 15.5788 7.6678 15.5788 9.64608C15.5788 11.6244 14.8647 13.2983 13.5185 14.4923C12.2777 15.5809 10.5921 16.1896 8.78939 16.1896Z" fill="url(#paint0_radial_1193_1755)"/>
<path d="M14.392 5.78516C15.0159 6.79185 15.3414 7.99053 15.3414 9.32382C15.3414 11.3021 14.6273 12.976 13.2811 14.17C12.0403 15.2587 10.3547 15.8674 8.55198 15.8674C6.43791 15.8674 4.22082 15.007 2.91211 13.182C4.17166 15.2493 6.54092 16.2185 8.7861 16.2185C10.5888 16.2185 12.2744 15.6098 13.5153 14.5212C14.8614 13.3272 15.5755 11.6533 15.5755 9.67499C15.5755 8.18367 15.1693 6.85858 14.392 5.78516Z" fill="#EB8F00"/>
<path d="M7.03014 9.04616L7.00673 9.06957L6.9482 9.1281C6.92479 9.15151 6.90138 9.16321 6.86626 9.19833C6.8288 9.22877 6.79017 9.25569 6.7492 9.28027C6.70238 9.30368 6.65556 9.3388 6.60873 9.36221C6.56191 9.38562 6.50338 9.40904 6.44485 9.43245C6.38749 9.45352 6.32896 9.46874 6.26926 9.47927C6.20722 9.48981 6.14518 9.49332 6.08197 9.49098H5.97662C5.94852 9.49332 5.92043 9.48864 5.89468 9.47927C5.83498 9.46874 5.77645 9.45352 5.71909 9.43245C5.6629 9.41372 5.60788 9.39031 5.55521 9.36221C5.50838 9.3388 5.46156 9.30368 5.41474 9.28027C5.3328 9.22174 5.26256 9.16321 5.21574 9.1281L5.1455 9.05786L5.12209 9.03445C4.97109 8.89866 4.74516 8.8893 4.58362 9.01104C4.47008 9.1 4.43145 9.25452 4.48998 9.38562L4.51339 9.42074C4.52626 9.45352 4.54265 9.48395 4.56021 9.51439C4.63162 9.63496 4.71824 9.74499 4.81774 9.84215C4.8868 9.91004 4.96172 9.97325 5.04015 10.0294C5.13263 10.0938 5.22979 10.1488 5.3328 10.1933C5.44517 10.2448 5.5634 10.2835 5.68397 10.3104L5.88297 10.3455C5.91809 10.3455 5.96491 10.3572 5.97662 10.3572H6.07026C6.2002 10.3572 6.32896 10.3455 6.45656 10.3221C6.5783 10.2975 6.69536 10.2577 6.80773 10.205C6.91074 10.1605 7.0079 10.1055 7.10038 10.0411C7.18232 9.98847 7.25724 9.92526 7.32279 9.85386C7.38015 9.80118 7.43165 9.74265 7.47497 9.67827C7.49838 9.65486 7.51008 9.61974 7.53349 9.59633C7.55691 9.57292 7.56861 9.54951 7.58032 9.52609C7.60022 9.498 7.61661 9.46639 7.62714 9.43245L7.63885 9.40904C7.71142 9.24515 7.63651 9.05201 7.47262 8.97943C7.45858 8.97358 7.44336 8.96773 7.42814 8.96422C7.29118 8.90452 7.13198 8.93729 7.03014 9.04616Z" fill="#422B0D"/>
<path d="M12.286 9.04616L12.2626 9.06957L12.2041 9.1281C12.1807 9.15151 12.1572 9.16321 12.1221 9.19833C12.0847 9.22877 12.046 9.25569 12.0051 9.28027C11.9582 9.30368 11.9114 9.3388 11.8646 9.36221C11.8178 9.38562 11.7592 9.40904 11.7007 9.43245C11.6434 9.45352 11.5848 9.46874 11.5251 9.47927C11.4631 9.48981 11.401 9.49332 11.3378 9.49098H11.2325C11.2044 9.49215 11.1775 9.48746 11.1505 9.47927C11.0908 9.46874 11.0323 9.45352 10.9749 9.43245C10.9188 9.41372 10.8637 9.39031 10.8111 9.36221C10.7642 9.3388 10.7174 9.30368 10.6706 9.28027C10.5887 9.22174 10.5184 9.16321 10.4716 9.1281L10.4014 9.05786L10.378 9.03445C10.2269 8.89866 10.001 8.8893 9.83948 9.01104C9.72594 9.1 9.68731 9.25452 9.74584 9.38562L9.76925 9.42074C9.78212 9.45352 9.79851 9.48395 9.81607 9.51439C9.88748 9.63496 9.9741 9.74499 10.0736 9.84215C10.1427 9.91004 10.2176 9.97325 10.296 10.0294C10.3885 10.0938 10.4856 10.1488 10.5887 10.1933C10.701 10.2448 10.8193 10.2835 10.9398 10.3104L11.1388 10.3455C11.1739 10.3455 11.2208 10.3572 11.2325 10.3572H11.3261C11.4561 10.3572 11.5848 10.3455 11.7124 10.3221C11.8342 10.2975 11.9512 10.2577 12.0636 10.205C12.1666 10.1605 12.2638 10.1055 12.3562 10.0411C12.4405 9.99081 12.5154 9.9276 12.5786 9.85386C12.636 9.80118 12.6875 9.74265 12.7308 9.67827C12.7542 9.65486 12.7659 9.61974 12.7894 9.59633C12.8128 9.57292 12.8245 9.54951 12.8362 9.52609C12.8561 9.498 12.8725 9.46639 12.883 9.43245L12.8947 9.40904C12.9673 9.24515 12.8924 9.05201 12.7285 8.97943C12.7144 8.97358 12.6992 8.96773 12.684 8.96422C12.547 8.90452 12.3878 8.93729 12.286 9.04616Z" fill="#422B0D"/>
<path d="M7.86371 14.2662C7.41538 14.258 7.05835 13.887 7.06654 13.4386C7.06889 13.2876 7.11454 13.1401 7.19648 13.0137C7.55936 12.4518 8.13295 12.1592 8.8353 12.1592C9.53765 12.1592 10.1112 12.4518 10.4741 13.0137C10.6368 13.2595 10.6497 13.5744 10.5092 13.8331C10.3699 14.093 10.1019 14.2592 9.80688 14.2662C9.71441 14.2686 9.6231 14.2533 9.53765 14.2194C9.31173 14.141 9.0741 14.1012 8.8353 14.1023C8.5965 14.1 8.35887 14.1398 8.13295 14.2194C8.04632 14.251 7.95502 14.2674 7.86371 14.2662Z" fill="#422B0D"/>
<path d="M4.72814 2.26055H5.24609C5.24609 2.26055 7.37356 1.98837 8.81225 2.00039C10.1837 2.01184 12.2001 2.26055 12.2001 2.26055H13.0152C13.845 3.54892 14.4414 4.87199 14.7148 6.23108C12.034 5.51399 8.81225 7.02965 8.81225 7.02965C8.81225 7.02965 5.54207 5.54044 2.93555 6.07568C3.35276 4.68442 3.86696 3.42188 4.72814 2.26055Z" fill="#7F2125"/>
<path d="M4.72814 2.26055H5.24609C5.24609 2.26055 7.37356 1.98837 8.81225 2.00039C10.1837 2.01184 12.2001 2.26055 12.2001 2.26055H13.0152M4.72814 2.26055C3.86696 3.42188 3.35276 4.68442 2.93555 6.07568C5.54207 5.54044 8.81225 7.02965 8.81225 7.02965C8.81225 7.02965 12.034 5.51399 14.7148 6.23108C14.4414 4.87199 13.845 3.54892 13.0152 2.26055M4.72814 2.26055C5.40185 2.94854 6.36166 2.51635 8.81225 3.04579C11.031 2.53235 12.0993 2.98261 13.0152 2.26055" stroke="#67211F" stroke-width="0.0633296"/>
<path d="M8.82803 7.00717L8.8359 3.04923C10.504 2.56719 11.7705 2.94353 13.022 2.28394C13.5671 3.07203 14.4687 4.54768 14.7216 6.21975C12.5552 5.69523 10.2645 6.38764 8.82803 7.00717Z" fill="#67211F" stroke="#67211F" stroke-width="0.0397466"/>
<path d="M5.96792 2.70705C5.58916 2.46848 5.23381 2.59776 5.24939 2.25513L4.76154 2.2697C5.14179 2.6535 5.70399 2.6525 5.96792 2.70705Z" fill="#67211F"/>
<path d="M11.6058 2.66349C11.9845 2.42733 12.2877 2.57989 12.2721 2.24072H13.0196C12.6394 2.62065 11.8697 2.60949 11.6058 2.66349Z" fill="#67211F" fill-opacity="0.56"/>
<path d="M8.88529 2.29877L8.80022 3.0023L8.95644 2.99216L8.88529 2.29877Z" fill="#67211F" stroke="#67211F" stroke-width="0.0963595"/>
<path d="M6.84012 2.78708C6.56474 2.7726 6.39894 2.75813 6.17129 2.74365C6.02967 4.27425 5.97531 4.65325 6.27038 6.16927C6.67057 6.26779 6.97319 6.36074 7.31865 6.46081C6.50857 5.07525 6.73368 4.18515 6.84012 2.78708Z" fill="#D60000" stroke="#67211F" stroke-width="0.0397466"/>
<path d="M6.39035 2.76545L6.19364 2.75098L6.1543 3.02601L6.39035 2.76545Z" fill="#398F00" stroke="#67211F" stroke-width="0.00802996"/>
<path d="M6.06445 3.79389L6.81197 2.98325L6.81984 2.8023L6.38707 2.76611L6.15101 3.02668L6.06445 3.79389Z" fill="#FF7F00" stroke="#67211F" stroke-width="0.00802996"/>
<path d="M6.55597 3.25767C6.55597 3.25767 6.31729 3.00676 6.23336 2.93921L6.15467 3.02606L6.07599 3.78604C6.19139 3.65817 6.55597 3.25767 6.55597 3.25767Z" fill="#D60000" stroke="#67211F" stroke-width="0.00802996"/>
<path d="M6.78267 3.85917C6.78348 3.54682 6.7913 3.35313 6.81415 2.9834L6.0745 3.78679C6.04816 4.10551 6.04188 4.28133 6.03516 4.59018L6.78267 3.85917Z" fill="#007FFF" stroke="#67211F" stroke-width="0.00642396"/>
<path d="M6.60169 4.0321L6.23187 3.6123L6.0745 3.78601C6.05397 4.1005 6.04412 4.275 6.03516 4.58941L6.60169 4.0321Z" fill="#398F00" stroke="#67211F" stroke-width="0.00642396"/>
<path d="M6.63317 4.76323L6.27121 4.35791L6.03516 4.58952C6.04302 4.91522 6.06663 5.05998 6.09027 5.32778L6.63317 4.76323Z" fill="#D60000" stroke="#67211F" stroke-width="0.00642396"/>
<path d="M6.60335 5.58895L6.24139 5.17639L6.09189 5.32839C6.15484 5.66133 6.17057 5.74818 6.23352 5.99427L6.60335 5.58895Z" fill="#007FFF" stroke="#67211F" stroke-width="0.00642396"/>
<path d="M6.69276 6.27641L6.33868 5.87109L6.22852 5.99414L6.27825 6.15543L6.69276 6.27641Z" fill="#FF7F00" stroke="#67211F" stroke-width="0.00642396"/>
<path d="M6.82229 4.56722C6.79429 4.32391 6.78372 4.17381 6.78294 3.85791L6.27148 4.35732C6.50754 4.61788 6.46033 4.55998 6.63344 4.76264L6.82229 4.56722Z" fill="#FF7F00" stroke="#67211F" stroke-width="0.00642396"/>
<path d="M6.91498 5.24108C6.88351 5.0167 6.84416 4.9009 6.82056 4.5752L6.23828 5.17594C6.46863 5.45231 6.42283 5.39024 6.60024 5.58119L6.91498 5.24108Z" fill="#398F00" stroke="#67211F" stroke-width="0.00642396"/>
<path d="M7.09547 5.88514C7.02466 5.64629 6.98531 5.54496 6.91449 5.24097L6.34009 5.87066C6.52107 6.0878 6.52107 6.0878 6.70204 6.28322L7.09547 5.88514Z" fill="#D60000" stroke="#67211F" stroke-width="0.00642396"/>
<path d="M7.32049 6.4467C7.13951 6.2368 7.15087 6.2472 6.96203 6.02283L6.69153 6.27178C7.02347 6.35377 7.01765 6.35195 7.01765 6.35195L7.32049 6.4467Z" fill="#398F00" stroke="#67211F" stroke-width="0.00642396"/>
<path d="M7.0947 5.88525L6.96094 6.02277L7.30716 6.42809H7.31502L7.0947 5.88525Z" fill="#007FFF" stroke="#67211F" stroke-width="0.00642396"/>
<path d="M6.86245 4.90822L6.82311 4.58252L6.7759 4.62595L6.70508 4.69833L6.86245 4.90822Z" fill="#007FFF" stroke="#67211F" stroke-width="0.00642396"/>
<g filter="url(#filter0_d_1193_1755)">
<path d="M7.86097 3.68019L7.988 3.49545C7.988 3.49545 8.12601 4.03728 8.02966 4.3839C7.95305 4.65951 7.67059 5.01916 7.67059 5.01916C7.54131 5.32969 7.54958 5.5 7.61966 5.80125L7.36186 6.08642C7.36186 6.08642 7.28215 5.69156 7.15336 5.4979C6.9665 5.21694 6.65818 5.29335 6.46805 5.0464C6.18653 4.68075 6.33249 3.9088 6.33249 3.9088L6.56092 4.09487C6.56092 4.09487 6.69936 3.90267 6.83465 3.62683C6.8831 3.52804 6.93114 3.41853 6.97228 3.30328C7.03517 3.12711 7.1052 2.8438 7.1052 2.8438L7.23725 3.09806L7.34345 2.96287C7.34345 2.96287 7.35271 3.15775 7.3919 3.26673C7.48184 3.51683 7.58514 3.60788 7.86097 3.68019Z" fill="url(#paint1_linear_1193_1755)"/>
<path d="M7.86097 3.68019C7.91058 3.60805 7.988 3.49545 7.988 3.49545C7.988 3.49545 8.12601 4.03728 8.02966 4.3839C7.95305 4.65951 7.67059 5.01916 7.67059 5.01916C7.54131 5.32969 7.54958 5.5 7.61966 5.80125L7.36186 6.08642C7.36186 6.08642 7.28215 5.69156 7.15336 5.4979C6.9665 5.21694 6.65818 5.29335 6.46805 5.0464C6.18653 4.68075 6.33249 3.9088 6.33249 3.9088L6.56092 4.09487M7.86097 3.68019C7.58514 3.60788 7.48184 3.51683 7.3919 3.26673C7.35271 3.15775 7.34345 2.96287 7.34345 2.96287L7.23725 3.09806M7.86097 3.68019C7.85341 3.70634 7.63155 4.15729 7.63155 4.15729C7.63155 4.15729 7.45806 3.84476 7.38005 3.63282M6.56092 4.09487C6.6916 4.23628 6.71127 4.32869 6.7483 4.49253L6.9179 3.90624L7.17667 4.26618L7.22187 3.48267L7.38005 3.63282M6.56092 4.09487C6.56092 4.09487 6.69936 3.90267 6.83465 3.62683C6.8831 3.52804 6.93114 3.41853 6.97228 3.30328C7.03517 3.12711 7.1052 2.8438 7.1052 2.8438L7.23725 3.09806M7.23725 3.09806C7.23725 3.09806 7.30504 3.42904 7.38005 3.63282" stroke="#F8F7FC" stroke-width="0.0397466"/>
</g>
<path d="M11.1652 5.68603C11.1254 5.66379 11.0821 5.6474 11.0364 5.6392C10.9896 5.61579 10.9311 5.60409 10.8843 5.58068L10.6384 5.51044C10.5448 5.47532 10.4394 5.45191 10.3458 5.41679C10.1585 5.35826 9.92438 5.20609 9.80732 5.47532C9.77571 5.53268 9.75933 5.59706 9.7605 5.66262C9.7605 5.75626 9.83073 5.80308 9.91267 5.8382C9.9993 5.87683 10.0894 5.90727 10.1819 5.93185C10.2112 5.94707 10.2428 5.95409 10.2756 5.95526C10.299 5.95526 10.3224 5.96697 10.3224 5.99038C10.3224 6.01379 10.299 6.01379 10.2873 6.0255C10.2756 6.0372 10.2404 6.06061 10.217 6.07232L10.1819 6.09573C10.1187 6.14255 10.052 6.18586 9.98291 6.22449C9.93608 6.25961 9.87756 6.29473 9.83073 6.32985C9.80498 6.34155 9.78157 6.35677 9.7605 6.37667C9.69143 6.42349 9.62471 6.475 9.5615 6.52884L9.53809 6.55226C9.47487 6.60259 9.42922 6.67283 9.40932 6.75125C9.39762 6.85661 9.47956 6.90343 9.5732 6.95025L9.67856 6.98537C9.80147 7.03102 9.92672 7.07082 10.0531 7.10243C10.1468 7.13755 10.2521 7.16096 10.3458 7.19607C10.5331 7.2546 10.7672 7.40678 10.8843 7.13755C10.9159 7.08019 10.9323 7.01581 10.9311 6.95025C10.9194 6.86714 10.8597 6.79808 10.7789 6.77467C10.6923 6.73604 10.6021 6.7056 10.5097 6.68102C10.4863 6.68102 10.4746 6.66931 10.4511 6.65761C10.4277 6.6459 10.416 6.6459 10.4043 6.6459C10.3809 6.62249 10.4277 6.59908 10.4394 6.58737C10.4886 6.56045 10.5354 6.52884 10.5799 6.49373C10.6291 6.46212 10.6759 6.427 10.7204 6.38837C10.7438 6.37667 10.7672 6.35326 10.7906 6.34155C10.8374 6.30643 10.896 6.27132 10.9428 6.2362C11.0716 6.13085 11.3642 6.00208 11.2705 5.80309C11.246 5.75626 11.2097 5.71529 11.1652 5.68603Z" fill="#5F7AFF"/>
<path d="M13.496 4.57305C13.4515 4.55198 13.4035 4.53676 13.3556 4.52622C13.297 4.51452 13.2385 4.49111 13.18 4.4794C13.0863 4.45599 12.9927 4.44428 12.9107 4.42087C12.8054 4.39746 12.6883 4.36234 12.583 4.33893C12.3723 4.29211 12.103 4.15164 11.9977 4.45599C11.9696 4.52271 11.9567 4.59412 11.9626 4.66669C11.9743 4.77204 12.0562 4.81887 12.1498 4.84228C12.2458 4.87506 12.343 4.90198 12.4425 4.92422C12.4776 4.93593 12.5127 4.93593 12.5478 4.94763C12.583 4.95934 12.5947 4.95934 12.5947 4.98275C12.5947 5.00616 12.5713 5.01787 12.5596 5.02957C12.5478 5.04128 12.5127 5.06469 12.4893 5.0881C12.4659 5.11151 12.4659 5.09981 12.4542 5.11151C12.384 5.17004 12.3137 5.21686 12.2435 5.27539L12.0796 5.40416C12.0562 5.41586 12.0328 5.43927 12.0094 5.45098C11.9391 5.50951 11.8689 5.56804 11.8104 5.62657C11.7987 5.63827 11.787 5.63827 11.787 5.64998C11.7156 5.70851 11.6699 5.79279 11.6582 5.88409C11.6582 6.00115 11.7518 6.04798 11.8572 6.0948L11.9743 6.12992C12.1089 6.17206 12.2458 6.20717 12.384 6.23527C12.4893 6.25868 12.6064 6.2938 12.7117 6.31721C12.9224 6.36403 13.1917 6.5045 13.297 6.20015C13.3251 6.13343 13.338 6.06202 13.3321 5.98945C13.3204 5.88409 13.2385 5.83727 13.1448 5.81386C13.0453 5.77991 12.9435 5.75182 12.8405 5.73192C12.8171 5.73192 12.7937 5.72021 12.7703 5.72021C12.7468 5.72021 12.7234 5.72021 12.7117 5.70851C12.7 5.6968 12.7351 5.66168 12.7468 5.64998C12.7937 5.61486 12.8405 5.57974 12.899 5.53292L13.0512 5.41586C13.077 5.39362 13.1039 5.37372 13.1331 5.35733C13.1905 5.31753 13.2443 5.27422 13.297 5.22857C13.4258 5.09981 13.7418 4.94763 13.6131 4.72522C13.5979 4.65967 13.5545 4.60465 13.496 4.57305Z" fill="#5F7AFF"/>
<path d="M16.5948 4.211C16.5503 4.13609 16.4859 4.07405 16.4075 4.03542C16.3466 4.01083 16.2846 3.99093 16.2202 3.97689C16.1441 3.95231 16.0657 3.93241 15.9861 3.91836C15.869 3.88324 15.7403 3.85983 15.6232 3.83642C15.4827 3.8013 15.3306 3.75448 15.1901 3.71936C14.9092 3.64913 14.558 3.46183 14.4058 3.87154C14.3672 3.9605 14.352 4.05649 14.359 4.15247C14.3801 4.27656 14.4807 4.37137 14.6048 4.38659C14.7359 4.42873 14.8682 4.46385 15.0028 4.49194C15.0496 4.50365 15.0964 4.51535 15.1316 4.52706C15.1667 4.53877 15.2018 4.53877 15.2018 4.57388C15.1971 4.59964 15.1796 4.62188 15.155 4.63241C15.1199 4.65582 15.0964 4.67924 15.0613 4.70265C15.0485 4.71669 15.0321 4.72957 15.0145 4.73776C14.9209 4.808 14.8272 4.87823 14.7453 4.94847L14.5346 5.12406C14.5053 5.14981 14.4737 5.17322 14.4409 5.19429C14.3473 5.26452 14.2653 5.34647 14.1717 5.42841L14.1366 5.46352C14.0429 5.53844 13.9832 5.64847 13.9727 5.76787C13.9727 5.92005 14.1015 5.99028 14.2419 6.04881C14.2911 6.06988 14.3414 6.0851 14.3941 6.09564H14.4058C14.5814 6.15417 14.7687 6.18928 14.956 6.23611L15.3891 6.34146C15.67 6.41169 16.0329 6.59898 16.1734 6.18928C16.212 6.10032 16.2272 6.00433 16.2202 5.90834C16.1991 5.78426 16.0985 5.68944 15.9744 5.67423C15.8456 5.62506 15.7122 5.58526 15.5764 5.55717C15.5413 5.54546 15.5179 5.54546 15.4827 5.53376C15.457 5.53376 15.4336 5.52556 15.4125 5.51035C15.3774 5.47523 15.4359 5.44011 15.4593 5.42841C15.5284 5.38158 15.5951 5.33008 15.6583 5.27623C15.7286 5.2177 15.7988 5.17088 15.8573 5.11235C15.8948 5.08894 15.9311 5.06084 15.9627 5.03041C16.0376 4.9789 16.109 4.9192 16.1734 4.85482C16.349 4.70265 16.7587 4.49194 16.5948 4.211Z" fill="#5F7AFF"/>
<defs>
<filter id="filter0_d_1193_1755" x="6.2746" y="2.78735" width="1.94741" height="3.46361" filterUnits="userSpaceOnUse" color-interpolation-filters="sRGB">
<feFlood flood-opacity="0" result="BackgroundImageFix"/>
<feColorMatrix in="SourceAlpha" type="matrix" values="0 0 0 0 0 0 0 0 0 0 0 0 0 0 0 0 0 0 127 0" result="hardAlpha"/>
<feOffset dx="0.0802996" dy="0.0642397"/>
<feGaussianBlur stdDeviation="0.0289078"/>
<feComposite in2="hardAlpha" operator="out"/>
<feColorMatrix type="matrix" values="0 0 0 0 0 0 0 0 0 0 0 0 0 0 0 0 0 0 0.25 0"/>
<feBlend mode="normal" in2="BackgroundImageFix" result="effect1_dropShadow_1193_1755"/>
<feBlend mode="normal" in="SourceGraphic" in2="effect1_dropShadow_1193_1755" result="shape"/>
</filter>
<radialGradient id="paint0_radial_1193_1755" cx="0" cy="0" r="1" gradientUnits="userSpaceOnUse" gradientTransform="translate(8.78939 9.64607) scale(6.66761 6.66758)">
<stop offset="0.5" stop-color="#FDE030"/>
<stop offset="0.92" stop-color="#F7C02B"/>
<stop offset="1" stop-color="#F4A223"/>
</radialGradient>
<linearGradient id="paint1_linear_1193_1755" x1="7.52756" y1="2.94863" x2="6.78435" y2="5.94308" gradientUnits="userSpaceOnUse">
<stop stop-color="#C9C9C9"/>
<stop offset="1" stop-color="#939297"/>
</linearGradient>
</defs>
</svg>
