<svg width="18" height="18" viewBox="0 0 18 18" fill="none" xmlns="http://www.w3.org/2000/svg">
<path d="M9.18136 16.9993C5.72688 16.9993 2 14.7511 2 9.8179C2 4.88469 5.72688 2.63647 9.18136 2.63647C11.1005 2.63647 12.8711 3.29167 14.1835 4.48643C15.6074 5.79682 16.3627 7.64677 16.3627 9.8179C16.3627 11.989 15.6074 13.8261 14.1835 15.1365C12.8711 16.3313 11.0881 16.9993 9.18136 16.9993Z" fill="url(#paint0_radial_1193_1794)"/>
<path d="M15.1151 5.54834C15.775 6.65318 16.1192 7.9687 16.1192 9.43196C16.1192 11.6031 15.364 13.4402 13.9401 14.7506C12.6276 15.9454 10.8447 16.6134 8.93789 16.6134C6.70177 16.6134 4.35668 15.6691 2.97241 13.6663C4.30468 15.9351 6.81072 16.9988 9.18552 16.9988C11.0923 16.9988 12.8753 16.3308 14.1877 15.136C15.6116 13.8256 16.3669 11.9885 16.3669 9.81737C16.3669 8.18067 15.9372 6.7264 15.1151 5.54834Z" fill="#EB8F00"/>
<path d="M13.896 11.0115C13.7227 10.6877 13.3463 10.5451 13.012 10.6775C11.8976 11.0372 10.5356 11.1695 9.16376 11.1708C7.84016 11.1759 6.52275 10.9845 5.2524 10.5991C4.91809 10.4668 4.54169 10.6094 4.36835 10.9331C4.19996 11.2556 4.32253 11.6294 4.46368 11.9519C5.26602 13.7659 7.01183 14.8501 9.15385 14.8566H9.17366C11.3157 14.8566 13.0045 13.8417 13.8007 12.0302C13.9418 11.7078 14.0644 11.3339 13.896 11.0115Z" fill="white"/>
<path d="M7.37303 9.04219L7.35446 9.0165L7.30122 8.94584L7.2356 8.87261C7.20836 8.8405 7.17616 8.80966 7.14521 8.77626C7.11426 8.74286 7.07587 8.71074 7.0412 8.68376C7.00901 8.65807 6.97434 8.63366 6.9372 8.61439C6.91244 8.60026 6.8852 8.5887 6.85672 8.58227C6.84805 8.58099 6.83938 8.58099 6.83072 8.58227C6.83072 8.58227 6.82329 8.58227 6.81957 8.58227H6.80967C6.82453 8.58227 6.77624 8.58227 6.8431 8.58227H6.775C6.75643 8.58227 6.76881 8.58227 6.775 8.58227H6.7849C6.7849 8.58227 6.79481 8.58227 6.7849 8.58227H6.77128C6.74281 8.5887 6.71557 8.59897 6.68957 8.61439C6.65366 8.63495 6.61775 8.65807 6.58556 8.68376C6.54965 8.71203 6.51498 8.74286 6.48279 8.77626C6.41717 8.84178 6.35898 8.90473 6.32183 8.95483L6.25745 9.03191L6.22897 9.0666C6.05067 9.27344 5.7498 9.30684 5.53312 9.14497C5.39445 9.04476 5.32387 8.87133 5.35111 8.69789C5.35111 8.69789 5.35978 8.64651 5.3833 8.55529C5.42045 8.42554 5.47245 8.29964 5.53807 8.18145C5.64332 7.98874 5.78571 7.82045 5.95657 7.68684C6.06925 7.59691 6.1943 7.52497 6.32802 7.47487C6.36517 7.45945 6.40355 7.44789 6.44193 7.43761C6.48279 7.42477 6.52365 7.41577 6.56575 7.40806L6.64128 7.3965L6.70442 7.38879H6.77252H6.87034H6.93348C6.97558 7.38879 7.01644 7.40036 7.0573 7.40678C7.13654 7.42091 7.21579 7.44275 7.29131 7.4723C7.42504 7.5224 7.55009 7.59434 7.66276 7.68427C7.83363 7.81788 7.97602 7.98618 8.08126 8.17888C8.11965 8.24568 8.15308 8.31634 8.18032 8.38828C8.20384 8.44609 8.22365 8.50391 8.23975 8.56429C8.24842 8.59512 8.25585 8.62595 8.25956 8.65678V8.6889C8.2967 8.95098 8.12089 9.19507 7.8683 9.23361C7.86211 9.2349 7.85592 9.2349 7.84973 9.23618C7.66895 9.26316 7.48818 9.18865 7.37303 9.04219Z" fill="#422B0D"/>
<path d="M12.264 9.04195L12.2442 9.01625L12.1909 8.9456L12.1253 8.87237C12.0981 8.84025 12.0659 8.80942 12.0349 8.77602C12.004 8.74261 11.9656 8.7105 11.9309 8.68352C11.8987 8.65782 11.8641 8.63342 11.8269 8.61415C11.8021 8.60001 11.7749 8.58845 11.7464 8.58203C11.7378 8.58074 11.7291 8.58074 11.7204 8.58203C11.7204 8.58203 11.713 8.58203 11.7093 8.58203H11.6994C11.7142 8.58203 11.6659 8.58203 11.7328 8.58203H11.6647C11.6461 8.58203 11.6585 8.58203 11.6647 8.58203H11.6746C11.6746 8.58203 11.6845 8.58203 11.6746 8.58203H11.661C11.6325 8.58845 11.6053 8.59873 11.5793 8.61415C11.5434 8.63342 11.5087 8.65782 11.4765 8.68352C11.4394 8.71178 11.4047 8.74261 11.3725 8.77602C11.3069 8.84154 11.2487 8.90449 11.2115 8.95459L11.1472 9.03167L11.1199 9.06636C10.9404 9.27319 10.6407 9.30659 10.4228 9.14472C10.2842 9.04452 10.2136 8.87108 10.2408 8.69765C10.2408 8.69765 10.2495 8.64626 10.2742 8.55505C10.3114 8.42401 10.3622 8.29811 10.429 8.1812C10.5343 7.9885 10.6754 7.82021 10.8463 7.6866C10.959 7.59667 11.084 7.52473 11.2177 7.47462C11.2549 7.45921 11.2933 7.44765 11.3316 7.43737C11.3725 7.42452 11.4134 7.41553 11.4555 7.40782L11.5322 7.39626L11.5941 7.38855H11.6622H11.76H11.8232C11.8653 7.38855 11.9062 7.40011 11.947 7.40654C12.0275 7.42067 12.1055 7.44251 12.181 7.47205C12.3147 7.52216 12.4398 7.5941 12.5525 7.68403C12.7233 7.81764 12.8657 7.98593 12.971 8.17863C13.0094 8.24544 13.0428 8.3161 13.07 8.38804C13.0936 8.44457 13.1134 8.50238 13.1295 8.56147C13.1381 8.59231 13.1456 8.62314 13.1493 8.65397V8.68609C13.1889 8.94817 13.0155 9.19354 12.763 9.23465C12.7592 9.23465 12.7555 9.23594 12.7518 9.23594C12.5673 9.26805 12.3804 9.19354 12.264 9.04195Z" fill="#422B0D"/>
<path d="M13.8006 11.4762C13.7894 11.4839 13.0329 12.071 11.6102 12.4513V10.9996C11.448 11.0253 11.2821 11.0471 11.115 11.0664V12.5669C10.5392 12.6851 9.95358 12.7506 9.36669 12.7635V11.1679H9.17106C9.07077 11.1679 8.97172 11.1679 8.87142 11.1679V12.7635C8.92467 12.7647 8.92467 12.766 8.87142 12.766L8.86895 12.7635C8.29568 12.7532 7.72488 12.6966 7.16028 12.5926V11.0266C6.99189 11.0034 6.82721 10.9764 6.66501 10.9469V12.4847C5.2015 12.1237 4.46603 11.5469 4.45613 11.5379C4.41527 11.5045 4.3645 11.4852 4.3125 11.4839C4.34717 11.6458 4.39917 11.8038 4.46851 11.9541C4.51184 12.053 4.55889 12.1481 4.60842 12.2432C5.25598 12.599 5.94812 12.8585 6.66501 13.014V13.0165V14.2807C6.82598 14.3616 6.99189 14.4348 7.16028 14.4978V13.1167C7.72488 13.2144 8.29692 13.2683 8.86895 13.2773L8.87142 13.2799C8.87019 13.2799 8.87019 13.2799 8.86895 13.2799V14.8485C8.96429 14.8485 9.06086 14.8588 9.15868 14.8588H9.17849C9.24164 14.8588 9.30231 14.8588 9.36421 14.8588V13.2773H9.35679H9.36421C9.9511 13.2658 10.5368 13.2041 11.115 13.0936V14.5338C11.2834 14.4747 11.4493 14.4053 11.6102 14.3269V12.9844C12.3655 12.8046 13.0923 12.5104 13.7659 12.1121C13.7783 12.0839 13.7931 12.0582 13.8055 12.0299C13.8959 11.8398 13.9553 11.6355 13.9789 11.4248C13.9157 11.4171 13.8513 11.4364 13.8006 11.4762Z" fill="#B3B3B3"/>
<path d="M13.9485 10.9428C13.7726 10.6177 13.395 10.4739 13.0582 10.6049C11.7879 10.989 10.4705 11.1804 9.1481 11.174C7.8245 11.1804 6.5071 10.989 5.23674 10.6049C4.90367 10.4739 4.52727 10.6152 4.35393 10.9389C4.18554 11.2614 4.30688 11.6352 4.44927 11.9577C4.51241 12.1028 4.58299 12.2454 4.66099 12.3829C4.66099 12.3829 4.40098 11.3834 4.62632 11.0931C4.70309 10.9697 4.83186 10.8927 4.97301 10.885C5.0312 10.885 5.08816 10.8952 5.14388 10.9132C6.43652 11.3076 7.77745 11.5067 9.12581 11.5042H9.16915C10.5175 11.5067 11.8584 11.3076 13.1511 10.9132C13.2068 10.8952 13.2638 10.885 13.322 10.885C13.4631 10.8927 13.5931 10.9697 13.6699 11.0931C13.8989 11.3834 13.6352 12.3868 13.6352 12.3868C13.712 12.2493 13.7887 12.108 13.8531 11.9615C13.9943 11.6391 14.1169 11.2665 13.9485 10.9428Z" fill="#EB8F00"/>
<path d="M5.29672 1.26394H5.79542C5.79542 1.26394 7.84387 0.988217 9.22912 1.00039C10.5496 1.012 12.4911 1.26394 12.4911 1.26394H13.276C14.075 2.56909 14.6492 3.90939 14.9124 5.28617C12.4911 5.58671 9.26809 6.29394 9.26809 6.29394C9.26809 6.29394 6.21484 5.66542 3.57071 5.12875C3.97243 3.71937 4.46753 2.44039 5.29672 1.26394Z" fill="#7F2125"/>
<path d="M5.29672 1.26394H5.79542C5.79542 1.26394 7.84387 0.988217 9.22912 1.00039C10.5496 1.012 12.4911 1.26394 12.4911 1.26394H13.276M5.29672 1.26394C4.46753 2.44039 3.97243 3.71937 3.57071 5.12875C6.21484 5.66542 9.26809 6.29394 9.26809 6.29394C9.26809 6.29394 12.4911 5.58671 14.9124 5.28617C14.6492 3.90939 14.075 2.56909 13.276 1.26394M5.29672 1.26394C5.9454 1.96089 6.86956 1.52308 9.22912 2.05941C11.3655 1.53928 12.3941 1.9954 13.276 1.26394" stroke="#67211F" stroke-width="0.0582308"/>
<path d="M9.27911 6.28658L9.25638 2.06298C10.8626 1.57467 12.082 1.9559 13.287 1.28772C13.8118 2.08608 14.68 3.58094 14.9235 5.27479C13.0748 5.48917 10.1352 6.10199 9.27911 6.28658Z" fill="#67211F" stroke="#67211F" stroke-width="0.0365466"/>
<path d="M11.9208 1.67095C12.2855 1.43172 12.5774 1.58626 12.5624 1.24268H13.2821C12.916 1.62755 12.1749 1.61625 11.9208 1.67095Z" fill="#67211F" fill-opacity="0.56"/>
<path d="M6.49147 1.71696C6.12678 1.47529 5.78463 1.60625 5.79963 1.25916L5.3299 1.27392C5.69603 1.66272 6.23734 1.6617 6.49147 1.71696Z" fill="#67211F"/>
<path d="M9.30093 1.30091L9.21902 2.01359L9.36944 2.00332L9.30093 1.30091Z" fill="#67211F" stroke="#67211F" stroke-width="0.0886015"/>
<path d="M7.33287 1.78253C7.07053 1.76558 6.91263 1.7495 6.69578 1.73292C6.49007 3.26669 6.3919 4.31632 6.93021 5.78827C7.28205 5.86503 7.64915 5.91239 8.00106 5.98177C7.24134 4.56203 7.21891 3.20775 7.33287 1.78253Z" fill="#D60000" stroke="#67211F" stroke-width="0.0365466"/>
<path d="M6.89759 1.75578L6.71023 1.73945L6.67027 2.01968L6.89759 1.75578Z" fill="#398F00" stroke="#67211F" stroke-width="0.00738345"/>
<path d="M6.57897 2.80495L7.2987 1.98401L7.30782 1.79951L6.89566 1.75915L6.66833 2.02306L6.57897 2.80495Z" fill="#FF7F00" stroke="#67211F" stroke-width="0.00738345"/>
<path d="M7.04833 2.26164C7.04833 2.26164 6.82308 2.00381 6.74368 1.93423L6.66791 2.0222L6.58611 2.79677C6.69725 2.66726 7.04833 2.26164 7.04833 2.26164Z" fill="#D60000" stroke="#67211F" stroke-width="0.00738345"/>
<path d="M7.2579 2.87458C7.26146 2.55599 7.27065 2.35848 7.29573 1.98153L6.58356 2.79513C6.5556 3.12003 6.54804 3.29932 6.53887 3.6143L7.2579 2.87458Z" fill="#007FFF" stroke="#67211F" stroke-width="0.00590676"/>
<path d="M7.08948 3.04952L6.74075 2.61838L6.5892 2.79432C6.56682 3.11494 6.55587 3.29285 6.54451 3.6135L7.08948 3.04952Z" fill="#398F00" stroke="#67211F" stroke-width="0.00590676"/>
<path d="M7.11409 3.79697L6.77272 3.38066L6.54566 3.61503C6.55024 3.94732 6.57144 4.09516 6.59158 4.36851L7.11409 3.79697Z" fill="#D60000" stroke="#67211F" stroke-width="0.00590676"/>
<path d="M7.07748 4.63728L6.73619 4.21359L6.59233 4.36744C6.64935 4.70755 6.66357 4.79627 6.72137 5.04778L7.07748 4.63728Z" fill="#007FFF" stroke="#67211F" stroke-width="0.00590676"/>
<path d="M7.15755 5.3401L6.82369 4.92385L6.71759 5.04848C6.7973 5.36663 6.80486 5.35931 6.87772 5.60356L7.15755 5.3401Z" fill="#FF7F00" stroke="#67211F" stroke-width="0.00590676"/>
<path d="M7.33641 5.85378L7.03229 5.46731L6.88106 5.60634C6.90304 5.66559 6.9324 5.73966 6.94707 5.7767L7.33641 5.85378Z" fill="#007FFF" stroke="#67211F" stroke-width="0.00590676"/>
<path d="M7.29616 3.59752C7.27165 3.34911 7.26293 3.19593 7.26501 2.87369L6.77306 3.37904C6.99572 3.6467 6.95124 3.58726 7.11442 3.79535L7.29616 3.59752Z" fill="#FF7F00" stroke="#67211F" stroke-width="0.00590676"/>
<path d="M7.37794 4.28676C7.34995 4.05765 7.31349 3.93921 7.29391 3.6068L6.73355 4.21494C6.95063 4.49868 6.90752 4.43501 7.07491 4.63119L7.37794 4.28676Z" fill="#398F00" stroke="#67211F" stroke-width="0.00590676"/>
<path d="M7.54319 4.94627C7.47783 4.70208 7.44124 4.5984 7.37646 4.28777L6.82334 4.92551C6.9939 5.14843 6.9939 5.14843 7.16464 5.3492L7.54319 4.94627Z" fill="#D60000" stroke="#67211F" stroke-width="0.00590676"/>
<path d="M7.74187 5.50043C7.57126 5.28489 7.5935 5.31461 7.41551 5.08424L7.02965 5.46496C7.2002 5.68788 7.17053 5.65072 7.32627 5.85136L7.74187 5.50043Z" fill="#398F00" stroke="#67211F" stroke-width="0.00590676"/>
<path d="M7.54287 4.94418L7.41414 5.08339L7.74051 5.49957L7.74801 5.49964L7.54287 4.94418Z" fill="#007FFF" stroke="#67211F" stroke-width="0.00590676"/>
<path d="M7.32533 3.94578L7.29075 3.61324L7.24536 3.65716L7.17722 3.73043L7.32533 3.94578Z" fill="#007FFF" stroke="#67211F" stroke-width="0.00590676"/>
<path d="M7.53134 5.68377L7.75051 5.49363C7.82839 5.68349 7.8764 5.78486 7.97143 5.96062L7.70182 5.91408L7.53134 5.68377Z" fill="#FF7F00" stroke="#67211F" stroke-width="0.00443007"/>
<g filter="url(#filter0_d_1193_1794)">
<path d="M8.46951 2.85606L8.59181 2.66891C8.59181 2.66891 8.7247 3.2178 8.63193 3.56893C8.55816 3.84813 8.2862 4.21246 8.2862 4.21246C8.16172 4.52703 8.16968 4.69956 8.23716 5.00473L7.98893 5.29362C7.98893 5.29362 7.91219 4.89362 7.78818 4.69744C7.60826 4.41282 7.31139 4.49022 7.12832 4.24006C6.85726 3.86965 6.9978 3.08764 6.9978 3.08764L7.21774 3.27614C7.21774 3.27614 7.35104 3.08143 7.4813 2.802C7.52795 2.70193 7.57422 2.59099 7.61383 2.47424C7.67438 2.29577 7.74181 2.00878 7.74181 2.00878L7.86895 2.26634L7.97121 2.12939C7.97121 2.12939 7.98013 2.32681 8.01786 2.43721C8.10446 2.69057 8.20392 2.78281 8.46951 2.85606Z" fill="#939297"/>
<path d="M8.46951 2.85606C8.51727 2.78297 8.59181 2.66891 8.59181 2.66891C8.59181 2.66891 8.7247 3.2178 8.63193 3.56893C8.55816 3.84813 8.2862 4.21246 8.2862 4.21246C8.16172 4.52703 8.16968 4.69956 8.23716 5.00473L7.98893 5.29362C7.98893 5.29362 7.91219 4.89362 7.78818 4.69744C7.60826 4.41282 7.31139 4.49022 7.12832 4.24006C6.85726 3.86965 6.9978 3.08764 6.9978 3.08764L7.21774 3.27614M8.46951 2.85606C8.20392 2.78281 8.10446 2.69057 8.01786 2.43721C7.98013 2.32681 7.97121 2.12939 7.97121 2.12939L7.86895 2.26634M8.46951 2.85606C8.46222 2.88254 8.24861 3.33937 8.24861 3.33937C8.24861 3.33937 8.08156 3.02277 8.00645 2.80807M7.21774 3.27614C7.34357 3.41938 7.36251 3.513 7.39816 3.67898L7.56146 3.08505L7.81063 3.44968M7.21774 3.27614C7.21774 3.27614 7.35104 3.08143 7.4813 2.802C7.52795 2.70193 7.57422 2.59099 7.61383 2.47424C7.67438 2.29577 7.74181 2.00878 7.74181 2.00878L7.86895 2.26634M7.86895 2.26634C7.86895 2.26634 7.93422 2.60163 8.00645 2.80807M8.00645 2.80807L7.85415 2.65596L7.81063 3.44968M7.81063 3.44968L7.78818 3.84189" stroke="#F8F7FC" stroke-width="0.0365466"/>
</g>
<defs>
<filter id="filter0_d_1193_1794" x="6.94305" y="1.95483" width="1.86711" height="3.49162" filterUnits="userSpaceOnUse" color-interpolation-filters="sRGB">
<feFlood flood-opacity="0" result="BackgroundImageFix"/>
<feColorMatrix in="SourceAlpha" type="matrix" values="0 0 0 0 0 0 0 0 0 0 0 0 0 0 0 0 0 0 127 0" result="hardAlpha"/>
<feOffset dx="0.0738346" dy="0.0590676"/>
<feGaussianBlur stdDeviation="0.0265804"/>
<feComposite in2="hardAlpha" operator="out"/>
<feColorMatrix type="matrix" values="0 0 0 0 0 0 0 0 0 0 0 0 0 0 0 0 0 0 0.25 0"/>
<feBlend mode="normal" in2="BackgroundImageFix" result="effect1_dropShadow_1193_1794"/>
<feBlend mode="normal" in="SourceGraphic" in2="effect1_dropShadow_1193_1794" result="shape"/>
</filter>
<radialGradient id="paint0_radial_1193_1794" cx="0" cy="0" r="1" gradientUnits="userSpaceOnUse" gradientTransform="translate(9.18136 9.8179) scale(7.05255 7.31757)">
<stop offset="0.5" stop-color="#FDE030"/>
<stop offset="0.92" stop-color="#F7C02B"/>
<stop offset="1" stop-color="#F4A223"/>
</radialGradient>
</defs>
</svg>
