<svg width="18" height="18" viewBox="0 0 18 18" fill="none" xmlns="http://www.w3.org/2000/svg">
<path d="M8.80713 16.7375C5.32058 16.7375 1.55911 14.5506 1.55911 9.75192C1.55911 4.95325 5.32058 2.76636 8.80713 2.76636C10.7441 2.76636 12.5311 3.40368 13.8557 4.56586C15.2929 5.8405 16.0551 7.64 16.0551 9.75192C16.0551 11.8638 15.2929 13.6508 13.8557 14.9255C12.5311 16.0877 10.7316 16.7375 8.80713 16.7375Z" fill="url(#paint0_radial_1206_12619)"/>
<path d="M8.80713 16.7375C5.32058 16.7375 1.55911 14.5506 1.55911 9.75192C1.55911 4.95325 5.32058 2.76636 8.80713 2.76636C10.7441 2.76636 12.5311 3.40368 13.8557 4.56586C15.2929 5.8405 16.0551 7.64 16.0551 9.75192C16.0551 11.8638 15.2929 13.6508 13.8557 14.9255C12.5311 16.0877 10.7316 16.7375 8.80713 16.7375Z" fill="url(#paint1_radial_1206_12619)"/>
<path d="M8.80713 16.7375C5.32058 16.7375 1.55911 14.5506 1.55911 9.75192C1.55911 4.95325 5.32058 2.76636 8.80713 2.76636C10.7441 2.76636 12.5311 3.40368 13.8557 4.56586C15.2929 5.8405 16.0551 7.64 16.0551 9.75192C16.0551 11.8638 15.2929 13.6508 13.8557 14.9255C12.5311 16.0877 10.7316 16.7375 8.80713 16.7375Z" fill="url(#paint2_linear_1206_12619)"/>
<path d="M14.7915 5.59985C15.4575 6.67456 15.8049 7.9542 15.8049 9.37755C15.8049 11.4895 15.0427 13.2765 13.6055 14.5511C12.2809 15.7133 10.4814 16.3631 8.55693 16.3631C6.30004 16.3631 3.92819 15.4446 2.53607 13.4964C3.8807 15.7033 6.40876 16.738 8.80686 16.738C10.7313 16.738 12.5308 16.0882 13.8555 14.926C15.2926 13.6514 16.0549 11.8644 16.0549 9.75245C16.0549 8.16039 15.6212 6.74579 14.7915 5.59985Z" fill="#D84213"/>
<path d="M4.26725 12.2214C5.47505 12.2214 6.45416 11.2423 6.45416 10.0345C6.45416 8.82676 5.47505 7.84766 4.26725 7.84766C3.05946 7.84766 2.08035 8.82676 2.08035 10.0345C2.08035 11.2423 3.05946 12.2214 4.26725 12.2214Z" fill="url(#paint3_radial_1206_12619)"/>
<path d="M13.4513 12.2214C14.6591 12.2214 15.6382 11.2423 15.6382 10.0345C15.6382 8.82676 14.6591 7.84766 13.4513 7.84766C12.2435 7.84766 11.2644 8.82676 11.2644 10.0345C11.2644 11.2423 12.2435 12.2214 13.4513 12.2214Z" fill="url(#paint4_radial_1206_12619)"/>
<path d="M8.85902 14.7626C10.8239 14.7626 12.4168 14.0996 12.4168 13.2817C12.4168 12.4639 10.8239 11.8009 8.85902 11.8009C6.89411 11.8009 5.30124 12.4639 5.30124 13.2817C5.30124 14.0996 6.89411 14.7626 8.85902 14.7626Z" fill="#422B0D"/>
<path d="M8.99645 14.1772C9.13392 14.1772 9.24638 14.0648 9.24638 13.9273V12.2128C9.08018 12.209 8.91273 12.2078 8.74652 12.2103V13.9273C8.74652 14.0648 8.85899 14.1772 8.99645 14.1772Z" fill="#FF0044"/>
<path opacity="0.3" d="M8.99645 14.1772C9.13392 14.1772 9.24638 14.0648 9.24638 13.9273V12.2128C9.08018 12.209 8.91273 12.2078 8.74652 12.2103V13.9273C8.74652 14.0648 8.85899 14.1772 8.99645 14.1772Z" fill="#1F0B08"/>
<path d="M3.30024 15.2681C2.24303 15.2681 1.4295 14.2434 1.4295 13.3649C1.4295 12.7463 1.70568 12.0303 2.09682 11.038C2.14556 10.8918 2.21054 10.7456 2.27552 10.5819C2.46172 10.117 2.62668 9.61344 2.87661 9.17731C3.04656 8.87989 3.48019 8.87989 3.6439 9.18106C3.87634 9.60969 4.03629 10.0733 4.27748 10.6144C4.96104 12.144 5.15599 12.7613 5.15599 13.3799C5.17098 14.2422 4.34121 15.2681 3.30024 15.2681Z" fill="url(#paint5_radial_1206_12619)"/>
<path d="M4.44318 14.095C4.20449 14.4649 3.66214 14.3949 3.66214 13.7814C3.66214 13.389 3.74212 11.3758 4.07828 11.6569C4.62688 12.1156 4.78308 13.5727 4.44318 14.095Z" fill="#81D4FA"/>
<path d="M4.28126 6.8616C4.00634 6.91033 3.99259 7.31022 4.29251 7.32397C4.90484 7.33896 5.56841 7.11653 6.08202 6.64291C6.26947 6.4817 6.43318 6.28176 6.54689 6.08181C6.6981 5.80689 6.3482 5.61819 6.17325 5.81814L6.16075 5.83063C5.65714 6.39173 4.96858 6.75163 4.28126 6.8616Z" fill="#422B0D"/>
<path d="M11.6215 5.82986L11.609 5.81737C11.4328 5.61867 11.0841 5.80737 11.2354 6.08104C11.3491 6.28099 11.5115 6.47968 11.7002 6.64214C12.2138 7.1145 12.8774 7.33819 13.4897 7.3232C13.7897 7.30945 13.7759 6.90956 13.501 6.86083C12.8124 6.75086 12.1239 6.39096 11.6215 5.82986Z" fill="#422B0D"/>
<path d="M9.24476 12.6195V13.9266C9.24476 14.0641 9.13229 14.1766 8.99483 14.1766C8.85736 14.1766 8.7449 14.0641 8.7449 13.9266V12.6208C7.8139 12.6482 7.0691 12.8107 6.63922 12.9307V14.504C6.63922 15.6924 7.60271 16.6546 8.78988 16.6546H9.19977C10.3882 16.6546 11.3504 15.6912 11.3504 14.504V12.9307C10.6031 12.7232 9.88958 12.6358 9.24476 12.6195Z" fill="#FF4081"/>
<path d="M9.24527 12.2117V12.6191C9.89009 12.6353 10.6036 12.7215 11.3509 12.929V12.7115C10.9261 12.4491 9.97632 12.2304 9.24527 12.2117Z" fill="#FF4081"/>
<path opacity="0.3" d="M9.24527 12.2117V12.6191C9.89009 12.6353 10.6036 12.7215 11.3509 12.929V12.7115C10.9261 12.4491 9.97632 12.2304 9.24527 12.2117Z" fill="#AB3F2E"/>
<path d="M8.74505 12.2101C8.01025 12.2226 7.22421 12.3338 6.63937 12.7062V12.9311C7.07051 12.8112 7.8153 12.6487 8.74505 12.6212V12.2101Z" fill="#FF4081"/>
<path opacity="0.3" d="M8.74505 12.2101C8.01025 12.2226 7.22421 12.3338 6.63937 12.7062V12.9311C7.07051 12.8112 7.8153 12.6487 8.74505 12.6212V12.2101Z" fill="#AB3F2E"/>
<path d="M6.36386 7.63184C5.84026 7.63184 5.36414 8.07421 5.36414 8.80901C5.36414 9.5438 5.84026 9.98618 6.36386 9.98618C6.88747 9.98618 7.36359 9.5438 7.36359 8.80901C7.36359 8.07421 6.88872 7.63184 6.36386 7.63184Z" fill="#422B0D"/>
<path d="M6.31471 8.12616C6.18599 8.03619 5.9923 8.06493 5.86733 8.24488C5.74236 8.42608 5.7836 8.61602 5.91232 8.706C6.04103 8.79597 6.23473 8.76723 6.35969 8.58728C6.48466 8.40733 6.44467 8.21614 6.31471 8.12616Z" fill="#896024"/>
<path d="M11.1567 7.63196C10.6331 7.63196 10.157 8.07434 10.157 8.80913C10.157 9.54393 10.6331 9.9863 11.1567 9.9863C11.6803 9.9863 12.1565 9.54393 12.1565 8.80913C12.1565 8.07434 11.6803 7.63196 11.1567 7.63196Z" fill="#422B0D"/>
<path d="M11.1085 8.12616C10.9798 8.03619 10.7861 8.06493 10.6611 8.24488C10.5361 8.42608 10.5774 8.61602 10.7061 8.706C10.8348 8.79597 11.0285 8.76723 11.1535 8.58728C11.2797 8.40608 11.2372 8.21614 11.1085 8.12616Z" fill="#896024"/>
<path d="M4.74189 1.50881H5.25917C5.25917 1.50881 7.38391 1.23322 8.82075 1.24539C10.1904 1.25699 12.2043 1.50881 12.2043 1.50881H13.0183C13.8471 2.81334 14.4427 4.153 14.7157 5.52913C12.0384 4.80305 8.82075 6.33772 8.82075 6.33772C8.82075 6.33772 5.55477 4.82983 2.9516 5.37179C3.36828 3.96308 3.88182 2.68471 4.74189 1.50881Z" fill="#7F2125"/>
<path d="M4.74189 1.50881H5.25917C5.25917 1.50881 7.38391 1.23322 8.82075 1.24539C10.1904 1.25699 12.2043 1.50881 12.2043 1.50881H13.0183M4.74189 1.50881C3.88182 2.68471 3.36828 3.96308 2.9516 5.37179C5.55477 4.82983 8.82075 6.33772 8.82075 6.33772C8.82075 6.33772 12.0384 4.80305 14.7157 5.52913C14.4427 4.153 13.8471 2.81334 13.0183 1.50881M4.74189 1.50881C5.41473 2.20543 6.37331 1.76782 8.82075 2.3039C11.0367 1.78402 12.1036 2.23993 13.0183 1.50881" stroke="#67211F" stroke-width="0.0582032"/>
<path d="M8.8374 6.31518L8.84526 2.30761C10.5113 1.81952 11.7761 2.20058 13.026 1.53271C13.5704 2.33069 14.4708 3.82485 14.7234 5.51789C12.5598 4.98679 10.2721 5.68789 8.8374 6.31518Z" fill="#67211F" stroke="#67211F" stroke-width="0.0365292"/>
<path d="M5.97983 1.96076C5.60156 1.71921 5.24666 1.8501 5.26222 1.50317L4.77499 1.51793C5.15476 1.90655 5.71623 1.90553 5.97983 1.96076Z" fill="#67211F"/>
<path d="M11.6111 1.91659C11.9894 1.67748 12.2921 1.83195 12.2766 1.48853H13.0231C12.6434 1.87321 11.8747 1.86192 11.6111 1.91659Z" fill="#67211F" fill-opacity="0.56"/>
<path d="M8.89282 1.54734L8.80786 2.25969L8.96388 2.24943L8.89282 1.54734Z" fill="#67211F" stroke="#67211F" stroke-width="0.0885594"/>
<path d="M6.84885 2.04202C6.57382 2.02736 6.40824 2.0127 6.18088 1.99805C6.03944 3.54784 5.98515 3.93159 6.27984 5.46662C6.67952 5.56638 6.98175 5.6605 7.32677 5.76182C6.51772 4.35889 6.74255 3.45762 6.84885 2.04202Z" fill="#D60000" stroke="#67211F" stroke-width="0.0365292"/>
<path d="M6.40306 2.02012L6.20372 2.00525L6.16385 2.28782L6.40306 2.02012Z" fill="#398F00" stroke="#67211F" stroke-width="0.00737995"/>
<path d="M6.07806 3.06093L6.82462 2.24012L6.83248 2.05691L6.40026 2.02026L6.16451 2.28409L6.07806 3.06093Z" fill="#FF7F00" stroke="#67211F" stroke-width="0.00737995"/>
<path d="M6.56427 2.5185C6.56427 2.5185 6.32589 2.26445 6.24207 2.19604L6.16348 2.28399L6.0849 3.05349C6.20016 2.92402 6.56427 2.5185 6.56427 2.5185Z" fill="#D60000" stroke="#67211F" stroke-width="0.00737995"/>
<path d="M6.79246 3.1265C6.79326 2.81024 6.80108 2.61411 6.82389 2.23975L6.08519 3.05321C6.05888 3.37593 6.05261 3.55395 6.0459 3.86668L6.79246 3.1265Z" fill="#007FFF" stroke="#67211F" stroke-width="0.00590396"/>
<path d="M6.61171 3.30262L6.24236 2.87756L6.08519 3.05345C6.06469 3.37188 6.05485 3.54857 6.0459 3.86693L6.61171 3.30262Z" fill="#398F00" stroke="#67211F" stroke-width="0.00590396"/>
<path d="M6.64314 4.0426L6.28165 3.6322L6.0459 3.86672C6.05376 4.19651 6.07733 4.34308 6.10094 4.61424L6.64314 4.0426Z" fill="#D60000" stroke="#67211F" stroke-width="0.00590396"/>
<path d="M6.61227 4.87818L6.25078 4.46045L6.10147 4.61435C6.16434 4.95147 6.18006 5.03941 6.24292 5.28858L6.61227 4.87818Z" fill="#007FFF" stroke="#67211F" stroke-width="0.00590396"/>
<path d="M6.70972 5.57634L6.35436 5.16394L6.2438 5.28913L6.29372 5.45325L6.70972 5.57634Z" fill="#FF7F00" stroke="#67211F" stroke-width="0.00590396"/>
<path d="M6.83192 3.84467C6.80396 3.5983 6.79341 3.44633 6.79263 3.12646L6.28183 3.63214C6.51758 3.89597 6.47043 3.83734 6.64332 4.04254L6.83192 3.84467Z" fill="#FF7F00" stroke="#67211F" stroke-width="0.00590396"/>
<path d="M6.92745 4.52653C6.89601 4.29934 6.85672 4.18208 6.83315 3.85229L6.25162 4.46057C6.48167 4.74041 6.43593 4.67756 6.61311 4.87091L6.92745 4.52653Z" fill="#398F00" stroke="#67211F" stroke-width="0.00590396"/>
<path d="M7.10741 5.17886C7.03668 4.93701 6.99739 4.83441 6.92667 4.52661L6.353 5.1642C6.53374 5.38406 6.53374 5.38406 6.71449 5.58193L7.10741 5.17886Z" fill="#D60000" stroke="#67211F" stroke-width="0.00590396"/>
<path d="M7.33213 5.74682C7.15138 5.53429 7.16274 5.54481 6.97413 5.31763L6.70398 5.5697C7.03549 5.65272 7.02969 5.65088 7.02969 5.65088L7.33213 5.74682Z" fill="#398F00" stroke="#67211F" stroke-width="0.00590396"/>
<path d="M7.10928 5.17847L6.97504 5.31839L7.3225 5.73079H7.33039L7.10928 5.17847Z" fill="#007FFF" stroke="#67211F" stroke-width="0.00590396"/>
<path d="M6.87363 4.19089L6.83415 3.8595L6.78677 3.90368L6.7157 3.97733L6.87363 4.19089Z" fill="#007FFF" stroke="#67211F" stroke-width="0.00590396"/>
<g filter="url(#filter0_d_1206_12619)">
<path d="M7.86976 2.94594L7.99662 2.75888C7.99662 2.75888 8.13446 3.30751 8.03823 3.65847C7.96172 3.93754 7.67962 4.30169 7.67962 4.30169C7.55051 4.61612 7.55877 4.78857 7.62876 5.09359L7.37129 5.38234C7.37129 5.38234 7.29169 4.98253 7.16306 4.78644C6.97643 4.50196 6.66851 4.57932 6.47862 4.32928C6.19746 3.95905 6.34324 3.17741 6.34324 3.17741L6.57138 3.36581C6.57138 3.36581 6.70964 3.1712 6.84475 2.8919C6.89314 2.79188 6.94112 2.681 6.98221 2.5643C7.04502 2.38592 7.11496 2.09906 7.11496 2.09906L7.24684 2.3565L7.3529 2.21961C7.3529 2.21961 7.36215 2.41694 7.40129 2.52728C7.49112 2.78053 7.59428 2.87272 7.86976 2.94594Z" fill="url(#paint6_linear_1206_12619)"/>
<path d="M7.86976 2.94594C7.9193 2.87289 7.99662 2.75888 7.99662 2.75888C7.99662 2.75888 8.13446 3.30751 8.03823 3.65847C7.96172 3.93754 7.67962 4.30169 7.67962 4.30169C7.55051 4.61612 7.55877 4.78857 7.62876 5.09359L7.37129 5.38234C7.37129 5.38234 7.29169 4.98253 7.16306 4.78644C6.97643 4.50196 6.66851 4.57932 6.47862 4.32928C6.19746 3.95905 6.34324 3.17741 6.34324 3.17741L6.57138 3.36581M7.86976 2.94594C7.59428 2.87272 7.49112 2.78053 7.40129 2.52728C7.36215 2.41694 7.3529 2.21961 7.3529 2.21961L7.24684 2.3565M7.86976 2.94594C7.86221 2.97241 7.64063 3.42902 7.64063 3.42902C7.64063 3.42902 7.46736 3.11257 7.38945 2.89797M6.57138 3.36581C6.70189 3.509 6.72153 3.60257 6.75852 3.76847L6.9279 3.17482L7.18634 3.53927L7.23148 2.74594L7.38945 2.89797M6.57138 3.36581C6.57138 3.36581 6.70964 3.1712 6.84475 2.8919C6.89314 2.79188 6.94112 2.681 6.98221 2.5643C7.04502 2.38592 7.11496 2.09906 7.11496 2.09906L7.24684 2.3565M7.24684 2.3565C7.24684 2.3565 7.31454 2.69163 7.38945 2.89797" stroke="#F8F7FC" stroke-width="0.0365292"/>
</g>
<path d="M14.9345 9.33414C13.9997 9.33414 13.2799 8.42814 13.2799 7.65086C13.2799 7.10476 13.5249 6.47119 13.8698 5.59393C13.9135 5.46397 13.971 5.33525 14.0285 5.19154C14.1934 4.78041 14.3384 4.33428 14.5596 3.94939C14.7108 3.68571 15.0932 3.68696 15.2382 3.95314C15.4443 4.33178 15.5843 4.74167 15.798 5.22028C16.4016 6.57241 16.5753 7.11851 16.5753 7.66585C16.589 8.42814 15.8555 9.33414 14.9345 9.33414Z" fill="url(#paint7_radial_1206_12619)"/>
<path d="M15.9445 8.29815C15.7333 8.62431 15.2534 8.56307 15.2534 8.02072C15.2534 7.67457 15.3234 5.89381 15.6221 6.1425C16.1069 6.54738 16.2444 7.83702 15.9445 8.29815Z" fill="#81D4FA"/>
<defs>
<filter id="filter0_d_1206_12619" x="6.28705" y="2.04663" width="1.93065" height="3.4873" filterUnits="userSpaceOnUse" color-interpolation-filters="sRGB">
<feFlood flood-opacity="0" result="BackgroundImageFix"/>
<feColorMatrix in="SourceAlpha" type="matrix" values="0 0 0 0 0 0 0 0 0 0 0 0 0 0 0 0 0 0 127 0" result="hardAlpha"/>
<feOffset dx="0.0737995" dy="0.0590396"/>
<feGaussianBlur stdDeviation="0.0265678"/>
<feComposite in2="hardAlpha" operator="out"/>
<feColorMatrix type="matrix" values="0 0 0 0 0 0 0 0 0 0 0 0 0 0 0 0 0 0 0.25 0"/>
<feBlend mode="normal" in2="BackgroundImageFix" result="effect1_dropShadow_1206_12619"/>
<feBlend mode="normal" in="SourceGraphic" in2="effect1_dropShadow_1206_12619" result="shape"/>
</filter>
<radialGradient id="paint0_radial_1206_12619" cx="0" cy="0" r="1" gradientUnits="userSpaceOnUse" gradientTransform="translate(8.80713 9.7519) scale(7.11802 7.11799)">
<stop offset="0.5" stop-color="#FDE030"/>
<stop offset="0.9188" stop-color="#F7C02B"/>
<stop offset="1" stop-color="#F4A223"/>
</radialGradient>
<radialGradient id="paint1_radial_1206_12619" cx="0" cy="0" r="1" gradientUnits="userSpaceOnUse" gradientTransform="translate(8.80713 9.7519) scale(7.11802 7.11799)">
<stop offset="0.1228" stop-color="#F4A223"/>
<stop offset="0.3556" stop-color="#F49F22"/>
<stop offset="0.5388" stop-color="#F6951D"/>
<stop offset="0.7052" stop-color="#F88416"/>
<stop offset="0.8605" stop-color="#FB6D0C"/>
<stop offset="1" stop-color="#FF5100"/>
</radialGradient>
<linearGradient id="paint2_linear_1206_12619" x1="8.80713" y1="16.7375" x2="8.80713" y2="2.76636" gradientUnits="userSpaceOnUse">
<stop stop-color="#F4A223"/>
<stop offset="0.0833" stop-color="#F4A223" stop-opacity="0.9051"/>
<stop offset="0.8772" stop-color="#F4A223" stop-opacity="0"/>
</linearGradient>
<radialGradient id="paint3_radial_1206_12619" cx="0" cy="0" r="1" gradientUnits="userSpaceOnUse" gradientTransform="translate(4.26732 10.0348) scale(2.3791 2.26003)">
<stop offset="0.00510817" stop-color="#ED0E00"/>
<stop offset="0.1455" stop-color="#ED1709" stop-opacity="0.8431"/>
<stop offset="0.3791" stop-color="#ED2F23" stop-opacity="0.582"/>
<stop offset="0.6751" stop-color="#ED554C" stop-opacity="0.2513"/>
<stop offset="0.9" stop-color="#ED7770" stop-opacity="0"/>
</radialGradient>
<radialGradient id="paint4_radial_1206_12619" cx="0" cy="0" r="1" gradientUnits="userSpaceOnUse" gradientTransform="translate(13.4516 10.0348) scale(2.3791 2.26003)">
<stop offset="0.00510817" stop-color="#ED0E00"/>
<stop offset="0.1455" stop-color="#ED1709" stop-opacity="0.8431"/>
<stop offset="0.3791" stop-color="#ED2F23" stop-opacity="0.582"/>
<stop offset="0.6751" stop-color="#ED554C" stop-opacity="0.2513"/>
<stop offset="0.9" stop-color="#ED7770" stop-opacity="0"/>
</radialGradient>
<radialGradient id="paint5_radial_1206_12619" cx="0" cy="0" r="1" gradientUnits="userSpaceOnUse" gradientTransform="translate(3.43399 9.75726) scale(4.17403 6.42798)">
<stop offset="0.46" stop-color="#4FC3F7"/>
<stop offset="1" stop-color="#1E88E5"/>
</radialGradient>
<linearGradient id="paint6_linear_1206_12619" x1="7.53678" y1="2.2052" x2="6.77506" y2="5.23231" gradientUnits="userSpaceOnUse">
<stop stop-color="#C9C9C9"/>
<stop offset="1" stop-color="#939297"/>
</linearGradient>
<radialGradient id="paint7_radial_1206_12619" cx="0" cy="0" r="1" gradientUnits="userSpaceOnUse" gradientTransform="translate(15.0531 4.46189) scale(3.69048 5.68331)">
<stop offset="0.46" stop-color="#4FC3F7"/>
<stop offset="1" stop-color="#1E88E5"/>
</radialGradient>
</defs>
</svg>
