<svg width="19" height="18" viewBox="0 0 19 18" fill="none" xmlns="http://www.w3.org/2000/svg">
<path d="M14.8568 8.91518C15.7553 8.5153 17.526 7.75676 17.526 7.75676C17.526 7.75676 15.8652 7.07445 14.9942 6.6983C15.3729 6.38964 17.1874 5.50863 17.1874 5.50863L14.4194 5.73732L15.9465 2.04709C15.9465 2.04709 13.5421 3.87283 12.6086 4.10652C12.6124 3.67789 12.6211 2.5432 12.6211 2.5432C12.6211 2.5432 11.7701 3.47544 11.3477 3.78911C10.8566 3.06056 9.91812 1.94462 9.91812 1.94462C9.91812 1.94462 9.0796 2.97058 8.61723 3.67789C8.23733 3.37047 7.21886 1.92712 7.21886 1.92712C7.21886 1.92712 7.45379 3.68539 7.4338 4.14401C6.45907 3.91032 4.65831 3.09805 4.65831 3.09805C4.65831 3.09805 5.4381 4.57764 5.72677 5.33618C5.19816 5.33243 3.42865 5.23621 2.79632 5.19747C3.30743 5.58486 5.44185 7.12693 5.44185 7.12693L2.42517 7.71177C2.42517 7.71177 4.57083 8.23037 5.44185 8.60652C5.2294 8.77897 4.6758 9.2226 4.23093 9.5775H15.6528C15.3641 9.34881 15.098 9.12887 14.8568 8.91518Z" fill="#F15A24"/>
<path d="M11.9688 7.01929H8.01111V9.57858H11.9688V7.01929Z" fill="url(#paint0_linear_1206_12398)"/>
<path d="M16.9915 8.20925C17.0153 8.14676 17.029 8.08053 17.029 8.01055C17.029 7.69814 16.7754 7.44446 16.4629 7.44446C16.2043 7.44446 15.9881 7.61941 15.9206 7.85684C15.7031 7.93557 15.5469 8.14176 15.5469 8.3867C15.5469 8.69911 15.8006 8.95279 16.113 8.95279C16.1493 8.95279 16.1843 8.94904 16.2193 8.94154C16.2967 8.98153 16.383 9.00652 16.4767 9.00652C16.7891 9.00652 17.0428 8.75284 17.0428 8.44043C17.0428 8.3592 17.0228 8.28048 16.9915 8.20925Z" fill="#FFEA5C"/>
<path d="M14.8882 2.13992C14.617 2.24239 14.4795 2.54605 14.5833 2.81723C14.6445 2.97843 14.7757 3.08965 14.9294 3.13464C15.0381 3.39582 15.333 3.52578 15.5992 3.42581C15.8704 3.32334 16.0079 3.01967 15.9041 2.7485C15.8429 2.58729 15.7117 2.47607 15.558 2.43108C15.4493 2.16991 15.1543 2.03869 14.8882 2.13992Z" fill="#5C5CFF"/>
<path d="M4.40663 7.49832C4.41162 7.47208 4.41412 7.44458 4.41412 7.41709C4.41412 7.17966 4.22168 6.98596 3.98299 6.98596C3.74556 6.98596 3.55186 7.17841 3.55186 7.41709C3.55186 7.48207 3.56685 7.54206 3.59185 7.59704C3.34192 7.60954 3.13697 7.80823 3.12198 8.06441C3.10573 8.33809 3.31567 8.57302 3.58935 8.58927C3.75805 8.59926 3.91176 8.52303 4.00923 8.39932C4.07547 8.43931 4.15294 8.4643 4.23542 8.4693C4.5091 8.48554 4.74403 8.2756 4.76028 8.00193C4.77402 7.76824 4.62282 7.56205 4.40663 7.49832Z" fill="#45F9FF"/>
<path d="M3.83854 4.03985C4.18363 4.03985 4.46337 3.78808 4.46337 3.4775C4.46337 3.16693 4.18363 2.91516 3.83854 2.91516C3.49346 2.91516 3.21371 3.16693 3.21371 3.4775C3.21371 3.78808 3.49346 4.03985 3.83854 4.03985Z" fill="#4BFF17"/>
<path d="M16.1366 5.01727C16.4817 5.01727 16.7615 4.7655 16.7615 4.45492C16.7615 4.14435 16.4817 3.89258 16.1366 3.89258C15.7916 3.89258 15.5118 4.14435 15.5118 4.45492C15.5118 4.7655 15.7916 5.01727 16.1366 5.01727Z" fill="#FF17C8"/>
<path d="M14.442 5.30967C14.3346 5.24969 14.3033 5.10722 14.3471 4.99226C14.4133 4.8198 14.4545 4.63611 14.4645 4.44616C14.522 3.34896 13.561 2.44921 12.3239 2.46171C11.8877 2.46546 11.4816 2.58543 11.1379 2.78537C10.8518 2.22553 10.2382 1.84063 9.52712 1.84813C8.78982 1.85688 8.16749 2.28551 7.91006 2.88284C7.72386 2.82286 7.52642 2.79037 7.32272 2.79162C6.3205 2.80037 5.59569 3.38895 5.66817 4.4874C5.68067 4.67359 5.82813 5.02475 5.82813 5.02475C5.82813 5.02475 5.52696 5.09848 5.27953 5.51586C5.07834 5.85452 5.05709 6.40061 5.23204 6.76052C5.50572 7.32411 6.26551 7.58904 6.83036 7.31786C6.91033 7.27912 7.00156 7.23038 7.08404 7.26413C7.12528 7.28162 7.29773 7.91395 8.8498 8.23636C9.74456 8.42255 10.7943 7.76649 10.853 7.76524C10.9205 7.76399 10.9805 7.80522 11.0367 7.84271C11.0367 7.84271 11.4516 8.31883 12.3801 8.09639C13.2561 7.8877 13.3411 7.29287 13.4161 7.26912C13.476 7.25038 14.5033 7.57279 14.9369 6.58931C15.1268 6.14944 14.8032 5.51086 14.442 5.30967Z" fill="#D2EDF7"/>
<path d="M5.65856 4.36784C5.66606 4.52405 5.7023 4.94268 5.8935 5.06015C6.02221 5.13888 6.13718 5.17637 6.2384 5.18887C6.4346 5.21261 6.55332 4.97018 6.42085 4.82397C6.27589 4.66526 6.11968 4.39284 6.0597 3.93671C5.97347 3.29314 6.47959 2.96948 6.47959 2.96948C6.47959 2.96948 5.60982 3.32188 5.65856 4.36784Z" fill="#92CBEB"/>
<path d="M14.9327 6.59201C15.0577 6.30959 15.0152 5.91095 14.7878 5.65602C14.7878 5.65602 14.9265 6.01717 14.7515 6.37582C14.5741 6.73947 14.1979 7.07938 13.8055 6.98565C13.5606 6.92692 13.8005 6.52453 13.4556 5.9322C13.4731 6.49079 13.4619 7.75669 11.8223 7.86166C11.5224 7.8804 10.8039 7.62173 10.7614 7.18685C10.6664 6.23961 11.5662 6.37082 11.6949 6.39082C12.0035 6.43706 12.3409 6.30334 12.3922 6.05966C12.4384 5.83847 12.3309 5.751 12.2297 5.66352C11.9398 5.41609 11.4837 5.46233 11.1613 5.66727C10.6714 5.97968 10.4452 6.80695 10.0566 7.20809C9.60294 7.67546 8.86814 7.78793 8.24206 7.60798C7.16985 7.29932 6.83494 5.9322 6.83494 5.9322C6.69498 6.2896 6.8187 6.75947 6.90493 6.96941C5.83647 7.1906 5.30286 6.6345 5.13791 6.47205C5.1554 6.57202 5.18415 6.67074 5.22913 6.76321C5.50281 7.32681 6.2626 7.59173 6.82745 7.32056C6.90742 7.28182 6.99865 7.23308 7.08113 7.26682C7.12237 7.28432 7.29482 7.91664 8.84689 8.23905C9.74165 8.42525 10.7914 7.76919 10.8501 7.76794C10.9176 7.76669 10.9776 7.80792 11.0338 7.84541C11.0338 7.84541 11.4487 8.32153 12.3772 8.09909C13.2532 7.8904 13.3382 7.29557 13.4131 7.27182C13.4731 7.25183 14.5003 7.57424 14.9327 6.59201Z" fill="#78C0E8"/>
<path d="M10.3616 2.0321C10.3616 2.0321 10.5278 2.26954 10.5616 2.39325C10.6928 2.87687 10.4454 3.19803 10.3741 3.32924C10.3366 3.39922 10.3029 3.48045 10.3291 3.55418C10.3579 3.63416 10.4454 3.67665 10.5278 3.68914C10.7503 3.72538 10.9815 3.60292 11.1052 3.41547C11.2264 3.22802 11.4476 2.47573 10.3616 2.0321Z" fill="#92CBEB"/>
<path d="M14.3487 4.9931C14.4149 4.82064 14.4561 4.63695 14.4661 4.447C14.4886 4.02462 14.3587 3.63347 14.1212 3.30981C14.24 3.526 14.2699 3.79468 14.22 4.03961C14.1512 4.37327 13.9375 4.66444 13.6901 4.89812C13.3889 5.18179 13.6026 5.31301 13.7763 5.31301C14.195 5.31176 14.3249 5.05433 14.3487 4.9931Z" fill="#92CBEB"/>
<path d="M10.7896 9.57842V8.73866C10.7896 8.5812 10.6497 8.45374 10.4772 8.45374C10.3048 8.45374 10.1648 8.5812 10.1648 8.73866V9.57842H10.7896Z" fill="#039BE5"/>
<path d="M9.55401 9.57635V8.2967C9.55401 8.19298 9.47028 8.10925 9.36656 8.10925C9.26283 8.10925 9.17911 8.19298 9.17911 8.2967V9.57635H9.55401Z" fill="#039BE5"/>
<path d="M9.94078 16.2014C11.8653 16.2014 13.6648 15.5516 14.9894 14.3894C16.3428 13.1885 17.0976 11.5327 17.18 9.57825H2.70151C2.88646 14.1245 6.54296 16.2014 9.94078 16.2014Z" fill="url(#paint1_radial_1206_12398)"/>
<path d="M3.67297 12.9597C3.69249 12.9923 3.71592 13.0222 3.73674 13.0547C3.72373 13.0326 3.70941 13.0105 3.6964 12.9896C3.68859 12.9792 3.67948 12.9701 3.67297 12.9597Z" fill="#EB8F00"/>
<path d="M16.9073 9.57742C16.7486 11.3682 16.0076 12.8903 14.7404 14.0137C13.4158 15.1759 11.6163 15.8257 9.69181 15.8257C7.44617 15.8257 5.08807 14.9159 3.69345 12.9877C3.70595 13.009 3.71844 13.0302 3.73219 13.0502C3.77593 13.1189 3.81967 13.1852 3.8659 13.2514C3.89964 13.3001 3.93214 13.3489 3.96713 13.3964C4.04086 13.4963 4.11709 13.5938 4.19581 13.6888C4.2333 13.7338 4.27204 13.7763 4.30953 13.82C4.36327 13.8812 4.41825 13.9412 4.47324 13.9999C4.51323 14.0424 4.55322 14.0837 4.59445 14.1249C4.67318 14.2036 4.75441 14.2811 4.83814 14.3548C4.87938 14.3923 4.92187 14.4273 4.9631 14.4636C5.03433 14.5235 5.10556 14.5823 5.17805 14.6398C5.22053 14.6735 5.26427 14.706 5.30801 14.7385C5.38174 14.7935 5.45797 14.846 5.5342 14.8984C5.56919 14.9222 5.60418 14.9472 5.63917 14.9709C5.74539 15.0397 5.85286 15.1059 5.96283 15.1684C6.00407 15.1921 6.04656 15.2146 6.0878 15.2371C6.16902 15.2821 6.2515 15.3246 6.33398 15.3671C6.37397 15.3871 6.41521 15.4083 6.4552 15.427C6.57141 15.4833 6.68888 15.5358 6.80885 15.5858C6.84009 15.5982 6.87133 15.6095 6.90132 15.622C6.99755 15.6607 7.09502 15.697 7.19374 15.732C7.23498 15.747 7.27747 15.7607 7.31871 15.7757C7.42743 15.8119 7.5374 15.8469 7.64737 15.8782C7.66736 15.8844 7.68736 15.8907 7.7061 15.8957C7.83482 15.9319 7.96353 15.9631 8.0935 15.9931C8.13224 16.0019 8.16973 16.0094 8.20847 16.0181C8.31219 16.0406 8.41591 16.0594 8.51963 16.0781C8.55337 16.0844 8.58586 16.0906 8.61835 16.0956C8.75082 16.1169 8.88328 16.1344 9.01575 16.1493C9.04449 16.1531 9.07323 16.1543 9.10072 16.1581C9.20944 16.1693 9.31816 16.1781 9.42688 16.1843C9.46437 16.1868 9.50186 16.1893 9.5381 16.1906C9.67182 16.1968 9.80678 16.2018 9.94049 16.2018C11.865 16.2018 13.6645 15.552 14.9891 14.3898C15.0766 14.3124 15.1616 14.2324 15.2428 14.1524C15.2703 14.1249 15.2978 14.0962 15.3253 14.0674C15.3778 14.0137 15.4315 13.9587 15.4827 13.9037C15.5152 13.8687 15.5452 13.8325 15.5765 13.7962C15.6202 13.7463 15.6639 13.6963 15.7064 13.6438C15.7389 13.6038 15.7701 13.5626 15.8014 13.5226C15.8401 13.4738 15.8776 13.4251 15.9151 13.3739C15.9464 13.3301 15.9776 13.2851 16.0076 13.2414C16.0413 13.1927 16.0751 13.1439 16.1076 13.0939C16.1375 13.0465 16.1675 12.999 16.1963 12.9515C16.2263 12.9027 16.2563 12.854 16.285 12.804C16.3138 12.754 16.3412 12.7028 16.3687 12.6528C16.395 12.6041 16.4212 12.5553 16.4462 12.5054C16.4737 12.4529 16.4987 12.3991 16.5249 12.3442C16.5474 12.2954 16.5699 12.2467 16.5924 12.1967C16.6174 12.1405 16.6412 12.0842 16.6649 12.0267C16.6849 11.978 16.7036 11.9293 16.7224 11.8805C16.7449 11.8218 16.7674 11.7618 16.7874 11.7018C16.8036 11.6543 16.8199 11.6056 16.8361 11.5569C16.8561 11.4944 16.8761 11.4319 16.8948 11.3682C16.9086 11.3207 16.9211 11.2732 16.9348 11.2245C16.9523 11.1582 16.9698 11.092 16.9861 11.0258C16.9973 10.9795 17.0073 10.9333 17.0173 10.8858C17.0323 10.8158 17.0473 10.7458 17.061 10.6746C17.0698 10.6309 17.076 10.5859 17.0835 10.5422C17.096 10.4672 17.1085 10.3922 17.1185 10.316C17.1235 10.276 17.1285 10.236 17.1323 10.1947C17.1423 10.1135 17.1523 10.0323 17.1598 9.94982C17.1623 9.91858 17.1635 9.88734 17.166 9.85609C17.1735 9.76362 17.1785 9.6699 17.1835 9.57617H16.9073V9.57742Z" fill="#EB8F00"/>
<path d="M16.9073 9.57742C16.7486 11.3682 16.0076 12.8903 14.7404 14.0137C13.4158 15.1759 11.6163 15.8257 9.69181 15.8257C7.44617 15.8257 5.08807 14.9159 3.69345 12.9877C3.70595 13.009 3.71844 13.0302 3.73219 13.0502C3.77593 13.1189 3.81967 13.1852 3.8659 13.2514C3.89964 13.3001 3.93214 13.3489 3.96713 13.3964C4.04086 13.4963 4.11709 13.5938 4.19581 13.6888C4.2333 13.7338 4.27204 13.7763 4.30953 13.82C4.36327 13.8812 4.41825 13.9412 4.47324 13.9999C4.51323 14.0424 4.55322 14.0837 4.59445 14.1249C4.67318 14.2036 4.75441 14.2811 4.83814 14.3548C4.87938 14.3923 4.92187 14.4273 4.9631 14.4636C5.03433 14.5235 5.10556 14.5823 5.17805 14.6398C5.22053 14.6735 5.26427 14.706 5.30801 14.7385C5.38174 14.7935 5.45797 14.846 5.5342 14.8984C5.56919 14.9222 5.60418 14.9472 5.63917 14.9709C5.74539 15.0397 5.85286 15.1059 5.96283 15.1684C6.00407 15.1921 6.04656 15.2146 6.0878 15.2371C6.16902 15.2821 6.2515 15.3246 6.33398 15.3671C6.37397 15.3871 6.41521 15.4083 6.4552 15.427C6.57141 15.4833 6.68888 15.5358 6.80885 15.5858C6.84009 15.5982 6.87133 15.6095 6.90132 15.622C6.99755 15.6607 7.09502 15.697 7.19374 15.732C7.23498 15.747 7.27747 15.7607 7.31871 15.7757C7.42743 15.8119 7.5374 15.8469 7.64737 15.8782C7.66736 15.8844 7.68736 15.8907 7.7061 15.8957C7.83482 15.9319 7.96353 15.9631 8.0935 15.9931C8.13224 16.0019 8.16973 16.0094 8.20847 16.0181C8.31219 16.0406 8.41591 16.0594 8.51963 16.0781C8.55337 16.0844 8.58586 16.0906 8.61835 16.0956C8.75082 16.1169 8.88328 16.1344 9.01575 16.1493C9.04449 16.1531 9.07323 16.1543 9.10072 16.1581C9.20944 16.1693 9.31816 16.1781 9.42688 16.1843C9.46437 16.1868 9.50186 16.1893 9.5381 16.1906C9.67182 16.1968 9.80678 16.2018 9.94049 16.2018C11.865 16.2018 13.6645 15.552 14.9891 14.3898C15.0766 14.3124 15.1616 14.2324 15.2428 14.1524C15.2703 14.1249 15.2978 14.0962 15.3253 14.0674C15.3778 14.0137 15.4315 13.9587 15.4827 13.9037C15.5152 13.8687 15.5452 13.8325 15.5765 13.7962C15.6202 13.7463 15.6639 13.6963 15.7064 13.6438C15.7389 13.6038 15.7701 13.5626 15.8014 13.5226C15.8401 13.4738 15.8776 13.4251 15.9151 13.3739C15.9464 13.3301 15.9776 13.2851 16.0076 13.2414C16.0413 13.1927 16.0751 13.1439 16.1076 13.0939C16.1375 13.0465 16.1675 12.999 16.1963 12.9515C16.2263 12.9027 16.2563 12.854 16.285 12.804C16.3138 12.754 16.3412 12.7028 16.3687 12.6528C16.395 12.6041 16.4212 12.5553 16.4462 12.5054C16.4737 12.4529 16.4987 12.3991 16.5249 12.3442C16.5474 12.2954 16.5699 12.2467 16.5924 12.1967C16.6174 12.1405 16.6412 12.0842 16.6649 12.0267C16.6849 11.978 16.7036 11.9293 16.7224 11.8805C16.7449 11.8218 16.7674 11.7618 16.7874 11.7018C16.8036 11.6543 16.8199 11.6056 16.8361 11.5569C16.8561 11.4944 16.8761 11.4319 16.8948 11.3682C16.9086 11.3207 16.9211 11.2732 16.9348 11.2245C16.9523 11.1582 16.9698 11.092 16.9861 11.0258C16.9973 10.9795 17.0073 10.9333 17.0173 10.8858C17.0323 10.8158 17.0473 10.7458 17.061 10.6746C17.0698 10.6309 17.076 10.5859 17.0835 10.5422C17.096 10.4672 17.1085 10.3922 17.1185 10.316C17.1235 10.276 17.1285 10.236 17.1323 10.1947C17.1423 10.1135 17.1523 10.0323 17.1598 9.94982C17.1623 9.91858 17.1635 9.88734 17.166 9.85609C17.1735 9.76362 17.1785 9.6699 17.1835 9.57617H16.9073V9.57742Z" fill="#EB8F00"/>
<path d="M17.1674 9.86228C17.175 9.76845 17.1813 9.67335 17.1851 9.57825H17.1838C17.18 9.67335 17.1737 9.76845 17.1674 9.86228Z" fill="#EB8F00"/>
<path d="M17.1674 9.86228C17.175 9.76845 17.1813 9.67335 17.1851 9.57825H17.1838C17.18 9.67335 17.1737 9.76845 17.1674 9.86228Z" fill="url(#paint2_radial_1206_12398)"/>
<path d="M11.7204 14.4687C11.7204 15.1685 10.9469 15.5796 9.99342 15.5796C9.03993 15.5796 8.26639 15.1685 8.26639 14.4687C8.26639 13.7689 9.03993 13.0078 9.99342 13.0078C10.9469 13.0078 11.7204 13.7689 11.7204 14.4687Z" fill="#422B0D"/>
<path d="M7.18032 12.6834C8.25077 12.6834 9.11854 11.8157 9.11854 10.7452C9.11854 9.67477 8.25077 8.80701 7.18032 8.80701C6.10987 8.80701 5.2421 9.67477 5.2421 10.7452C5.2421 11.8157 6.10987 12.6834 7.18032 12.6834Z" fill="white"/>
<path d="M7.17831 11.5913C7.63865 11.5913 8.01183 11.2125 8.01183 10.7453C8.01183 10.2781 7.63865 9.89929 7.17831 9.89929C6.71797 9.89929 6.34479 10.2781 6.34479 10.7453C6.34479 11.2125 6.71797 11.5913 7.17831 11.5913Z" fill="#422B0D"/>
<path d="M12.8032 12.6834C13.8736 12.6834 14.7414 11.8157 14.7414 10.7452C14.7414 9.67477 13.8736 8.80701 12.8032 8.80701C11.7327 8.80701 10.865 9.67477 10.865 10.7452C10.865 11.8157 11.7327 12.6834 12.8032 12.6834Z" fill="white"/>
<path d="M12.8051 11.6011C13.2654 11.6011 13.6386 11.2223 13.6386 10.7551C13.6386 10.2878 13.2654 9.90906 12.8051 9.90906C12.3447 9.90906 11.9716 10.2878 11.9716 10.7551C11.9716 11.2223 12.3447 11.6011 12.8051 11.6011Z" fill="#422B0D"/>
<defs>
<linearGradient id="paint0_linear_1206_12398" x1="9.99022" y1="8.9407" x2="9.99022" y2="9.83153" gradientUnits="userSpaceOnUse">
<stop stop-color="#78C0E8"/>
<stop offset="1" stop-color="#31A0D6"/>
</linearGradient>
<radialGradient id="paint1_radial_1206_12398" cx="0" cy="0" r="1" gradientUnits="userSpaceOnUse" gradientTransform="translate(9.94077 9.21584) scale(7.11768 7.11765)">
<stop offset="0.5" stop-color="#FDE030"/>
<stop offset="0.9188" stop-color="#F7C02B"/>
<stop offset="1" stop-color="#F4A223"/>
</radialGradient>
<radialGradient id="paint2_radial_1206_12398" cx="0" cy="0" r="1" gradientUnits="userSpaceOnUse" gradientTransform="translate(9.83962 9.21052) scale(7.2221 7.22209)">
<stop offset="0.5" stop-color="#FDE030"/>
<stop offset="0.9188" stop-color="#F7C02B"/>
<stop offset="1" stop-color="#F4A223"/>
</radialGradient>
</defs>
</svg>
