<svg width="19" height="18" viewBox="0 0 19 18" fill="none" xmlns="http://www.w3.org/2000/svg">
<path d="M9.92041 16.8926C6.43386 16.8926 2.67239 14.7057 2.67239 9.90707C2.67239 5.1084 6.43386 2.92151 9.92041 2.92151C11.8574 2.92151 13.6444 3.55883 14.969 4.72101C16.4061 5.99565 17.1684 7.79515 17.1684 9.90707C17.1684 12.019 16.4061 13.806 14.969 15.0806C13.6444 16.2428 11.8449 16.8926 9.92041 16.8926Z" fill="url(#paint0_radial_1200_7228)"/>
<path d="M15.9047 5.75439C16.5708 6.8291 16.9182 8.10874 16.9182 9.5321C16.9182 11.644 16.1559 13.431 14.7188 14.7057C13.3941 15.8678 11.5946 16.5177 9.67015 16.5177C7.41326 16.5177 5.04641 15.5992 3.64929 13.651C4.99392 15.8578 7.52323 16.8926 9.92008 16.8926C11.8446 16.8926 13.6441 16.2427 14.9687 15.0806C16.4058 13.8059 17.1681 12.0189 17.1681 9.90699C17.1681 8.31493 16.7345 6.90033 15.9047 5.75439Z" fill="#EB8F00"/>
<path d="M9.95567 12.2954C8.64353 12.2954 7.70628 13.0827 7.43136 13.5201C7.32639 13.66 7.30265 13.845 7.36888 14.0074C7.42136 14.1112 7.52883 14.1736 7.6438 14.1699C7.68629 14.1674 7.72878 14.1586 7.76877 14.1449C8.43109 13.9325 9.00593 13.6325 9.95567 13.6325C10.9054 13.6325 11.4803 13.945 12.1426 14.1449C12.1826 14.1586 12.225 14.1674 12.2675 14.1699C12.3825 14.1736 12.49 14.1112 12.5425 14.0074C12.6149 13.8462 12.5899 13.6575 12.48 13.5201C12.2051 13.0827 11.2678 12.2954 9.95567 12.2954Z" fill="#422B0D"/>
<path d="M7.46933 8.28833C6.94572 8.28833 6.4696 8.73071 6.4696 9.4655C6.4696 10.2003 6.94572 10.6414 7.46933 10.6414C7.99419 10.6414 8.46906 10.199 8.46906 9.4655C8.46906 8.73196 7.99919 8.28833 7.46933 8.28833Z" fill="#422B0D"/>
<path d="M7.42657 8.7805C7.24911 8.69553 7.03542 8.77051 6.9492 8.94796C6.88296 9.08667 6.91296 9.25287 7.02418 9.36034C7.20163 9.44532 7.41532 9.37034 7.50154 9.19289C7.56778 9.05418 7.53778 8.88797 7.42657 8.7805Z" fill="#896024"/>
<path d="M12.2681 8.28833C11.7445 8.28833 11.2683 8.73071 11.2683 9.4655C11.2683 10.2003 11.7445 10.6414 12.2681 10.6414C12.7917 10.6414 13.2678 10.199 13.2678 9.4655C13.2678 8.73196 12.7917 8.28833 12.2681 8.28833Z" fill="#422B0D"/>
<path d="M12.2164 8.7805C12.0389 8.69553 11.8252 8.77051 11.739 8.94796C11.6728 9.08667 11.7028 9.25287 11.814 9.36034C11.9915 9.44532 12.2051 9.37034 12.2914 9.19289C12.3576 9.05418 12.3276 8.88797 12.2164 8.7805Z" fill="#896024"/>
<path d="M5.39398 6.39592C5.11905 6.4459 5.10656 6.84579 5.40648 6.85829C6.0688 6.86704 6.70862 6.62086 7.19349 6.17098C7.37844 6.01103 7.53464 5.82108 7.65586 5.60864C7.72834 5.50492 7.70335 5.36246 7.59963 5.28998C7.4959 5.2175 7.35344 5.24249 7.28096 5.34621L7.26847 5.35871C6.7786 5.90605 6.11753 6.2722 5.39398 6.39592Z" fill="#422B0D"/>
<path d="M12.532 5.34621C12.4595 5.24249 12.317 5.2175 12.2133 5.28998C12.1096 5.36246 12.0846 5.50492 12.1571 5.60864C12.2783 5.82108 12.4345 6.01103 12.6194 6.17098C13.1068 6.61711 13.7454 6.86329 14.4065 6.85829C14.7189 6.84579 14.6939 6.4459 14.419 6.39592C13.6867 6.27595 13.0206 5.9048 12.532 5.34621Z" fill="#422B0D"/>
<path d="M5.9771 1.30043H6.47C6.47 1.30043 8.49461 1.02484 9.86375 1.03701C11.1688 1.04861 13.0878 1.30043 13.0878 1.30043H13.8635C14.6532 2.60497 15.2207 3.94463 15.4809 5.32076C12.9298 4.59468 9.86375 6.12934 9.86375 6.12934C9.86375 6.12934 6.75167 4.62146 4.27118 5.16341C4.66822 3.7547 5.15756 2.47633 5.9771 1.30043Z" fill="#7F2125"/>
<path d="M5.9771 1.30043H6.47C6.47 1.30043 8.49461 1.02484 9.86375 1.03701C11.1688 1.04861 13.0878 1.30043 13.0878 1.30043H13.8635M5.9771 1.30043C5.15756 2.47633 4.66822 3.7547 4.27118 5.16341C6.75167 4.62146 9.86375 6.12935 9.86375 6.12935C9.86375 6.12935 12.9298 4.59468 15.4809 5.32076C15.2207 3.94463 14.6532 2.60497 13.8635 1.30043M5.9771 1.30043C6.61824 1.99705 7.53164 1.55945 9.86375 2.09553C11.9752 1.57565 12.9919 2.03155 13.8635 1.30043" stroke="#67211F" stroke-width="0.0582032"/>
<path d="M9.88206 6.10656L9.88955 2.09899C11.477 1.61091 12.6823 1.99196 13.8732 1.3241C14.392 2.12207 15.25 3.61623 15.4907 5.30927C13.429 4.77817 11.2491 5.47927 9.88206 6.10656Z" fill="#67211F" stroke="#67211F" stroke-width="0.0365292"/>
<path d="M7.15897 1.75202C6.79852 1.51047 6.46035 1.64136 6.47518 1.29443L6.01091 1.30919C6.37278 1.69781 6.90779 1.69679 7.15897 1.75202Z" fill="#67211F"/>
<path d="M12.5265 1.70785C12.8869 1.46874 13.1754 1.62321 13.1606 1.27979H13.872C13.5101 1.66447 12.7777 1.65318 12.5265 1.70785Z" fill="#67211F" fill-opacity="0.56"/>
<path d="M9.93861 1.33873L9.85766 2.05107L10.0063 2.04081L9.93861 1.33873Z" fill="#67211F" stroke="#67211F" stroke-width="0.0885594"/>
<path d="M7.98947 1.83328C7.7274 1.81862 7.56962 1.80396 7.35297 1.78931C7.2182 3.3391 7.16647 3.72285 7.44727 5.25788C7.82811 5.35764 8.1161 5.45176 8.44486 5.55308C7.67394 4.15015 7.88817 3.24888 7.98947 1.83328Z" fill="#D60000" stroke="#67211F" stroke-width="0.0365292"/>
<path d="M7.56345 1.81175L7.3735 1.79688L7.33551 2.07945L7.56345 1.81175Z" fill="#398F00" stroke="#67211F" stroke-width="0.00737995"/>
<path d="M7.25264 2.85207L7.96401 2.03126L7.9715 1.84804L7.55965 1.8114L7.33501 2.07523L7.25264 2.85207Z" fill="#FF7F00" stroke="#67211F" stroke-width="0.00737995"/>
<path d="M7.71526 2.30976C7.71526 2.30976 7.48812 2.05571 7.40825 1.9873L7.33337 2.07525L7.25848 2.84475C7.36831 2.71528 7.71526 2.30976 7.71526 2.30976Z" fill="#D60000" stroke="#67211F" stroke-width="0.00737995"/>
<path d="M7.93574 2.918C7.93651 2.60174 7.94395 2.40562 7.96569 2.03125L7.26181 2.84472C7.23674 3.16744 7.23076 3.34546 7.22437 3.65818L7.93574 2.918Z" fill="#007FFF" stroke="#67211F" stroke-width="0.00590396"/>
<path d="M7.76351 3.09388L7.41157 2.66882L7.26181 2.84471C7.24227 3.16314 7.2329 3.33983 7.22437 3.65819L7.76351 3.09388Z" fill="#398F00" stroke="#67211F" stroke-width="0.00590396"/>
<path d="M7.79346 3.83411L7.44901 3.42371L7.22437 3.65822C7.23185 3.98801 7.25432 4.13458 7.27681 4.40574L7.79346 3.83411Z" fill="#D60000" stroke="#67211F" stroke-width="0.00590396"/>
<path d="M7.76082 4.66932L7.41637 4.25159L7.27409 4.40549C7.334 4.7426 7.34898 4.83055 7.40888 5.07972L7.76082 4.66932Z" fill="#007FFF" stroke="#67211F" stroke-width="0.00590396"/>
<path d="M7.85551 5.3676L7.51691 4.9552L7.41156 5.08039L7.45912 5.24451L7.85551 5.3676Z" fill="#FF7F00" stroke="#67211F" stroke-width="0.00590396"/>
<path d="M7.97278 3.63593C7.94613 3.38956 7.93608 3.23759 7.93534 2.91772L7.44861 3.4234C7.67325 3.68723 7.62832 3.6286 7.79306 3.8338L7.97278 3.63593Z" fill="#FF7F00" stroke="#67211F" stroke-width="0.00590396"/>
<path d="M8.06334 4.31791C8.03339 4.09072 7.99594 3.97346 7.97348 3.64368L7.41936 4.25195C7.63857 4.53179 7.59498 4.46894 7.76381 4.66229L8.06334 4.31791Z" fill="#398F00" stroke="#67211F" stroke-width="0.00590396"/>
<path d="M8.23475 4.97012C8.16735 4.72827 8.12991 4.62567 8.06252 4.31787L7.51588 4.95546C7.68811 5.17532 7.68811 5.17532 7.86034 5.37319L8.23475 4.97012Z" fill="#D60000" stroke="#67211F" stroke-width="0.00590396"/>
<path d="M8.44981 5.54066C8.27674 5.32709 8.28761 5.33767 8.10702 5.10938L7.84834 5.36268C8.16577 5.4461 8.16021 5.44425 8.16021 5.44425L8.44981 5.54066Z" fill="#398F00" stroke="#67211F" stroke-width="0.00590396"/>
<path d="M8.2356 4.96997L8.10768 5.10989L8.43877 5.5223H8.44629L8.2356 4.96997Z" fill="#007FFF" stroke="#67211F" stroke-width="0.00590396"/>
<path d="M8.00859 3.9824L7.97096 3.651L7.92582 3.69519L7.85809 3.76883L8.00859 3.9824Z" fill="#007FFF" stroke="#67211F" stroke-width="0.00590396"/>
<g filter="url(#filter0_d_1200_7228)">
<path d="M8.96001 2.73732L9.08089 2.55026C9.08089 2.55026 9.21223 3.09889 9.12054 3.44985C9.04763 3.72892 8.77883 4.09308 8.77883 4.09308C8.6558 4.4075 8.66368 4.57995 8.73036 4.88497L8.48503 5.17372C8.48503 5.17372 8.40918 4.77391 8.28661 4.57783C8.10878 4.29334 7.81537 4.37071 7.63443 4.12066C7.36652 3.75043 7.50543 2.96879 7.50543 2.96879L7.72282 3.1572C7.72282 3.1572 7.85456 2.96258 7.98331 2.68328C8.02941 2.58326 8.07514 2.47238 8.11429 2.35568C8.17414 2.1773 8.24078 1.89044 8.24078 1.89044L8.36645 2.14788L8.46751 2.011C8.46751 2.011 8.47632 2.20832 8.51362 2.31867C8.59921 2.57191 8.69751 2.6641 8.96001 2.73732Z" fill="url(#paint1_linear_1200_7228)"/>
<path d="M8.96001 2.73732C9.00722 2.66427 9.08089 2.55026 9.08089 2.55026C9.08089 2.55026 9.21223 3.09889 9.12054 3.44985C9.04763 3.72892 8.77883 4.09308 8.77883 4.09308C8.6558 4.4075 8.66368 4.57995 8.73036 4.88497L8.48503 5.17372C8.48503 5.17372 8.40918 4.77391 8.28661 4.57783C8.10878 4.29334 7.81537 4.37071 7.63443 4.12066C7.36652 3.75043 7.50543 2.96879 7.50543 2.96879L7.72282 3.1572M8.96001 2.73732C8.69751 2.6641 8.59921 2.57191 8.51362 2.31867C8.47632 2.20832 8.46751 2.011 8.46751 2.011L8.36645 2.14788M8.96001 2.73732C8.95281 2.76379 8.74168 3.2204 8.74168 3.2204C8.74168 3.2204 8.57658 2.90395 8.50234 2.68935M7.72282 3.1572C7.84718 3.30038 7.86589 3.39395 7.90113 3.55985L8.06253 2.9662L8.3088 3.33065L8.35181 2.53732L8.50234 2.68935M7.72282 3.1572C7.72282 3.1572 7.85456 2.96258 7.98331 2.68328C8.02941 2.58326 8.07514 2.47238 8.11429 2.35568C8.17414 2.1773 8.24078 1.89044 8.24078 1.89044L8.36645 2.14788M8.36645 2.14788C8.36645 2.14788 8.43096 2.48301 8.50234 2.68935" stroke="#F8F7FC" stroke-width="0.0365292"/>
</g>
<defs>
<filter id="filter0_d_1200_7228" x="7.45114" y="1.83606" width="1.84715" height="3.49072" filterUnits="userSpaceOnUse" color-interpolation-filters="sRGB">
<feFlood flood-opacity="0" result="BackgroundImageFix"/>
<feColorMatrix in="SourceAlpha" type="matrix" values="0 0 0 0 0 0 0 0 0 0 0 0 0 0 0 0 0 0 127 0" result="hardAlpha"/>
<feOffset dx="0.0737995" dy="0.0590396"/>
<feGaussianBlur stdDeviation="0.0265678"/>
<feComposite in2="hardAlpha" operator="out"/>
<feColorMatrix type="matrix" values="0 0 0 0 0 0 0 0 0 0 0 0 0 0 0 0 0 0 0.25 0"/>
<feBlend mode="normal" in2="BackgroundImageFix" result="effect1_dropShadow_1200_7228"/>
<feBlend mode="normal" in="SourceGraphic" in2="effect1_dropShadow_1200_7228" result="shape"/>
</filter>
<radialGradient id="paint0_radial_1200_7228" cx="0" cy="0" r="1" gradientUnits="userSpaceOnUse" gradientTransform="translate(9.92041 9.90707) scale(7.11802 7.11799)">
<stop offset="0.5" stop-color="#FDE030"/>
<stop offset="0.92" stop-color="#F7C02B"/>
<stop offset="1" stop-color="#F4A223"/>
</radialGradient>
<linearGradient id="paint1_linear_1200_7228" x1="8.64272" y1="1.99658" x2="7.84813" y2="5.00553" gradientUnits="userSpaceOnUse">
<stop stop-color="#C9C9C9"/>
<stop offset="1" stop-color="#939297"/>
</linearGradient>
</defs>
</svg>
