<svg width="19" height="18" viewBox="0 0 19 18" fill="none" xmlns="http://www.w3.org/2000/svg">
<path d="M10.0174 16.8926C6.53086 16.8926 2.76939 14.7057 2.76939 9.90707C2.76939 5.1084 6.53086 2.92151 10.0174 2.92151C11.9544 2.92151 13.7414 3.55883 15.066 4.72101C16.5031 5.99565 17.2654 7.79515 17.2654 9.90707C17.2654 12.019 16.5031 13.806 15.066 15.0806C13.7414 16.2428 11.9419 16.8926 10.0174 16.8926Z" fill="url(#paint0_radial_1200_6821)"/>
<path d="M16.0038 5.75439C16.6699 6.8291 17.0173 8.10874 17.0173 9.5321C17.0173 11.644 16.255 13.431 14.8179 14.7057C13.4932 15.8678 11.6937 16.5177 9.76924 16.5177C7.51236 16.5177 5.14551 15.5992 3.74839 13.651C5.09302 15.8578 7.62233 16.8926 10.0192 16.8926C11.9436 16.8926 13.7432 16.2427 15.0678 15.0806C16.5049 13.8059 17.2672 12.0189 17.2672 9.90699C17.2672 8.31493 16.8336 6.90033 16.0038 5.75439Z" fill="#EB8F00"/>
<path d="M10.068 12.9388C11.4201 12.9388 12.2962 13.9286 12.5236 14.3847C12.6111 14.5609 12.6161 14.7071 12.5411 14.7758C12.4624 14.8271 12.3599 14.8271 12.2812 14.7758C12.2424 14.7571 12.2037 14.7358 12.1687 14.7109C10.9128 13.8111 9.2245 13.8111 7.96859 14.7109C7.9336 14.7358 7.89611 14.7571 7.85612 14.7758C7.77739 14.8283 7.67492 14.8283 7.59619 14.7758C7.52121 14.7071 7.52621 14.5609 7.61369 14.3847C7.83987 13.9298 8.71588 12.9388 10.068 12.9388Z" fill="#422B0D"/>
<path d="M5.49197 7.01791C5.21704 7.06665 5.2033 7.46653 5.50321 7.48028C6.16553 7.49028 6.80536 7.24535 7.29272 6.79672C7.47767 6.63676 7.63513 6.44807 7.75635 6.23563C7.82883 6.1319 7.80383 5.98944 7.70136 5.91572C7.59889 5.84199 7.45518 5.86823 7.38145 5.9707L7.36895 5.9832C6.87784 6.53179 6.21677 6.89544 5.49197 7.01791Z" fill="#422B0D"/>
<path d="M12.8329 5.98712L12.8204 5.97463C12.7479 5.87091 12.6042 5.84591 12.5005 5.91839C12.3968 5.99087 12.3718 6.13458 12.4455 6.2383C12.568 6.4495 12.7254 6.63819 12.9116 6.7969C13.399 7.24552 14.0388 7.48921 14.7011 7.47796C15.0011 7.46421 14.9873 7.06433 14.7111 7.01559C13.9863 6.89437 13.3253 6.53197 12.8329 5.98712Z" fill="#422B0D"/>
<path d="M4.5097 15.4198C3.45249 15.4198 2.63521 14.3939 2.63521 13.5154C2.63521 12.898 2.91138 12.182 3.30253 11.1897C3.35126 11.0435 3.41624 10.8961 3.48123 10.7336C3.66743 10.2688 3.83113 9.76514 4.08106 9.32902C4.19978 9.11657 4.46846 9.0416 4.67965 9.16031C4.74963 9.2003 4.80836 9.25779 4.84835 9.32902C5.08079 9.75765 5.24075 10.2213 5.48193 10.7624C6.16549 12.2919 6.35669 12.9105 6.35669 13.5278C6.38043 14.3989 5.55066 15.4198 4.5097 15.4198Z" fill="url(#paint1_radial_1200_6821)"/>
<path d="M5.65475 14.2515C5.41606 14.6264 4.87371 14.5514 4.87371 13.9378C4.87371 13.5454 4.95369 11.531 5.29109 11.8134C5.83845 12.272 5.99465 13.7291 5.65475 14.2515Z" fill="#81D4FA"/>
<path d="M7.65371 8.91357C7.1301 8.91357 6.65398 9.35595 6.65398 10.0907C6.65398 10.8255 7.1301 11.2667 7.65371 11.2667C8.17731 11.2667 8.65343 10.8243 8.65343 10.0907C8.65343 9.3572 8.17731 8.91357 7.65371 8.91357Z" fill="#422B0D"/>
<path d="M7.60349 9.40514C7.42604 9.32016 7.21235 9.39514 7.12612 9.57259C7.05989 9.7113 7.08988 9.87751 7.2011 9.98498C7.37856 10.07 7.59225 9.99497 7.67847 9.81752C7.74471 9.67881 7.71471 9.51261 7.60349 9.40514Z" fill="#896024"/>
<path d="M12.4437 8.91357C11.9201 8.91357 11.4439 9.35595 11.4439 10.0907C11.4439 10.8255 11.9201 11.2667 12.4437 11.2667C12.9673 11.2667 13.4434 10.8243 13.4434 10.0907C13.4434 9.3572 12.9698 8.91357 12.4437 8.91357Z" fill="#422B0D"/>
<path d="M12.3963 9.40514C12.2188 9.32016 12.0051 9.39514 11.9189 9.57259C11.8527 9.7113 11.8827 9.87751 11.9939 9.98498C12.1714 10.07 12.385 9.99497 12.4713 9.81752C12.5375 9.67881 12.5075 9.51261 12.3963 9.40514Z" fill="#896024"/>
<path d="M6.18171 1.30043H6.67461C6.67461 1.30043 8.69922 1.02484 10.0684 1.03701C11.3735 1.04861 13.2924 1.30043 13.2924 1.30043H14.0681C14.8578 2.60497 15.4253 3.94463 15.6855 5.32076C13.1344 4.59468 10.0684 6.12934 10.0684 6.12934C10.0684 6.12934 6.95628 4.62146 4.47579 5.16341C4.87283 3.7547 5.36217 2.47633 6.18171 1.30043Z" fill="#7F2125"/>
<path d="M6.18171 1.30043H6.67461C6.67461 1.30043 8.69922 1.02484 10.0684 1.03701C11.3735 1.04861 13.2924 1.30043 13.2924 1.30043H14.0681M6.18171 1.30043C5.36217 2.47633 4.87283 3.7547 4.47579 5.16341C6.95628 4.62146 10.0684 6.12935 10.0684 6.12935C10.0684 6.12935 13.1344 4.59468 15.6855 5.32076C15.4253 3.94463 14.8578 2.60497 14.0681 1.30043M6.18171 1.30043C6.82285 1.99705 7.73625 1.55945 10.0684 2.09553C12.1798 1.57565 13.1965 2.03155 14.0681 1.30043" stroke="#67211F" stroke-width="0.0582032"/>
<path d="M10.0857 6.10656L10.0932 2.09899C11.6807 1.61091 12.8859 1.99196 14.0769 1.3241C14.5956 2.12207 15.4536 3.61623 15.6943 5.30927C13.6326 4.77817 11.4527 5.47927 10.0857 6.10656Z" fill="#67211F" stroke="#67211F" stroke-width="0.0365292"/>
<path d="M7.36223 1.75202C7.00178 1.51047 6.66361 1.64136 6.67844 1.29443L6.21417 1.30919C6.57604 1.69781 7.11106 1.69679 7.36223 1.75202Z" fill="#67211F"/>
<path d="M12.7307 1.70785C13.0912 1.46874 13.3797 1.62321 13.3648 1.27979H14.0762C13.7144 1.66447 12.9819 1.65318 12.7307 1.70785Z" fill="#67211F" fill-opacity="0.56"/>
<path d="M10.1409 1.33873L10.0599 2.05107L10.2086 2.04081L10.1409 1.33873Z" fill="#67211F" stroke="#67211F" stroke-width="0.0885594"/>
<path d="M8.19326 1.83328C7.9312 1.81862 7.77341 1.80396 7.55677 1.78931C7.42199 3.3391 7.37026 3.72285 7.65107 5.25788C8.03191 5.35764 8.3199 5.45176 8.64866 5.55308C7.87774 4.15015 8.09197 3.24888 8.19326 1.83328Z" fill="#D60000" stroke="#67211F" stroke-width="0.0365292"/>
<path d="M7.76901 1.81163L7.57906 1.79675L7.54107 2.07933L7.76901 1.81163Z" fill="#398F00" stroke="#67211F" stroke-width="0.00737995"/>
<path d="M7.45939 2.85268L8.17076 2.03187L8.17825 1.84865L7.7664 1.81201L7.54176 2.07584L7.45939 2.85268Z" fill="#FF7F00" stroke="#67211F" stroke-width="0.00737995"/>
<path d="M7.92278 2.30976C7.92278 2.30976 7.69564 2.05571 7.61576 1.9873L7.54088 2.07525L7.466 2.84475C7.57583 2.71528 7.92278 2.30976 7.92278 2.30976Z" fill="#D60000" stroke="#67211F" stroke-width="0.00737995"/>
<path d="M8.13838 2.918C8.13915 2.60174 8.14659 2.40562 8.16833 2.03125L7.46445 2.84472C7.43938 3.16744 7.4334 3.34546 7.427 3.65818L8.13838 2.918Z" fill="#007FFF" stroke="#67211F" stroke-width="0.00590396"/>
<path d="M7.96615 3.09388L7.61421 2.66882L7.46444 2.84471C7.44491 3.16314 7.43554 3.33983 7.427 3.65819L7.96615 3.09388Z" fill="#398F00" stroke="#67211F" stroke-width="0.00590396"/>
<path d="M7.9961 3.83411L7.65165 3.42371L7.427 3.65822C7.43449 3.98801 7.45696 4.13458 7.47945 4.40574L7.9961 3.83411Z" fill="#D60000" stroke="#67211F" stroke-width="0.00590396"/>
<path d="M7.96736 4.66932L7.6229 4.25159L7.48063 4.40549C7.54053 4.7426 7.55551 4.83055 7.61541 5.07972L7.96736 4.66932Z" fill="#007FFF" stroke="#67211F" stroke-width="0.00590396"/>
<path d="M8.05912 5.3676L7.72052 4.9552L7.61517 5.08039L7.66273 5.24451L8.05912 5.3676Z" fill="#FF7F00" stroke="#67211F" stroke-width="0.00590396"/>
<path d="M8.17639 3.63593C8.14974 3.38956 8.13969 3.23759 8.13895 2.91772L7.65222 3.4234C7.87686 3.68723 7.83193 3.6286 7.99667 3.8338L8.17639 3.63593Z" fill="#FF7F00" stroke="#67211F" stroke-width="0.00590396"/>
<path d="M8.26695 4.31791C8.237 4.09072 8.19956 3.97346 8.17709 3.64368L7.62297 4.25195C7.84218 4.53179 7.79859 4.46894 7.96742 4.66229L8.26695 4.31791Z" fill="#398F00" stroke="#67211F" stroke-width="0.00590396"/>
<path d="M8.43738 4.97012C8.36998 4.72827 8.33254 4.62567 8.26515 4.31787L7.71852 4.95546C7.89074 5.17532 7.89074 5.17532 8.06297 5.37319L8.43738 4.97012Z" fill="#D60000" stroke="#67211F" stroke-width="0.00590396"/>
<path d="M8.65634 5.54066C8.48327 5.32709 8.49414 5.33767 8.31355 5.10938L8.05488 5.36268C8.37231 5.4461 8.36675 5.44425 8.36675 5.44425L8.65634 5.54066Z" fill="#398F00" stroke="#67211F" stroke-width="0.00590396"/>
<path d="M8.43921 4.96997L8.31129 5.10989L8.64237 5.5223H8.6499L8.43921 4.96997Z" fill="#007FFF" stroke="#67211F" stroke-width="0.00590396"/>
<path d="M8.21512 3.9824L8.17749 3.651L8.13235 3.69519L8.06462 3.76883L8.21512 3.9824Z" fill="#007FFF" stroke="#67211F" stroke-width="0.00590396"/>
<g filter="url(#filter0_d_1200_6821)">
<path d="M9.16522 2.73732L9.2861 2.55026C9.2861 2.55026 9.41744 3.09889 9.32575 3.44985C9.25284 3.72892 8.98404 4.09308 8.98404 4.09308C8.86101 4.4075 8.86888 4.57995 8.93557 4.88497L8.69024 5.17372C8.69024 5.17372 8.61439 4.77391 8.49182 4.57783C8.31399 4.29334 8.02058 4.37071 7.83964 4.12066C7.57173 3.75043 7.71064 2.96879 7.71064 2.96879L7.92802 3.1572C7.92802 3.1572 8.05977 2.96258 8.18852 2.68328C8.23462 2.58326 8.28035 2.47238 8.3195 2.35568C8.37935 2.1773 8.44599 1.89044 8.44599 1.89044L8.57166 2.14788L8.67272 2.011C8.67272 2.011 8.68153 2.20832 8.71883 2.31867C8.80442 2.57191 8.90272 2.6641 9.16522 2.73732Z" fill="url(#paint2_linear_1200_6821)"/>
<path d="M9.16522 2.73732C9.21243 2.66427 9.2861 2.55026 9.2861 2.55026C9.2861 2.55026 9.41744 3.09889 9.32575 3.44985C9.25284 3.72892 8.98404 4.09308 8.98404 4.09308C8.86101 4.4075 8.86889 4.57995 8.93557 4.88497L8.69024 5.17372C8.69024 5.17372 8.61439 4.77391 8.49182 4.57783C8.31399 4.29334 8.02058 4.37071 7.83964 4.12066C7.57173 3.75043 7.71064 2.96879 7.71064 2.96879L7.92802 3.1572M9.16522 2.73732C8.90272 2.6641 8.80442 2.57191 8.71883 2.31867C8.68153 2.20832 8.67272 2.011 8.67272 2.011L8.57166 2.14788M9.16522 2.73732C9.15802 2.76379 8.94689 3.2204 8.94689 3.2204C8.94689 3.2204 8.78179 2.90395 8.70755 2.68935M7.92802 3.1572C8.05239 3.30038 8.0711 3.39395 8.10634 3.55985L8.26774 2.9662L8.51401 3.33065L8.55702 2.53732L8.70755 2.68935M7.92802 3.1572C7.92802 3.1572 8.05977 2.96258 8.18852 2.68328C8.23462 2.58326 8.28035 2.47238 8.3195 2.35568C8.37935 2.1773 8.44599 1.89044 8.44599 1.89044L8.57166 2.14788M8.57166 2.14788C8.57166 2.14788 8.63617 2.48301 8.70755 2.68935" stroke="#F8F7FC" stroke-width="0.0365292"/>
</g>
<defs>
<filter id="filter0_d_1200_6821" x="7.65634" y="1.83606" width="1.84716" height="3.49072" filterUnits="userSpaceOnUse" color-interpolation-filters="sRGB">
<feFlood flood-opacity="0" result="BackgroundImageFix"/>
<feColorMatrix in="SourceAlpha" type="matrix" values="0 0 0 0 0 0 0 0 0 0 0 0 0 0 0 0 0 0 127 0" result="hardAlpha"/>
<feOffset dx="0.0737995" dy="0.0590396"/>
<feGaussianBlur stdDeviation="0.0265678"/>
<feComposite in2="hardAlpha" operator="out"/>
<feColorMatrix type="matrix" values="0 0 0 0 0 0 0 0 0 0 0 0 0 0 0 0 0 0 0.25 0"/>
<feBlend mode="normal" in2="BackgroundImageFix" result="effect1_dropShadow_1200_6821"/>
<feBlend mode="normal" in="SourceGraphic" in2="effect1_dropShadow_1200_6821" result="shape"/>
</filter>
<radialGradient id="paint0_radial_1200_6821" cx="0" cy="0" r="1" gradientUnits="userSpaceOnUse" gradientTransform="translate(10.0174 9.90707) scale(7.11802 7.11799)">
<stop offset="0.5" stop-color="#FDE030"/>
<stop offset="0.92" stop-color="#F7C02B"/>
<stop offset="1" stop-color="#F4A223"/>
</radialGradient>
<radialGradient id="paint1_radial_1200_6821" cx="0" cy="0" r="1" gradientUnits="userSpaceOnUse" gradientTransform="translate(4.64341 9.91391) scale(4.17386 6.42771)">
<stop offset="0.46" stop-color="#29B6F6"/>
<stop offset="1" stop-color="#1E88E5"/>
</radialGradient>
<linearGradient id="paint2_linear_1200_6821" x1="8.84793" y1="1.99658" x2="8.05334" y2="5.00553" gradientUnits="userSpaceOnUse">
<stop stop-color="#C9C9C9"/>
<stop offset="1" stop-color="#939297"/>
</linearGradient>
</defs>
</svg>
