<svg width="19" height="19" viewBox="0 0 19 19" fill="none" xmlns="http://www.w3.org/2000/svg">
<g clip-path="url(#clip0_1200_7733)">
<path d="M9.99127 18.2836C6.50473 18.2836 2.74326 16.0967 2.74326 11.2981C2.74326 6.49939 6.50473 4.3125 9.99127 4.3125C11.9282 4.3125 13.7153 4.94982 15.0399 6.112C16.477 7.38665 17.2393 9.18615 17.2393 11.2981C17.2393 13.41 16.477 15.197 15.0399 16.4716C13.7153 17.6338 11.9157 18.2836 9.99127 18.2836Z" fill="url(#paint0_radial_1200_7733)"/>
<path d="M9.99127 18.2836C6.50473 18.2836 2.74326 16.0967 2.74326 11.2981C2.74326 6.49939 6.50473 4.3125 9.99127 4.3125C11.9282 4.3125 13.7153 4.94982 15.0399 6.112C16.477 7.38665 17.2393 9.18615 17.2393 11.2981C17.2393 13.41 16.477 15.197 15.0399 16.4716C13.7153 17.6338 11.9157 18.2836 9.99127 18.2836Z" fill="url(#paint1_linear_1200_7733)"/>
<path d="M15.9756 7.14563C16.6416 8.22033 16.989 9.49998 16.989 10.9233C16.989 13.0352 16.2267 14.8222 14.7896 16.0969C13.465 17.2591 11.6655 17.9089 9.74102 17.9089C7.48414 17.9089 5.11229 16.9904 3.72017 15.0422C5.0648 17.2491 7.59286 18.2838 9.99095 18.2838C11.9154 18.2838 13.7149 17.634 15.0396 16.4718C16.4767 15.1971 17.239 13.4101 17.239 11.2982C17.239 9.70617 16.8053 8.29156 15.9756 7.14563Z" fill="#EB8F00"/>
<path opacity="0.8" d="M5.75354 13.4855C6.87851 13.4855 7.79048 12.5735 7.79048 11.4486C7.79048 10.3236 6.87851 9.41162 5.75354 9.41162C4.62857 9.41162 3.7166 10.3236 3.7166 11.4486C3.7166 12.5735 4.62857 13.4855 5.75354 13.4855Z" fill="url(#paint2_radial_1200_7733)"/>
<path opacity="0.8" d="M14.1499 11.9109C15.2748 11.9109 16.1868 10.9989 16.1868 9.87397C16.1868 8.749 15.2748 7.83704 14.1499 7.83704C13.0249 7.83704 12.1129 8.749 12.1129 9.87397C12.1129 10.9989 13.0249 11.9109 14.1499 11.9109Z" fill="url(#paint3_radial_1200_7733)"/>
<path d="M14.1499 9.61114C13.1876 10.4984 11.913 11.1982 10.4384 11.5356C8.96378 11.873 7.51418 11.8105 6.26452 11.4231C6.03958 11.3482 5.87712 11.6481 6.07707 11.798C7.33922 12.7353 9.02626 13.1352 10.7133 12.7353C12.4003 12.3479 13.75 11.2607 14.4748 9.86107C14.5997 9.64863 14.3248 9.44869 14.1499 9.61114Z" fill="#422B0D"/>
<path d="M8.10073 9.33585C8.10073 9.33585 8.08823 9.32335 8.07573 9.31085C8.06324 9.29836 8.03825 9.28586 8.01325 9.26087C7.98826 9.24837 7.96327 9.22338 7.93827 9.21088C7.91328 9.18589 7.87579 9.16089 7.8383 9.1359C7.80081 9.11091 7.76332 9.08591 7.72583 9.07342C7.68834 9.04842 7.65085 9.03593 7.61336 9.03593C7.57587 9.02343 7.55088 9.02343 7.53838 9.02343C7.52589 9.02343 7.52589 9.02343 7.51339 9.02343C7.51339 9.02343 7.51339 9.02343 7.50089 9.02343C7.51339 9.02343 7.4759 9.02343 7.52589 9.02343L7.4634 9.03593C7.45091 9.03593 7.4634 9.03593 7.4634 9.03593C7.4634 9.03593 7.4634 9.03593 7.4759 9.03593C7.4759 9.03593 7.4884 9.03593 7.4759 9.03593H7.4634C7.45091 9.04842 7.42591 9.06092 7.40092 9.07342C7.37593 9.09841 7.33844 9.1234 7.31344 9.1484C7.28845 9.17339 7.26346 9.21088 7.23846 9.24837C7.18848 9.32335 7.15099 9.38583 7.12599 9.43582C7.101 9.4858 7.07601 9.5108 7.07601 9.5108L7.05102 9.56078C6.92605 9.77322 6.65112 9.8607 6.42619 9.74823C6.27623 9.67325 6.18875 9.53579 6.17625 9.38583C6.17625 9.38583 6.17625 9.33585 6.17625 9.24837C6.18875 9.16089 6.20125 9.03593 6.25123 8.88597C6.30122 8.73601 6.3887 8.54856 6.55115 8.37361C6.63863 8.28614 6.7386 8.18616 6.86357 8.12368C6.88856 8.09869 6.92605 8.08619 6.96354 8.0737C7.00103 8.0612 7.02602 8.03621 7.07601 8.02371L7.13849 7.99872C7.16348 7.98622 7.18848 7.98622 7.20097 7.98622L7.26346 7.97372L7.30095 7.96123H7.32594H7.35093L7.41342 7.94873C7.45091 7.94873 7.4884 7.94873 7.52589 7.94873C7.60087 7.94873 7.67584 7.94873 7.75082 7.96123C7.90078 7.98622 8.02575 8.03621 8.13822 8.08619C8.36316 8.19866 8.50062 8.33612 8.61309 8.44859C8.66307 8.51107 8.71306 8.56106 8.73805 8.61105C8.77554 8.66103 8.80054 8.71102 8.82553 8.74851C8.85052 8.786 8.85052 8.81099 8.86302 8.82349C8.86302 8.83598 8.87552 8.84848 8.87552 8.84848C8.96299 9.07342 8.83803 9.32335 8.58809 9.41082C8.41314 9.47331 8.22569 9.43582 8.10073 9.33585Z" fill="#422B0D"/>
<path d="M12.3896 8.49812C12.3896 8.49812 12.3771 8.48563 12.3646 8.47313C12.3521 8.46063 12.3271 8.44814 12.3021 8.42314C12.2771 8.41065 12.2521 8.38565 12.2271 8.37316C12.2021 8.34816 12.1646 8.32317 12.1271 8.29818C12.0897 8.27318 12.0522 8.24819 12.0147 8.2357C11.9772 8.2107 11.9397 8.1982 11.9022 8.1982C11.8772 8.18571 11.8522 8.18571 11.8397 8.18571C11.8272 8.18571 11.8272 8.18571 11.8147 8.18571H11.8022C11.8147 8.18571 11.7772 8.18571 11.8272 8.18571L11.7647 8.1982C11.7522 8.1982 11.7647 8.1982 11.7647 8.1982H11.7772C11.7772 8.1982 11.7897 8.1982 11.7772 8.1982H11.7647C11.7522 8.2107 11.7272 8.2232 11.6898 8.2357C11.6648 8.26069 11.6398 8.28568 11.6023 8.31067C11.5773 8.33567 11.5523 8.37316 11.5273 8.41065C11.4773 8.48563 11.4398 8.54811 11.4148 8.59809C11.3898 8.64808 11.3648 8.67307 11.3648 8.67307L11.3399 8.71056C11.2149 8.923 10.94 9.01048 10.715 8.89801C10.5651 8.82303 10.4776 8.68557 10.4651 8.53561C10.4651 8.53561 10.4651 8.48563 10.4776 8.39815C10.4901 8.31067 10.5026 8.18571 10.5526 8.03575C10.6026 7.88579 10.69 7.69834 10.8525 7.52339C10.94 7.43592 11.0399 7.33594 11.1649 7.27346C11.1899 7.26097 11.2274 7.23597 11.2649 7.22348C11.3024 7.21098 11.3274 7.18599 11.3773 7.17349L11.4523 7.1485C11.4773 7.136 11.5023 7.136 11.5148 7.136L11.5773 7.1235L11.6148 7.11101H11.6398H11.6648L11.7272 7.09851C11.7647 7.09851 11.8022 7.09851 11.8397 7.09851C11.9147 7.09851 11.9897 7.09851 12.0647 7.11101C12.2146 7.136 12.3396 7.18599 12.4521 7.23597C12.677 7.34844 12.8145 7.4859 12.9269 7.59837C12.9769 7.66085 13.0269 7.71084 13.0519 7.76083C13.0894 7.81081 13.1144 7.8608 13.1394 7.89829C13.1644 7.93578 13.1644 7.96077 13.1769 7.97327C13.1893 7.98576 13.1893 7.99826 13.1893 7.99826C13.2768 8.2232 13.1519 8.47313 12.9019 8.5606C12.702 8.64808 12.5145 8.61059 12.3896 8.49812Z" fill="#422B0D"/>
<path d="M7.39947 13.7659C7.36823 13.4547 7.38197 13.2773 7.14329 13.221C6.87586 13.1585 6.63718 13.3497 6.5647 13.6234C6.3735 14.3557 6.69841 14.8668 6.69841 14.8668C6.23604 14.7756 5.84989 14.3257 5.84989 14.3257C5.60871 14.042 5.2688 13.3372 5.03387 13.0473C4.89141 12.8711 4.65772 12.7274 4.42528 12.8486C3.86794 13.141 4.48527 14.1358 4.69271 14.4007C4.9289 14.7019 4.07913 13.7384 3.95416 13.5284C3.72173 13.1385 3.4368 13.0348 3.19812 13.2385C2.95943 13.441 3.15063 13.9471 3.25935 14.1395C3.92542 15.3079 4.50651 15.5941 4.50651 15.5941C4.50651 15.5941 3.88793 15.2967 3.36057 14.6581C2.86321 14.0558 2.39084 14.6919 2.722 15.2267C2.79198 15.3404 2.92569 15.6341 3.35558 16.0052C3.47054 16.119 3.68549 16.2902 3.35558 16.0052C2.9157 15.5716 2.44707 16.034 2.58829 16.4126C2.75199 16.8488 3.28559 17.2524 3.64675 17.5198C4.34905 18.0397 5.22506 18.4558 6.11232 18.4271C7.09955 18.3958 7.8281 17.9847 8.04679 16.7638C8.14802 16.1964 7.83185 15.3267 7.73813 15.1042C7.43196 14.3844 7.41696 13.9421 7.39947 13.7659Z" fill="url(#paint4_radial_1200_7733)"/>
<path d="M6.40718 16.8028C6.27472 16.6166 5.90107 15.7518 6.59838 14.8671L6.80082 14.9945C6.01104 15.9693 6.56339 16.8015 6.65961 16.9902C6.65961 16.9902 6.5334 16.9815 6.40718 16.8028Z" fill="#EB8F00"/>
<path d="M7.8145 15.0238C7.50459 14.4227 7.48209 14.1103 7.46085 13.7679C7.43711 13.5205 7.41961 13.2143 7.12094 13.1443C6.99348 13.1143 6.81602 13.1318 6.65857 13.3055C6.26493 13.7429 6.57859 14.7601 6.57859 14.7601C6.0125 14.4952 5.91752 14.2615 5.51638 13.6579C5.34143 13.393 5.06275 12.9031 4.80782 12.7607C4.62537 12.6582 4.35545 12.7344 4.22049 12.9169C3.91682 13.3243 4.45792 14.1503 4.45792 14.1503C4.45792 14.1503 4.15925 13.7154 4.02929 13.488C3.8081 13.1018 3.40321 12.8881 3.10454 13.1568C2.61717 13.5954 3.56441 14.7751 3.56441 14.7751C3.56441 14.7751 3.12828 14.0841 2.6934 14.3765C2.46722 14.5289 2.37849 14.9263 2.61343 15.3087C2.71715 15.4824 2.98082 15.7898 2.98082 15.7898C2.98082 15.7898 2.8746 15.7223 2.69715 15.7798C2.49971 15.8448 2.331 16.0897 2.47471 16.4721C2.64092 16.9195 3.13328 17.3069 3.58191 17.6306C4.60288 18.3679 5.7963 18.4128 5.7963 18.4128C5.7963 18.4128 4.48791 18.1617 3.65064 17.3994C3.38821 17.1607 2.3485 16.4346 2.71965 16.0573C2.80712 15.9673 2.96708 15.9223 3.20326 16.1097C4.03429 16.7721 4.31796 16.6183 4.31796 16.6183C4.34795 16.5034 4.26547 16.4546 4.01804 16.3084C3.84684 16.2072 3.6119 16.0685 3.4382 15.9198C3.01207 15.5511 2.53095 14.9101 2.79463 14.6252C2.93584 14.4727 3.09954 14.5052 3.25825 14.6689C4.36295 15.7961 4.62287 15.6374 4.62287 15.6374C4.62287 15.6374 4.65662 15.5149 4.30796 15.2087C4.04053 14.9751 3.71187 14.6864 3.30574 13.9791C3.19827 13.7916 3.14328 13.458 3.30074 13.3268C3.51318 13.1468 3.70938 13.2655 3.88558 13.5292C4.10052 13.8504 4.40543 14.2453 4.7091 14.5364C5.0765 14.8876 5.27395 14.995 5.28644 14.9826C5.37392 14.8876 4.99777 14.5189 4.83032 14.289C4.24048 13.4755 4.24923 13.208 4.37169 12.9969C4.44917 12.8631 4.66286 12.8032 4.92029 13.1268C5.47514 13.7666 5.75507 14.8076 6.79978 14.9925C6.79978 14.9925 6.83977 14.9301 6.74604 14.5914C6.63357 14.2378 6.61483 13.9366 6.67231 13.6729C6.73605 13.3817 6.96973 13.2993 7.09845 13.3305C7.2709 13.3717 7.25091 13.6617 7.25091 13.6617C7.25091 13.6617 7.2609 13.7679 7.2659 13.8166C7.2859 14.0266 7.32714 14.4639 7.61706 15.1388C7.73327 15.4087 8.3531 16.5184 7.51333 17.9067C7.51333 17.9067 7.86949 17.998 8.27812 18.0929C8.27812 18.0929 8.43933 17.5243 8.36435 16.6408C8.27313 15.5299 8.02319 15.4287 7.8145 15.0238Z" fill="#EB8F00"/>
<path d="M2.1116 16.2741C2.11551 16.2376 2.12071 16.2064 2.12722 16.1791C2.11811 16.209 2.1129 16.2402 2.1116 16.2741Z" fill="url(#paint5_radial_1200_7733)"/>
<path d="M12.5664 13.7652C12.5976 13.4541 12.5851 13.2829 12.8225 13.2204C13.0775 13.1541 13.3237 13.3503 13.4011 13.6228C13.5798 14.2626 13.2374 14.8662 13.2374 14.8662C13.6998 14.7749 14.0922 14.3313 14.0922 14.3313C14.3334 14.0476 14.6983 13.3366 14.932 13.0467C15.0744 12.8705 15.2431 12.7567 15.4881 12.8467C15.9942 13.0342 15.4656 14.0589 15.2581 14.3251C15.0219 14.6262 15.1719 14.5775 15.4893 14.2288C15.808 13.8777 15.9767 13.679 16.1016 13.4703C16.3341 13.0804 16.6128 13.1104 16.7677 13.2379C17.0101 13.4378 16.8152 13.9464 16.7065 14.1389C16.0404 15.3073 16.6053 14.6575 16.6053 14.6575C17.1026 14.0551 17.575 14.6912 17.2438 15.2261C17.1739 15.3398 17.0401 15.6334 16.6103 16.0046C16.2803 16.2895 16.4953 16.1183 16.6103 16.0046C17.0501 15.571 17.5188 16.0333 17.3775 16.412C17.2138 16.8481 16.6802 17.2517 16.3191 17.5192C15.6168 18.039 14.7408 18.4552 13.8535 18.4264C12.8663 18.3952 12.1377 17.984 11.919 16.7631C11.8178 16.1958 12.134 15.326 12.2277 15.1036C12.5339 14.3838 12.5489 13.9414 12.5664 13.7652Z" fill="url(#paint6_radial_1200_7733)"/>
<path d="M13.5582 16.8033C13.6906 16.6171 14.0643 15.7523 13.367 14.8676L13.1645 14.995C13.9543 15.9697 13.402 16.802 13.3057 16.9907C13.3057 16.9907 13.4319 16.982 13.5582 16.8033Z" fill="#EB8F00"/>
<path d="M12.1524 15.0238C12.4624 14.4227 12.4848 14.1103 12.5061 13.7679C12.5298 13.5205 12.5473 13.2143 12.846 13.1443C12.9735 13.1143 13.1509 13.1318 13.3084 13.3055C13.702 13.7429 13.3883 14.7601 13.3883 14.7601C13.9544 14.4952 14.0494 14.2615 14.4506 13.6579C14.6255 13.393 14.9042 12.9031 15.1591 12.7607C15.3416 12.6582 15.6115 12.7344 15.7465 12.9169C16.0501 13.3243 15.509 14.1503 15.509 14.1503C15.509 14.1503 15.8077 13.7154 15.9377 13.488C16.1588 13.1018 16.5637 12.8881 16.8624 13.1568C17.3498 13.5954 16.4025 14.7751 16.4025 14.7751C16.4025 14.7751 16.8387 14.0841 17.2735 14.3765C17.4997 14.5289 17.5884 14.9263 17.3535 15.3087C17.2498 15.4824 16.9861 15.7898 16.9861 15.7898C16.9861 15.7898 17.0923 15.7223 17.2698 15.7798C17.4672 15.8448 17.6359 16.0897 17.4922 16.4721C17.326 16.9195 16.8337 17.3069 16.385 17.6306C15.3641 18.3679 14.1706 18.4128 14.1706 18.4128C14.1706 18.4128 15.479 18.1617 16.3163 17.3994C16.5787 17.1607 17.6184 16.4346 17.2473 16.0573C17.1598 15.9673 16.9999 15.9223 16.7637 16.1097C15.9327 16.7721 15.649 16.6183 15.649 16.6183C15.619 16.5034 15.7015 16.4546 15.9489 16.3084C16.1201 16.2072 16.355 16.0685 16.5287 15.9198C16.9549 15.5511 17.436 14.9101 17.1723 14.6252C17.0311 14.4727 16.8674 14.5052 16.7087 14.6689C15.604 15.7961 15.3441 15.6374 15.3441 15.6374C15.3441 15.6374 15.3103 15.5149 15.659 15.2087C15.9264 14.9751 16.2551 14.6864 16.6612 13.9791C16.7687 13.7916 16.8237 13.458 16.6662 13.3268C16.4538 13.1468 16.2576 13.2655 16.0814 13.5292C15.8664 13.8504 15.5615 14.2453 15.2578 14.5364C14.8904 14.8876 14.693 14.995 14.6805 14.9826C14.593 14.8876 14.9692 14.5189 15.1366 14.289C15.7265 13.4755 15.7177 13.208 15.5952 12.9969C15.5178 12.8631 15.3041 12.8032 15.0466 13.1268C14.4893 13.7691 14.2094 14.8101 13.1659 14.995C13.1659 14.995 13.1259 14.9326 13.2196 14.5939C13.3321 14.2403 13.3509 13.9391 13.2934 13.6754C13.2296 13.3842 12.996 13.3018 12.8672 13.333C12.6948 13.3742 12.7148 13.6642 12.7148 13.6642C12.7148 13.6642 12.7048 13.7704 12.6998 13.8191C12.6798 14.0291 12.6386 14.4664 12.3486 15.1413C12.2324 15.4112 11.6113 16.5321 12.4524 17.9092C12.4524 17.9092 12.0962 18.0005 11.6876 18.0954C11.6876 18.0954 11.5264 17.5268 11.6013 16.6433C11.6938 15.5299 11.9437 15.4287 12.1524 15.0238Z" fill="#EB8F00"/>
<path d="M17.8567 16.2741C17.8528 16.2376 17.8476 16.2064 17.8411 16.1791C17.8502 16.209 17.8554 16.2402 17.8567 16.2741Z" fill="url(#paint7_radial_1200_7733)"/>
<path d="M4.31379 3.79823L4.79609 3.69119C4.79609 3.69119 6.71742 2.98249 8.05973 2.69705C9.33926 2.42497 11.2715 2.25409 11.2715 2.25409L12.0305 2.08564C13.0859 3.1877 13.9314 4.3723 14.4842 5.65924C11.8306 5.5044 9.16304 7.66843 9.16304 7.66843C9.16304 7.66843 5.79123 6.87217 3.48153 7.9399C3.56482 6.47843 3.76666 5.12416 4.31379 3.79823Z" fill="#7F2125"/>
<path d="M4.31379 3.79823L4.79609 3.69119C4.79609 3.69119 6.71742 2.98249 8.05973 2.69705C9.33926 2.42497 11.2715 2.25409 11.2715 2.25409L12.0305 2.08564M4.31379 3.79823C3.76666 5.12416 3.56482 6.47843 3.48153 7.9399C5.79123 6.87217 9.16304 7.66843 9.16304 7.66843C9.16304 7.66843 11.8306 5.5044 14.4842 5.65924C13.9314 4.3723 13.0859 3.1877 12.0305 2.08564M4.31379 3.79823C5.09206 4.33907 5.891 3.71351 8.28907 3.73043C10.2425 2.76437 11.336 2.98868 12.0305 2.08564" stroke="#67211F" stroke-width="0.0582032"/>
<path d="M9.17791 7.64287L8.31695 3.72886C9.76453 2.90764 11.0264 3.01792 12.047 2.10729C12.7275 2.77367 13.8908 4.046 14.4931 5.64656C12.3607 5.57579 10.3796 6.73361 9.17791 7.64287Z" fill="#67211F" stroke="#67211F" stroke-width="0.0365292"/>
<path d="M5.56817 3.98318C5.16314 3.82563 4.86061 4.02686 4.79995 3.68495L4.34887 3.80018C4.78715 4.10098 5.31043 3.9838 5.56817 3.98318Z" fill="#67211F"/>
<path d="M10.8094 2.77441C11.1103 2.46271 11.4261 2.55086 11.3371 2.21881L12.0332 2.06433C11.7625 2.51846 11.0433 2.66649 10.8094 2.77441Z" fill="#67211F" fill-opacity="0.56"/>
<path d="M8.19426 2.97649L8.26938 3.6895L8.41263 3.64719L8.19426 2.97649Z" fill="#67211F" stroke="#67211F" stroke-width="0.0885594"/>
<path d="M6.39941 3.88175C6.1398 3.92435 5.98224 3.9443 5.76708 3.97704C5.97099 5.51928 6.00351 5.90516 6.61085 7.34275C7.00511 7.35743 7.3073 7.38678 7.65094 7.4143C6.59265 6.2121 6.607 5.28573 6.39941 3.88175Z" fill="#D60000" stroke="#67211F" stroke-width="0.0365292"/>
<path d="M5.97806 3.95318L5.78897 3.97991L5.81302 4.26402L5.97806 3.95318Z" fill="#398F00" stroke="#67211F" stroke-width="0.00737995"/>
<path d="M5.90139 5.03633L6.41962 4.08054L6.38725 3.90005L5.97633 3.95372L5.81368 4.26006L5.90139 5.03633Z" fill="#FF7F00" stroke="#67211F" stroke-width="0.00737995"/>
<path d="M6.23564 4.40628C6.23564 4.40628 5.95834 4.20758 5.86537 4.15815L5.81115 4.26027L5.9046 5.02776C5.98401 4.87751 6.23564 4.40628 6.23564 4.40628Z" fill="#D60000" stroke="#67211F" stroke-width="0.00737995"/>
<path d="M6.58167 4.95266C6.5139 4.64375 6.4787 4.45067 6.41886 4.08047L5.90636 5.02747C5.95175 5.34797 5.98448 5.52306 6.04597 5.82974L6.58167 4.95266Z" fill="#007FFF" stroke="#67211F" stroke-width="0.00590396"/>
<path d="M6.44863 5.16178L6.01217 4.82324L5.90374 5.02747C5.95361 5.34258 5.98272 5.5171 6.04335 5.82976L6.44863 5.16178Z" fill="#398F00" stroke="#67211F" stroke-width="0.00590396"/>
<path d="M6.63953 5.87766L6.21357 5.5518L6.04457 5.82953C6.12335 6.14986 6.17709 6.28807 6.25784 6.54791L6.63953 5.87766Z" fill="#D60000" stroke="#67211F" stroke-width="0.00590396"/>
<path d="M6.79256 6.69994L6.36501 6.36693L6.25914 6.54807C6.3908 6.86417 6.42451 6.94678 6.53711 7.17702L6.79256 6.69994Z" fill="#007FFF" stroke="#67211F" stroke-width="0.00590396"/>
<path d="M7.03424 7.36138L6.61356 7.0323L6.53761 7.1774L6.6197 7.32728L7.03424 7.36138Z" fill="#FF7F00" stroke="#67211F" stroke-width="0.00590396"/>
<path d="M6.77145 5.6453C6.692 5.41058 6.64923 5.2644 6.57921 4.95229L6.21251 5.55165C6.48948 5.76043 6.43282 5.71295 6.63847 5.8775L6.77145 5.6453Z" fill="#FF7F00" stroke="#67211F" stroke-width="0.00590396"/>
<path d="M7.00786 6.29157C6.92933 6.07628 6.86729 5.96994 6.77386 5.65286L6.36345 6.36702C6.63857 6.59261 6.58231 6.54072 6.78939 6.69281L7.00786 6.29157Z" fill="#398F00" stroke="#67211F" stroke-width="0.00590396"/>
<path d="M7.31912 6.89081C7.20078 6.66934 7.14192 6.57731 7.00928 6.29145L6.61255 7.0326C6.82871 7.20984 6.82871 7.20984 7.0401 7.36561L7.31912 6.89081Z" fill="#D60000" stroke="#67211F" stroke-width="0.00590396"/>
<path d="M7.65362 7.40078C7.438 7.22987 7.45093 7.23783 7.22476 7.05418L7.02653 7.35764C7.3552 7.37015 7.34936 7.36955 7.34936 7.36955L7.65362 7.40078Z" fill="#398F00" stroke="#67211F" stroke-width="0.00590396"/>
<path d="M7.3191 6.89043L7.22425 7.05481L7.63756 7.38552L7.64492 7.38389L7.3191 6.89043Z" fill="#007FFF" stroke="#67211F" stroke-width="0.00590396"/>
<path d="M6.88651 5.97517L6.77789 5.65982L6.74329 5.71276L6.69298 5.79936L6.88651 5.97517Z" fill="#007FFF" stroke="#67211F" stroke-width="0.00590396"/>
<g filter="url(#filter0_d_1200_7733)">
<path d="M7.54478 4.55356L7.62254 4.34469C7.62254 4.34469 7.86992 4.85177 7.85624 5.21431C7.84536 5.50258 7.66125 5.91646 7.66125 5.91646C7.60899 6.25013 7.65405 6.41677 7.78539 6.70007L7.6079 7.03524C7.6079 7.03524 7.44705 6.66139 7.28464 6.49658C7.049 6.25747 6.77867 6.39672 6.54744 6.1919C6.20509 5.88864 6.17166 5.09541 6.17166 5.09541L6.42518 5.23213C6.42518 5.23213 6.51193 5.01353 6.57739 4.71291C6.60084 4.60525 6.62155 4.48707 6.63458 4.36464C6.65449 4.1775 6.65754 3.88298 6.65754 3.88298L6.83629 4.10702L6.90552 3.95144C6.90552 3.95144 6.95689 4.14216 7.01729 4.24179C7.15591 4.47043 7.27207 4.53909 7.54478 4.55356Z" fill="url(#paint8_linear_1200_7733)"/>
<path d="M7.54478 4.55356C7.57515 4.47199 7.62254 4.34469 7.62254 4.34469C7.62254 4.34469 7.86992 4.85177 7.85624 5.21431C7.84536 5.50258 7.66125 5.91646 7.66125 5.91646C7.60899 6.25013 7.65405 6.41677 7.78539 6.70007L7.6079 7.03524C7.6079 7.03524 7.44705 6.66139 7.28464 6.49658C7.049 6.25747 6.77867 6.39672 6.54744 6.1919C6.20509 5.88864 6.17166 5.09541 6.17166 5.09541L6.42518 5.23213M7.54478 4.55356C7.27207 4.53909 7.15591 4.47043 7.01729 4.24179C6.95689 4.14216 6.90552 3.95144 6.90552 3.95144L6.83629 4.10702M7.54478 4.55356C7.54348 4.58097 7.43582 5.07258 7.43582 5.07258C7.43582 5.07258 7.20571 4.7995 7.08657 4.60612M6.42518 5.23213C6.57789 5.3449 6.61648 5.43219 6.6869 5.58649L6.71621 4.9719L7.03614 5.27422L6.90634 4.49038L7.08657 4.60612M6.42518 5.23213C6.42518 5.23213 6.51193 5.01353 6.57739 4.71291C6.60084 4.60525 6.62155 4.48707 6.63458 4.36464C6.65449 4.1775 6.65754 3.88298 6.65754 3.88298L6.83629 4.10702M6.83629 4.10702C6.83629 4.10702 6.97202 4.42018 7.08657 4.60612" stroke="#F8F7FC" stroke-width="0.0365292"/>
</g>
</g>
<defs>
<filter id="filter0_d_1200_7733" x="6.15204" y="3.8313" width="1.84995" height="3.35839" filterUnits="userSpaceOnUse" color-interpolation-filters="sRGB">
<feFlood flood-opacity="0" result="BackgroundImageFix"/>
<feColorMatrix in="SourceAlpha" type="matrix" values="0 0 0 0 0 0 0 0 0 0 0 0 0 0 0 0 0 0 127 0" result="hardAlpha"/>
<feOffset dx="0.0737995" dy="0.0590396"/>
<feGaussianBlur stdDeviation="0.0265678"/>
<feComposite in2="hardAlpha" operator="out"/>
<feColorMatrix type="matrix" values="0 0 0 0 0 0 0 0 0 0 0 0 0 0 0 0 0 0 0.25 0"/>
<feBlend mode="normal" in2="BackgroundImageFix" result="effect1_dropShadow_1200_7733"/>
<feBlend mode="normal" in="SourceGraphic" in2="effect1_dropShadow_1200_7733" result="shape"/>
</filter>
<radialGradient id="paint0_radial_1200_7733" cx="0" cy="0" r="1" gradientUnits="userSpaceOnUse" gradientTransform="translate(9.99127 11.298) scale(7.11802 7.11799)">
<stop offset="0.5" stop-color="#FDE030"/>
<stop offset="0.9188" stop-color="#F7C02B"/>
<stop offset="1" stop-color="#F4A223"/>
</radialGradient>
<linearGradient id="paint1_linear_1200_7733" x1="9.99127" y1="18.2836" x2="9.99127" y2="4.3125" gradientUnits="userSpaceOnUse">
<stop offset="0.1579" stop-color="#F4A223"/>
<stop offset="0.333" stop-color="#F7C02B"/>
<stop offset="0.8071" stop-color="#FDE030" stop-opacity="0"/>
</linearGradient>
<radialGradient id="paint2_radial_1200_7733" cx="0" cy="0" r="1" gradientUnits="userSpaceOnUse" gradientTransform="translate(5.74924 11.4494) rotate(-10.6121) scale(2.21653 2.10573)">
<stop stop-color="#ED7770"/>
<stop offset="0.9" stop-color="#ED7770" stop-opacity="0"/>
</radialGradient>
<radialGradient id="paint3_radial_1200_7733" cx="0" cy="0" r="1" gradientUnits="userSpaceOnUse" gradientTransform="translate(14.1507 9.87827) rotate(-10.6121) scale(2.21629 2.10551)">
<stop stop-color="#ED7770"/>
<stop offset="0.9" stop-color="#ED7770" stop-opacity="0"/>
</radialGradient>
<radialGradient id="paint4_radial_1200_7733" cx="0" cy="0" r="1" gradientUnits="userSpaceOnUse" gradientTransform="translate(6.08689 15.1957) scale(4.81285 4.81283)">
<stop offset="0.3302" stop-color="#FFF176"/>
<stop offset="1" stop-color="#FFC400"/>
</radialGradient>
<radialGradient id="paint5_radial_1200_7733" cx="0" cy="0" r="1" gradientUnits="userSpaceOnUse" gradientTransform="translate(5.83818 15.1283) scale(5.06287 5.06282)">
<stop offset="0.3302" stop-color="#FFF176"/>
<stop offset="1" stop-color="#FFC400"/>
</radialGradient>
<radialGradient id="paint6_radial_1200_7733" cx="0" cy="0" r="1" gradientUnits="userSpaceOnUse" gradientTransform="translate(13.879 15.2017) rotate(180) scale(4.80561 4.80559)">
<stop offset="0.3302" stop-color="#FFF176"/>
<stop offset="1" stop-color="#FFC400"/>
</radialGradient>
<radialGradient id="paint7_radial_1200_7733" cx="0" cy="0" r="1" gradientUnits="userSpaceOnUse" gradientTransform="translate(14.1301 15.1283) rotate(180) scale(5.06299 5.06282)">
<stop offset="0.3302" stop-color="#FFF176"/>
<stop offset="1" stop-color="#FFC400"/>
</radialGradient>
<linearGradient id="paint8_linear_1200_7733" x1="7.07384" y1="3.89932" x2="6.95177" y2="7.00949" gradientUnits="userSpaceOnUse">
<stop stop-color="#C9C9C9"/>
<stop offset="1" stop-color="#939297"/>
</linearGradient>
<clipPath id="clip0_1200_7733">
<rect width="17.996" height="17.996" fill="white" transform="translate(0.960358 0.984131)"/>
</clipPath>
</defs>
</svg>
