<svg width="18" height="18" viewBox="0 0 18 18" fill="none" xmlns="http://www.w3.org/2000/svg">
<path d="M9.29445 16.8361C5.78557 16.8361 2 14.6352 2 9.80582C2 4.97641 5.78557 2.77551 9.29445 2.77551C11.2438 2.77551 13.0423 3.41692 14.3754 4.58654C15.8217 5.86935 16.5889 7.68038 16.5889 9.80582C16.5889 11.9313 15.8217 13.7297 14.3754 15.0125C13.0423 16.1821 11.2313 16.8361 9.29445 16.8361Z" fill="url(#paint0_radial_1193_849)"/>
<path d="M15.3189 5.6272C15.9893 6.70878 16.3389 7.99663 16.3389 9.4291C16.3389 11.5545 15.5717 13.353 14.1254 14.6358C12.7923 15.8054 10.9812 16.4594 9.04444 16.4594C6.7731 16.4594 4.39108 15.535 2.98502 13.5743C4.33826 15.7954 6.88377 16.8367 9.29597 16.8367C11.2328 16.8367 13.0438 16.1827 14.3769 15.0131C15.8232 13.7303 16.5904 11.9318 16.5904 9.8064C16.5904 8.20414 16.154 6.78047 15.3189 5.6272Z" fill="#EB8F00"/>
<path d="M11.6876 6.12512C12.1668 6.12512 12.6007 6.8357 12.6007 8.01161C12.6007 9.18752 12.1668 9.8981 11.6876 9.8981C11.2097 9.8981 10.7758 9.18878 10.7758 8.01161C10.7758 6.83444 11.2097 6.12512 11.6876 6.12512Z" fill="#422B0D"/>
<path d="M6.98759 6.12512C6.47824 6.12512 6.01416 6.8357 6.01416 8.01161C6.01416 9.18752 6.47824 9.8981 6.98759 9.8981C7.4982 9.8981 7.96228 9.18878 7.96228 8.01161C7.96228 6.83444 7.4982 6.12512 6.98759 6.12512Z" fill="#422B0D"/>
<path d="M6.9602 6.58549C6.80802 6.49368 6.61057 6.54399 6.51876 6.69617C6.51624 6.7012 6.51247 6.70623 6.50995 6.71126C6.39425 6.84583 6.40808 7.04957 6.54265 7.16527C6.54643 7.16905 6.5502 7.17156 6.55523 7.17533C6.70615 7.26714 6.9036 7.21809 6.99541 7.06718C6.99919 7.06089 7.0017 7.05586 7.00547 7.04957C7.12118 6.91374 7.10609 6.71 6.97026 6.5943C6.96649 6.59052 6.96397 6.58801 6.9602 6.58549Z" fill="#896024"/>
<path d="M11.762 6.58638C11.6086 6.49583 11.4098 6.54614 11.3193 6.69957C11.3168 6.70334 11.3143 6.70838 11.3117 6.71215C11.1973 6.84923 11.2162 7.05172 11.3532 7.16616C11.3545 7.16742 11.357 7.16868 11.3583 7.16994C11.5092 7.26174 11.7067 7.2127 11.7985 7.06178C11.8022 7.05549 11.8047 7.05046 11.8085 7.04417C11.923 6.90708 11.9041 6.7046 11.767 6.59016C11.7658 6.5889 11.7632 6.58764 11.762 6.58638Z" fill="#896024"/>
<path d="M14.1343 10.9041C13.9583 10.5859 13.5759 10.4463 13.2364 10.5746C11.946 10.9506 10.6078 11.138 9.2634 11.1317C7.91896 11.138 6.58081 10.9506 5.29044 10.5746C4.95213 10.4463 4.5698 10.5846 4.39373 10.9016C4.22269 11.2172 4.34594 11.5832 4.49057 11.8989C5.29799 13.6722 7.07758 14.7336 9.25334 14.7399H9.27346C11.4492 14.7399 13.2288 13.6722 14.0375 11.8989C14.1809 11.5807 14.3054 11.2198 14.1343 10.9041Z" fill="#422B0D"/>
<path d="M11.2741 14.2402C11.2276 14.1974 11.1798 14.1584 11.132 14.1144C10.6189 13.6629 9.95483 13.4202 9.27066 13.434C8.56637 13.4227 7.88094 13.6566 7.33134 14.0968C7.28355 14.1358 7.23324 14.1735 7.18671 14.2226C7.14018 14.2716 7.11502 14.3068 7.08484 14.3483C7.77655 14.6187 8.51354 14.7571 9.25682 14.7533H9.27695C9.98878 14.7533 10.6943 14.6263 11.3609 14.376C11.3357 14.3282 11.3068 14.283 11.2741 14.2402Z" fill="#ED7770"/>
<path d="M13.2342 10.5736C11.9438 10.9497 10.6056 11.1371 9.2612 11.1308C7.91676 11.1371 6.57861 10.9497 5.28825 10.5736C4.94993 10.4454 4.5676 10.5837 4.39153 10.9006C4.36638 10.9484 4.34626 10.9987 4.33368 11.0503C4.37518 11.0717 4.42297 11.0931 4.47957 11.1157C5.99379 11.8741 7.66774 12.2589 9.36056 12.2388C10.9842 12.2576 12.589 11.9042 14.0554 11.2075C14.1145 11.1823 14.1636 11.1585 14.2076 11.1358C14.1975 11.0541 14.1711 10.9736 14.1321 10.9006C13.9561 10.5837 13.5737 10.4441 13.2342 10.5736Z" fill="white"/>
<path d="M14.1394 10.9053C13.9608 10.5871 13.5772 10.4463 13.2351 10.5746C11.9447 10.9506 10.6066 11.138 9.2634 11.1317C7.91896 11.138 6.58081 10.9506 5.29044 10.5746C4.95213 10.4463 4.5698 10.5846 4.39373 10.9016C4.22269 11.2172 4.34594 11.5832 4.49057 11.8989C4.55471 12.041 4.6264 12.1806 4.70563 12.3152C4.70563 12.3152 4.44152 11.3367 4.67041 11.0525C4.74839 10.9317 4.87919 10.8563 5.02256 10.8487C5.08167 10.8487 5.13952 10.8588 5.19612 10.8764C6.50912 11.2625 7.87117 11.4574 9.24076 11.4549H9.28478C10.6544 11.4574 12.0164 11.2625 13.3294 10.8764C13.386 10.8588 13.4439 10.8487 13.503 10.8487C13.6464 10.8563 13.7784 10.9317 13.8564 11.0525C14.0891 11.3367 13.8212 12.3189 13.8212 12.3189C13.8991 12.1844 13.9771 12.046 14.0425 11.9027C14.1859 11.587 14.3104 11.2223 14.1394 10.9053Z" fill="#EB8F00"/>
<path d="M5.35912 1.26634H5.86359C5.86359 1.26634 7.93571 0.98811 9.33697 1.0004C10.6727 1.01211 12.6367 1.26634 12.6367 1.26634H13.4306C14.2388 2.58339 14.8197 3.93589 15.086 5.32523C12.6367 5.6285 9.37639 6.34217 9.37639 6.34217C9.37639 6.34217 6.28785 5.70793 3.61316 5.16637C4.01952 3.74415 4.52034 2.45352 5.35912 1.26634Z" fill="#7F2125"/>
<path d="M5.35912 1.26634H5.86359C5.86359 1.26634 7.93571 0.98811 9.33697 1.0004C10.6727 1.01211 12.6367 1.26634 12.6367 1.26634H13.4306M5.35912 1.26634C4.52034 2.45352 4.01952 3.74415 3.61316 5.16637C6.28785 5.70793 9.37639 6.34217 9.37639 6.34217C9.37639 6.34217 12.6367 5.6285 15.086 5.32523C14.8197 3.93589 14.2388 2.58339 13.4306 1.26634M5.35912 1.26634C6.0153 1.96964 6.95013 1.52784 9.33697 2.06907C11.498 1.5442 12.5385 2.00447 13.4306 1.26634" stroke="#67211F" stroke-width="0.0587614"/>
<path d="M9.38466 6.33444L9.36166 2.07237C10.9864 1.5796 12.2199 1.96431 13.4388 1.29004C13.9697 2.09567 14.8479 3.60415 15.0942 5.31343C13.2243 5.52976 10.2507 6.14817 9.38466 6.33444Z" fill="#67211F" stroke="#67211F" stroke-width="0.0368795"/>
<path d="M12.0575 1.67656C12.4264 1.43515 12.7216 1.5911 12.7065 1.24438H13.4345C13.0642 1.63276 12.3145 1.62136 12.0575 1.67656Z" fill="#67211F" fill-opacity="0.56"/>
<path d="M6.5677 1.72308C6.1988 1.47921 5.85269 1.61137 5.86786 1.26111L5.3927 1.27601C5.76306 1.66835 6.31063 1.66732 6.5677 1.72308Z" fill="#67211F"/>
<path d="M9.40939 1.30466L9.32654 2.02384L9.47869 2.01348L9.40939 1.30466Z" fill="#67211F" stroke="#67211F" stroke-width="0.0894087"/>
<path d="M7.41449 1.78959C7.14911 1.77248 6.98939 1.75625 6.77003 1.73953C6.56194 3.28727 6.46264 4.34646 7.00717 5.83182C7.36308 5.90928 7.73442 5.95707 8.0904 6.02709C7.3219 4.59441 7.29921 3.2278 7.41449 1.78959Z" fill="#D60000" stroke="#67211F" stroke-width="0.0368795"/>
<path d="M6.97716 1.76232L6.78717 1.7458L6.74665 2.02928L6.97716 1.76232Z" fill="#398F00" stroke="#67211F" stroke-width="0.00745073"/>
<path d="M6.65714 2.81877L7.38519 1.99036L7.39442 1.80417L6.97749 1.76345L6.74754 2.02976L6.65714 2.81877Z" fill="#FF7F00" stroke="#67211F" stroke-width="0.00745073"/>
<path d="M7.1321 2.27196C7.1321 2.27196 6.90425 2.01178 6.82394 1.94157L6.74729 2.03034L6.66454 2.81196C6.77697 2.68127 7.1321 2.27196 7.1321 2.27196Z" fill="#D60000" stroke="#67211F" stroke-width="0.00745073"/>
<path d="M7.34652 2.89144C7.35012 2.56995 7.35942 2.37064 7.38479 1.99025L6.66439 2.81127C6.6361 3.13912 6.62846 3.32005 6.61918 3.6379L7.34652 2.89144Z" fill="#007FFF" stroke="#67211F" stroke-width="0.00596058"/>
<path d="M7.17039 3.06909L6.81762 2.63402L6.66432 2.81156C6.64168 3.1351 6.6306 3.31464 6.61911 3.6382L7.17039 3.06909Z" fill="#398F00" stroke="#67211F" stroke-width="0.00596058"/>
<path d="M7.19509 3.82153L6.84979 3.40143L6.6201 3.63794C6.62473 3.97325 6.64618 4.12244 6.66655 4.39828L7.19509 3.82153Z" fill="#D60000" stroke="#67211F" stroke-width="0.00596058"/>
<path d="M7.15775 4.67192L6.81251 4.24436L6.66699 4.39962C6.72467 4.74282 6.73905 4.83235 6.79752 5.08615L7.15775 4.67192Z" fill="#007FFF" stroke="#67211F" stroke-width="0.00596058"/>
<path d="M7.24117 5.3793L6.90345 4.95926L6.79613 5.08502C6.87676 5.40607 6.88441 5.39868 6.95811 5.64517L7.24117 5.3793Z" fill="#FF7F00" stroke="#67211F" stroke-width="0.00596058"/>
<path d="M7.41823 5.89601L7.11059 5.50602L6.95762 5.64631C6.97985 5.7061 7.00954 5.78085 7.02439 5.81823L7.41823 5.89601Z" fill="#007FFF" stroke="#67211F" stroke-width="0.00596058"/>
<path d="M7.37769 3.62283C7.3529 3.37215 7.34407 3.21758 7.34618 2.89241L6.84854 3.40236C7.07377 3.67245 7.02878 3.61247 7.19384 3.82246L7.37769 3.62283Z" fill="#FF7F00" stroke="#67211F" stroke-width="0.00596058"/>
<path d="M7.46291 4.31497C7.43459 4.08377 7.39771 3.96425 7.3779 3.62881L6.81106 4.2425C7.03065 4.52882 6.98705 4.46457 7.15637 4.66253L7.46291 4.31497Z" fill="#398F00" stroke="#67211F" stroke-width="0.00596058"/>
<path d="M7.62939 4.98161C7.56327 4.73519 7.52626 4.63057 7.46073 4.3171L6.90122 4.96065C7.07374 5.18561 7.07374 5.18561 7.24646 5.38821L7.62939 4.98161Z" fill="#D60000" stroke="#67211F" stroke-width="0.00596058"/>
<path d="M7.83173 5.54124C7.65914 5.32373 7.68164 5.35372 7.5016 5.12126L7.11128 5.50544C7.2838 5.7304 7.25378 5.69289 7.41133 5.89537L7.83173 5.54124Z" fill="#398F00" stroke="#67211F" stroke-width="0.00596058"/>
<path d="M7.6323 4.98069L7.50208 5.12117L7.83222 5.54114L7.8398 5.54121L7.6323 4.98069Z" fill="#007FFF" stroke="#67211F" stroke-width="0.00596058"/>
<path d="M7.41355 3.97226L7.37857 3.63669L7.33266 3.68101L7.26372 3.75494L7.41355 3.97226Z" fill="#007FFF" stroke="#67211F" stroke-width="0.00596058"/>
<path d="M7.61704 5.72544L7.83875 5.53357C7.91753 5.72515 7.9661 5.82745 8.06222 6.00481L7.7895 5.95784L7.61704 5.72544Z" fill="#FF7F00" stroke="#67211F" stroke-width="0.00447043"/>
<g filter="url(#filter0_d_1193_849)">
<path d="M8.56343 2.87405L8.68715 2.6852C8.68715 2.6852 8.82157 3.23909 8.72773 3.59342C8.65311 3.87516 8.378 4.24281 8.378 4.24281C8.25208 4.56025 8.26014 4.73435 8.32839 5.0423L8.0773 5.33382C8.0773 5.33382 7.99967 4.93017 7.87423 4.73221C7.69222 4.44499 7.39193 4.5231 7.20674 4.27066C6.93255 3.89688 7.07472 3.10774 7.07472 3.10774L7.2972 3.29795C7.2972 3.29795 7.43203 3.10147 7.5638 2.8195C7.61099 2.71851 7.65779 2.60657 7.69786 2.48875C7.75911 2.30866 7.82732 2.01905 7.82732 2.01905L7.95594 2.27896L8.05937 2.14076C8.05937 2.14076 8.06839 2.33998 8.10656 2.45138C8.19416 2.70706 8.29477 2.80013 8.56343 2.87405Z" fill="#939297"/>
<path d="M8.56343 2.87405C8.61174 2.8003 8.68715 2.6852 8.68715 2.6852C8.68715 2.6852 8.82157 3.23909 8.72773 3.59342C8.65311 3.87516 8.378 4.24281 8.378 4.24281C8.25208 4.56025 8.26014 4.73435 8.32839 5.0423L8.0773 5.33382C8.0773 5.33382 7.99967 4.93017 7.87423 4.73221C7.69222 4.44499 7.39193 4.5231 7.20674 4.27066C6.93255 3.89688 7.07472 3.10774 7.07472 3.10774L7.2972 3.29795M8.56343 2.87405C8.29477 2.80013 8.19416 2.70706 8.10656 2.45138C8.06839 2.33998 8.05937 2.14076 8.05937 2.14076L7.95594 2.27896M8.56343 2.87405C8.55606 2.90078 8.33998 3.36177 8.33998 3.36177C8.33998 3.36177 8.171 3.04228 8.09502 2.82562M7.2972 3.29795C7.42448 3.44251 7.44363 3.53698 7.4797 3.70447L7.64489 3.10513L7.89693 3.47307M7.2972 3.29795C7.2972 3.29795 7.43203 3.10147 7.5638 2.8195C7.61099 2.71851 7.65779 2.60657 7.69786 2.48875C7.75911 2.30866 7.82732 2.01905 7.82732 2.01905L7.95594 2.27896M7.95594 2.27896C7.95594 2.27896 8.02196 2.61731 8.09502 2.82562M8.09502 2.82562L7.94096 2.67213L7.89693 3.47307M7.89693 3.47307L7.87423 3.86886" stroke="#F8F7FC" stroke-width="0.0368795"/>
</g>
<defs>
<filter id="filter0_d_1193_849" x="7.01938" y="1.96472" width="1.88828" height="3.52329" filterUnits="userSpaceOnUse" color-interpolation-filters="sRGB">
<feFlood flood-opacity="0" result="BackgroundImageFix"/>
<feColorMatrix in="SourceAlpha" type="matrix" values="0 0 0 0 0 0 0 0 0 0 0 0 0 0 0 0 0 0 127 0" result="hardAlpha"/>
<feOffset dx="0.0745073" dy="0.0596058"/>
<feGaussianBlur stdDeviation="0.0268226"/>
<feComposite in2="hardAlpha" operator="out"/>
<feColorMatrix type="matrix" values="0 0 0 0 0 0 0 0 0 0 0 0 0 0 0 0 0 0 0.25 0"/>
<feBlend mode="normal" in2="BackgroundImageFix" result="effect1_dropShadow_1193_849"/>
<feBlend mode="normal" in="SourceGraphic" in2="effect1_dropShadow_1193_849" result="shape"/>
</filter>
<radialGradient id="paint0_radial_1193_849" cx="0" cy="0" r="1" gradientUnits="userSpaceOnUse" gradientTransform="translate(9.29445 9.80582) scale(7.16361 7.16358)">
<stop offset="0.5" stop-color="#FDE030"/>
<stop offset="0.92" stop-color="#F7C02B"/>
<stop offset="1" stop-color="#F4A223"/>
</radialGradient>
</defs>
</svg>
