<svg width="19" height="18" viewBox="0 0 19 18" fill="none" xmlns="http://www.w3.org/2000/svg">
<path d="M9.99905 16.9035C6.51251 16.9035 2.75104 14.7166 2.75104 9.91793C2.75104 5.11927 6.51251 2.93237 9.99905 2.93237C11.936 2.93237 13.723 3.5697 15.0477 4.73187C16.4848 6.00652 17.2471 7.80602 17.2471 9.91793C17.2471 12.0298 16.4848 13.8168 15.0477 15.0915C13.723 16.2537 11.9235 16.9035 9.99905 16.9035Z" fill="url(#paint0_radial_1206_10473)"/>
<path d="M15.9844 5.76489C16.6505 6.83959 16.9979 8.11924 16.9979 9.54259C16.9979 11.6545 16.2356 13.4415 14.7985 14.7162C13.4739 15.8783 11.6744 16.5282 9.74989 16.5282C7.49301 16.5282 5.12615 15.6097 3.72903 13.6615C5.07367 15.8683 7.60298 16.9031 9.99982 16.9031C11.9243 16.9031 13.7238 16.2532 15.0484 15.0911C16.4855 13.8164 17.2478 12.0294 17.2478 9.91749C17.2478 8.32543 16.8142 6.91082 15.9844 5.76489Z" fill="#EB8F00"/>
<path d="M10.9261 14.6785C10.8549 14.6785 10.7836 14.6635 10.7186 14.6336C10.2588 14.4299 9.73516 14.4261 9.27403 14.6261C9.02785 14.7498 8.72668 14.6498 8.60297 14.4036C8.47925 14.1574 8.57922 13.8563 8.82541 13.7326C9.55896 13.4001 10.3975 13.3976 11.1335 13.7238C11.3847 13.8388 11.4959 14.1349 11.381 14.3861C11.2997 14.5648 11.1223 14.6785 10.9261 14.6785Z" fill="#422B0D"/>
<path d="M7.42716 8.01929C8.62434 8.02304 9.59282 8.99652 9.58907 10.1937C9.58532 11.3909 8.61184 12.3593 7.41467 12.3556C6.21749 12.3518 5.24901 11.3784 5.25276 10.1812C5.26026 8.98527 6.23124 8.02054 7.42716 8.01929Z" fill="white"/>
<path d="M7.38952 11.8295C8.45237 11.8295 9.31399 10.9679 9.31399 9.90506C9.31399 8.8422 8.45237 7.98059 7.38952 7.98059C6.32666 7.98059 5.46504 8.8422 5.46504 9.90506C5.46504 10.9679 6.32666 11.8295 7.38952 11.8295Z" fill="#422B0D"/>
<path d="M8.25906 10.8634C8.39649 10.7481 8.42158 10.5517 8.31509 10.4249C8.2086 10.298 8.01086 10.2887 7.87342 10.404C7.73599 10.5194 7.7109 10.7158 7.81739 10.8426C7.92388 10.9695 8.12162 10.9788 8.25906 10.8634Z" fill="white"/>
<path d="M7.43329 10.0397C7.93157 9.66885 8.09164 9.04055 7.79081 8.63638C7.48998 8.23222 6.84217 8.20524 6.34388 8.57613C5.84559 8.94702 5.68552 9.57532 5.98636 9.97948C6.28719 10.3836 6.935 10.4106 7.43329 10.0397Z" fill="white"/>
<path d="M12.7999 8.01917C13.9971 8.02291 14.9656 8.99639 14.9618 10.1936C14.9581 11.3907 13.9846 12.3592 12.7874 12.3555C11.5902 12.3517 10.6218 11.3782 10.6255 10.1811C10.633 8.98515 11.604 8.02041 12.7999 8.01917Z" fill="white"/>
<path d="M12.7615 11.8295C13.8244 11.8295 14.686 10.9679 14.686 9.90506C14.686 8.8422 13.8244 7.98059 12.7615 7.98059C11.6987 7.98059 10.8371 8.8422 10.8371 9.90506C10.8371 10.9679 11.6987 11.8295 12.7615 11.8295Z" fill="#422B0D"/>
<path d="M13.6437 10.8562C13.7812 10.7409 13.8063 10.5445 13.6998 10.4176C13.5933 10.2908 13.3955 10.2815 13.2581 10.3968C13.1207 10.5122 13.0956 10.7086 13.2021 10.8354C13.3086 10.9623 13.5063 10.9716 13.6437 10.8562Z" fill="white"/>
<path d="M12.8063 10.0397C13.3046 9.66885 13.4646 9.04055 13.1638 8.63638C12.863 8.23222 12.2152 8.20524 11.7169 8.57613C11.2186 8.94702 11.0585 9.57532 11.3593 9.97948C11.6602 10.3836 12.308 10.4106 12.8063 10.0397Z" fill="white"/>
<path d="M5.47774 7.03166C5.20281 7.08165 5.19031 7.48154 5.49023 7.49403C6.15255 7.50278 6.79238 7.2566 7.27724 6.80672C7.46219 6.64677 7.6184 6.45682 7.73962 6.24438C7.8121 6.14066 7.7871 5.9982 7.68338 5.92572C7.57966 5.85324 7.4372 5.87823 7.36472 5.98195L7.35222 5.99445C6.86236 6.5418 6.20129 6.90794 5.47774 7.03166Z" fill="#422B0D"/>
<path d="M12.6107 5.98195C12.5382 5.87823 12.3958 5.85324 12.2921 5.92572C12.1883 5.9982 12.1633 6.14066 12.2358 6.24438C12.357 6.45682 12.5132 6.64677 12.6982 6.80672C13.1856 7.25285 13.8241 7.49903 14.4852 7.49403C14.7976 7.48154 14.7726 7.08165 14.4977 7.03166C13.7654 6.91169 13.0993 6.54055 12.6107 5.98195Z" fill="#422B0D"/>
<path d="M6.12478 1.3218H6.61768C6.61768 1.3218 8.64229 1.04621 10.0114 1.05837C11.3165 1.06997 13.2355 1.3218 13.2355 1.3218H14.0112C14.8009 2.62633 15.3684 3.96599 15.6286 5.34212C13.0774 4.61604 10.0114 6.15071 10.0114 6.15071C10.0114 6.15071 6.89935 4.64282 4.41885 5.18478C4.8159 3.77607 5.30524 2.49769 6.12478 1.3218Z" fill="#7F2125"/>
<path d="M6.12478 1.3218H6.61768C6.61768 1.3218 8.64229 1.04621 10.0114 1.05837C11.3165 1.06997 13.2355 1.3218 13.2355 1.3218H14.0112M6.12478 1.3218C5.30524 2.49769 4.8159 3.77607 4.41885 5.18478C6.89935 4.64282 10.0114 6.15071 10.0114 6.15071C10.0114 6.15071 13.0774 4.61604 15.6286 5.34212C15.3684 3.96599 14.8009 2.62633 14.0112 1.3218M6.12478 1.3218C6.76591 2.01841 7.67931 1.58081 10.0114 2.11689C12.1229 1.59701 13.1395 2.05292 14.0112 1.3218" stroke="#67211F" stroke-width="0.0582032"/>
<path d="M10.0287 6.12854L10.0362 2.12096C11.6237 1.63288 12.829 2.01394 14.0199 1.34607C14.5387 2.14405 15.3967 3.6382 15.6374 5.33124C13.5757 4.80015 11.3958 5.50124 10.0287 6.12854Z" fill="#67211F" stroke="#67211F" stroke-width="0.0365292"/>
<path d="M7.30492 1.77375C6.94447 1.53219 6.6063 1.66309 6.62113 1.31616L6.15686 1.33092C6.51873 1.71953 7.05374 1.71852 7.30492 1.77375Z" fill="#67211F"/>
<path d="M12.6705 1.72958C13.0309 1.49047 13.3194 1.64494 13.3046 1.30151H14.016C13.6541 1.6862 12.9217 1.67491 12.6705 1.72958Z" fill="#67211F" fill-opacity="0.56"/>
<path d="M10.0826 1.36058L10.0016 2.07292L10.1503 2.06266L10.0826 1.36058Z" fill="#67211F" stroke="#67211F" stroke-width="0.0885594"/>
<path d="M8.13715 1.85501C7.87509 1.84035 7.71731 1.82569 7.50066 1.81104C7.36589 3.36082 7.31416 3.74458 7.59496 5.27961C7.9758 5.37937 8.26379 5.47349 8.59255 5.57481C7.82163 4.17188 8.03586 3.27061 8.13715 1.85501Z" fill="#D60000" stroke="#67211F" stroke-width="0.0365292"/>
<path d="M7.71027 1.83311L7.52032 1.81824L7.48233 2.10081L7.71027 1.83311Z" fill="#398F00" stroke="#67211F" stroke-width="0.00737995"/>
<path d="M7.40131 2.87416L8.11268 2.05335L8.12017 1.87014L7.70832 1.8335L7.48368 2.09733L7.40131 2.87416Z" fill="#FF7F00" stroke="#67211F" stroke-width="0.00737995"/>
<path d="M7.86486 2.33149C7.86486 2.33149 7.63772 2.07743 7.55784 2.00903L7.48296 2.09698L7.40808 2.86648C7.51791 2.73701 7.86486 2.33149 7.86486 2.33149Z" fill="#D60000" stroke="#67211F" stroke-width="0.00737995"/>
<path d="M8.08338 2.93973C8.08415 2.62347 8.0916 2.42735 8.11334 2.05298L7.40945 2.86644C7.38438 3.18916 7.37841 3.36719 7.37201 3.67991L8.08338 2.93973Z" fill="#007FFF" stroke="#67211F" stroke-width="0.00590396"/>
<path d="M7.91116 3.11561L7.55921 2.69055L7.40945 2.86644C7.38991 3.18487 7.38054 3.36155 7.37201 3.67992L7.91116 3.11561Z" fill="#398F00" stroke="#67211F" stroke-width="0.00590396"/>
<path d="M7.94111 3.85572L7.59665 3.44531L7.37201 3.67983C7.3795 4.00962 7.40196 4.15619 7.42445 4.42735L7.94111 3.85572Z" fill="#D60000" stroke="#67211F" stroke-width="0.00590396"/>
<path d="M7.90943 4.69117L7.56497 4.27344L7.4227 4.42734C7.4826 4.76446 7.49758 4.8524 7.55749 5.10157L7.90943 4.69117Z" fill="#007FFF" stroke="#67211F" stroke-width="0.00590396"/>
<path d="M8.00121 5.38945L7.6626 4.97705L7.55725 5.10224L7.60481 5.26636L8.00121 5.38945Z" fill="#FF7F00" stroke="#67211F" stroke-width="0.00590396"/>
<path d="M8.11847 3.65778C8.09182 3.41142 8.08177 3.25944 8.08103 2.93958L7.5943 3.44525C7.81894 3.70908 7.77401 3.65045 7.93875 3.85565L8.11847 3.65778Z" fill="#FF7F00" stroke="#67211F" stroke-width="0.00590396"/>
<path d="M8.20805 4.33939C8.1781 4.11221 8.14066 3.99495 8.11819 3.66516L7.56407 4.27344C7.78328 4.55328 7.7397 4.49043 7.90853 4.68377L8.20805 4.33939Z" fill="#398F00" stroke="#67211F" stroke-width="0.00590396"/>
<path d="M8.38238 4.99173C8.31498 4.74988 8.27754 4.64728 8.21015 4.33948L7.66351 4.97707C7.83574 5.19693 7.83574 5.19693 8.00797 5.3948L8.38238 4.99173Z" fill="#D60000" stroke="#67211F" stroke-width="0.00590396"/>
<path d="M8.59744 5.56263C8.42437 5.34906 8.43524 5.35964 8.25465 5.13135L7.99597 5.38465C8.3134 5.46807 8.30784 5.46622 8.30784 5.46622L8.59744 5.56263Z" fill="#398F00" stroke="#67211F" stroke-width="0.00590396"/>
<path d="M8.38323 4.9917L8.25531 5.13162L8.58639 5.54403H8.59392L8.38323 4.9917Z" fill="#007FFF" stroke="#67211F" stroke-width="0.00590396"/>
<path d="M8.15817 4.00388L8.12054 3.67249L8.0754 3.71667L8.00768 3.79031L8.15817 4.00388Z" fill="#007FFF" stroke="#67211F" stroke-width="0.00590396"/>
<g filter="url(#filter0_d_1206_10473)">
<path d="M9.1079 2.75905L9.22878 2.57199C9.22878 2.57199 9.36012 3.12062 9.26843 3.47158C9.19552 3.75065 8.92672 4.11481 8.92672 4.11481C8.80369 4.42923 8.81156 4.60168 8.87825 4.9067L8.63292 5.19545C8.63292 5.19545 8.55707 4.79564 8.4345 4.59956C8.25667 4.31507 7.96326 4.39244 7.78232 4.14239C7.51441 3.77216 7.65332 2.99052 7.65332 2.99052L7.8707 3.17892C7.8707 3.17892 8.00245 2.98431 8.1312 2.70501C8.1773 2.60499 8.22303 2.49411 8.26218 2.37741C8.32203 2.19903 8.38867 1.91217 8.38867 1.91217L8.51434 2.16961L8.6154 2.03272C8.6154 2.03272 8.62421 2.23005 8.66151 2.3404C8.7471 2.59364 8.8454 2.68583 9.1079 2.75905Z" fill="url(#paint1_linear_1206_10473)"/>
<path d="M9.1079 2.75905C9.15511 2.686 9.22878 2.57199 9.22878 2.57199C9.22878 2.57199 9.36012 3.12062 9.26843 3.47158C9.19552 3.75065 8.92672 4.11481 8.92672 4.11481C8.80369 4.42923 8.81156 4.60168 8.87825 4.9067L8.63292 5.19545C8.63292 5.19545 8.55707 4.79564 8.4345 4.59956C8.25667 4.31507 7.96326 4.39244 7.78232 4.14239C7.51441 3.77216 7.65332 2.99052 7.65332 2.99052L7.8707 3.17892M9.1079 2.75905C8.8454 2.68583 8.7471 2.59364 8.66151 2.3404C8.62421 2.23005 8.6154 2.03272 8.6154 2.03272L8.51434 2.16961M9.1079 2.75905C9.1007 2.78552 8.88957 3.24213 8.88957 3.24213C8.88957 3.24213 8.72447 2.92568 8.65023 2.71108M7.8707 3.17892C7.99507 3.32211 8.01378 3.41568 8.04902 3.58158L8.21042 2.98793L8.45669 3.35238L8.4997 2.55905L8.65023 2.71108M7.8707 3.17892C7.8707 3.17892 8.00245 2.98431 8.1312 2.70501C8.1773 2.60499 8.22303 2.49411 8.26218 2.37741C8.32203 2.19903 8.38867 1.91217 8.38867 1.91217L8.51434 2.16961M8.51434 2.16961C8.51434 2.16961 8.57885 2.50474 8.65023 2.71108" stroke="#F8F7FC" stroke-width="0.0365292"/>
</g>
<defs>
<filter id="filter0_d_1206_10473" x="7.59903" y="1.85779" width="1.84715" height="3.49072" filterUnits="userSpaceOnUse" color-interpolation-filters="sRGB">
<feFlood flood-opacity="0" result="BackgroundImageFix"/>
<feColorMatrix in="SourceAlpha" type="matrix" values="0 0 0 0 0 0 0 0 0 0 0 0 0 0 0 0 0 0 127 0" result="hardAlpha"/>
<feOffset dx="0.0737995" dy="0.0590396"/>
<feGaussianBlur stdDeviation="0.0265678"/>
<feComposite in2="hardAlpha" operator="out"/>
<feColorMatrix type="matrix" values="0 0 0 0 0 0 0 0 0 0 0 0 0 0 0 0 0 0 0.25 0"/>
<feBlend mode="normal" in2="BackgroundImageFix" result="effect1_dropShadow_1206_10473"/>
<feBlend mode="normal" in="SourceGraphic" in2="effect1_dropShadow_1206_10473" result="shape"/>
</filter>
<radialGradient id="paint0_radial_1206_10473" cx="0" cy="0" r="1" gradientUnits="userSpaceOnUse" gradientTransform="translate(9.99905 9.91793) scale(7.11802 7.11799)">
<stop offset="0.5" stop-color="#FDE030"/>
<stop offset="0.92" stop-color="#F7C02B"/>
<stop offset="1" stop-color="#F4A223"/>
</radialGradient>
<linearGradient id="paint1_linear_1206_10473" x1="8.79061" y1="2.01831" x2="7.99601" y2="5.02726" gradientUnits="userSpaceOnUse">
<stop stop-color="#C9C9C9"/>
<stop offset="1" stop-color="#939297"/>
</linearGradient>
</defs>
</svg>
