<svg width="19" height="18" viewBox="0 0 19 18" fill="none" xmlns="http://www.w3.org/2000/svg">
<path d="M9.9325 16.8925C6.44595 16.8925 2.68448 14.7056 2.68448 9.90695C2.68448 5.10828 6.44595 2.92139 9.9325 2.92139C11.8695 2.92139 13.6565 3.55871 14.9811 4.72089C16.4182 5.99553 17.1805 7.79503 17.1805 9.90695C17.1805 12.0189 16.4182 13.8059 14.9811 15.0805C13.6565 16.2427 11.857 16.8925 9.9325 16.8925Z" fill="url(#paint0_radial_1200_6405)"/>
<path d="M15.9158 5.75439C16.5819 6.8291 16.9293 8.10874 16.9293 9.5321C16.9293 11.644 16.167 13.431 14.7299 14.7057C13.4052 15.8678 11.6057 16.5177 9.68125 16.5177C7.42437 16.5177 5.05752 15.5992 3.6604 13.651C5.00503 15.8578 7.53434 16.8926 9.93119 16.8926C11.8557 16.8926 13.6552 16.2427 14.9798 15.0806C16.4169 13.8059 17.1792 12.0189 17.1792 9.90699C17.1792 8.31493 16.7456 6.90033 15.9158 5.75439Z" fill="#EB8F00"/>
<path d="M17.0282 12.3032C16.8895 11.6134 16.2172 11.166 15.5261 11.3059C15.4237 11.3272 15.3237 11.3597 15.23 11.4047C15.2737 10.7036 14.7414 10.0988 14.0403 10.055C13.5942 10.0275 13.1668 10.235 12.9131 10.6024C12.457 11.2847 12.5782 12.2569 12.7881 13.0217C12.9131 13.4728 12.7594 13.9565 12.397 14.2526C14.9313 14.7387 16.1747 14.2651 16.8395 13.2529C17.027 12.9742 17.0945 12.6318 17.0282 12.3032Z" fill="#E53935"/>
<path d="M14.2427 14.6402C14.1002 14.6402 12.8793 14.5265 12.3882 14.2515C12.407 14.2228 13.138 14.244 14.214 14.2615C14.5801 14.269 14.945 14.2303 15.2999 14.1441C15.7998 14.0191 16.2697 13.7692 16.5496 13.328C16.712 13.0781 16.8807 12.7357 16.8495 12.4345C16.792 12.0459 16.6108 11.686 16.3334 11.4086C16.5471 11.4736 16.7395 11.5935 16.892 11.756C17.3019 12.2483 17.2419 12.9531 16.8632 13.533C16.3871 14.2728 15.5211 14.6402 14.2427 14.6402Z" fill="#C62828"/>
<path d="M13.2987 10.4987C13.4461 10.3675 13.6311 10.2838 13.8285 10.2626C14.031 10.2476 14.2659 10.3488 14.3084 10.5475C14.3246 10.6849 14.2796 10.8224 14.1834 10.9224C14.0922 11.0286 13.9797 11.1123 13.8935 11.221C13.6598 11.5135 13.6511 11.9246 13.4749 12.2545C13.4124 12.3707 13.2862 12.4882 13.1662 12.4345C13.1287 12.4157 13.0975 12.3882 13.0737 12.3545C12.6513 11.8396 12.8038 10.9199 13.2987 10.4987Z" fill="#EF5350"/>
<path d="M15.0716 11.9318C15.0253 11.9643 14.9691 11.978 14.9129 11.9705C14.8554 11.958 14.8079 11.9168 14.7879 11.8618C14.7667 11.8018 14.7829 11.7356 14.8291 11.6931C14.8741 11.6369 14.9054 11.5719 14.9229 11.5031C14.9604 11.3594 14.9704 11.2107 14.9541 11.0633C14.9354 10.8271 14.7642 10.4822 14.6667 10.266C14.8866 10.4022 15.0628 10.5996 15.174 10.8333C15.2515 11.0283 15.2878 11.2357 15.2828 11.4457C15.2928 11.6244 15.2228 11.7981 15.0916 11.9205L15.0716 11.9318Z" fill="#C62828"/>
<path d="M14.1604 8.9728L14.1367 8.93906C14.1142 8.90657 14.0892 8.87533 14.063 8.84534C13.9742 8.74287 13.8718 8.65164 13.7605 8.57417C13.6106 8.46919 13.4481 8.38297 13.2769 8.31799C13.1832 8.28175 13.087 8.25051 12.9895 8.22676C12.9408 8.21427 12.887 8.20177 12.8333 8.19177L12.7583 8.17803C12.7821 8.16428 12.8058 8.15053 12.8308 8.13804L13.0495 8.02307C13.1919 7.95059 13.3244 7.88811 13.4369 7.83687C13.5493 7.78563 13.6418 7.75064 13.7043 7.7269L13.7993 7.69191L13.8268 7.68191C14.0055 7.61693 14.0979 7.41824 14.0317 7.23954C13.983 7.10832 13.8605 7.01835 13.7205 7.01335C13.6681 7.01085 13.6168 7.01085 13.5643 7.01335C13.4381 7.0246 13.3119 7.04584 13.1894 7.07708C13.022 7.11832 12.8583 7.1733 12.6983 7.23954C12.6133 7.27578 12.5234 7.31202 12.4371 7.35575C12.3509 7.39949 12.2572 7.44823 12.1797 7.49072C12.1022 7.5332 12.0085 7.59194 11.9298 7.64567C11.8511 7.69941 11.7698 7.75564 11.6948 7.81063C11.5561 7.9131 11.4262 8.02682 11.3037 8.14803C11.2125 8.23801 11.1288 8.33548 11.0538 8.44045C11.0275 8.47294 11.0025 8.50793 10.9825 8.54417L10.965 8.57292C10.9188 8.65414 10.9076 8.75037 10.9338 8.84034C10.9376 8.87033 10.9451 8.89908 10.9551 8.92657C11.0263 9.10277 11.2275 9.18899 11.4049 9.11776L11.4362 9.10527L11.4724 9.09027L11.5024 9.08402L11.6024 9.05903C11.6424 9.04903 11.6911 9.04154 11.7436 9.03279C11.8673 9.01529 11.9935 9.0053 12.1185 9.0053C12.2672 9.0053 12.4147 9.01654 12.5621 9.03654C12.5871 9.03654 12.6533 9.04903 12.6796 9.05528L12.7846 9.07653C12.8583 9.09277 12.9295 9.10777 12.9957 9.12901C13.1157 9.1615 13.2344 9.20399 13.3481 9.25398C13.4244 9.28772 13.4969 9.32771 13.5681 9.37144C13.6181 9.40144 13.6431 9.41893 13.6431 9.41893L13.6781 9.44517C13.8293 9.55764 14.043 9.52515 14.1554 9.37394C14.2442 9.25398 14.2454 9.09152 14.1579 8.97155L14.1604 8.9728Z" fill="#422B0D"/>
<path d="M11.0898 12.6597C11.3035 12.471 11.4372 12.2098 11.4647 11.9261C11.4885 11.4762 11.3735 11.3213 11.226 11.1251C10.8874 10.669 9.9264 10.7777 9.9264 10.7777C9.67647 10.7877 9.37156 10.9101 9.4078 11.2076C9.45653 11.3763 9.59399 11.505 9.76645 11.5437C10.1413 11.6349 10.6874 11.5437 10.7024 11.9299C10.7199 12.3622 10.0551 12.1798 10.0026 12.6422C9.95015 13.1045 10.7024 13.0408 10.7024 13.3557C10.7024 13.5969 10.4525 13.6381 10.1938 13.6931C9.97014 13.7394 9.54026 13.8093 9.50527 14.068C9.47028 14.3267 9.61899 14.6391 10.2238 14.5479C11.1748 14.4042 11.4947 13.8831 11.4947 13.5632C11.501 13.217 11.3523 12.8859 11.0898 12.6597Z" fill="#422B0D"/>
<path d="M7.40847 5.92669C7.68464 5.84296 7.64465 5.44058 7.33349 5.47182C7.09105 5.50056 6.85487 5.56679 6.63368 5.66926C6.02884 5.93919 5.55148 6.43155 5.29904 7.04388C5.18658 7.3313 5.56647 7.47501 5.71518 7.24008C6.11632 6.62525 6.71241 6.16163 7.40847 5.92669Z" fill="#422B0D"/>
<path d="M7.44266 7.16235C6.91905 7.16235 6.44293 7.60473 6.44293 8.33953C6.44293 9.07432 6.91905 9.51545 7.44266 9.51545C7.96627 9.51545 8.44239 9.07307 8.44239 8.33953C8.44239 7.60598 7.96627 7.16235 7.44266 7.16235Z" fill="#422B0D"/>
<path d="M7.39153 7.65489C7.21408 7.56992 7.00039 7.6449 6.91416 7.82235C6.84793 7.96106 6.87792 8.12726 6.98914 8.23473C7.16659 8.31971 7.38028 8.24473 7.46651 8.06728C7.53274 7.92857 7.50275 7.76236 7.39153 7.65489Z" fill="#896024"/>
<path d="M6.09264 1.30043H6.58554C6.58554 1.30043 8.61015 1.02484 9.97929 1.03701C11.2844 1.04861 13.2033 1.30043 13.2033 1.30043H13.9791C14.7688 2.60497 15.3363 3.94463 15.5965 5.32076C13.0453 4.59468 9.97929 6.12934 9.97929 6.12934C9.97929 6.12934 6.86721 4.62146 4.38672 5.16341C4.78376 3.7547 5.2731 2.47633 6.09264 1.30043Z" fill="#7F2125"/>
<path d="M6.09264 1.30043H6.58554C6.58554 1.30043 8.61015 1.02484 9.97929 1.03701C11.2844 1.04861 13.2033 1.30043 13.2033 1.30043H13.9791M6.09264 1.30043C5.2731 2.47633 4.78376 3.7547 4.38672 5.16341C6.86721 4.62146 9.97929 6.12935 9.97929 6.12935C9.97929 6.12935 13.0453 4.59468 15.5965 5.32076C15.3363 3.94463 14.7688 2.60497 13.9791 1.30043M6.09264 1.30043C6.73378 1.99705 7.64718 1.55945 9.97929 2.09553C12.0908 1.57565 13.1074 2.03155 13.9791 1.30043" stroke="#67211F" stroke-width="0.0582032"/>
<path d="M9.99857 6.10656L10.0061 2.09899C11.5935 1.61091 12.7988 1.99196 13.9897 1.3241C14.5085 2.12207 15.3665 3.61623 15.6072 5.30927C13.5455 4.77817 11.3656 5.47927 9.99857 6.10656Z" fill="#67211F" stroke="#67211F" stroke-width="0.0365292"/>
<path d="M7.27229 1.75202C6.91185 1.51047 6.57368 1.64136 6.5885 1.29443L6.12424 1.30919C6.48611 1.69781 7.02112 1.69679 7.27229 1.75202Z" fill="#67211F"/>
<path d="M12.6388 1.70785C12.9993 1.46874 13.2878 1.62321 13.273 1.27979H13.9843C13.6225 1.66447 12.89 1.65318 12.6388 1.70785Z" fill="#67211F" fill-opacity="0.56"/>
<path d="M10.0509 1.33873L9.96999 2.05107L10.1187 2.04081L10.0509 1.33873Z" fill="#67211F" stroke="#67211F" stroke-width="0.0885594"/>
<path d="M8.10485 1.83328C7.84279 1.81862 7.685 1.80396 7.46836 1.78931C7.33358 3.3391 7.28185 3.72285 7.56266 5.25788C7.9435 5.35764 8.23149 5.45176 8.56025 5.55308C7.78933 4.15015 8.00356 3.24888 8.10485 1.83328Z" fill="#D60000" stroke="#67211F" stroke-width="0.0365292"/>
<path d="M7.67902 1.81175L7.48907 1.79688L7.45108 2.07945L7.67902 1.81175Z" fill="#398F00" stroke="#67211F" stroke-width="0.00737995"/>
<path d="M7.36804 2.85243L8.07942 2.03163L8.0869 1.84841L7.67506 1.81177L7.45041 2.0756L7.36804 2.85243Z" fill="#FF7F00" stroke="#67211F" stroke-width="0.00737995"/>
<path d="M7.83275 2.30976C7.83275 2.30976 7.60561 2.05571 7.52574 1.9873L7.45086 2.07525L7.37598 2.84475C7.4858 2.71528 7.83275 2.30976 7.83275 2.30976Z" fill="#D60000" stroke="#67211F" stroke-width="0.00737995"/>
<path d="M8.0503 2.918C8.05107 2.60174 8.05852 2.40562 8.08026 2.03125L7.37637 2.84472C7.3513 3.16744 7.34533 3.34546 7.33893 3.65818L8.0503 2.918Z" fill="#007FFF" stroke="#67211F" stroke-width="0.00590396"/>
<path d="M7.87807 3.09388L7.52613 2.66882L7.37637 2.84471C7.35683 3.16314 7.34746 3.33983 7.33893 3.65819L7.87807 3.09388Z" fill="#398F00" stroke="#67211F" stroke-width="0.00590396"/>
<path d="M7.90803 3.83411L7.56357 3.42371L7.33893 3.65822C7.34642 3.98801 7.36888 4.13458 7.39137 4.40574L7.90803 3.83411Z" fill="#D60000" stroke="#67211F" stroke-width="0.00590396"/>
<path d="M7.87928 4.66932L7.53482 4.25159L7.39255 4.40549C7.45245 4.7426 7.46743 4.83055 7.52733 5.07972L7.87928 4.66932Z" fill="#007FFF" stroke="#67211F" stroke-width="0.00590396"/>
<path d="M7.9691 5.3676L7.63049 4.9552L7.52515 5.08039L7.57271 5.24451L7.9691 5.3676Z" fill="#FF7F00" stroke="#67211F" stroke-width="0.00590396"/>
<path d="M8.08539 3.63593C8.05874 3.38956 8.04869 3.23759 8.04795 2.91772L7.56122 3.4234C7.78586 3.68723 7.74093 3.6286 7.90567 3.8338L8.08539 3.63593Z" fill="#FF7F00" stroke="#67211F" stroke-width="0.00590396"/>
<path d="M8.17691 4.31791C8.14696 4.09072 8.10952 3.97346 8.08705 3.64368L7.53293 4.25195C7.75214 4.53179 7.70855 4.46894 7.87738 4.66229L8.17691 4.31791Z" fill="#398F00" stroke="#67211F" stroke-width="0.00590396"/>
<path d="M8.35027 4.97012C8.28288 4.72827 8.24544 4.62567 8.17804 4.31787L7.63141 4.95546C7.80364 5.17532 7.80364 5.17532 7.97586 5.37319L8.35027 4.97012Z" fill="#D60000" stroke="#67211F" stroke-width="0.00590396"/>
<path d="M8.56533 5.54066C8.39227 5.32709 8.40314 5.33767 8.22254 5.10938L7.96387 5.36268C8.2813 5.4461 8.27574 5.44425 8.27574 5.44425L8.56533 5.54066Z" fill="#398F00" stroke="#67211F" stroke-width="0.00590396"/>
<path d="M8.35015 4.96997L8.22223 5.10989L8.55331 5.5223H8.56084L8.35015 4.96997Z" fill="#007FFF" stroke="#67211F" stroke-width="0.00590396"/>
<path d="M8.12605 3.9824L8.08843 3.651L8.04328 3.69519L7.97556 3.76883L8.12605 3.9824Z" fill="#007FFF" stroke="#67211F" stroke-width="0.00590396"/>
<g filter="url(#filter0_d_1200_6405)">
<path d="M9.07627 2.73732L9.19715 2.55026C9.19715 2.55026 9.32849 3.09889 9.2368 3.44985C9.16389 3.72892 8.89509 4.09308 8.89509 4.09308C8.77206 4.4075 8.77993 4.57995 8.84662 4.88497L8.60129 5.17372C8.60129 5.17372 8.52543 4.77391 8.40287 4.57783C8.22504 4.29334 7.93163 4.37071 7.75069 4.12066C7.48278 3.75043 7.62169 2.96879 7.62169 2.96879L7.83907 3.1572C7.83907 3.1572 7.97081 2.96258 8.09956 2.68328C8.14567 2.58326 8.19139 2.47238 8.23055 2.35568C8.29039 2.1773 8.35704 1.89044 8.35704 1.89044L8.4827 2.14788L8.58377 2.011C8.58377 2.011 8.59258 2.20832 8.62988 2.31867C8.71547 2.57191 8.81377 2.6641 9.07627 2.73732Z" fill="url(#paint1_linear_1200_6405)"/>
<path d="M9.07627 2.73732C9.12348 2.66427 9.19715 2.55026 9.19715 2.55026C9.19715 2.55026 9.32849 3.09889 9.2368 3.44985C9.16389 3.72892 8.89509 4.09308 8.89509 4.09308C8.77206 4.4075 8.77993 4.57995 8.84662 4.88497L8.60129 5.17372C8.60129 5.17372 8.52543 4.77391 8.40287 4.57783C8.22504 4.29334 7.93163 4.37071 7.75069 4.12066C7.48278 3.75043 7.62169 2.96879 7.62169 2.96879L7.83907 3.1572M9.07627 2.73732C8.81377 2.6641 8.71547 2.57191 8.62988 2.31867C8.59258 2.20832 8.58377 2.011 8.58377 2.011L8.4827 2.14788M9.07627 2.73732C9.06907 2.76379 8.85794 3.2204 8.85794 3.2204C8.85794 3.2204 8.69284 2.90395 8.6186 2.68935M7.83907 3.1572C7.96343 3.30038 7.98215 3.39395 8.01739 3.55985L8.17879 2.9662L8.42505 3.33065L8.46807 2.53732L8.6186 2.68935M7.83907 3.1572C7.83907 3.1572 7.97081 2.96258 8.09956 2.68328C8.14567 2.58326 8.19139 2.47238 8.23055 2.35568C8.29039 2.1773 8.35704 1.89044 8.35704 1.89044L8.4827 2.14788M8.4827 2.14788C8.4827 2.14788 8.54721 2.48301 8.6186 2.68935" stroke="#F8F7FC" stroke-width="0.0365292"/>
</g>
<defs>
<filter id="filter0_d_1200_6405" x="7.56738" y="1.83606" width="1.84718" height="3.49072" filterUnits="userSpaceOnUse" color-interpolation-filters="sRGB">
<feFlood flood-opacity="0" result="BackgroundImageFix"/>
<feColorMatrix in="SourceAlpha" type="matrix" values="0 0 0 0 0 0 0 0 0 0 0 0 0 0 0 0 0 0 127 0" result="hardAlpha"/>
<feOffset dx="0.0737995" dy="0.0590396"/>
<feGaussianBlur stdDeviation="0.0265678"/>
<feComposite in2="hardAlpha" operator="out"/>
<feColorMatrix type="matrix" values="0 0 0 0 0 0 0 0 0 0 0 0 0 0 0 0 0 0 0.25 0"/>
<feBlend mode="normal" in2="BackgroundImageFix" result="effect1_dropShadow_1200_6405"/>
<feBlend mode="normal" in="SourceGraphic" in2="effect1_dropShadow_1200_6405" result="shape"/>
</filter>
<radialGradient id="paint0_radial_1200_6405" cx="0" cy="0" r="1" gradientUnits="userSpaceOnUse" gradientTransform="translate(9.9325 9.90695) scale(7.11802 7.11799)">
<stop offset="0.5" stop-color="#FDE030"/>
<stop offset="0.92" stop-color="#F7C02B"/>
<stop offset="1" stop-color="#F4A223"/>
</radialGradient>
<linearGradient id="paint1_linear_1200_6405" x1="8.75898" y1="1.99658" x2="7.96438" y2="5.00553" gradientUnits="userSpaceOnUse">
<stop stop-color="#C9C9C9"/>
<stop offset="1" stop-color="#939297"/>
</linearGradient>
</defs>
</svg>
