<svg width="19" height="18" viewBox="0 0 19 18" fill="none" xmlns="http://www.w3.org/2000/svg">
<path d="M9.97591 16.6789C6.48937 16.6789 2.7279 14.492 2.7279 9.69332C2.7279 4.89466 6.48937 2.70776 9.97591 2.70776C11.9129 2.70776 13.6999 3.34509 15.0245 4.50726C16.4616 5.78191 17.2239 7.58141 17.2239 9.69332C17.2239 11.8052 16.4616 13.5922 15.0245 14.8669C13.6999 16.0291 11.9004 16.6789 9.97591 16.6789Z" fill="url(#paint0_radial_1206_12311)"/>
<path d="M9.97591 16.6789C6.48937 16.6789 2.7279 14.492 2.7279 9.69332C2.7279 4.89466 6.48937 2.70776 9.97591 2.70776C11.9129 2.70776 13.6999 3.34509 15.0245 4.50726C16.4616 5.78191 17.2239 7.58141 17.2239 9.69332C17.2239 11.8052 16.4616 13.5922 15.0245 14.8669C13.6999 16.0291 11.9004 16.6789 9.97591 16.6789Z" fill="url(#paint1_linear_1206_12311)"/>
<path d="M15.9593 5.54053C16.6254 6.61523 16.9728 7.89487 16.9728 9.31823C16.9728 11.4301 16.2105 13.2171 14.7734 14.4918C13.4488 15.654 11.6493 16.3038 9.72479 16.3038C7.4679 16.3038 5.10105 15.3853 3.70393 13.4371C5.04857 15.644 7.57787 16.6787 9.97472 16.6787C11.8992 16.6787 13.6987 16.0289 15.0233 14.8667C16.4604 13.592 17.2227 11.805 17.2227 9.69312C17.2227 8.10107 16.7891 6.68646 15.9593 5.54053Z" fill="#EB8F00"/>
<path opacity="0.8" d="M5.43358 12.5375C6.64138 12.5375 7.62048 11.5584 7.62048 10.3506C7.62048 9.1428 6.64138 8.1637 5.43358 8.1637C4.22579 8.1637 3.24668 9.1428 3.24668 10.3506C3.24668 11.5584 4.22579 12.5375 5.43358 12.5375Z" fill="url(#paint2_radial_1206_12311)"/>
<path opacity="0.8" d="M14.5699 12.5375C15.7777 12.5375 16.7568 11.5584 16.7568 10.3506C16.7568 9.1428 15.7777 8.1637 14.5699 8.1637C13.3621 8.1637 12.383 9.1428 12.383 10.3506C12.383 11.5584 13.3621 12.5375 14.5699 12.5375Z" fill="url(#paint3_radial_1206_12311)"/>
<path d="M8.22239 7.97082L8.20365 7.94583L8.15241 7.87835L8.08618 7.80587C8.05869 7.77588 8.0262 7.74464 7.99496 7.71214C7.96371 7.67965 7.92498 7.64966 7.88998 7.62217C7.85749 7.59718 7.8225 7.57343 7.78501 7.55469C7.76002 7.54094 7.73253 7.5297 7.70379 7.52345C7.69504 7.5222 7.68629 7.5222 7.67754 7.52345H7.69004H7.62131C7.60256 7.52345 7.62131 7.52345 7.62131 7.52345H7.63131C7.63131 7.52345 7.6413 7.52345 7.63131 7.52345C7.62631 7.5222 7.62256 7.5222 7.61756 7.52345C7.58882 7.5297 7.56132 7.53969 7.53508 7.55469C7.49884 7.57468 7.4626 7.59718 7.43011 7.62217C7.39512 7.64966 7.35888 7.6809 7.32639 7.71214C7.26016 7.77588 7.20142 7.83711 7.16393 7.88585L7.09895 7.96083L7.07021 7.99457C6.89026 8.19576 6.58659 8.22825 6.3679 8.0708C6.22794 7.97332 6.15671 7.80462 6.1842 7.63717C6.1842 7.63717 6.19295 7.58593 6.21669 7.49721C6.25543 7.37099 6.30792 7.24852 6.3729 7.13356C6.48037 6.94611 6.62408 6.78365 6.79528 6.65369C6.91025 6.56496 7.03897 6.49498 7.17643 6.44625C7.21392 6.43125 7.25266 6.42 7.2914 6.41001C7.33264 6.39876 7.37388 6.38876 7.41636 6.38127L7.49259 6.37002L7.55633 6.36377H7.62506H7.69129H7.72378H7.78751C7.83 6.36377 7.87124 6.37502 7.91248 6.38127C8.13617 6.4225 8.34736 6.51498 8.52731 6.65369C8.69976 6.78365 8.84347 6.94611 8.94969 7.13356C8.98843 7.19854 9.02218 7.26727 9.04967 7.3385C9.07341 7.39348 9.09341 7.44847 9.10965 7.50595C9.1184 7.53594 9.1259 7.56594 9.12965 7.59593V7.62717C9.16714 7.88335 8.98968 8.12078 8.7335 8.15827C8.72726 8.15952 8.72226 8.15952 8.71601 8.16077C8.52981 8.19076 8.34111 8.11828 8.22239 7.97082Z" fill="#422B0D"/>
<path d="M12.909 7.97228L12.889 7.94729L12.8353 7.87981L12.769 7.80733C12.7415 7.77734 12.709 7.74609 12.6778 7.7136C12.6466 7.68111 12.6078 7.65112 12.5728 7.62363C12.5403 7.59864 12.5053 7.57489 12.4679 7.55615C12.4429 7.5424 12.4154 7.53115 12.3866 7.52491C12.3779 7.52366 12.3691 7.52366 12.3604 7.52491H12.3729H12.3041C12.2854 7.52491 12.3041 7.52491 12.3041 7.52491H12.3141C12.3141 7.52491 12.3241 7.52491 12.3141 7.52491C12.3091 7.52366 12.3054 7.52366 12.3004 7.52491C12.2717 7.53115 12.2442 7.54115 12.2179 7.55615C12.1817 7.57489 12.1467 7.59864 12.1142 7.62363C12.078 7.65112 12.043 7.68111 12.0092 7.7136C11.943 7.77734 11.8843 7.83857 11.8468 7.8873L11.7768 7.95729L11.7493 7.99103C11.5681 8.19222 11.2657 8.22471 11.0457 8.06726C10.9058 7.96978 10.8345 7.80108 10.862 7.63363C10.862 7.63363 10.8708 7.58239 10.8958 7.49366C10.9333 7.3662 10.9858 7.24498 11.052 7.13002C11.1582 6.94257 11.3019 6.78011 11.4731 6.65015C11.5868 6.56267 11.7131 6.49269 11.848 6.44271C11.8855 6.42771 11.9243 6.41646 11.963 6.40647C12.0042 6.39522 12.0455 6.38522 12.088 6.37772L12.1654 6.36648L12.2279 6.36023H12.2967H12.3629H12.3954H12.4591C12.5016 6.36023 12.5428 6.37148 12.5841 6.37772C12.664 6.39147 12.744 6.41271 12.8203 6.44146C12.9552 6.49019 13.0814 6.56017 13.1952 6.6489C13.3676 6.77886 13.5113 6.94132 13.6175 7.12877C13.6563 7.19375 13.69 7.26248 13.7175 7.33371C13.7413 7.38869 13.7612 7.44368 13.7775 7.50116C13.7862 7.53115 13.7937 7.56115 13.7975 7.59114V7.62238C13.84 7.87731 13.6663 8.11849 13.4113 8.16098C13.4076 8.16098 13.4051 8.16223 13.4013 8.16223C13.2151 8.19222 13.0264 8.11974 12.909 7.97228Z" fill="#422B0D"/>
<path d="M13.8759 11.6857C13.5985 11.2883 12.8762 11.6945 12.8762 11.6945C12.8762 11.6945 13.2511 11.3683 13.5635 11.0696C13.7635 10.8784 13.9384 10.4711 13.7747 10.1949C13.611 9.91871 13.1349 9.9362 12.9012 10.0799L11.9852 10.6423C11.9852 10.6423 12.3289 10.4923 12.4326 9.90246C12.4976 9.66378 12.3576 9.4176 12.1189 9.35261C12.0739 9.34012 12.0277 9.33512 11.9815 9.33762C11.7653 9.35636 11.5591 9.43634 11.3854 9.56755C10.7231 10.0374 8.95479 11.2358 8.55865 11.2046C8.40494 11.1921 8.3912 11.1684 8.71486 10.4761C8.9323 10.0612 8.95229 9.57005 8.76984 9.13892C8.66362 8.88899 8.17376 8.82026 8.02005 9.06144C7.90383 9.2389 7.8201 9.67377 7.61766 10.1112C7.27775 10.8297 6.49422 11.7944 6.43048 11.8894C5.96436 12.5792 5.09585 13.8651 6.0056 15.3072C6.81038 16.5844 8.64738 16.6443 9.58837 16.3069C11.3866 15.6696 13.0424 14.445 13.0737 14.42C13.4011 14.16 13.6985 13.7789 13.5635 13.4315C13.3973 13.0016 12.8462 13.2565 12.8462 13.2565C13.1649 13.0628 13.4511 12.8192 13.6922 12.5342C13.9209 12.2393 14.0621 11.9544 13.8759 11.6857Z" fill="url(#paint4_radial_1206_12311)"/>
<path d="M13.8409 12.65C13.9884 12.4601 14.3333 12.0164 14.0309 11.5803C13.9222 11.4266 13.771 11.3304 13.5948 11.3004C13.8909 11.0542 14.2083 10.4794 13.8697 10.007C13.7435 9.83081 13.5023 9.69334 13.1186 9.78207C12.8425 9.8458 12.595 10.0495 12.595 10.0495C12.6038 10.0158 12.8212 9.40217 12.0702 9.24972C11.7678 9.18848 11.4241 9.38843 11.2267 9.53714C10.0857 10.3469 8.60487 11.1167 8.65486 11.0105C9.13598 10.4269 9.23345 9.56338 8.93728 9.05102C8.83231 8.80234 8.19249 8.61614 7.98379 8.95855C7.81259 9.23972 7.69887 9.91203 7.37896 10.4469C7.13153 10.8605 6.00184 12.2839 5.79814 12.9887C5.79814 12.9887 6.07432 12.5775 6.51045 11.9965C6.97407 11.3766 7.6039 10.5743 7.7901 10.1907C7.9588 9.84955 8.03753 9.44091 8.17999 9.16349C8.24997 9.04727 8.53364 8.9373 8.71609 9.2947C8.89854 9.65211 8.81107 10.0845 8.55864 10.5681C8.29871 11.1229 8.18374 11.1442 8.30121 11.2667C8.6986 11.6753 10.9917 10.0395 11.5003 9.71959C11.6453 9.60962 11.8177 9.54339 11.9914 9.52714C12.3339 9.4784 12.3164 9.95827 12.3164 9.95827C12.2201 10.3519 12.1589 10.3519 11.7665 10.6818C11.4878 10.9155 10.5019 11.6328 9.86203 11.9552C9.86203 11.9552 9.87328 12.1014 10.1694 12.0177C10.4669 11.934 11.6328 11.2004 12.2614 10.6968C12.2614 10.6968 13.0761 10.0008 13.4236 10.0982C13.776 10.1982 13.7447 10.4431 13.6335 10.6756C13.5235 10.908 13.2349 11.1879 12.7775 11.5366C11.9552 12.1614 10.6818 13.0137 10.6818 13.0137C10.6818 13.0137 10.708 13.1386 10.9555 13.0674C11.4591 12.9212 13.0312 11.7565 13.0312 11.7565C13.1536 11.6615 13.5635 11.5303 13.7235 11.799C13.8097 11.9252 13.7897 12.1314 13.4873 12.4888C13.1274 12.9174 12.0289 13.6647 11.0742 14.2071C11.0742 14.2071 11.1467 14.3296 11.4104 14.2396C11.6728 14.1496 12.7637 13.486 12.9362 13.4286C13.1086 13.3711 13.2811 13.3161 13.3961 13.5198C13.5323 13.801 13.3498 14.0234 12.9887 14.3108C12.9712 14.3171 11.2516 15.6604 9.46464 16.2665C8.5199 16.5864 7.46394 16.4215 6.25302 15.6304C6.98782 16.5177 8.59238 16.9138 9.68083 16.5164C11.5116 15.8466 13.2061 14.6107 13.2199 14.5995C13.4823 14.3908 14.0284 13.9584 13.7272 13.3398C13.6485 13.2011 13.5435 13.1149 13.4286 13.0662C13.5748 12.9399 13.7122 12.8012 13.8409 12.65Z" fill="#EB8F00"/>
<path d="M5.92444 1.51662H6.44463C6.44463 1.51662 8.5813 1.24103 10.0262 1.2532C11.4036 1.2648 13.4287 1.51662 13.4287 1.51662H14.2474C15.0808 2.82115 15.6797 4.16081 15.9543 5.53695C13.262 4.81086 10.0262 6.34553 10.0262 6.34553C10.0262 6.34553 6.74189 4.83765 4.12409 5.3796C4.54311 3.97089 5.05954 2.69252 5.92444 1.51662Z" fill="#7F2125"/>
<path d="M5.92444 1.51662H6.44463C6.44463 1.51662 8.5813 1.24103 10.0262 1.2532C11.4036 1.2648 13.4287 1.51662 13.4287 1.51662H14.2474M5.92444 1.51662C5.05954 2.69252 4.54311 3.97089 4.12409 5.3796C6.74189 4.83765 10.0262 6.34553 10.0262 6.34553C10.0262 6.34553 13.262 4.81086 15.9543 5.53695C15.6797 4.16081 15.0808 2.82115 14.2474 1.51662M5.92444 1.51662C6.60106 2.21324 7.56502 1.77563 10.0262 2.31172C12.2546 1.79184 13.3275 2.24774 14.2474 1.51662" stroke="#67211F" stroke-width="0.0582032"/>
<path d="M10.0431 6.32275L10.051 2.31518C11.7263 1.82709 12.9983 2.20815 14.2552 1.54028C14.8026 2.33826 15.7082 3.83241 15.9622 5.52546C13.7864 4.99436 11.4858 5.69545 10.0431 6.32275Z" fill="#67211F" stroke="#67211F" stroke-width="0.0365292"/>
<path d="M7.16832 1.96845C6.78793 1.7269 6.43103 1.85779 6.44668 1.51086L5.95672 1.52562C6.33862 1.91424 6.90325 1.91322 7.16832 1.96845Z" fill="#67211F"/>
<path d="M12.8346 1.92404C13.215 1.68492 13.5195 1.8394 13.5038 1.49597H14.2546C13.8727 1.88066 13.0997 1.86937 12.8346 1.92404Z" fill="#67211F" fill-opacity="0.56"/>
<path d="M10.0974 1.55503L10.012 2.26738L10.1689 2.25712L10.0974 1.55503Z" fill="#67211F" stroke="#67211F" stroke-width="0.0885594"/>
<path d="M8.04419 2.04983C7.76761 2.03517 7.6011 2.02052 7.37246 2.00586C7.23023 3.55565 7.17563 3.93941 7.47198 5.47444C7.8739 5.57419 8.17783 5.66831 8.52479 5.76963C7.7112 4.3667 7.93729 3.46544 8.04419 2.04983Z" fill="#D60000" stroke="#67211F" stroke-width="0.0365292"/>
<path d="M7.59473 2.02806L7.39426 2.01318L7.35417 2.29576L7.59473 2.02806Z" fill="#398F00" stroke="#67211F" stroke-width="0.00737995"/>
<path d="M7.26806 3.06886L8.01881 2.24806L8.02671 2.06484L7.59207 2.0282L7.35499 2.29203L7.26806 3.06886Z" fill="#FF7F00" stroke="#67211F" stroke-width="0.00737995"/>
<path d="M7.758 2.52583C7.758 2.52583 7.51829 2.27177 7.43399 2.20337L7.35497 2.29131L7.27594 3.06082C7.39185 2.93135 7.758 2.52583 7.758 2.52583Z" fill="#D60000" stroke="#67211F" stroke-width="0.00737995"/>
<path d="M7.98477 3.13431C7.98558 2.81805 7.99344 2.62193 8.01638 2.24756L7.27353 3.06102C7.24707 3.38374 7.24077 3.56177 7.23402 3.87449L7.98477 3.13431Z" fill="#007FFF" stroke="#67211F" stroke-width="0.00590396"/>
<path d="M7.80301 3.31031L7.43158 2.88525L7.27353 3.06114C7.25291 3.37957 7.24302 3.55626 7.23402 3.87462L7.80301 3.31031Z" fill="#398F00" stroke="#67211F" stroke-width="0.00590396"/>
<path d="M7.83462 4.05054L7.4711 3.64014L7.23402 3.87465C7.24192 4.20444 7.26563 4.35101 7.28936 4.62217L7.83462 4.05054Z" fill="#D60000" stroke="#67211F" stroke-width="0.00590396"/>
<path d="M7.80521 4.88575L7.44169 4.46802L7.29154 4.62192C7.35476 4.95904 7.37057 5.04698 7.43379 5.29615L7.80521 4.88575Z" fill="#007FFF" stroke="#67211F" stroke-width="0.00590396"/>
<path d="M7.90339 5.58391L7.54604 5.17151L7.43486 5.2967L7.48506 5.46082L7.90339 5.58391Z" fill="#FF7F00" stroke="#67211F" stroke-width="0.00590396"/>
<path d="M8.02704 3.85236C7.99892 3.606 7.9883 3.45402 7.98752 3.13416L7.47385 3.63983C7.71093 3.90366 7.66352 3.84503 7.83737 4.05023L8.02704 3.85236Z" fill="#FF7F00" stroke="#67211F" stroke-width="0.00590396"/>
<path d="M8.12228 4.53434C8.09067 4.30715 8.05116 4.1899 8.02745 3.86011L7.44266 4.46838C7.674 4.74822 7.628 4.68537 7.80618 4.87872L8.12228 4.53434Z" fill="#398F00" stroke="#67211F" stroke-width="0.00590396"/>
<path d="M8.3027 5.18643C8.23158 4.94458 8.19207 4.84198 8.12094 4.53418L7.54405 5.17177C7.72581 5.39163 7.72581 5.39163 7.90757 5.5895L8.3027 5.18643Z" fill="#D60000" stroke="#67211F" stroke-width="0.00590396"/>
<path d="M8.52769 5.75463C8.34593 5.5421 8.35734 5.55263 8.16768 5.32544L7.89601 5.57751C8.22939 5.66053 8.22355 5.65869 8.22355 5.65869L8.52769 5.75463Z" fill="#398F00" stroke="#67211F" stroke-width="0.00590396"/>
<path d="M8.30497 5.1864L8.16998 5.32632L8.51939 5.73873H8.52733L8.30497 5.1864Z" fill="#007FFF" stroke="#67211F" stroke-width="0.00590396"/>
<path d="M8.06556 4.19871L8.02586 3.86731L7.97821 3.9115L7.90674 3.98514L8.06556 4.19871Z" fill="#007FFF" stroke="#67211F" stroke-width="0.00590396"/>
<g filter="url(#filter0_d_1206_12311)">
<path d="M9.06986 2.95363L9.19744 2.76657C9.19744 2.76657 9.33604 3.3152 9.23928 3.66616C9.16233 3.94523 8.87866 4.30939 8.87866 4.30939C8.74881 4.62381 8.75712 4.79626 8.8275 5.10128L8.56859 5.39003C8.56859 5.39003 8.48854 4.99022 8.35919 4.79413C8.17151 4.50965 7.86186 4.58702 7.67091 4.33697C7.38817 3.96674 7.53477 3.1851 7.53477 3.1851L7.76418 3.3735C7.76418 3.3735 7.90322 3.17889 8.03909 2.89959C8.08775 2.79957 8.13601 2.68869 8.17733 2.57199C8.24049 2.39361 8.31082 2.10675 8.31082 2.10675L8.44344 2.36419L8.5501 2.2273C8.5501 2.2273 8.5594 2.42463 8.59876 2.53498C8.68909 2.78822 8.79283 2.88041 9.06986 2.95363Z" fill="url(#paint5_linear_1206_12311)"/>
<path d="M9.06986 2.95363C9.11968 2.88058 9.19744 2.76657 9.19744 2.76657C9.19744 2.76657 9.33604 3.3152 9.23928 3.66616C9.16233 3.94523 8.87866 4.30939 8.87866 4.30939C8.74881 4.62381 8.75712 4.79626 8.8275 5.10128L8.56859 5.39003C8.56859 5.39003 8.48854 4.99022 8.35919 4.79414C8.17151 4.50965 7.86186 4.58702 7.67091 4.33697C7.38817 3.96674 7.53477 3.1851 7.53477 3.1851L7.76418 3.3735M9.06986 2.95363C8.79283 2.88041 8.68909 2.78822 8.59876 2.53498C8.5594 2.42463 8.5501 2.2273 8.5501 2.2273L8.44344 2.36419M9.06986 2.95363C9.06226 2.9801 8.83945 3.43671 8.83945 3.43671C8.83945 3.43671 8.6652 3.12026 8.58686 2.90566M7.76418 3.3735C7.89543 3.51669 7.91518 3.61026 7.95237 3.77616L8.12271 3.18251L8.3826 3.54696L8.428 2.75363L8.58686 2.90566M7.76418 3.3735C7.76418 3.3735 7.90322 3.17889 8.03909 2.89959C8.08775 2.79957 8.13601 2.68869 8.17733 2.57199C8.24049 2.39361 8.31082 2.10675 8.31082 2.10675L8.44344 2.36419M8.44344 2.36419C8.44344 2.36419 8.51152 2.69932 8.58686 2.90566" stroke="#F8F7FC" stroke-width="0.0365292"/>
</g>
<defs>
<filter id="filter0_d_1206_12311" x="7.47836" y="2.05457" width="1.94059" height="3.48693" filterUnits="userSpaceOnUse" color-interpolation-filters="sRGB">
<feFlood flood-opacity="0" result="BackgroundImageFix"/>
<feColorMatrix in="SourceAlpha" type="matrix" values="0 0 0 0 0 0 0 0 0 0 0 0 0 0 0 0 0 0 127 0" result="hardAlpha"/>
<feOffset dx="0.0737995" dy="0.0590396"/>
<feGaussianBlur stdDeviation="0.0265678"/>
<feComposite in2="hardAlpha" operator="out"/>
<feColorMatrix type="matrix" values="0 0 0 0 0 0 0 0 0 0 0 0 0 0 0 0 0 0 0.25 0"/>
<feBlend mode="normal" in2="BackgroundImageFix" result="effect1_dropShadow_1206_12311"/>
<feBlend mode="normal" in="SourceGraphic" in2="effect1_dropShadow_1206_12311" result="shape"/>
</filter>
<radialGradient id="paint0_radial_1206_12311" cx="0" cy="0" r="1" gradientUnits="userSpaceOnUse" gradientTransform="translate(9.97591 9.69332) scale(7.11802 7.11799)">
<stop offset="0.5" stop-color="#FDE030"/>
<stop offset="0.92" stop-color="#F7C02B"/>
<stop offset="1" stop-color="#F4A223"/>
</radialGradient>
<linearGradient id="paint1_linear_1206_12311" x1="9.97591" y1="16.6789" x2="9.97591" y2="2.70776" gradientUnits="userSpaceOnUse">
<stop offset="0.16" stop-color="#F4A223"/>
<stop offset="0.33" stop-color="#F7C02B"/>
<stop offset="0.81" stop-color="#FDE030" stop-opacity="0"/>
</linearGradient>
<radialGradient id="paint2_radial_1206_12311" cx="0" cy="0" r="1" gradientUnits="userSpaceOnUse" gradientTransform="translate(5.43358 10.3506) scale(2.38473 2.26305)">
<stop stop-color="#ED7770"/>
<stop offset="0.08" stop-color="#ED7770" stop-opacity="0.96"/>
<stop offset="0.22" stop-color="#ED7770" stop-opacity="0.85"/>
<stop offset="0.39" stop-color="#ED7770" stop-opacity="0.68"/>
<stop offset="0.59" stop-color="#ED7770" stop-opacity="0.43"/>
<stop offset="0.81" stop-color="#ED7770" stop-opacity="0.13"/>
<stop offset="0.9" stop-color="#ED7770" stop-opacity="0"/>
</radialGradient>
<radialGradient id="paint3_radial_1206_12311" cx="0" cy="0" r="1" gradientUnits="userSpaceOnUse" gradientTransform="translate(14.5695 10.3506) scale(2.38473 2.26305)">
<stop stop-color="#ED7770"/>
<stop offset="0.08" stop-color="#ED7770" stop-opacity="0.96"/>
<stop offset="0.22" stop-color="#ED7770" stop-opacity="0.85"/>
<stop offset="0.39" stop-color="#ED7770" stop-opacity="0.68"/>
<stop offset="0.59" stop-color="#ED7770" stop-opacity="0.43"/>
<stop offset="0.81" stop-color="#ED7770" stop-opacity="0.13"/>
<stop offset="0.9" stop-color="#ED7770" stop-opacity="0"/>
</radialGradient>
<radialGradient id="paint4_radial_1206_12311" cx="0" cy="0" r="1" gradientUnits="userSpaceOnUse" gradientTransform="translate(9.90953 11.0721) scale(8.13028 8.13024)">
<stop offset="0.27" stop-color="#FFF176"/>
<stop offset="1" stop-color="#FFC400"/>
</radialGradient>
<linearGradient id="paint5_linear_1206_12311" x1="8.73501" y1="2.21289" x2="7.97704" y2="5.24201" gradientUnits="userSpaceOnUse">
<stop stop-color="#C9C9C9"/>
<stop offset="1" stop-color="#939297"/>
</linearGradient>
</defs>
</svg>
