<svg width="18" height="19" viewBox="0 0 18 19" fill="none" xmlns="http://www.w3.org/2000/svg">
<path d="M9.00076 17.8885C5.51422 17.8885 1.75275 15.7016 1.75275 10.9029C1.75275 6.10425 5.51422 3.91736 9.00076 3.91736C10.9377 3.91736 12.7247 4.55468 14.0494 5.71686C15.4865 6.9915 16.2488 8.791 16.2488 10.9029C16.2488 13.0148 15.4865 14.8018 14.0494 16.0765C12.7247 17.2387 10.9252 17.8885 9.00076 17.8885Z" fill="url(#paint0_radial_1200_7788)"/>
<path d="M14.9841 6.75037C15.6502 7.82507 15.9976 9.10471 15.9976 10.5281C15.9976 12.64 15.2353 14.427 13.7982 15.7016C12.4735 16.8638 10.674 17.5136 8.74955 17.5136C6.49267 17.5136 4.12582 16.5951 2.7287 14.6469C4.07333 16.8538 6.60264 17.8885 8.99948 17.8885C10.924 17.8885 12.7235 17.2387 14.0481 16.0765C15.4852 14.8019 16.2475 13.0149 16.2475 10.903C16.2475 9.31091 15.8139 7.8963 14.9841 6.75037Z" fill="#789E46"/>
<g opacity="0.65">
<path opacity="0.65" d="M12.5663 16.5362C13.4614 16.5362 14.1871 15.871 14.1871 15.0504C14.1871 14.2298 13.4614 13.5646 12.5663 13.5646C11.6712 13.5646 10.9455 14.2298 10.9455 15.0504C10.9455 15.871 11.6712 16.5362 12.5663 16.5362Z" fill="url(#paint1_radial_1200_7788)"/>
</g>
<g opacity="0.65">
<path opacity="0.65" d="M5.67617 16.7862C6.57131 16.7862 7.29697 16.121 7.29697 15.3004C7.29697 14.4798 6.57131 13.8146 5.67617 13.8146C4.78102 13.8146 4.05536 14.4798 4.05536 15.3004C4.05536 16.121 4.78102 16.7862 5.67617 16.7862Z" fill="url(#paint2_radial_1200_7788)"/>
</g>
<path fill-rule="evenodd" clip-rule="evenodd" d="M6.09614 13.7895C6.17458 13.6258 6.37087 13.5567 6.53456 13.6351C6.75538 13.741 6.96724 13.9282 7.13619 14.1199C7.30675 14.3136 7.45964 14.5415 7.54658 14.7546L7.54763 14.7572C7.67815 15.085 7.71335 15.4453 7.64476 15.7944C7.60976 15.9725 7.437 16.0885 7.25889 16.0535C7.08078 16.0185 6.96477 15.8458 6.99977 15.6676C7.04356 15.4448 7.02145 15.2133 6.93747 15.0017C6.88551 14.875 6.77935 14.7093 6.64295 14.5544C6.50448 14.3973 6.36082 14.2808 6.25048 14.2279C6.08679 14.1495 6.01769 13.9532 6.09614 13.7895Z" fill="#35220B"/>
<path fill-rule="evenodd" clip-rule="evenodd" d="M11.9114 13.6982C11.9893 13.8622 11.9196 14.0582 11.7557 14.1362C11.6451 14.1887 11.5008 14.3046 11.3619 14.461C11.2245 14.6156 11.118 14.7809 11.0666 14.907L11.0662 14.908L11.0662 14.908C11.0119 15.0397 10.9826 15.182 10.9796 15.3257C10.9759 15.5071 10.8258 15.6512 10.6443 15.6475C10.4629 15.6438 10.3188 15.4937 10.3225 15.3122C10.327 15.0887 10.3726 14.8662 10.4582 14.6582C10.5455 14.4445 10.6994 14.217 10.8705 14.0244C11.0403 13.8333 11.2528 13.6474 11.4734 13.5425C11.6373 13.4646 11.8334 13.5343 11.9114 13.6982Z" fill="#35220B"/>
<path fill-rule="evenodd" clip-rule="evenodd" d="M10.2807 14.6952C10.0713 14.6064 9.68135 14.5035 9.0095 14.5142L9.00927 14.5142C8.27013 14.5254 7.88972 14.6732 7.70576 14.7866C7.61408 14.8431 7.56778 14.8931 7.54752 14.9189C7.53986 14.9287 7.53547 14.9356 7.53351 14.9389C7.46607 15.0981 7.28521 15.1788 7.12034 15.1198C6.94942 15.0587 6.86042 14.8706 6.92153 14.6997L7.231 14.8104C6.92153 14.6997 6.92166 14.6994 6.92178 14.699L6.92204 14.6983L6.92258 14.6968L6.92374 14.6937C6.92455 14.6916 6.92545 14.6893 6.92642 14.6868C6.92838 14.6819 6.93067 14.6764 6.93335 14.6704C6.9387 14.6583 6.94556 14.6441 6.95424 14.6281C6.97164 14.5959 6.99621 14.5567 7.03035 14.5132C7.09909 14.4256 7.20392 14.3238 7.36077 14.2271C7.67383 14.0341 8.17999 13.8694 8.99904 13.8569M10.2807 14.6952C10.3853 14.7396 10.4461 14.7809 10.4759 14.8044L10.2807 14.6952ZM10.4759 14.8044C10.4889 14.8147 10.4964 14.8218 10.4993 14.8247L10.4759 14.8044ZM10.4993 14.8247C10.6096 14.9598 10.8078 14.9857 10.9495 14.8807C11.0953 14.7727 11.1259 14.5668 11.0178 14.421L10.7557 14.6152C11.0178 14.421 11.0177 14.4207 11.0175 14.4205L11.0171 14.4199L11.0162 14.4188L11.0144 14.4165C11.0132 14.4149 11.0119 14.4132 11.0104 14.4113C11.0076 14.4077 11.0043 14.4037 11.0005 14.3993C10.9931 14.3905 10.9839 14.3802 10.9728 14.3688C10.9507 14.3458 10.921 14.3182 10.8824 14.2879C10.8051 14.227 10.6935 14.1564 10.5374 14.0901C10.2254 13.9578 9.74059 13.8451 8.99912 13.8569M10.4905 14.8134C10.4905 14.8134 10.4905 14.8134 10.4905 14.8134L10.4905 14.8134L10.4905 14.8134ZM10.4901 14.8129C10.4901 14.8129 10.4901 14.8129 10.4901 14.8129L10.4902 14.8129C10.4901 14.8129 10.4901 14.8129 10.4901 14.8129Z" fill="#35220B"/>
<path d="M4.4769 9.51481C4.20197 9.5648 4.18947 9.96469 4.48939 9.97719C5.15171 9.98593 5.79154 9.73975 6.2764 9.28988C6.46135 9.12992 6.61756 8.93997 6.73878 8.72753C6.81126 8.62381 6.78626 8.48135 6.68254 8.40887C6.57882 8.33639 6.43636 8.36139 6.36388 8.46511L6.35138 8.4776C5.86152 9.02495 5.20045 9.3911 4.4769 9.51481Z" fill="#422B0D"/>
<path d="M11.6129 7.59035C11.5405 7.48663 11.398 7.46164 11.2943 7.53412C11.1905 7.6066 11.1656 7.74906 11.238 7.85278C11.3593 8.06522 11.5155 8.25517 11.7004 8.41512C12.1878 8.86125 12.8264 9.10743 13.4874 9.10243C13.7998 9.08993 13.7748 8.69005 13.4999 8.64006C12.7676 8.52009 12.1015 8.14895 11.6129 7.59035Z" fill="#422B0D"/>
<path d="M5.76999 10.8689C5.58379 10.9588 5.48381 11.1663 5.5313 11.3687C5.65627 11.9073 6.07615 12.2197 6.52478 12.2197C7.06713 12.2197 7.5595 11.7611 7.5595 11.0013C7.56075 10.8651 7.54325 10.7301 7.50826 10.5989C7.44078 10.3677 7.19959 10.2353 6.96966 10.3028C6.94466 10.3103 6.92217 10.319 6.89843 10.3303L5.76999 10.8689Z" fill="#422B0D"/>
<path d="M6.97301 10.7625C6.90428 10.6587 6.73057 10.6375 6.54687 10.7625C6.36317 10.8874 6.31569 11.0524 6.38442 11.1561C6.4544 11.2611 6.62685 11.2811 6.81055 11.1561C6.99425 11.0311 7.04174 10.8674 6.97301 10.7625Z" fill="#896024"/>
<path d="M12.28 10.8689C12.4675 10.9588 12.5675 11.1663 12.52 11.3687C12.3888 11.9073 11.9739 12.2197 11.5203 12.2197C10.9779 12.2197 10.4843 11.7611 10.4843 11.0013C10.4843 10.8651 10.5005 10.7301 10.5355 10.5989C10.603 10.3677 10.8454 10.2353 11.0766 10.3028C11.1004 10.3103 11.1241 10.319 11.1466 10.3303L12.28 10.8689Z" fill="#422B0D"/>
<path d="M11.075 10.7626C11.145 10.6589 11.325 10.6376 11.5024 10.7626C11.6799 10.8875 11.7336 11.0525 11.6636 11.1562C11.5949 11.2612 11.4212 11.2812 11.2375 11.1562C11.0538 11.0313 11.0063 10.8675 11.075 10.7626Z" fill="#896024"/>
<path d="M5.17727 2.33425H5.6713C5.6713 2.33425 7.70054 2.05866 9.07281 2.07083C10.3809 2.08243 12.3042 2.33425 12.3042 2.33425H13.0817C13.8732 3.63878 14.4421 4.97844 14.7029 6.35457C12.1459 5.62849 9.07281 7.16316 9.07281 7.16316C9.07281 7.16316 5.95361 5.65527 3.46744 6.19723C3.86539 4.78852 4.35585 3.51014 5.17727 2.33425Z" fill="#7F2125"/>
<path d="M5.17727 2.33425H5.6713C5.6713 2.33425 7.70054 2.05866 9.07281 2.07083C10.3809 2.08243 12.3042 2.33425 12.3042 2.33425H13.0817M5.17727 2.33425C4.35585 3.51014 3.86539 4.78852 3.46744 6.19723C5.95361 5.65527 9.07281 7.16316 9.07281 7.16316C9.07281 7.16316 12.1459 5.62849 14.7029 6.35457C14.4421 4.97844 13.8732 3.63878 13.0817 2.33425M5.17727 2.33425C5.81987 3.03087 6.73536 2.59326 9.07281 3.12934C11.1891 2.60946 12.2081 3.06537 13.0817 2.33425" stroke="#67211F" stroke-width="0.0582032"/>
<path d="M9.09009 7.14038L9.09759 3.1328C10.6887 2.64472 11.8967 3.02578 13.0904 2.35791C13.6103 3.15589 14.4703 4.65004 14.7115 6.34308C12.6452 5.81199 10.4603 6.51308 9.09009 7.14038Z" fill="#67211F" stroke="#67211F" stroke-width="0.0365292"/>
<path d="M6.35878 2.78608C5.99751 2.54452 5.65857 2.67542 5.67343 2.32849L5.2081 2.34325C5.5708 2.73186 6.10704 2.73085 6.35878 2.78608Z" fill="#67211F"/>
<path d="M11.7372 2.74154C12.0984 2.50243 12.3876 2.6569 12.3728 2.31348H13.0858C12.7231 2.69816 11.9889 2.68687 11.7372 2.74154Z" fill="#67211F" fill-opacity="0.56"/>
<path d="M9.1428 2.37242L9.06166 3.08476L9.21067 3.0745L9.1428 2.37242Z" fill="#67211F" stroke="#67211F" stroke-width="0.0885594"/>
<path d="M7.19237 2.86709C6.92971 2.85243 6.77156 2.83778 6.55442 2.82312C6.41934 4.37291 6.36749 4.75667 6.64894 6.2917C7.03065 6.39145 7.3193 6.48557 7.64881 6.58689C6.87613 5.18396 7.09085 4.2827 7.19237 2.86709Z" fill="#D60000" stroke="#67211F" stroke-width="0.0365292"/>
<path d="M6.76713 2.84556L6.57674 2.83069L6.53867 3.11326L6.76713 2.84556Z" fill="#398F00" stroke="#67211F" stroke-width="0.00737995"/>
<path d="M6.45581 3.88649L7.16881 3.06568L7.17632 2.88247L6.76353 2.84583L6.53837 3.10966L6.45581 3.88649Z" fill="#FF7F00" stroke="#67211F" stroke-width="0.00737995"/>
<path d="M6.91946 3.34346C6.91946 3.34346 6.6918 3.0894 6.61175 3.021L6.53669 3.10894L6.46164 3.87844C6.57172 3.74897 6.91946 3.34346 6.91946 3.34346Z" fill="#D60000" stroke="#67211F" stroke-width="0.00737995"/>
<path d="M7.13857 3.95169C7.13934 3.63543 7.1468 3.43931 7.16859 3.06494L6.4631 3.87841C6.43797 4.20113 6.43198 4.37915 6.42557 4.69187L7.13857 3.95169Z" fill="#007FFF" stroke="#67211F" stroke-width="0.00590396"/>
<path d="M6.96595 4.1277L6.6132 3.70264L6.46309 3.87852C6.44351 4.19695 6.43412 4.37364 6.42557 4.692L6.96595 4.1277Z" fill="#398F00" stroke="#67211F" stroke-width="0.00590396"/>
<path d="M6.99597 4.8678L6.65073 4.4574L6.42557 4.69191C6.43307 5.0217 6.45559 5.16827 6.47813 5.43943L6.99597 4.8678Z" fill="#D60000" stroke="#67211F" stroke-width="0.00590396"/>
<path d="M6.96511 5.70325L6.61986 5.28552L6.47726 5.43942C6.53731 5.77654 6.55232 5.86448 6.61236 6.11366L6.96511 5.70325Z" fill="#007FFF" stroke="#67211F" stroke-width="0.00590396"/>
<path d="M7.05676 6.4013L6.71737 5.98889L6.61179 6.11409L6.65946 6.2782L7.05676 6.4013Z" fill="#FF7F00" stroke="#67211F" stroke-width="0.00590396"/>
<path d="M7.1742 4.66987C7.1475 4.4235 7.13742 4.27153 7.13668 3.95166L6.64883 4.45734C6.87399 4.72117 6.82896 4.66254 6.99408 4.86774L7.1742 4.66987Z" fill="#FF7F00" stroke="#67211F" stroke-width="0.00590396"/>
<path d="M7.26408 5.35172C7.23406 5.12454 7.19653 5.00728 7.17401 4.67749L6.61862 5.28577C6.83834 5.56561 6.79465 5.50276 6.96387 5.6961L7.26408 5.35172Z" fill="#398F00" stroke="#67211F" stroke-width="0.00590396"/>
<path d="M7.43859 6.00393C7.37104 5.76209 7.33351 5.65949 7.26596 5.35168L6.71808 5.98927C6.8907 6.20913 6.8907 6.20913 7.06332 6.40701L7.43859 6.00393Z" fill="#D60000" stroke="#67211F" stroke-width="0.00590396"/>
<path d="M7.65338 6.57435C7.47992 6.36078 7.49081 6.37136 7.30981 6.14307L7.05054 6.39637C7.36869 6.47979 7.36312 6.47794 7.36312 6.47794L7.65338 6.57435Z" fill="#398F00" stroke="#67211F" stroke-width="0.00590396"/>
<path d="M7.43906 6.00378L7.31085 6.14371L7.64269 6.55611H7.65024L7.43906 6.00378Z" fill="#007FFF" stroke="#67211F" stroke-width="0.00590396"/>
<path d="M7.21502 5.01597L7.17731 4.68457L7.13206 4.72876L7.06418 4.8024L7.21502 5.01597Z" fill="#007FFF" stroke="#67211F" stroke-width="0.00590396"/>
<g filter="url(#filter0_d_1200_7788)">
<path d="M8.16663 3.77126L8.28779 3.5842C8.28779 3.5842 8.41943 4.13282 8.32753 4.48379C8.25445 4.76286 7.98504 5.12701 7.98504 5.12701C7.86172 5.44143 7.86961 5.61388 7.93646 5.91891L7.69056 6.20766C7.69056 6.20766 7.61453 5.80784 7.49169 5.61176C7.31345 5.32728 7.01937 5.40464 6.83801 5.15459C6.56949 4.78436 6.70872 4.00273 6.70872 4.00273L6.9266 4.19113C6.9266 4.19113 7.05864 3.99652 7.18769 3.71722C7.2339 3.6172 7.27973 3.50631 7.31897 3.38962C7.37895 3.21123 7.44575 2.92437 7.44575 2.92437L7.57171 3.18182L7.673 3.04493C7.673 3.04493 7.68183 3.24226 7.71921 3.3526C7.805 3.60585 7.90353 3.69804 8.16663 3.77126Z" fill="url(#paint3_linear_1200_7788)"/>
<path d="M8.16663 3.77126C8.21394 3.6982 8.28779 3.5842 8.28779 3.5842C8.28779 3.5842 8.41943 4.13282 8.32753 4.48379C8.25445 4.76286 7.98504 5.12701 7.98504 5.12701C7.86172 5.44143 7.86961 5.61388 7.93646 5.91891L7.69056 6.20766C7.69056 6.20766 7.61453 5.80784 7.49169 5.61176C7.31345 5.32728 7.01937 5.40464 6.83801 5.15459C6.56949 4.78436 6.70872 4.00273 6.70872 4.00273L6.9266 4.19113M8.16663 3.77126C7.90353 3.69804 7.805 3.60585 7.71921 3.3526C7.68183 3.24226 7.673 3.04493 7.673 3.04493L7.57171 3.18182M8.16663 3.77126C8.15941 3.79773 7.9478 4.25434 7.9478 4.25434C7.9478 4.25434 7.78232 3.93788 7.70791 3.72329M6.9266 4.19113C7.05125 4.33431 7.07 4.42789 7.10533 4.59378L7.2671 4.00014L7.51392 4.36459L7.55704 3.57125L7.70791 3.72329M6.9266 4.19113C6.9266 4.19113 7.05864 3.99652 7.18769 3.71722C7.2339 3.6172 7.27973 3.50631 7.31897 3.38962C7.37895 3.21123 7.44575 2.92437 7.44575 2.92437L7.57171 3.18182M7.57171 3.18182C7.57171 3.18182 7.63636 3.51695 7.70791 3.72329" stroke="#F8F7FC" stroke-width="0.0365292"/>
</g>
<defs>
<filter id="filter0_d_1200_7788" x="6.65433" y="2.87012" width="1.85103" height="3.49059" filterUnits="userSpaceOnUse" color-interpolation-filters="sRGB">
<feFlood flood-opacity="0" result="BackgroundImageFix"/>
<feColorMatrix in="SourceAlpha" type="matrix" values="0 0 0 0 0 0 0 0 0 0 0 0 0 0 0 0 0 0 127 0" result="hardAlpha"/>
<feOffset dx="0.0737995" dy="0.0590396"/>
<feGaussianBlur stdDeviation="0.0265678"/>
<feComposite in2="hardAlpha" operator="out"/>
<feColorMatrix type="matrix" values="0 0 0 0 0 0 0 0 0 0 0 0 0 0 0 0 0 0 0.25 0"/>
<feBlend mode="normal" in2="BackgroundImageFix" result="effect1_dropShadow_1200_7788"/>
<feBlend mode="normal" in="SourceGraphic" in2="effect1_dropShadow_1200_7788" result="shape"/>
</filter>
<radialGradient id="paint0_radial_1200_7788" cx="0" cy="0" r="1" gradientUnits="userSpaceOnUse" gradientTransform="translate(9.00076 10.9029) scale(7.11802 7.11799)">
<stop stop-color="#FDE030"/>
<stop offset="0.19" stop-color="#F1DE37"/>
<stop offset="0.53" stop-color="#D1D748"/>
<stop offset="0.99" stop-color="#9DCC64"/>
<stop offset="1" stop-color="#9CCC65"/>
</radialGradient>
<radialGradient id="paint1_radial_1200_7788" cx="0" cy="0" r="1" gradientUnits="userSpaceOnUse" gradientTransform="translate(12.5629 15.0725) scale(1.76172 1.54397)">
<stop stop-color="#ED7770"/>
<stop offset="0.08" stop-color="#ED7770" stop-opacity="0.97"/>
<stop offset="0.21" stop-color="#ED7770" stop-opacity="0.88"/>
<stop offset="0.35" stop-color="#ED7770" stop-opacity="0.74"/>
<stop offset="0.52" stop-color="#ED7770" stop-opacity="0.55"/>
<stop offset="0.71" stop-color="#ED7770" stop-opacity="0.29"/>
<stop offset="0.9" stop-color="#ED7770" stop-opacity="0"/>
</radialGradient>
<radialGradient id="paint2_radial_1200_7788" cx="0" cy="0" r="1" gradientUnits="userSpaceOnUse" gradientTransform="translate(5.67617 15.3226) scale(1.76091 1.54326)">
<stop stop-color="#ED7770"/>
<stop offset="0.08" stop-color="#ED7770" stop-opacity="0.97"/>
<stop offset="0.21" stop-color="#ED7770" stop-opacity="0.88"/>
<stop offset="0.35" stop-color="#ED7770" stop-opacity="0.74"/>
<stop offset="0.52" stop-color="#ED7770" stop-opacity="0.55"/>
<stop offset="0.71" stop-color="#ED7770" stop-opacity="0.29"/>
<stop offset="0.9" stop-color="#ED7770" stop-opacity="0"/>
</radialGradient>
<linearGradient id="paint3_linear_1200_7788" x1="7.84861" y1="3.03052" x2="7.0556" y2="6.04036" gradientUnits="userSpaceOnUse">
<stop stop-color="#C9C9C9"/>
<stop offset="1" stop-color="#939297"/>
</linearGradient>
</defs>
</svg>
