<svg width="19" height="19" viewBox="0 0 19 19" fill="none" xmlns="http://www.w3.org/2000/svg">
<g clip-path="url(#clip0_1200_7193)">
<path d="M9.9209 16.8333C6.43435 16.8333 2.67288 14.6464 2.67288 9.84774C2.67288 5.04908 6.43435 2.86218 9.9209 2.86218C11.8579 2.86218 13.6449 3.49951 14.9695 4.66168C16.4066 5.93633 17.1689 7.73583 17.1689 9.84774C17.1689 11.9597 16.4066 13.7467 14.9695 15.0213C13.6449 16.1835 11.8454 16.8333 9.9209 16.8333Z" fill="url(#paint0_radial_1200_7193)"/>
<path d="M15.9042 5.69531C16.5703 6.77001 16.9177 8.04966 16.9177 9.47301C16.9177 11.5849 16.1554 13.3719 14.7183 14.6466C13.3936 15.8088 11.5941 16.4586 9.66966 16.4586C7.41277 16.4586 5.04592 15.5401 3.6488 13.5919C4.99344 15.7988 7.52274 16.8335 9.91959 16.8335C11.8441 16.8335 13.6436 16.1837 14.9682 15.0215C16.4053 13.7468 17.1676 11.9598 17.1676 9.84791C17.1676 8.25585 16.734 6.84124 15.9042 5.69531Z" fill="#EB8F00"/>
<path d="M10.0457 12.6827C10.5218 12.684 10.9967 12.659 11.4703 12.6078C11.4766 11.7792 10.8093 11.1032 9.98075 11.0982C9.15222 11.0932 8.47741 11.758 8.47116 12.5865C8.99352 12.6515 9.51962 12.684 10.0457 12.6827Z" fill="white"/>
<path d="M8.47098 12.5859C8.47098 12.6184 8.47098 12.6497 8.47098 12.6822V14.1568C8.47098 14.9853 9.14204 15.6563 9.97057 15.6563C10.7991 15.6563 11.4702 14.9853 11.4702 14.1568V12.6822C11.4702 12.6559 11.4702 12.6297 11.4702 12.6034C10.9978 12.6559 10.5242 12.6822 10.0493 12.6822C9.52194 12.6834 8.99458 12.6509 8.47098 12.5859Z" fill="#422B0D"/>
<path d="M12.4335 7.05835C12.9084 7.05835 13.3458 7.6082 13.3458 8.53294C13.3458 9.45768 12.9084 10.0075 12.4335 10.0075C11.9587 10.0075 11.5213 9.45768 11.5213 8.53294C11.5213 7.6082 11.9462 7.05835 12.4335 7.05835Z" fill="#422B0D"/>
<path d="M7.5085 7.05847C6.99614 7.05847 6.54626 7.60832 6.54626 8.53306C6.54626 9.45781 7.00864 10.0077 7.5085 10.0077C8.00836 10.0077 8.47074 9.45781 8.47074 8.53306C8.47074 7.60832 8.00836 7.05847 7.5085 7.05847Z" fill="#422B0D"/>
<path d="M7.67211 5.59736C7.95953 5.62235 8.072 5.23496 7.77209 5.14748C7.5359 5.08375 7.29097 5.05876 7.04728 5.07251C6.38621 5.0975 5.76014 5.37492 5.29776 5.84729C5.08532 6.07223 5.38524 6.34715 5.61018 6.1847C6.21251 5.76356 6.93856 5.55612 7.67211 5.59736Z" fill="#422B0D"/>
<path d="M12.2446 5.59748C12.9819 5.55499 13.7129 5.76119 14.319 6.18482C14.5439 6.34727 14.8439 6.07235 14.6314 5.84741C14.1678 5.37754 13.5417 5.10012 12.8819 5.07263C12.6382 5.05888 12.3933 5.08387 12.1571 5.14761C12.0346 5.1826 11.9634 5.30881 11.9984 5.43128C12.0284 5.54 12.1333 5.60998 12.2446 5.59748Z" fill="#422B0D"/>
<path d="M7.50626 7.59252C7.32881 7.50754 7.11512 7.58252 7.02889 7.75997C6.96266 7.89868 6.99265 8.06488 7.10387 8.17235C7.28132 8.25733 7.49502 8.18235 7.58124 8.0049C7.64747 7.86619 7.61748 7.69999 7.50626 7.59252Z" fill="#896024"/>
<path d="M12.3834 7.59489C12.2047 7.51117 11.9922 7.5874 11.9073 7.7661C11.8423 7.90481 11.8723 8.06851 11.9822 8.17473C12.1609 8.25846 12.3734 8.18223 12.4584 8.00353C12.5233 7.86607 12.4934 7.70111 12.3834 7.59489Z" fill="#896024"/>
<path d="M11.4694 12.6839C11.3969 12.3165 11.2044 11.9829 10.9233 11.7342C10.3772 11.2581 9.5624 11.2581 9.0163 11.7342C8.73512 11.9829 8.54393 12.3165 8.4702 12.6839C8.40022 12.2653 8.52518 11.8379 8.80885 11.523C9.36995 10.8819 10.3459 10.8169 10.987 11.3793C11.0382 11.4243 11.0857 11.4717 11.1307 11.523C11.2719 11.6829 11.3757 11.8716 11.4356 12.0766C11.4931 12.274 11.5044 12.4815 11.4694 12.6839Z" fill="#EB8F00"/>
<path d="M6.08495 1.21657H6.57898C6.57898 1.21657 8.60823 0.940982 9.98049 0.95315C11.2886 0.96475 13.2119 1.21657 13.2119 1.21657H13.9894C14.7809 2.5211 15.3497 3.86076 15.6105 5.2369C13.0535 4.51081 9.98049 6.04548 9.98049 6.04548C9.98049 6.04548 6.8613 4.5376 4.37512 5.07955C4.77307 3.67084 5.26354 2.39247 6.08495 1.21657Z" fill="#7F2125"/>
<path d="M6.08495 1.21657H6.57898C6.57898 1.21657 8.60823 0.940982 9.98049 0.95315C11.2886 0.96475 13.2119 1.21657 13.2119 1.21657H13.9894M6.08495 1.21657C5.26354 2.39247 4.77307 3.67084 4.37512 5.07955C6.8613 4.5376 9.98049 6.04548 9.98049 6.04548C9.98049 6.04548 13.0535 4.51081 15.6105 5.2369C15.3497 3.86076 14.7809 2.5211 13.9894 1.21657M6.08495 1.21657C6.72755 1.91319 7.64305 1.47559 9.98049 2.01167C12.0968 1.49179 13.1158 1.94769 13.9894 1.21657" stroke="#67211F" stroke-width="0.0582032"/>
<path d="M9.99965 6.02282L10.0072 2.01525C11.5983 1.52717 12.8063 1.90822 14 1.24036C14.5199 2.03833 15.3799 3.53249 15.6211 5.22553C13.5547 4.69443 11.3698 5.39553 9.99965 6.02282Z" fill="#67211F" stroke="#67211F" stroke-width="0.0365292"/>
<path d="M7.26821 1.66816C6.90694 1.4266 6.56799 1.5575 6.58285 1.21057L6.11752 1.22533C6.48022 1.61394 7.01646 1.61293 7.26821 1.66816Z" fill="#67211F"/>
<path d="M12.6456 1.62387C13.0069 1.38475 13.2961 1.53923 13.2812 1.1958H13.9942C13.6315 1.58049 12.8974 1.56919 12.6456 1.62387Z" fill="#67211F" fill-opacity="0.56"/>
<path d="M10.0522 1.25499L9.97109 1.96733L10.1201 1.95707L10.0522 1.25499Z" fill="#67211F" stroke="#67211F" stroke-width="0.0885594"/>
<path d="M8.10177 1.74954C7.8391 1.73488 7.68096 1.72022 7.46382 1.70557C7.32873 3.25536 7.27689 3.63911 7.55833 5.17414C7.94004 5.2739 8.22869 5.36802 8.55821 5.46934C7.78552 4.06641 8.00025 3.16514 8.10177 1.74954Z" fill="#D60000" stroke="#67211F" stroke-width="0.0365292"/>
<path d="M7.67281 1.72764L7.48243 1.71277L7.44435 1.99534L7.67281 1.72764Z" fill="#398F00" stroke="#67211F" stroke-width="0.00737995"/>
<path d="M7.36423 2.76869L8.07723 1.94789L8.08474 1.76467L7.67194 1.72803L7.44679 1.99186L7.36423 2.76869Z" fill="#FF7F00" stroke="#67211F" stroke-width="0.00737995"/>
<path d="M7.82898 2.2259C7.82898 2.2259 7.60132 1.97184 7.52126 1.90344L7.44621 1.99139L7.37115 2.76089C7.48123 2.63142 7.82898 2.2259 7.82898 2.2259Z" fill="#D60000" stroke="#67211F" stroke-width="0.00737995"/>
<path d="M8.04711 2.83402C8.04788 2.51776 8.05534 2.32163 8.07713 1.94727L7.37163 2.76073C7.34651 3.08345 7.34052 3.26147 7.33411 3.5742L8.04711 2.83402Z" fill="#007FFF" stroke="#67211F" stroke-width="0.00590396"/>
<path d="M7.87449 3.01014L7.52174 2.58508L7.37163 2.76097C7.35205 3.0794 7.34266 3.25609 7.33411 3.57445L7.87449 3.01014Z" fill="#398F00" stroke="#67211F" stroke-width="0.00590396"/>
<path d="M7.90451 3.75L7.55927 3.3396L7.33411 3.57412C7.34161 3.9039 7.36413 4.05048 7.38667 4.32163L7.90451 3.75Z" fill="#D60000" stroke="#67211F" stroke-width="0.00590396"/>
<path d="M7.87461 4.58558L7.52937 4.16785L7.38676 4.32175C7.44681 4.65886 7.46182 4.74681 7.52186 4.99598L7.87461 4.58558Z" fill="#007FFF" stroke="#67211F" stroke-width="0.00590396"/>
<path d="M7.96627 5.28386L7.62689 4.87146L7.5213 4.99665L7.56897 5.16077L7.96627 5.28386Z" fill="#FF7F00" stroke="#67211F" stroke-width="0.00590396"/>
<path d="M8.08274 3.55219C8.05604 3.30582 8.04596 3.15385 8.04522 2.83398L7.55737 3.33966C7.78253 3.60349 7.7375 3.54486 7.90262 3.75006L8.08274 3.55219Z" fill="#FF7F00" stroke="#67211F" stroke-width="0.00590396"/>
<path d="M8.17262 4.23393C8.14259 4.00674 8.10507 3.88948 8.08255 3.55969L7.52716 4.16797C7.74687 4.44781 7.70319 4.38496 7.8724 4.5783L8.17262 4.23393Z" fill="#398F00" stroke="#67211F" stroke-width="0.00590396"/>
<path d="M8.34906 4.88613C8.28152 4.64429 8.24399 4.54169 8.17644 4.23389L7.62856 4.87148C7.80118 5.09134 7.80118 5.09134 7.9738 5.28921L8.34906 4.88613Z" fill="#D60000" stroke="#67211F" stroke-width="0.00590396"/>
<path d="M8.56386 5.45667C8.39039 5.24311 8.40129 5.25369 8.22028 5.02539L7.96101 5.27869C8.27917 5.36212 8.2736 5.36027 8.2736 5.36027L8.56386 5.45667Z" fill="#398F00" stroke="#67211F" stroke-width="0.00590396"/>
<path d="M8.34856 4.88611L8.22035 5.02603L8.55219 5.43843H8.55974L8.34856 4.88611Z" fill="#007FFF" stroke="#67211F" stroke-width="0.00590396"/>
<path d="M8.12452 3.89817L8.08681 3.56677L8.04156 3.61096L7.97368 3.6846L8.12452 3.89817Z" fill="#007FFF" stroke="#67211F" stroke-width="0.00590396"/>
<g filter="url(#filter0_d_1200_7193)">
<path d="M9.07701 2.65346L9.19817 2.4664C9.19817 2.4664 9.32981 3.01503 9.23791 3.36599C9.16484 3.64506 8.89542 4.00921 8.89542 4.00921C8.77211 4.32364 8.78 4.49609 8.84684 4.80111L8.60095 5.08986C8.60095 5.08986 8.52492 4.69004 8.40207 4.49396C8.22384 4.20948 7.92975 4.28684 7.7484 4.0368C7.47988 3.66657 7.6191 2.88493 7.6191 2.88493L7.83698 3.07333C7.83698 3.07333 7.96903 2.87872 8.09807 2.59942C8.14429 2.4994 8.19011 2.38852 8.22935 2.27182C8.28934 2.09343 8.35613 1.80658 8.35613 1.80658L8.48209 2.06402L8.58339 1.92713C8.58339 1.92713 8.59222 2.12446 8.6296 2.2348C8.71539 2.48805 8.81391 2.58024 9.07701 2.65346Z" fill="url(#paint1_linear_1200_7193)"/>
<path d="M9.07701 2.65346C9.12433 2.58041 9.19817 2.4664 9.19817 2.4664C9.19817 2.4664 9.32981 3.01503 9.23791 3.36599C9.16484 3.64506 8.89542 4.00921 8.89542 4.00921C8.77211 4.32364 8.78 4.49609 8.84684 4.80111L8.60095 5.08986C8.60095 5.08986 8.52492 4.69004 8.40207 4.49396C8.22384 4.20948 7.92975 4.28684 7.7484 4.0368C7.47988 3.66657 7.6191 2.88493 7.6191 2.88493L7.83698 3.07333M9.07701 2.65346C8.81391 2.58024 8.71539 2.48805 8.6296 2.2348C8.59222 2.12446 8.58339 1.92713 8.58339 1.92713L8.48209 2.06402M9.07701 2.65346C9.0698 2.67993 8.85818 3.13654 8.85818 3.13654C8.85818 3.13654 8.6927 2.82009 8.61829 2.60549M7.83698 3.07333C7.96163 3.21651 7.98039 3.31009 8.01571 3.47599L8.17748 2.88234L8.42431 3.24679L8.46742 2.45346L8.61829 2.60549M7.83698 3.07333C7.83698 3.07333 7.96903 2.87872 8.09807 2.59942C8.14429 2.4994 8.19011 2.38852 8.22935 2.27182C8.28934 2.09343 8.35613 1.80658 8.35613 1.80658L8.48209 2.06402M8.48209 2.06402C8.48209 2.06402 8.54675 2.39915 8.61829 2.60549" stroke="#F8F7FC" stroke-width="0.0365292"/>
</g>
</g>
<defs>
<filter id="filter0_d_1200_7193" x="7.56471" y="1.75232" width="1.85103" height="3.49059" filterUnits="userSpaceOnUse" color-interpolation-filters="sRGB">
<feFlood flood-opacity="0" result="BackgroundImageFix"/>
<feColorMatrix in="SourceAlpha" type="matrix" values="0 0 0 0 0 0 0 0 0 0 0 0 0 0 0 0 0 0 127 0" result="hardAlpha"/>
<feOffset dx="0.0737995" dy="0.0590396"/>
<feGaussianBlur stdDeviation="0.0265678"/>
<feComposite in2="hardAlpha" operator="out"/>
<feColorMatrix type="matrix" values="0 0 0 0 0 0 0 0 0 0 0 0 0 0 0 0 0 0 0.25 0"/>
<feBlend mode="normal" in2="BackgroundImageFix" result="effect1_dropShadow_1200_7193"/>
<feBlend mode="normal" in="SourceGraphic" in2="effect1_dropShadow_1200_7193" result="shape"/>
</filter>
<radialGradient id="paint0_radial_1200_7193" cx="0" cy="0" r="1" gradientUnits="userSpaceOnUse" gradientTransform="translate(9.9209 9.84774) scale(7.11802 7.11799)">
<stop offset="0.5" stop-color="#FDE030"/>
<stop offset="0.92" stop-color="#F7C02B"/>
<stop offset="1" stop-color="#F4A223"/>
</radialGradient>
<linearGradient id="paint1_linear_1200_7193" x1="8.759" y1="1.91272" x2="7.96598" y2="4.92256" gradientUnits="userSpaceOnUse">
<stop stop-color="#C9C9C9"/>
<stop offset="1" stop-color="#939297"/>
</linearGradient>
<clipPath id="clip0_1200_7193">
<rect width="17.996" height="17.996" fill="white" transform="translate(0.97226 0.988037)"/>
</clipPath>
</defs>
</svg>
