<svg width="19" height="18" viewBox="0 0 19 18" fill="none" xmlns="http://www.w3.org/2000/svg">
<path d="M9.9476 16.9004C6.46106 16.9004 2.69958 14.7135 2.69958 9.91488C2.69958 5.11621 6.46106 2.92932 9.9476 2.92932C11.8846 2.92932 13.6716 3.56664 14.9962 4.72882C16.4333 6.00347 17.1956 7.80297 17.1956 9.91488C17.1956 12.0268 16.4333 13.8138 14.9962 15.0884C13.6716 16.2506 11.8721 16.9004 9.9476 16.9004Z" fill="url(#paint0_radial_1200_7140)"/>
<path d="M15.935 5.76257C16.601 6.83727 16.9484 8.11692 16.9484 9.54027C16.9484 11.6522 16.1861 13.4392 14.749 14.7138C13.4244 15.876 11.6249 16.5258 9.70042 16.5258C7.44354 16.5258 5.07668 15.6073 3.67957 13.6591C5.0242 15.866 7.55351 16.9007 9.95035 16.9007C11.8748 16.9007 13.6743 16.2509 14.999 15.0887C16.4361 13.8141 17.1984 12.0271 17.1984 9.91517C17.1984 8.32311 16.7647 6.90851 15.935 5.76257Z" fill="#EB8F00"/>
<path d="M6.48974 8.5155C6.53223 8.51675 6.57347 8.5205 6.61471 8.52799C6.63595 8.52549 6.65845 8.53049 6.67719 8.54049H6.85214C6.90213 8.54299 6.95337 8.53799 7.0021 8.52799C7.05209 8.52799 7.10208 8.503 7.16456 8.503C7.21704 8.49425 7.26703 8.47676 7.31452 8.45301C7.41574 8.42302 7.50946 8.37179 7.58944 8.30306C7.62943 8.27306 7.66817 8.23932 7.70191 8.20308C7.7269 8.16559 7.76439 8.1281 7.78939 8.09062L7.86437 7.97815C7.88561 7.94316 7.90311 7.90567 7.91435 7.86568C7.92685 7.82819 7.93935 7.8032 7.95184 7.76571C7.96309 7.73321 7.98059 7.70447 8.00183 7.67823L8.05182 7.57826C8.15929 7.34457 8.43421 7.2421 8.6679 7.34957C8.6704 7.35082 8.67415 7.35207 8.67665 7.35332C8.82411 7.4258 8.92658 7.56576 8.95157 7.72822C8.95282 7.78195 8.95657 7.83694 8.96407 7.89067V8.07812C8.95657 8.16185 8.94407 8.24557 8.92658 8.32805C8.90283 8.42677 8.86909 8.523 8.8266 8.61547C8.75662 8.78667 8.65415 8.94413 8.52669 9.07784L8.4642 9.15282L8.37673 9.20281C8.27426 9.28903 8.16554 9.36776 8.05182 9.44024C7.9356 9.50022 7.81438 9.55146 7.68942 9.5902L7.60194 9.61519L7.51446 9.62769C7.45698 9.64143 7.39825 9.65018 7.33951 9.65268C7.22704 9.66518 7.11457 9.66518 7.0021 9.65268C6.90588 9.64768 6.80966 9.63519 6.71468 9.61519C6.62971 9.5977 6.54598 9.5727 6.46475 9.54021C6.43101 9.53022 6.39727 9.51772 6.36478 9.50272C6.33978 9.49023 6.32729 9.47773 6.3023 9.46523C6.26356 9.44649 6.22607 9.42524 6.18983 9.40275C5.96614 9.26029 5.8999 8.96537 6.03987 8.74043C6.13859 8.59048 6.30979 8.50425 6.48974 8.5155Z" fill="#422B0D"/>
<path d="M13.2138 11.9385C12.1703 11.6261 11.0856 11.4749 9.99713 11.4887C8.89368 11.4787 7.79523 11.6361 6.73927 11.9573C6.37312 12.5534 6.17818 13.2382 6.17318 13.938C6.16693 14.3779 6.51808 14.739 6.95796 14.7452C7.08418 14.7465 7.21039 14.719 7.32286 14.6628C8.16138 14.2704 9.07239 14.0579 9.99713 14.0379C10.9231 14.0554 11.8341 14.2691 12.6714 14.6628C13.065 14.8577 13.5424 14.6978 13.7386 14.3029C13.7948 14.1892 13.8236 14.0642 13.8211 13.938C13.8136 13.2269 13.6024 12.5334 13.2138 11.9385Z" fill="#422B0D"/>
<path d="M13.2169 11.9384C12.4621 10.7512 11.1363 10.4513 10.0003 10.4513C8.76566 10.4513 7.46351 10.76 6.74246 11.9509C7.79842 11.6322 8.89687 11.476 10.0003 11.4885C11.0888 11.4748 12.1735 11.626 13.2169 11.9384Z" fill="white"/>
<path d="M9.99206 10.2668C10.4319 10.2706 10.8706 10.3256 11.2992 10.4293C11.7341 10.533 12.1452 10.7167 12.5126 10.9716C12.875 11.2353 13.1737 11.5777 13.3874 11.9714C13.6011 12.355 13.7523 12.7712 13.8323 13.2023C13.8722 13.4172 13.8935 13.6347 13.8935 13.8534C13.8985 13.9683 13.886 14.082 13.856 14.1933C13.8223 14.3057 13.766 14.4094 13.6923 14.4994C13.5423 14.6769 13.3261 14.7868 13.0937 14.8031C12.98 14.8093 12.865 14.7943 12.7563 14.7593C12.6476 14.7194 12.5576 14.6706 12.4589 14.6344C11.6841 14.277 10.8456 14.0745 9.99206 14.0408C10.8493 14.042 11.6991 14.212 12.4914 14.5407C12.5913 14.5794 12.6913 14.6281 12.7838 14.6581C12.88 14.6844 12.98 14.6931 13.0787 14.6844C13.2762 14.6644 13.4561 14.5657 13.5786 14.4094C13.6373 14.3332 13.6798 14.2445 13.7035 14.1508C13.726 14.0545 13.7335 13.9546 13.7248 13.8558C13.716 13.6459 13.6885 13.436 13.6436 13.231C13.5523 12.8249 13.3961 12.4362 13.1787 12.0813C12.97 11.7289 12.6851 11.4278 12.3452 11.1991C12.0015 10.9791 11.6204 10.8242 11.2205 10.7442C10.8143 10.663 10.4007 10.6267 9.98706 10.638L9.99206 10.2668Z" fill="#EB8F00"/>
<path d="M10.0223 10.6417C9.60867 10.6305 9.19503 10.6667 8.79015 10.748C8.39025 10.8279 8.00911 10.9829 7.66545 11.2028C7.32555 11.4315 7.04062 11.7327 6.83193 12.0851C6.61574 12.44 6.45828 12.8286 6.36706 13.2348C6.32207 13.4397 6.29458 13.6497 6.28583 13.8596C6.27708 13.9583 6.28458 14.0583 6.30707 14.1545C6.33207 14.2482 6.37456 14.3357 6.43204 14.4132C6.55451 14.5694 6.73446 14.6681 6.9319 14.6881C7.03063 14.6969 7.1306 14.6881 7.22682 14.6619C7.32055 14.6319 7.42052 14.5831 7.51924 14.5444C8.31153 14.2157 9.16129 14.0458 10.0186 14.0445C9.16629 14.0758 8.32777 14.2745 7.55173 14.6294C7.45426 14.6719 7.36304 14.7206 7.25432 14.7544C7.1456 14.7893 7.03063 14.8043 6.91691 14.7981C6.68322 14.7818 6.46703 14.6719 6.31707 14.4932C6.24209 14.4032 6.18586 14.2995 6.15212 14.187C6.12213 14.0758 6.10963 13.9621 6.11463 13.8471C6.11588 13.6284 6.13712 13.411 6.17586 13.196C6.25834 12.7649 6.40955 12.35 6.62449 11.9676C6.83818 11.574 7.13685 11.2316 7.49925 10.9679C7.8679 10.7142 8.28028 10.5318 8.71517 10.4293C9.1438 10.3256 9.58243 10.2706 10.0223 10.2668V10.6417Z" fill="#EB8F00"/>
<path d="M13.5054 8.51733C13.4629 8.51858 13.4217 8.52233 13.3805 8.52982C13.3592 8.52733 13.3367 8.53232 13.318 8.54232H13.143C13.093 8.54482 13.0418 8.53982 12.9931 8.52982C12.9431 8.52982 12.8931 8.50483 12.8306 8.50483C12.7781 8.49608 12.7281 8.47859 12.6807 8.45485C12.5794 8.42485 12.4857 8.37362 12.4057 8.30489C12.3657 8.2749 12.327 8.24116 12.2933 8.20492C12.2683 8.16743 12.2308 8.12994 12.2058 8.09245L12.1308 7.97998C12.1096 7.94499 12.0921 7.9075 12.0808 7.86751C12.0683 7.83002 12.0558 7.80503 12.0433 7.76754C12.0333 7.7363 12.0183 7.7063 11.9983 7.68006L11.9484 7.58009C11.8409 7.3464 11.566 7.24393 11.3323 7.3514C11.3298 7.35265 11.326 7.3539 11.3235 7.35515C11.1761 7.42763 11.0736 7.56759 11.0486 7.73005C11.0473 7.78378 11.0436 7.83877 11.0361 7.8925V8.07995C11.0436 8.16368 11.0561 8.2474 11.0736 8.32988C11.0973 8.4286 11.1311 8.52483 11.1736 8.6173C11.2435 8.7885 11.346 8.94596 11.4735 9.07967L11.536 9.15465L11.6234 9.20464C11.7259 9.29086 11.8346 9.36959 11.9484 9.44207C12.0646 9.50205 12.1858 9.55329 12.3108 9.59203L12.3982 9.61702L12.4857 9.62952C12.5432 9.64327 12.6019 9.65201 12.6607 9.65451C12.7731 9.66701 12.8856 9.66701 12.9981 9.65451C13.0943 9.64951 13.1905 9.63702 13.2855 9.61702C13.3705 9.59953 13.4542 9.57453 13.5354 9.54204C13.5692 9.53205 13.6029 9.51955 13.6354 9.50455C13.6604 9.49206 13.6729 9.47956 13.6979 9.46706C13.7366 9.44832 13.7741 9.42708 13.8103 9.40458C14.034 9.26212 14.1003 8.9672 13.9603 8.74227C13.8603 8.58981 13.6866 8.50358 13.5054 8.51733Z" fill="#422B0D"/>
<path d="M6.14498 1.37465H6.63788C6.63788 1.37465 8.66249 1.09906 10.0316 1.11123C11.3367 1.12283 13.2557 1.37465 13.2557 1.37465H14.0314C14.8211 2.67919 15.3886 4.01884 15.6488 5.39498C13.0976 4.66889 10.0316 6.20356 10.0316 6.20356C10.0316 6.20356 6.91955 4.69568 4.43906 5.23763C4.8361 3.82892 5.32544 2.55055 6.14498 1.37465Z" fill="#7F2125"/>
<path d="M6.14498 1.37465H6.63788C6.63788 1.37465 8.66249 1.09906 10.0316 1.11123C11.3367 1.12283 13.2557 1.37465 13.2557 1.37465H14.0314M6.14498 1.37465C5.32544 2.55055 4.8361 3.82892 4.43906 5.23763C6.91955 4.69568 10.0316 6.20356 10.0316 6.20356C10.0316 6.20356 13.0976 4.66889 15.6488 5.39498C15.3886 4.01884 14.8211 2.67919 14.0314 1.37465M6.14498 1.37465C6.78611 2.07127 7.69952 1.63367 10.0316 2.16975C12.1431 1.64987 13.1597 2.10577 14.0314 1.37465" stroke="#67211F" stroke-width="0.0582032"/>
<path d="M10.0461 6.18078L10.0535 2.17321C11.641 1.68513 12.8463 2.06618 14.0372 1.39832C14.556 2.19629 15.414 3.69045 15.6547 5.38349C13.593 4.85239 11.4131 5.55349 10.0461 6.18078Z" fill="#67211F" stroke="#67211F" stroke-width="0.0365292"/>
<path d="M7.32359 1.82624C6.96315 1.58468 6.62498 1.71558 6.6398 1.36865L6.17554 1.38341C6.53741 1.77203 7.07242 1.77101 7.32359 1.82624Z" fill="#67211F"/>
<path d="M12.6911 1.78195C13.0515 1.54283 13.34 1.69731 13.3252 1.35388H14.0366C13.6747 1.73857 12.9423 1.72728 12.6911 1.78195Z" fill="#67211F" fill-opacity="0.56"/>
<path d="M10.1013 1.41307L10.0203 2.12541L10.169 2.11515L10.1013 1.41307Z" fill="#67211F" stroke="#67211F" stroke-width="0.0885594"/>
<path d="M8.1556 1.90737C7.89354 1.89272 7.73575 1.87806 7.51911 1.8634C7.38433 3.41319 7.3326 3.79695 7.61341 5.33198C7.99425 5.43174 8.28224 5.52585 8.611 5.62718C7.84008 4.22425 8.05431 3.32298 8.1556 1.90737Z" fill="#D60000" stroke="#67211F" stroke-width="0.0365292"/>
<path d="M7.72937 1.88584L7.53942 1.87097L7.50143 2.15355L7.72937 1.88584Z" fill="#398F00" stroke="#67211F" stroke-width="0.00737995"/>
<path d="M7.41879 2.92689L8.13017 2.10609L8.13765 1.92287L7.72581 1.88623L7.50116 2.15006L7.41879 2.92689Z" fill="#FF7F00" stroke="#67211F" stroke-width="0.00737995"/>
<path d="M7.88216 2.38398C7.88216 2.38398 7.65502 2.12992 7.57515 2.06152L7.50027 2.14947L7.42538 2.91897C7.53521 2.7895 7.88216 2.38398 7.88216 2.38398Z" fill="#D60000" stroke="#67211F" stroke-width="0.00737995"/>
<path d="M8.09971 2.99173C8.10048 2.67547 8.10793 2.47935 8.12966 2.10498L7.42578 2.91845C7.40071 3.24117 7.39473 3.41919 7.38834 3.73191L8.09971 2.99173Z" fill="#007FFF" stroke="#67211F" stroke-width="0.00590396"/>
<path d="M7.92748 3.16798L7.57554 2.74292L7.42578 2.91881C7.40624 3.23723 7.39687 3.41392 7.38834 3.73228L7.92748 3.16798Z" fill="#398F00" stroke="#67211F" stroke-width="0.00590396"/>
<path d="M7.95744 3.90821L7.61298 3.4978L7.38834 3.73232C7.39582 4.06211 7.41829 4.20868 7.44078 4.47984L7.95744 3.90821Z" fill="#D60000" stroke="#67211F" stroke-width="0.00590396"/>
<path d="M7.92673 4.74366L7.58228 4.32593L7.44 4.47983C7.49991 4.81695 7.51488 4.90489 7.57479 5.15406L7.92673 4.74366Z" fill="#007FFF" stroke="#67211F" stroke-width="0.00590396"/>
<path d="M8.02242 5.44207L7.68381 5.02966L7.57846 5.15486L7.62602 5.31897L8.02242 5.44207Z" fill="#FF7F00" stroke="#67211F" stroke-width="0.00590396"/>
<path d="M8.13773 3.71015C8.11108 3.46378 8.10102 3.31181 8.10029 2.99194L7.61356 3.49762C7.8382 3.76145 7.79327 3.70282 7.95801 3.90802L8.13773 3.71015Z" fill="#FF7F00" stroke="#67211F" stroke-width="0.00590396"/>
<path d="M8.2283 4.39188C8.19835 4.1647 8.16091 4.04744 8.13844 3.71765L7.58432 4.32593C7.80353 4.60577 7.75994 4.54292 7.92877 4.73626L8.2283 4.39188Z" fill="#398F00" stroke="#67211F" stroke-width="0.00590396"/>
<path d="M8.3987 5.04422C8.33131 4.80237 8.29387 4.69977 8.22647 4.39197L7.67984 5.02956C7.85207 5.24942 7.85207 5.24942 8.02429 5.44729L8.3987 5.04422Z" fill="#D60000" stroke="#67211F" stroke-width="0.00590396"/>
<path d="M8.61572 5.61463C8.44265 5.40107 8.45352 5.41164 8.27293 5.18335L8.01425 5.43665C8.33168 5.52008 8.32612 5.51823 8.32612 5.51823L8.61572 5.61463Z" fill="#398F00" stroke="#67211F" stroke-width="0.00590396"/>
<path d="M8.39956 5.04407L8.27164 5.18399L8.60272 5.59639H8.61025L8.39956 5.04407Z" fill="#007FFF" stroke="#67211F" stroke-width="0.00590396"/>
<path d="M8.17646 4.05637L8.13884 3.72498L8.09369 3.76916L8.02597 3.84281L8.17646 4.05637Z" fill="#007FFF" stroke="#67211F" stroke-width="0.00590396"/>
<g filter="url(#filter0_d_1200_7140)">
<path d="M9.12754 2.81166L9.24842 2.6246C9.24842 2.6246 9.37976 3.17323 9.28807 3.52419C9.21516 3.80326 8.94636 4.16742 8.94636 4.16742C8.82333 4.48184 8.8312 4.65429 8.89789 4.95931L8.65256 5.24807C8.65256 5.24807 8.5767 4.84825 8.45414 4.65217C8.27631 4.36768 7.9829 4.44505 7.80196 4.195C7.53405 3.82477 7.67296 3.04313 7.67296 3.04313L7.89034 3.23154C7.89034 3.23154 8.02208 3.03692 8.15083 2.75762C8.19694 2.6576 8.24266 2.54672 8.28182 2.43002C8.34166 2.25164 8.4083 1.96478 8.4083 1.96478L8.53397 2.22223L8.63504 2.08534C8.63504 2.08534 8.64385 2.28266 8.68115 2.39301C8.76674 2.64625 8.86504 2.73844 9.12754 2.81166Z" fill="url(#paint1_linear_1200_7140)"/>
<path d="M9.12754 2.81166C9.17474 2.73861 9.24842 2.6246 9.24842 2.6246C9.24842 2.6246 9.37976 3.17323 9.28807 3.52419C9.21516 3.80326 8.94636 4.16742 8.94636 4.16742C8.82333 4.48184 8.8312 4.65429 8.89789 4.95931L8.65256 5.24807C8.65256 5.24807 8.5767 4.84825 8.45414 4.65217C8.27631 4.36768 7.9829 4.44505 7.80196 4.195C7.53405 3.82477 7.67296 3.04313 7.67296 3.04313L7.89034 3.23154M9.12754 2.81166C8.86504 2.73844 8.76674 2.64625 8.68115 2.39301C8.64385 2.28266 8.63504 2.08534 8.63504 2.08534L8.53397 2.22223M9.12754 2.81166C9.12034 2.83813 8.90921 3.29474 8.90921 3.29474C8.90921 3.29474 8.7441 2.97829 8.66987 2.76369M7.89034 3.23154C8.0147 3.37472 8.03342 3.46829 8.06866 3.63419L8.23006 3.04054L8.47632 3.405L8.51934 2.61166L8.66987 2.76369M7.89034 3.23154C7.89034 3.23154 8.02208 3.03692 8.15083 2.75762C8.19694 2.6576 8.24266 2.54672 8.28182 2.43002C8.34166 2.25164 8.4083 1.96478 8.4083 1.96478L8.53397 2.22223M8.53397 2.22223C8.53397 2.22223 8.59848 2.55736 8.66987 2.76369" stroke="#F8F7FC" stroke-width="0.0365292"/>
</g>
<path d="M6.58921 6.36547C6.33053 6.47294 6.40426 6.86534 6.70043 6.8141C7.349 6.68039 7.92134 6.30424 8.29874 5.76064C8.44495 5.56445 8.55742 5.34576 8.63115 5.11332C8.67988 4.9971 8.6249 4.86214 8.50743 4.81341C8.38996 4.76467 8.25625 4.81965 8.20751 4.93712L8.19752 4.95212C7.83761 5.59194 7.27027 6.0893 6.58921 6.36547Z" fill="#422B0D"/>
<path d="M13.404 6.36521C13.6627 6.47268 13.589 6.86508 13.2928 6.81384C12.6442 6.68013 12.0719 6.30398 11.6945 5.76038C11.5483 5.56544 11.4358 5.3455 11.3633 5.11306C11.3221 4.99434 11.3846 4.86313 11.5045 4.82189C11.6133 4.7844 11.7332 4.83314 11.7845 4.93686L11.7945 4.95186C12.1556 5.59168 12.723 6.08904 13.404 6.36521Z" fill="#422B0D"/>
<defs>
<filter id="filter0_d_1200_7140" x="7.61865" y="1.9104" width="1.84718" height="3.49072" filterUnits="userSpaceOnUse" color-interpolation-filters="sRGB">
<feFlood flood-opacity="0" result="BackgroundImageFix"/>
<feColorMatrix in="SourceAlpha" type="matrix" values="0 0 0 0 0 0 0 0 0 0 0 0 0 0 0 0 0 0 127 0" result="hardAlpha"/>
<feOffset dx="0.0737995" dy="0.0590396"/>
<feGaussianBlur stdDeviation="0.0265678"/>
<feComposite in2="hardAlpha" operator="out"/>
<feColorMatrix type="matrix" values="0 0 0 0 0 0 0 0 0 0 0 0 0 0 0 0 0 0 0.25 0"/>
<feBlend mode="normal" in2="BackgroundImageFix" result="effect1_dropShadow_1200_7140"/>
<feBlend mode="normal" in="SourceGraphic" in2="effect1_dropShadow_1200_7140" result="shape"/>
</filter>
<radialGradient id="paint0_radial_1200_7140" cx="0" cy="0" r="1" gradientUnits="userSpaceOnUse" gradientTransform="translate(9.9476 9.91488) scale(7.11802 7.11799)">
<stop offset="0.5" stop-color="#FDE030"/>
<stop offset="0.92" stop-color="#F7C02B"/>
<stop offset="1" stop-color="#F4A223"/>
</radialGradient>
<linearGradient id="paint1_linear_1200_7140" x1="8.81025" y1="2.07092" x2="8.01565" y2="5.07987" gradientUnits="userSpaceOnUse">
<stop stop-color="#C9C9C9"/>
<stop offset="1" stop-color="#939297"/>
</linearGradient>
</defs>
</svg>
