<svg width="19" height="19" viewBox="0 0 19 19" fill="none" xmlns="http://www.w3.org/2000/svg">
<g clip-path="url(#clip0_1200_6434)">
<path d="M9.91312 16.8333C6.42657 16.8333 2.6651 14.6464 2.6651 9.84774C2.6651 5.04908 6.42657 2.86218 9.91312 2.86218C11.8501 2.86218 13.6371 3.49951 14.9617 4.66168C16.3988 5.93633 17.1611 7.73583 17.1611 9.84774C17.1611 11.9597 16.3988 13.7467 14.9617 15.0213C13.6371 16.1835 11.8376 16.8333 9.91312 16.8333Z" fill="url(#paint0_radial_1200_6434)"/>
<path d="M15.8983 5.69531C16.5644 6.77001 16.9118 8.04966 16.9118 9.47301C16.9118 11.5849 16.1495 13.3719 14.7124 14.6466C13.3878 15.8088 11.5883 16.4586 9.66378 16.4586C7.4069 16.4586 5.04005 15.5401 3.64293 13.5919C4.98756 15.7988 7.51687 16.8335 9.91371 16.8335C11.8382 16.8335 13.6377 16.1837 14.9623 15.0215C16.3994 13.7468 17.1617 11.9598 17.1617 9.84791C17.1617 8.25585 16.7281 6.84124 15.8983 5.69531Z" fill="#EB8F00"/>
<path d="M11.6645 13.5335C11.6645 14.417 10.9484 15.1331 10.0649 15.1331C9.18139 15.1331 8.46533 14.417 8.46533 13.5335C8.46533 12.65 9.18139 11.934 10.0649 11.934C10.9459 11.9315 11.662 12.6425 11.6645 13.5235C11.6645 13.5273 11.6645 13.5298 11.6645 13.5335Z" fill="#422B0D"/>
<path d="M7.29727 7.85242C6.77367 7.85242 6.29755 8.29479 6.29755 9.02959C6.29755 9.76439 6.77367 10.2055 7.29727 10.2055C7.82088 10.2055 8.297 9.76314 8.297 9.02959C8.297 8.29604 7.82088 7.85242 7.29727 7.85242Z" fill="#422B0D"/>
<path d="M7.24985 8.34227C7.0724 8.2573 6.85871 8.33227 6.77248 8.50973C6.70625 8.64844 6.73624 8.81464 6.84746 8.92211C7.02492 9.00709 7.23861 8.93211 7.32483 8.75466C7.39106 8.61595 7.36107 8.44974 7.24985 8.34227Z" fill="#896024"/>
<path d="M12.7132 7.85242C12.1896 7.85242 11.7134 8.29479 11.7134 9.02959C11.7134 9.76439 12.1896 10.2055 12.7132 10.2055C13.2368 10.2055 13.7129 9.76314 13.7129 9.02959C13.7129 8.29604 13.2393 7.85242 12.7132 7.85242Z" fill="#422B0D"/>
<path d="M12.6666 8.34166C12.4892 8.25668 12.2755 8.33166 12.1893 8.50911C12.123 8.64783 12.153 8.81403 12.2642 8.9215C12.4417 9.00648 12.6554 8.9315 12.7416 8.75405C12.8078 8.61534 12.7779 8.44913 12.6666 8.34166Z" fill="#896024"/>
<path d="M5.55133 6.73473C5.46385 6.82595 5.31764 6.8297 5.22642 6.74097C5.14394 6.66225 5.13269 6.53353 5.19892 6.44106C5.34014 6.23736 5.51384 6.05991 5.71378 5.9137C6.23739 5.51007 6.89346 5.31887 7.55203 5.37885C7.8632 5.41759 7.80196 5.81498 7.52579 5.84122C6.78349 5.89996 6.08493 6.21612 5.55133 6.73473Z" fill="#422B0D"/>
<path d="M14.4316 6.76181C14.5191 6.85303 14.6653 6.85678 14.7565 6.76806C14.839 6.68933 14.8503 6.56062 14.784 6.46814C14.6453 6.26695 14.4729 6.09075 14.2754 5.94704C13.7518 5.5434 13.0957 5.3522 12.4372 5.41343C12.1273 5.45217 12.1872 5.84831 12.4634 5.87456C13.2032 5.93329 13.898 6.24695 14.4316 6.76181Z" fill="#422B0D"/>
<path d="M6.05639 1.28273H6.55042C6.55042 1.28273 8.57966 1.00714 9.95193 1.01931C11.26 1.03091 13.1834 1.28273 13.1834 1.28273H13.9609C14.7524 2.58727 15.3212 3.92692 15.582 5.30306C13.025 4.57698 9.95193 6.11164 9.95193 6.11164C9.95193 6.11164 6.83273 4.60376 4.34656 5.14571C4.74451 3.737 5.23497 2.45863 6.05639 1.28273Z" fill="#7F2125"/>
<path d="M6.05639 1.28273H6.55042C6.55042 1.28273 8.57966 1.00714 9.95193 1.01931C11.26 1.03091 13.1834 1.28273 13.1834 1.28273H13.9609M6.05639 1.28273C5.23497 2.45863 4.74451 3.737 4.34656 5.14571C6.83273 4.60376 9.95193 6.11164 9.95193 6.11164C9.95193 6.11164 13.025 4.57698 15.582 5.30306C15.3212 3.92692 14.7524 2.58727 13.9609 1.28273M6.05639 1.28273C6.69899 1.97935 7.61448 1.54175 9.95193 2.07783C12.0683 1.55795 13.0872 2.01385 13.9609 1.28273" stroke="#67211F" stroke-width="0.0582032"/>
<path d="M9.96909 6.08886L9.97659 2.08129C11.5677 1.59321 12.7757 1.97426 13.9694 1.3064C14.4893 2.10437 15.3493 3.59853 15.5905 5.29157C13.5242 4.76047 11.3393 5.46157 9.96909 6.08886Z" fill="#67211F" stroke="#67211F" stroke-width="0.0365292"/>
<path d="M7.23702 1.73444C6.87575 1.49289 6.5368 1.62379 6.55166 1.27686L6.08633 1.29162C6.44903 1.68023 6.98527 1.67921 7.23702 1.73444Z" fill="#67211F"/>
<path d="M12.6164 1.69015C12.9777 1.45104 13.2668 1.60551 13.252 1.26208H13.965C13.6023 1.64677 12.8681 1.63548 12.6164 1.69015Z" fill="#67211F" fill-opacity="0.56"/>
<path d="M10.022 1.3209L9.94087 2.03325L10.0899 2.02299L10.022 1.3209Z" fill="#67211F" stroke="#67211F" stroke-width="0.0885594"/>
<path d="M8.07325 1.8157C7.81058 1.80104 7.65244 1.78639 7.4353 1.77173C7.30022 3.32152 7.24837 3.70528 7.52981 5.2403C7.91153 5.34006 8.20018 5.43418 8.52969 5.5355C7.757 4.13257 7.97173 3.23131 8.07325 1.8157Z" fill="#D60000" stroke="#67211F" stroke-width="0.0365292"/>
<path d="M7.64605 1.79393L7.45566 1.77905L7.41759 2.06163L7.64605 1.79393Z" fill="#398F00" stroke="#67211F" stroke-width="0.00737995"/>
<path d="M7.33472 2.83437L8.04772 2.01356L8.05522 1.83034L7.64243 1.7937L7.41728 2.05753L7.33472 2.83437Z" fill="#FF7F00" stroke="#67211F" stroke-width="0.00737995"/>
<path d="M7.7984 2.29206C7.7984 2.29206 7.57074 2.038 7.49068 1.9696L7.41563 2.05755L7.34058 2.82705C7.45065 2.69758 7.7984 2.29206 7.7984 2.29206Z" fill="#D60000" stroke="#67211F" stroke-width="0.00737995"/>
<path d="M8.01751 2.9003C8.01828 2.58404 8.02574 2.38792 8.04753 2.01355L7.34203 2.82702C7.3169 3.14974 7.31092 3.32776 7.3045 3.64048L8.01751 2.9003Z" fill="#007FFF" stroke="#67211F" stroke-width="0.00590396"/>
<path d="M7.84489 3.07631L7.49214 2.65125L7.34203 2.82713C7.32245 3.14556 7.31306 3.32225 7.3045 3.64061L7.84489 3.07631Z" fill="#398F00" stroke="#67211F" stroke-width="0.00590396"/>
<path d="M7.87491 3.81629L7.52966 3.40588L7.3045 3.6404C7.31201 3.97019 7.33453 4.11676 7.35707 4.38792L7.87491 3.81629Z" fill="#D60000" stroke="#67211F" stroke-width="0.00590396"/>
<path d="M7.84597 4.65174L7.50072 4.23401L7.35812 4.38791C7.41817 4.72503 7.43318 4.81297 7.49322 5.06214L7.84597 4.65174Z" fill="#007FFF" stroke="#67211F" stroke-width="0.00590396"/>
<path d="M7.93569 5.3499L7.59631 4.9375L7.49072 5.06269L7.53839 5.22681L7.93569 5.3499Z" fill="#FF7F00" stroke="#67211F" stroke-width="0.00590396"/>
<path d="M8.05314 3.61835C8.02643 3.37199 8.01636 3.22001 8.01561 2.90015L7.52777 3.40582C7.75293 3.66965 7.7079 3.61102 7.87301 3.81622L8.05314 3.61835Z" fill="#FF7F00" stroke="#67211F" stroke-width="0.00590396"/>
<path d="M8.14397 4.29997C8.11395 4.07278 8.07643 3.95552 8.05391 3.62573L7.49852 4.23401C7.71823 4.51385 7.67455 4.451 7.84376 4.64434L8.14397 4.29997Z" fill="#398F00" stroke="#67211F" stroke-width="0.00590396"/>
<path d="M8.31847 4.95242C8.25092 4.71057 8.2134 4.60797 8.14585 4.30017L7.59796 4.93776C7.77058 5.15762 7.77058 5.15762 7.9432 5.35549L8.31847 4.95242Z" fill="#D60000" stroke="#67211F" stroke-width="0.00590396"/>
<path d="M8.53229 5.52284C8.35882 5.30927 8.36972 5.31985 8.18871 5.09155L7.92944 5.34485C8.2476 5.42828 8.24203 5.42643 8.24203 5.42643L8.53229 5.52284Z" fill="#398F00" stroke="#67211F" stroke-width="0.00590396"/>
<path d="M8.31895 4.95239L8.19073 5.09232L8.52258 5.50472H8.53012L8.31895 4.95239Z" fill="#007FFF" stroke="#67211F" stroke-width="0.00590396"/>
<path d="M8.09394 3.9647L8.05623 3.6333L8.01098 3.67749L7.9431 3.75113L8.09394 3.9647Z" fill="#007FFF" stroke="#67211F" stroke-width="0.00590396"/>
<g filter="url(#filter0_d_1200_6434)">
<path d="M9.0468 2.71962L9.16796 2.53256C9.16796 2.53256 9.2996 3.08119 9.2077 3.43215C9.13462 3.71122 8.86521 4.07538 8.86521 4.07538C8.7419 4.3898 8.74979 4.56225 8.81663 4.86727L8.57073 5.15602C8.57073 5.15602 8.49471 4.75621 8.37186 4.56013C8.19362 4.27564 7.89954 4.35301 7.71819 4.10296C7.44966 3.73273 7.58889 2.95109 7.58889 2.95109L7.80677 3.1395C7.80677 3.1395 7.93882 2.94488 8.06786 2.66558C8.11407 2.56556 8.1599 2.45468 8.19914 2.33798C8.25913 2.1596 8.32592 1.87274 8.32592 1.87274L8.45188 2.13018L8.55317 1.9933C8.55317 1.9933 8.56201 2.19062 8.59939 2.30097C8.68518 2.55421 8.7837 2.6464 9.0468 2.71962Z" fill="url(#paint1_linear_1200_6434)"/>
<path d="M9.0468 2.71962C9.09412 2.64657 9.16796 2.53256 9.16796 2.53256C9.16796 2.53256 9.2996 3.08119 9.2077 3.43215C9.13462 3.71122 8.86521 4.07538 8.86521 4.07538C8.7419 4.3898 8.74979 4.56225 8.81663 4.86727L8.57073 5.15602C8.57073 5.15602 8.49471 4.75621 8.37186 4.56013C8.19362 4.27564 7.89954 4.35301 7.71819 4.10296C7.44966 3.73273 7.58889 2.95109 7.58889 2.95109L7.80677 3.1395M9.0468 2.71962C8.7837 2.6464 8.68518 2.55421 8.59939 2.30097C8.56201 2.19062 8.55317 1.9933 8.55317 1.9933L8.45188 2.13018M9.0468 2.71962C9.03959 2.74609 8.82797 3.2027 8.82797 3.2027C8.82797 3.2027 8.66249 2.88625 8.58808 2.67165M7.80677 3.1395C7.93142 3.28268 7.95018 3.37625 7.9855 3.54215L8.14727 2.9485L8.3941 3.31295L8.43721 2.51962L8.58808 2.67165M7.80677 3.1395C7.80677 3.1395 7.93882 2.94488 8.06786 2.66558C8.11407 2.56556 8.1599 2.45468 8.19914 2.33798C8.25913 2.1596 8.32592 1.87274 8.32592 1.87274L8.45188 2.13018M8.45188 2.13018C8.45188 2.13018 8.51654 2.46531 8.58808 2.67165" stroke="#F8F7FC" stroke-width="0.0365292"/>
</g>
</g>
<defs>
<filter id="filter0_d_1200_6434" x="7.5345" y="1.81848" width="1.85103" height="3.49059" filterUnits="userSpaceOnUse" color-interpolation-filters="sRGB">
<feFlood flood-opacity="0" result="BackgroundImageFix"/>
<feColorMatrix in="SourceAlpha" type="matrix" values="0 0 0 0 0 0 0 0 0 0 0 0 0 0 0 0 0 0 127 0" result="hardAlpha"/>
<feOffset dx="0.0737995" dy="0.0590396"/>
<feGaussianBlur stdDeviation="0.0265678"/>
<feComposite in2="hardAlpha" operator="out"/>
<feColorMatrix type="matrix" values="0 0 0 0 0 0 0 0 0 0 0 0 0 0 0 0 0 0 0.25 0"/>
<feBlend mode="normal" in2="BackgroundImageFix" result="effect1_dropShadow_1200_6434"/>
<feBlend mode="normal" in="SourceGraphic" in2="effect1_dropShadow_1200_6434" result="shape"/>
</filter>
<radialGradient id="paint0_radial_1200_6434" cx="0" cy="0" r="1" gradientUnits="userSpaceOnUse" gradientTransform="translate(9.91312 9.84774) scale(7.11802 7.11799)">
<stop offset="0.5" stop-color="#FDE030"/>
<stop offset="0.92" stop-color="#F7C02B"/>
<stop offset="1" stop-color="#F4A223"/>
</radialGradient>
<linearGradient id="paint1_linear_1200_6434" x1="8.72879" y1="1.97888" x2="7.93577" y2="4.98873" gradientUnits="userSpaceOnUse">
<stop stop-color="#C9C9C9"/>
<stop offset="1" stop-color="#939297"/>
</linearGradient>
<clipPath id="clip0_1200_6434">
<rect width="17.996" height="17.996" fill="white" transform="translate(0.964325 0.988037)"/>
</clipPath>
</defs>
</svg>
