<svg width="18" height="18" viewBox="0 0 18 18" fill="none" xmlns="http://www.w3.org/2000/svg">
<path d="M8.78939 15.9635C5.52346 15.9635 2 13.915 2 9.42C2 4.92498 5.52346 2.87646 8.78939 2.87646C10.6038 2.87646 12.2777 3.47346 13.5185 4.5621C14.8647 5.75609 15.5788 7.44172 15.5788 9.42C15.5788 11.3983 14.8647 13.0722 13.5185 14.2662C12.2777 15.3548 10.5921 15.9635 8.78939 15.9635Z" fill="url(#paint0_radial_1193_1350)"/>
<path d="M14.394 5.53076C15.0179 6.53746 15.3433 7.73613 15.3433 9.06942C15.3433 11.0477 14.6293 12.7216 13.2831 13.9156C12.0423 15.0043 10.3566 15.613 8.55394 15.613C6.43986 15.613 4.22278 14.7526 2.91406 12.9277C4.17361 14.9949 6.54287 15.9641 8.78805 15.9641C10.5908 15.9641 12.2764 15.3554 13.5172 14.2668C14.8634 13.0728 15.5774 11.3989 15.5774 9.4206C15.5774 7.92928 15.1712 6.60418 14.394 5.53076Z" fill="#D84213"/>
<path d="M11.1718 14.1325C11.132 14.1173 11.0957 14.0927 11.0676 14.0599C9.92864 12.8764 8.04517 12.8402 6.86171 13.9791C6.83479 14.0061 6.80669 14.033 6.78094 14.0599C6.75285 14.0927 6.71656 14.1173 6.67676 14.1325C6.58897 14.1653 6.48947 14.1465 6.41923 14.0845C6.35017 14.0236 6.32675 13.9265 6.36187 13.841C6.71071 12.9455 7.74784 12.2432 8.92428 12.2432C10.1007 12.2432 11.1379 12.9455 11.4867 13.8398C11.5218 13.9253 11.4984 14.0224 11.4293 14.0833C11.3591 14.1454 11.2596 14.1641 11.1718 14.1325Z" fill="#422B0D"/>
<path d="M8.15295 10.1131C7.89074 9.78298 6.81029 9.14853 6.42049 8.96358C6.27534 8.89686 6.12433 8.84301 5.96981 8.80321C5.94172 8.79502 5.91128 8.7915 5.88202 8.7915C5.72633 8.79502 5.59289 8.90622 5.56128 9.05957C5.52499 9.21877 5.60693 9.38265 5.75677 9.4482C5.94055 9.53833 6.26129 9.70924 6.59373 9.8977C6.31631 10.0628 6.14657 10.3624 6.14657 10.6855V10.8564C6.14657 11.341 6.53989 11.7343 7.02451 11.7343C7.50913 11.7343 7.90245 11.341 7.90245 10.8564V10.6855C7.90245 10.6785 7.90245 10.6726 7.90245 10.6656C8.0277 10.6574 8.14008 10.5825 8.19509 10.4701C8.25245 10.3531 8.23606 10.2138 8.15295 10.1131Z" fill="#422B0D"/>
<path d="M12.2929 9.05918C12.2601 8.90466 12.1243 8.79463 11.9663 8.79346C11.937 8.79346 11.9066 8.79697 11.8785 8.80516C11.724 8.84379 11.573 8.89764 11.4278 8.96319C11.038 9.1458 9.95757 9.7826 9.69536 10.1104C9.61225 10.2122 9.5982 10.3527 9.65673 10.4697C9.71292 10.5833 9.82412 10.657 9.95054 10.6652C9.95054 10.6722 9.95054 10.6781 9.95054 10.6851V10.856C9.95054 11.3406 10.3439 11.734 10.8285 11.734C11.3131 11.734 11.7064 11.3406 11.7064 10.856V10.6851C11.7064 10.3632 11.5367 10.0647 11.2604 9.89965C11.5929 9.71119 11.9136 9.54029 12.0974 9.45015C12.2484 9.3846 12.3315 9.21955 12.2929 9.05918Z" fill="#422B0D"/>
<path d="M6.97588 10.0704C6.80966 9.9908 6.60949 10.061 6.52872 10.2273C6.46668 10.3572 6.49477 10.5129 6.59895 10.6136C6.76518 10.6932 6.96535 10.6229 7.04612 10.4567C7.10816 10.3268 7.08006 10.1711 6.97588 10.0704Z" fill="#896024"/>
<path d="M10.7845 10.0704C10.6183 9.9908 10.4181 10.061 10.3373 10.2273C10.2753 10.3572 10.3034 10.5129 10.4075 10.6136C10.5738 10.6932 10.7739 10.6229 10.8547 10.4567C10.9168 10.3268 10.8887 10.1711 10.7845 10.0704Z" fill="#896024"/>
<path d="M4.45687 2.29898H5.0093C5.0093 2.29898 7.27842 1.98665 8.8129 2.00044C10.2756 2.01359 12.4263 2.29898 12.4263 2.29898H13.2957C14.1808 3.77739 14.8168 5.2956 15.1085 6.85516C12.2492 6.0323 8.8129 7.77152 8.8129 7.77152C8.8129 7.77152 5.32499 6.06265 2.54492 6.67684C2.98992 5.08037 3.53835 3.63161 4.45687 2.29898Z" fill="#7F2125"/>
<path d="M4.45687 2.29898H5.0093C5.0093 2.29898 7.27842 1.98665 8.8129 2.00044C10.2756 2.01359 12.4263 2.29898 12.4263 2.29898H13.2957M4.45687 2.29898C3.53835 3.63161 2.98992 5.08037 2.54492 6.67684C5.32499 6.06265 8.8129 7.77152 8.8129 7.77152C8.8129 7.77152 12.2492 6.0323 15.1085 6.85516C14.8168 5.29561 14.1808 3.77739 13.2957 2.29898M4.45687 2.29898C5.17543 3.08844 6.19915 2.59251 8.8129 3.20005C11.1794 2.61087 12.3188 3.12754 13.2957 2.29898" stroke="#67211F" stroke-width="0.065961"/>
<path d="M8.83395 7.74584L8.84234 3.20411C10.6216 2.65097 11.9724 3.08281 13.3071 2.32593C13.8885 3.23027 14.8502 4.92357 15.1199 6.84227C12.8093 6.24039 10.3661 7.03493 8.83395 7.74584Z" fill="#67211F" stroke="#67211F" stroke-width="0.0413981"/>
<path d="M5.78085 2.81106C5.37687 2.53731 4.99786 2.68565 5.01447 2.29248L4.49414 2.30921C4.89972 2.74962 5.49934 2.74846 5.78085 2.81106Z" fill="#67211F"/>
<path d="M11.7947 2.761C12.1987 2.49002 12.5221 2.66508 12.5054 2.27588H13.3027C12.8972 2.71184 12.0762 2.69904 11.7947 2.761Z" fill="#67211F" fill-opacity="0.56"/>
<path d="M8.89079 2.34287L8.80006 3.15016L8.96668 3.13853L8.89079 2.34287Z" fill="#67211F" stroke="#67211F" stroke-width="0.100363"/>
<path d="M6.71266 2.90298C6.41894 2.88637 6.2421 2.86976 5.9993 2.85315C5.84825 4.60951 5.79027 5.04441 6.10498 6.78404C6.53182 6.8971 6.85459 7.00376 7.22305 7.11859C6.35903 5.52866 6.59914 4.50727 6.71266 2.90298Z" fill="#D60000" stroke="#67211F" stroke-width="0.0413981"/>
<path d="M6.22852 2.87831L6.01871 2.86169L5.97675 3.1773L6.22852 2.87831Z" fill="#398F00" stroke="#67211F" stroke-width="0.00836361"/>
<path d="M5.88483 4.05791L6.68211 3.1277L6.69051 2.92007L6.22892 2.87854L5.97714 3.17754L5.88483 4.05791Z" fill="#FF7F00" stroke="#67211F" stroke-width="0.00836361"/>
<path d="M6.40849 3.44271C6.40849 3.44271 6.15392 3.15479 6.0644 3.07727L5.98047 3.17694L5.89655 4.04901C6.01964 3.90228 6.40849 3.44271 6.40849 3.44271Z" fill="#D60000" stroke="#67211F" stroke-width="0.00836361"/>
<path d="M6.65093 4.13263C6.65179 3.77421 6.66013 3.55195 6.6845 3.12769L5.8956 4.04958C5.8675 4.41531 5.86081 4.61706 5.85364 4.97147L6.65093 4.13263Z" fill="#007FFF" stroke="#67211F" stroke-width="0.00669088"/>
<path d="M6.4579 4.33169L6.06345 3.84998L5.8956 4.04931C5.87371 4.41018 5.8632 4.61041 5.85364 4.97121L6.4579 4.33169Z" fill="#398F00" stroke="#67211F" stroke-width="0.00669088"/>
<path d="M6.49147 5.1714L6.10541 4.7063L5.85364 4.97207C5.86203 5.34582 5.88721 5.51193 5.91242 5.81923L6.49147 5.1714Z" fill="#D60000" stroke="#67211F" stroke-width="0.00669088"/>
<path d="M6.45964 6.11757L6.07358 5.64417L5.91412 5.81858C5.98126 6.20063 5.99805 6.30029 6.06519 6.58268L6.45964 6.11757Z" fill="#007FFF" stroke="#67211F" stroke-width="0.00669088"/>
<path d="M6.55772 6.90663L6.18006 6.44153L6.06256 6.58272L6.11561 6.76781L6.55772 6.90663Z" fill="#FF7F00" stroke="#67211F" stroke-width="0.00669088"/>
<path d="M6.69496 4.94589C6.66509 4.66669 6.65382 4.49446 6.65299 4.13196L6.10748 4.70503C6.35926 5.00403 6.3089 4.93759 6.49354 5.17014L6.69496 4.94589Z" fill="#FF7F00" stroke="#67211F" stroke-width="0.00669088"/>
<path d="M6.79213 5.7193C6.75856 5.46183 6.7166 5.32894 6.69142 4.9552L6.07037 5.64455C6.31606 5.96169 6.26721 5.89047 6.45643 6.10958L6.79213 5.7193Z" fill="#398F00" stroke="#67211F" stroke-width="0.00669088"/>
<path d="M6.98738 6.45854C6.91185 6.18446 6.86989 6.06819 6.79435 5.71936L6.1817 6.44193C6.37473 6.6911 6.37473 6.6911 6.56776 6.91534L6.98738 6.45854Z" fill="#D60000" stroke="#67211F" stroke-width="0.00669088"/>
<path d="M7.22342 7.10236C7.03039 6.86151 7.04251 6.87344 6.84109 6.61597L6.55258 6.90164C6.90662 6.99572 6.90042 6.99364 6.90042 6.99364L7.22342 7.10236Z" fill="#398F00" stroke="#67211F" stroke-width="0.00669088"/>
<path d="M6.98258 6.45862L6.8399 6.61642L7.20917 7.08153H7.21757L6.98258 6.45862Z" fill="#007FFF" stroke="#67211F" stroke-width="0.00669088"/>
<path d="M6.73432 5.33664L6.69235 4.96289L6.642 5.01272L6.56647 5.09578L6.73432 5.33664Z" fill="#007FFF" stroke="#67211F" stroke-width="0.00669088"/>
<g filter="url(#filter0_d_1193_1350)">
<path d="M7.80167 3.92795L7.93715 3.71596C7.93715 3.71596 8.08435 4.33771 7.98158 4.73546C7.89987 5.05172 7.59861 5.46441 7.59861 5.46441C7.46072 5.82075 7.46954 6.01618 7.54429 6.36186L7.26932 6.6891C7.26932 6.6891 7.18431 6.23599 7.04694 6.01378C6.84764 5.69137 6.51879 5.77905 6.316 5.49567C6.01573 5.0761 6.17142 4.19028 6.17142 4.19028L6.41506 4.40379C6.41506 4.40379 6.56271 4.18324 6.70701 3.86671C6.75868 3.75336 6.80993 3.6277 6.85381 3.49545C6.92088 3.29329 6.99557 2.96819 6.99557 2.96819L7.13642 3.25995L7.24969 3.10482C7.24969 3.10482 7.25957 3.32845 7.30136 3.4535C7.3973 3.7405 7.50747 3.84498 7.80167 3.92795Z" fill="url(#paint1_linear_1193_1350)"/>
<path d="M7.80167 3.92795C7.85458 3.84516 7.93715 3.71596 7.93715 3.71596C7.93715 3.71596 8.08435 4.33771 7.98158 4.73546C7.89987 5.05172 7.59861 5.46441 7.59861 5.46441C7.46072 5.82075 7.46954 6.01618 7.54429 6.36186L7.26932 6.6891C7.26932 6.6891 7.18431 6.23599 7.04694 6.01378C6.84764 5.69137 6.51879 5.77905 6.316 5.49567C6.01573 5.0761 6.17142 4.19028 6.17142 4.19028L6.41506 4.40379M7.80167 3.92795C7.50747 3.84498 7.3973 3.7405 7.30136 3.4535C7.25957 3.32845 7.24969 3.10482 7.24969 3.10482L7.13642 3.25995M7.80167 3.92795C7.7936 3.95795 7.55697 4.47542 7.55697 4.47542C7.55697 4.47542 7.37193 4.11679 7.28872 3.87359M6.41506 4.40379C6.55444 4.56606 6.57541 4.6721 6.61491 4.86011L6.7958 4.18734L7.07181 4.60037L7.12002 3.70129L7.28872 3.87359M6.41506 4.40379C6.41506 4.40379 6.56271 4.18324 6.70701 3.86671C6.75868 3.75336 6.80993 3.6277 6.85381 3.49545C6.92088 3.29329 6.99557 2.96819 6.99557 2.96819L7.13642 3.25995M7.13642 3.25995C7.13642 3.25995 7.20872 3.63975 7.28872 3.87359" stroke="#F8F7FC" stroke-width="0.0413981"/>
</g>
<defs>
<filter id="filter0_d_1193_1350" x="6.11035" y="2.90613" width="2.07223" height="3.95684" filterUnits="userSpaceOnUse" color-interpolation-filters="sRGB">
<feFlood flood-opacity="0" result="BackgroundImageFix"/>
<feColorMatrix in="SourceAlpha" type="matrix" values="0 0 0 0 0 0 0 0 0 0 0 0 0 0 0 0 0 0 127 0" result="hardAlpha"/>
<feOffset dx="0.0836361" dy="0.0669089"/>
<feGaussianBlur stdDeviation="0.030109"/>
<feComposite in2="hardAlpha" operator="out"/>
<feColorMatrix type="matrix" values="0 0 0 0 0 0 0 0 0 0 0 0 0 0 0 0 0 0 0.25 0"/>
<feBlend mode="normal" in2="BackgroundImageFix" result="effect1_dropShadow_1193_1350"/>
<feBlend mode="normal" in="SourceGraphic" in2="effect1_dropShadow_1193_1350" result="shape"/>
</filter>
<radialGradient id="paint0_radial_1193_1350" cx="0" cy="0" r="1" gradientUnits="userSpaceOnUse" gradientTransform="translate(8.78939 9.41999) scale(6.66761 6.66758)">
<stop offset="0.12" stop-color="#FAC742"/>
<stop offset="0.32" stop-color="#FAC440"/>
<stop offset="0.48" stop-color="#FBBA3B"/>
<stop offset="0.62" stop-color="#FBA931"/>
<stop offset="0.76" stop-color="#FC9224"/>
<stop offset="0.88" stop-color="#FE7413"/>
<stop offset="1" stop-color="#FF5100"/>
</radialGradient>
<linearGradient id="paint1_linear_1193_1350" x1="7.44606" y1="3.08848" x2="6.53683" y2="6.4935" gradientUnits="userSpaceOnUse">
<stop stop-color="#C9C9C9"/>
<stop offset="1" stop-color="#939297"/>
</linearGradient>
</defs>
</svg>
