<svg width="18" height="18" viewBox="0 0 18 18" fill="none" xmlns="http://www.w3.org/2000/svg">
<path d="M9.29674 16.7311C5.78662 16.7311 1.99973 14.5294 1.99973 9.69831C1.99973 4.8672 5.78662 2.66553 9.29674 2.66553C11.2468 2.66553 13.0459 3.30716 14.3795 4.47719C15.8263 5.76045 16.5937 7.57212 16.5937 9.69831C16.5937 11.8245 15.8263 13.6236 14.3795 14.9068C13.0459 16.0769 11.2342 16.7311 9.29674 16.7311Z" fill="url(#paint0_radial_1193_550)"/>
<path d="M15.3232 5.51935C15.9937 6.60131 16.3435 7.88961 16.3435 9.32259C16.3435 11.4488 15.576 13.2479 14.1292 14.5311C12.7956 15.7012 10.984 16.3554 9.04647 16.3554C6.77434 16.3554 4.39149 15.4307 2.98492 13.4693C4.33865 15.6911 6.88505 16.7328 9.2981 16.7328C11.2356 16.7328 13.0472 16.0786 14.3808 14.9086C15.8277 13.6253 16.5951 11.8262 16.5951 9.70002C16.5951 8.0972 16.1585 6.67303 15.3232 5.51935Z" fill="#EB8F00"/>
<path d="M9.33239 12.098C8.01264 12.098 7.0678 12.8894 6.78725 13.3284C6.68031 13.4706 6.65892 13.6581 6.72937 13.8204C6.78347 13.9235 6.89041 13.9877 7.00616 13.9852C7.04893 13.9839 7.09171 13.9776 7.13197 13.965C7.79625 13.7524 8.37749 13.4442 9.33239 13.4442C10.2873 13.4442 10.8685 13.7524 11.5328 13.965C11.5731 13.9789 11.6159 13.9852 11.6586 13.9852C11.7744 13.9877 11.8813 13.9235 11.9354 13.8204C12.0059 13.6581 11.9845 13.4706 11.8775 13.3284C11.5932 12.8894 10.6509 12.098 9.33239 12.098Z" fill="#422B0D"/>
<path d="M7.35198 8.80674C6.59083 8.60796 5.7869 8.63815 5.0421 8.89355C4.90874 8.94513 4.84206 9.09358 4.89364 9.22694C4.94145 9.3515 5.07481 9.41817 5.20314 9.38295C5.50131 9.32507 5.80577 9.30872 6.10897 9.33262C6.10897 9.34017 6.10897 9.38169 6.10897 9.38169C6.10897 9.9969 6.50779 10.3693 6.94813 10.3693C7.17333 10.3668 7.38846 10.2737 7.54447 10.1101C7.80615 9.83209 7.86025 9.41692 7.67657 9.08226C7.60737 8.95268 7.49163 8.85329 7.35198 8.80674Z" fill="#422B0D"/>
<path d="M13.3724 8.80674C12.6112 8.60796 11.8073 8.63815 11.0625 8.89355C10.9279 8.94135 10.8562 9.08855 10.904 9.22317C10.9518 9.35779 11.099 9.4295 11.2336 9.38169C11.5318 9.32382 11.8362 9.30746 12.1382 9.33137C12.1382 9.33891 12.1382 9.38043 12.1382 9.38043C12.1382 9.99564 12.5383 10.368 12.9773 10.368C13.2038 10.3655 13.4189 10.2724 13.5749 10.1089C13.8329 9.83083 13.8832 9.41817 13.7008 9.08604C13.6316 8.95519 13.5133 8.85455 13.3724 8.80674Z" fill="#422B0D"/>
<path d="M12.3245 7.3237C12.1974 7.32622 12.093 7.22431 12.0905 7.09724C12.088 6.97017 12.1899 6.86575 12.317 6.86324C12.561 6.83682 12.8089 6.85191 13.0479 6.90727C13.6996 7.03937 14.2783 7.41303 14.6658 7.95275C14.8395 8.21444 14.4998 8.43083 14.296 8.23582C13.7638 7.71245 13.068 7.39038 12.3245 7.3237Z" fill="#422B0D"/>
<path d="M6.05788 7.3237C6.18495 7.32622 6.28938 7.22431 6.29189 7.09724C6.29441 6.97017 6.1925 6.86575 6.06543 6.86324C5.82136 6.83682 5.57351 6.85191 5.33447 6.90727C4.68277 7.03937 4.10405 7.41303 3.71655 7.95275C3.54167 8.21444 3.88262 8.43083 4.08643 8.23582C4.61861 7.71245 5.31434 7.39038 6.05788 7.3237Z" fill="#422B0D"/>
<path d="M6.96281 9.23448C7.14147 9.14893 7.3566 9.22441 7.44341 9.40306C7.51009 9.54271 7.4799 9.71004 7.36792 9.81823C7.18927 9.90379 6.97414 9.8283 6.88733 9.64965C6.82065 9.51 6.85084 9.34267 6.96281 9.23448Z" fill="#896024"/>
<path d="M13.0036 9.23343C13.1835 9.14914 13.3974 9.22588 13.4829 9.40579C13.5483 9.54544 13.5181 9.71025 13.4074 9.81719C13.2275 9.90148 13.0136 9.82474 12.9281 9.64483C12.8627 9.50644 12.8929 9.34037 13.0036 9.23343Z" fill="#896024"/>
<path d="M5.19314 1.28017H5.71903C5.71903 1.28017 7.87913 0.986472 9.33989 0.999441C10.7323 1.0118 12.7797 1.28017 12.7797 1.28017H13.6073C14.4499 2.67044 15.0554 4.09815 15.333 5.56472C12.7797 5.88486 9.38099 6.63821 9.38099 6.63821C9.38099 6.63821 6.16131 5.9687 3.37305 5.39704C3.79666 3.89574 4.31875 2.53335 5.19314 1.28017Z" fill="#7F2125"/>
<path d="M5.19314 1.28017H5.71903C5.71903 1.28017 7.87913 0.986472 9.33989 0.999441C10.7323 1.0118 12.7797 1.28017 12.7797 1.28017H13.6073M5.19314 1.28017C4.31875 2.53335 3.79666 3.89574 3.37305 5.39704C6.16131 5.9687 9.38099 6.63821 9.38099 6.63821C9.38099 6.63821 12.7797 5.88486 15.333 5.56472C15.0554 4.09815 14.4499 2.67044 13.6073 1.28017M5.19314 1.28017C5.87718 2.02258 6.85171 1.55621 9.33989 2.12753C11.5927 1.57348 12.6774 2.05934 13.6073 1.28017" stroke="#67211F" stroke-width="0.0473218"/>
<path d="M9.38694 6.6254L9.36298 2.12636C11.0567 1.6062 12.3426 2.0123 13.6133 1.30054C14.1667 2.15096 15.0822 3.74331 15.339 5.54762C13.3896 5.77598 10.2897 6.42878 9.38694 6.6254Z" fill="#67211F" stroke="#67211F" stroke-width="0.0296999"/>
<path d="M12.1813 1.71065C12.5658 1.45583 12.8737 1.62045 12.8578 1.25446H13.6168C13.2307 1.66443 12.4493 1.65239 12.1813 1.71065Z" fill="#67211F" fill-opacity="0.56"/>
<path d="M6.45215 1.76519C6.06759 1.50776 5.70678 1.64726 5.7226 1.27753L5.22726 1.29326C5.61335 1.70741 6.18417 1.70633 6.45215 1.76519Z" fill="#67211F"/>
<path d="M9.41705 1.32157L9.33067 2.08073L9.48929 2.06979L9.41705 1.32157Z" fill="#67211F" stroke="#67211F" stroke-width="0.0720027"/>
<path d="M7.33844 1.83486C7.0618 1.8168 6.89529 1.79967 6.66662 1.78201C6.44969 3.41581 6.34617 4.53389 6.91382 6.10183C7.28485 6.1836 7.67196 6.23405 8.04305 6.30795C7.24192 4.79563 7.21827 3.35303 7.33844 1.83486Z" fill="#D60000" stroke="#67211F" stroke-width="0.0296999"/>
<path d="M6.88205 1.80593L6.68447 1.78854L6.64233 2.08705L6.88205 1.80593Z" fill="#398F00" stroke="#67211F" stroke-width="0.00600023"/>
<path d="M6.5517 2.91842L7.31067 2.04395L7.32029 1.84741L6.88565 1.80443L6.64594 2.08554L6.5517 2.91842Z" fill="#FF7F00" stroke="#67211F" stroke-width="0.00600023"/>
<path d="M7.04082 2.33996C7.04082 2.33996 6.80329 2.06531 6.71957 1.9912L6.63967 2.0849L6.55341 2.90999C6.67061 2.77203 7.04082 2.33996 7.04082 2.33996Z" fill="#D60000" stroke="#67211F" stroke-width="0.00600023"/>
<path d="M7.26219 2.99384C7.26595 2.65447 7.27564 2.44408 7.30209 2.04254L6.5511 2.9092C6.52161 3.25529 6.51364 3.44627 6.50397 3.78179L7.26219 2.99384Z" fill="#007FFF" stroke="#67211F" stroke-width="0.00480018"/>
<path d="M7.07498 3.18248L6.70724 2.72322L6.54742 2.91063C6.52382 3.25216 6.51228 3.44168 6.5003 3.78323L7.07498 3.18248Z" fill="#398F00" stroke="#67211F" stroke-width="0.00480018"/>
<path d="M7.10773 3.97555L6.74776 3.53209L6.50831 3.78175C6.51315 4.1357 6.53551 4.29319 6.55673 4.58437L7.10773 3.97555Z" fill="#D60000" stroke="#67211F" stroke-width="0.00480018"/>
<path d="M7.07157 4.87764L6.71166 4.42631L6.55997 4.5902C6.62009 4.95249 6.63509 5.04699 6.69604 5.31491L7.07157 4.87764Z" fill="#007FFF" stroke="#67211F" stroke-width="0.00480018"/>
<path d="M7.15285 5.62218L6.80078 5.17879L6.6889 5.31155C6.77296 5.65044 6.78094 5.64265 6.85777 5.90283L7.15285 5.62218Z" fill="#FF7F00" stroke="#67211F" stroke-width="0.00480018"/>
<path d="M7.34081 6.16697L7.02011 5.7553L6.86064 5.90339C6.88382 5.9665 6.91477 6.04541 6.93025 6.08486L6.93025 6.08487L7.34081 6.16697Z" fill="#007FFF" stroke="#67211F" stroke-width="0.00480018"/>
<path d="M7.30036 3.76388C7.27451 3.49927 7.26531 3.3361 7.26751 2.99285L6.74874 3.53116C6.98353 3.81627 6.93663 3.75296 7.10871 3.97462L7.30036 3.76388Z" fill="#FF7F00" stroke="#67211F" stroke-width="0.00480018"/>
<path d="M7.38696 4.50133C7.35744 4.25727 7.31899 4.13111 7.29834 3.77702L6.70743 4.42483C6.93635 4.72707 6.8909 4.65924 7.0674 4.86822L7.38696 4.50133Z" fill="#398F00" stroke="#67211F" stroke-width="0.00480018"/>
<path d="M7.55844 5.19661C7.48952 4.93649 7.45093 4.82605 7.38263 4.49516L6.79935 5.17449C6.9792 5.41194 6.9792 5.41194 7.15926 5.62581L7.55844 5.19661Z" fill="#D60000" stroke="#67211F" stroke-width="0.00480018"/>
<path d="M7.76595 5.79359C7.58604 5.56399 7.60949 5.59565 7.4218 5.35026L7.01491 5.7558C7.19476 5.99326 7.16347 5.95368 7.3277 6.16741L7.76595 5.79359Z" fill="#398F00" stroke="#67211F" stroke-width="0.00480018"/>
<path d="M7.56291 5.202L7.42717 5.35029L7.77132 5.79362L7.77923 5.79368L7.56291 5.202Z" fill="#007FFF" stroke="#67211F" stroke-width="0.00480018"/>
<path d="M7.3368 4.14075L7.30033 3.78652L7.25247 3.83331L7.18061 3.91135L7.3368 4.14075Z" fill="#007FFF" stroke="#67211F" stroke-width="0.00480018"/>
<path d="M7.54577 5.9892L7.7769 5.78666C7.85902 5.9889 7.90965 6.09688 8.00985 6.28411L7.72555 6.23452L7.54577 5.9892Z" fill="#FF7F00" stroke="#67211F" stroke-width="0.00360014"/>
<g filter="url(#filter0_d_1193_550)">
<path d="M8.53864 2.97409L8.66761 2.77473C8.66761 2.77473 8.80774 3.35942 8.70991 3.73345C8.63212 4.03086 8.34534 4.41895 8.34534 4.41895C8.21407 4.75404 8.22247 4.93782 8.29362 5.26289L8.03187 5.57062C8.03187 5.57062 7.95094 5.14452 7.82017 4.93556C7.63044 4.63237 7.3174 4.71482 7.12435 4.44834C6.83851 4.05378 6.98671 3.22077 6.98671 3.22077L7.21864 3.42156C7.21864 3.42156 7.3592 3.21416 7.49657 2.9165C7.54576 2.80991 7.59455 2.69173 7.63632 2.56737C7.70017 2.37726 7.77127 2.07155 7.77127 2.07155L7.90535 2.34591L8.01318 2.20003C8.01318 2.20003 8.02258 2.41033 8.06237 2.52792C8.15369 2.79781 8.25857 2.89606 8.53864 2.97409Z" fill="#939297"/>
<path d="M8.53864 2.97409C8.58901 2.89624 8.66761 2.77473 8.66761 2.77473C8.66761 2.77473 8.80774 3.35942 8.70991 3.73345C8.63212 4.03086 8.34534 4.41895 8.34534 4.41895C8.21407 4.75404 8.22247 4.93782 8.29362 5.26289L8.03187 5.57062C8.03187 5.57062 7.95094 5.14452 7.82017 4.93556C7.63044 4.63237 7.3174 4.71482 7.12435 4.44834C6.83851 4.05378 6.98671 3.22077 6.98671 3.22077L7.21864 3.42156M8.53864 2.97409C8.25857 2.89606 8.15369 2.79781 8.06237 2.52792C8.02258 2.41033 8.01318 2.20003 8.01318 2.20003L7.90535 2.34591M8.53864 2.97409C8.53096 3.0023 8.3057 3.48892 8.3057 3.48892C8.3057 3.48892 8.12955 3.15167 8.05034 2.92297M7.21864 3.42156C7.35133 3.57415 7.3713 3.67387 7.4089 3.85068L7.5811 3.21801L7.84384 3.60642M7.21864 3.42156C7.21864 3.42156 7.3592 3.21416 7.49657 2.9165C7.54576 2.80991 7.59455 2.69173 7.63632 2.56737C7.70017 2.37726 7.77127 2.07155 7.77127 2.07155L7.90535 2.34591M7.90535 2.34591C7.90535 2.34591 7.97418 2.70307 8.05034 2.92297M8.05034 2.92297L7.88974 2.76094L7.84384 3.60642M7.84384 3.60642L7.82017 4.02421" stroke="#F8F7FC" stroke-width="0.0296999"/>
</g>
<defs>
<filter id="filter0_d_1193_550" x="6.93341" y="2.0274" width="1.92928" height="3.66768" filterUnits="userSpaceOnUse" color-interpolation-filters="sRGB">
<feFlood flood-opacity="0" result="BackgroundImageFix"/>
<feColorMatrix in="SourceAlpha" type="matrix" values="0 0 0 0 0 0 0 0 0 0 0 0 0 0 0 0 0 0 127 0" result="hardAlpha"/>
<feOffset dx="0.0600023" dy="0.0480018"/>
<feGaussianBlur stdDeviation="0.0216008"/>
<feComposite in2="hardAlpha" operator="out"/>
<feColorMatrix type="matrix" values="0 0 0 0 0 0 0 0 0 0 0 0 0 0 0 0 0 0 0.25 0"/>
<feBlend mode="normal" in2="BackgroundImageFix" result="effect1_dropShadow_1193_550"/>
<feBlend mode="normal" in="SourceGraphic" in2="effect1_dropShadow_1193_550" result="shape"/>
</filter>
<radialGradient id="paint0_radial_1193_550" cx="0" cy="0" r="1" gradientUnits="userSpaceOnUse" gradientTransform="translate(9.29674 9.69831) scale(7.16613 7.1661)">
<stop offset="0.5" stop-color="#FDE030"/>
<stop offset="0.92" stop-color="#F7C02B"/>
<stop offset="1" stop-color="#F4A223"/>
</radialGradient>
</defs>
</svg>
