<svg width="18" height="18" viewBox="0 0 18 18" fill="none" xmlns="http://www.w3.org/2000/svg">
<g clip-path="url(#clip0_1217_8821)">
<path d="M8.99754 16.7714C5.51023 16.7714 1.74792 14.5841 1.74792 9.78434C1.74792 4.98462 5.51023 2.79724 8.99754 2.79724C10.9349 2.79724 12.7223 3.4347 14.0473 4.59714C15.4847 5.87206 16.2472 7.67196 16.2472 9.78434C16.2472 11.8967 15.4847 13.6841 14.0473 14.959C12.7223 16.1215 10.9224 16.7714 8.99754 16.7714Z" fill="url(#paint0_radial_1217_8821)"/>
<path d="M14.9835 5.63098C15.6497 6.70592 15.9972 7.98585 15.9972 9.40951C15.9972 11.5219 15.2347 13.3093 13.7973 14.5842C12.4724 15.7467 10.6725 16.3966 8.74758 16.3966C6.4902 16.3966 4.12283 15.4779 2.7254 13.5293C4.07033 15.7367 6.6002 16.7716 8.99757 16.7716C10.9225 16.7716 12.7224 16.1216 14.0473 14.9592C15.4847 13.6843 16.2472 11.8969 16.2472 9.78449C16.2472 8.19209 15.8135 6.77717 14.9835 5.63098Z" fill="#EB8F00"/>
<path d="M4.94666 8.93213L6.46908 8.63714L4.90041 7.98593L4.84792 7.95718C4.59168 7.82219 4.49419 7.50596 4.62918 7.24972C4.66168 7.18848 4.70542 7.13473 4.75792 7.09098C5.00791 6.89974 5.35039 6.88474 5.61663 7.05348L8.27649 8.67839C8.34398 8.69214 8.38773 8.75839 8.37398 8.82588C8.36148 8.88463 8.30898 8.92713 8.24899 8.92588L5.38539 9.99956C5.36539 10.0071 5.34539 10.0146 5.32539 10.0196C4.95041 10.1246 4.53418 9.90832 4.47544 9.54709C4.43169 9.27211 4.64418 9.01587 4.94666 8.93213Z" fill="#422B0D"/>
<path d="M12.8988 8.901L11.3763 8.60602L12.945 7.9548L12.9975 7.92605C13.2537 7.79106 13.3512 7.47483 13.2162 7.21859C13.1837 7.15735 13.14 7.1036 13.0875 7.05985C12.8375 6.86861 12.495 6.85362 12.2288 7.02236L9.56893 8.64726C9.50394 8.67101 9.47144 8.74351 9.49519 8.80725C9.51144 8.851 9.55018 8.88225 9.59643 8.8885L12.46 9.96344C12.48 9.97094 12.5 9.97844 12.52 9.98344C12.895 10.0884 13.3112 9.87219 13.37 9.51096C13.4137 9.24098 13.2012 8.98474 12.8988 8.901Z" fill="#422B0D"/>
<path d="M13.8061 10.8769C13.6311 10.5606 13.2511 10.4219 12.9136 10.5494C11.6312 10.9231 10.3013 11.1093 8.96511 11.1031C7.62893 11.1093 6.299 10.9231 5.01657 10.5494C4.68034 10.4219 4.30036 10.5594 4.12537 10.8744C3.95537 11.1881 4.07787 11.5518 4.22161 11.8656C5.02407 13.628 6.79272 14.6829 8.95511 14.6891H8.97511C11.1375 14.6891 12.9061 13.628 13.7099 11.8656C13.8523 11.5493 13.9761 11.1906 13.8061 10.8769Z" fill="#422B0D"/>
<path d="M10.9661 14.1914C10.9199 14.1489 10.8724 14.1102 10.8249 14.0664C10.3149 13.6177 9.65496 13.3765 8.975 13.3902C8.27503 13.379 7.59382 13.6114 7.0476 14.0489C7.0001 14.0877 6.9501 14.1252 6.90386 14.1739C6.85761 14.2227 6.83261 14.2577 6.80261 14.2989C7.49008 14.5676 8.22254 14.7051 8.96125 14.7014H8.98125C9.68871 14.7014 10.3899 14.5751 11.0524 14.3264C11.0274 14.2789 10.9986 14.2339 10.9661 14.1914Z" fill="#ED7770"/>
<path d="M12.9137 10.5499C11.6313 10.9236 10.3014 11.1099 8.96517 11.1036C7.62899 11.1099 6.29906 10.9236 5.01663 10.5499C4.6804 10.4224 4.30042 10.5599 4.12543 10.8749C4.10043 10.9224 4.08043 10.9724 4.06793 11.0236C4.10918 11.0449 4.15668 11.0661 4.21292 11.0886C5.71784 11.8423 7.38151 12.2248 9.06392 12.2048C10.6776 12.2236 12.2725 11.8723 13.7299 11.1799C13.7887 11.1549 13.8374 11.1311 13.8812 11.1086C13.8712 11.0274 13.8449 10.9474 13.8062 10.8749C13.6312 10.5599 13.2512 10.4212 12.9137 10.5499Z" fill="white"/>
<path d="M13.8111 10.8781C13.6336 10.5619 13.2524 10.4219 12.9124 10.5494C11.63 10.9231 10.3 11.1093 8.96511 11.1031C7.62893 11.1093 6.299 10.9231 5.01657 10.5494C4.68034 10.4219 4.30036 10.5594 4.12537 10.8744C3.95537 11.1881 4.07787 11.5518 4.22161 11.8656C4.28536 12.0068 4.3566 12.1455 4.43535 12.2793C4.43535 12.2793 4.17286 11.3068 4.40035 11.0244C4.47785 10.9044 4.60784 10.8294 4.75033 10.8219C4.80908 10.8219 4.86658 10.8319 4.92282 10.8494C6.22775 11.2331 7.58143 11.4268 8.94261 11.4243H8.98636C10.3475 11.4268 11.7012 11.2331 13.0061 10.8494C13.0624 10.8319 13.1199 10.8219 13.1786 10.8219C13.3211 10.8294 13.4524 10.9044 13.5299 11.0244C13.7611 11.3068 13.4949 12.283 13.4949 12.283C13.5724 12.1493 13.6499 12.0118 13.7149 11.8693C13.8573 11.5556 13.9811 11.1931 13.8111 10.8781Z" fill="#EB8F00"/>
<path d="M4.69576 1.58585H5.24223C5.24223 1.58585 7.48687 1.28117 9.00479 1.29462C10.4517 1.30745 12.5792 1.58585 12.5792 1.58585H13.4392C14.3148 3.02807 14.944 4.50913 15.2324 6.03051C12.404 5.22779 9.00479 6.92444 9.00479 6.92444C9.00479 6.92444 5.55451 5.2574 2.80444 5.85656C3.24464 4.29916 3.78716 2.88586 4.69576 1.58585Z" fill="#7F2125"/>
<path d="M4.69576 1.58585H5.24223C5.24223 1.58585 7.48687 1.28117 9.00479 1.29462C10.4517 1.30745 12.5792 1.58585 12.5792 1.58585H13.4392M4.69576 1.58585C3.78716 2.88586 3.24464 4.29916 2.80444 5.85656C5.55451 5.2574 9.00479 6.92444 9.00479 6.92444C9.00479 6.92444 12.404 5.22779 15.2324 6.03051C14.944 4.50913 14.3148 3.02807 13.4392 1.58585M4.69576 1.58585C5.40657 2.35599 6.41924 1.8722 9.00479 2.46487C11.3458 1.89011 12.4729 2.39413 13.4392 1.58585" stroke="#67211F" stroke-width="0.0643464"/>
<path d="M9.02325 6.89943L9.03155 2.46887C10.7916 1.92926 12.1278 2.35054 13.4482 1.61218C14.0233 2.49438 14.9746 4.14624 15.2414 6.01798C12.9557 5.43083 10.5389 6.20592 9.02325 6.89943Z" fill="#67211F" stroke="#67211F" stroke-width="0.0403848"/>
<path d="M6.00274 2.08523C5.60313 1.81818 5.2282 1.96289 5.24464 1.57935L4.72992 1.59566C5.13112 2.02529 5.72427 2.02417 6.00274 2.08523Z" fill="#67211F"/>
<path d="M11.9533 2.03624C12.353 1.77188 12.6728 1.94266 12.6564 1.56299H13.4451C13.0439 1.98828 12.2318 1.97579 11.9533 2.03624Z" fill="#67211F" fill-opacity="0.56"/>
<path d="M9.08216 1.62827L8.99241 2.41581L9.15723 2.40446L9.08216 1.62827Z" fill="#67211F" stroke="#67211F" stroke-width="0.0979067"/>
<path d="M6.92496 2.17495C6.63441 2.15875 6.45948 2.14255 6.21929 2.12634C6.06987 3.83971 6.01252 4.26397 6.32384 5.96102C6.74607 6.07131 7.06536 6.17536 7.42984 6.28738C6.57514 4.73637 6.81266 3.73998 6.92496 2.17495Z" fill="#D60000" stroke="#67211F" stroke-width="0.0403848"/>
<path d="M6.44947 2.15051L6.24154 2.13428L6.19995 2.44273L6.44947 2.15051Z" fill="#398F00" stroke="#67211F" stroke-width="0.00815889"/>
<path d="M6.10876 3.30126L6.89745 2.39382L6.90575 2.19127L6.44914 2.15076L6.20009 2.44243L6.10876 3.30126Z" fill="#FF7F00" stroke="#67211F" stroke-width="0.00815889"/>
<path d="M6.62342 2.70171C6.62342 2.70171 6.3716 2.42083 6.28304 2.34521L6.20002 2.44244L6.117 3.29317C6.23877 3.15003 6.62342 2.70171 6.62342 2.70171Z" fill="#D60000" stroke="#67211F" stroke-width="0.00815889"/>
<path d="M6.86443 3.37414C6.86528 3.0245 6.87354 2.80768 6.89764 2.3938L6.11726 3.29312C6.08946 3.64991 6.08284 3.84672 6.07574 4.19245L6.86443 3.37414Z" fill="#007FFF" stroke="#67211F" stroke-width="0.00652711"/>
<path d="M6.67348 3.56856L6.28329 3.09863L6.11725 3.29308C6.0956 3.64512 6.0852 3.84046 6.07574 4.19242L6.67348 3.56856Z" fill="#398F00" stroke="#67211F" stroke-width="0.00652711"/>
<path d="M6.70669 4.3867L6.3248 3.93298L6.07574 4.19225C6.08405 4.55685 6.10895 4.71889 6.13389 5.01867L6.70669 4.3867Z" fill="#D60000" stroke="#67211F" stroke-width="0.00652711"/>
<path d="M6.67341 5.31058L6.29153 4.84875L6.13379 5.0189C6.2002 5.3916 6.21681 5.48882 6.28322 5.7643L6.67341 5.31058Z" fill="#007FFF" stroke="#67211F" stroke-width="0.00652711"/>
<path d="M6.77271 6.08019L6.39913 5.62646L6.2829 5.7642L6.33537 5.94476L6.77271 6.08019Z" fill="#FF7F00" stroke="#67211F" stroke-width="0.00652711"/>
<path d="M6.90523 4.16791C6.87569 3.89554 6.86454 3.72753 6.86372 3.3739L6.3241 3.93295C6.57315 4.22463 6.52334 4.15981 6.70599 4.38667L6.90523 4.16791Z" fill="#FF7F00" stroke="#67211F" stroke-width="0.00652711"/>
<path d="M7.00443 4.92167C6.97122 4.6705 6.92972 4.54087 6.90481 4.17627L6.29047 4.84875C6.5335 5.15812 6.48518 5.08864 6.67236 5.30239L7.00443 4.92167Z" fill="#398F00" stroke="#67211F" stroke-width="0.00652711"/>
<path d="M7.19646 5.64284C7.12174 5.37547 7.08023 5.26204 7.00552 4.92175L6.39948 5.62664C6.59042 5.8697 6.59042 5.8697 6.78136 6.08846L7.19646 5.64284Z" fill="#D60000" stroke="#67211F" stroke-width="0.00652711"/>
<path d="M7.43282 6.27124C7.24188 6.03628 7.25387 6.04792 7.05462 5.79675L6.76923 6.07543C7.11945 6.16721 7.11331 6.16518 7.11331 6.16518L7.43282 6.27124Z" fill="#398F00" stroke="#67211F" stroke-width="0.00652711"/>
<path d="M7.19667 5.64258L7.05554 5.79652L7.42083 6.25024H7.42913L7.19667 5.64258Z" fill="#007FFF" stroke="#67211F" stroke-width="0.00652711"/>
<path d="M6.94729 4.54892L6.90578 4.18433L6.85597 4.23294L6.78125 4.31396L6.94729 4.54892Z" fill="#007FFF" stroke="#67211F" stroke-width="0.00652711"/>
<g filter="url(#filter0_d_1217_8821)">
<path d="M8.00234 3.17451L8.13636 2.96771C8.13636 2.96771 8.28197 3.57424 8.18031 3.96225C8.09948 4.27077 7.80147 4.67336 7.80147 4.67336C7.66507 5.02097 7.6738 5.21163 7.74773 5.54884L7.47574 5.86807C7.47574 5.86807 7.39164 5.42606 7.25575 5.20928C7.0586 4.89477 6.7333 4.9803 6.5327 4.70386C6.23567 4.29455 6.38968 3.43041 6.38968 3.43041L6.63069 3.6387C6.63069 3.6387 6.77675 3.42355 6.91949 3.11477C6.97061 3.00419 7.0213 2.8816 7.0647 2.75259C7.13106 2.55538 7.20494 2.23824 7.20494 2.23824L7.34427 2.52286L7.45631 2.37152C7.45631 2.37152 7.46608 2.58968 7.50743 2.71167C7.60233 2.99164 7.71131 3.09356 8.00234 3.17451Z" fill="url(#paint1_linear_1217_8821)"/>
<path d="M8.00234 3.17451C8.05467 3.09375 8.13636 2.96771 8.13636 2.96771C8.13636 2.96771 8.28197 3.57424 8.18031 3.96225C8.09948 4.27077 7.80147 4.67336 7.80147 4.67336C7.66507 5.02097 7.6738 5.21162 7.74773 5.54884L7.47574 5.86807C7.47574 5.86807 7.39164 5.42606 7.25575 5.20928C7.0586 4.89477 6.7333 4.9803 6.5327 4.70386C6.23567 4.29455 6.38968 3.43041 6.38968 3.43041L6.63069 3.6387M8.00234 3.17451C7.71131 3.09356 7.60233 2.99164 7.50743 2.71167C7.46608 2.58968 7.45631 2.37152 7.45631 2.37152L7.34427 2.52286M8.00234 3.17451C7.99436 3.20377 7.76028 3.70858 7.76028 3.70858C7.76028 3.70858 7.57723 3.35873 7.49493 3.12148M6.63069 3.6387C6.76856 3.797 6.78931 3.90045 6.82838 4.08386L7.00732 3.42755L7.28035 3.83047L7.32804 2.9534L7.49493 3.12148M6.63069 3.6387C6.63069 3.6387 6.77675 3.42355 6.91949 3.11477C6.97061 3.00419 7.0213 2.8816 7.0647 2.75259C7.13106 2.55538 7.20494 2.23824 7.20494 2.23824L7.34427 2.52286M7.34427 2.52286C7.34427 2.52286 7.41579 2.89336 7.49493 3.12148" stroke="#F8F7FC" stroke-width="0.0403848"/>
</g>
</g>
<defs>
<filter id="filter0_d_1217_8821" x="6.32953" y="2.17834" width="2.04738" height="3.85888" filterUnits="userSpaceOnUse" color-interpolation-filters="sRGB">
<feFlood flood-opacity="0" result="BackgroundImageFix"/>
<feColorMatrix in="SourceAlpha" type="matrix" values="0 0 0 0 0 0 0 0 0 0 0 0 0 0 0 0 0 0 127 0" result="hardAlpha"/>
<feOffset dx="0.0815889" dy="0.0652711"/>
<feGaussianBlur stdDeviation="0.029372"/>
<feComposite in2="hardAlpha" operator="out"/>
<feColorMatrix type="matrix" values="0 0 0 0 0 0 0 0 0 0 0 0 0 0 0 0 0 0 0.25 0"/>
<feBlend mode="normal" in2="BackgroundImageFix" result="effect1_dropShadow_1217_8821"/>
<feBlend mode="normal" in="SourceGraphic" in2="effect1_dropShadow_1217_8821" result="shape"/>
</filter>
<radialGradient id="paint0_radial_1217_8821" cx="0" cy="0" r="1" gradientUnits="userSpaceOnUse" gradientTransform="translate(8.99754 9.78434) scale(7.11958 7.11955)">
<stop offset="0.5" stop-color="#FDE030"/>
<stop offset="0.92" stop-color="#F7C02B"/>
<stop offset="1" stop-color="#F4A223"/>
</radialGradient>
<linearGradient id="paint1_linear_1217_8821" x1="7.65057" y1="2.35559" x2="6.77426" y2="5.68335" gradientUnits="userSpaceOnUse">
<stop stop-color="#C9C9C9"/>
<stop offset="1" stop-color="#939297"/>
</linearGradient>
<clipPath id="clip0_1217_8821">
<rect width="18" height="18" fill="white"/>
</clipPath>
</defs>
</svg>
