<svg width="18" height="19" viewBox="0 0 18 19" fill="none" xmlns="http://www.w3.org/2000/svg">
<path d="M8.98355 17.8885C5.49701 17.8885 1.73553 15.7016 1.73553 10.9029C1.73553 6.10425 5.49701 3.91736 8.98355 3.91736C10.9205 3.91736 12.7075 4.55468 14.0322 5.71686C15.4693 6.9915 16.2316 8.791 16.2316 10.9029C16.2316 13.0148 15.4693 14.8018 14.0322 16.0765C12.7075 17.2387 10.908 17.8885 8.98355 17.8885Z" fill="url(#paint0_radial_1200_7560)"/>
<path d="M14.9679 6.75037C15.6339 7.82507 15.9813 9.10471 15.9813 10.5281C15.9813 12.64 15.219 14.427 13.7819 15.7016C12.4573 16.8638 10.6578 17.5136 8.73332 17.5136C6.47643 17.5136 4.10958 16.5951 2.71246 14.6469C4.0571 16.8538 6.5864 17.8885 8.98325 17.8885C10.9077 17.8885 12.7072 17.2387 14.0319 16.0765C15.469 14.8019 16.2313 13.0149 16.2313 10.903C16.2313 9.31091 15.7976 7.8963 14.9679 6.75037Z" fill="#EB8F00"/>
<path d="M6.53336 8.15662C6.00975 8.15662 5.53363 8.59899 5.53363 9.33379C5.53363 10.0686 6.00975 10.5097 6.53336 10.5097C7.05821 10.5097 7.53308 10.0673 7.53308 9.33379C7.53308 8.60024 7.06321 8.15662 6.53336 8.15662Z" fill="#422B0D"/>
<path d="M6.49114 8.64794C6.31369 8.56296 6.1 8.63794 6.01377 8.81539C5.94754 8.9541 5.97753 9.1203 6.08875 9.22777C6.2662 9.31275 6.47989 9.23777 6.56612 9.06032C6.63235 8.92161 6.60236 8.75541 6.49114 8.64794Z" fill="#896024"/>
<path d="M11.3321 8.15662C10.8085 8.15662 10.3323 8.59899 10.3323 9.33379C10.3323 10.0686 10.8085 10.5097 11.3321 10.5097C11.8557 10.5097 12.3318 10.0673 12.3318 9.33379C12.3318 8.60024 11.8557 8.15662 11.3321 8.15662Z" fill="#422B0D"/>
<path d="M11.2842 8.64794C11.1068 8.56296 10.8931 8.63794 10.8069 8.81539C10.7406 8.9541 10.7706 9.1203 10.8818 9.22777C11.0593 9.31275 11.273 9.23777 11.3592 9.06032C11.4254 8.92161 11.3955 8.75541 11.2842 8.64794Z" fill="#896024"/>
<path d="M9.05587 12.8108C10.1893 12.8008 11.274 13.2782 12.0326 14.1205C12.09 14.1867 12.1038 14.2804 12.0675 14.3604C12.0313 14.4416 11.9513 14.4941 11.8626 14.4954C11.8226 14.4954 11.7826 14.4841 11.7476 14.4641C11.1453 14.118 10.1381 13.6881 9.05837 13.6881H9.04087C7.96242 13.6881 6.95394 14.118 6.35286 14.4641C6.31787 14.4841 6.27788 14.4954 6.23789 14.4954C6.14916 14.4941 6.07044 14.4416 6.0342 14.3604C5.99671 14.2804 6.01045 14.1867 6.06919 14.1205C6.82773 13.2782 7.91118 12.8008 9.04462 12.8108" fill="#422B0D"/>
<path d="M5.13189 2.33425H5.62592C5.62592 2.33425 7.65516 2.05866 9.02743 2.07083C10.3355 2.08243 12.2589 2.33425 12.2589 2.33425H13.0364C13.8279 3.63878 14.3967 4.97844 14.6575 6.35457C12.1005 5.62849 9.02743 7.16316 9.02743 7.16316C9.02743 7.16316 5.90823 5.65527 3.42206 6.19723C3.82001 4.78852 4.31047 3.51014 5.13189 2.33425Z" fill="#7F2125"/>
<path d="M5.13189 2.33425H5.62592C5.62592 2.33425 7.65516 2.05866 9.02743 2.07083C10.3355 2.08243 12.2589 2.33425 12.2589 2.33425H13.0364M5.13189 2.33425C4.31047 3.51014 3.82001 4.78852 3.42206 6.19723C5.90823 5.65527 9.02743 7.16316 9.02743 7.16316C9.02743 7.16316 12.1005 5.62849 14.6575 6.35457C14.3967 4.97844 13.8279 3.63878 13.0364 2.33425M5.13189 2.33425C5.77449 3.03087 6.68998 2.59326 9.02743 3.12934C11.1438 2.60946 12.1627 3.06537 13.0364 2.33425" stroke="#67211F" stroke-width="0.0582032"/>
<path d="M9.04541 7.14038L9.05291 3.1328C10.644 2.64472 11.852 3.02578 13.0457 2.35791C13.5656 3.15589 14.4256 4.65004 14.6669 6.34308C12.6005 5.81199 10.4156 6.51308 9.04541 7.14038Z" fill="#67211F" stroke="#67211F" stroke-width="0.0365292"/>
<path d="M6.31725 2.78608C5.95598 2.54452 5.61703 2.67542 5.63189 2.32849L5.16656 2.34325C5.52926 2.73186 6.0655 2.73085 6.31725 2.78608Z" fill="#67211F"/>
<path d="M11.6966 2.74154C12.0579 2.50243 12.3471 2.6569 12.3322 2.31348H13.0452C12.6825 2.69816 11.9484 2.68687 11.6966 2.74154Z" fill="#67211F" fill-opacity="0.56"/>
<path d="M9.10225 2.37242L9.0211 3.08476L9.17011 3.0745L9.10225 2.37242Z" fill="#67211F" stroke="#67211F" stroke-width="0.0885594"/>
<path d="M7.14825 2.86709C6.88558 2.85243 6.72744 2.83778 6.51029 2.82312C6.37521 4.37291 6.32336 4.75667 6.60481 6.2917C6.98652 6.39145 7.27517 6.48557 7.60468 6.58689C6.832 5.18396 7.04672 4.2827 7.14825 2.86709Z" fill="#D60000" stroke="#67211F" stroke-width="0.0365292"/>
<path d="M6.72218 2.84568L6.53179 2.83081L6.49371 3.11338L6.72218 2.84568Z" fill="#398F00" stroke="#67211F" stroke-width="0.00737995"/>
<path d="M6.41168 3.88637L7.12468 3.06556L7.13219 2.88235L6.7194 2.8457L6.49424 3.10953L6.41168 3.88637Z" fill="#FF7F00" stroke="#67211F" stroke-width="0.00737995"/>
<path d="M6.87555 3.34346C6.87555 3.34346 6.64789 3.0894 6.56783 3.021L6.49278 3.10894L6.41772 3.87844C6.5278 3.74897 6.87555 3.34346 6.87555 3.34346Z" fill="#D60000" stroke="#67211F" stroke-width="0.00737995"/>
<path d="M7.0927 3.95169C7.09347 3.63543 7.10094 3.43931 7.12273 3.06494L6.41723 3.87841C6.3921 4.20113 6.38611 4.37915 6.3797 4.69187L7.0927 3.95169Z" fill="#007FFF" stroke="#67211F" stroke-width="0.00590396"/>
<path d="M6.92008 4.1277L6.56733 3.70264L6.41723 3.87852C6.39765 4.19695 6.38825 4.37364 6.3797 4.692L6.92008 4.1277Z" fill="#398F00" stroke="#67211F" stroke-width="0.00590396"/>
<path d="M6.9501 4.8678L6.60486 4.4574L6.3797 4.69191C6.3872 5.0217 6.40972 5.16827 6.43226 5.43943L6.9501 4.8678Z" fill="#D60000" stroke="#67211F" stroke-width="0.00590396"/>
<path d="M6.92211 5.70325L6.57687 5.28552L6.43427 5.43942C6.49431 5.77654 6.50932 5.86448 6.56936 6.11366L6.92211 5.70325Z" fill="#007FFF" stroke="#67211F" stroke-width="0.00590396"/>
<path d="M7.0148 6.4013L6.67541 5.98889L6.56982 6.11409L6.6175 6.2782L7.0148 6.4013Z" fill="#FF7F00" stroke="#67211F" stroke-width="0.00590396"/>
<path d="M7.13224 4.66987C7.10554 4.4235 7.09546 4.27153 7.09472 3.95166L6.60687 4.45734C6.83203 4.72117 6.787 4.66254 6.95212 4.86774L7.13224 4.66987Z" fill="#FF7F00" stroke="#67211F" stroke-width="0.00590396"/>
<path d="M7.22303 5.35172C7.19301 5.12454 7.15548 5.00728 7.13297 4.67749L6.57758 5.28577C6.79729 5.56561 6.7536 5.50276 6.92282 5.6961L7.22303 5.35172Z" fill="#398F00" stroke="#67211F" stroke-width="0.00590396"/>
<path d="M7.39366 6.00393C7.32612 5.76209 7.28859 5.65949 7.22104 5.35168L6.67316 5.98927C6.84578 6.20913 6.84578 6.20913 7.0184 6.40701L7.39366 6.00393Z" fill="#D60000" stroke="#67211F" stroke-width="0.00590396"/>
<path d="M7.61139 6.57435C7.43793 6.36078 7.44882 6.37136 7.26781 6.14307L7.00854 6.39637C7.3267 6.47979 7.32113 6.47794 7.32113 6.47794L7.61139 6.57435Z" fill="#398F00" stroke="#67211F" stroke-width="0.00590396"/>
<path d="M7.39414 6.00378L7.26593 6.14371L7.59777 6.55611H7.60531L7.39414 6.00378Z" fill="#007FFF" stroke="#67211F" stroke-width="0.00590396"/>
<path d="M7.16909 5.01597L7.13138 4.68457L7.08613 4.72876L7.01825 4.8024L7.16909 5.01597Z" fill="#007FFF" stroke="#67211F" stroke-width="0.00590396"/>
<g filter="url(#filter0_d_1200_7560)">
<path d="M8.12119 3.77126L8.24235 3.5842C8.24235 3.5842 8.37399 4.13282 8.28208 4.48379C8.20901 4.76286 7.9396 5.12701 7.9396 5.12701C7.81628 5.44143 7.82417 5.61388 7.89101 5.91891L7.64512 6.20766C7.64512 6.20766 7.56909 5.80784 7.44624 5.61176C7.26801 5.32728 6.97393 5.40464 6.79257 5.15459C6.52405 4.78436 6.66328 4.00273 6.66328 4.00273L6.88116 4.19113C6.88116 4.19113 7.0132 3.99652 7.14225 3.71722C7.18846 3.6172 7.23429 3.50631 7.27353 3.38962C7.33351 3.21123 7.40031 2.92437 7.40031 2.92437L7.52626 3.18182L7.62756 3.04493C7.62756 3.04493 7.63639 3.24226 7.67377 3.3526C7.75956 3.60585 7.85809 3.69804 8.12119 3.77126Z" fill="url(#paint1_linear_1200_7560)"/>
<path d="M8.12119 3.77126C8.1685 3.6982 8.24235 3.5842 8.24235 3.5842C8.24235 3.5842 8.37399 4.13282 8.28208 4.48379C8.20901 4.76286 7.9396 5.12701 7.9396 5.12701C7.81628 5.44143 7.82417 5.61388 7.89101 5.91891L7.64512 6.20766C7.64512 6.20766 7.56909 5.80784 7.44624 5.61176C7.26801 5.32728 6.97393 5.40464 6.79257 5.15459C6.52405 4.78436 6.66328 4.00273 6.66328 4.00273L6.88116 4.19113M8.12119 3.77126C7.85809 3.69804 7.75956 3.60585 7.67377 3.3526C7.63639 3.24226 7.62756 3.04493 7.62756 3.04493L7.52626 3.18182M8.12119 3.77126C8.11397 3.79773 7.90236 4.25434 7.90236 4.25434C7.90236 4.25434 7.73688 3.93788 7.66247 3.72329M6.88116 4.19113C7.00581 4.33431 7.02456 4.42789 7.05989 4.59378L7.22166 4.00014L7.46848 4.36459L7.5116 3.57125L7.66247 3.72329M6.88116 4.19113C6.88116 4.19113 7.0132 3.99652 7.14225 3.71722C7.18846 3.6172 7.23429 3.50631 7.27353 3.38962C7.33351 3.21123 7.40031 2.92437 7.40031 2.92437L7.52626 3.18182M7.52626 3.18182C7.52626 3.18182 7.59092 3.51695 7.66247 3.72329" stroke="#F8F7FC" stroke-width="0.0365292"/>
</g>
<defs>
<filter id="filter0_d_1200_7560" x="6.60889" y="2.87012" width="1.85106" height="3.49059" filterUnits="userSpaceOnUse" color-interpolation-filters="sRGB">
<feFlood flood-opacity="0" result="BackgroundImageFix"/>
<feColorMatrix in="SourceAlpha" type="matrix" values="0 0 0 0 0 0 0 0 0 0 0 0 0 0 0 0 0 0 127 0" result="hardAlpha"/>
<feOffset dx="0.0737995" dy="0.0590396"/>
<feGaussianBlur stdDeviation="0.0265678"/>
<feComposite in2="hardAlpha" operator="out"/>
<feColorMatrix type="matrix" values="0 0 0 0 0 0 0 0 0 0 0 0 0 0 0 0 0 0 0.25 0"/>
<feBlend mode="normal" in2="BackgroundImageFix" result="effect1_dropShadow_1200_7560"/>
<feBlend mode="normal" in="SourceGraphic" in2="effect1_dropShadow_1200_7560" result="shape"/>
</filter>
<radialGradient id="paint0_radial_1200_7560" cx="0" cy="0" r="1" gradientUnits="userSpaceOnUse" gradientTransform="translate(8.98355 10.9029) scale(7.11802 7.11799)">
<stop offset="0.5" stop-color="#FDE030"/>
<stop offset="0.92" stop-color="#F7C02B"/>
<stop offset="1" stop-color="#F4A223"/>
</radialGradient>
<linearGradient id="paint1_linear_1200_7560" x1="7.80317" y1="3.03052" x2="7.01016" y2="6.04036" gradientUnits="userSpaceOnUse">
<stop stop-color="#C9C9C9"/>
<stop offset="1" stop-color="#939297"/>
</linearGradient>
</defs>
</svg>
