<svg width="18" height="18" viewBox="0 0 18 18" fill="none" xmlns="http://www.w3.org/2000/svg">
<path d="M8.78939 16.6574C5.52346 16.6574 2 14.6089 2 10.1139C2 5.61883 5.52346 3.57031 8.78939 3.57031C10.6038 3.57031 12.2777 4.16731 13.5185 5.25595C14.8647 6.44994 15.5788 8.13557 15.5788 10.1139C15.5788 12.0921 14.8647 13.7661 13.5185 14.96C12.2777 16.0487 10.5921 16.6574 8.78939 16.6574Z" fill="url(#paint0_radial_1193_1432)"/>
<path d="M14.3901 6.22412C15.014 7.23082 15.3394 8.42949 15.3394 9.76278C15.3394 11.7411 14.6254 13.415 13.2792 14.609C12.0384 15.6976 10.3527 16.3063 8.55003 16.3063C6.43596 16.3063 4.21887 15.4459 2.91016 13.621C4.1697 15.6883 6.53897 16.6575 8.78415 16.6575C10.5868 16.6575 12.2725 16.0488 13.5133 14.9602C14.8595 13.7662 15.5735 12.0922 15.5735 10.114C15.5735 8.62264 15.1673 7.29754 14.3901 6.22412Z" fill="#EB8F00"/>
<path opacity="0.8" d="M4.52508 14.5189C5.65645 14.5189 6.57361 13.6018 6.57361 12.4704C6.57361 11.339 5.65645 10.4219 4.52508 10.4219C3.39372 10.4219 2.47656 11.339 2.47656 12.4704C2.47656 13.6018 3.39372 14.5189 4.52508 14.5189Z" fill="url(#paint1_radial_1193_1432)"/>
<path opacity="0.8" d="M12.447 14.5189C13.5783 14.5189 14.4955 13.6018 14.4955 12.4704C14.4955 11.339 13.5783 10.4219 12.447 10.4219C11.3156 10.4219 10.3984 11.339 10.3984 12.4704C10.3984 13.6018 11.3156 14.5189 12.447 14.5189Z" fill="url(#paint2_radial_1193_1432)"/>
<path opacity="0.8" d="M13.0231 14.519C14.1544 14.519 15.0716 13.6019 15.0716 12.4705C15.0716 11.3391 14.1544 10.422 13.0231 10.422C11.8917 10.422 10.9745 11.3391 10.9745 12.4705C10.9745 13.6019 11.8917 14.519 13.0231 14.519Z" fill="url(#paint3_radial_1193_1432)"/>
<path fill-rule="evenodd" clip-rule="evenodd" d="M7.42969 14.0849C7.42969 13.8263 7.63932 13.6167 7.89792 13.6167H9.6538C9.9124 13.6167 10.122 13.8263 10.122 14.0849C10.122 14.3435 9.9124 14.5532 9.6538 14.5532H7.89792C7.63932 14.5532 7.42969 14.3435 7.42969 14.0849Z" fill="#35220B"/>
<path d="M11.7829 7.74023C12.9078 7.74023 13.8197 8.65212 13.8197 9.77704C13.8197 10.902 12.9078 11.8138 11.7829 11.8138C10.658 11.8138 9.74609 10.902 9.74609 9.77704C9.74726 8.65212 10.658 7.7414 11.7829 7.74023Z" fill="white"/>
<path d="M11.7803 10.667C12.2652 10.667 12.6582 10.2687 12.6582 9.77734C12.6582 9.286 12.2652 8.8877 11.7803 8.8877C11.2954 8.8877 10.9023 9.286 10.9023 9.77734C10.9023 10.2687 11.2954 10.667 11.7803 10.667Z" fill="#422B0D"/>
<path d="M5.8708 7.72852C6.99573 7.72852 7.90762 8.6404 7.90762 9.76532C7.90762 10.8902 6.99573 11.8021 5.8708 11.8021C4.74587 11.8021 3.83398 10.8902 3.83398 9.76532C3.83515 8.6404 4.74587 7.72969 5.8708 7.72852Z" fill="white"/>
<path d="M5.8719 10.6555C6.35677 10.6555 6.74983 10.2572 6.74983 9.76586C6.74983 9.27453 6.35677 8.87622 5.8719 8.87622C5.38702 8.87622 4.99396 9.27453 4.99396 9.76586C4.99396 10.2572 5.38702 10.6555 5.8719 10.6555Z" fill="#422B0D"/>
<path d="M6.79172 6.03892H6.80343C6.91464 6.07989 7.03755 6.02253 7.07852 5.91132C7.11949 5.80012 7.06213 5.67721 6.95092 5.63624C6.74139 5.54259 6.51898 5.48289 6.29071 5.46065C5.67616 5.3869 5.05575 5.55078 4.55825 5.91952C4.32413 6.09627 4.56644 6.39477 4.79822 6.27771C5.41746 5.97687 6.11981 5.89259 6.79172 6.03892Z" fill="#422B0D"/>
<path d="M10.804 6.03867H10.7923C10.6811 6.07964 10.5582 6.02228 10.5172 5.91108C10.4762 5.79987 10.5336 5.67696 10.6448 5.63599C10.8543 5.54235 11.0767 5.48265 11.305 5.4604C11.9196 5.38666 12.54 5.55054 13.0375 5.91927C13.2716 6.09603 13.0293 6.39453 12.8034 6.27747C12.1829 5.97546 11.4783 5.89118 10.804 6.03867Z" fill="#422B0D"/>
<path d="M5.29615 2.28242H5.74345C5.74345 2.28242 6.55903 2.17946 7.47088 2.11376C7.85344 2.06058 8.29829 2.01569 8.82323 2C9.27033 2 9.66305 2.0486 10.0124 2.11542C10.9172 2.18119 11.749 2.28242 11.749 2.28242H12.453C13.1696 3.38042 13.6846 4.50798 13.9208 5.66624C11.6056 5.05511 8.7132 5.5338 8.7132 5.5338C8.7132 5.5338 5.99617 5.19973 3.74805 5.5338C4.10836 4.34812 4.55243 3.27215 5.29615 2.28242Z" fill="#7F2125"/>
<path d="M5.29615 2.28242H5.74345C5.74345 2.28242 7.58076 2.05047 8.82323 2.06071C10.0076 2.07047 11.749 2.28242 11.749 2.28242H12.453M5.29615 2.28242C4.55243 3.27215 4.10836 4.34812 3.74805 5.5338C5.99617 5.19973 8.7132 5.5338 8.7132 5.5338C8.7132 5.5338 11.6056 5.05511 13.9208 5.66624C13.6846 4.50798 13.1696 3.38042 12.453 2.28242M5.29615 2.28242C5.96018 2.55844 6.79232 2.06071 8.82323 2C10.745 2 11.662 2.89779 12.453 2.28242" stroke="#67211F" stroke-width="0.065961"/>
<path d="M8.72911 5.49488L8.6875 2.03857C10.4556 2.06121 10.9135 2.3027 12.4345 2.29565C12.9052 2.96729 13.6839 4.22488 13.9023 5.64987C12.0314 5.20286 10.3033 5.2383 8.72911 5.49488Z" fill="#67211F" stroke="#67211F" stroke-width="0.0413981"/>
<path d="M6.39859 2.28226C6.0738 2.08261 5.78142 2.38037 5.70741 2.26717L5.28906 2.27937C5.61514 2.60055 6.17227 2.23661 6.39859 2.28226Z" fill="#67211F"/>
<path d="M11.0839 2.70148C11.411 2.50022 11.6728 2.63024 11.6593 2.34119H12.3049C11.9765 2.66497 11.3118 2.65546 11.0839 2.70148Z" fill="#67211F" fill-opacity="0.56"/>
<path d="M8.73216 2.39114L8.72244 2.9809L8.81001 2.97954L8.73216 2.39114Z" fill="#67211F" stroke="#67211F" stroke-width="0.100363"/>
<path d="M6.66066 2.25264C6.4258 2.2928 6.28875 2.3236 6.09415 2.35456C6.24501 3.74579 6.26072 4.08224 6.77737 5.37636C7.13236 5.38706 7.40405 5.41159 7.71314 5.43421C6.78508 4.35557 6.81778 3.51901 6.66066 2.25264Z" fill="#D60000" stroke="#67211F" stroke-width="0.0413981"/>
<path d="M6.27725 2.32074L6.10941 2.36098L6.12414 2.5984L6.27725 2.32074Z" fill="#398F00" stroke="#67211F" stroke-width="0.00836361"/>
<path d="M6.18542 3.29918L6.67283 2.43279L6.64751 2.2505L6.27605 2.32115L6.12294 2.59882L6.18542 3.29918Z" fill="#FF7F00" stroke="#67211F" stroke-width="0.00836361"/>
<path d="M6.50216 2.72746C6.50216 2.72746 6.2565 2.54985 6.17377 2.50582L6.12273 2.59837L6.19057 3.29076C6.26534 3.15458 6.50216 2.72746 6.50216 2.72746Z" fill="#D60000" stroke="#67211F" stroke-width="0.00836361"/>
<path d="M6.80087 3.21893C6.74639 2.94044 6.71878 2.76633 6.67275 2.43245L6.1907 3.29086C6.22477 3.57996 6.25052 3.73784 6.2994 4.01436L6.80087 3.21893Z" fill="#007FFF" stroke="#67211F" stroke-width="0.00669088"/>
<path d="M6.68096 3.4085L6.29485 3.10566L6.19277 3.29077C6.231 3.57497 6.25351 3.73237 6.30147 4.01428L6.68096 3.4085Z" fill="#398F00" stroke="#67211F" stroke-width="0.00669088"/>
<path d="M6.83581 4.0536L6.45889 3.76214L6.30067 4.01401C6.36483 4.30274 6.41031 4.42719 6.47754 4.66128L6.83581 4.0536Z" fill="#D60000" stroke="#67211F" stroke-width="0.00669088"/>
<path d="M6.95353 4.79499L6.57533 4.49708L6.47606 4.66133C6.58796 4.94589 6.61658 5.02026 6.71314 5.22742L6.95353 4.79499Z" fill="#007FFF" stroke="#67211F" stroke-width="0.00669088"/>
<path d="M7.15266 5.38992L6.78238 5.09694L6.71118 5.22781L6.78672 5.37786L7.15266 5.38992Z" fill="#FF7F00" stroke="#67211F" stroke-width="0.00669088"/>
<path d="M6.95905 3.84287C6.89245 3.63144 6.85703 3.49973 6.80059 3.21836L6.45734 3.76193C6.70249 3.94865 6.65244 3.90615 6.83426 4.05339L6.95905 3.84287Z" fill="#FF7F00" stroke="#67211F" stroke-width="0.00669088"/>
<path d="M7.15914 4.42591C7.09296 4.23203 7.03932 4.13641 6.96189 3.85072L6.5768 4.49823C6.81992 4.70013 6.77032 4.65365 6.9537 4.78963L7.15914 4.42591Z" fill="#398F00" stroke="#67211F" stroke-width="0.00669088"/>
<path d="M7.42285 4.96465C7.32093 4.76544 7.26985 4.68273 7.15642 4.42548L6.78309 5.09727C6.9741 5.2559 6.9741 5.2559 7.16128 5.39518L7.42285 4.96465Z" fill="#D60000" stroke="#67211F" stroke-width="0.00669088"/>
<path d="M7.70884 5.43602C7.51911 5.28384 7.53454 5.276 7.33561 5.11244L7.15139 5.3864C7.43867 5.39529 7.44073 5.39503 7.44066 5.39501L7.70884 5.43602Z" fill="#398F00" stroke="#67211F" stroke-width="0.00669088"/>
<path d="M7.42339 4.96495L7.33483 5.11327L7.69293 5.42385L7.7141 5.43635L7.42339 4.96495Z" fill="#007FFF" stroke="#67211F" stroke-width="0.00669088"/>
<path d="M7.05356 4.13883L6.96285 3.85617L6.93069 3.90396L6.88373 3.9821L7.05356 4.13883Z" fill="#007FFF" stroke="#67211F" stroke-width="0.00669088"/>
<g filter="url(#filter0_d_1193_1432)">
<path d="M7.84934 3.56866L7.95904 3.41121C7.95904 3.41121 8.07823 3.87298 7.99502 4.16838C7.92886 4.40326 7.68493 4.70976 7.68493 4.70976C7.57328 4.97441 7.58042 5.11955 7.64094 5.37628L7.4183 5.61932C7.4183 5.61932 7.34947 5.2828 7.23824 5.11777C7.07686 4.87832 6.8106 4.94344 6.64639 4.73298C6.40327 4.42137 6.52933 3.76348 6.52933 3.76348L6.7266 3.92206C6.7266 3.92206 6.84616 3.75825 6.96299 3.52317C7.00484 3.43899 7.04633 3.34566 7.08186 3.24744C7.13617 3.0973 7.19665 2.85586 7.19665 2.85586L7.31069 3.07254L7.4024 2.95733C7.4024 2.95733 7.4104 3.12341 7.44425 3.21629C7.52192 3.42944 7.61113 3.50703 7.84934 3.56866Z" fill="url(#paint4_linear_1193_1432)"/>
<path d="M7.84934 3.56866C7.89218 3.50717 7.95904 3.41121 7.95904 3.41121C7.95904 3.41121 8.07823 3.87298 7.99502 4.16838C7.92886 4.40326 7.68493 4.70976 7.68493 4.70976C7.57328 4.97441 7.58042 5.11955 7.64094 5.37628L7.4183 5.61932C7.4183 5.61932 7.34947 5.2828 7.23824 5.11777C7.07686 4.87832 6.8106 4.94344 6.64639 4.73298C6.40327 4.42137 6.52933 3.76348 6.52933 3.76348L6.7266 3.92206M7.84934 3.56866C7.61113 3.50703 7.52192 3.42944 7.44425 3.21629C7.4104 3.12341 7.4024 2.95733 7.4024 2.95733L7.31069 3.07254M7.84934 3.56866C7.84281 3.59094 7.65121 3.97526 7.65121 3.97526C7.65121 3.97526 7.50138 3.7089 7.43401 3.52828M6.7266 3.92206C6.83946 4.04257 6.85644 4.12133 6.88842 4.26096L7.03489 3.7613L7.25837 4.06805L7.29741 3.40032L7.43401 3.52828M6.7266 3.92206C6.7266 3.92206 6.84616 3.75825 6.96299 3.52317C7.00484 3.43899 7.04633 3.34566 7.08186 3.24744C7.13617 3.0973 7.19665 2.85586 7.19665 2.85586L7.31069 3.07254M7.31069 3.07254C7.31069 3.07254 7.36923 3.35461 7.43401 3.52828" stroke="#F8F7FC" stroke-width="0.0413981"/>
</g>
<defs>
<filter id="filter0_d_1193_1432" x="6.47574" y="2.79761" width="1.71359" height="2.99261" filterUnits="userSpaceOnUse" color-interpolation-filters="sRGB">
<feFlood flood-opacity="0" result="BackgroundImageFix"/>
<feColorMatrix in="SourceAlpha" type="matrix" values="0 0 0 0 0 0 0 0 0 0 0 0 0 0 0 0 0 0 127 0" result="hardAlpha"/>
<feOffset dx="0.0836361" dy="0.0669089"/>
<feGaussianBlur stdDeviation="0.030109"/>
<feComposite in2="hardAlpha" operator="out"/>
<feColorMatrix type="matrix" values="0 0 0 0 0 0 0 0 0 0 0 0 0 0 0 0 0 0 0.25 0"/>
<feBlend mode="normal" in2="BackgroundImageFix" result="effect1_dropShadow_1193_1432"/>
<feBlend mode="normal" in="SourceGraphic" in2="effect1_dropShadow_1193_1432" result="shape"/>
</filter>
<radialGradient id="paint0_radial_1193_1432" cx="0" cy="0" r="1" gradientUnits="userSpaceOnUse" gradientTransform="translate(8.78939 10.1139) scale(6.66761 6.66758)">
<stop offset="0.5" stop-color="#FDE030"/>
<stop offset="0.92" stop-color="#F7C02B"/>
<stop offset="1" stop-color="#F4A223"/>
</radialGradient>
<radialGradient id="paint1_radial_1193_1432" cx="0" cy="0" r="1" gradientUnits="userSpaceOnUse" gradientTransform="translate(4.53939 12.4525) scale(2.2301 2.11631)">
<stop stop-color="#ED7770"/>
<stop offset="0.9" stop-color="#ED7770" stop-opacity="0"/>
</radialGradient>
<radialGradient id="paint2_radial_1193_1432" cx="0" cy="0" r="1" gradientUnits="userSpaceOnUse" gradientTransform="translate(12.4611 12.4525) scale(2.2301 2.11631)">
<stop stop-color="#ED7770"/>
<stop offset="0.9" stop-color="#ED7770" stop-opacity="0"/>
</radialGradient>
<radialGradient id="paint3_radial_1193_1432" cx="0" cy="0" r="1" gradientUnits="userSpaceOnUse" gradientTransform="translate(18.5986 126.216) scale(2.27562 2.27561)">
<stop stop-color="#ED7770"/>
<stop offset="0.9" stop-color="#ED7770" stop-opacity="0"/>
</radialGradient>
<linearGradient id="paint4_linear_1193_1432" x1="7.56141" y1="2.9452" x2="6.93541" y2="5.50105" gradientUnits="userSpaceOnUse">
<stop stop-color="#C9C9C9"/>
<stop offset="1" stop-color="#939297"/>
</linearGradient>
</defs>
</svg>
