<svg width="18" height="18" viewBox="0 0 18 18" fill="none" xmlns="http://www.w3.org/2000/svg">
<path d="M9.01556 16.8814C5.52902 16.8814 1.76755 14.6945 1.76755 9.89584C1.76755 5.09717 5.52902 2.91028 9.01556 2.91028C10.9525 2.91028 12.7395 3.5476 14.0642 4.70978C15.5013 5.98442 16.2636 7.78392 16.2636 9.89584C16.2636 12.0078 15.5013 13.7948 14.0642 15.0694C12.7395 16.2316 10.94 16.8814 9.01556 16.8814Z" fill="url(#paint0_radial_1206_10704)"/>
<path d="M15.0029 5.74292C15.669 6.81762 16.0164 8.09727 16.0164 9.52062C16.0164 11.6325 15.2541 13.4195 13.817 14.6942C12.4923 15.8564 10.6928 16.5062 8.76835 16.5062C6.51147 16.5062 4.13962 15.5877 2.7475 13.6395C4.09213 15.8464 6.62019 16.8811 9.01828 16.8811C10.9428 16.8811 12.7423 16.2313 14.0669 15.0691C15.504 13.7944 16.2663 12.0074 16.2663 9.89552C16.2663 8.30346 15.8327 6.88885 15.0029 5.74292Z" fill="#EB8F00"/>
<path opacity="0.8" d="M4.47407 13.2002C5.68186 13.2002 6.66097 12.2211 6.66097 11.0133C6.66097 9.80552 5.68186 8.82642 4.47407 8.82642C3.26628 8.82642 2.28717 9.80552 2.28717 11.0133C2.28717 12.2211 3.26628 13.2002 4.47407 13.2002Z" fill="url(#paint1_radial_1206_10704)"/>
<path opacity="0.8" d="M13.6611 13.2002C14.8688 13.2002 15.848 12.2211 15.848 11.0133C15.848 9.80552 14.8688 8.82642 13.6611 8.82642C12.4533 8.82642 11.4742 9.80552 11.4742 11.0133C11.4742 12.2211 12.4533 13.2002 13.6611 13.2002Z" fill="url(#paint2_radial_1206_10704)"/>
<path d="M7.18703 9.14696C7.18703 9.14696 7.18078 9.13822 7.16703 9.12197C7.15454 9.10573 7.13704 9.08323 7.11455 9.05449C7.0958 9.0345 7.07331 9.01075 7.04707 8.98326C7.02082 8.95327 6.98833 8.92203 6.95584 8.88954C6.9221 8.85829 6.88711 8.8258 6.85087 8.79956C6.81588 8.77082 6.77714 8.74957 6.7459 8.73208C6.71341 8.71208 6.68342 8.70709 6.66467 8.70084C6.65467 8.69709 6.64593 8.69709 6.63843 8.69584C6.63468 8.69709 6.63093 8.69459 6.62718 8.69584L6.62218 8.69709H6.61968H6.61843C6.63343 8.69709 6.58469 8.69834 6.65217 8.69584L6.58344 8.69834C6.56595 8.69834 6.5772 8.69959 6.57845 8.69959C6.58219 8.69959 6.58469 8.69959 6.58719 8.69834C6.59719 8.69459 6.58719 8.69834 6.58469 8.69834C6.58094 8.69834 6.57595 8.69959 6.57095 8.70209C6.55095 8.70834 6.52096 8.71333 6.48972 8.73333C6.45848 8.75082 6.41974 8.77207 6.38475 8.80081C6.34976 8.8283 6.31352 8.85954 6.27978 8.89079C6.21479 8.95452 6.15731 9.01825 6.11732 9.06449C6.07608 9.11197 6.05359 9.13947 6.05359 9.13947L6.02485 9.17321C5.85364 9.37315 5.53873 9.40689 5.32254 9.24944C5.17508 9.14197 5.11135 8.97451 5.13884 8.81456C5.13884 8.81456 5.14759 8.76332 5.17258 8.6746C5.19882 8.58587 5.24256 8.45966 5.32879 8.31095C5.41501 8.16349 5.53998 7.98979 5.75117 7.83108C5.85489 7.7536 5.98111 7.67612 6.13107 7.62364C6.16731 7.60989 6.20605 7.59739 6.24604 7.5874C6.28727 7.5774 6.31977 7.56615 6.376 7.55866L6.45348 7.54741C6.47722 7.54491 6.51221 7.54116 6.51721 7.54116L6.58594 7.53616L6.62468 7.53491H6.62843H6.63593L6.65217 7.53616H6.68217L6.7459 7.53991C6.78839 7.54366 6.82963 7.55116 6.87086 7.55741C6.95209 7.5724 7.03332 7.59365 7.10705 7.62114C7.25701 7.67362 7.38322 7.74985 7.48695 7.82858C7.69814 7.98729 7.8231 8.16099 7.90933 8.30845C7.95307 8.38218 7.98556 8.45216 8.0093 8.51339C8.03555 8.57212 8.05429 8.63461 8.06929 8.68084C8.08303 8.72583 8.08303 8.74957 8.08928 8.77082C8.09303 8.79081 8.09428 8.80206 8.09428 8.80206C8.14052 9.05449 7.95432 9.29317 7.68064 9.33441C7.48445 9.36565 7.29575 9.28693 7.18703 9.14696Z" fill="#422B0D"/>
<path d="M12.1234 9.14684C12.1234 9.14684 12.1172 9.13809 12.1034 9.12185C12.0909 9.1056 12.0734 9.08311 12.0509 9.05437C12.0322 9.03437 12.0097 9.01063 11.9835 8.98314C11.9572 8.95315 11.9247 8.9219 11.8922 8.88941C11.8585 8.85817 11.8235 8.82568 11.7873 8.79944C11.7523 8.7707 11.7135 8.74945 11.6823 8.73196C11.6498 8.71196 11.6198 8.70696 11.6011 8.70072C11.5911 8.69697 11.5823 8.69697 11.5748 8.69572C11.5711 8.69697 11.5673 8.69447 11.5636 8.69572L11.5586 8.69697H11.5561H11.5548H11.5536C11.5686 8.69697 11.5198 8.69822 11.5873 8.69572L11.5186 8.69822C11.5011 8.69822 11.5123 8.69947 11.5136 8.69947C11.5173 8.69947 11.5198 8.69947 11.5223 8.69822C11.5323 8.69447 11.5223 8.69822 11.5198 8.69822C11.5161 8.69822 11.5111 8.69947 11.5061 8.70197C11.4861 8.70821 11.4561 8.71321 11.4249 8.73321C11.3936 8.7507 11.3549 8.77195 11.3199 8.80069C11.2849 8.82818 11.2487 8.85942 11.2149 8.89066C11.1499 8.9544 11.0925 9.01813 11.0525 9.06436C11.0112 9.11185 10.9887 9.13934 10.9887 9.13934L10.96 9.17308C10.7888 9.37303 10.4739 9.40677 10.2577 9.24931C10.1102 9.14184 10.0465 8.97439 10.074 8.81443C10.074 8.81443 10.0827 8.7632 10.1077 8.67447C10.134 8.58575 10.1777 8.45953 10.2639 8.31082C10.3502 8.16337 10.4751 7.98966 10.6863 7.83096C10.79 7.75348 10.9163 7.676 11.0662 7.62352C11.1025 7.60977 11.1412 7.59727 11.1812 7.58728C11.2224 7.57728 11.2549 7.56603 11.3112 7.55853L11.3886 7.54729C11.4124 7.54479 11.4474 7.54104 11.4524 7.54104L11.5211 7.53604L11.5598 7.53479H11.5636H11.5711L11.5873 7.53604H11.6173L11.681 7.53979C11.7235 7.54354 11.7648 7.55104 11.806 7.55728C11.8872 7.57228 11.9685 7.59352 12.0422 7.62102C12.1922 7.6735 12.3184 7.74973 12.4221 7.82846C12.6333 7.98716 12.7583 8.16087 12.8445 8.30832C12.8882 8.38205 12.9207 8.45204 12.9445 8.51327C12.9707 8.572 12.9894 8.63448 13.0044 8.68072C13.0182 8.72571 13.0182 8.74945 13.0244 8.7707C13.0282 8.79069 13.0294 8.80194 13.0294 8.80194C13.0757 9.05437 12.8895 9.29305 12.6158 9.33429C12.4196 9.36553 12.2309 9.2868 12.1234 9.14684Z" fill="#422B0D"/>
<path d="M9.06995 13.781C7.49913 13.781 6.25697 13.0375 5.57216 12.2415C5.50343 12.1615 5.48718 12.054 5.53092 11.9603C5.57466 11.8641 5.66963 11.8016 5.7721 11.8016C5.81834 11.8016 5.86583 11.8141 5.90706 11.8378C6.61312 12.2452 7.79905 12.7488 9.0662 12.7488H9.0862C10.3546 12.7488 11.5393 12.244 12.2453 11.8378C12.2878 11.8141 12.3341 11.8003 12.3803 11.8016C12.4828 11.8016 12.5777 11.8641 12.6215 11.9603C12.664 12.054 12.649 12.1627 12.5802 12.2415C11.8954 13.0362 10.652 13.781 9.08245 13.781" fill="#422B0D"/>
<path d="M5.18166 1.32228H5.67456C5.67456 1.32228 7.69917 1.04669 9.06831 1.05886C10.3734 1.07046 12.2924 1.32228 12.2924 1.32228H13.0681C13.8578 2.62682 14.4253 3.96648 14.6855 5.34261C12.1343 4.61653 9.06831 6.1512 9.06831 6.1512C9.06831 6.1512 5.95623 4.64331 3.47574 5.18526C3.87278 3.77655 4.36212 2.49818 5.18166 1.32228Z" fill="#7F2125"/>
<path d="M5.18166 1.32228H5.67456C5.67456 1.32228 7.69917 1.04669 9.06831 1.05886C10.3734 1.07046 12.2924 1.32228 12.2924 1.32228H13.0681M5.18166 1.32228C4.36212 2.49818 3.87278 3.77655 3.47574 5.18526C5.95623 4.64331 9.06831 6.1512 9.06831 6.1512C9.06831 6.1512 12.1343 4.61653 14.6855 5.34261C14.4253 3.96648 13.8578 2.62682 13.0681 1.32228M5.18166 1.32228C5.8228 2.0189 6.7362 1.5813 9.06831 2.11738C11.1798 1.5975 12.1964 2.0534 13.0681 1.32228" stroke="#67211F" stroke-width="0.0582032"/>
<path d="M9.08469 6.12841L9.09217 2.12084C10.6797 1.63276 11.8849 2.01381 13.0759 1.34595C13.5946 2.14392 14.4526 3.63808 14.6933 5.33112C12.6316 4.80002 10.4517 5.50112 9.08469 6.12841Z" fill="#67211F" stroke="#67211F" stroke-width="0.0365292"/>
<path d="M6.36131 1.77411C6.00087 1.53256 5.6627 1.66346 5.67752 1.31653L5.21326 1.33129C5.57513 1.7199 6.11014 1.71888 6.36131 1.77411Z" fill="#67211F"/>
<path d="M11.7298 1.7297C12.0902 1.49059 12.3787 1.64506 12.3639 1.30164H13.0753C12.7134 1.68632 11.981 1.67503 11.7298 1.7297Z" fill="#67211F" fill-opacity="0.56"/>
<path d="M9.13997 1.36058L9.05901 2.07292L9.20768 2.06266L9.13997 1.36058Z" fill="#67211F" stroke="#67211F" stroke-width="0.0885594"/>
<path d="M7.19207 1.85488C6.93001 1.84023 6.77222 1.82557 6.55558 1.81091C6.4208 3.3607 6.36907 3.74446 6.64988 5.27949C7.03072 5.37925 7.31871 5.47336 7.64747 5.57469C6.87655 4.17175 7.09078 3.27049 7.19207 1.85488Z" fill="#D60000" stroke="#67211F" stroke-width="0.0365292"/>
<path d="M6.76703 1.83299L6.57708 1.81812L6.53909 2.10069L6.76703 1.83299Z" fill="#398F00" stroke="#67211F" stroke-width="0.00737995"/>
<path d="M6.45621 2.87392L7.16758 2.05311L7.17507 1.8699L6.76322 1.83325L6.53858 2.09708L6.45621 2.87392Z" fill="#FF7F00" stroke="#67211F" stroke-width="0.00737995"/>
<path d="M6.9208 2.33149C6.9208 2.33149 6.69366 2.07743 6.61378 2.00903L6.5389 2.09698L6.46402 2.86648C6.57385 2.73701 6.9208 2.33149 6.9208 2.33149Z" fill="#D60000" stroke="#67211F" stroke-width="0.00737995"/>
<path d="M7.13737 2.93973C7.13814 2.62347 7.14558 2.42735 7.16732 2.05298L6.46344 2.86644C6.43837 3.18916 6.43239 3.36719 6.42599 3.67991L7.13737 2.93973Z" fill="#007FFF" stroke="#67211F" stroke-width="0.00590396"/>
<path d="M6.96514 3.11586L6.6132 2.6908L6.46344 2.86668C6.4439 3.18511 6.43453 3.3618 6.42599 3.68016L6.96514 3.11586Z" fill="#398F00" stroke="#67211F" stroke-width="0.00590396"/>
<path d="M6.99509 3.85572L6.65064 3.44531L6.42599 3.67983C6.43348 4.00962 6.45595 4.15619 6.47844 4.42735L6.99509 3.85572Z" fill="#D60000" stroke="#67211F" stroke-width="0.00590396"/>
<path d="M6.96537 4.69141L6.62091 4.27368L6.47864 4.42758C6.53854 4.7647 6.55352 4.85264 6.61342 5.10182L6.96537 4.69141Z" fill="#007FFF" stroke="#67211F" stroke-width="0.00590396"/>
<path d="M7.05812 5.38958L6.71951 4.97717L6.61417 5.10237L6.66173 5.26648L7.05812 5.38958Z" fill="#FF7F00" stroke="#67211F" stroke-width="0.00590396"/>
<path d="M7.17343 3.65815C7.14679 3.41178 7.13673 3.25981 7.13599 2.93994L6.64926 3.44562C6.87391 3.70945 6.82898 3.65082 6.99372 3.85602L7.17343 3.65815Z" fill="#FF7F00" stroke="#67211F" stroke-width="0.00590396"/>
<path d="M7.26401 4.33952C7.23405 4.11233 7.19661 3.99507 7.17415 3.66528L6.62003 4.27356C6.83924 4.5534 6.79565 4.49055 6.96448 4.68389L7.26401 4.33952Z" fill="#398F00" stroke="#67211F" stroke-width="0.00590396"/>
<path d="M7.43831 4.99185C7.37092 4.75 7.33348 4.6474 7.26609 4.3396L6.71945 4.97719C6.89168 5.19705 6.89168 5.19705 7.06391 5.39492L7.43831 4.99185Z" fill="#D60000" stroke="#67211F" stroke-width="0.00590396"/>
<path d="M7.65533 5.56226C7.48226 5.3487 7.49313 5.35928 7.31254 5.13098L7.05386 5.38428C7.37129 5.46771 7.36574 5.46586 7.36574 5.46586L7.65533 5.56226Z" fill="#398F00" stroke="#67211F" stroke-width="0.00590396"/>
<path d="M7.43721 4.99146L7.3093 5.13138L7.64038 5.54378H7.64791L7.43721 4.99146Z" fill="#007FFF" stroke="#67211F" stroke-width="0.00590396"/>
<path d="M7.21315 4.004L7.17552 3.67261L7.13037 3.71679L7.06265 3.79044L7.21315 4.004Z" fill="#007FFF" stroke="#67211F" stroke-width="0.00590396"/>
<g filter="url(#filter0_d_1206_10704)">
<path d="M8.16526 2.75929L8.28614 2.57223C8.28614 2.57223 8.41748 3.12086 8.32579 3.47183C8.25288 3.75089 7.98408 4.11505 7.98408 4.11505C7.86105 4.42947 7.86892 4.60192 7.93561 4.90695L7.69028 5.1957C7.69028 5.1957 7.61442 4.79588 7.49186 4.5998C7.31403 4.31531 7.02062 4.39268 6.83968 4.14263C6.57177 3.7724 6.71068 2.99077 6.71068 2.99077L6.92806 3.17917C6.92806 3.17917 7.0598 2.98455 7.18855 2.70526C7.23466 2.60523 7.28038 2.49435 7.31953 2.37766C7.37938 2.19927 7.44602 1.91241 7.44602 1.91241L7.57169 2.16986L7.67276 2.03297C7.67276 2.03297 7.68157 2.2303 7.71887 2.34064C7.80446 2.59388 7.90276 2.68608 8.16526 2.75929Z" fill="url(#paint3_linear_1206_10704)"/>
<path d="M8.16526 2.75929C8.21246 2.68624 8.28614 2.57223 8.28614 2.57223C8.28614 2.57223 8.41748 3.12086 8.32579 3.47183C8.25288 3.75089 7.98408 4.11505 7.98408 4.11505C7.86105 4.42947 7.86892 4.60192 7.93561 4.90695L7.69028 5.1957C7.69028 5.1957 7.61442 4.79588 7.49186 4.5998C7.31403 4.31531 7.02062 4.39268 6.83968 4.14263C6.57177 3.7724 6.71068 2.99077 6.71068 2.99077L6.92806 3.17917M8.16526 2.75929C7.90276 2.68608 7.80446 2.59388 7.71887 2.34064C7.68157 2.2303 7.67276 2.03297 7.67276 2.03297L7.57169 2.16986M8.16526 2.75929C8.15806 2.78576 7.94693 3.24238 7.94693 3.24238C7.94693 3.24238 7.78182 2.92592 7.70759 2.71132M6.92806 3.17917C7.05242 3.32235 7.07114 3.41592 7.10638 3.58182L7.26778 2.98817L7.51404 3.35263L7.55706 2.55929L7.70759 2.71132M6.92806 3.17917C6.92806 3.17917 7.0598 2.98456 7.18855 2.70526C7.23466 2.60523 7.28038 2.49435 7.31953 2.37766C7.37938 2.19927 7.44602 1.91241 7.44602 1.91241L7.57169 2.16986M7.57169 2.16986C7.57169 2.16986 7.6362 2.50499 7.70759 2.71132" stroke="#F8F7FC" stroke-width="0.0365292"/>
</g>
<defs>
<filter id="filter0_d_1206_10704" x="6.65637" y="1.85803" width="1.84718" height="3.49072" filterUnits="userSpaceOnUse" color-interpolation-filters="sRGB">
<feFlood flood-opacity="0" result="BackgroundImageFix"/>
<feColorMatrix in="SourceAlpha" type="matrix" values="0 0 0 0 0 0 0 0 0 0 0 0 0 0 0 0 0 0 127 0" result="hardAlpha"/>
<feOffset dx="0.0737995" dy="0.0590396"/>
<feGaussianBlur stdDeviation="0.0265678"/>
<feComposite in2="hardAlpha" operator="out"/>
<feColorMatrix type="matrix" values="0 0 0 0 0 0 0 0 0 0 0 0 0 0 0 0 0 0 0.25 0"/>
<feBlend mode="normal" in2="BackgroundImageFix" result="effect1_dropShadow_1206_10704"/>
<feBlend mode="normal" in="SourceGraphic" in2="effect1_dropShadow_1206_10704" result="shape"/>
</filter>
<radialGradient id="paint0_radial_1206_10704" cx="0" cy="0" r="1" gradientUnits="userSpaceOnUse" gradientTransform="translate(9.01556 9.89583) scale(7.11802 7.11799)">
<stop offset="0.5" stop-color="#FDE030"/>
<stop offset="0.9188" stop-color="#F7C02B"/>
<stop offset="1" stop-color="#F4A223"/>
</radialGradient>
<radialGradient id="paint1_radial_1206_10704" cx="0" cy="0" r="1" gradientUnits="userSpaceOnUse" gradientTransform="translate(4.47414 11.0131) scale(2.3791 2.26003)">
<stop stop-color="#ED7770"/>
<stop offset="0.9" stop-color="#ED7770" stop-opacity="0"/>
</radialGradient>
<radialGradient id="paint2_radial_1206_10704" cx="0" cy="0" r="1" gradientUnits="userSpaceOnUse" gradientTransform="translate(13.6614 11.0131) scale(2.3791 2.26003)">
<stop stop-color="#ED7770"/>
<stop offset="0.9" stop-color="#ED7770" stop-opacity="0"/>
</radialGradient>
<linearGradient id="paint3_linear_1206_10704" x1="7.84797" y1="2.01856" x2="7.05337" y2="5.02751" gradientUnits="userSpaceOnUse">
<stop stop-color="#C9C9C9"/>
<stop offset="1" stop-color="#939297"/>
</linearGradient>
</defs>
</svg>
