<svg width="18" height="18" viewBox="0 0 18 18" fill="none" xmlns="http://www.w3.org/2000/svg">
<path d="M9.17142 17.1606C5.72172 17.1606 2 14.9155 2 9.98917C2 5.06283 5.72172 2.81775 9.17142 2.81775C11.0879 2.81775 12.856 3.47203 14.1667 4.66513C15.5886 5.97369 16.3428 7.82106 16.3428 9.98917C16.3428 12.1573 15.5886 13.9918 14.1667 15.3004C12.856 16.4935 11.0756 17.1606 9.17142 17.1606Z" fill="url(#paint0_radial_1193_671)"/>
<path d="M15.091 5.72577C15.75 6.82906 16.0937 8.14276 16.0937 9.60398C16.0937 11.7721 15.3395 13.6066 13.9176 14.9152C12.6069 16.1083 10.8264 16.7754 8.92231 16.7754C6.68928 16.7754 4.34744 15.8325 2.96509 13.8324C4.29551 16.098 6.79809 17.1603 9.1696 17.1603C11.0737 17.1603 12.8542 16.4932 14.1649 15.3001C15.5868 13.9915 16.341 12.157 16.341 9.98885C16.341 8.35443 15.912 6.90219 15.091 5.72577Z" fill="#EB8F00"/>
<path d="M9.26691 12.6087C8.82426 12.6087 8.38532 12.5317 7.96863 12.3777C7.45551 12.1943 6.89787 12.4778 6.72105 13.0089C6.6209 13.3091 6.6617 13.6401 6.8311 13.9044C7.36277 14.7511 8.20356 15.213 9.26691 15.213C10.3303 15.213 11.171 14.7511 11.7027 13.9044C12.0032 13.4361 11.8795 12.8037 11.4282 12.4919C11.1735 12.3162 10.8545 12.2738 10.5652 12.3777C10.1485 12.5317 9.70956 12.6087 9.26691 12.6087Z" fill="#422B0D"/>
<path opacity="0.8" d="M5.5343 13.3654C6.72933 13.3654 7.69809 12.4177 7.69809 11.2486C7.69809 10.0796 6.72933 9.13184 5.5343 9.13184C4.33928 9.13184 3.37051 10.0796 3.37051 11.2486C3.37051 12.4177 4.33928 13.3654 5.5343 13.3654Z" fill="url(#paint1_radial_1193_671)"/>
<path opacity="0.8" d="M13.0045 13.3654C14.1996 13.3654 15.1683 12.4177 15.1683 11.2486C15.1683 10.0796 14.1996 9.13184 13.0045 9.13184C11.8095 9.13184 10.8407 10.0796 10.8407 11.2486C10.8407 12.4177 11.8095 13.3654 13.0045 13.3654Z" fill="url(#paint2_radial_1193_671)"/>
<path d="M14.6094 6.3316C13.5943 6.03525 12.8487 6.89608 12.8487 6.89608C12.8487 6.89608 12.7621 5.91979 11.8942 5.61318C10.8531 5.24242 9.75386 5.83255 9.68832 7.36305C9.61414 9.10652 11.8373 11.3952 11.8373 11.3952C11.8373 11.3952 14.597 10.6255 15.5009 8.99362C16.2366 7.66582 15.3772 6.55483 14.6094 6.3316Z" fill="#F44336"/>
<path d="M14.6119 6.32765C14.4871 6.29301 14.3585 6.27762 14.2299 6.28018C14.5934 6.53291 14.8815 6.88571 15.0608 7.29881C15.2351 7.73371 15.2809 8.29562 14.9495 8.96658C14.2311 10.4252 12.0191 11.3284 11.8584 11.3913C12.0599 11.3322 14.6391 10.5625 15.5084 8.99352C16.2391 7.66187 15.3798 6.55087 14.6119 6.32765Z" fill="#C62828"/>
<path d="M12.8496 7.05163C12.8422 6.91821 12.8224 6.78479 12.7927 6.65393C12.721 6.27676 12.496 5.94962 12.1745 5.7559C11.9544 5.62248 11.7108 5.53781 11.4586 5.50574C11.4586 5.50574 11.8295 5.62248 12.0941 6.15489C12.2289 6.43456 12.3093 6.73989 12.3291 7.05163C12.3278 7.16581 12.3476 7.27742 12.3872 7.3839C12.4317 7.49039 12.5405 7.55325 12.6518 7.53529C12.8212 7.49039 12.8583 7.27101 12.8496 7.05163Z" fill="#C62828"/>
<path d="M10.4466 6.44004C10.6778 6.14241 11.0574 5.85889 11.4209 6.1206C11.6138 6.26044 11.6163 6.65685 11.3801 6.83518C10.982 7.13794 10.9634 7.33679 10.9189 7.50357C10.8645 7.70242 10.8299 7.93975 10.6555 8.03982C10.4812 8.13989 10.3279 8.03982 10.2364 7.75373C10.0806 7.30728 10.1597 6.80952 10.4466 6.44004Z" fill="#FF847A"/>
<path d="M6.34321 5.58804C5.34045 5.92545 5.17971 7.07108 5.17971 7.07108C5.17971 7.07108 4.58621 6.30134 3.69597 6.55022C2.63386 6.84015 2.03418 7.96398 2.79212 9.27382C3.67 10.7748 6.74135 11.397 6.74135 11.397C6.74135 11.397 8.62694 9.1699 8.50824 7.29174C8.41056 5.76252 7.10116 5.33275 6.34321 5.58804Z" fill="#F44336"/>
<path d="M6.3436 5.58805C6.22119 5.6291 6.10373 5.68812 5.99615 5.76252C6.43386 5.76381 6.86167 5.8921 7.23261 6.13328C7.61096 6.38986 7.94851 6.83631 8.03259 7.58681C8.21435 9.21481 6.85425 11.2379 6.74915 11.3855C6.8864 11.2213 8.62114 9.09678 8.50739 7.29046C8.41094 5.76252 7.10154 5.33275 6.3436 5.58805Z" fill="#C62828"/>
<path d="M5.26561 7.20475C5.18895 7.0957 5.1024 6.99563 5.00596 6.90583C4.7463 6.63129 4.3865 6.48504 4.0168 6.50557C3.76333 6.52096 3.5148 6.58895 3.28729 6.70826C3.28729 6.70826 3.65823 6.59152 4.1627 6.88402C4.42606 7.04182 4.65481 7.2535 4.8378 7.50495C4.89715 7.60116 4.97381 7.68327 5.06407 7.7487C5.15804 7.81156 5.28169 7.80001 5.36453 7.72176C5.47457 7.5832 5.38926 7.3805 5.26561 7.20475Z" fill="#C62828"/>
<path d="M2.93882 8.07812C2.94377 7.97036 2.96231 7.86388 2.99322 7.76125C3.04392 7.54572 3.19106 7.3674 3.38765 7.28144C3.57683 7.21986 3.83896 7.26348 3.94035 7.45977C4.03061 7.63424 3.96508 7.84464 3.91562 8.03707C3.8711 8.25773 3.84638 8.48352 3.84143 8.70931C3.84267 8.89405 3.70047 9.04415 3.52243 9.04671C3.35427 9.04671 3.2232 8.89533 3.12923 8.75036C2.99817 8.5528 2.9314 8.31803 2.93882 8.07812Z" fill="#FF847A"/>
<path d="M5.74456 1.23304H6.18764C6.18764 1.23304 8.0076 0.989597 9.23833 1.00035C10.4115 1.01059 12.1365 1.23304 12.1365 1.23304H12.8338C13.5437 2.38539 14.0538 3.56877 14.2877 4.78436C12.1365 5.04971 9.27296 5.67414 9.27296 5.67414C9.27296 5.67414 6.56027 5.11921 4.21107 4.64537C4.56798 3.401 5.00786 2.27176 5.74456 1.23304Z" fill="#7F2125"/>
<path d="M5.74456 1.23304H6.18764C6.18764 1.23304 8.00759 0.989597 9.23833 1.00035C10.4115 1.01059 12.1365 1.23304 12.1365 1.23304H12.8338M5.74456 1.23304C5.00786 2.27176 4.56798 3.401 4.21107 4.64537C6.56027 5.11921 9.27296 5.67414 9.27296 5.67414C9.27296 5.67414 12.1365 5.04971 14.2877 4.78436C14.0538 3.56877 13.5437 2.38539 12.8338 1.23304M5.74456 1.23304C6.32089 1.84839 7.14196 1.46184 9.23833 1.93538C11.1364 1.47615 12.0503 1.87887 12.8338 1.23304" stroke="#67211F" stroke-width="0.0581497"/>
<path d="M9.27912 5.66642L9.25893 1.93731C10.6859 1.50616 11.7694 1.84276 12.8399 1.25281C13.3062 1.9577 14.0775 3.27755 14.2939 4.77308C12.6515 4.96236 10.0397 5.50344 9.27912 5.66642Z" fill="#67211F" stroke="#67211F" stroke-width="0.0364956"/>
<path d="M11.6324 1.59145C11.9564 1.38023 12.2157 1.51668 12.2024 1.21332H12.8419C12.5166 1.55313 11.8582 1.54315 11.6324 1.59145Z" fill="#67211F" fill-opacity="0.56"/>
<path d="M6.80493 1.63394C6.48092 1.42057 6.17693 1.53619 6.19025 1.22974L5.77292 1.24277C6.09821 1.58605 6.57914 1.58515 6.80493 1.63394Z" fill="#67211F"/>
<path d="M9.3027 1.26757L9.22992 1.89682L9.36356 1.88775L9.3027 1.26757Z" fill="#67211F" stroke="#67211F" stroke-width="0.088478"/>
<path d="M7.55285 1.69162C7.31977 1.67665 7.17948 1.66245 6.98682 1.64782C6.80406 3.00202 6.71684 3.92876 7.1951 5.22838C7.5077 5.29615 7.83385 5.33797 8.14651 5.39923C7.47153 4.14571 7.4516 2.94998 7.55285 1.69162Z" fill="#D60000" stroke="#67211F" stroke-width="0.0364956"/>
<path d="M7.16693 1.6674L7.00046 1.65299L6.96496 1.90041L7.16693 1.6674Z" fill="#398F00" stroke="#67211F" stroke-width="0.00737316"/>
<path d="M6.88738 2.59176L7.52684 1.86693L7.53494 1.70403L7.16875 1.6684L6.96678 1.90141L6.88738 2.59176Z" fill="#FF7F00" stroke="#67211F" stroke-width="0.00737316"/>
<path d="M7.29948 2.11446C7.29948 2.11446 7.09936 1.88681 7.02882 1.82538L6.9615 1.90305L6.88882 2.58694C6.98756 2.47259 7.29948 2.11446 7.29948 2.11446Z" fill="#D60000" stroke="#67211F" stroke-width="0.00737316"/>
<path d="M7.48878 2.65401C7.49194 2.37272 7.50011 2.19833 7.52239 1.86551L6.88966 2.58386C6.86482 2.87072 6.8581 3.02901 6.84996 3.30712L7.48878 2.65401Z" fill="#007FFF" stroke="#67211F" stroke-width="0.00589853"/>
<path d="M7.3317 2.80965L7.02187 2.42899L6.88722 2.58433C6.86734 2.86741 6.85761 3.0245 6.84752 3.3076L7.3317 2.80965Z" fill="#398F00" stroke="#67211F" stroke-width="0.00589853"/>
<path d="M7.35847 3.46963L7.05518 3.10206L6.85344 3.30899C6.85752 3.60238 6.87636 3.73291 6.89424 3.97426L7.35847 3.46963Z" fill="#D60000" stroke="#67211F" stroke-width="0.00589853"/>
<path d="M7.32538 4.21388L7.02216 3.83979L6.89434 3.97563C6.945 4.27592 6.95764 4.35425 7.00899 4.57632L7.32538 4.21388Z" fill="#007FFF" stroke="#67211F" stroke-width="0.00589853"/>
<path d="M7.39584 4.83057L7.09922 4.46305L7.00496 4.57309C7.07578 4.85399 7.0825 4.84753 7.14723 5.06319L7.39584 4.83057Z" fill="#FF7F00" stroke="#67211F" stroke-width="0.00589853"/>
<path d="M7.5541 5.28416L7.2839 4.94294L7.14954 5.06568C7.16907 5.118 7.19515 5.1834 7.20819 5.2161L7.5541 5.28416Z" fill="#007FFF" stroke="#67211F" stroke-width="0.00589853"/>
<path d="M7.52042 3.2933C7.49864 3.07398 7.49089 2.93873 7.49274 2.65422L7.05566 3.10041C7.25349 3.33673 7.21397 3.28425 7.35895 3.46798L7.52042 3.2933Z" fill="#FF7F00" stroke="#67211F" stroke-width="0.00589853"/>
<path d="M7.59457 3.90174C7.5697 3.69945 7.5373 3.59488 7.5199 3.30139L7.02205 3.83833C7.21491 4.08885 7.17662 4.03263 7.32533 4.20584L7.59457 3.90174Z" fill="#398F00" stroke="#67211F" stroke-width="0.00589853"/>
<path d="M7.73893 4.48308C7.68086 4.26748 7.64835 4.17594 7.5908 3.90167L7.09938 4.46475C7.25091 4.66157 7.25091 4.66157 7.40261 4.83884L7.73893 4.48308Z" fill="#D60000" stroke="#67211F" stroke-width="0.00589853"/>
<path d="M7.91168 4.97349C7.76009 4.78318 7.77985 4.80942 7.62172 4.60602L7.2789 4.94217C7.43043 5.13899 7.40406 5.10618 7.54244 5.28333L7.91168 4.97349Z" fill="#398F00" stroke="#67211F" stroke-width="0.00589853"/>
<path d="M7.74273 4.48336L7.62836 4.60627L7.91832 4.97373L7.92498 4.97379L7.74273 4.48336Z" fill="#007FFF" stroke="#67211F" stroke-width="0.00589853"/>
<path d="M7.5513 3.60138L7.52057 3.30777L7.48025 3.34655L7.4197 3.41124L7.5513 3.60138Z" fill="#007FFF" stroke="#67211F" stroke-width="0.00589853"/>
<path d="M7.72641 5.13365L7.92114 4.96577C7.99033 5.1334 8.03299 5.2229 8.11741 5.37809L7.87788 5.33699L7.72641 5.13365Z" fill="#FF7F00" stroke="#67211F" stroke-width="0.0044239"/>
<g filter="url(#filter0_d_1193_671)">
<path d="M8.56239 2.63863L8.67105 2.4734C8.67105 2.4734 8.78912 2.95802 8.70669 3.26805C8.64116 3.51456 8.39953 3.83623 8.39953 3.83623C8.28893 4.11398 8.29601 4.26631 8.35596 4.53575L8.13542 4.79081C8.13542 4.79081 8.06724 4.43764 7.95706 4.26443C7.79721 4.01313 7.53345 4.08147 7.3708 3.8606C7.12998 3.53356 7.25484 2.8431 7.25484 2.8431L7.45025 3.00953C7.45025 3.00953 7.56868 2.83762 7.68441 2.5909C7.72586 2.50255 7.76696 2.4046 7.80216 2.30152C7.85595 2.14394 7.91586 1.89055 7.91586 1.89055L8.02883 2.11796L8.11967 1.99704C8.11967 1.99704 8.1276 2.17135 8.16112 2.26882C8.23806 2.49252 8.32643 2.57396 8.56239 2.63863Z" fill="#939297"/>
<path d="M8.56239 2.63863C8.60483 2.5741 8.67105 2.4734 8.67105 2.4734C8.67105 2.4734 8.78912 2.95802 8.70669 3.26805C8.64116 3.51456 8.39953 3.83623 8.39953 3.83623C8.28893 4.11398 8.29601 4.26631 8.35596 4.53575L8.13542 4.79081C8.13542 4.79081 8.06724 4.43764 7.95706 4.26443C7.79721 4.01313 7.53345 4.08147 7.3708 3.8606C7.12998 3.53356 7.25484 2.8431 7.25484 2.8431L7.45025 3.00953M8.56239 2.63863C8.32643 2.57396 8.23806 2.49252 8.16112 2.26882C8.1276 2.17135 8.11967 1.99704 8.11967 1.99704L8.02883 2.11796M8.56239 2.63863C8.55592 2.66202 8.36613 3.06536 8.36613 3.06536C8.36613 3.06536 8.21772 2.78582 8.15098 2.59626M7.45025 3.00953C7.56204 3.13601 7.57887 3.21866 7.61055 3.36521L7.75563 2.84081L7.977 3.16275M7.45025 3.00953C7.45025 3.00953 7.56868 2.83762 7.68441 2.5909C7.72586 2.50255 7.76696 2.4046 7.80216 2.30152C7.85595 2.14394 7.91586 1.89055 7.91586 1.89055L8.02883 2.11796M8.02883 2.11796C8.02883 2.11796 8.08681 2.41399 8.15098 2.59626M8.15098 2.59626L8.01567 2.46196L7.977 3.16275M7.977 3.16275L7.95706 3.50904" stroke="#F8F7FC" stroke-width="0.0364956"/>
</g>
<defs>
<filter id="filter0_d_1193_671" x="7.20416" y="1.83698" width="1.6769" height="3.10627" filterUnits="userSpaceOnUse" color-interpolation-filters="sRGB">
<feFlood flood-opacity="0" result="BackgroundImageFix"/>
<feColorMatrix in="SourceAlpha" type="matrix" values="0 0 0 0 0 0 0 0 0 0 0 0 0 0 0 0 0 0 127 0" result="hardAlpha"/>
<feOffset dx="0.0737317" dy="0.0589853"/>
<feGaussianBlur stdDeviation="0.0265434"/>
<feComposite in2="hardAlpha" operator="out"/>
<feColorMatrix type="matrix" values="0 0 0 0 0 0 0 0 0 0 0 0 0 0 0 0 0 0 0.25 0"/>
<feBlend mode="normal" in2="BackgroundImageFix" result="effect1_dropShadow_1193_671"/>
<feBlend mode="normal" in="SourceGraphic" in2="effect1_dropShadow_1193_671" result="shape"/>
</filter>
<radialGradient id="paint0_radial_1193_671" cx="0" cy="0" r="1" gradientUnits="userSpaceOnUse" gradientTransform="translate(9.17142 9.98917) scale(7.04279 7.30737)">
<stop offset="0.5" stop-color="#FDE030"/>
<stop offset="0.92" stop-color="#F7C02B"/>
<stop offset="1" stop-color="#F4A223"/>
</radialGradient>
<radialGradient id="paint1_radial_1193_671" cx="0" cy="0" r="1" gradientUnits="userSpaceOnUse" gradientTransform="translate(5.5343 10.275) scale(2.35815 2.19707)">
<stop stop-color="#ED7770"/>
<stop offset="0.9" stop-color="#ED7770" stop-opacity="0"/>
</radialGradient>
<radialGradient id="paint2_radial_1193_671" cx="0" cy="0" r="1" gradientUnits="userSpaceOnUse" gradientTransform="translate(16.5309 326.187) scale(2.40613 2.49653)">
<stop stop-color="#ED7770"/>
<stop offset="0.9" stop-color="#ED7770" stop-opacity="0"/>
</radialGradient>
</defs>
</svg>
