<svg width="18" height="19" viewBox="0 0 18 19" fill="none" xmlns="http://www.w3.org/2000/svg">
<path d="M9.00794 17.8885C5.52139 17.8885 1.75992 15.7016 1.75992 10.9029C1.75992 6.10425 5.52139 3.91736 9.00794 3.91736C10.9449 3.91736 12.7319 4.55468 14.0566 5.71686C15.4937 6.9915 16.256 8.791 16.256 10.9029C16.256 13.0148 15.4937 14.8018 14.0566 16.0765C12.7319 17.2387 10.9324 17.8885 9.00794 17.8885Z" fill="url(#paint0_radial_1200_7003)"/>
<path d="M14.9947 6.75244C15.6608 7.82714 16.0082 9.10679 16.0082 10.5301C16.0082 12.6421 15.2459 14.4291 13.8088 15.7037C12.4842 16.8659 10.6846 17.5157 8.76017 17.5157C6.50329 17.5157 4.13644 16.5972 2.73932 14.649C4.08395 16.8559 6.61326 17.8906 9.0101 17.8906C10.9346 17.8906 12.7341 17.2408 14.0587 16.0786C15.4958 14.804 16.2581 13.017 16.2581 10.905C16.2581 9.31298 15.8245 7.89837 14.9947 6.75244Z" fill="#EB8F00"/>
<path d="M7.64309 15.9167C7.22445 15.9167 6.83706 15.6992 6.61837 15.3418C6.40842 14.9957 6.42717 14.5558 6.66835 14.2296C7.20571 13.4798 8.03048 13.08 9.0552 13.08C10.0799 13.08 10.9047 13.4798 11.442 14.2296C11.6832 14.5558 11.702 14.9957 11.492 15.3418C11.2733 15.6992 10.8859 15.9167 10.4673 15.9167C10.3361 15.9154 10.2049 15.8942 10.0799 15.8542C9.41385 15.638 8.69655 15.638 8.03048 15.8542C7.90551 15.8929 7.7743 15.9142 7.64309 15.9167Z" fill="#422B0D"/>
<path d="M11.4793 6.95891H11.4668C11.3406 6.96891 11.2294 6.87518 11.2181 6.74897C11.2081 6.62275 11.3019 6.51153 11.4281 6.50029C11.6693 6.46405 11.9154 6.46655 12.1566 6.50654C12.8102 6.60651 13.4013 6.95141 13.8087 7.47252C13.9949 7.72245 13.6662 7.95988 13.46 7.77243C12.9102 7.28632 12.2129 7.00015 11.4793 6.95891Z" fill="#422B0D"/>
<path d="M6.66263 6.95998H6.68137C6.80884 6.96248 6.91256 6.86126 6.91506 6.73379C6.91756 6.61882 6.83258 6.51885 6.71886 6.50261C6.47768 6.46637 6.2315 6.46887 5.99031 6.50885C5.33549 6.60758 4.7444 6.95373 4.33702 7.47484C4.15207 7.72477 4.48073 7.9622 4.68567 7.77475C5.23552 7.28989 5.93158 7.00247 6.66263 6.95998Z" fill="#422B0D"/>
<path d="M6.55594 9.28516C6.03233 9.28516 5.55621 9.72753 5.55621 10.4623C5.55621 11.1971 6.03233 11.6383 6.55594 11.6383C7.0808 11.6383 7.55567 11.1959 7.55567 10.4623C7.55567 9.72878 7.0858 9.28516 6.55594 9.28516Z" fill="#422B0D"/>
<path d="M6.51262 9.77721C6.33517 9.69223 6.12148 9.76721 6.03526 9.94466C5.96902 10.0834 5.99902 10.2496 6.11023 10.357C6.28769 10.442 6.50138 10.367 6.5876 10.1896C6.65384 10.0509 6.62384 9.88468 6.51262 9.77721Z" fill="#896024"/>
<path d="M11.3576 9.28516C10.834 9.28516 10.3579 9.72753 10.3579 10.4623C10.3579 11.1971 10.834 11.6383 11.3576 11.6383C11.8812 11.6383 12.3573 11.1959 12.3573 10.4623C12.3573 9.72878 11.8812 9.28516 11.3576 9.28516Z" fill="#422B0D"/>
<path d="M11.3064 9.77733C11.129 9.69235 10.9153 9.76733 10.8291 9.94478C10.7628 10.0835 10.7928 10.2497 10.9041 10.3572C11.0815 10.4421 11.2952 10.3672 11.3814 10.1897C11.4477 10.051 11.4177 9.8848 11.3064 9.77733Z" fill="#896024"/>
<path d="M5.18676 2.29628H5.67966C5.67966 2.29628 7.70427 2.02069 9.0734 2.03286C10.3785 2.04446 12.2975 2.29628 12.2975 2.29628H13.0732C13.8629 3.60082 14.4304 4.94047 14.6906 6.31661C12.1394 5.59052 9.0734 7.12519 9.0734 7.12519C9.0734 7.12519 5.96133 5.61731 3.48083 6.15926C3.87788 4.75055 4.36722 3.47218 5.18676 2.29628Z" fill="#7F2125"/>
<path d="M5.18676 2.29628H5.67966C5.67966 2.29628 7.70427 2.02069 9.0734 2.03286C10.3785 2.04446 12.2975 2.29628 12.2975 2.29628H13.0732M5.18676 2.29628C4.36722 3.47218 3.87788 4.75055 3.48083 6.15926C5.96133 5.61731 9.0734 7.12519 9.0734 7.12519C9.0734 7.12519 12.1394 5.59052 14.6906 6.31661C14.4304 4.94047 13.8629 3.60082 13.0732 2.29628M5.18676 2.29628C5.82789 2.9929 6.74129 2.5553 9.0734 3.09138C11.1849 2.5715 12.2015 3.0274 13.0732 2.29628" stroke="#67211F" stroke-width="0.0582032"/>
<path d="M9.09171 7.10241L9.09919 3.09484C10.6867 2.60676 11.8919 2.98781 13.0829 2.31995C13.6016 3.11792 14.4597 4.61208 14.7003 6.30512C12.6387 5.77402 10.4588 6.47512 9.09171 7.10241Z" fill="#67211F" stroke="#67211F" stroke-width="0.0365292"/>
<path d="M6.3683 2.74799C6.00786 2.50644 5.66968 2.63733 5.68451 2.29041L5.22025 2.30517C5.58212 2.69378 6.11713 2.69276 6.3683 2.74799Z" fill="#67211F"/>
<path d="M11.7348 2.70358C12.0953 2.46446 12.3838 2.61894 12.3689 2.27551H13.0803C12.7185 2.6602 11.986 2.64891 11.7348 2.70358Z" fill="#67211F" fill-opacity="0.56"/>
<path d="M9.14403 2.3347L9.06307 3.04705L9.21174 3.03678L9.14403 2.3347Z" fill="#67211F" stroke="#67211F" stroke-width="0.0885594"/>
<path d="M7.19808 2.82913C6.93602 2.81447 6.77823 2.79981 6.56159 2.78516C6.42682 4.33495 6.37509 4.7187 6.65589 6.25373C7.03673 6.35349 7.32472 6.44761 7.65348 6.54893C6.88256 5.146 7.09679 4.24473 7.19808 2.82913Z" fill="#D60000" stroke="#67211F" stroke-width="0.0365292"/>
<path d="M6.77305 2.8076L6.5831 2.79272L6.5451 3.0753L6.77305 2.8076Z" fill="#398F00" stroke="#67211F" stroke-width="0.00737995"/>
<path d="M6.46323 3.84804L7.1746 3.02723L7.18209 2.84402L6.77024 2.80737L6.5456 3.0712L6.46323 3.84804Z" fill="#FF7F00" stroke="#67211F" stroke-width="0.00737995"/>
<path d="M6.92681 3.30561C6.92681 3.30561 6.69967 3.05155 6.61979 2.98315L6.54491 3.0711L6.47003 3.8406C6.57986 3.71113 6.92681 3.30561 6.92681 3.30561Z" fill="#D60000" stroke="#67211F" stroke-width="0.00737995"/>
<path d="M7.14338 3.91397C7.14415 3.59771 7.1516 3.40159 7.17333 3.02722L6.46945 3.84069C6.44438 4.16341 6.4384 4.34143 6.43201 4.65415L7.14338 3.91397Z" fill="#007FFF" stroke="#67211F" stroke-width="0.00590396"/>
<path d="M6.97115 4.08985L6.61921 3.66479L6.46945 3.84068C6.44991 4.15911 6.44054 4.3358 6.43201 4.65416L6.97115 4.08985Z" fill="#398F00" stroke="#67211F" stroke-width="0.00590396"/>
<path d="M7.00111 4.82984L6.65665 4.41943L6.43201 4.65395C6.43949 4.98374 6.46196 5.13031 6.48445 5.40147L7.00111 4.82984Z" fill="#D60000" stroke="#67211F" stroke-width="0.00590396"/>
<path d="M6.97236 5.66529L6.6279 5.24756L6.48563 5.40146C6.54553 5.73858 6.56051 5.82652 6.62041 6.07569L6.97236 5.66529Z" fill="#007FFF" stroke="#67211F" stroke-width="0.00590396"/>
<path d="M7.06413 6.36358L6.72552 5.95117L6.62018 6.07637L6.66774 6.24048L7.06413 6.36358Z" fill="#FF7F00" stroke="#67211F" stroke-width="0.00590396"/>
<path d="M7.18042 4.63202C7.15377 4.38566 7.14372 4.23368 7.14298 3.91382L6.65625 4.41949C6.88089 4.68332 6.83597 4.62469 7.0007 4.8299L7.18042 4.63202Z" fill="#FF7F00" stroke="#67211F" stroke-width="0.00590396"/>
<path d="M7.27099 5.31364C7.24104 5.08645 7.2036 4.96919 7.18114 4.6394L6.62701 5.24768C6.84623 5.52752 6.80264 5.46467 6.97147 5.65801L7.27099 5.31364Z" fill="#398F00" stroke="#67211F" stroke-width="0.00590396"/>
<path d="M7.44433 5.96597C7.37693 5.72412 7.33949 5.62152 7.2721 5.31372L6.72546 5.95131C6.89769 6.17117 6.89769 6.17117 7.06992 6.36904L7.44433 5.96597Z" fill="#D60000" stroke="#67211F" stroke-width="0.00590396"/>
<path d="M7.65939 6.53626C7.48632 6.3227 7.49719 6.33328 7.3166 6.10498L7.05792 6.35828C7.37535 6.44171 7.36979 6.43986 7.36979 6.43986L7.65939 6.53626Z" fill="#398F00" stroke="#67211F" stroke-width="0.00590396"/>
<path d="M7.44616 5.96582L7.31824 6.10574L7.64932 6.51815H7.65685L7.44616 5.96582Z" fill="#007FFF" stroke="#67211F" stroke-width="0.00590396"/>
<path d="M7.22013 4.97812L7.18251 4.64673L7.13736 4.69091L7.06964 4.76456L7.22013 4.97812Z" fill="#007FFF" stroke="#67211F" stroke-width="0.00590396"/>
<g filter="url(#filter0_d_1200_7003)">
<path d="M8.17032 3.73329L8.29121 3.54623C8.29121 3.54623 8.42254 4.09486 8.33085 4.44583C8.25795 4.72489 7.98915 5.08905 7.98915 5.08905C7.86612 5.40347 7.87399 5.57592 7.94068 5.88094L7.69534 6.1697C7.69534 6.1697 7.61949 5.76988 7.49692 5.5738C7.31909 5.28931 7.02568 5.36668 6.84474 5.11663C6.57684 4.7464 6.71574 3.96476 6.71574 3.96476L6.93313 4.15317C6.93313 4.15317 7.06487 3.95855 7.19362 3.67926C7.23973 3.57923 7.28545 3.46835 7.3246 3.35165C7.38445 3.17327 7.45109 2.88641 7.45109 2.88641L7.57676 3.14386L7.67782 3.00697C7.67782 3.00697 7.68664 3.2043 7.72393 3.31464C7.80953 3.56788 7.90782 3.66007 8.17032 3.73329Z" fill="url(#paint1_linear_1200_7003)"/>
<path d="M8.17032 3.73329C8.21753 3.66024 8.29121 3.54623 8.29121 3.54623C8.29121 3.54623 8.42254 4.09486 8.33085 4.44583C8.25795 4.72489 7.98915 5.08905 7.98915 5.08905C7.86612 5.40347 7.87399 5.57592 7.94068 5.88095L7.69534 6.1697C7.69534 6.1697 7.61949 5.76988 7.49692 5.5738C7.31909 5.28931 7.02568 5.36668 6.84474 5.11663C6.57684 4.7464 6.71574 3.96476 6.71574 3.96476L6.93313 4.15317M8.17032 3.73329C7.90782 3.66007 7.80953 3.56788 7.72393 3.31464C7.68664 3.2043 7.67782 3.00697 7.67782 3.00697L7.57676 3.14386M8.17032 3.73329C8.16313 3.75976 7.95199 4.21637 7.95199 4.21637C7.95199 4.21637 7.78689 3.89992 7.71265 3.68532M6.93313 4.15317C7.05749 4.29635 7.0762 4.38992 7.11145 4.55582L7.27285 3.96217L7.51911 4.32663L7.56212 3.53329L7.71265 3.68532M6.93313 4.15317C6.93313 4.15317 7.06487 3.95855 7.19362 3.67926C7.23973 3.57923 7.28545 3.46835 7.3246 3.35165C7.38445 3.17327 7.45109 2.88641 7.45109 2.88641L7.57676 3.14386M7.57676 3.14386C7.57676 3.14386 7.64127 3.47899 7.71265 3.68532" stroke="#F8F7FC" stroke-width="0.0365292"/>
</g>
<defs>
<filter id="filter0_d_1200_7003" x="6.66144" y="2.83203" width="1.84718" height="3.49072" filterUnits="userSpaceOnUse" color-interpolation-filters="sRGB">
<feFlood flood-opacity="0" result="BackgroundImageFix"/>
<feColorMatrix in="SourceAlpha" type="matrix" values="0 0 0 0 0 0 0 0 0 0 0 0 0 0 0 0 0 0 127 0" result="hardAlpha"/>
<feOffset dx="0.0737995" dy="0.0590396"/>
<feGaussianBlur stdDeviation="0.0265678"/>
<feComposite in2="hardAlpha" operator="out"/>
<feColorMatrix type="matrix" values="0 0 0 0 0 0 0 0 0 0 0 0 0 0 0 0 0 0 0.25 0"/>
<feBlend mode="normal" in2="BackgroundImageFix" result="effect1_dropShadow_1200_7003"/>
<feBlend mode="normal" in="SourceGraphic" in2="effect1_dropShadow_1200_7003" result="shape"/>
</filter>
<radialGradient id="paint0_radial_1200_7003" cx="0" cy="0" r="1" gradientUnits="userSpaceOnUse" gradientTransform="translate(9.00794 10.9029) scale(7.11802 7.11799)">
<stop offset="0.5" stop-color="#FDE030"/>
<stop offset="0.92" stop-color="#F7C02B"/>
<stop offset="1" stop-color="#F4A223"/>
</radialGradient>
<linearGradient id="paint1_linear_1200_7003" x1="7.85303" y1="2.99255" x2="7.05844" y2="6.0015" gradientUnits="userSpaceOnUse">
<stop stop-color="#C9C9C9"/>
<stop offset="1" stop-color="#939297"/>
</linearGradient>
</defs>
</svg>
