<svg width="18" height="18" viewBox="0 0 18 18" fill="none" xmlns="http://www.w3.org/2000/svg">
<path d="M9.03111 16.697C5.54379 16.697 1.78149 14.5096 1.78149 9.70988C1.78149 4.91015 5.54379 2.72278 9.03111 2.72278C10.9685 2.72278 12.7559 3.36024 14.0808 4.52267C15.5183 5.7976 16.2807 7.5975 16.2807 9.70988C16.2807 11.8223 15.5183 13.6097 14.0808 14.8846C12.7559 16.047 10.956 16.697 9.03111 16.697Z" fill="url(#paint0_radial_1217_8799)"/>
<path d="M15.017 5.55627C15.6832 6.63121 16.0307 7.91114 16.0307 9.33481C16.0307 11.4472 15.2682 13.2346 13.8308 14.5095C12.5059 15.6719 10.706 16.3219 8.78109 16.3219C6.52371 16.3219 4.15134 15.4032 2.75891 13.4546C4.10384 15.6619 6.63246 16.6969 9.03108 16.6969C10.956 16.6969 12.7559 16.0469 14.0808 14.8845C15.5182 13.6096 16.2807 11.8222 16.2807 9.70979C16.2807 8.11738 15.847 6.70246 15.017 5.55627Z" fill="#EB8F00"/>
<path d="M5.44839 13.6772C5.39589 14.1185 5.87837 14.166 5.87837 14.166C5.87837 14.166 9.37818 14.3097 10.4794 14.3109C11.1268 14.3122 11.0218 13.6597 10.3819 13.176C9.99565 12.8835 9.37318 12.571 7.91326 12.571C6.78582 12.571 5.50714 13.186 5.44839 13.6772Z" fill="#422B0D"/>
<path d="M6.621 6.11386C6.621 6.11386 6.85349 5.98011 7.05848 6.14635C7.17222 6.23885 7.22972 6.41259 7.10472 6.53883C6.60475 7.16629 5.29482 7.53752 4.6586 7.35253C4.53736 7.31379 4.47111 7.18379 4.51111 7.06255C4.54611 6.95506 4.65235 6.88881 4.76485 6.90631C5.58855 6.81507 6.12728 6.54383 6.621 6.11386Z" fill="#422B0D"/>
<path d="M9.77088 6.04476C9.77088 6.04476 9.53839 5.91102 9.3334 6.07726C9.21966 6.16976 9.16216 6.3435 9.28715 6.46974C9.78713 7.0972 11.0971 7.46843 11.7333 7.28344C11.8545 7.24469 11.9208 7.1147 11.8808 6.99346C11.8458 6.88596 11.7395 6.81972 11.627 6.83722C10.8033 6.74597 10.2646 6.47474 9.77088 6.04476Z" fill="#422B0D"/>
<path d="M5.74232 13.8605C5.48858 13.898 5.23484 13.928 4.97986 13.953C4.64862 13.9842 4.29739 14.0017 3.99991 13.8517C3.86117 13.7817 3.74117 13.678 3.60368 13.608C3.2612 13.433 2.83497 13.4805 2.49374 13.6592C2.19751 13.813 1.94502 14.0717 1.85502 14.3929C1.76503 14.7142 1.86502 15.0954 2.13751 15.2879C2.60873 15.6204 2.33125 15.7091 2.45874 16.1728C2.59498 16.6728 3.1612 17.0515 3.66618 16.9066C3.84742 16.8541 3.99991 16.7003 4.1799 16.6653C4.37614 16.6266 4.57863 16.7366 4.77487 16.7353C5.18735 16.7328 5.47733 16.2966 5.51983 15.8854C5.54108 15.6854 5.52358 15.4829 5.55733 15.2854C5.66357 14.6729 6.22104 14.2642 6.67477 13.8405C6.89101 13.638 6.46603 13.738 6.39228 13.753C6.17604 13.7942 5.95856 13.8292 5.74232 13.8605Z" fill="white"/>
<path d="M1.85489 14.3899C1.94489 14.0686 2.19862 13.8099 2.49361 13.6562C2.83484 13.4787 3.26107 13.4299 3.60355 13.6049C3.6198 13.6137 3.63605 13.6237 3.6523 13.6337C3.50855 13.6149 3.36481 13.5974 3.21607 13.6112C2.99983 13.6299 2.78234 13.7037 2.62235 13.8511C2.55985 13.9086 2.50736 13.9774 2.46236 14.0499C2.34612 14.2374 2.28112 14.4686 2.33487 14.6823C2.37736 14.8498 2.52486 15.0373 2.7061 15.0648C2.90609 15.0948 3.08608 14.9098 3.29482 14.9361C3.38481 14.9473 3.48106 15.0423 3.43106 15.1186C3.40106 15.1636 3.33856 15.1698 3.28482 15.1798C3.11358 15.2111 2.96108 15.3323 2.89109 15.4923C2.85609 15.571 2.84109 15.6573 2.84109 15.7435C2.83984 16.066 3.06233 16.3785 3.36731 16.4822C3.5648 16.5485 3.78854 16.526 3.97228 16.431C4.05978 16.386 4.10977 16.2973 4.19727 16.2548C4.28351 16.2135 4.40851 16.2073 4.50225 16.2123C4.6035 16.2173 4.70349 16.2348 4.80474 16.2273C5.04472 16.2085 5.21971 16.0448 5.31971 15.8373C5.43345 15.5998 5.3897 15.3723 5.4222 15.1173C5.4497 14.8973 5.5572 14.6923 5.69594 14.5186C5.82843 14.3524 5.98967 14.2036 6.15341 14.0686C6.23841 13.9986 6.3359 13.9461 6.4309 13.8886C6.4659 13.8674 6.68214 13.7074 6.71088 13.7212C6.74338 13.7362 6.74213 13.7699 6.67089 13.8361C6.21716 14.2599 5.65969 14.6686 5.55345 15.2811C5.51845 15.4786 5.53595 15.6823 5.51595 15.881C5.4722 16.2923 5.18347 16.7285 4.77099 16.731C4.57475 16.7322 4.37226 16.6222 4.17602 16.661C3.99603 16.696 3.84354 16.8497 3.6623 16.9022C3.15857 17.0485 2.59235 16.6685 2.45486 16.1685C2.32737 15.7048 2.6061 15.616 2.13363 15.2836C1.86489 15.0923 1.7649 14.7111 1.85489 14.3899Z" fill="#92CBEB"/>
<path d="M6.78375 14.2016C6.78375 14.2016 7.35372 13.7592 8.15243 13.7479C9.12863 13.7342 9.98233 14.3066 9.98233 14.3066L6.78375 14.2016Z" fill="#F48FB1"/>
<path fill-rule="evenodd" clip-rule="evenodd" d="M9.28235 9.14634C9.28235 8.97377 9.42225 8.83386 9.59483 8.83386H12.1934C12.366 8.83386 12.5059 8.97377 12.5059 9.14634C12.5059 9.31892 12.366 9.45883 12.1934 9.45883H9.59483C9.42225 9.45883 9.28235 9.31892 9.28235 9.14634Z" fill="#422B0D"/>
<path fill-rule="evenodd" clip-rule="evenodd" d="M3.87628 9.14634C3.87628 8.97377 4.01619 8.83386 4.18877 8.83386H6.78738C6.95996 8.83386 7.09986 8.97377 7.09986 9.14634C7.09986 9.31892 6.95996 9.45883 6.78738 9.45883H4.18877C4.01619 9.45883 3.87628 9.31892 3.87628 9.14634Z" fill="#422B0D"/>
<path d="M4.64721 9.21765C4.64096 9.2764 4.63721 9.33514 4.63721 9.39764C4.63721 10.1326 5.05593 10.5763 5.51716 10.5763C5.97839 10.5763 6.39711 10.1326 6.39711 9.39764C6.39711 9.33514 6.39336 9.27515 6.38711 9.21765H4.64721Z" fill="#422B0D"/>
<path d="M10.0972 9.14648C10.086 9.22648 10.0797 9.31022 10.0797 9.39897C10.0797 10.1339 10.4984 10.5777 10.9597 10.5777C11.4209 10.5777 11.8396 10.1339 11.8396 9.39897C11.8396 9.31022 11.8334 9.22648 11.8221 9.14648H10.0972Z" fill="#422B0D"/>
<path d="M9.43003 15.1236C9.18505 15.1786 8.97631 15.1924 8.77007 15.2036C8.56508 15.2124 8.36759 15.2111 8.17135 15.2024C7.97511 15.1936 7.77887 15.1774 7.57888 15.1536C7.37639 15.1274 7.17765 15.0999 6.93392 15.0524L6.92017 15.0174C7.11891 14.9311 7.33014 14.8824 7.54388 14.8561C7.75762 14.8286 7.97261 14.8199 8.1876 14.8274C8.40259 14.8386 8.61633 14.8661 8.82631 14.9074C9.03755 14.9486 9.24379 15.0074 9.44378 15.0874L9.43003 15.1236Z" fill="#EB8F00"/>
<path d="M15.521 6.37808C13.3875 5.11757 10.9194 4.4453 7.86555 5.41169C5.52624 4.80312 4.68878 4.8053 3.13843 5.41169C3.13843 5.41169 3.97509 3.14278 4.22608 2.84867C4.47708 2.55455 8.11655 1.12598 8.11655 1.12598C8.11655 1.12598 14.0568 3.05875 14.517 3.60497C14.9771 4.15119 15.521 6.37808 15.521 6.37808Z" fill="#7F2125"/>
<path d="M7.86554 5.41169L8.11654 1.12598C11.4632 1.50413 14.0568 3.10077 14.517 3.60497C14.9771 4.10917 15.521 6.37808 15.521 6.37808C12.9273 4.86547 10.3755 4.61337 7.86554 5.41169Z" fill="#67211F"/>
<path d="M6.23401 1.92439C6.02485 2.00842 5.89935 2.05044 5.73203 2.13445C5.77938 3.50674 5.76298 3.68514 6.13819 5.00376C6.44991 5.05393 6.68748 5.10825 6.95808 5.16489C6.20763 4.01013 6.29456 3.17572 6.23401 1.92439Z" fill="#D60000" stroke="#67211F" stroke-width="0.0486835"/>
<path d="M5.89936 2.05032L5.73203 2.13436L5.73197 2.22302L5.89936 2.05032Z" fill="#398F00" stroke="#67211F" stroke-width="0.00983547"/>
<path d="M5.74301 2.9128L6.22509 2.12333L6.23405 1.92425L5.89938 2.05031L5.73101 2.22352L5.74301 2.9128Z" fill="#FF7F00" stroke="#67211F" stroke-width="0.00983547"/>
<path d="M6.05887 2.39125C6.05887 2.39125 5.8858 2.18646 5.8157 2.13431L5.73291 2.22301L5.75011 2.90514C5.82427 2.78084 6.05887 2.39125 6.05887 2.39125Z" fill="#D60000" stroke="#67211F" stroke-width="0.00983547"/>
<path d="M6.29194 2.90394C6.26109 2.62654 6.24748 2.45382 6.22747 2.12341L5.7506 2.90571C5.76283 3.19117 5.7758 3.34786 5.80184 3.62272L6.29194 2.90394Z" fill="#007FFF" stroke="#67211F" stroke-width="0.00786837"/>
<path d="M6.17246 3.07528L5.85129 2.73703L5.75011 2.90594C5.7663 3.18709 5.77644 3.34294 5.80135 3.62296L6.17246 3.07528Z" fill="#398F00" stroke="#67211F" stroke-width="0.00786837"/>
<path d="M6.26829 3.72063L5.95451 3.39449L5.79982 3.62215C5.83855 3.91061 5.87093 4.03694 5.91573 4.27252L6.26829 3.72063Z" fill="#D60000" stroke="#67211F" stroke-width="0.00786837"/>
<path d="M6.33009 4.45656L6.01558 4.124L5.91814 4.2729C5.99914 4.56265 6.01976 4.6383 6.09201 4.85093L6.33009 4.45656Z" fill="#007FFF" stroke="#67211F" stroke-width="0.00786837"/>
<path d="M6.46783 5.05944L6.15998 4.73253L6.0893 4.85206L6.14305 4.99066L6.46783 5.05944Z" fill="#FF7F00" stroke="#67211F" stroke-width="0.00786837"/>
<path d="M6.39416 3.52974C6.34854 3.31631 6.32545 3.18402 6.29305 2.9036L5.95765 3.39473C6.1619 3.60407 6.12047 3.55706 6.27143 3.72086L6.39416 3.52974Z" fill="#FF7F00" stroke="#67211F" stroke-width="0.00786837"/>
<path d="M6.53118 4.11909C6.48484 3.9228 6.44351 3.82364 6.39291 3.53665L6.0143 4.12435C6.21585 4.34826 6.17505 4.29742 6.32807 4.45042L6.53118 4.11909Z" fill="#398F00" stroke="#67211F" stroke-width="0.00786837"/>
<path d="M6.73213 4.67401C6.65467 4.46854 6.61479 4.38224 6.53077 4.11892L6.16101 4.7316C6.31936 4.90752 6.31936 4.90752 6.47552 5.06416L6.73213 4.67401Z" fill="#D60000" stroke="#67211F" stroke-width="0.00786837"/>
<path d="M6.95233 5.16619C6.79471 4.99667 6.80876 4.99077 6.64375 4.80913L6.46483 5.05542C6.72342 5.09728 6.71099 5.10889 6.71099 5.10889L6.95233 5.16619Z" fill="#398F00" stroke="#67211F" stroke-width="0.00786837"/>
<path d="M6.73027 4.67429L6.64325 4.80889L6.9393 5.15158L6.95716 5.16613L6.73027 4.67429Z" fill="#007FFF" stroke="#67211F" stroke-width="0.00786837"/>
<path d="M6.45574 3.82863L6.39327 3.54307L6.36204 3.58604L6.31592 3.65691L6.45574 3.82863Z" fill="#007FFF" stroke="#67211F" stroke-width="0.00786837"/>
<g filter="url(#filter0_d_1217_8799)">
<path d="M7.05091 2.49024L7.12315 2.28512C7.12315 2.28512 7.15913 2.78774 7.09251 3.14506C7.03953 3.42918 6.88181 3.8353 6.88181 3.8353C6.80127 4.16374 6.79553 4.32853 6.8123 4.60926L6.67082 4.93784C6.67082 4.93784 6.65473 4.56751 6.60329 4.40327C6.52866 4.16499 6.37461 4.2994 6.29644 4.09498C6.18071 3.79231 6.29577 3.00982 6.29577 3.00982L6.39601 3.14734C6.39601 3.14734 6.47423 2.93273 6.5557 2.63701C6.58488 2.53111 6.61448 2.41481 6.64105 2.29424C6.68167 2.10992 6.73189 1.81956 6.73189 1.81956L6.78144 2.04238L6.84073 1.88971C6.84073 1.88971 6.83407 2.07832 6.84686 2.17719C6.8762 2.40411 6.92113 2.47305 7.05091 2.49024Z" fill="url(#paint1_linear_1217_8799)"/>
<path d="M7.05091 2.49024C7.07912 2.41013 7.12315 2.28512 7.12315 2.28512C7.12315 2.28512 7.15913 2.78774 7.09251 3.14506C7.03953 3.42918 6.88181 3.8353 6.88181 3.8353C6.80127 4.16374 6.79553 4.32853 6.8123 4.60926L6.67082 4.93784C6.67082 4.93784 6.65473 4.56751 6.60329 4.40327C6.52866 4.16499 6.37461 4.2994 6.29644 4.09498C6.18071 3.79231 6.29577 3.00982 6.29577 3.00982L6.39601 3.14734M7.05091 2.49024C6.92113 2.47305 6.8762 2.40411 6.84686 2.17719C6.83407 2.07832 6.84073 1.88971 6.84073 1.88971L6.78144 2.04238M7.05091 2.49024C7.04574 2.51724 6.91221 3.00082 6.91221 3.00082C6.91221 3.00082 6.84588 2.7291 6.82014 2.53716M6.39601 3.14734C6.45136 3.26016 6.45562 3.34664 6.46421 3.49954L6.58012 2.89386L6.68514 3.19537L6.75195 2.42112L6.82014 2.53716M6.39601 3.14734C6.39601 3.14734 6.47423 2.93273 6.5557 2.63701C6.58488 2.53111 6.61448 2.41481 6.64105 2.29424C6.68167 2.10992 6.73189 1.81956 6.73189 1.81956L6.78144 2.04238M6.78144 2.04238C6.78144 2.04238 6.79539 2.3526 6.82014 2.53716" stroke="#F8F7FC" stroke-width="0.0486835"/>
</g>
<defs>
<filter id="filter0_d_1217_8799" x="6.22021" y="1.81262" width="1.10643" height="3.28243" filterUnits="userSpaceOnUse" color-interpolation-filters="sRGB">
<feFlood flood-opacity="0" result="BackgroundImageFix"/>
<feColorMatrix in="SourceAlpha" type="matrix" values="0 0 0 0 0 0 0 0 0 0 0 0 0 0 0 0 0 0 127 0" result="hardAlpha"/>
<feOffset dx="0.0983547" dy="0.0786837"/>
<feGaussianBlur stdDeviation="0.0354077"/>
<feComposite in2="hardAlpha" operator="out"/>
<feColorMatrix type="matrix" values="0 0 0 0 0 0 0 0 0 0 0 0 0 0 0 0 0 0 0.25 0"/>
<feBlend mode="normal" in2="BackgroundImageFix" result="effect1_dropShadow_1217_8799"/>
<feBlend mode="normal" in="SourceGraphic" in2="effect1_dropShadow_1217_8799" result="shape"/>
</filter>
<radialGradient id="paint0_radial_1217_8799" cx="0" cy="0" r="1" gradientUnits="userSpaceOnUse" gradientTransform="translate(9.03111 9.70986) scale(7.11958 7.11955)">
<stop offset="0.5" stop-color="#FDE030"/>
<stop offset="0.9188" stop-color="#F7C02B"/>
<stop offset="1" stop-color="#F4A223"/>
</radialGradient>
<linearGradient id="paint1_linear_1217_8799" x1="6.93093" y1="1.84012" x2="6.61162" y2="4.93173" gradientUnits="userSpaceOnUse">
<stop stop-color="#C9C9C9"/>
<stop offset="1" stop-color="#939297"/>
</linearGradient>
</defs>
</svg>
