<svg width="18" height="18" viewBox="0 0 18 18" fill="none" xmlns="http://www.w3.org/2000/svg">
<path d="M9.29262 16.8177C5.78374 16.8177 1.99817 14.6168 1.99817 9.78739C1.99817 4.95798 5.78374 2.75708 9.29262 2.75708C11.242 2.75708 13.0405 3.39849 14.3736 4.56811C15.8199 5.85092 16.5871 7.66195 16.5871 9.78739C16.5871 11.9128 15.8199 13.7113 14.3736 14.9941C13.0405 16.1637 11.2294 16.8177 9.29262 16.8177Z" fill="url(#paint0_radial_1193_971)"/>
<path d="M15.3152 5.60876C15.9855 6.69035 16.3351 7.97819 16.3351 9.41067C16.3351 11.5361 15.568 13.3346 14.1216 14.6174C12.7885 15.787 10.9775 16.441 9.04068 16.441C6.76934 16.441 4.38733 15.5166 2.98126 13.5559C4.33451 15.7769 6.88002 16.8183 9.29222 16.8183C11.229 16.8183 13.0401 16.1643 14.3732 14.9947C15.8195 13.7119 16.5867 11.9134 16.5867 9.78796C16.5867 8.18571 16.1503 6.76204 15.3152 5.60876Z" fill="#EB8F00"/>
<path d="M6.82559 7.03015C6.29863 7.03015 5.81946 7.47536 5.81946 8.21487C5.81946 8.95437 6.29863 9.39832 6.82559 9.39832C7.35381 9.39832 7.83172 8.95311 7.83172 8.21487C7.83172 7.47662 7.35884 7.03015 6.82559 7.03015Z" fill="#422B0D"/>
<path d="M6.78043 7.52536C6.60184 7.43984 6.38678 7.5153 6.30001 7.69388C6.23335 7.83348 6.26353 8.00075 6.37546 8.10891C6.55405 8.19443 6.76911 8.11897 6.85589 7.94038C6.92255 7.80078 6.89236 7.63352 6.78043 7.52536Z" fill="#896024"/>
<path d="M11.6545 7.03015C11.1276 7.03015 10.6484 7.47536 10.6484 8.21487C10.6484 8.95437 11.1276 9.39832 11.6545 9.39832C12.1815 9.39832 12.6607 8.95311 12.6607 8.21487C12.6607 7.47662 12.1815 7.03015 11.6545 7.03015Z" fill="#422B0D"/>
<path d="M11.6064 7.52548C11.4278 7.43996 11.2128 7.51542 11.126 7.69401C11.0593 7.83361 11.0895 8.00087 11.2015 8.10903C11.38 8.19455 11.5951 8.11909 11.6819 7.94051C11.7485 7.80091 11.7184 7.63364 11.6064 7.52548Z" fill="#896024"/>
<path d="M6.32364 13.4431C7.21281 12.7791 8.24786 12.3364 9.34203 12.1515C10.4299 11.9465 11.5505 12.0044 12.612 12.3188C12.7893 12.3729 12.9276 12.1616 12.783 12.056C11.836 11.3668 10.533 11.0498 9.17979 11.2938C7.82654 11.5378 6.71729 12.2811 6.0721 13.257C5.97023 13.4054 6.17272 13.5563 6.32364 13.4431Z" fill="#422B0D"/>
<path d="M5.37667 1.26695H5.88113C5.88113 1.26695 7.95325 0.98872 9.35452 1.00101C10.6902 1.01272 12.6542 1.26695 12.6542 1.26695H13.4481C14.2564 2.584 14.8372 3.9365 15.1035 5.32584C12.6542 5.62911 9.39394 6.34278 9.39394 6.34278C9.39394 6.34278 6.3054 5.70854 3.63071 5.16698C4.03707 3.74476 4.53789 2.45413 5.37667 1.26695Z" fill="#7F2125"/>
<path d="M5.37667 1.26695H5.88113C5.88113 1.26695 7.95325 0.98872 9.35452 1.00101C10.6902 1.01272 12.6542 1.26695 12.6542 1.26695H13.4481M5.37667 1.26695C4.53789 2.45413 4.03707 3.74476 3.63071 5.16698C6.3054 5.70854 9.39394 6.34278 9.39394 6.34278C9.39394 6.34278 12.6542 5.62911 15.1035 5.32584C14.8372 3.9365 14.2564 2.584 13.4481 1.26695M5.37667 1.26695C6.03284 1.97025 6.96768 1.52845 9.35452 2.06968C11.5156 1.54481 12.556 2.00508 13.4481 1.26695" stroke="#67211F" stroke-width="0.0587614"/>
<path d="M9.40419 6.33505L9.3812 2.07298C11.0059 1.58021 12.2395 1.96492 13.4584 1.29065C13.9893 2.09628 14.8675 3.60476 15.1138 5.31404C13.2438 5.53038 10.2702 6.14879 9.40419 6.33505Z" fill="#67211F" stroke="#67211F" stroke-width="0.0368795"/>
<path d="M12.0789 1.67607C12.4478 1.43466 12.7431 1.59062 12.7279 1.2439H13.456C13.0856 1.63227 12.336 1.62087 12.0789 1.67607Z" fill="#67211F" fill-opacity="0.56"/>
<path d="M6.5872 1.7232C6.2183 1.47933 5.87219 1.61149 5.88736 1.26123L5.4122 1.27613C5.78256 1.66847 6.33013 1.66744 6.5872 1.7232Z" fill="#67211F"/>
<path d="M9.43081 1.30515L9.34796 2.02433L9.50011 2.01397L9.43081 1.30515Z" fill="#67211F" stroke="#67211F" stroke-width="0.0894087"/>
<path d="M7.4332 1.78995C7.16782 1.77285 7.0081 1.75662 6.78874 1.73989C6.58065 3.28763 6.48134 4.34683 7.02587 5.83218C7.38179 5.90965 7.75313 5.95744 8.1091 6.02745C7.34061 4.59478 7.31792 3.22816 7.4332 1.78995Z" fill="#D60000" stroke="#67211F" stroke-width="0.0368795"/>
<path d="M6.99783 1.76317L6.80783 1.74665L6.76731 2.03013L6.99783 1.76317Z" fill="#398F00" stroke="#67211F" stroke-width="0.00745073"/>
<path d="M6.67585 2.81963L7.4039 1.99121L7.41312 1.80502L6.9962 1.7643L6.76624 2.03061L6.67585 2.81963Z" fill="#FF7F00" stroke="#67211F" stroke-width="0.00745073"/>
<path d="M7.15081 2.27183C7.15081 2.27183 6.92296 2.01165 6.84265 1.94145L6.766 2.03022L6.68325 2.81184C6.79568 2.68115 7.15081 2.27183 7.15081 2.27183Z" fill="#D60000" stroke="#67211F" stroke-width="0.00745073"/>
<path d="M7.36715 2.8923C7.37075 2.5708 7.38005 2.37149 7.40542 1.99111L6.68502 2.81212C6.65673 3.13998 6.64909 3.3209 6.63981 3.63875L7.36715 2.8923Z" fill="#007FFF" stroke="#67211F" stroke-width="0.00596058"/>
<path d="M7.18909 3.06933L6.83633 2.63427L6.68303 2.81181C6.66039 3.13535 6.64931 3.31488 6.63782 3.63845L7.18909 3.06933Z" fill="#398F00" stroke="#67211F" stroke-width="0.00596058"/>
<path d="M7.21572 3.82141L6.87042 3.40131L6.64073 3.63782C6.64536 3.97313 6.66681 4.12232 6.68717 4.39816L7.21572 3.82141Z" fill="#D60000" stroke="#67211F" stroke-width="0.00596058"/>
<path d="M7.17646 4.67228L6.83122 4.24473L6.6857 4.39998C6.74337 4.74319 6.75776 4.83271 6.81622 5.08652L7.17646 4.67228Z" fill="#007FFF" stroke="#67211F" stroke-width="0.00596058"/>
<path d="M7.26183 5.37966L6.92411 4.95962L6.81679 5.08539C6.89742 5.40644 6.90507 5.39905 6.97878 5.64553L7.26183 5.37966Z" fill="#FF7F00" stroke="#67211F" stroke-width="0.00596058"/>
<path d="M7.43889 5.89589L7.13125 5.5059L6.97828 5.64619C7.00051 5.70598 7.0302 5.78073 7.04505 5.81811L7.43889 5.89589Z" fill="#007FFF" stroke="#67211F" stroke-width="0.00596058"/>
<path d="M7.39832 3.62319C7.37353 3.37252 7.3647 3.21794 7.36681 2.89277L6.86917 3.40273C7.0944 3.67282 7.04941 3.61284 7.21447 3.82283L7.39832 3.62319Z" fill="#FF7F00" stroke="#67211F" stroke-width="0.00596058"/>
<path d="M7.48161 4.31583C7.4533 4.08462 7.41641 3.96511 7.3966 3.62967L6.82977 4.24335C7.04935 4.52968 7.00576 4.46542 7.17507 4.66339L7.48161 4.31583Z" fill="#398F00" stroke="#67211F" stroke-width="0.00596058"/>
<path d="M7.65002 4.98185C7.5839 4.73543 7.54689 4.63082 7.48136 4.31735L6.92185 4.9609C7.09437 5.18585 7.09437 5.18585 7.26709 5.38845L7.65002 4.98185Z" fill="#D60000" stroke="#67211F" stroke-width="0.00596058"/>
<path d="M7.85047 5.5416C7.67788 5.3241 7.70038 5.35409 7.52033 5.12162L7.13002 5.50581C7.30254 5.73076 7.27252 5.69326 7.43007 5.89574L7.85047 5.5416Z" fill="#398F00" stroke="#67211F" stroke-width="0.00596058"/>
<path d="M7.65293 4.98093L7.52271 5.12141L7.85285 5.54139L7.86043 5.54145L7.65293 4.98093Z" fill="#007FFF" stroke="#67211F" stroke-width="0.00596058"/>
<path d="M7.43226 3.97262L7.39727 3.63705L7.35136 3.68138L7.28243 3.75531L7.43226 3.97262Z" fill="#007FFF" stroke="#67211F" stroke-width="0.00596058"/>
<path d="M7.63578 5.72581L7.85749 5.53393C7.93627 5.72552 7.98483 5.82781 8.08096 6.00518L7.80824 5.95821L7.63578 5.72581Z" fill="#FF7F00" stroke="#67211F" stroke-width="0.00447043"/>
<g filter="url(#filter0_d_1193_971)">
<path d="M8.58293 2.87454L8.70665 2.68568C8.70665 2.68568 8.84107 3.23957 8.74723 3.59391C8.67261 3.87565 8.3975 4.2433 8.3975 4.2433C8.27158 4.56074 8.27964 4.73484 8.34789 5.04279L8.0968 5.33431C8.0968 5.33431 8.01917 4.93066 7.89373 4.7327C7.71173 4.44548 7.41143 4.52359 7.22624 4.27114C6.95205 3.89736 7.09422 3.10823 7.09422 3.10823L7.3167 3.29844C7.3167 3.29844 7.45154 3.10196 7.58331 2.81998C7.6305 2.719 7.67729 2.60706 7.71736 2.48924C7.77861 2.30914 7.84682 2.01954 7.84682 2.01954L7.97544 2.27945L8.07887 2.14125C8.07887 2.14125 8.08789 2.34047 8.12606 2.45187C8.21367 2.70754 8.31427 2.80062 8.58293 2.87454Z" fill="#939297"/>
<path d="M8.58293 2.87454C8.63125 2.80079 8.70665 2.68568 8.70665 2.68568C8.70665 2.68568 8.84107 3.23957 8.74723 3.59391C8.67261 3.87565 8.3975 4.2433 8.3975 4.2433C8.27158 4.56074 8.27964 4.73484 8.34789 5.04279L8.0968 5.33431C8.0968 5.33431 8.01917 4.93066 7.89373 4.7327C7.71173 4.44548 7.41143 4.52359 7.22624 4.27114C6.95205 3.89736 7.09422 3.10823 7.09422 3.10823L7.3167 3.29844M8.58293 2.87454C8.31427 2.80062 8.21367 2.70754 8.12606 2.45187C8.08789 2.34047 8.07887 2.14125 8.07887 2.14125L7.97544 2.27945M8.58293 2.87454C8.57556 2.90126 8.35948 3.36225 8.35948 3.36225C8.35948 3.36225 8.1905 3.04276 8.11452 2.82611M7.3167 3.29844C7.44398 3.443 7.46314 3.53747 7.4992 3.70496L7.66439 3.10561L7.91643 3.47356M7.3167 3.29844C7.3167 3.29844 7.45154 3.10196 7.58331 2.81998C7.6305 2.719 7.67729 2.60706 7.71736 2.48924C7.77861 2.30914 7.84682 2.01954 7.84682 2.01954L7.97544 2.27945M7.97544 2.27945C7.97544 2.27945 8.04146 2.61779 8.11452 2.82611M8.11452 2.82611L7.96046 2.67262L7.91643 3.47356M7.91643 3.47356L7.89373 3.86935" stroke="#F8F7FC" stroke-width="0.0368795"/>
</g>
<defs>
<filter id="filter0_d_1193_971" x="7.03888" y="1.96521" width="1.88828" height="3.52329" filterUnits="userSpaceOnUse" color-interpolation-filters="sRGB">
<feFlood flood-opacity="0" result="BackgroundImageFix"/>
<feColorMatrix in="SourceAlpha" type="matrix" values="0 0 0 0 0 0 0 0 0 0 0 0 0 0 0 0 0 0 127 0" result="hardAlpha"/>
<feOffset dx="0.0745073" dy="0.0596058"/>
<feGaussianBlur stdDeviation="0.0268226"/>
<feComposite in2="hardAlpha" operator="out"/>
<feColorMatrix type="matrix" values="0 0 0 0 0 0 0 0 0 0 0 0 0 0 0 0 0 0 0.25 0"/>
<feBlend mode="normal" in2="BackgroundImageFix" result="effect1_dropShadow_1193_971"/>
<feBlend mode="normal" in="SourceGraphic" in2="effect1_dropShadow_1193_971" result="shape"/>
</filter>
<radialGradient id="paint0_radial_1193_971" cx="0" cy="0" r="1" gradientUnits="userSpaceOnUse" gradientTransform="translate(9.29262 9.78739) scale(7.16361 7.16358)">
<stop offset="0.5" stop-color="#FDE030"/>
<stop offset="0.92" stop-color="#F7C02B"/>
<stop offset="1" stop-color="#F4A223"/>
</radialGradient>
</defs>
</svg>
