<svg width="18" height="18" viewBox="0 0 18 18" fill="none" xmlns="http://www.w3.org/2000/svg">
<path d="M8.78939 15.1753C5.52346 15.1753 2 13.1268 2 8.63179C2 4.13677 5.52346 2.08826 8.78939 2.08826C10.6038 2.08826 12.2777 2.68525 13.5185 3.77389C14.8647 4.96788 15.5788 6.65352 15.5788 8.63179C15.5788 10.6101 14.8647 12.284 13.5185 13.478C12.2777 14.5666 10.5921 15.1753 8.78939 15.1753Z" fill="url(#paint0_radial_1193_1671)"/>
<path d="M14.3973 4.74133C15.0212 5.74803 15.3466 6.9467 15.3466 8.27999C15.3466 10.2583 14.6326 11.9322 13.2864 13.1262C12.0456 14.2148 10.3599 14.8235 8.55723 14.8235C6.44316 14.8235 4.22607 13.9632 2.91736 12.1382C4.17691 14.2055 6.54617 15.1747 8.79135 15.1747C10.594 15.1747 12.2797 14.566 13.5205 13.4774C14.8667 12.2834 15.5807 10.6094 15.5807 8.63117C15.5807 7.13985 15.1745 5.81475 14.3973 4.74133Z" fill="#EB8F00"/>
<path d="M8.70044 10.68C7.35427 10.6871 6.01044 10.5747 4.68417 10.3417C4.46176 10.2996 4.24637 10.4459 4.20423 10.6683C4.19486 10.7198 4.19486 10.7737 4.20423 10.8252C4.58584 12.6981 6.42834 14.2351 8.69927 14.2351C11.1821 14.2351 12.8525 12.6466 13.2002 10.8182C13.24 10.5946 13.0925 10.3815 12.8689 10.3406C12.8197 10.3312 12.7682 10.3324 12.7191 10.3417C11.3928 10.5747 10.0478 10.6871 8.70044 10.68Z" fill="#422B0D"/>
<path d="M9.01904 11.22H8.69947H8.55198C7.88124 11.22 7.21986 11.1884 6.58423 11.1357V14.0118C6.5854 15.1204 7.48558 16.0194 8.59412 16.0194H8.9769C10.0866 16.0194 10.9868 15.1192 10.9868 14.0095V11.1205C10.3523 11.1778 9.69213 11.2118 9.01904 11.22Z" fill="#FF4081"/>
<path opacity="0.3" d="M8.78405 13.7068C8.91282 13.7068 9.01817 13.6015 9.01817 13.4727V11.2194H8.6986H8.54994V13.4716C8.54877 13.6003 8.65412 13.7057 8.78288 13.7068H8.78405Z" fill="#AB3F2E"/>
<path d="M6.49738 6.76526C6.00691 6.76526 5.56091 7.17964 5.56091 7.86794C5.56091 8.55625 6.00691 8.96946 6.49738 8.96946C6.98903 8.96946 7.43385 8.55507 7.43385 7.86794C7.43385 7.18081 6.99371 6.76526 6.49738 6.76526Z" fill="#422B0D"/>
<path d="M6.45623 7.2247C6.29001 7.1451 6.08984 7.21533 6.00907 7.38156C5.94702 7.51149 5.97512 7.66718 6.0793 7.76785C6.24552 7.84745 6.44569 7.77721 6.52646 7.61099C6.5885 7.48106 6.56041 7.32537 6.45623 7.2247Z" fill="#896024"/>
<path d="M10.9907 6.76526C10.5003 6.76526 10.0543 7.17964 10.0543 7.86794C10.0543 8.55625 10.5003 8.96946 10.9907 8.96946C11.4812 8.96946 11.9272 8.55507 11.9272 7.86794C11.9272 7.18081 11.4812 6.76526 10.9907 6.76526Z" fill="#422B0D"/>
<path d="M10.9428 7.2247C10.7766 7.1451 10.5764 7.21533 10.4956 7.38156C10.4336 7.51149 10.4617 7.66718 10.5659 7.76785C10.7321 7.84745 10.9323 7.77721 11.013 7.61099C11.0751 7.48106 11.047 7.32537 10.9428 7.2247Z" fill="#896024"/>
<path opacity="0.3" d="M9.01747 11.2206H8.54923C7.87849 11.2206 7.21711 11.189 6.58148 11.1363V11.5519C7.13634 11.6771 8.78218 11.9592 10.984 11.5261V11.1211C10.3508 11.1785 9.69055 11.2124 9.01747 11.2206Z" fill="#AB3F2E"/>
<path d="M4.59214 1.28478H5.12732C5.12732 1.28478 7.32561 0.987414 8.8122 1.00054C10.2293 1.01306 12.3128 1.28478 12.3128 1.28478H13.1551C14.0125 2.69242 14.6287 4.13795 14.9113 5.62285C12.1412 4.83938 9.04121 6.48779 8.8122 6.49534C8.58318 6.50288 5.43315 4.86828 2.73987 5.45306C3.17097 3.93302 3.70229 2.55362 4.59214 1.28478Z" fill="#7F2125"/>
<path d="M4.59214 1.28478H5.12732C5.12732 1.28478 7.32561 0.987414 8.8122 1.00054C10.2293 1.01306 12.3128 1.28478 12.3128 1.28478H13.1551M4.59214 1.28478C3.70229 2.55362 3.17097 3.93302 2.73987 5.45306C5.43315 4.86828 8.58318 6.50288 8.8122 6.49534C9.04121 6.48779 12.1412 4.83938 14.9113 5.62285C14.6287 4.13795 14.0125 2.69242 13.1551 1.28478M4.59214 1.28478C5.28827 2.03646 6.28003 1.56427 8.8122 2.14272C11.1048 1.58175 12.2087 2.07369 13.1551 1.28478" stroke="#67211F" stroke-width="0.065961"/>
<path d="M8.82941 6.47086L8.83754 2.14656C10.5612 1.6199 11.8698 2.03108 13.163 1.31042C13.7262 2.17147 14.6578 3.78371 14.9192 5.61056C12.6806 5.03749 10.3137 5.79399 8.82941 6.47086Z" fill="#67211F" stroke="#67211F" stroke-width="0.0413981"/>
<path d="M5.87386 1.77244C5.4825 1.51179 5.11531 1.65303 5.13141 1.27869L4.62732 1.29461C5.02023 1.71394 5.60114 1.71284 5.87386 1.77244Z" fill="#67211F"/>
<path d="M11.6984 1.72471C12.0898 1.4667 12.4031 1.63338 12.387 1.26282H13.1594C12.7664 1.67791 11.9712 1.66572 11.6984 1.72471Z" fill="#67211F" fill-opacity="0.56"/>
<path d="M8.88829 1.32649L8.80039 2.09513L8.96181 2.08406L8.88829 1.32649Z" fill="#67211F" stroke="#67211F" stroke-width="0.100363"/>
<path d="M6.77721 1.86007C6.49266 1.84425 6.32135 1.82844 6.08612 1.81262C5.93978 3.48489 5.88361 3.89898 6.1885 5.55533C6.60202 5.66297 6.91471 5.76453 7.27167 5.87386C6.43462 4.36005 6.66723 3.38755 6.77721 1.86007Z" fill="#D60000" stroke="#67211F" stroke-width="0.0413981"/>
<path d="M6.30886 1.83637L6.10559 1.82056L6.06494 2.12105L6.30886 1.83637Z" fill="#398F00" stroke="#67211F" stroke-width="0.00836361"/>
<path d="M5.97754 2.95982L6.74994 2.07415L6.75807 1.87645L6.31089 1.83691L6.06697 2.1216L5.97754 2.95982Z" fill="#FF7F00" stroke="#67211F" stroke-width="0.00836361"/>
<path d="M6.47948 2.37395C6.47948 2.37395 6.23286 2.09981 6.14613 2.026L6.06483 2.12089L5.98352 2.95122C6.10277 2.81151 6.47948 2.37395 6.47948 2.37395Z" fill="#D60000" stroke="#67211F" stroke-width="0.00836361"/>
<path d="M6.7182 3.03105C6.71904 2.6898 6.72712 2.47817 6.75072 2.07422L5.98645 2.95197C5.95923 3.3002 5.95275 3.49229 5.9458 3.82973L6.7182 3.03105Z" fill="#007FFF" stroke="#67211F" stroke-width="0.00669088"/>
<path d="M6.5312 3.22086L6.14906 2.76221L5.98645 2.95199C5.96524 3.29559 5.95506 3.48624 5.9458 3.82976L6.5312 3.22086Z" fill="#398F00" stroke="#67211F" stroke-width="0.00669088"/>
<path d="M6.56372 4.01913L6.18972 3.57629L5.9458 3.82934C5.95393 4.1852 5.97832 4.34335 6.00274 4.63594L6.56372 4.01913Z" fill="#D60000" stroke="#67211F" stroke-width="0.00669088"/>
<path d="M6.52989 4.92108L6.15588 4.47034L6.0014 4.6364C6.06645 5.00016 6.08271 5.09505 6.14775 5.36392L6.52989 4.92108Z" fill="#007FFF" stroke="#67211F" stroke-width="0.00669088"/>
<path d="M6.62405 5.67209L6.25818 5.22925L6.14435 5.36368L6.19574 5.53991L6.62405 5.67209Z" fill="#FF7F00" stroke="#67211F" stroke-width="0.00669088"/>
<path d="M6.75719 3.80524C6.72825 3.5394 6.71734 3.37542 6.71653 3.03027L6.18805 3.57591C6.43196 3.86059 6.38318 3.79733 6.56205 4.01875L6.75719 3.80524Z" fill="#FF7F00" stroke="#67211F" stroke-width="0.00669088"/>
<path d="M6.85547 4.54112C6.82295 4.29598 6.7823 4.16945 6.75791 3.8136L6.15625 4.46995C6.39427 4.7719 6.34694 4.70409 6.53025 4.91271L6.85547 4.54112Z" fill="#398F00" stroke="#67211F" stroke-width="0.00669088"/>
<path d="M7.04402 5.24506C6.97084 4.9841 6.93019 4.87339 6.85702 4.54126L6.26349 5.22924C6.45049 5.46647 6.45049 5.46647 6.63749 5.67999L7.04402 5.24506Z" fill="#D60000" stroke="#67211F" stroke-width="0.00669088"/>
<path d="M7.27276 5.85813C7.08576 5.6288 7.0975 5.64016 6.90237 5.39502L6.62286 5.66701C6.96585 5.75659 6.95985 5.75461 6.95985 5.75461L7.27276 5.85813Z" fill="#398F00" stroke="#67211F" stroke-width="0.00669088"/>
<path d="M7.04105 5.24561L6.90283 5.39585L7.26057 5.83869H7.26871L7.04105 5.24561Z" fill="#007FFF" stroke="#67211F" stroke-width="0.00669088"/>
<path d="M6.79939 4.17739L6.75874 3.82153L6.70995 3.86898L6.63678 3.94806L6.79939 4.17739Z" fill="#007FFF" stroke="#67211F" stroke-width="0.00669088"/>
<g filter="url(#filter0_d_1193_1671)">
<path d="M7.82787 2.83581L7.95912 2.63397C7.95912 2.63397 8.10173 3.22595 8.00217 3.60466C7.92301 3.90578 7.63115 4.29872 7.63115 4.29872C7.49756 4.63799 7.50611 4.82407 7.57852 5.1532L7.31214 5.46477C7.31214 5.46477 7.22978 5.03335 7.0967 4.82178C6.90362 4.51481 6.58504 4.59829 6.38857 4.32848C6.09768 3.92899 6.24851 3.08558 6.24851 3.08558L6.48454 3.28887C6.48454 3.28887 6.62758 3.07888 6.76738 2.7775C6.81744 2.66958 6.86709 2.54993 6.9096 2.42401C6.97458 2.23153 7.04694 1.922 7.04694 1.922L7.18339 2.19979L7.29312 2.05208C7.29312 2.05208 7.30269 2.26501 7.34318 2.38407C7.43612 2.65733 7.54285 2.75681 7.82787 2.83581Z" fill="url(#paint1_linear_1193_1671)"/>
<path d="M7.82787 2.83581C7.87913 2.75699 7.95912 2.63397 7.95912 2.63397C7.95912 2.63397 8.10173 3.22595 8.00217 3.60466C7.92301 3.90578 7.63115 4.29872 7.63115 4.29872C7.49756 4.63799 7.50611 4.82407 7.57852 5.1532L7.31214 5.46477C7.31214 5.46477 7.22978 5.03335 7.0967 4.82178C6.90362 4.51481 6.58504 4.59829 6.38857 4.32848C6.09768 3.92899 6.24851 3.08558 6.24851 3.08558L6.48454 3.28887M7.82787 2.83581C7.54285 2.75681 7.43612 2.65733 7.34318 2.38407C7.30269 2.26501 7.29312 2.05208 7.29312 2.05208L7.18339 2.19979M7.82787 2.83581C7.82005 2.86437 7.59081 3.35707 7.59081 3.35707C7.59081 3.35707 7.41154 3.01561 7.33094 2.78405M6.48454 3.28887C6.61957 3.44337 6.63989 3.54434 6.67816 3.72335L6.8534 3.08278L7.12079 3.47604L7.1675 2.62L7.33094 2.78405M6.48454 3.28887C6.48454 3.28887 6.62758 3.07888 6.76738 2.7775C6.81744 2.66958 6.86709 2.54993 6.9096 2.42401C6.97458 2.23153 7.04694 1.922 7.04694 1.922L7.18339 2.19979M7.18339 2.19979C7.18339 2.19979 7.25343 2.56141 7.33094 2.78405" stroke="#F8F7FC" stroke-width="0.0413981"/>
</g>
<defs>
<filter id="filter0_d_1193_1671" x="6.18866" y="1.86072" width="2.01342" height="3.7774" filterUnits="userSpaceOnUse" color-interpolation-filters="sRGB">
<feFlood flood-opacity="0" result="BackgroundImageFix"/>
<feColorMatrix in="SourceAlpha" type="matrix" values="0 0 0 0 0 0 0 0 0 0 0 0 0 0 0 0 0 0 127 0" result="hardAlpha"/>
<feOffset dx="0.0836361" dy="0.0669089"/>
<feGaussianBlur stdDeviation="0.030109"/>
<feComposite in2="hardAlpha" operator="out"/>
<feColorMatrix type="matrix" values="0 0 0 0 0 0 0 0 0 0 0 0 0 0 0 0 0 0 0.25 0"/>
<feBlend mode="normal" in2="BackgroundImageFix" result="effect1_dropShadow_1193_1671"/>
<feBlend mode="normal" in="SourceGraphic" in2="effect1_dropShadow_1193_1671" result="shape"/>
</filter>
<radialGradient id="paint0_radial_1193_1671" cx="0" cy="0" r="1" gradientUnits="userSpaceOnUse" gradientTransform="translate(8.78939 8.63179) scale(6.66761 6.66758)">
<stop offset="0.5" stop-color="#FDE030"/>
<stop offset="0.92" stop-color="#F7C02B"/>
<stop offset="1" stop-color="#F4A223"/>
</radialGradient>
<linearGradient id="paint1_linear_1193_1671" x1="7.48336" y1="2.03653" x2="6.63061" y2="5.28591" gradientUnits="userSpaceOnUse">
<stop stop-color="#C9C9C9"/>
<stop offset="1" stop-color="#939297"/>
</linearGradient>
</defs>
</svg>
