<svg width="19" height="19" viewBox="0 0 19 19" fill="none" xmlns="http://www.w3.org/2000/svg">
<g clip-path="url(#clip0_1200_7852)">
<path d="M9.89135 16.8302C6.4048 16.8302 2.64333 14.6434 2.64333 9.84469C2.64333 5.04602 6.4048 2.85913 9.89135 2.85913C11.8283 2.85913 13.6153 3.49645 14.94 4.65863C16.3771 5.93328 17.1394 7.73278 17.1394 9.84469C17.1394 11.9566 16.3771 13.7436 14.94 15.0183C13.6153 16.1804 11.8158 16.8302 9.89135 16.8302Z" fill="url(#paint0_radial_1200_7852)"/>
<path d="M15.8756 5.69177C16.5417 6.76647 16.8891 8.04612 16.8891 9.46947C16.8891 11.5814 16.1268 13.3684 14.6897 14.643C13.3651 15.8052 11.5656 16.455 9.64109 16.455C7.38421 16.455 5.01736 15.5365 3.62024 13.5883C4.96487 15.7952 7.49418 16.8299 9.89102 16.8299C11.8155 16.8299 13.615 16.1801 14.9396 15.0179C16.3768 13.7433 17.139 11.9563 17.139 9.84437C17.139 8.25231 16.7054 6.8377 15.8756 5.69177Z" fill="#EB8F00"/>
<path d="M17.7163 9.58145C17.6775 9.52521 17.6325 9.47273 17.5838 9.42524C17.5601 9.4015 17.5338 9.379 17.5076 9.35776C17.3151 9.20155 17.0739 9.11658 16.8265 9.11658H10.6907C10.5532 9.11658 10.4408 9.22905 10.4408 9.36651V11.0535C10.4408 11.0873 10.447 11.1198 10.4607 11.151C10.467 11.166 10.4745 11.1798 10.4832 11.1935C10.502 11.2197 10.5245 11.2422 10.5507 11.261C10.592 11.2885 10.6407 11.3035 10.6907 11.3035H16.789C16.9002 11.3035 17.0115 11.2872 17.1189 11.2547C17.1877 11.2335 17.2551 11.206 17.3189 11.1723C17.675 10.9861 17.8987 10.6187 17.9012 10.2163V10.1663C17.9012 9.95759 17.8362 9.75265 17.7163 9.58145Z" fill="url(#paint1_linear_1200_7852)"/>
<path d="M14.5761 9.11658H9.8899V11.3035H14.5761V9.11658Z" fill="url(#paint2_linear_1200_7852)"/>
<path d="M15.7162 9.11659H16.8259C17.0734 9.11534 17.3133 9.19907 17.507 9.35403C17.5332 9.37527 17.5595 9.39776 17.5832 9.42151C17.632 9.46899 17.677 9.52148 17.7157 9.57771C17.8357 9.74892 17.9006 9.95386 17.9006 10.1626V10.2125C17.8994 10.6174 17.672 10.9861 17.3133 11.1723C17.2496 11.206 17.1821 11.2335 17.1134 11.2547C17.0059 11.2872 16.8947 11.3035 16.7834 11.3035H15.8137" fill="url(#paint3_linear_1200_7852)"/>
<path d="M9.35212 13.2915C10.2394 13.004 11.0267 13.254 11.3141 13.4914C11.4166 13.5614 11.474 13.6801 11.464 13.8038C11.4478 13.8838 11.3916 13.95 11.3141 13.9788C11.2866 13.9888 11.2566 13.9938 11.2266 13.9913C10.1669 14.0138 9.13593 14.3487 8.26492 14.9535C8.23993 14.966 8.21493 14.991 8.18994 14.991C8.11121 15.0185 8.02374 14.9997 7.965 14.941C7.88502 14.8473 7.86128 14.7186 7.90252 14.6036C7.9775 14.2537 8.46487 13.5914 9.35212 13.2915Z" fill="#422B0D"/>
<path d="M13.2869 8.77697C13.2869 8.03967 12.812 7.60229 12.2871 7.60229C11.7623 7.60229 11.2874 8.03967 11.2874 8.77697C11.2874 8.89069 11.2999 9.00316 11.3249 9.11437H13.2494C13.2744 9.00316 13.2869 8.89069 13.2869 8.77697Z" fill="#422B0D"/>
<path d="M7.59086 7.60229C7.066 7.60229 6.59113 8.03967 6.59113 8.77697C6.59113 9.51426 7.066 9.95164 7.59086 9.95164C8.11571 9.95164 8.59058 9.51426 8.59058 8.77697C8.59058 8.03967 8.11571 7.60229 7.59086 7.60229Z" fill="#422B0D"/>
<path d="M11.0196 11.2373C12.243 11.1723 13.4677 11.1373 14.6924 11.1123C15.3047 11.0973 15.917 11.0948 16.5294 11.0861H16.7555C16.8205 11.0836 16.8855 11.0748 16.9492 11.0599C17.0767 11.0274 17.1954 10.9686 17.2979 10.8862C17.5041 10.7212 17.6228 10.47 17.6191 10.2063C17.6241 10.0764 17.5978 9.94891 17.5416 9.83144C17.5153 9.77271 17.4803 9.71772 17.4366 9.67024L17.3741 9.59651C17.3504 9.57401 17.3266 9.55152 17.3016 9.53153C17.2004 9.44655 17.0817 9.38657 16.953 9.35658C16.888 9.34283 16.823 9.33533 16.7568 9.33533H16.5269C15.9158 9.31909 15.3034 9.30909 14.6911 9.28784C13.4664 9.24911 12.243 9.20037 11.0196 9.12039C12.2443 9.06915 13.4689 9.04916 14.6936 9.04166C15.3047 9.03416 15.917 9.04166 16.5294 9.04166H16.7593C17.0255 9.03916 17.2842 9.12789 17.4928 9.29159C17.5266 9.31909 17.5603 9.34783 17.5916 9.37782L17.6778 9.47904C17.7365 9.54527 17.7865 9.62025 17.824 9.70023C17.9002 9.86019 17.9377 10.0351 17.934 10.2126C17.9352 10.5712 17.7715 10.9099 17.4903 11.1323C17.3529 11.2411 17.1929 11.3173 17.0217 11.356C16.9367 11.3773 16.8493 11.3885 16.7618 11.3898H16.5294C15.917 11.381 15.3047 11.3785 14.6924 11.3635C13.4677 11.3373 12.243 11.3023 11.0196 11.2373Z" fill="#EB8F00"/>
<path d="M5.82347 7.0425C5.61728 7.2312 5.29111 6.99876 5.46357 6.75258C5.85721 6.22398 6.4383 5.86533 7.08812 5.75286C7.32681 5.70037 7.57299 5.68913 7.81542 5.71912C7.94164 5.72412 8.04036 5.83034 8.03536 5.95655C8.03036 6.08277 7.92414 6.18149 7.79793 6.17649H7.78043C7.04938 6.23647 6.35957 6.54139 5.82347 7.0425Z" fill="#422B0D"/>
<path d="M5.65948 1.45806L6.15298 1.43536C6.15298 1.43536 8.16743 1.06684 9.5388 1.01595C10.846 0.967449 12.7789 1.13065 12.7789 1.13065L13.5556 1.09493C14.4062 2.36172 15.036 3.67384 15.3597 5.03654C12.772 4.42869 9.77274 6.10291 9.77274 6.10291C9.77274 6.10291 6.58757 4.73991 4.12891 5.39551C4.46173 3.97 4.89295 2.67045 5.65948 1.45806Z" fill="#7F2125"/>
<path d="M5.65948 1.45806L6.15298 1.43536C6.15298 1.43536 8.16743 1.06684 9.5388 1.01595C10.846 0.967449 12.7789 1.13065 12.7789 1.13065L13.5556 1.09493M5.65948 1.45806C4.89295 2.67045 4.46173 3.97 4.12891 5.39551C6.58757 4.73991 9.77274 6.10291 9.77274 6.10291C9.77274 6.10291 12.772 4.42869 15.3597 5.03654C15.036 3.67384 14.4062 2.36172 13.5556 1.09493M5.65948 1.45806C6.3334 2.12442 7.22782 1.64522 9.58743 2.07336C11.6776 1.4568 12.7165 1.86541 13.5556 1.09493" stroke="#67211F" stroke-width="0.0582032"/>
<path d="M9.7882 6.07966L9.61159 2.07598C11.1786 1.51531 12.4029 1.84047 13.5646 1.11847C14.1206 1.89172 15.0484 3.34479 15.3671 5.02496C13.2785 4.58936 11.1281 5.39008 9.7882 6.07966Z" fill="#67211F" stroke="#67211F" stroke-width="0.0365292"/>
<path d="M6.86233 1.85517C6.49034 1.63047 6.15777 1.7768 6.15667 1.42955L5.69252 1.46567C6.07268 1.83721 6.60831 1.81156 6.86233 1.85517Z" fill="#67211F"/>
<path d="M12.2332 1.56379C12.5831 1.30833 12.8791 1.44935 12.8485 1.10697L13.5607 1.07422C13.2161 1.47516 12.4822 1.49761 12.2332 1.56379Z" fill="#67211F" fill-opacity="0.56"/>
<path d="M9.62331 1.31427L9.57498 2.02959L9.72336 2.01249L9.62331 1.31427Z" fill="#67211F" stroke="#67211F" stroke-width="0.0885594"/>
<path d="M7.69901 1.89778C7.43595 1.8952 7.2773 1.88783 7.05971 1.88316C6.99597 3.43752 6.96181 3.82325 7.31347 5.34373C7.69937 5.42585 7.99203 5.50661 8.32585 5.59268C7.48954 4.22673 7.66263 3.31655 7.69901 1.89778Z" fill="#D60000" stroke="#67211F" stroke-width="0.0365292"/>
<path d="M7.27013 1.89584L7.07927 1.88973L7.05421 2.17376L7.27013 1.89584Z" fill="#398F00" stroke="#67211F" stroke-width="0.00737995"/>
<path d="M7.00794 2.94972L7.68248 2.09703L7.68156 1.91366L7.26752 1.89602L7.05472 2.16992L7.00794 2.94972Z" fill="#FF7F00" stroke="#67211F" stroke-width="0.00737995"/>
<path d="M7.44798 2.38666C7.44798 2.38666 7.20888 2.14333 7.12577 2.07868L7.05484 2.16997L7.01521 2.94211C7.11923 2.80772 7.44798 2.38666 7.44798 2.38666Z" fill="#D60000" stroke="#67211F" stroke-width="0.00737995"/>
<path d="M7.69371 2.9838C7.67995 2.66783 7.6784 2.47158 7.68296 2.0966L7.01558 2.94162C7.00531 3.26515 7.0075 3.44326 7.01546 3.75595L7.69371 2.9838Z" fill="#007FFF" stroke="#67211F" stroke-width="0.00590396"/>
<path d="M7.52931 3.16749L7.1574 2.75908L7.01554 2.94168C7.01061 3.26067 7.00934 3.4376 7.01542 3.75602L7.52931 3.16749Z" fill="#398F00" stroke="#67211F" stroke-width="0.00590396"/>
<path d="M7.59275 3.90562L7.22901 3.51151L7.01487 3.75612C7.03751 4.08521 7.06674 4.2306 7.10172 4.50043L7.59275 3.90562Z" fill="#D60000" stroke="#67211F" stroke-width="0.00590396"/>
<path d="M7.60128 4.74168L7.23721 4.34025L7.10183 4.50054C7.1773 4.83454 7.19634 4.9217 7.26776 5.16786L7.60128 4.74168Z" fill="#007FFF" stroke="#67211F" stroke-width="0.00590396"/>
<path d="M7.72493 5.43498L7.36696 5.03861L7.26723 5.16852L7.32239 5.33027L7.72493 5.43498Z" fill="#FF7F00" stroke="#67211F" stroke-width="0.00590396"/>
<path d="M7.7647 3.69978C7.7267 3.4549 7.70965 3.30355 7.69422 2.98406L7.23012 3.51161C7.46716 3.76482 7.41948 3.70832 7.59385 3.90572L7.7647 3.69978Z" fill="#FF7F00" stroke="#67211F" stroke-width="0.00590396"/>
<path d="M7.88556 4.37641C7.84513 4.15085 7.80226 4.03543 7.76462 3.70703L7.23776 4.34018C7.47009 4.60963 7.42356 4.54885 7.60149 4.73422L7.88556 4.37641Z" fill="#398F00" stroke="#67211F" stroke-width="0.00590396"/>
<path d="M8.08919 5.02019C8.01061 4.78171 7.96841 4.68094 7.88679 4.37656L7.36877 5.03865C7.55131 5.25035 7.55131 5.25035 7.73284 5.44008L8.08919 5.02019Z" fill="#D60000" stroke="#67211F" stroke-width="0.00590396"/>
<path d="M8.33101 5.58001C8.14792 5.37464 8.15928 5.38471 7.96798 5.16497L7.72062 5.42991C8.04228 5.49863 8.03663 5.49704 8.03663 5.49704L8.33101 5.58001Z" fill="#398F00" stroke="#67211F" stroke-width="0.00590396"/>
<path d="M8.0886 5.01999L7.96695 5.16565L8.31739 5.56238L8.32493 5.56203L8.0886 5.01999Z" fill="#007FFF" stroke="#67211F" stroke-width="0.00590396"/>
<path d="M7.81834 4.0436L7.76545 3.71429L7.72227 3.7605L7.65785 3.83719L7.81834 4.0436Z" fill="#007FFF" stroke="#67211F" stroke-width="0.00590396"/>
<g filter="url(#filter0_d_1200_7852)">
<path d="M8.71061 2.75622L8.82305 2.56379C8.82305 2.56379 8.97976 3.10579 8.90408 3.46061C8.8439 3.74274 8.5915 4.11889 8.5915 4.11889C8.48276 4.43864 8.49856 4.61055 8.57935 4.91218L8.34698 5.21192C8.34698 5.21192 8.25266 4.81602 8.12094 4.62579C7.92982 4.34979 7.6396 4.44059 7.44695 4.19913C7.16171 3.84163 7.26488 3.05442 7.26488 3.05442L7.49118 3.23262C7.49118 3.23262 7.61415 3.03214 7.73023 2.74721C7.77179 2.64517 7.81248 2.5323 7.84632 2.41393C7.89805 2.23297 7.95159 1.94335 7.95159 1.94335L8.08924 2.19474L8.18414 2.05334C8.18414 2.05334 8.20203 2.25005 8.24444 2.35856C8.34177 2.6076 8.44443 2.69517 8.71061 2.75622Z" fill="url(#paint4_linear_1200_7852)"/>
<path d="M8.71061 2.75622C8.75452 2.68107 8.82305 2.56379 8.82305 2.56379C8.82305 2.56379 8.97976 3.10579 8.90408 3.46061C8.8439 3.74274 8.5915 4.11889 8.5915 4.11889C8.48276 4.43864 8.49856 4.61055 8.57935 4.91218L8.34698 5.21192C8.34698 5.21192 8.25266 4.81602 8.12094 4.62579C7.92982 4.34979 7.6396 4.44059 7.44695 4.19913C7.16171 3.84163 7.26488 3.05442 7.26488 3.05442L7.49118 3.23262M8.71061 2.75622C8.44443 2.69517 8.34177 2.6076 8.24444 2.35856C8.20203 2.25005 8.18414 2.05334 8.18414 2.05334L8.08924 2.19474M8.71061 2.75622C8.70462 2.78299 8.51421 3.24885 8.51421 3.24885C8.51421 3.24885 8.33436 2.94033 8.25018 2.72938M7.49118 3.23262C7.62228 3.36992 7.64531 3.46254 7.68822 3.62664L7.82255 3.02618L8.08586 3.37891L8.09248 2.58443L8.25018 2.72938M7.49118 3.23262C7.49118 3.23262 7.61415 3.03214 7.73023 2.74721C7.77179 2.64517 7.81248 2.5323 7.84632 2.41393C7.89805 2.23297 7.95159 1.94335 7.95159 1.94335L8.08924 2.19474M8.08924 2.19474C8.08924 2.19474 8.16923 2.52654 8.25018 2.72938" stroke="#F8F7FC" stroke-width="0.0365292"/>
</g>
<path d="M13.7842 6.27367C13.9766 6.47612 14.3178 6.26742 14.1591 6.01C13.8054 5.4489 13.2493 5.04651 12.6057 4.88531C12.3708 4.81783 12.1259 4.79158 11.8822 4.80658C11.756 4.80283 11.6497 4.90155 11.646 5.02777C11.6423 5.15398 11.741 5.2602 11.8672 5.26395H11.8847C12.6145 5.37392 13.2843 5.73132 13.7842 6.27367Z" fill="#422B0D"/>
</g>
<defs>
<filter id="filter0_d_1200_7852" x="7.2284" y="1.8894" width="1.84155" height="3.47607" filterUnits="userSpaceOnUse" color-interpolation-filters="sRGB">
<feFlood flood-opacity="0" result="BackgroundImageFix"/>
<feColorMatrix in="SourceAlpha" type="matrix" values="0 0 0 0 0 0 0 0 0 0 0 0 0 0 0 0 0 0 127 0" result="hardAlpha"/>
<feOffset dx="0.0737995" dy="0.0590396"/>
<feGaussianBlur stdDeviation="0.0265678"/>
<feComposite in2="hardAlpha" operator="out"/>
<feColorMatrix type="matrix" values="0 0 0 0 0 0 0 0 0 0 0 0 0 0 0 0 0 0 0.25 0"/>
<feBlend mode="normal" in2="BackgroundImageFix" result="effect1_dropShadow_1200_7852"/>
<feBlend mode="normal" in="SourceGraphic" in2="effect1_dropShadow_1200_7852" result="shape"/>
</filter>
<radialGradient id="paint0_radial_1200_7852" cx="0" cy="0" r="1" gradientUnits="userSpaceOnUse" gradientTransform="translate(9.89135 9.84469) scale(7.11802 7.11799)">
<stop offset="0.5" stop-color="#FDE030"/>
<stop offset="0.92" stop-color="#F7C02B"/>
<stop offset="1" stop-color="#F4A223"/>
</radialGradient>
<linearGradient id="paint1_linear_1200_7852" x1="14.171" y1="11.3035" x2="14.171" y2="9.11658" gradientUnits="userSpaceOnUse">
<stop offset="0.02" stop-color="#FCC21B"/>
<stop offset="0.7" stop-color="#FDE030"/>
<stop offset="1" stop-color="#F4A223"/>
</linearGradient>
<linearGradient id="paint2_linear_1200_7852" x1="9.8899" y1="10.21" x2="14.5761" y2="10.21" gradientUnits="userSpaceOnUse">
<stop offset="0.4" stop-color="#FDE030"/>
<stop offset="1" stop-color="#F4A223" stop-opacity="0"/>
</linearGradient>
<linearGradient id="paint3_linear_1200_7852" x1="15.7162" y1="10.21" x2="17.9006" y2="10.21" gradientUnits="userSpaceOnUse">
<stop stop-color="#F4A223" stop-opacity="0"/>
<stop offset="0.6" stop-color="#FCC21B"/>
</linearGradient>
<linearGradient id="paint4_linear_1200_7852" x1="8.35891" y1="2.03087" x2="7.705" y2="5.07397" gradientUnits="userSpaceOnUse">
<stop stop-color="#C9C9C9"/>
<stop offset="1" stop-color="#939297"/>
</linearGradient>
<clipPath id="clip0_1200_7852">
<rect width="17.996" height="17.996" fill="white" transform="translate(0.944519 0.984131)"/>
</clipPath>
</defs>
</svg>
