<svg width="18" height="18" viewBox="0 0 18 18" fill="none" xmlns="http://www.w3.org/2000/svg">
<g clip-path="url(#clip0_1206_12493)">
<path d="M8.98538 16.3409C5.49884 16.3409 1.73737 14.154 1.73737 9.35531C1.73737 4.55664 5.49884 2.36975 8.98538 2.36975C10.9224 2.36975 12.7094 3.00707 14.034 4.16925C15.4711 5.4439 16.2334 7.2434 16.2334 9.35531C16.2334 11.4672 15.4711 13.2542 14.034 14.5289C12.7094 15.6911 10.9099 16.3409 8.98538 16.3409Z" fill="url(#paint0_radial_1206_12493)"/>
<path d="M8.98538 16.3409C5.49884 16.3409 1.73737 14.154 1.73737 9.35531C1.73737 4.55664 5.49884 2.36975 8.98538 2.36975C10.9224 2.36975 12.7094 3.00707 14.034 4.16925C15.4711 5.4439 16.2334 7.2434 16.2334 9.35531C16.2334 11.4672 15.4711 13.2542 14.034 14.5289C12.7094 15.6911 10.9099 16.3409 8.98538 16.3409Z" fill="url(#paint1_linear_1206_12493)"/>
<path d="M14.9697 5.20239C15.6358 6.27709 15.9832 7.55674 15.9832 8.98009C15.9832 11.092 15.2209 12.879 13.7838 14.1537C12.4591 15.3158 10.6596 15.9657 8.73515 15.9657C6.47827 15.9657 4.11141 15.0472 2.71429 13.099C4.05893 15.3058 6.58824 16.3406 8.98508 16.3406C10.9096 16.3406 12.7091 15.6907 14.0337 14.5286C15.4708 13.2539 16.2331 11.4669 16.2331 9.35499C16.2331 7.76293 15.7995 6.34832 14.9697 5.20239Z" fill="#EB8F00"/>
<path d="M8.90013 15.2462C10.8492 15.2462 12.4292 13.8626 12.4292 12.1558C12.4292 10.449 10.8492 9.06543 8.90013 9.06543C6.9511 9.06543 5.37109 10.449 5.37109 12.1558C5.37109 13.8626 6.9511 15.2462 8.90013 15.2462Z" fill="#422B0D"/>
<path fill-rule="evenodd" clip-rule="evenodd" d="M13.337 7.44388C13.3371 7.44404 13.3372 7.4442 13.0102 7.62762L13.3372 7.4442C13.4385 7.62478 13.3742 7.85328 13.1936 7.95458C13.0135 8.05562 12.7857 7.99195 12.684 7.81244C12.684 7.81237 12.6839 7.81227 12.6839 7.81216C12.6834 7.81128 12.6821 7.80919 12.6802 7.80597C12.6763 7.79951 12.6695 7.78859 12.6599 7.7739C12.6407 7.74447 12.6102 7.70031 12.5686 7.64703C12.4847 7.53983 12.3585 7.39953 12.1905 7.26797C11.8595 7.00877 11.3705 6.78418 10.6974 6.90789C10.4937 6.94532 10.2983 6.81058 10.2609 6.60694C10.2235 6.40331 10.3582 6.20788 10.5618 6.17045C11.4933 5.99925 12.1946 6.31888 12.6527 6.67763C12.8793 6.85505 13.0474 7.04216 13.1592 7.18512C13.2153 7.25693 13.258 7.31854 13.2875 7.36361C13.3023 7.38617 13.3138 7.40468 13.322 7.41835C13.3261 7.42519 13.3295 7.43082 13.332 7.43516L13.3352 7.44069L13.3363 7.4427L13.3368 7.44352L13.337 7.44388Z" fill="#35220B"/>
<path fill-rule="evenodd" clip-rule="evenodd" d="M5.33186 7.8131C5.2298 7.99241 5.00188 8.05561 4.82198 7.95421C4.64161 7.85254 4.57781 7.6239 4.67948 7.44353L5.00607 7.62762C4.67948 7.44353 4.67957 7.44337 4.67966 7.44321L4.67987 7.44285L4.68033 7.44204L4.68147 7.44003L4.68467 7.43452C4.6872 7.43019 4.69053 7.42456 4.69468 7.41773C4.70296 7.40408 4.71448 7.38559 4.72928 7.36305C4.75883 7.31802 4.80166 7.25645 4.85795 7.1847C4.97002 7.04183 5.13838 6.85483 5.3651 6.6775C5.82341 6.31904 6.52472 5.99917 7.45459 6.17048C7.65821 6.208 7.79287 6.40348 7.75536 6.6071C7.71785 6.81072 7.52236 6.94538 7.31874 6.90787C6.6478 6.78426 6.15881 7.00861 5.82703 7.26811C5.6587 7.39976 5.53206 7.54017 5.4479 7.64746C5.40607 7.70079 5.37546 7.74499 5.35612 7.77446C5.34647 7.78917 5.33968 7.80012 5.33575 7.80659C5.33379 7.80982 5.33256 7.81192 5.33204 7.81281C5.33197 7.81293 5.33191 7.81303 5.33187 7.8131C5.33187 7.8131 5.33186 7.8131 5.33186 7.8131Z" fill="#35220B"/>
<path d="M11.2201 12.1999C10.9427 11.8025 10.2204 12.2086 10.2204 12.2086C10.2204 12.2086 10.5953 11.8825 10.9077 11.5838C11.1077 11.3926 11.2826 10.9852 11.1189 10.709C10.9552 10.4329 10.4791 10.4504 10.2454 10.5941L9.3294 11.1564C9.3294 11.1564 9.67306 11.0065 9.77678 10.4166C9.84176 10.1779 9.7018 9.93176 9.46311 9.86677C9.41813 9.85428 9.37189 9.84928 9.32565 9.85178C9.10946 9.87052 8.90327 9.9505 8.72956 10.0817C8.06725 10.5516 6.29898 11.75 5.90284 11.7188C5.74913 11.7063 5.73538 11.6825 6.05904 10.9902C6.27648 10.5753 6.29648 10.0842 6.11403 9.65308C6.00781 9.40315 5.51794 9.33442 5.36423 9.57561C5.24802 9.75306 5.16429 10.1879 4.96184 10.6253C4.62194 11.3439 3.8384 12.3086 3.77467 12.4036C3.30855 13.0934 2.44003 14.3793 3.34978 15.8214C4.15456 17.0985 5.99156 17.1585 6.93256 16.8211C8.73081 16.1838 10.3866 14.9591 10.4179 14.9341C10.7453 14.6742 11.0427 14.293 10.9077 13.9456C10.7415 13.5158 10.1904 13.7707 10.1904 13.7707C10.5091 13.577 10.7952 13.3333 11.0364 13.0484C11.2651 12.7535 11.4063 12.4686 11.2201 12.1999Z" fill="url(#paint2_radial_1206_12493)"/>
<path d="M11.1832 13.162C11.3306 12.972 11.6755 12.5284 11.3731 12.0923C11.2644 11.9386 11.1132 11.8424 10.937 11.8124C11.2332 11.5662 11.5506 10.9913 11.2119 10.519C11.0857 10.3428 10.8445 10.2053 10.4609 10.294C10.1847 10.3578 9.93727 10.5615 9.93727 10.5615C9.94602 10.5277 10.1635 9.91414 9.41241 9.76168C9.11 9.70045 8.76634 9.90039 8.5689 10.0491C7.42796 10.8589 5.94711 11.6287 5.9971 11.5224C6.47822 10.9389 6.57569 10.0753 6.27952 9.56299C6.17455 9.3143 5.53473 9.12811 5.32603 9.47051C5.15483 9.75168 5.04111 10.424 4.7212 10.9588C4.47377 11.3725 3.34408 12.7958 3.14038 13.5006C3.14038 13.5006 3.41656 13.0895 3.85269 12.5084C4.31631 11.8886 4.94614 11.0863 5.13234 10.7027C5.30104 10.3615 5.37977 9.95288 5.52223 9.67545C5.59221 9.55924 5.87588 9.44927 6.05833 9.80667C6.24203 10.1641 6.15331 10.5964 5.90088 11.0801C5.64095 11.6349 5.52598 11.6562 5.64345 11.7786C6.04084 12.1873 8.33396 10.5515 8.84257 10.2315C8.98753 10.1216 9.15998 10.0553 9.33369 10.0391C9.67609 9.99037 9.6586 10.4702 9.6586 10.4702C9.56237 10.8639 9.50114 10.8639 9.10875 11.1938C8.83007 11.4275 7.84409 12.1448 7.20427 12.4672C7.20427 12.4672 7.21552 12.6134 7.51168 12.5297C7.8091 12.4459 8.97503 11.7124 9.60361 11.2088C9.60361 11.2088 10.4184 10.5127 10.7658 10.6102C11.1182 10.7102 11.087 10.9551 10.9757 11.1875C10.8645 11.42 10.5771 11.6999 10.1197 12.0485C9.29745 12.6734 8.02404 13.5256 8.02404 13.5256C8.02404 13.5256 8.05029 13.6506 8.29772 13.5794C8.80133 13.4332 10.3734 12.2685 10.3734 12.2685C10.4959 12.1735 10.9058 12.0423 11.0657 12.311C11.1519 12.4372 11.1319 12.6434 10.8295 13.0008C10.4696 13.4294 9.37118 14.1767 8.41644 14.7191C8.41644 14.7191 8.48892 14.8415 8.7526 14.7515C9.01502 14.6616 10.106 13.998 10.2784 13.9405C10.4509 13.883 10.6233 13.8281 10.7383 14.0317C10.8745 14.3129 10.6921 14.5354 10.3309 14.8228C10.3159 14.834 8.59639 16.1786 6.80813 16.7835C5.86339 17.1034 4.80742 16.9384 3.59651 16.1474C4.3313 17.0347 5.93587 17.4308 7.02432 17.0334C8.85507 16.3636 10.5496 15.1277 10.5633 15.1164C10.8258 14.9078 11.3719 14.4754 11.0707 13.8568C10.992 13.7181 10.887 13.6319 10.772 13.5831C10.917 13.4519 11.0545 13.3132 11.1832 13.162Z" fill="#EB8F00"/>
<path d="M8.38178 16.3139C8.92663 16.3414 9.43774 16.3289 9.43774 16.3289C10.24 15.8815 10.9773 14.8143 11.0623 14.5806C11.1473 14.3469 8.02563 16.2951 8.38178 16.3139Z" fill="#EB8F00"/>
<path d="M4.96821 1.1122H5.48549C5.48549 1.1122 7.61023 0.836612 9.04707 0.84878C10.4167 0.86038 12.4306 1.1122 12.4306 1.1122H13.2447C14.0734 2.41673 14.669 3.75639 14.9421 5.13253C12.2647 4.40644 9.04707 5.94111 9.04707 5.94111C9.04707 5.94111 5.78109 4.43323 3.17792 4.97518C3.5946 3.56647 4.10814 2.2881 4.96821 1.1122Z" fill="#7F2125"/>
<path d="M4.96821 1.1122H5.48549C5.48549 1.1122 7.61023 0.836612 9.04707 0.84878C10.4167 0.86038 12.4306 1.1122 12.4306 1.1122H13.2447M4.96821 1.1122C4.10814 2.2881 3.5946 3.56647 3.17792 4.97518C5.78109 4.43323 9.04707 5.94111 9.04707 5.94111C9.04707 5.94111 12.2647 4.40644 14.9421 5.13253C14.669 3.75639 14.0734 2.41673 13.2447 1.1122M4.96821 1.1122C5.64105 1.80882 6.59963 1.37122 9.04707 1.9073C11.263 1.38742 12.3299 1.84332 13.2447 1.1122" stroke="#67211F" stroke-width="0.0582032"/>
<path d="M9.06567 5.91845L9.07353 1.91088C10.7395 1.4228 12.0044 1.80385 13.2542 1.13599C13.7986 1.93396 14.6991 3.42812 14.9517 5.12116C12.788 4.59006 10.5003 5.29116 9.06567 5.91845Z" fill="#67211F" stroke="#67211F" stroke-width="0.0365292"/>
<path d="M6.20599 1.56415C5.82772 1.3226 5.47283 1.4535 5.48839 1.10657L5.00116 1.12133C5.38093 1.50994 5.9424 1.50892 6.20599 1.56415Z" fill="#67211F"/>
<path d="M11.8392 1.5195C12.2175 1.28038 12.5202 1.43486 12.5047 1.09143H13.2512C12.8715 1.47612 12.1028 1.46482 11.8392 1.5195Z" fill="#67211F" fill-opacity="0.56"/>
<path d="M9.11895 1.15062L9.03399 1.86296L9.19001 1.8527L9.11895 1.15062Z" fill="#67211F" stroke="#67211F" stroke-width="0.0885594"/>
<path d="M7.08002 1.64529C6.80499 1.63063 6.63941 1.61598 6.41205 1.60132C6.27061 3.15111 6.21632 3.53487 6.51101 5.06989C6.91069 5.16965 7.21292 5.26377 7.55794 5.36509C6.74889 3.96216 6.97372 3.0609 7.08002 1.64529Z" fill="#D60000" stroke="#67211F" stroke-width="0.0365292"/>
<path d="M6.6313 1.62315L6.43196 1.60828L6.39209 1.89085L6.6313 1.62315Z" fill="#398F00" stroke="#67211F" stroke-width="0.00737995"/>
<path d="M6.30731 2.6642L7.05387 1.84339L7.06173 1.66018L6.62951 1.62354L6.39376 1.88737L6.30731 2.6642Z" fill="#FF7F00" stroke="#67211F" stroke-width="0.00737995"/>
<path d="M6.79248 2.12165C6.79248 2.12165 6.5541 1.86759 6.47028 1.79919L6.3917 1.88714L6.31311 2.65664C6.42837 2.52717 6.79248 2.12165 6.79248 2.12165Z" fill="#D60000" stroke="#67211F" stroke-width="0.00737995"/>
<path d="M7.0236 2.72977C7.0244 2.41351 7.03222 2.21738 7.05503 1.84302L6.31633 2.65648C6.29002 2.9792 6.28375 3.15723 6.27704 3.46995L7.0236 2.72977Z" fill="#007FFF" stroke="#67211F" stroke-width="0.00590396"/>
<path d="M6.84285 2.90577L6.4735 2.48071L6.31633 2.6566C6.29583 2.97503 6.28599 3.15172 6.27704 3.47008L6.84285 2.90577Z" fill="#398F00" stroke="#67211F" stroke-width="0.00590396"/>
<path d="M6.87428 3.64612L6.51279 3.23572L6.27704 3.47023C6.2849 3.80002 6.30847 3.94659 6.33208 4.21775L6.87428 3.64612Z" fill="#D60000" stroke="#67211F" stroke-width="0.00590396"/>
<path d="M6.83954 4.48145L6.47805 4.06372L6.32874 4.21762C6.3916 4.55474 6.40732 4.64268 6.47019 4.89186L6.83954 4.48145Z" fill="#007FFF" stroke="#67211F" stroke-width="0.00590396"/>
<path d="M6.93698 5.17962L6.58162 4.76721L6.47107 4.89241L6.52098 5.05652L6.93698 5.17962Z" fill="#FF7F00" stroke="#67211F" stroke-width="0.00590396"/>
<path d="M7.06016 3.44794C7.0322 3.20158 7.02165 3.0496 7.02087 2.72974L6.51007 3.23541C6.74583 3.49924 6.69867 3.44061 6.87156 3.64581L7.06016 3.44794Z" fill="#FF7F00" stroke="#67211F" stroke-width="0.00590396"/>
<path d="M7.15471 4.1298C7.12328 3.90261 7.08398 3.78535 7.06041 3.45557L6.47888 4.06384C6.70894 4.34368 6.66319 4.28083 6.84037 4.47418L7.15471 4.1298Z" fill="#398F00" stroke="#67211F" stroke-width="0.00590396"/>
<path d="M7.33761 4.78176C7.26688 4.53992 7.22759 4.43732 7.15686 4.12952L6.58319 4.76711C6.76394 4.98697 6.76394 4.98697 6.94468 5.18484L7.33761 4.78176Z" fill="#D60000" stroke="#67211F" stroke-width="0.00590396"/>
<path d="M7.55942 5.35033C7.37868 5.1378 7.39003 5.14833 7.20143 4.92114L6.93127 5.17321C7.26279 5.25623 7.25698 5.25439 7.25698 5.25439L7.55942 5.35033Z" fill="#398F00" stroke="#67211F" stroke-width="0.00590396"/>
<path d="M7.33749 4.78186L7.20325 4.92178L7.55071 5.33419H7.5586L7.33749 4.78186Z" fill="#007FFF" stroke="#67211F" stroke-width="0.00590396"/>
<path d="M7.09989 3.79392L7.06041 3.46252L7.01303 3.50671L6.94196 3.58035L7.09989 3.79392Z" fill="#007FFF" stroke="#67211F" stroke-width="0.00590396"/>
<g filter="url(#filter0_d_1206_12493)">
<path d="M8.09882 2.54945L8.22569 2.36239C8.22569 2.36239 8.36352 2.91102 8.26729 3.26199C8.19078 3.54105 7.90869 3.90521 7.90869 3.90521C7.77957 4.21963 7.78783 4.39208 7.85782 4.69711L7.60035 4.98586C7.60035 4.98586 7.52075 4.58604 7.39212 4.38996C7.2055 4.10547 6.89758 4.18284 6.70769 3.93279C6.42653 3.56256 6.57231 2.78093 6.57231 2.78093L6.80044 2.96933C6.80044 2.96933 6.9387 2.77472 7.07382 2.49542C7.1222 2.3954 7.17019 2.28451 7.21128 2.16782C7.27408 1.98943 7.34402 1.70257 7.34402 1.70257L7.47591 1.96002L7.58197 1.82313C7.58197 1.82313 7.59122 2.02046 7.63036 2.1308C7.72018 2.38405 7.82334 2.47624 8.09882 2.54945Z" fill="url(#paint3_linear_1206_12493)"/>
<path d="M8.09882 2.54945C8.14837 2.4764 8.22569 2.36239 8.22569 2.36239C8.22569 2.36239 8.36352 2.91102 8.26729 3.26199C8.19078 3.54105 7.90869 3.90521 7.90869 3.90521C7.77957 4.21963 7.78783 4.39208 7.85782 4.69711L7.60035 4.98586C7.60035 4.98586 7.52075 4.58604 7.39212 4.38996C7.2055 4.10547 6.89758 4.18284 6.70769 3.93279C6.42653 3.56256 6.57231 2.78093 6.57231 2.78093L6.80044 2.96933M8.09882 2.54945C7.82334 2.47624 7.72018 2.38405 7.63036 2.1308C7.59122 2.02046 7.58197 1.82313 7.58197 1.82313L7.47591 1.96002M8.09882 2.54945C8.09127 2.57592 7.8697 3.03254 7.8697 3.03254C7.8697 3.03254 7.69643 2.71608 7.61852 2.50149M6.80044 2.96933C6.93096 3.11251 6.9506 3.20608 6.98758 3.37198L7.15696 2.77833L7.4154 3.14279L7.46055 2.34945L7.61852 2.50149M6.80044 2.96933C6.80044 2.96933 6.9387 2.77472 7.07382 2.49542C7.1222 2.3954 7.17019 2.28451 7.21128 2.16782C7.27408 1.98943 7.34402 1.70257 7.34402 1.70257L7.47591 1.96002M7.47591 1.96002C7.47591 1.96002 7.54361 2.29515 7.61852 2.50149" stroke="#F8F7FC" stroke-width="0.0365292"/>
</g>
</g>
<defs>
<filter id="filter0_d_1206_12493" x="6.51611" y="1.65015" width="1.93065" height="3.4873" filterUnits="userSpaceOnUse" color-interpolation-filters="sRGB">
<feFlood flood-opacity="0" result="BackgroundImageFix"/>
<feColorMatrix in="SourceAlpha" type="matrix" values="0 0 0 0 0 0 0 0 0 0 0 0 0 0 0 0 0 0 127 0" result="hardAlpha"/>
<feOffset dx="0.0737995" dy="0.0590396"/>
<feGaussianBlur stdDeviation="0.0265678"/>
<feComposite in2="hardAlpha" operator="out"/>
<feColorMatrix type="matrix" values="0 0 0 0 0 0 0 0 0 0 0 0 0 0 0 0 0 0 0.25 0"/>
<feBlend mode="normal" in2="BackgroundImageFix" result="effect1_dropShadow_1206_12493"/>
<feBlend mode="normal" in="SourceGraphic" in2="effect1_dropShadow_1206_12493" result="shape"/>
</filter>
<radialGradient id="paint0_radial_1206_12493" cx="0" cy="0" r="1" gradientUnits="userSpaceOnUse" gradientTransform="translate(8.98538 9.3553) scale(7.11802 7.11799)">
<stop offset="0.5" stop-color="#FDE030"/>
<stop offset="0.92" stop-color="#F7C02B"/>
<stop offset="1" stop-color="#F4A223"/>
</radialGradient>
<linearGradient id="paint1_linear_1206_12493" x1="8.98538" y1="16.3409" x2="8.98538" y2="2.36975" gradientUnits="userSpaceOnUse">
<stop offset="0.16" stop-color="#F4A223"/>
<stop offset="0.33" stop-color="#F7C02B"/>
<stop offset="0.81" stop-color="#FDE030" stop-opacity="0"/>
</linearGradient>
<radialGradient id="paint2_radial_1206_12493" cx="0" cy="0" r="1" gradientUnits="userSpaceOnUse" gradientTransform="translate(7.25373 11.5863) scale(8.13028 8.13024)">
<stop offset="0.27" stop-color="#FFF176"/>
<stop offset="1" stop-color="#FFC400"/>
</radialGradient>
<linearGradient id="paint3_linear_1206_12493" x1="7.76584" y1="1.80872" x2="7.00412" y2="4.83583" gradientUnits="userSpaceOnUse">
<stop stop-color="#C9C9C9"/>
<stop offset="1" stop-color="#939297"/>
</linearGradient>
<clipPath id="clip0_1206_12493">
<rect width="17.996" height="17.996" fill="white" transform="translate(0 -0.00378418)"/>
</clipPath>
</defs>
</svg>
