<svg width="18" height="18" viewBox="0 0 18 18" fill="none" xmlns="http://www.w3.org/2000/svg">
<path d="M9.33998 16.6757C5.80873 16.6757 1.99902 14.4607 1.99902 9.60052C1.99902 4.74032 5.80873 2.52539 9.33998 2.52539C11.3018 2.52539 13.1117 3.17089 14.4533 4.34796C15.9089 5.63895 16.6809 7.46153 16.6809 9.60052C16.6809 11.7395 15.9089 13.5494 14.4533 14.8404C13.1117 16.0175 11.2891 16.6757 9.33998 16.6757Z" fill="url(#paint0_radial_1193_365)"/>
<path d="M15.401 5.39465C16.0756 6.48314 16.4275 7.77919 16.4275 9.22079C16.4275 11.3598 15.6554 13.1697 14.1999 14.4607C12.8583 15.6378 11.0357 16.2959 9.08652 16.2959C6.8007 16.2959 4.4035 15.3657 2.98846 13.3925C4.35034 15.6276 6.91208 16.6756 9.33966 16.6756C11.2888 16.6756 13.1114 16.0175 14.453 14.8404C15.9085 13.5494 16.6806 11.7395 16.6806 9.6005C16.6806 7.98803 16.2414 6.55528 15.401 5.39465Z" fill="#EB8F00"/>
<path d="M11.9215 12.7649C11.9215 13.7977 10.7824 14.4103 9.39013 14.4103C7.99788 14.4103 6.85876 13.8028 6.85876 12.7649C6.85876 11.7271 7.99788 10.6133 9.39013 10.6133C10.7824 10.6133 11.9215 11.7309 11.9215 12.7649Z" fill="#422B0D"/>
<path d="M6.85776 6.82007C6.32744 6.82007 5.84521 7.26812 5.84521 8.01234C5.84521 8.75655 6.32744 9.20334 6.85776 9.20334C7.38935 9.20334 7.87031 8.75529 7.87031 8.01234C7.87031 7.26938 7.39441 6.82007 6.85776 6.82007Z" fill="#422B0D"/>
<path d="M6.81302 7.3177C6.63329 7.23163 6.41686 7.30757 6.32953 7.4873C6.26244 7.62779 6.29282 7.79612 6.40547 7.90497C6.58519 7.99104 6.80162 7.9151 6.88896 7.73537C6.95604 7.59488 6.92566 7.42654 6.81302 7.3177Z" fill="#896024"/>
<path d="M11.7179 6.82007C11.1875 6.82007 10.7053 7.26812 10.7053 8.01234C10.7053 8.75655 11.1875 9.20334 11.7179 9.20334C12.2482 9.20334 12.7304 8.75529 12.7304 8.01234C12.7304 7.26938 12.2482 6.82007 11.7179 6.82007Z" fill="#422B0D"/>
<path d="M11.6685 7.31782C11.4888 7.23175 11.2723 7.30769 11.185 7.48742C11.1179 7.62791 11.1483 7.79624 11.2609 7.90509C11.4407 7.99116 11.6571 7.91522 11.7444 7.73549C11.8115 7.595 11.7811 7.42667 11.6685 7.31782Z" fill="#896024"/>
<path d="M4.96694 1.30065H5.52646C5.52646 1.30065 7.82469 0.986579 9.37886 1.00045C10.8604 1.01367 13.0387 1.30065 13.0387 1.30065H13.9192C14.8156 2.78732 15.4598 4.31402 15.7552 5.88229C12.8593 5.05483 9.37886 6.80377 9.37886 6.80377C9.37886 6.80377 5.84619 5.08536 3.03046 5.70298C3.48116 4.09758 4.03664 2.64072 4.96694 1.30065Z" fill="#7F2125"/>
<path d="M4.96694 1.30065H5.52646C5.52646 1.30065 7.82469 0.986579 9.37886 1.00045C10.8604 1.01367 13.0387 1.30065 13.0387 1.30065H13.9192M4.96694 1.30065C4.03664 2.64072 3.48116 4.09758 3.03046 5.70298C5.84619 5.08536 9.37886 6.80377 9.37886 6.80377C9.37886 6.80377 12.8593 5.05483 15.7552 5.88229C15.4598 4.31402 14.8156 2.78732 13.9192 1.30065M4.96694 1.30065C5.69472 2.09453 6.73157 1.59582 9.37886 2.20676C11.7757 1.61429 12.9298 2.13384 13.9192 1.30065" stroke="#67211F" stroke-width="0.0663296"/>
<path d="M9.39789 6.77802L9.40639 2.21091C11.2084 1.65467 12.5766 2.08894 13.9285 1.32782C14.5173 2.23721 15.4913 3.93998 15.7645 5.8694C13.4242 5.26416 10.9497 6.06314 9.39789 6.77802Z" fill="#67211F" stroke="#67211F" stroke-width="0.0416294"/>
<path d="M6.30639 1.81554C5.89723 1.54026 5.51335 1.68944 5.53018 1.29407L5.00317 1.31089C5.41395 1.75376 6.02127 1.7526 6.30639 1.81554Z" fill="#67211F"/>
<path d="M12.399 1.76505C12.8081 1.49256 13.1356 1.6686 13.1188 1.27722H13.9263C13.5156 1.71562 12.6841 1.70275 12.399 1.76505Z" fill="#67211F" fill-opacity="0.56"/>
<path d="M9.45936 1.34443L9.36747 2.15624L9.53623 2.14454L9.45936 1.34443Z" fill="#67211F" stroke="#67211F" stroke-width="0.100924"/>
<path d="M7.24969 1.90802C6.9522 1.89132 6.7731 1.87461 6.52717 1.85791C6.37418 3.62408 6.31546 4.06142 6.63421 5.81077C7.06653 5.92446 7.39344 6.03172 7.76663 6.14719C6.89152 4.54837 7.13471 3.52128 7.24969 1.90802Z" fill="#D60000" stroke="#67211F" stroke-width="0.0416294"/>
<path d="M6.76227 1.88291L6.54976 1.86621L6.50726 2.18358L6.76227 1.88291Z" fill="#398F00" stroke="#67211F" stroke-width="0.00841034"/>
<path d="M6.41418 3.06908L7.2217 2.13367L7.2302 1.92488L6.76269 1.88312L6.50769 2.18378L6.41418 3.06908Z" fill="#FF7F00" stroke="#67211F" stroke-width="0.00841034"/>
<path d="M6.94045 2.45104C6.94045 2.45104 6.68261 2.16151 6.59194 2.08356L6.50694 2.18378L6.42194 3.06072C6.54661 2.91317 6.94045 2.45104 6.94045 2.45104Z" fill="#D60000" stroke="#67211F" stroke-width="0.00841034"/>
<path d="M7.18758 3.1441C7.18846 2.78369 7.19691 2.56018 7.22158 2.13354L6.42257 3.06059C6.39411 3.42837 6.38733 3.63124 6.38007 3.98763L7.18758 3.1441Z" fill="#007FFF" stroke="#67211F" stroke-width="0.00672827"/>
<path d="M6.99208 3.3447L6.59257 2.86029L6.42257 3.06073C6.40039 3.42362 6.38975 3.62498 6.38007 3.98779L6.99208 3.3447Z" fill="#398F00" stroke="#67211F" stroke-width="0.00672827"/>
<path d="M7.02608 4.18804L6.63507 3.72034L6.38007 3.9876C6.38857 4.36343 6.41407 4.53047 6.4396 4.83948L7.02608 4.18804Z" fill="#D60000" stroke="#67211F" stroke-width="0.00672827"/>
<path d="M6.99154 5.14024L6.60053 4.66418L6.43903 4.83957C6.50703 5.22376 6.52403 5.32398 6.59203 5.60794L6.99154 5.14024Z" fill="#007FFF" stroke="#67211F" stroke-width="0.00672827"/>
<path d="M7.09404 5.93365L6.71153 5.46594L6.59253 5.60792L6.64626 5.79404L7.09404 5.93365Z" fill="#FF7F00" stroke="#67211F" stroke-width="0.00672827"/>
<path d="M7.22941 3.96252C7.19916 3.68176 7.18775 3.50857 7.18691 3.14404L6.6344 3.72032C6.8894 4.02099 6.8384 3.95417 7.02541 4.18802L7.22941 3.96252Z" fill="#FF7F00" stroke="#67211F" stroke-width="0.00672827"/>
<path d="M7.3313 4.73938C7.2973 4.48047 7.25479 4.34684 7.22929 3.97101L6.60028 4.66421C6.84912 4.98312 6.79964 4.9115 6.99129 5.13184L7.3313 4.73938Z" fill="#398F00" stroke="#67211F" stroke-width="0.00672827"/>
<path d="M7.52799 5.48276C7.45149 5.20714 7.40899 5.09022 7.33249 4.73944L6.71198 5.46605C6.90748 5.71661 6.90748 5.71661 7.10298 5.94211L7.52799 5.48276Z" fill="#D60000" stroke="#67211F" stroke-width="0.00672827"/>
<path d="M7.76977 6.13047C7.57427 5.88827 7.58655 5.90026 7.38254 5.64136L7.09033 5.92862C7.44891 6.02324 7.44264 6.02114 7.44264 6.02114L7.76977 6.13047Z" fill="#398F00" stroke="#67211F" stroke-width="0.00672827"/>
<path d="M7.52793 5.4826L7.38342 5.64129L7.75743 6.10899H7.76593L7.52793 5.4826Z" fill="#007FFF" stroke="#67211F" stroke-width="0.00672827"/>
<path d="M7.27273 4.3552L7.23022 3.97937L7.17922 4.02948L7.10272 4.113L7.27273 4.3552Z" fill="#007FFF" stroke="#67211F" stroke-width="0.00672827"/>
<g filter="url(#filter0_d_1193_365)">
<path d="M8.35353 2.93834L8.49075 2.72516C8.49075 2.72516 8.63984 3.35039 8.53575 3.75036C8.45299 4.06839 8.14786 4.48339 8.14786 4.48339C8.00821 4.84171 8.01714 5.03824 8.09284 5.38585L7.81435 5.71492C7.81435 5.71492 7.72825 5.25928 7.58912 5.03582C7.38725 4.71161 7.05419 4.79978 6.84879 4.51482C6.54468 4.0929 6.70236 3.20213 6.70236 3.20213L6.94912 3.41684C6.94912 3.41684 7.09867 3.19505 7.24482 2.87676C7.29716 2.76277 7.34906 2.63641 7.3935 2.50342C7.46144 2.30013 7.53709 1.97322 7.53709 1.97322L7.67974 2.26661L7.79447 2.1106C7.79447 2.1106 7.80447 2.33548 7.8468 2.46123C7.94397 2.74984 8.05555 2.8549 8.35353 2.93834Z" fill="url(#paint1_linear_1193_365)"/>
<path d="M8.35353 2.93834C8.40711 2.85509 8.49075 2.72516 8.49075 2.72516C8.49075 2.72516 8.63984 3.35039 8.53575 3.75036C8.45299 4.06839 8.14786 4.48339 8.14786 4.48339C8.00821 4.84171 8.01714 5.03824 8.09284 5.38585L7.81435 5.71492C7.81435 5.71492 7.72825 5.25928 7.58912 5.03582C7.38725 4.71161 7.05419 4.79978 6.84879 4.51482C6.54468 4.0929 6.70236 3.20213 6.70236 3.20213L6.94912 3.41684M8.35353 2.93834C8.05555 2.8549 7.94397 2.74984 7.8468 2.46123C7.80447 2.33548 7.79447 2.1106 7.79447 2.1106L7.67974 2.26661M8.35353 2.93834C8.34536 2.96851 8.10569 3.48887 8.10569 3.48887C8.10569 3.48887 7.91827 3.12823 7.834 2.88367M6.94912 3.41684C7.09029 3.58001 7.11154 3.68665 7.15154 3.87571L7.33476 3.19918L7.6143 3.61452L7.66313 2.71041L7.834 2.88367M6.94912 3.41684C6.94912 3.41684 7.09867 3.19505 7.24482 2.87676C7.29716 2.76277 7.34906 2.63641 7.3935 2.50342C7.46144 2.30013 7.53709 1.97322 7.53709 1.97322L7.67974 2.26661M7.67974 2.26661C7.67974 2.26661 7.75297 2.64853 7.834 2.88367" stroke="#F8F7FC" stroke-width="0.0416294"/>
</g>
<defs>
<filter id="filter0_d_1193_365" x="6.64062" y="1.91107" width="2.09754" height="3.97848" filterUnits="userSpaceOnUse" color-interpolation-filters="sRGB">
<feFlood flood-opacity="0" result="BackgroundImageFix"/>
<feColorMatrix in="SourceAlpha" type="matrix" values="0 0 0 0 0 0 0 0 0 0 0 0 0 0 0 0 0 0 127 0" result="hardAlpha"/>
<feOffset dx="0.0841034" dy="0.0672827"/>
<feGaussianBlur stdDeviation="0.0302772"/>
<feComposite in2="hardAlpha" operator="out"/>
<feColorMatrix type="matrix" values="0 0 0 0 0 0 0 0 0 0 0 0 0 0 0 0 0 0 0.25 0"/>
<feBlend mode="normal" in2="BackgroundImageFix" result="effect1_dropShadow_1193_365"/>
<feBlend mode="normal" in="SourceGraphic" in2="effect1_dropShadow_1193_365" result="shape"/>
</filter>
<radialGradient id="paint0_radial_1193_365" cx="0" cy="0" r="1" gradientUnits="userSpaceOnUse" gradientTransform="translate(9.33998 9.60052) scale(7.20929 7.20926)">
<stop offset="0.5" stop-color="#FDE030"/>
<stop offset="0.92" stop-color="#F7C02B"/>
<stop offset="1" stop-color="#F4A223"/>
</radialGradient>
<linearGradient id="paint1_linear_1193_365" x1="7.99336" y1="2.09418" x2="7.08472" y2="5.52148" gradientUnits="userSpaceOnUse">
<stop stop-color="#C9C9C9"/>
<stop offset="1" stop-color="#939297"/>
</linearGradient>
</defs>
</svg>
