<svg width="19" height="19" viewBox="0 0 19 19" fill="none" xmlns="http://www.w3.org/2000/svg">
<g clip-path="url(#clip0_1200_6724)">
<path d="M9.90239 16.8333C6.41584 16.8333 2.65437 14.6464 2.65437 9.84774C2.65437 5.04908 6.41584 2.86218 9.90239 2.86218C11.8394 2.86218 13.6264 3.49951 14.951 4.66168C16.3881 5.93633 17.1504 7.73583 17.1504 9.84774C17.1504 11.9597 16.3881 13.7467 14.951 15.0213C13.6264 16.1835 11.8269 16.8333 9.90239 16.8333Z" fill="url(#paint0_radial_1200_6724)"/>
<path d="M15.8851 5.69409C16.5512 6.76879 16.8986 8.04844 16.8986 9.47179C16.8986 11.5837 16.1363 13.3707 14.6992 14.6454C13.3746 15.8075 11.5751 16.4574 9.65059 16.4574C7.3937 16.4574 5.02685 15.5389 3.62973 13.5906C4.97437 15.7975 7.50367 16.8322 9.90052 16.8322C11.825 16.8322 13.6245 16.1824 14.9491 15.0203C16.3862 13.7456 17.1485 11.9586 17.1485 9.84669C17.1485 8.25463 16.7149 6.84002 15.8851 5.69409Z" fill="#EB8F00"/>
<path d="M9.90275 16.8323C6.41621 16.8323 2.65474 14.6454 2.65474 9.84677C2.65474 5.0481 6.41621 2.86121 9.90275 2.86121C11.8397 2.86121 13.6267 3.49853 14.9514 4.66071C16.3885 5.93535 17.1508 7.73485 17.1508 9.84677C17.1508 11.9587 16.3885 13.7457 14.9514 15.0203C13.6267 16.1825 11.8272 16.8323 9.90275 16.8323Z" fill="url(#paint1_linear_1200_6724)"/>
<path d="M9.94935 14.4686C10.4305 14.4686 10.9078 14.5511 11.3615 14.7098C12.3237 15.046 13.1572 13.96 12.5986 13.1102C12.0163 12.2317 11.1103 11.9818 9.94935 11.9818C8.78841 11.9818 7.88366 12.2205 7.30132 13.1065C6.74147 13.9575 7.57624 15.041 8.53848 14.7061C8.99211 14.5473 9.46948 14.4674 9.94935 14.4686Z" fill="#422B0D"/>
<path d="M4.3897 15.3571C3.33249 15.3571 2.51521 14.3311 2.51521 13.4526C2.51521 12.8353 2.79139 12.1192 3.18253 11.127C3.23127 10.9808 3.29625 10.8333 3.36123 10.6709C3.54743 10.206 3.71114 9.7024 3.96107 9.26627C4.07979 9.05383 4.34846 8.97885 4.55965 9.09757C4.62963 9.13756 4.68837 9.19504 4.72836 9.26627C4.96079 9.6949 5.12075 10.1585 5.36193 10.6996C6.0455 12.2292 6.2367 12.8478 6.2367 13.4651C6.26044 14.3361 5.43067 15.3571 4.3897 15.3571Z" fill="url(#paint2_radial_1200_6724)"/>
<path d="M5.53378 14.1881C5.29509 14.563 4.75274 14.488 4.75274 13.8745C4.75274 13.4821 4.83272 11.4676 5.17012 11.7501C5.71748 12.2087 5.87368 13.6658 5.53378 14.1881Z" fill="#81D4FA"/>
<path d="M5.37119 6.95419C5.09627 7.00292 5.08252 7.40281 5.38244 7.41656C6.04476 7.42656 6.68458 7.18162 7.17195 6.733C7.3569 6.57304 7.51435 6.38435 7.63557 6.17191C7.70805 6.06818 7.68306 5.92572 7.58059 5.85199C7.47811 5.77827 7.3344 5.80451 7.26067 5.90698L7.24818 5.91948C6.75706 6.46807 6.09599 6.83172 5.37119 6.95419Z" fill="#422B0D"/>
<path d="M12.7112 5.92401L12.6987 5.91152C12.6262 5.8078 12.4825 5.7828 12.3787 5.85528C12.275 5.92776 12.25 6.07147 12.3238 6.17519C12.4462 6.38639 12.6037 6.57508 12.7899 6.73379C13.2772 7.18241 13.9171 7.4261 14.5794 7.41485C14.8793 7.4011 14.8656 7.00121 14.5894 6.95248C13.8646 6.83126 13.2035 6.46886 12.7112 5.92401Z" fill="#422B0D"/>
<path d="M7.44889 8.22498C6.92529 8.22498 6.44917 8.66735 6.44917 9.40215C6.44917 10.1369 6.92529 10.5781 7.44889 10.5781C7.97375 10.5781 8.44862 10.1357 8.44862 9.40215C8.44862 8.6686 7.97875 8.22498 7.44889 8.22498Z" fill="#422B0D"/>
<path d="M7.40717 8.71654C7.22972 8.63156 7.01603 8.70654 6.9298 8.88399C6.86357 9.0227 6.89356 9.18891 7.00478 9.29638C7.18223 9.38135 7.39592 9.30638 7.48215 9.12892C7.54838 8.99021 7.51839 8.82401 7.40717 8.71654Z" fill="#896024"/>
<path d="M12.2476 8.22498C11.724 8.22498 11.2479 8.66735 11.2479 9.40215C11.2479 10.1369 11.724 10.5781 12.2476 10.5781C12.7712 10.5781 13.2474 10.1357 13.2474 9.40215C13.2474 8.6686 12.7712 8.22498 12.2476 8.22498Z" fill="#422B0D"/>
<path d="M12.1961 8.71654C12.0186 8.63156 11.8049 8.70654 11.7187 8.88399C11.6525 9.0227 11.6825 9.18891 11.7937 9.29638C11.9711 9.38135 12.1848 9.30638 12.2711 9.12892C12.3373 8.99021 12.3073 8.82401 12.1961 8.71654Z" fill="#896024"/>
<path d="M6.0487 1.28273H6.54273C6.54273 1.28273 8.57198 1.00714 9.94424 1.01931C11.2523 1.03091 13.1757 1.28273 13.1757 1.28273H13.9532C14.7447 2.58727 15.3135 3.92692 15.5743 5.30306C13.0173 4.57698 9.94424 6.11164 9.94424 6.11164C9.94424 6.11164 6.82505 4.60376 4.33887 5.14571C4.73682 3.737 5.22728 2.45863 6.0487 1.28273Z" fill="#7F2125"/>
<path d="M6.0487 1.28273H6.54273C6.54273 1.28273 8.57198 1.00714 9.94424 1.01931C11.2523 1.03091 13.1757 1.28273 13.1757 1.28273H13.9532M6.0487 1.28273C5.22728 2.45863 4.73682 3.737 4.33887 5.14571C6.82505 4.60376 9.94424 6.11164 9.94424 6.11164C9.94424 6.11164 13.0173 4.57698 15.5743 5.30306C15.3135 3.92692 14.7447 2.58727 13.9532 1.28273M6.0487 1.28273C6.6913 1.97935 7.6068 1.54175 9.94424 2.07783C12.0606 1.55795 13.0795 2.01385 13.9532 1.28273" stroke="#67211F" stroke-width="0.0582032"/>
<path d="M9.96144 6.08886L9.96895 2.08129C11.5601 1.59321 12.7681 1.97426 13.9618 1.3064C14.4817 2.10437 15.3417 3.59853 15.5829 5.29157C13.5165 4.76047 11.3316 5.46157 9.96144 6.08886Z" fill="#67211F" stroke="#67211F" stroke-width="0.0365292"/>
<path d="M7.23124 1.73444C6.86997 1.49289 6.53103 1.62379 6.54589 1.27686L6.08056 1.29162C6.44326 1.68023 6.9795 1.67921 7.23124 1.73444Z" fill="#67211F"/>
<path d="M12.6126 1.69015C12.9738 1.45104 13.263 1.60551 13.2481 1.26208H13.9611C13.5984 1.64677 12.8643 1.63548 12.6126 1.69015Z" fill="#67211F" fill-opacity="0.56"/>
<path d="M10.0143 1.3209L9.93314 2.03325L10.0821 2.02299L10.0143 1.3209Z" fill="#67211F" stroke="#67211F" stroke-width="0.0885594"/>
<path d="M8.06477 1.8157C7.80211 1.80104 7.64396 1.78639 7.42682 1.77173C7.29174 3.32152 7.23989 3.70528 7.52134 5.2403C7.90305 5.34006 8.1917 5.43418 8.52121 5.5355C7.74853 4.13257 7.96325 3.23131 8.06477 1.8157Z" fill="#D60000" stroke="#67211F" stroke-width="0.0365292"/>
<path d="M7.63943 1.79393L7.44904 1.77905L7.41096 2.06163L7.63943 1.79393Z" fill="#398F00" stroke="#67211F" stroke-width="0.00737995"/>
<path d="M7.32624 2.83437L8.03925 2.01356L8.04675 1.83034L7.63396 1.7937L7.4088 2.05753L7.32624 2.83437Z" fill="#FF7F00" stroke="#67211F" stroke-width="0.00737995"/>
<path d="M7.78982 2.29206C7.78982 2.29206 7.56216 2.038 7.4821 1.9696L7.40705 2.05755L7.33199 2.82705C7.44207 2.69758 7.78982 2.29206 7.78982 2.29206Z" fill="#D60000" stroke="#67211F" stroke-width="0.00737995"/>
<path d="M8.0099 2.9003C8.01067 2.58404 8.01813 2.38792 8.03992 2.01355L7.33442 2.82702C7.30929 3.14974 7.30331 3.32776 7.29689 3.64048L8.0099 2.9003Z" fill="#007FFF" stroke="#67211F" stroke-width="0.00590396"/>
<path d="M7.83728 3.07631L7.48453 2.65125L7.33442 2.82713C7.31484 3.14556 7.30545 3.32225 7.29689 3.64061L7.83728 3.07631Z" fill="#398F00" stroke="#67211F" stroke-width="0.00590396"/>
<path d="M7.8673 3.81629L7.52205 3.40588L7.29689 3.6404C7.3044 3.97019 7.32692 4.11676 7.34946 4.38792L7.8673 3.81629Z" fill="#D60000" stroke="#67211F" stroke-width="0.00590396"/>
<path d="M7.83739 4.65174L7.49215 4.23401L7.34954 4.38791C7.40959 4.72503 7.4246 4.81297 7.48464 5.06214L7.83739 4.65174Z" fill="#007FFF" stroke="#67211F" stroke-width="0.00590396"/>
<path d="M7.93101 5.3499L7.59162 4.9375L7.48604 5.06269L7.53371 5.22681L7.93101 5.3499Z" fill="#FF7F00" stroke="#67211F" stroke-width="0.00590396"/>
<path d="M8.04455 3.61835C8.01785 3.37199 8.00777 3.22001 8.00703 2.90015L7.51918 3.40582C7.74434 3.66965 7.69931 3.61102 7.86443 3.81622L8.04455 3.61835Z" fill="#FF7F00" stroke="#67211F" stroke-width="0.00590396"/>
<path d="M8.13734 4.29997C8.10732 4.07278 8.06979 3.95552 8.04728 3.62573L7.49189 4.23401C7.7116 4.51385 7.66791 4.451 7.83713 4.64434L8.13734 4.29997Z" fill="#398F00" stroke="#67211F" stroke-width="0.00590396"/>
<path d="M8.30989 4.95242C8.24234 4.71057 8.20482 4.60797 8.13727 4.30017L7.58938 4.93776C7.762 5.15762 7.762 5.15762 7.93463 5.35549L8.30989 4.95242Z" fill="#D60000" stroke="#67211F" stroke-width="0.00590396"/>
<path d="M8.52664 5.52284C8.35317 5.30927 8.36407 5.31985 8.18306 5.09155L7.92379 5.34485C8.24195 5.42828 8.23638 5.42643 8.23638 5.42643L8.52664 5.52284Z" fill="#398F00" stroke="#67211F" stroke-width="0.00590396"/>
<path d="M8.31037 4.95239L8.18216 5.09232L8.514 5.50472H8.52154L8.31037 4.95239Z" fill="#007FFF" stroke="#67211F" stroke-width="0.00590396"/>
<path d="M8.08535 3.9647L8.04765 3.6333L8.00239 3.67749L7.93452 3.75113L8.08535 3.9647Z" fill="#007FFF" stroke="#67211F" stroke-width="0.00590396"/>
<g filter="url(#filter0_d_1200_6724)">
<path d="M9.03907 2.71962L9.16023 2.53256C9.16023 2.53256 9.29187 3.08119 9.19997 3.43215C9.12689 3.71122 8.85748 4.07538 8.85748 4.07538C8.73417 4.3898 8.74206 4.56225 8.8089 4.86727L8.563 5.15602C8.563 5.15602 8.48698 4.75621 8.36413 4.56013C8.18589 4.27564 7.89181 4.35301 7.71046 4.10296C7.44194 3.73273 7.58116 2.95109 7.58116 2.95109L7.79904 3.1395C7.79904 3.1395 7.93109 2.94488 8.06013 2.66558C8.10634 2.56556 8.15217 2.45468 8.19141 2.33798C8.2514 2.1596 8.31819 1.87274 8.31819 1.87274L8.44415 2.13018L8.54545 1.9933C8.54545 1.9933 8.55428 2.19062 8.59166 2.30097C8.67745 2.55421 8.77597 2.6464 9.03907 2.71962Z" fill="url(#paint3_linear_1200_6724)"/>
<path d="M9.03907 2.71962C9.08639 2.64657 9.16023 2.53256 9.16023 2.53256C9.16023 2.53256 9.29187 3.08119 9.19997 3.43215C9.12689 3.71122 8.85748 4.07538 8.85748 4.07538C8.73417 4.3898 8.74206 4.56225 8.8089 4.86727L8.563 5.15602C8.563 5.15602 8.48698 4.75621 8.36413 4.56013C8.18589 4.27564 7.89181 4.35301 7.71046 4.10296C7.44194 3.73273 7.58116 2.95109 7.58116 2.95109L7.79904 3.1395M9.03907 2.71962C8.77597 2.6464 8.67745 2.55421 8.59166 2.30097C8.55428 2.19062 8.54545 1.9933 8.54545 1.9933L8.44415 2.13018M9.03907 2.71962C9.03186 2.74609 8.82024 3.2027 8.82024 3.2027C8.82024 3.2027 8.65476 2.88625 8.58035 2.67165M7.79904 3.1395C7.92369 3.28268 7.94245 3.37625 7.97777 3.54215L8.13954 2.9485L8.38637 3.31295L8.42948 2.51962L8.58035 2.67165M7.79904 3.1395C7.79904 3.1395 7.93109 2.94488 8.06013 2.66558C8.10634 2.56556 8.15217 2.45468 8.19141 2.33798C8.2514 2.1596 8.31819 1.87274 8.31819 1.87274L8.44415 2.13018M8.44415 2.13018C8.44415 2.13018 8.50881 2.46531 8.58035 2.67165" stroke="#F8F7FC" stroke-width="0.0365292"/>
</g>
</g>
<defs>
<filter id="filter0_d_1200_6724" x="7.52678" y="1.81848" width="1.85102" height="3.49059" filterUnits="userSpaceOnUse" color-interpolation-filters="sRGB">
<feFlood flood-opacity="0" result="BackgroundImageFix"/>
<feColorMatrix in="SourceAlpha" type="matrix" values="0 0 0 0 0 0 0 0 0 0 0 0 0 0 0 0 0 0 127 0" result="hardAlpha"/>
<feOffset dx="0.0737995" dy="0.0590396"/>
<feGaussianBlur stdDeviation="0.0265678"/>
<feComposite in2="hardAlpha" operator="out"/>
<feColorMatrix type="matrix" values="0 0 0 0 0 0 0 0 0 0 0 0 0 0 0 0 0 0 0.25 0"/>
<feBlend mode="normal" in2="BackgroundImageFix" result="effect1_dropShadow_1200_6724"/>
<feBlend mode="normal" in="SourceGraphic" in2="effect1_dropShadow_1200_6724" result="shape"/>
</filter>
<radialGradient id="paint0_radial_1200_6724" cx="0" cy="0" r="1" gradientUnits="userSpaceOnUse" gradientTransform="translate(9.90239 9.84774) scale(7.11802 7.11799)">
<stop offset="0.5" stop-color="#FDE030"/>
<stop offset="0.92" stop-color="#F7C02B"/>
<stop offset="1" stop-color="#F4A223"/>
</radialGradient>
<linearGradient id="paint1_linear_1200_6724" x1="9.90275" y1="16.8323" x2="9.90275" y2="2.86121" gradientUnits="userSpaceOnUse">
<stop offset="0.39" stop-color="#40C0E7" stop-opacity="0"/>
<stop offset="1" stop-color="#5F7AFF"/>
</linearGradient>
<radialGradient id="paint2_radial_1200_6724" cx="0" cy="0" r="1" gradientUnits="userSpaceOnUse" gradientTransform="translate(4.52341 9.8519) scale(4.17386 6.42771)">
<stop offset="0.46" stop-color="#29B6F6"/>
<stop offset="1" stop-color="#1E88E5"/>
</radialGradient>
<linearGradient id="paint3_linear_1200_6724" x1="8.72106" y1="1.97888" x2="7.92804" y2="4.98873" gradientUnits="userSpaceOnUse">
<stop stop-color="#C9C9C9"/>
<stop offset="1" stop-color="#939297"/>
</linearGradient>
<clipPath id="clip0_1200_6724">
<rect width="17.996" height="17.996" fill="white" transform="translate(0.952423 0.988037)"/>
</clipPath>
</defs>
</svg>
