<svg width="18" height="18" viewBox="0 0 18 18" fill="none" xmlns="http://www.w3.org/2000/svg">
<path d="M8.78866 15.175C5.52273 15.175 1.99927 13.1265 1.99927 8.63143C1.99927 4.1364 5.52273 2.08789 8.78866 2.08789C10.6031 2.08789 12.277 2.68489 13.5178 3.77352C14.864 4.96751 15.578 6.65315 15.578 8.63143C15.578 10.6097 14.864 12.2836 13.5178 13.4776C12.277 14.5663 10.5914 15.175 8.78866 15.175Z" fill="url(#paint0_radial_1193_1477)"/>
<path d="M14.3974 4.74097C15.0213 5.74767 15.3467 6.94634 15.3467 8.27963C15.3467 10.2579 14.6327 11.9318 13.2865 13.1258C12.0457 14.2145 10.3601 14.8232 8.55735 14.8232C6.44328 14.8232 4.22619 13.9628 2.91748 12.1379C4.17703 14.2051 6.54629 15.1743 8.79147 15.1743C10.5942 15.1743 12.2798 14.5656 13.5206 13.477C14.8668 12.283 15.5809 10.6091 15.5809 8.6308C15.5809 7.13948 15.1747 5.81439 14.3974 4.74097Z" fill="#EB8F00"/>
<path d="M5.03726 8.335L6.46186 8.0564L4.99278 7.45004L4.94362 7.42312C4.70482 7.29553 4.61351 6.99937 4.74111 6.7594C4.7692 6.70204 4.809 6.65171 4.85816 6.61074C5.09228 6.43047 5.41419 6.41642 5.66353 6.57562L8.15336 8.09737C8.21423 8.11961 8.24466 8.18634 8.22242 8.24721C8.20721 8.28818 8.17092 8.31744 8.12761 8.32329L5.44346 9.33584C5.42473 9.33936 5.40483 9.34521 5.38727 9.3534C5.03609 9.45173 4.64629 9.25039 4.59244 8.91092C4.55381 8.6534 4.75281 8.41343 5.03726 8.335Z" fill="#422B0D"/>
<path d="M12.6375 8.30668L11.2129 8.03159L12.682 7.42172L12.7311 7.3948C12.9699 7.2672 13.0612 6.97105 12.9337 6.73108C12.9056 6.67372 12.8658 6.62339 12.8166 6.58242C12.5825 6.40215 12.2606 6.3881 12.0112 6.5473L9.5214 8.06905C9.46053 8.09129 9.43009 8.15802 9.45234 8.21889C9.46755 8.25986 9.50384 8.28912 9.54715 8.29497L12.2313 9.30752C12.25 9.31104 12.2699 9.31689 12.2875 9.32508C12.6387 9.42341 13.0285 9.22207 13.0823 8.8826C13.1209 8.62508 12.9219 8.38511 12.6375 8.30668Z" fill="#422B0D"/>
<path d="M8.69918 10.6853C7.35301 10.6924 6.00918 10.58 4.68291 10.347C4.4605 10.3049 4.24511 10.4512 4.20297 10.6736C4.19243 10.7251 4.19243 10.779 4.20297 10.8305C4.58458 12.7034 6.42708 14.2404 8.69801 14.2404C11.1808 14.2404 12.8512 12.6519 13.1989 10.8235C13.2387 10.5999 13.0912 10.3868 12.8676 10.3459C12.8185 10.3377 12.767 10.3377 12.7178 10.3459C11.3915 10.5788 10.0465 10.6924 8.69918 10.6853Z" fill="#422B0D"/>
<path d="M8.69918 10.6848C7.35301 10.6919 6.00918 10.5795 4.68291 10.3465C4.4605 10.3044 4.24511 10.4507 4.20297 10.6731C4.19243 10.7246 4.19243 10.7785 4.20297 10.83C4.58458 12.7029 6.42708 14.2399 8.69801 14.2399C11.1808 14.2399 12.8512 12.6514 13.1989 10.823C13.2387 10.5994 13.0912 10.3863 12.8676 10.3454C12.8185 10.3372 12.767 10.3372 12.7178 10.3454C11.3915 10.5783 10.0465 10.6919 8.69918 10.6848Z" fill="#422B0D"/>
<path d="M6.58374 11.5505V14.0087C6.58491 15.1185 7.48392 16.0175 8.59363 16.0186H8.97641C10.0861 16.0186 10.9863 15.1185 10.9863 14.0087V11.5248C8.78444 11.9579 7.1386 11.6758 6.58374 11.5505Z" fill="#FF4081"/>
<path d="M9.01973 11.219H8.55149C7.88075 11.219 7.21937 11.1874 6.58374 11.1347V11.5503C7.1386 11.6755 8.78444 11.9576 10.9863 11.5245V11.1195C10.353 11.1769 9.69281 11.2108 9.01973 11.219Z" fill="#FF4081"/>
<path opacity="0.3" d="M9.01973 11.219H8.55149C7.88075 11.219 7.21937 11.1874 6.58374 11.1347V11.5503C7.1386 11.6755 8.78444 11.9576 10.9863 11.5245V11.1195C10.353 11.1769 9.69281 11.2108 9.01973 11.219Z" fill="#AB3F2E"/>
<path opacity="0.3" d="M8.78661 13.7066C8.91537 13.7066 9.02072 13.6012 9.02072 13.4725V11.2191H8.55249V13.4713C8.55249 13.6001 8.65784 13.7054 8.78661 13.7054V13.7066Z" fill="#AB3F2E"/>
<path d="M4.38275 1.29898H4.93916C4.93916 1.29898 7.22462 0.986653 8.77016 1.00044C10.2434 1.01359 12.4096 1.29898 12.4096 1.29898H13.2853C14.1767 2.77739 14.8173 4.2956 15.1111 5.85516C12.2312 5.0323 8.77016 6.77152 8.77016 6.77152C8.77016 6.77152 5.25712 5.06265 2.45703 5.67684C2.90523 4.08037 3.45762 2.63161 4.38275 1.29898Z" fill="#7F2125"/>
<path d="M4.38275 1.29898H4.93916C4.93916 1.29898 7.22462 0.986653 8.77016 1.00044C10.2434 1.01359 12.4096 1.29898 12.4096 1.29898H13.2853M4.38275 1.29898C3.45762 2.63161 2.90523 4.08037 2.45703 5.67684C5.25712 5.06265 8.77016 6.77152 8.77016 6.77152C8.77016 6.77152 12.2312 5.0323 15.1111 5.85516C14.8173 4.29561 14.1767 2.77739 13.2853 1.29898M4.38275 1.29898C5.10649 2.08844 6.13758 1.59251 8.77016 2.20005C11.1537 1.61087 12.3013 2.12754 13.2853 1.29898" stroke="#67211F" stroke-width="0.065961"/>
<path d="M8.78906 6.74559L8.79751 2.20386C10.5895 1.65072 11.9501 2.08257 13.2945 1.32568C13.88 2.23002 14.8486 3.92333 15.1203 5.84203C12.793 5.24014 10.3323 6.03469 8.78906 6.74559Z" fill="#67211F" stroke="#67211F" stroke-width="0.0413981"/>
<path d="M5.7159 1.81106C5.30901 1.53731 4.92727 1.68565 4.944 1.29248L4.41992 1.30921C4.82842 1.74962 5.43236 1.74846 5.7159 1.81106Z" fill="#67211F"/>
<path d="M11.7702 1.761C12.1771 1.49002 12.5028 1.66508 12.486 1.27588H13.2891C12.8806 1.71184 12.0537 1.69904 11.7702 1.761Z" fill="#67211F" fill-opacity="0.56"/>
<path d="M8.84846 1.34238L8.75707 2.14967L8.92489 2.13804L8.84846 1.34238Z" fill="#67211F" stroke="#67211F" stroke-width="0.100363"/>
<path d="M6.65416 1.90286C6.35833 1.88625 6.18022 1.86964 5.93566 1.85303C5.78352 3.60938 5.72513 4.04429 6.04211 5.78392C6.47202 5.89697 6.79712 6.00364 7.16823 6.11847C6.29799 4.52854 6.53982 3.50715 6.65416 1.90286Z" fill="#D60000" stroke="#67211F" stroke-width="0.0413981"/>
<path d="M6.16765 1.87794L5.95633 1.86133L5.91406 2.17693L6.16765 1.87794Z" fill="#398F00" stroke="#67211F" stroke-width="0.00836361"/>
<path d="M5.82202 3.05816L6.62505 2.12795L6.6335 1.92031L6.16859 1.87878L5.915 2.17778L5.82202 3.05816Z" fill="#FF7F00" stroke="#67211F" stroke-width="0.00836361"/>
<path d="M6.34559 2.4432C6.34559 2.4432 6.08918 2.15528 5.99901 2.07776L5.91449 2.17742L5.82996 3.04949C5.95393 2.90277 6.34559 2.4432 6.34559 2.4432Z" fill="#D60000" stroke="#67211F" stroke-width="0.00836361"/>
<path d="M6.59209 3.13287C6.59296 2.77446 6.60137 2.55219 6.6259 2.12793L5.83133 3.04982C5.80303 3.41555 5.79628 3.61731 5.78906 3.97171L6.59209 3.13287Z" fill="#007FFF" stroke="#67211F" stroke-width="0.00669088"/>
<path d="M6.39767 3.33181L6.00039 2.8501L5.83133 3.04943C5.80927 3.4103 5.79869 3.61054 5.78906 3.97133L6.39767 3.33181Z" fill="#398F00" stroke="#67211F" stroke-width="0.00669088"/>
<path d="M6.43149 4.17067L6.04265 3.70557L5.78906 3.97134C5.79752 4.34508 5.82287 4.51119 5.84826 4.81849L6.43149 4.17067Z" fill="#D60000" stroke="#67211F" stroke-width="0.00669088"/>
<path d="M6.39926 5.11757L6.01043 4.64417L5.84982 4.81858C5.91745 5.20063 5.93435 5.30029 6.00198 5.58268L6.39926 5.11757Z" fill="#007FFF" stroke="#67211F" stroke-width="0.00669088"/>
<path d="M6.49677 5.90651L6.11639 5.44141L5.99805 5.5826L6.05148 5.76768L6.49677 5.90651Z" fill="#FF7F00" stroke="#67211F" stroke-width="0.00669088"/>
<path d="M6.63467 3.94675C6.60459 3.66754 6.59324 3.49531 6.59241 3.13281L6.04297 3.70589C6.29656 4.00488 6.24584 3.93844 6.4318 4.17099L6.63467 3.94675Z" fill="#FF7F00" stroke="#67211F" stroke-width="0.00669088"/>
<path d="M6.73086 4.71869C6.69705 4.46122 6.65478 4.32833 6.62942 3.95459L6.00391 4.64394C6.25136 4.96108 6.20216 4.88986 6.39274 5.10897L6.73086 4.71869Z" fill="#398F00" stroke="#67211F" stroke-width="0.00669088"/>
<path d="M6.92867 5.45842C6.85259 5.18434 6.81033 5.06807 6.73425 4.71924L6.11719 5.44181C6.31161 5.69097 6.31161 5.69097 6.50602 5.91522L6.92867 5.45842Z" fill="#D60000" stroke="#67211F" stroke-width="0.00669088"/>
<path d="M7.16785 6.10261C6.97344 5.86175 6.98565 5.87368 6.78278 5.61621L6.49219 5.90188C6.84878 5.99597 6.84253 5.99388 6.84253 5.99388L7.16785 6.10261Z" fill="#398F00" stroke="#67211F" stroke-width="0.00669088"/>
<path d="M6.92873 5.45825L6.78503 5.61606L7.15696 6.08116H7.16542L6.92873 5.45825Z" fill="#007FFF" stroke="#67211F" stroke-width="0.00669088"/>
<path d="M6.67687 4.33664L6.63461 3.96289L6.58389 4.01272L6.50781 4.09578L6.67687 4.33664Z" fill="#007FFF" stroke="#67211F" stroke-width="0.00669088"/>
<g filter="url(#filter0_d_1193_1477)">
<path d="M7.7483 2.92698L7.88476 2.71498C7.88476 2.71498 8.03302 3.33674 7.92952 3.73448C7.84722 4.05074 7.54378 4.46344 7.54378 4.46344C7.4049 4.81977 7.41379 5.0152 7.48907 5.36088L7.21213 5.68812C7.21213 5.68812 7.1265 5.23501 6.98814 5.0128C6.7874 4.69039 6.45619 4.77807 6.25193 4.4947C5.94951 4.07512 6.10631 3.1893 6.10631 3.1893L6.3517 3.40282C6.3517 3.40282 6.50042 3.18226 6.64576 2.86574C6.69781 2.75238 6.74942 2.62672 6.79362 2.49447C6.86118 2.29231 6.9364 1.96722 6.9364 1.96722L7.07826 2.25898L7.19235 2.10384C7.19235 2.10384 7.2023 2.32747 7.2444 2.45252C7.34102 2.73952 7.45198 2.844 7.7483 2.92698Z" fill="url(#paint1_linear_1193_1477)"/>
<path d="M7.7483 2.92698C7.80159 2.84419 7.88476 2.71498 7.88476 2.71498C7.88476 2.71498 8.03302 3.33674 7.92952 3.73448C7.84722 4.05074 7.54378 4.46344 7.54378 4.46344C7.4049 4.81977 7.41379 5.0152 7.48907 5.36088L7.21213 5.68812C7.21213 5.68812 7.1265 5.23501 6.98814 5.0128C6.7874 4.69039 6.45619 4.77807 6.25193 4.4947C5.94951 4.07512 6.10631 3.1893 6.10631 3.1893L6.3517 3.40282M7.7483 2.92698C7.45198 2.844 7.34102 2.73952 7.2444 2.45252C7.2023 2.32747 7.19235 2.10384 7.19235 2.10384L7.07826 2.25898M7.7483 2.92698C7.74018 2.95697 7.50184 3.47445 7.50184 3.47445C7.50184 3.47445 7.31547 3.11581 7.23166 2.87261M6.3517 3.40282C6.49209 3.56508 6.51322 3.67113 6.553 3.85914L6.73519 3.18636L7.01319 3.59939L7.06174 2.70032L7.23166 2.87261M6.3517 3.40282C6.3517 3.40282 6.50042 3.18226 6.64576 2.86574C6.69781 2.75238 6.74942 2.62672 6.79362 2.49447C6.86118 2.29231 6.9364 1.96722 6.9364 1.96722L7.07826 2.25898M7.07826 2.25898C7.07826 2.25898 7.15109 2.63877 7.23166 2.87261" stroke="#F8F7FC" stroke-width="0.0413981"/>
</g>
<defs>
<filter id="filter0_d_1193_1477" x="6.04495" y="1.9054" width="2.08584" height="3.95635" filterUnits="userSpaceOnUse" color-interpolation-filters="sRGB">
<feFlood flood-opacity="0" result="BackgroundImageFix"/>
<feColorMatrix in="SourceAlpha" type="matrix" values="0 0 0 0 0 0 0 0 0 0 0 0 0 0 0 0 0 0 127 0" result="hardAlpha"/>
<feOffset dx="0.0836361" dy="0.0669089"/>
<feGaussianBlur stdDeviation="0.030109"/>
<feComposite in2="hardAlpha" operator="out"/>
<feColorMatrix type="matrix" values="0 0 0 0 0 0 0 0 0 0 0 0 0 0 0 0 0 0 0.25 0"/>
<feBlend mode="normal" in2="BackgroundImageFix" result="effect1_dropShadow_1193_1477"/>
<feBlend mode="normal" in="SourceGraphic" in2="effect1_dropShadow_1193_1477" result="shape"/>
</filter>
<radialGradient id="paint0_radial_1193_1477" cx="0" cy="0" r="1" gradientUnits="userSpaceOnUse" gradientTransform="translate(8.78866 8.63143) scale(6.66761 6.66758)">
<stop offset="0.5" stop-color="#FDE030"/>
<stop offset="0.92" stop-color="#F7C02B"/>
<stop offset="1" stop-color="#F4A223"/>
</radialGradient>
<linearGradient id="paint1_linear_1193_1477" x1="7.39014" y1="2.08751" x2="6.48655" y2="5.49576" gradientUnits="userSpaceOnUse">
<stop stop-color="#C9C9C9"/>
<stop offset="1" stop-color="#939297"/>
</linearGradient>
</defs>
</svg>
