<svg width="19" height="18" viewBox="0 0 19 18" fill="none" xmlns="http://www.w3.org/2000/svg">
<path d="M9.94745 16.8772C6.4609 16.8772 2.69943 14.6904 2.69943 9.89169C2.69943 5.09302 6.4609 2.90613 9.94745 2.90613C11.8844 2.90613 13.6714 3.54345 14.9961 4.70563C16.4332 5.98027 17.1955 7.77977 17.1955 9.89169C17.1955 12.0036 16.4332 13.7906 14.9961 15.0653C13.6714 16.2274 11.8719 16.8772 9.94745 16.8772Z" fill="url(#paint0_radial_1206_12129)"/>
<path d="M15.9347 5.73914C16.6007 6.81384 16.9481 8.09348 16.9481 9.51684C16.9481 11.6288 16.1859 13.4158 14.7487 14.6904C13.4241 15.8526 11.6246 16.5024 9.70013 16.5024C7.44325 16.5024 5.07639 15.5839 3.67928 13.6357C5.02391 15.8426 7.55322 16.8773 9.95006 16.8773C11.8745 16.8773 13.674 16.2275 14.9987 15.0653C16.4358 13.7907 17.1981 12.0036 17.1981 9.89173C17.1981 8.29968 16.7644 6.88507 15.9347 5.73914Z" fill="#EB8F00"/>
<path d="M13.993 4.17449L12.9858 5.51162C12.9358 5.57661 12.8583 5.6141 12.7758 5.61035L11.1038 5.53912C10.9663 5.53287 10.8489 5.64034 10.8426 5.7778C10.8401 5.83278 10.8564 5.88652 10.8876 5.93151L11.8486 7.30612C11.8948 7.37236 11.9061 7.45608 11.8786 7.53231L11.2937 9.10188C11.2462 9.23184 11.3125 9.37555 11.4412 9.42304C11.4924 9.44178 11.5474 9.44303 11.5999 9.42804L13.2007 8.93817C13.2794 8.91443 13.3644 8.93067 13.4294 8.98191L14.7403 10.0229C14.849 10.1078 15.0052 10.0904 15.0914 9.98163C15.1252 9.93789 15.1439 9.88541 15.1452 9.83042L15.1739 8.15714C15.1752 8.07466 15.2177 7.99843 15.2864 7.95344L16.681 7.03245C16.796 6.95622 16.8285 6.80127 16.7522 6.6863C16.7222 6.64006 16.6773 6.60507 16.6248 6.58757L15.0415 6.04273C14.9615 6.01648 14.9002 5.9515 14.8778 5.87027L14.4329 4.25697C14.3954 4.12451 14.2567 4.04703 14.1242 4.08452C14.0717 4.09952 14.0255 4.13076 13.993 4.17449Z" fill="url(#paint1_radial_1206_12129)"/>
<path d="M14.0783 5.8229L14.2033 4.62323C14.212 4.557 14.222 4.44203 14.3282 4.46327C14.412 4.48077 14.4207 4.66197 14.4207 4.66197L14.5832 5.67919C14.6431 6.06533 14.5632 6.17905 14.4182 6.22403C14.2495 6.28027 14.0433 6.16655 14.0783 5.8229Z" fill="#FF847A"/>
<path d="M15.2057 7.77789L16.3891 7.1918C16.4478 7.15931 16.5528 7.11058 16.4966 7.01935C16.4503 6.94812 16.2766 7.00186 16.2766 7.00186L15.3131 7.16806C15.0282 7.20555 14.8233 7.30552 14.772 7.47423C14.7058 7.69166 14.8745 7.91035 15.2057 7.77789Z" fill="#C62828"/>
<path d="M6.33474 5.54795L5.99234 4.39077C5.97609 4.32579 5.9411 4.21582 6.04607 4.19583C6.1298 4.17958 6.20853 4.34454 6.20853 4.34454L6.74338 5.21929C6.94707 5.5542 6.91458 5.68791 6.79836 5.78539C6.68215 5.88286 6.43222 5.87911 6.33474 5.54795Z" fill="#FF847A"/>
<path d="M8.11955 6.92399L8.99431 5.93176C9.0368 5.88053 9.11928 5.79555 9.0268 5.73307C8.95807 5.68308 8.81811 5.7993 8.81811 5.7993L7.98958 6.31916C7.73965 6.46162 7.58844 6.63157 7.60594 6.80777C7.62718 7.04021 7.86462 7.17767 8.11955 6.92399Z" fill="#C62828"/>
<path d="M14.7578 10.9807C14.5828 10.6645 14.2029 10.5258 13.8655 10.6532C12.5834 11.0269 11.2537 11.2131 9.91785 11.2068C8.58197 11.2131 7.25233 11.0269 5.97018 10.6532C5.63402 10.5258 5.25413 10.6632 5.07917 10.9782C4.90922 11.2918 5.03169 11.6555 5.1754 11.9691C5.97768 13.7311 7.74594 14.7859 9.90785 14.7921H9.92785C12.0898 14.7921 13.858 13.7311 14.6616 11.9691C14.804 11.653 14.9277 11.2943 14.7578 10.9807Z" fill="#422B0D"/>
<path d="M11.9193 14.2941C11.873 14.2516 11.8255 14.2129 11.7781 14.1692C11.2682 13.7205 10.6084 13.4794 9.92857 13.4931C9.22876 13.4819 8.54769 13.7143 8.00159 14.1517C7.95411 14.1904 7.90412 14.2279 7.85788 14.2766C7.81165 14.3254 7.78665 14.3604 7.75666 14.4016C8.44397 14.6703 9.17627 14.8077 9.91482 14.804H9.93481C10.6421 14.804 11.3432 14.6778 12.0055 14.4291C11.9805 14.3816 11.9518 14.3366 11.9193 14.2941Z" fill="#ED7770"/>
<path d="M13.8687 10.6538C12.5865 11.0274 11.2569 11.2136 9.92099 11.2074C8.5851 11.2136 7.25547 11.0274 5.97332 10.6538C5.63716 10.5263 5.25726 10.6638 5.08231 10.9787C5.05732 11.0262 5.03732 11.0762 5.02483 11.1274C5.06606 11.1486 5.11355 11.1699 5.16979 11.1924C6.67438 11.9459 8.33767 12.3283 10.0197 12.3083C11.633 12.3271 13.2276 11.9759 14.6847 11.2836C14.7434 11.2586 14.7922 11.2349 14.8359 11.2124C14.8259 11.1311 14.7997 11.0512 14.7609 10.9787C14.586 10.6638 14.2061 10.5251 13.8687 10.6538Z" fill="white"/>
<path d="M14.7628 10.9819C14.5853 10.6657 14.2042 10.5258 13.8643 10.6532C12.5821 11.0269 11.2525 11.2131 9.91785 11.2068C8.58197 11.2131 7.25233 11.0269 5.97018 10.6532C5.63402 10.5258 5.25413 10.6632 5.07917 10.9782C4.90922 11.2918 5.03169 11.6555 5.1754 11.9691C5.23913 12.1103 5.31036 12.2491 5.38909 12.3828C5.38909 12.3828 5.12666 11.4105 5.3541 11.1281C5.43158 11.0082 5.56154 10.9332 5.704 10.9257C5.76274 10.9257 5.82022 10.9357 5.87646 10.9532C7.1811 11.3368 8.53448 11.5305 9.89536 11.528H9.93909C11.3 11.5305 12.6534 11.3368 13.958 10.9532C14.0142 10.9357 14.0717 10.9257 14.1304 10.9257C14.2729 10.9332 14.4041 11.0082 14.4816 11.1281C14.7128 11.4105 14.4466 12.3865 14.4466 12.3865C14.5241 12.2528 14.6016 12.1153 14.6665 11.9729C14.809 11.6592 14.9327 11.2968 14.7628 10.9819Z" fill="#EB8F00"/>
<path d="M6.1041 1.31813H6.597C6.597 1.31813 8.62161 1.04254 9.99075 1.05471C11.2958 1.06631 13.2148 1.31813 13.2148 1.31813H13.9905C14.7802 2.62267 15.3477 3.96233 15.6079 5.33846C13.0568 4.61238 9.99075 6.14705 9.99075 6.14705C9.99075 6.14705 6.87867 4.63916 4.39818 5.18111C4.79522 3.7724 5.28456 2.49403 6.1041 1.31813Z" fill="#7F2125"/>
<path d="M6.1041 1.31813H6.597C6.597 1.31813 8.62161 1.04254 9.99075 1.05471C11.2958 1.06631 13.2148 1.31813 13.2148 1.31813H13.9905M6.1041 1.31813C5.28456 2.49403 4.79522 3.7724 4.39818 5.18111C6.87867 4.63916 9.99075 6.14705 9.99075 6.14705C9.99075 6.14705 13.0568 4.61238 15.6079 5.33846C15.3477 3.96233 14.7802 2.62267 13.9905 1.31813M6.1041 1.31813C6.74524 2.01475 7.65864 1.57715 9.99075 2.11323C12.1022 1.59335 13.1189 2.04925 13.9905 1.31813" stroke="#67211F" stroke-width="0.0582032"/>
<path d="M10.009 6.12475L10.0165 2.11718C11.604 1.62909 12.8092 2.01015 14.0002 1.34229C14.5189 2.14026 15.377 3.63442 15.6176 5.32746C13.556 4.79636 11.3761 5.49746 10.009 6.12475Z" fill="#67211F" stroke="#67211F" stroke-width="0.0365292"/>
<path d="M7.28415 1.76984C6.92371 1.52829 6.58553 1.65919 6.60036 1.31226L6.13609 1.32702C6.49796 1.71563 7.03298 1.71461 7.28415 1.76984Z" fill="#67211F"/>
<path d="M12.6507 1.7258C13.0111 1.48668 13.2997 1.64115 13.2848 1.29773H13.9962C13.6343 1.68242 12.9019 1.67112 12.6507 1.7258Z" fill="#67211F" fill-opacity="0.56"/>
<path d="M10.0618 1.35691L9.98089 2.06926L10.1296 2.059L10.0618 1.35691Z" fill="#67211F" stroke="#67211F" stroke-width="0.0885594"/>
<path d="M8.1144 1.85122C7.85234 1.83657 7.69455 1.82191 7.47791 1.80725C7.34314 3.35704 7.29141 3.7408 7.57221 5.27583C7.95305 5.37558 8.24104 5.4697 8.5698 5.57103C7.79888 4.16809 8.01311 3.26683 8.1144 1.85122Z" fill="#D60000" stroke="#67211F" stroke-width="0.0365292"/>
<path d="M7.68824 1.82933L7.49829 1.81445L7.4603 2.09703L7.68824 1.82933Z" fill="#398F00" stroke="#67211F" stroke-width="0.00737995"/>
<path d="M7.37952 2.87001L8.0909 2.0492L8.09839 1.86599L7.68654 1.82935L7.46189 2.09318L7.37952 2.87001Z" fill="#FF7F00" stroke="#67211F" stroke-width="0.00737995"/>
<path d="M7.84411 2.32771C7.84411 2.32771 7.61697 2.07365 7.53709 2.00525L7.46221 2.09319L7.38733 2.8627C7.49716 2.73323 7.84411 2.32771 7.84411 2.32771Z" fill="#D60000" stroke="#67211F" stroke-width="0.00737995"/>
<path d="M8.06166 2.93582C8.06242 2.61956 8.06987 2.42344 8.09161 2.04907L7.38772 2.86254C7.36265 3.18526 7.35668 3.36328 7.35028 3.676L8.06166 2.93582Z" fill="#007FFF" stroke="#67211F" stroke-width="0.00590396"/>
<path d="M7.88943 3.11183L7.53748 2.68677L7.38772 2.86265C7.36819 3.18108 7.35881 3.35777 7.35028 3.67613L7.88943 3.11183Z" fill="#398F00" stroke="#67211F" stroke-width="0.00590396"/>
<path d="M7.91938 3.85181L7.57493 3.44141L7.35028 3.67592C7.35777 4.00571 7.38023 4.15228 7.40273 4.42344L7.91938 3.85181Z" fill="#D60000" stroke="#67211F" stroke-width="0.00590396"/>
<path d="M7.88868 4.68751L7.54422 4.26978L7.40195 4.42368C7.46185 4.76079 7.47683 4.84874 7.53673 5.09791L7.88868 4.68751Z" fill="#007FFF" stroke="#67211F" stroke-width="0.00590396"/>
<path d="M7.9785 5.38579L7.63989 4.97339L7.53455 5.09858L7.58211 5.2627L7.9785 5.38579Z" fill="#FF7F00" stroke="#67211F" stroke-width="0.00590396"/>
<path d="M8.09674 3.65412C8.07009 3.40775 8.06004 3.25578 8.0593 2.93591L7.57257 3.44159C7.79722 3.70542 7.75229 3.64679 7.91703 3.85199L8.09674 3.65412Z" fill="#FF7F00" stroke="#67211F" stroke-width="0.00590396"/>
<path d="M8.18632 4.33561C8.15637 4.10842 8.11893 3.99116 8.09647 3.66138L7.54234 4.26965C7.76156 4.54949 7.71797 4.48664 7.8868 4.67999L8.18632 4.33561Z" fill="#398F00" stroke="#67211F" stroke-width="0.00590396"/>
<path d="M8.36065 4.98806C8.29326 4.74622 8.25582 4.64362 8.18843 4.33582L7.64179 4.97341C7.81402 5.19326 7.81402 5.19326 7.98625 5.39114L8.36065 4.98806Z" fill="#D60000" stroke="#67211F" stroke-width="0.00590396"/>
<path d="M8.57669 5.55848C8.40363 5.34491 8.4145 5.35549 8.2339 5.1272L7.97523 5.3805C8.29266 5.46392 8.2871 5.46207 8.2871 5.46207L8.57669 5.55848Z" fill="#398F00" stroke="#67211F" stroke-width="0.00590396"/>
<path d="M8.36151 4.98779L8.23359 5.12772L8.56467 5.54012H8.5722L8.36151 4.98779Z" fill="#007FFF" stroke="#67211F" stroke-width="0.00590396"/>
<path d="M8.13742 4.00022L8.09979 3.66882L8.05465 3.71301L7.98692 3.78665L8.13742 4.00022Z" fill="#007FFF" stroke="#67211F" stroke-width="0.00590396"/>
<g filter="url(#filter0_d_1206_12129)">
<path d="M9.08715 2.75526L9.20803 2.5682C9.20803 2.5682 9.33937 3.11683 9.24768 3.4678C9.17477 3.74687 8.90597 4.11102 8.90597 4.11102C8.78294 4.42544 8.79081 4.59789 8.8575 4.90292L8.61217 5.19167C8.61217 5.19167 8.53631 4.79185 8.41375 4.59577C8.23592 4.31129 7.94251 4.38865 7.76157 4.1386C7.49366 3.76837 7.63257 2.98674 7.63257 2.98674L7.84995 3.17514C7.84995 3.17514 7.98169 2.98053 8.11044 2.70123C8.15655 2.60121 8.20227 2.49032 8.24143 2.37363C8.30127 2.19524 8.36791 1.90838 8.36791 1.90838L8.49358 2.16583L8.59465 2.02894C8.59465 2.02894 8.60346 2.22627 8.64076 2.33661C8.72635 2.58986 8.82465 2.68205 9.08715 2.75526Z" fill="url(#paint2_linear_1206_12129)"/>
<path d="M9.08715 2.75526C9.13435 2.68221 9.20803 2.5682 9.20803 2.5682C9.20803 2.5682 9.33937 3.11683 9.24768 3.4678C9.17477 3.74687 8.90597 4.11102 8.90597 4.11102C8.78294 4.42544 8.79081 4.59789 8.8575 4.90292L8.61217 5.19167C8.61217 5.19167 8.53631 4.79185 8.41375 4.59577C8.23592 4.31129 7.94251 4.38865 7.76157 4.1386C7.49366 3.76837 7.63257 2.98674 7.63257 2.98674L7.84995 3.17514M9.08715 2.75526C8.82465 2.68205 8.72635 2.58986 8.64076 2.33661C8.60346 2.22627 8.59465 2.02894 8.59465 2.02894L8.49358 2.16583M9.08715 2.75526C9.07995 2.78174 8.86882 3.23835 8.86882 3.23835C8.86882 3.23835 8.70371 2.92189 8.62948 2.7073M7.84995 3.17514C7.97431 3.31832 7.99303 3.4119 8.02827 3.57779L8.18967 2.98414L8.43593 3.3486L8.47895 2.55526L8.62948 2.7073M7.84995 3.17514C7.84995 3.17514 7.98169 2.98053 8.11044 2.70123C8.15655 2.60121 8.20227 2.49032 8.24143 2.37363C8.30127 2.19524 8.36791 1.90838 8.36791 1.90838L8.49358 2.16583M8.49358 2.16583C8.49358 2.16583 8.55809 2.50096 8.62948 2.7073" stroke="#F8F7FC" stroke-width="0.0365292"/>
</g>
<path d="M14.4752 4.14121L14.8501 5.88073C14.8788 6.01444 14.9775 6.12191 15.1088 6.16065L16.7808 6.66051C16.9058 6.7055 16.9707 6.84296 16.9258 6.96793C16.9083 7.01791 16.8745 7.05915 16.8295 7.08789L15.3299 7.90267C15.2037 7.9664 15.1238 8.09636 15.1238 8.23757L15.1387 10.0608C15.135 10.192 15.025 10.2958 14.8926 10.292C14.8401 10.2908 14.7888 10.272 14.7489 10.2383L13.4392 9.06234C13.338 8.96987 13.1943 8.94113 13.0643 8.98612L11.4023 9.55221C11.2748 9.58845 11.1423 9.51472 11.1049 9.38725C11.0899 9.33727 11.0924 9.28353 11.1123 9.2348L11.8446 7.56401C11.8996 7.43655 11.8809 7.29034 11.7947 7.18162L10.7312 5.84074C10.6575 5.72952 10.6875 5.58081 10.7974 5.50583C10.8399 5.47709 10.8912 5.46334 10.9436 5.46584L12.6794 5.66329C12.8156 5.67828 12.9481 5.6183 13.0268 5.50708L14.054 4.05498C14.1353 3.95001 14.2865 3.93127 14.3902 4.01375C14.4327 4.04624 14.4614 4.08997 14.4752 4.14121Z" fill="#F44336"/>
<path d="M6.06425 3.84252L7.06398 5.30961C7.14146 5.42208 7.27267 5.48332 7.40888 5.47082L9.14841 5.29962C9.28087 5.29587 9.39209 5.39959 9.39584 5.53205C9.39709 5.58329 9.38334 5.63327 9.3546 5.67451L8.27614 7.00289C8.18867 7.11036 8.16742 7.25657 8.22116 7.38404L8.92722 9.06482C8.97345 9.18854 8.91097 9.32725 8.78725 9.37348C8.73727 9.39223 8.68353 9.39348 8.6323 9.37848L6.974 8.7874C6.84529 8.74116 6.70158 8.7674 6.5991 8.85738L5.27697 10.0133C5.17449 10.0958 5.02453 10.0795 4.94081 9.97707C4.90707 9.93583 4.88832 9.88334 4.88832 9.83086L4.92956 8.00761C4.93331 7.8689 4.85958 7.74144 4.73961 7.67271L3.25252 6.83544C3.14005 6.76796 3.10256 6.6205 3.17129 6.50803C3.20003 6.4593 3.24627 6.42181 3.30001 6.40431L4.9808 5.92694C5.11076 5.8907 5.21073 5.78573 5.24322 5.65452L5.64187 3.92125C5.67811 3.79379 5.81057 3.72006 5.93803 3.7563C5.98802 3.77004 6.03301 3.80128 6.06425 3.84252Z" fill="#F44336"/>
<defs>
<filter id="filter0_d_1206_12129" x="7.57827" y="1.854" width="1.84716" height="3.49072" filterUnits="userSpaceOnUse" color-interpolation-filters="sRGB">
<feFlood flood-opacity="0" result="BackgroundImageFix"/>
<feColorMatrix in="SourceAlpha" type="matrix" values="0 0 0 0 0 0 0 0 0 0 0 0 0 0 0 0 0 0 127 0" result="hardAlpha"/>
<feOffset dx="0.0737995" dy="0.0590396"/>
<feGaussianBlur stdDeviation="0.0265678"/>
<feComposite in2="hardAlpha" operator="out"/>
<feColorMatrix type="matrix" values="0 0 0 0 0 0 0 0 0 0 0 0 0 0 0 0 0 0 0.25 0"/>
<feBlend mode="normal" in2="BackgroundImageFix" result="effect1_dropShadow_1206_12129"/>
<feBlend mode="normal" in="SourceGraphic" in2="effect1_dropShadow_1206_12129" result="shape"/>
</filter>
<radialGradient id="paint0_radial_1206_12129" cx="0" cy="0" r="1" gradientUnits="userSpaceOnUse" gradientTransform="translate(9.94745 9.89169) scale(7.11802 7.11799)">
<stop offset="0.5" stop-color="#FDE030"/>
<stop offset="0.92" stop-color="#F7C02B"/>
<stop offset="1" stop-color="#F4A223"/>
</radialGradient>
<radialGradient id="paint1_radial_1206_12129" cx="0" cy="0" r="1" gradientUnits="userSpaceOnUse" gradientTransform="translate(13.8181 7.07594) scale(2.98805 2.98803)">
<stop offset="0.2" stop-color="#FF4081"/>
<stop offset="0.88" stop-color="#CC1775"/>
</radialGradient>
<linearGradient id="paint2_linear_1206_12129" x1="8.76986" y1="2.01453" x2="7.97526" y2="5.02348" gradientUnits="userSpaceOnUse">
<stop stop-color="#C9C9C9"/>
<stop offset="1" stop-color="#939297"/>
</linearGradient>
</defs>
</svg>
