<svg width="19" height="19" viewBox="0 0 19 19" fill="none" xmlns="http://www.w3.org/2000/svg">
<g clip-path="url(#clip0_1200_7244)">
<path d="M9.89787 16.8333C6.41132 16.8333 2.64985 14.6464 2.64985 9.84774C2.64985 5.04908 6.41132 2.86218 9.89787 2.86218C11.8348 2.86218 13.6219 3.49951 14.9465 4.66168C16.3836 5.93633 17.1459 7.73583 17.1459 9.84774C17.1459 11.9597 16.3836 13.7467 14.9465 15.0213C13.6219 16.1835 11.8223 16.8333 9.89787 16.8333Z" fill="url(#paint0_radial_1200_7244)"/>
<path d="M15.8833 5.69531C16.5493 6.77001 16.8967 8.04966 16.8967 9.47301C16.8967 11.5849 16.1344 13.3719 14.6973 14.6466C13.3727 15.8088 11.5732 16.4586 9.64871 16.4586C7.39182 16.4586 5.02497 15.5401 3.62785 13.5919C4.97248 15.7988 7.50179 16.8335 9.89864 16.8335C11.8231 16.8335 13.6226 16.1837 14.9473 15.0215C16.3844 13.7468 17.1467 11.9598 17.1467 9.84791C17.1467 8.25585 16.713 6.84124 15.8833 5.69531Z" fill="#EB8F00"/>
<path d="M12.2691 13.5879C12.2691 14.5351 11.2306 15.0875 9.94969 15.0875C8.66879 15.0875 7.63032 14.5314 7.63032 13.5879C7.63032 12.6444 8.66879 11.6072 9.94969 11.6072C11.2306 11.6072 12.2691 12.6406 12.2691 13.5879Z" fill="#422B0D"/>
<path d="M7.73443 9.05953L8.79164 8.07605C8.9416 7.88985 8.96409 7.63867 8.81288 7.48871C8.61419 7.28877 8.26178 7.3375 8.07059 7.56494C8.06059 7.58369 8.05309 7.58868 8.04309 7.60743L7.2933 8.69713L6.27858 7.75114C6.26358 7.73489 6.25483 7.73239 6.24109 7.71615C6.0049 7.5362 5.65 7.56619 5.50129 7.80487C5.38507 7.98482 5.46255 8.22351 5.65 8.37347L6.95089 9.1445L5.84869 10.1755C5.70123 10.3592 5.67374 10.6091 5.8262 10.7628C6.02365 10.964 6.37605 10.9178 6.5685 10.6916C6.57849 10.6728 6.58599 10.6678 6.59724 10.6491L7.38702 9.5069L8.34676 10.4116C8.36176 10.4279 8.3705 10.4316 8.38425 10.4479C8.61919 10.6291 8.97409 10.6016 9.1253 10.3642C9.24152 10.1842 9.16529 9.94428 8.97909 9.79432L7.73443 9.05953Z" fill="#422B0D"/>
<path d="M12.5403 9.05965L11.4831 8.07617C11.3331 7.88997 11.3106 7.63879 11.4631 7.48883C11.6618 7.28889 12.0129 7.33763 12.2041 7.56506C12.2141 7.58381 12.2229 7.58881 12.2329 7.60755L12.9826 8.69725L13.9986 7.75126C14.0124 7.73502 14.0211 7.73252 14.0349 7.71627C14.2723 7.53632 14.6259 7.56631 14.7759 7.805C14.8909 7.98495 14.8134 8.22363 14.6259 8.37359L13.3213 9.14462L14.4235 10.1756C14.5747 10.3618 14.5997 10.6117 14.4472 10.7629C14.251 10.9641 13.8986 10.9179 13.7062 10.6917C13.695 10.673 13.6875 10.668 13.6775 10.6492L12.8877 9.50702L11.9267 10.4118C11.9129 10.428 11.9042 10.4318 11.8892 10.448C11.6543 10.6292 11.3006 10.6017 11.1494 10.3643C11.0319 10.1843 11.1082 9.9444 11.2944 9.79444L12.5403 9.05965Z" fill="#422B0D"/>
<path d="M6.08969 1.28273H6.58372C6.58372 1.28273 8.61296 1.00714 9.98523 1.01931C11.2933 1.03091 13.2167 1.28273 13.2167 1.28273H13.9942C14.7857 2.58727 15.3545 3.92692 15.6153 5.30306C13.0583 4.57698 9.98523 6.11164 9.98523 6.11164C9.98523 6.11164 6.86603 4.60376 4.37986 5.14571C4.77781 3.737 5.26827 2.45863 6.08969 1.28273Z" fill="#7F2125"/>
<path d="M6.08969 1.28273H6.58372C6.58372 1.28273 8.61296 1.00714 9.98523 1.01931C11.2933 1.03091 13.2167 1.28273 13.2167 1.28273H13.9942M6.08969 1.28273C5.26827 2.45863 4.77781 3.737 4.37986 5.14571C6.86603 4.60376 9.98523 6.11164 9.98523 6.11164C9.98523 6.11164 13.0583 4.57698 15.6153 5.30306C15.3545 3.92692 14.7857 2.58727 13.9942 1.28273M6.08969 1.28273C6.73229 1.97935 7.64778 1.54175 9.98523 2.07783C12.1016 1.55795 13.1205 2.01385 13.9942 1.28273" stroke="#67211F" stroke-width="0.0582032"/>
<path d="M10.0015 6.08886L10.009 2.08129C11.6001 1.59321 12.8081 1.97426 14.0018 1.3064C14.5217 2.10437 15.3817 3.59853 15.6229 5.29157C13.5565 4.76047 11.3716 5.46157 10.0015 6.08886Z" fill="#67211F" stroke="#67211F" stroke-width="0.0365292"/>
<path d="M7.2706 1.73444C6.90934 1.49289 6.57039 1.62379 6.58525 1.27686L6.11992 1.29162C6.48262 1.68023 7.01886 1.67921 7.2706 1.73444Z" fill="#67211F"/>
<path d="M12.647 1.69015C13.0083 1.45104 13.2975 1.60551 13.2826 1.26208H13.9956C13.6329 1.64677 12.8988 1.63548 12.647 1.69015Z" fill="#67211F" fill-opacity="0.56"/>
<path d="M10.0536 1.3209L9.97251 2.03325L10.1215 2.02299L10.0536 1.3209Z" fill="#67211F" stroke="#67211F" stroke-width="0.0885594"/>
<path d="M8.1047 1.81558C7.84203 1.80092 7.68389 1.78626 7.46674 1.77161C7.33166 3.3214 7.27981 3.70515 7.56126 5.24018C7.94297 5.33994 8.23162 5.43406 8.56113 5.53538C7.78845 4.13245 8.00317 3.23118 8.1047 1.81558Z" fill="#D60000" stroke="#67211F" stroke-width="0.0365292"/>
<path d="M7.6736 1.79393L7.48321 1.77905L7.44514 2.06163L7.6736 1.79393Z" fill="#398F00" stroke="#67211F" stroke-width="0.00737995"/>
<path d="M7.36812 2.83424L8.08112 2.01344L8.08862 1.83022L7.67583 1.79358L7.45067 2.05741L7.36812 2.83424Z" fill="#FF7F00" stroke="#67211F" stroke-width="0.00737995"/>
<path d="M7.83374 2.29206C7.83374 2.29206 7.60608 2.038 7.52602 1.9696L7.45097 2.05755L7.37591 2.82705C7.48599 2.69758 7.83374 2.29206 7.83374 2.29206Z" fill="#D60000" stroke="#67211F" stroke-width="0.00737995"/>
<path d="M8.04895 2.9003C8.04972 2.58404 8.05718 2.38792 8.07897 2.01355L7.37347 2.82702C7.34834 3.14974 7.34235 3.32776 7.33594 3.64048L8.04895 2.9003Z" fill="#007FFF" stroke="#67211F" stroke-width="0.00590396"/>
<path d="M7.87632 3.07631L7.52357 2.65125L7.37347 2.82713C7.35389 3.14556 7.34449 3.32225 7.33594 3.64061L7.87632 3.07631Z" fill="#398F00" stroke="#67211F" stroke-width="0.00590396"/>
<path d="M7.90634 3.81629L7.5611 3.40588L7.33594 3.6404C7.34345 3.97019 7.36596 4.11676 7.38851 4.38792L7.90634 3.81629Z" fill="#D60000" stroke="#67211F" stroke-width="0.00590396"/>
<path d="M7.87448 4.65174L7.52924 4.23401L7.38664 4.38791C7.44668 4.72503 7.46169 4.81297 7.52173 5.06214L7.87448 4.65174Z" fill="#007FFF" stroke="#67211F" stroke-width="0.00590396"/>
<path d="M7.96713 5.3499L7.62774 4.9375L7.52216 5.06269L7.56983 5.22681L7.96713 5.3499Z" fill="#FF7F00" stroke="#67211F" stroke-width="0.00590396"/>
<path d="M8.08458 3.61835C8.05787 3.37199 8.04779 3.22001 8.04705 2.90015L7.55921 3.40582C7.78437 3.66965 7.73933 3.61102 7.90445 3.81622L8.08458 3.61835Z" fill="#FF7F00" stroke="#67211F" stroke-width="0.00590396"/>
<path d="M8.17444 4.29997C8.14442 4.07278 8.10689 3.95552 8.08437 3.62573L7.52898 4.23401C7.7487 4.51385 7.70501 4.451 7.87423 4.64434L8.17444 4.29997Z" fill="#398F00" stroke="#67211F" stroke-width="0.00590396"/>
<path d="M8.34991 4.95242C8.28236 4.71057 8.24484 4.60797 8.17729 4.30017L7.6294 4.93776C7.80203 5.15762 7.80203 5.15762 7.97465 5.35549L8.34991 4.95242Z" fill="#D60000" stroke="#67211F" stroke-width="0.00590396"/>
<path d="M8.56763 5.52284C8.39417 5.30927 8.40506 5.31985 8.22406 5.09155L7.96479 5.34485C8.28295 5.42828 8.27737 5.42643 8.27737 5.42643L8.56763 5.52284Z" fill="#398F00" stroke="#67211F" stroke-width="0.00590396"/>
<path d="M8.35039 4.95239L8.22218 5.09232L8.55402 5.50472H8.56156L8.35039 4.95239Z" fill="#007FFF" stroke="#67211F" stroke-width="0.00590396"/>
<path d="M8.12538 3.9647L8.08767 3.6333L8.04242 3.67749L7.97454 3.75113L8.12538 3.9647Z" fill="#007FFF" stroke="#67211F" stroke-width="0.00590396"/>
<g filter="url(#filter0_d_1200_7244)">
<path d="M9.07843 2.71962L9.1996 2.53256C9.1996 2.53256 9.33123 3.08119 9.23933 3.43215C9.16626 3.71122 8.89684 4.07538 8.89684 4.07538C8.77353 4.3898 8.78142 4.56225 8.84826 4.86727L8.60237 5.15602C8.60237 5.15602 8.52634 4.75621 8.40349 4.56013C8.22526 4.27564 7.93118 4.35301 7.74982 4.10296C7.4813 3.73273 7.62053 2.95109 7.62053 2.95109L7.83841 3.1395C7.83841 3.1395 7.97045 2.94488 8.09949 2.66558C8.14571 2.56556 8.19154 2.45468 8.23078 2.33798C8.29076 2.1596 8.35756 1.87274 8.35756 1.87274L8.48351 2.13018L8.58481 1.9933C8.58481 1.9933 8.59364 2.19062 8.63102 2.30097C8.71681 2.55421 8.81534 2.6464 9.07843 2.71962Z" fill="url(#paint1_linear_1200_7244)"/>
<path d="M9.07843 2.71962C9.12575 2.64657 9.1996 2.53256 9.1996 2.53256C9.1996 2.53256 9.33123 3.08119 9.23933 3.43215C9.16626 3.71122 8.89684 4.07538 8.89684 4.07538C8.77353 4.3898 8.78142 4.56225 8.84826 4.86727L8.60237 5.15602C8.60237 5.15602 8.52634 4.75621 8.40349 4.56013C8.22526 4.27564 7.93118 4.35301 7.74982 4.10296C7.4813 3.73273 7.62053 2.95109 7.62053 2.95109L7.83841 3.1395M9.07843 2.71962C8.81534 2.6464 8.71681 2.55421 8.63102 2.30097C8.59364 2.19062 8.58481 1.9933 8.58481 1.9933L8.48351 2.13018M9.07843 2.71962C9.07122 2.74609 8.85961 3.2027 8.85961 3.2027C8.85961 3.2027 8.69412 2.88625 8.61972 2.67165M7.83841 3.1395C7.96305 3.28268 7.98181 3.37625 8.01713 3.54215L8.1789 2.9485L8.42573 3.31295L8.46884 2.51962L8.61972 2.67165M7.83841 3.1395C7.83841 3.1395 7.97045 2.94488 8.09949 2.66558C8.14571 2.56556 8.19154 2.45468 8.23078 2.33798C8.29076 2.1596 8.35756 1.87274 8.35756 1.87274L8.48351 2.13018M8.48351 2.13018C8.48351 2.13018 8.54817 2.46531 8.61972 2.67165" stroke="#F8F7FC" stroke-width="0.0365292"/>
</g>
<path d="M7.64803 5.59699C7.93545 5.62199 8.04792 5.23459 7.748 5.14712C7.51182 5.08339 7.26688 5.05839 7.0232 5.07214C6.36213 5.09713 5.73605 5.37456 5.27368 5.84692C5.06123 6.07186 5.36115 6.34679 5.58609 6.18433C6.18843 5.7632 6.91448 5.55576 7.64803 5.59699Z" fill="#422B0D"/>
<path d="M12.2224 5.59699C12.9597 5.55451 13.6908 5.7607 14.2969 6.18433C14.5218 6.34679 14.8217 6.07186 14.6093 5.84692C14.1456 5.37705 13.5196 5.09963 12.8597 5.07214C12.6161 5.05839 12.3711 5.08339 12.1349 5.14712C12.0125 5.18211 11.9413 5.30832 11.9762 5.43079C12.0062 5.53951 12.1112 5.60949 12.2224 5.59699Z" fill="#422B0D"/>
</g>
<defs>
<filter id="filter0_d_1200_7244" x="7.56614" y="1.81848" width="1.85102" height="3.49059" filterUnits="userSpaceOnUse" color-interpolation-filters="sRGB">
<feFlood flood-opacity="0" result="BackgroundImageFix"/>
<feColorMatrix in="SourceAlpha" type="matrix" values="0 0 0 0 0 0 0 0 0 0 0 0 0 0 0 0 0 0 127 0" result="hardAlpha"/>
<feOffset dx="0.0737995" dy="0.0590396"/>
<feGaussianBlur stdDeviation="0.0265678"/>
<feComposite in2="hardAlpha" operator="out"/>
<feColorMatrix type="matrix" values="0 0 0 0 0 0 0 0 0 0 0 0 0 0 0 0 0 0 0.25 0"/>
<feBlend mode="normal" in2="BackgroundImageFix" result="effect1_dropShadow_1200_7244"/>
<feBlend mode="normal" in="SourceGraphic" in2="effect1_dropShadow_1200_7244" result="shape"/>
</filter>
<radialGradient id="paint0_radial_1200_7244" cx="0" cy="0" r="1" gradientUnits="userSpaceOnUse" gradientTransform="translate(9.89787 9.84774) scale(7.11802 7.11799)">
<stop offset="0.5" stop-color="#FDE030"/>
<stop offset="0.92" stop-color="#F7C02B"/>
<stop offset="1" stop-color="#F4A223"/>
</radialGradient>
<linearGradient id="paint1_linear_1200_7244" x1="8.76042" y1="1.97888" x2="7.9674" y2="4.98873" gradientUnits="userSpaceOnUse">
<stop stop-color="#C9C9C9"/>
<stop offset="1" stop-color="#939297"/>
</linearGradient>
<clipPath id="clip0_1200_7244">
<rect width="17.996" height="17.996" fill="white" transform="translate(0.948486 0.988037)"/>
</clipPath>
</defs>
</svg>
