<svg width="18" height="18" viewBox="0 0 18 18" fill="none" xmlns="http://www.w3.org/2000/svg">
<path d="M9.24933 16.9979C5.76215 16.9979 2 14.7188 2 9.71765C2 4.71653 5.76215 2.43738 9.24933 2.43738C11.1867 2.43738 12.974 3.10159 14.2989 4.3128C15.7362 5.64122 16.4987 7.51664 16.4987 9.71765C16.4987 11.9187 15.7362 13.7811 14.2989 15.1095C12.974 16.3207 11.1742 16.9979 9.24933 16.9979Z" fill="url(#paint0_radial_1193_1954)"/>
<path d="M10.408 12.5884C10.6217 12.3918 10.7554 12.1196 10.7829 11.8239C10.8067 11.3551 10.6917 11.1936 10.5442 10.9891C10.2055 10.5137 9.24431 10.627 9.24431 10.627C8.99433 10.6375 8.68936 10.7651 8.72561 11.0751C8.77435 11.2509 8.91184 11.385 9.08432 11.4254C9.45929 11.5205 10.0055 11.4254 10.0205 11.8278C10.038 12.2785 9.37305 12.0883 9.32055 12.5702C9.26806 13.0521 10.0205 12.9856 10.0205 13.3138C10.0205 13.5652 9.77051 13.6082 9.51178 13.6655C9.28805 13.7137 8.85809 13.7866 8.8231 14.0562C8.7881 14.3258 8.93684 14.6514 9.54178 14.5563C10.4929 14.4065 10.8129 13.8634 10.8129 13.53C10.8192 13.1693 10.6704 12.8241 10.408 12.5884Z" fill="#422B0D"/>
<path d="M6.80069 6.86084C6.27699 6.86084 5.80078 7.32188 5.80078 8.08768C5.80078 8.85347 6.27699 9.31321 6.80069 9.31321C7.32564 9.31321 7.8006 8.85217 7.8006 8.08768C7.8006 7.32318 7.33064 6.86084 6.80069 6.86084Z" fill="#422B0D"/>
<path d="M6.75643 7.37012C6.57895 7.28155 6.36522 7.3597 6.27898 7.54463C6.21273 7.6892 6.24273 7.86241 6.35397 7.97442C6.53145 8.06298 6.74518 7.98484 6.83142 7.7999C6.89767 7.65534 6.86767 7.48212 6.75643 7.37012Z" fill="#896024"/>
<path d="M11.5995 6.86084C11.0758 6.86084 10.5996 7.32188 10.5996 8.08768C10.5996 8.85347 11.0758 9.31321 11.5995 9.31321C12.1232 9.31321 12.5994 8.85217 12.5994 8.08768C12.5994 7.32318 12.1232 6.86084 11.5995 6.86084Z" fill="#422B0D"/>
<path d="M11.5514 7.37012C11.3739 7.28155 11.1601 7.3597 11.0739 7.54463C11.0077 7.6892 11.0377 7.86241 11.1489 7.97442C11.3264 8.06298 11.5401 7.98484 11.6263 7.7999C11.6926 7.65534 11.6626 7.48212 11.5514 7.37012Z" fill="#896024"/>
<path d="M15.2361 5.39209C15.9023 6.51213 16.2498 7.84576 16.2498 9.32917C16.2498 11.5302 15.4874 13.3926 14.05 14.721C12.7251 15.9322 10.9253 16.6094 9.00046 16.6094C6.74317 16.6094 4.37589 15.6522 2.97852 13.6218C4.32339 15.9218 6.85316 17.0002 9.25044 17.0002C11.1753 17.0002 12.9751 16.3229 14.3 15.1117C15.7373 13.7833 16.4998 11.9209 16.4998 9.71988C16.4998 8.06066 16.0661 6.58637 15.2361 5.39209Z" fill="#EB8F00"/>
<path d="M5.14827 1.27125H5.67163C5.67163 1.27125 7.82137 0.987891 9.27512 1.0004C10.6609 1.01233 12.6984 1.27125 12.6984 1.27125H13.5221C14.3606 2.61253 14.9632 3.98993 15.2395 5.40484C12.6984 5.71369 9.31602 6.4405 9.31602 6.4405C9.31602 6.4405 6.11179 5.79458 3.33691 5.24306C3.7585 3.79466 4.27808 2.48027 5.14827 1.27125Z" fill="#7F2125"/>
<path d="M5.14827 1.27125H5.67163C5.67163 1.27125 7.82137 0.987891 9.27512 1.0004C10.6609 1.01233 12.6984 1.27125 12.6984 1.27125H13.5221M5.14827 1.27125C4.27808 2.48027 3.7585 3.79466 3.33691 5.24306C6.11179 5.79458 9.31602 6.4405 9.31602 6.4405C9.31602 6.4405 12.6984 5.71369 15.2395 5.40484C14.9632 3.98993 14.3606 2.61253 13.5221 1.27125M5.14827 1.27125C5.82903 1.98749 6.79888 1.53756 9.27512 2.08874C11.5171 1.55421 12.5966 2.02296 13.5221 1.27125" stroke="#67211F" stroke-width="0.0571985"/>
<path d="M9.31904 6.44113L9.29492 2.10263C10.9993 1.60103 12.2933 1.99264 13.572 1.30627C14.1289 2.12635 15.0501 3.66188 15.3085 5.40181C13.3469 5.62202 10.2275 6.25152 9.31904 6.44113Z" fill="#67211F" stroke="#67211F" stroke-width="0.0358986"/>
<path d="M12.1006 1.69013C12.4834 1.44428 12.7897 1.6031 12.774 1.25H13.5293C13.1451 1.64553 12.3673 1.63391 12.1006 1.69013Z" fill="#67211F" fill-opacity="0.56"/>
<path d="M6.40358 1.73513C6.02086 1.48677 5.66179 1.62135 5.67753 1.26465L5.18457 1.27982C5.56881 1.67939 6.13688 1.67834 6.40358 1.73513Z" fill="#67211F"/>
<path d="M9.34905 1.30947L9.26309 2.04189L9.42094 2.03134L9.34905 1.30947Z" fill="#67211F" stroke="#67211F" stroke-width="0.0870307"/>
<path d="M7.28581 1.80433C7.01049 1.7869 6.84478 1.77038 6.61721 1.75334C6.40133 3.32957 6.2983 4.40826 6.86323 5.92096C7.23247 5.99985 7.61772 6.04852 7.98703 6.11982C7.18975 4.66078 7.16621 3.26901 7.28581 1.80433Z" fill="#D60000" stroke="#67211F" stroke-width="0.0358986"/>
<path d="M6.82876 1.77772L6.63213 1.76094L6.59019 2.04893L6.82876 1.77772Z" fill="#398F00" stroke="#67211F" stroke-width="0.00725256"/>
<path d="M6.49328 2.85668L7.2486 2.01301L7.25817 1.8234L6.82563 1.78193L6.58706 2.05314L6.49328 2.85668Z" fill="#FF7F00" stroke="#67211F" stroke-width="0.00725256"/>
<path d="M6.98591 2.29625C6.98591 2.29625 6.74952 2.03128 6.6662 1.95978L6.58668 2.05018L6.50084 2.8462C6.61747 2.7131 6.98591 2.29625 6.98591 2.29625Z" fill="#D60000" stroke="#67211F" stroke-width="0.00725256"/>
<path d="M7.20726 2.93061C7.211 2.6032 7.22065 2.40022 7.24697 2.01283L6.49958 2.84896C6.47024 3.18285 6.46231 3.3671 6.45268 3.6908L7.20726 2.93061Z" fill="#007FFF" stroke="#67211F" stroke-width="0.00580205"/>
<path d="M7.03052 3.1074L6.66454 2.66433L6.5055 2.84513C6.48201 3.17463 6.47052 3.35747 6.4586 3.68699L7.03052 3.1074Z" fill="#398F00" stroke="#67211F" stroke-width="0.00580205"/>
<path d="M7.05628 3.87581L6.69803 3.44797L6.45974 3.68883C6.46455 4.03032 6.4868 4.18226 6.50793 4.46318L7.05628 3.87581Z" fill="#D60000" stroke="#67211F" stroke-width="0.00580205"/>
<path d="M7.01651 4.73694L6.65833 4.30151L6.50736 4.45962C6.5672 4.80915 6.58212 4.90032 6.64278 5.1588L7.01651 4.73694Z" fill="#007FFF" stroke="#67211F" stroke-width="0.00580205"/>
<path d="M7.10119 5.46236L6.75081 5.03459L6.63947 5.16267C6.72312 5.48963 6.73106 5.48211 6.80752 5.73312L7.10119 5.46236Z" fill="#FF7F00" stroke="#67211F" stroke-width="0.00580205"/>
<path d="M7.28907 5.99049L6.96991 5.59333L6.81121 5.7362C6.83428 5.79709 6.86508 5.87321 6.88048 5.91128L6.88048 5.91128L7.28907 5.99049Z" fill="#007FFF" stroke="#67211F" stroke-width="0.00580205"/>
<path d="M7.24643 3.67333C7.22071 3.41805 7.21155 3.26063 7.21374 2.92947L6.69746 3.44881C6.93113 3.72387 6.88445 3.66279 7.0557 3.87664L7.24643 3.67333Z" fill="#FF7F00" stroke="#67211F" stroke-width="0.00580205"/>
<path d="M7.33371 4.38091C7.30433 4.14545 7.26607 4.02374 7.24551 3.68212L6.65744 4.3071C6.88526 4.5987 6.84002 4.53326 7.01569 4.73487L7.33371 4.38091Z" fill="#398F00" stroke="#67211F" stroke-width="0.00580205"/>
<path d="M7.50637 5.05472C7.43777 4.80376 7.39937 4.69722 7.33139 4.37798L6.75092 5.03338C6.92991 5.26247 6.92991 5.26247 7.1091 5.4688L7.50637 5.05472Z" fill="#D60000" stroke="#67211F" stroke-width="0.00580205"/>
<path d="M7.71558 5.62508C7.53653 5.40357 7.55987 5.43411 7.37308 5.19737L6.96814 5.58863C7.14713 5.81772 7.11599 5.77952 7.27943 5.98573L7.71558 5.62508Z" fill="#398F00" stroke="#67211F" stroke-width="0.00580205"/>
<path d="M7.50587 5.05358L7.37078 5.19665L7.71328 5.62435L7.72115 5.62442L7.50587 5.05358Z" fill="#007FFF" stroke="#67211F" stroke-width="0.00580205"/>
<path d="M7.2774 4.03045L7.24111 3.68871L7.19347 3.73385L7.12196 3.80914L7.2774 4.03045Z" fill="#007FFF" stroke="#67211F" stroke-width="0.00580205"/>
<path d="M7.49237 5.81641L7.72239 5.621C7.80412 5.81611 7.8545 5.92029 7.95423 6.10092L7.67129 6.05309L7.49237 5.81641Z" fill="#FF7F00" stroke="#67211F" stroke-width="0.00435153"/>
<g filter="url(#filter0_d_1193_1954)">
<path d="M8.47614 2.9078L8.6045 2.71547C8.6045 2.71547 8.74395 3.27956 8.64659 3.64041C8.56918 3.92734 8.28377 4.30176 8.28377 4.30176C8.15313 4.62504 8.16149 4.80235 8.2323 5.11596L7.97181 5.41285C7.97181 5.41285 7.89126 5.00177 7.76112 4.80016C7.5723 4.50766 7.26076 4.58721 7.06864 4.33012C6.78417 3.94946 6.93166 3.1458 6.93166 3.1458L7.16248 3.33951C7.16248 3.33951 7.30237 3.13941 7.43907 2.85225C7.48803 2.7494 7.53658 2.6354 7.57815 2.51541C7.6417 2.332 7.71246 2.03706 7.71246 2.03706L7.84589 2.30176L7.9532 2.16102C7.9532 2.16102 7.96256 2.3639 8.00216 2.47736C8.09304 2.73774 8.19742 2.83252 8.47614 2.9078Z" fill="#939297"/>
<path d="M8.47614 2.9078C8.52627 2.83269 8.6045 2.71547 8.6045 2.71547C8.6045 2.71547 8.74395 3.27956 8.64659 3.64041C8.56918 3.92734 8.28377 4.30176 8.28377 4.30176C8.15313 4.62504 8.16149 4.80235 8.2323 5.11596L7.97181 5.41285C7.97181 5.41285 7.89126 5.00177 7.76112 4.80016C7.5723 4.50766 7.26076 4.58721 7.06864 4.33012C6.78417 3.94946 6.93166 3.1458 6.93166 3.1458L7.16248 3.33951M8.47614 2.9078C8.19742 2.83252 8.09304 2.73774 8.00216 2.47736C7.96256 2.3639 7.9532 2.16102 7.9532 2.16102L7.84589 2.30176M8.47614 2.9078C8.4685 2.93502 8.24432 3.4045 8.24432 3.4045C8.24432 3.4045 8.06901 3.07913 7.99018 2.85848M7.16248 3.33951C7.29453 3.48672 7.3144 3.58293 7.35182 3.75351L7.5232 3.14313L7.78468 3.51785M7.16248 3.33951C7.16248 3.33951 7.30237 3.13941 7.43907 2.85225C7.48803 2.7494 7.53658 2.6354 7.57815 2.51541C7.6417 2.332 7.71246 2.03706 7.71246 2.03706L7.84589 2.30176M7.84589 2.30176C7.84589 2.30176 7.91439 2.64633 7.99018 2.85848M7.99018 2.85848L7.83035 2.70217L7.78468 3.51785M7.78468 3.51785L7.76112 3.92093" stroke="#F8F7FC" stroke-width="0.0358986"/>
</g>
<defs>
<filter id="filter0_d_1193_1954" x="6.87538" y="1.98486" width="1.94854" height="3.57752" filterUnits="userSpaceOnUse" color-interpolation-filters="sRGB">
<feFlood flood-opacity="0" result="BackgroundImageFix"/>
<feColorMatrix in="SourceAlpha" type="matrix" values="0 0 0 0 0 0 0 0 0 0 0 0 0 0 0 0 0 0 127 0" result="hardAlpha"/>
<feOffset dx="0.0725256" dy="0.0580205"/>
<feGaussianBlur stdDeviation="0.0261092"/>
<feComposite in2="hardAlpha" operator="out"/>
<feColorMatrix type="matrix" values="0 0 0 0 0 0 0 0 0 0 0 0 0 0 0 0 0 0 0.25 0"/>
<feBlend mode="normal" in2="BackgroundImageFix" result="effect1_dropShadow_1193_1954"/>
<feBlend mode="normal" in="SourceGraphic" in2="effect1_dropShadow_1193_1954" result="shape"/>
</filter>
<radialGradient id="paint0_radial_1193_1954" cx="0" cy="0" r="1" gradientUnits="userSpaceOnUse" gradientTransform="translate(9.24933 9.71765) scale(7.11931 7.41829)">
<stop offset="0.5" stop-color="#FDE030"/>
<stop offset="0.92" stop-color="#F7C02B"/>
<stop offset="1" stop-color="#F4A223"/>
</radialGradient>
</defs>
</svg>
