<svg width="18" height="18" viewBox="0 0 18 18" fill="none" xmlns="http://www.w3.org/2000/svg">
<path d="M9.29329 16.1589C6.02736 16.1589 2.50391 14.1103 2.50391 9.61531C2.50391 5.12029 6.02736 3.07178 9.29329 3.07178C11.1077 3.07178 12.7816 3.66877 14.0225 4.75741C15.3686 5.9514 16.0827 7.63704 16.0827 9.61531C16.0827 11.5936 15.3686 13.2675 14.0225 14.4615C12.7816 15.5502 11.096 16.1589 9.29329 16.1589Z" fill="url(#paint0_radial_1193_1305)"/>
<path d="M14.9018 5.7251C15.5257 6.7318 15.8511 7.93047 15.8511 9.26376C15.8511 11.242 15.1371 12.916 13.7909 14.11C12.5501 15.1986 10.8644 15.8073 9.06175 15.8073C6.94767 15.8073 4.73059 14.9469 3.42188 13.122C4.68142 15.1892 7.05069 16.1585 9.29587 16.1585C11.0986 16.1585 12.7842 15.5498 14.025 14.4611C15.3712 13.2671 16.0853 11.5932 16.0853 9.61493C16.0853 8.12362 15.6791 6.79852 14.9018 5.7251Z" fill="#EB8F00"/>
<path d="M9.66695 11.2056C8.39219 11.6458 7.07996 11.9677 5.74549 12.1655C5.52074 12.1948 5.36271 12.402 5.39198 12.6267C5.399 12.6782 5.41539 12.7285 5.44114 12.7742C6.40102 14.4364 8.64854 15.3027 10.8024 14.5769C13.167 13.7809 14.2439 11.7441 13.9864 9.88287C13.9548 9.66046 13.7488 9.50594 13.5275 9.53755C13.4749 9.54457 13.4245 9.5633 13.3777 9.59022C12.1907 10.2364 10.9487 10.776 9.66695 11.2056Z" fill="url(#paint1_linear_1193_1305)"/>
<path d="M11.2599 4.93213C12.4235 4.94266 13.3588 5.89435 13.3483 7.0579C13.3412 7.89955 12.832 8.65691 12.0559 8.98233C11.8031 9.08534 11.5327 9.13685 11.2599 9.13451C10.0964 9.12397 9.16109 8.17229 9.17163 7.00874C9.17865 6.16709 9.68785 5.40973 10.464 5.0843C10.7168 4.98363 10.9872 4.93213 11.2599 4.93213Z" fill="white"/>
<path d="M11.2605 7.87062C11.7131 7.87062 12.0799 7.50376 12.0799 7.05122C12.0799 6.59867 11.7131 6.23181 11.2605 6.23181C10.808 6.23181 10.4411 6.59867 10.4411 7.05122C10.4411 7.50376 10.808 7.87062 11.2605 7.87062Z" fill="#422B0D"/>
<path d="M6.05041 7.49353C5.26729 7.49236 4.63167 8.12682 4.63049 8.90876C4.62932 9.69188 5.26378 10.3275 6.0469 10.3287C6.83002 10.3298 7.46565 9.69539 7.46682 8.91344C7.46682 8.73083 7.4317 8.54939 7.36381 8.37966C7.14608 7.84471 6.62751 7.4947 6.05041 7.49353Z" fill="white"/>
<path d="M6.06343 9.74391C6.51597 9.74391 6.88284 9.37705 6.88284 8.92451C6.88284 8.47196 6.51597 8.1051 6.06343 8.1051C5.61088 8.1051 5.24402 8.47196 5.24402 8.92451C5.24402 9.37705 5.61088 9.74391 6.06343 9.74391Z" fill="#422B0D"/>
<path d="M7.08389 12.8854V14.9925C7.08506 16.101 7.98524 17 9.09379 17H9.47657C10.5863 17 11.4865 16.0998 11.4865 14.9901L11.4584 11.6154L7.08389 12.8854Z" fill="#FF4081"/>
<path d="M11.4549 11.1373L7.08389 12.4472V12.8862L11.4584 11.6102L11.4549 11.1373Z" fill="#FF4081"/>
<path opacity="0.3" d="M9.2867 14.6893C9.41546 14.6893 9.52082 14.584 9.52082 14.4552V11.7161L9.05258 11.8495V14.4552C9.05258 14.584 9.15793 14.6893 9.2867 14.6893Z" fill="#AB3F2E"/>
<path opacity="0.3" d="M11.4549 11.1373L7.08389 12.4472V12.8862L11.4584 11.6102L11.4549 11.1373Z" fill="#AB3F2E"/>
<path d="M2.57628 4.04673L3.00095 3.84888C3.00095 3.84888 4.6341 2.79746 5.81864 2.25844C6.94778 1.74463 8.70276 1.19254 8.70276 1.19254L9.3711 0.881172C10.578 1.69435 11.6077 2.62715 12.3873 3.7149C9.89618 4.10988 7.87394 6.67011 7.87394 6.67011C7.87394 6.67011 4.58402 6.61294 2.6656 8.07811C2.43912 6.69833 2.34477 5.39441 2.57628 4.04673Z" fill="#7F2125"/>
<path d="M2.57628 4.04673L3.00095 3.84888C3.00095 3.84888 4.6341 2.79746 5.81864 2.25844C6.94778 1.74463 8.70276 1.19254 8.70276 1.19254L9.3711 0.881172M2.57628 4.04673C2.34477 5.39441 2.43912 6.69833 2.6656 8.07811C4.58402 6.61294 7.87394 6.67011 7.87394 6.67011C7.87394 6.67011 9.89618 4.10988 12.3873 3.7149C11.6077 2.62715 10.578 1.69435 9.3711 0.881172M2.57628 4.04673C3.40983 4.39289 4.02018 3.64714 6.24586 3.17547C7.85526 1.87754 8.91518 1.86444 9.3711 0.881172" stroke="#67211F" stroke-width="0.055627"/>
<path d="M7.87942 6.64358L6.26839 3.16868C7.43915 2.10863 8.63138 1.95497 9.38793 0.898329C10.1569 1.38143 11.4993 2.33145 12.3899 3.70159C10.3993 4.06902 8.80408 5.55141 7.87942 6.64358Z" fill="#67211F" stroke="#67211F" stroke-width="0.0349123"/>
<path d="M3.7753 3.96441C3.36726 3.89982 3.12872 4.14896 3.00148 3.84246L2.60743 4.0416C3.07606 4.23301 3.53661 4.01738 3.7753 3.96441Z" fill="#67211F"/>
<path d="M8.38265 1.77225C8.59669 1.42042 8.90761 1.43844 8.75623 1.14687L9.36914 0.861328C9.21262 1.33985 8.57699 1.62407 8.38265 1.77225Z" fill="#67211F" fill-opacity="0.56"/>
<path d="M6.00111 2.49204L6.21886 3.14167L6.34281 3.0731L6.00111 2.49204Z" fill="#67211F" stroke="#67211F" stroke-width="0.0846395"/>
<path d="M4.52538 3.70073C4.29367 3.79322 4.15181 3.84386 3.95924 3.91812C4.46862 5.31485 4.57894 5.66808 5.44042 6.88522C5.80881 6.81877 6.09493 6.78471 6.41908 6.74053C5.18863 5.83456 5.00946 4.96777 4.52538 3.70073Z" fill="#D60000" stroke="#67211F" stroke-width="0.0349123"/>
<path d="M4.14851 3.85368L3.9813 3.91612L4.06144 4.17242L4.14851 3.85368Z" fill="#398F00" stroke="#67211F" stroke-width="0.00705329"/>
<path d="M4.30283 4.8791L4.58446 3.88247L4.51696 3.72074L4.14733 3.85431L4.06026 4.17304L4.30283 4.8791Z" fill="#FF7F00" stroke="#67211F" stroke-width="0.00705329"/>
<path d="M4.48659 4.22296C4.48659 4.22296 4.18835 4.09404 4.09192 4.06684L4.0629 4.17308L4.30896 4.86979C4.35133 4.71354 4.48659 4.22296 4.48659 4.22296Z" fill="#D60000" stroke="#67211F" stroke-width="0.00705329"/>
<path d="M4.91612 4.66273C4.78914 4.38844 4.7164 4.21554 4.58403 3.88249L4.30589 4.86976C4.41454 5.1594 4.48125 5.31603 4.60195 5.58952L4.91612 4.66273Z" fill="#007FFF" stroke="#67211F" stroke-width="0.00564263"/>
<path d="M4.84116 4.88426L4.36637 4.65728L4.30833 4.86977C4.42001 5.15348 4.48325 5.31031 4.60439 5.58954L4.84116 4.88426Z" fill="#398F00" stroke="#67211F" stroke-width="0.00564263"/>
<path d="M5.16573 5.51334L4.70332 5.29606L4.60442 5.5894C4.74397 5.8721 4.82249 5.99006 4.95131 6.21595L5.16573 5.51334Z" fill="#D60000" stroke="#67211F" stroke-width="0.00564263"/>
<path d="M5.47843 6.2488L5.01305 6.02517L4.95259 6.21561C5.14026 6.48362 5.18866 6.55379 5.34084 6.74561L5.47843 6.2488Z" fill="#007FFF" stroke="#67211F" stroke-width="0.00564263"/>
<path d="M5.83145 6.81688L5.37548 6.59659L5.33544 6.74661L5.44214 6.86909L5.83145 6.81688Z" fill="#FF7F00" stroke="#67211F" stroke-width="0.00564263"/>
<path d="M5.23954 5.26923C5.11714 5.06649 5.04714 4.93887 4.91741 4.66205L4.70214 5.29551C5.00217 5.4339 4.9398 5.40114 5.16456 5.51279L5.23954 5.26923Z" fill="#FF7F00" stroke="#67211F" stroke-width="0.00564263"/>
<path d="M5.59235 5.82464C5.47485 5.63985 5.39526 5.55329 5.24281 5.2766L5.01088 6.02599C5.3127 6.18044 5.24978 6.14349 5.47328 6.24322L5.59235 5.82464Z" fill="#398F00" stroke="#67211F" stroke-width="0.00564263"/>
<path d="M6.00371 6.31997C5.84803 6.13751 5.77436 6.06365 5.59207 5.82404L5.37843 6.59582C5.61555 6.71716 5.61555 6.71716 5.84381 6.81946L6.00371 6.31997Z" fill="#D60000" stroke="#67211F" stroke-width="0.00564263"/>
<path d="M6.41353 6.72727C6.17937 6.61228 6.19293 6.61706 5.9464 6.49238L5.82635 6.81408C6.13202 6.75921 6.12651 6.75983 6.12651 6.75983L6.41353 6.72727Z" fill="#398F00" stroke="#67211F" stroke-width="0.00564263"/>
<path d="M6.00421 6.32048L5.95073 6.49221L6.40026 6.7155L6.40671 6.7125L6.00421 6.32048Z" fill="#007FFF" stroke="#67211F" stroke-width="0.00564263"/>
<path d="M5.41235 5.55323L5.24698 5.28255L5.22602 5.33868L5.19753 5.42922L5.41235 5.55323Z" fill="#007FFF" stroke="#67211F" stroke-width="0.00564263"/>
<g filter="url(#filter0_d_1193_1305)">
<path d="M5.72809 4.09497L5.75674 3.88439C5.75674 3.88439 6.09133 4.30697 6.15398 4.64782C6.2038 4.91885 6.11918 5.34223 6.11918 5.34223C6.14008 5.66401 6.21647 5.81025 6.39704 6.04773L6.3022 6.39636C6.3022 6.39636 6.07548 6.08043 5.89074 5.95976C5.6227 5.78468 5.40113 5.96948 5.14431 5.82548C4.76406 5.61227 4.56827 4.87936 4.56827 4.87936L4.8316 4.95532C4.8316 4.95532 4.86656 4.73384 4.86477 4.4402C4.86412 4.33504 4.85876 4.22062 4.8454 4.10381C4.82496 3.92524 4.7666 3.64998 4.7666 3.64998L4.97878 3.82257L5.01061 3.66341C5.01061 3.66341 5.09785 3.83083 5.17451 3.91145C5.35047 4.09649 5.47237 4.1369 5.72809 4.09497Z" fill="url(#paint2_linear_1193_1305)"/>
<path d="M5.72809 4.09497C5.73928 4.01273 5.75674 3.88439 5.75674 3.88439C5.75674 3.88439 6.09133 4.30697 6.15398 4.64782C6.2038 4.91885 6.11918 5.34223 6.11918 5.34223C6.14008 5.66401 6.21647 5.81025 6.39704 6.04773L6.3022 6.39636C6.3022 6.39636 6.07548 6.08043 5.89074 5.95976C5.6227 5.78468 5.40113 5.96948 5.14431 5.82548C4.76406 5.61227 4.56827 4.87936 4.56827 4.87936L4.8316 4.95532M5.72809 4.09497C5.47237 4.1369 5.35047 4.09649 5.17451 3.91145C5.09785 3.83083 5.01061 3.66341 5.01061 3.66341L4.97878 3.82257M5.72809 4.09497C5.73257 4.12079 5.73496 4.60111 5.73496 4.60111C5.73496 4.60111 5.46498 4.39323 5.31441 4.23712M4.8316 4.95532C4.99654 5.02945 5.05043 5.103 5.14775 5.23258L5.04721 4.6535L5.40649 4.87039L5.12335 4.16582L5.31441 4.23712M4.8316 4.95532C4.8316 4.95532 4.86656 4.73384 4.86477 4.4402C4.86412 4.33504 4.85876 4.22062 4.8454 4.10381C4.82496 3.92524 4.7666 3.64998 4.7666 3.64998L4.97878 3.82257M4.97878 3.82257C4.97878 3.82257 5.16963 4.08701 5.31441 4.23712" stroke="#F8F7FC" stroke-width="0.0349123"/>
</g>
<defs>
<filter id="filter0_d_1193_1305" x="4.54343" y="3.60522" width="1.99403" height="2.93839" filterUnits="userSpaceOnUse" color-interpolation-filters="sRGB">
<feFlood flood-opacity="0" result="BackgroundImageFix"/>
<feColorMatrix in="SourceAlpha" type="matrix" values="0 0 0 0 0 0 0 0 0 0 0 0 0 0 0 0 0 0 127 0" result="hardAlpha"/>
<feOffset dx="0.0705329" dy="0.0564263"/>
<feGaussianBlur stdDeviation="0.0253919"/>
<feComposite in2="hardAlpha" operator="out"/>
<feColorMatrix type="matrix" values="0 0 0 0 0 0 0 0 0 0 0 0 0 0 0 0 0 0 0.25 0"/>
<feBlend mode="normal" in2="BackgroundImageFix" result="effect1_dropShadow_1193_1305"/>
<feBlend mode="normal" in="SourceGraphic" in2="effect1_dropShadow_1193_1305" result="shape"/>
</filter>
<radialGradient id="paint0_radial_1193_1305" cx="0" cy="0" r="1" gradientUnits="userSpaceOnUse" gradientTransform="translate(9.29329 9.61532) scale(6.66761 6.66758)">
<stop offset="0.5" stop-color="#FDE030"/>
<stop offset="0.92" stop-color="#F7C02B"/>
<stop offset="1" stop-color="#F4A223"/>
</radialGradient>
<linearGradient id="paint1_linear_1193_1305" x1="5.38837" y1="12.1846" x2="14.0237" y2="12.1846" gradientUnits="userSpaceOnUse">
<stop stop-color="#404040"/>
<stop offset="0.12" stop-color="#3E3A35"/>
<stop offset="0.44" stop-color="#392D1E"/>
<stop offset="0.74" stop-color="#362510"/>
<stop offset="1" stop-color="#35220B"/>
</linearGradient>
<linearGradient id="paint2_linear_1193_1305" x1="5.15575" y1="3.5806" x2="5.67763" y2="6.50772" gradientUnits="userSpaceOnUse">
<stop stop-color="#C9C9C9"/>
<stop offset="1" stop-color="#939297"/>
</linearGradient>
</defs>
</svg>
