<svg width="18" height="19" viewBox="0 0 18 19" fill="none" xmlns="http://www.w3.org/2000/svg">
<path d="M9.02023 17.8885C5.53369 17.8885 1.77222 15.7016 1.77222 10.9029C1.77222 6.10425 5.53369 3.91736 9.02023 3.91736C10.9572 3.91736 12.7442 4.55468 14.0689 5.71686C15.506 6.9915 16.2683 8.791 16.2683 10.9029C16.2683 13.0148 15.506 14.8018 14.0689 16.0765C12.7442 17.2387 10.9447 17.8885 9.02023 17.8885Z" fill="url(#paint0_radial_1200_7120)"/>
<path d="M15.0054 6.75085C15.6715 7.82556 16.0189 9.1052 16.0189 10.5286C16.0189 12.6405 15.2566 14.4275 13.8195 15.7021C12.4949 16.8643 10.6954 17.5141 8.77088 17.5141C6.514 17.5141 4.14715 16.5956 2.75003 14.6474C4.09466 16.8543 6.62397 17.889 9.02082 17.889C10.9453 17.889 12.7448 17.2392 14.0694 16.077C15.5065 14.8024 16.2688 13.0154 16.2688 10.9035C16.2688 9.31139 15.8352 7.89679 15.0054 6.75085Z" fill="#EB8F00"/>
<path d="M9.02017 17.8891C5.53363 17.8891 1.77216 15.7022 1.77216 10.9035C1.77216 6.10486 5.53363 3.91797 9.02017 3.91797C10.9571 3.91797 12.7442 4.55529 14.0688 5.71747C15.5059 6.99211 16.2682 8.79161 16.2682 10.9035C16.2682 13.0154 15.5059 14.8024 14.0688 16.0771C12.7442 17.2393 10.9446 17.8891 9.02017 17.8891Z" fill="url(#paint1_linear_1200_7120)"/>
<path d="M6.57111 9.28516C6.0475 9.28516 5.57138 9.72753 5.57138 10.4623C5.57138 11.1971 6.0475 11.6383 6.57111 11.6383C7.09596 11.6383 7.57083 11.1959 7.57083 10.4623C7.57083 9.72878 7.10096 9.28516 6.57111 9.28516Z" fill="#422B0D"/>
<path d="M6.52706 9.77733C6.34961 9.69235 6.13592 9.76733 6.04969 9.94478C5.98346 10.0835 6.01345 10.2497 6.12467 10.3572C6.30212 10.4421 6.51581 10.3672 6.60204 10.1897C6.66827 10.051 6.63828 9.8848 6.52706 9.77733Z" fill="#896024"/>
<path d="M11.3689 9.28516C10.8453 9.28516 10.3691 9.72753 10.3691 10.4623C10.3691 11.1971 10.8453 11.6383 11.3689 11.6383C11.8925 11.6383 12.3686 11.1959 12.3686 10.4623C12.3686 9.72878 11.8925 9.28516 11.3689 9.28516Z" fill="#422B0D"/>
<path d="M11.3188 9.77733C11.1413 9.69235 10.9276 9.76733 10.8414 9.94478C10.7752 10.0835 10.8052 10.2497 10.9164 10.3572C11.0938 10.4421 11.3075 10.3672 11.3938 10.1897C11.46 10.051 11.43 9.8848 11.3188 9.77733Z" fill="#896024"/>
<path d="M7.65743 15.9167C7.23879 15.9167 6.8514 15.6992 6.63271 15.3418C6.42277 14.9957 6.44151 14.5558 6.6827 14.2296C7.22005 13.4798 8.04482 13.08 9.06954 13.08C10.0943 13.08 10.919 13.4798 11.4564 14.2296C11.6976 14.5558 11.7163 14.9957 11.5064 15.3418C11.2877 15.6992 10.9003 15.9167 10.4817 15.9167C10.3504 15.9154 10.2192 15.8942 10.0943 15.8542C9.42819 15.638 8.71089 15.638 8.04482 15.8542C7.91986 15.8929 7.78864 15.9142 7.65743 15.9167Z" fill="#422B0D"/>
<path d="M11.493 6.95891H11.4805C11.3542 6.96891 11.243 6.87518 11.2318 6.74897C11.2218 6.62275 11.3155 6.51153 11.4417 6.50029C11.6829 6.46405 11.9291 6.46655 12.1703 6.50654C12.8238 6.60651 13.4149 6.95141 13.8223 7.47252C14.0085 7.72245 13.6799 7.95988 13.4737 7.77243C12.9238 7.28632 12.2265 7.00015 11.493 6.95891Z" fill="#422B0D"/>
<path d="M6.67728 6.95961H6.69602C6.82349 6.96211 6.92721 6.86089 6.92971 6.73343C6.93221 6.61846 6.84723 6.51849 6.73351 6.50224C6.49233 6.466 6.24615 6.4685 6.00496 6.50849C5.35014 6.60721 4.75905 6.95336 4.35166 7.47447C4.16671 7.7244 4.49537 7.96184 4.70032 7.77439C5.25017 7.28952 5.94623 7.0021 6.67728 6.95961Z" fill="#422B0D"/>
<path d="M5.14465 2.29628H5.63755C5.63755 2.29628 7.66216 2.02069 9.03129 2.03286C10.3364 2.04446 12.2553 2.29628 12.2553 2.29628H13.0311C13.8208 3.60082 14.3883 4.94047 14.6485 6.31661C12.0973 5.59052 9.03129 7.12519 9.03129 7.12519C9.03129 7.12519 5.91922 5.61731 3.43872 6.15926C3.83576 4.75055 4.3251 3.47218 5.14465 2.29628Z" fill="#7F2125"/>
<path d="M5.14465 2.29628H5.63755C5.63755 2.29628 7.66216 2.02069 9.03129 2.03286C10.3364 2.04446 12.2553 2.29628 12.2553 2.29628H13.0311M5.14465 2.29628C4.3251 3.47218 3.83576 4.75055 3.43872 6.15926C5.91922 5.61731 9.03129 7.12519 9.03129 7.12519C9.03129 7.12519 12.0973 5.59052 14.6485 6.31661C14.3883 4.94047 13.8208 3.60082 13.0311 2.29628M5.14465 2.29628C5.78578 2.9929 6.69918 2.5553 9.03129 3.09138C11.1428 2.5715 12.1594 3.0274 13.0311 2.29628" stroke="#67211F" stroke-width="0.0582032"/>
<path d="M9.04666 7.10241L9.05415 3.09484C10.6416 2.60676 11.8469 2.98781 13.0378 2.31995C13.5566 3.11792 14.4146 4.61208 14.6553 6.30512C12.5936 5.77402 10.4137 6.47512 9.04666 7.10241Z" fill="#67211F" stroke="#67211F" stroke-width="0.0365292"/>
<path d="M6.32207 2.74799C5.96162 2.50644 5.62345 2.63733 5.63828 2.29041L5.17401 2.30517C5.53588 2.69378 6.07089 2.69276 6.32207 2.74799Z" fill="#67211F"/>
<path d="M11.6886 2.70358C12.0491 2.46446 12.3376 2.61894 12.3227 2.27551H13.0341C12.6722 2.6602 11.9398 2.64891 11.6886 2.70358Z" fill="#67211F" fill-opacity="0.56"/>
<path d="M9.10075 2.3347L9.0198 3.04705L9.16846 3.03678L9.10075 2.3347Z" fill="#67211F" stroke="#67211F" stroke-width="0.0885594"/>
<path d="M7.15405 2.82913C6.89198 2.81447 6.7342 2.79981 6.51755 2.78516C6.38278 4.33495 6.33105 4.7187 6.61185 6.25373C6.99269 6.35349 7.28068 6.44761 7.60944 6.54893C6.83852 5.146 7.05276 4.24473 7.15405 2.82913Z" fill="#D60000" stroke="#67211F" stroke-width="0.0365292"/>
<path d="M6.72724 2.80747L6.53729 2.7926L6.4993 3.07518L6.72724 2.80747Z" fill="#398F00" stroke="#67211F" stroke-width="0.00737995"/>
<path d="M6.41724 3.84816L7.12861 3.02735L7.1361 2.84414L6.72425 2.8075L6.49961 3.07133L6.41724 3.84816Z" fill="#FF7F00" stroke="#67211F" stroke-width="0.00737995"/>
<path d="M6.88183 3.30561C6.88183 3.30561 6.65469 3.05155 6.57481 2.98315L6.49993 3.0711L6.42505 3.8406C6.53487 3.71113 6.88183 3.30561 6.88183 3.30561Z" fill="#D60000" stroke="#67211F" stroke-width="0.00737995"/>
<path d="M7.10133 3.91397C7.1021 3.59771 7.10954 3.40159 7.13128 3.02722L6.4274 3.84069C6.40233 4.16341 6.39635 4.34143 6.38995 4.65415L7.10133 3.91397Z" fill="#007FFF" stroke="#67211F" stroke-width="0.00590396"/>
<path d="M6.9291 4.08985L6.57716 3.66479L6.42739 3.84068C6.40786 4.15911 6.39849 4.3358 6.38995 4.65416L6.9291 4.08985Z" fill="#398F00" stroke="#67211F" stroke-width="0.00590396"/>
<path d="M6.95905 4.82984L6.6146 4.41943L6.38995 4.65395C6.39744 4.98374 6.41991 5.13031 6.4424 5.40147L6.95905 4.82984Z" fill="#D60000" stroke="#67211F" stroke-width="0.00590396"/>
<path d="M6.9264 5.66529L6.58194 5.24756L6.43967 5.40146C6.49957 5.73858 6.51455 5.82652 6.57445 6.07569L6.9264 5.66529Z" fill="#007FFF" stroke="#67211F" stroke-width="0.00590396"/>
<path d="M7.01915 6.36358L6.68054 5.95117L6.5752 6.07637L6.62276 6.24048L7.01915 6.36358Z" fill="#FF7F00" stroke="#67211F" stroke-width="0.00590396"/>
<path d="M7.13641 4.63202C7.10977 4.38566 7.09971 4.23368 7.09897 3.91382L6.61224 4.41949C6.83689 4.68332 6.79196 4.62469 6.9567 4.8299L7.13641 4.63202Z" fill="#FF7F00" stroke="#67211F" stroke-width="0.00590396"/>
<path d="M7.22504 5.31364C7.19508 5.08645 7.15764 4.96919 7.13518 4.6394L6.58105 5.24768C6.80027 5.52752 6.75668 5.46467 6.92551 5.65801L7.22504 5.31364Z" fill="#398F00" stroke="#67211F" stroke-width="0.00590396"/>
<path d="M7.40032 5.96597C7.33293 5.72412 7.29549 5.62152 7.22809 5.31372L6.68146 5.95131C6.85368 6.17117 6.85368 6.17117 7.02591 6.36904L7.40032 5.96597Z" fill="#D60000" stroke="#67211F" stroke-width="0.00590396"/>
<path d="M7.61441 6.53626C7.44134 6.3227 7.45221 6.33328 7.27162 6.10498L7.01294 6.35828C7.33037 6.44171 7.32481 6.43986 7.32481 6.43986L7.61441 6.53626Z" fill="#398F00" stroke="#67211F" stroke-width="0.00590396"/>
<path d="M7.39922 5.96582L7.2713 6.10574L7.60239 6.51815H7.60991L7.39922 5.96582Z" fill="#007FFF" stroke="#67211F" stroke-width="0.00590396"/>
<path d="M7.17515 4.97812L7.13753 4.64673L7.09238 4.69091L7.02466 4.76456L7.17515 4.97812Z" fill="#007FFF" stroke="#67211F" stroke-width="0.00590396"/>
<g filter="url(#filter0_d_1200_7120)">
<path d="M8.12604 3.73329L8.24693 3.54623C8.24693 3.54623 8.37826 4.09486 8.28657 4.44583C8.21366 4.72489 7.94487 5.08905 7.94487 5.08905C7.82183 5.40347 7.82971 5.57592 7.8964 5.88094L7.65106 6.1697C7.65106 6.1697 7.57521 5.76988 7.45264 5.5738C7.27481 5.28931 6.9814 5.36668 6.80046 5.11663C6.53255 4.7464 6.67146 3.96476 6.67146 3.96476L6.88885 4.15317C6.88885 4.15317 7.02059 3.95855 7.14934 3.67926C7.19545 3.57923 7.24117 3.46835 7.28032 3.35165C7.34017 3.17327 7.40681 2.88641 7.40681 2.88641L7.53248 3.14386L7.63354 3.00697C7.63354 3.00697 7.64236 3.2043 7.67965 3.31464C7.76524 3.56788 7.86354 3.66007 8.12604 3.73329Z" fill="url(#paint2_linear_1200_7120)"/>
<path d="M8.12604 3.73329C8.17325 3.66024 8.24693 3.54623 8.24693 3.54623C8.24693 3.54623 8.37826 4.09486 8.28657 4.44583C8.21366 4.72489 7.94487 5.08905 7.94487 5.08905C7.82183 5.40347 7.82971 5.57592 7.8964 5.88095L7.65106 6.1697C7.65106 6.1697 7.57521 5.76988 7.45264 5.5738C7.27481 5.28931 6.9814 5.36668 6.80046 5.11663C6.53255 4.7464 6.67146 3.96476 6.67146 3.96476L6.88885 4.15317M8.12604 3.73329C7.86354 3.66007 7.76524 3.56788 7.67965 3.31464C7.64236 3.2043 7.63354 3.00697 7.63354 3.00697L7.53248 3.14386M8.12604 3.73329C8.11884 3.75976 7.90771 4.21637 7.90771 4.21637C7.90771 4.21637 7.74261 3.89992 7.66837 3.68532M6.88885 4.15317C7.01321 4.29635 7.03192 4.38992 7.06717 4.55582L7.22857 3.96217L7.47483 4.32663L7.51784 3.53329L7.66837 3.68532M6.88885 4.15317C6.88885 4.15317 7.02059 3.95855 7.14934 3.67926C7.19545 3.57923 7.24117 3.46835 7.28032 3.35165C7.34017 3.17327 7.40681 2.88641 7.40681 2.88641L7.53248 3.14386M7.53248 3.14386C7.53248 3.14386 7.59699 3.47899 7.66837 3.68532" stroke="#F8F7FC" stroke-width="0.0365292"/>
</g>
<defs>
<filter id="filter0_d_1200_7120" x="6.61716" y="2.83203" width="1.84718" height="3.49072" filterUnits="userSpaceOnUse" color-interpolation-filters="sRGB">
<feFlood flood-opacity="0" result="BackgroundImageFix"/>
<feColorMatrix in="SourceAlpha" type="matrix" values="0 0 0 0 0 0 0 0 0 0 0 0 0 0 0 0 0 0 127 0" result="hardAlpha"/>
<feOffset dx="0.0737995" dy="0.0590396"/>
<feGaussianBlur stdDeviation="0.0265678"/>
<feComposite in2="hardAlpha" operator="out"/>
<feColorMatrix type="matrix" values="0 0 0 0 0 0 0 0 0 0 0 0 0 0 0 0 0 0 0.25 0"/>
<feBlend mode="normal" in2="BackgroundImageFix" result="effect1_dropShadow_1200_7120"/>
<feBlend mode="normal" in="SourceGraphic" in2="effect1_dropShadow_1200_7120" result="shape"/>
</filter>
<radialGradient id="paint0_radial_1200_7120" cx="0" cy="0" r="1" gradientUnits="userSpaceOnUse" gradientTransform="translate(9.02023 10.9029) scale(7.11802 7.11799)">
<stop offset="0.5" stop-color="#FDE030"/>
<stop offset="0.92" stop-color="#F7C02B"/>
<stop offset="1" stop-color="#F4A223"/>
</radialGradient>
<linearGradient id="paint1_linear_1200_7120" x1="9.02017" y1="17.8891" x2="9.02017" y2="3.91797" gradientUnits="userSpaceOnUse">
<stop offset="0.39" stop-color="#40C0E7" stop-opacity="0"/>
<stop offset="1" stop-color="#5F7AFF"/>
</linearGradient>
<linearGradient id="paint2_linear_1200_7120" x1="7.80875" y1="2.99255" x2="7.01416" y2="6.0015" gradientUnits="userSpaceOnUse">
<stop stop-color="#C9C9C9"/>
<stop offset="1" stop-color="#939297"/>
</linearGradient>
</defs>
</svg>
