<svg width="18" height="18" viewBox="0 0 18 18" fill="none" xmlns="http://www.w3.org/2000/svg">
<path d="M9.02376 15.9025C5.75783 15.9025 2.23438 13.854 2.23438 9.35897C2.23438 4.86394 5.75783 2.81543 9.02376 2.81543C10.8382 2.81543 12.5121 3.41242 13.7529 4.50106C15.0991 5.69505 15.8132 7.38069 15.8132 9.35897C15.8132 11.3372 15.0991 13.0112 13.7529 14.2052C12.5121 15.2938 10.8265 15.9025 9.02376 15.9025Z" fill="url(#paint0_radial_1193_1833)"/>
<path d="M14.6264 5.46924C15.2503 6.47594 15.5757 7.67461 15.5757 9.0079C15.5757 10.9862 14.8617 12.6601 13.5155 13.8541C12.2747 14.9427 10.5891 15.5514 8.78636 15.5514C6.67228 15.5514 4.4552 14.6911 3.14648 12.8661C4.40603 14.9334 6.7753 15.9026 9.02048 15.9026C10.8232 15.9026 12.5088 15.2939 13.7496 14.2053C15.0958 13.0113 15.8099 11.3374 15.8099 9.35907C15.8099 7.86776 15.4037 6.54266 14.6264 5.46924Z" fill="#EB8F00"/>
<path d="M13.8397 11.3163L12.4819 10.9651C12.2314 10.8995 11.9762 11.0494 11.9106 11.2999C11.9036 11.328 11.8989 11.3561 11.8966 11.3842L11.831 12.2563L11.0596 11.8161C10.8348 11.6885 10.5492 11.7658 10.4205 11.9905C10.4099 12.0093 10.4006 12.0292 10.3924 12.0502L10.081 12.8509L9.46994 12.1333C9.37864 12.0256 9.24402 11.9659 9.10355 11.9683H9.07078H9.03917C8.8987 11.9659 8.76408 12.0256 8.67278 12.1333L8.06173 12.8509L7.74684 12.0526C7.65203 11.8126 7.37928 11.6944 7.13931 11.7904C7.11941 11.7986 7.09951 11.8079 7.07961 11.8185L6.30351 12.2586L6.23796 11.3865C6.21923 11.129 5.99448 10.9347 5.73695 10.9534C5.70886 10.9557 5.68076 10.9604 5.65267 10.9674L4.29479 11.3186C4.04194 11.3736 3.88157 11.623 3.93659 11.8758C3.99161 12.1287 4.24094 12.289 4.49379 12.234C4.5055 12.2317 4.5172 12.2282 4.52774 12.2246L5.34715 12.0139L5.42558 13.0675C5.44313 13.325 5.66672 13.5205 5.92542 13.5017C5.99682 13.4971 6.06589 13.476 6.12793 13.4397L7.0761 12.9024L7.47527 13.9278C7.53497 14.0812 7.67076 14.1924 7.83347 14.2193C7.85922 14.224 7.88614 14.2263 7.9119 14.2263C8.04768 14.2252 8.17528 14.1643 8.26307 14.0613L9.09185 13.092L9.12696 13.1845L9.87263 14.0519C9.96042 14.1549 10.088 14.2158 10.2238 14.217C10.2496 14.217 10.2765 14.2146 10.3022 14.2099C10.4649 14.183 10.6007 14.0718 10.6604 13.9185L11.0596 12.893L12.0078 13.4303C12.2314 13.5603 12.5181 13.4842 12.6481 13.2606C12.6844 13.1986 12.7054 13.1295 12.7101 13.0581L12.7886 12.0046L13.608 12.2153C13.8561 12.289 14.1172 12.1486 14.1909 11.9016C14.2647 11.6534 14.1242 11.3924 13.8772 11.3186C13.8655 11.3151 13.8538 11.3128 13.8432 11.3093L13.8397 11.3163Z" fill="#422B0D"/>
<path d="M5.5575 8.71256L6.98678 8.43162L5.5177 7.82643L5.46853 7.79951C5.22856 7.67309 5.13726 7.37693 5.26368 7.13696C5.29412 7.0796 5.33509 7.02927 5.38425 6.9883C5.61837 6.80803 5.94028 6.79398 6.18961 6.95318L8.67945 8.47494C8.74032 8.49718 8.77075 8.56507 8.74851 8.62477C8.73329 8.66574 8.697 8.695 8.65369 8.70086L5.97188 9.70756C5.95433 9.71458 5.93443 9.72043 5.9157 9.72628C5.56452 9.82461 5.17472 9.6221 5.12087 9.28381C5.07873 9.02979 5.27773 8.79099 5.5575 8.71256Z" fill="#422B0D"/>
<path d="M12.8903 8.68473L11.4657 8.40847L12.9313 7.7986L12.9793 7.77168C13.2193 7.64526 13.3117 7.3491 13.1853 7.10913C13.1549 7.05177 13.1139 7.00144 13.0647 6.96047C12.8306 6.7802 12.5087 6.76615 12.2594 6.92535L9.77072 8.45179C9.70985 8.47403 9.67824 8.54075 9.70048 8.60162C9.7157 8.64259 9.75199 8.67185 9.7953 8.67771L12.4771 9.68441L12.5345 9.70313C12.8856 9.80146 13.2743 9.59895 13.3293 9.26066C13.3738 9.00196 13.1736 8.76316 12.8903 8.68473Z" fill="#422B0D"/>
<path d="M8.33092 9.55883C6.37955 10.8032 3.97166 11.0829 2.30241 11.4236C2.08234 11.468 1.95123 11.7888 2.1198 12.2734C2.43937 13.1982 3.04807 13.1829 2.88419 13.6125C2.39957 14.885 3.38754 15.4328 4.2409 15.448C5.39509 15.4703 5.28389 15.8554 5.76266 16.2311C6.22035 16.5893 6.77638 16.3412 6.77638 16.3412C8.92206 15.0407 9.74967 12.0756 9.7485 10.6404C9.74732 9.53893 8.92323 9.18073 8.33092 9.55883Z" fill="#F5F5F5"/>
<path d="M2.29959 11.4223C2.21765 11.4492 2.1521 11.5112 2.12166 11.592C2.09123 11.6658 2.07718 11.7465 2.08069 11.8261C2.08654 11.99 2.12634 12.1516 2.19775 12.3002C2.26213 12.4512 2.34641 12.594 2.44708 12.724C2.55361 12.8516 2.67067 12.9686 2.79826 13.0751C2.87669 13.1384 2.94341 13.2133 2.99609 13.2987C3.01014 13.3268 3.02184 13.3561 3.03121 13.3853C3.0394 13.417 3.04408 13.4486 3.04525 13.4813C3.04525 13.5118 3.04291 13.5434 3.03823 13.5738L3.01716 13.6569L2.95395 13.891C2.9399 13.9683 2.93054 14.0467 2.92468 14.1252C2.91298 14.2715 2.93288 14.419 2.98204 14.5583C3.03472 14.6894 3.119 14.8064 3.22552 14.8989C3.33673 14.9961 3.46549 15.071 3.60362 15.1213C3.74526 15.1775 3.8951 15.2126 4.04727 15.2255C4.0859 15.2313 4.1257 15.2337 4.16433 15.2337H4.28139C4.37153 15.2337 4.46049 15.2337 4.55297 15.2454C4.74728 15.2559 4.93809 15.2981 5.11953 15.3695C5.21903 15.4116 5.3115 15.4666 5.39579 15.5345C5.4707 15.5989 5.53977 15.6691 5.60298 15.7452C5.69546 15.8658 5.80315 15.9735 5.92489 16.066C6.0279 16.1385 6.14964 16.1819 6.27607 16.1912C6.34396 16.1959 6.41185 16.1924 6.47975 16.1819C6.51369 16.1819 6.54881 16.169 6.58159 16.1608C6.61436 16.1526 6.65299 16.1385 6.67055 16.1327L6.6448 16.1456C7.09665 15.8646 7.50401 15.5158 7.8505 15.1119C7.89498 15.0604 7.94064 15.0124 7.98278 14.9598L8.09984 14.7982L8.21689 14.6379C8.25669 14.5828 8.29064 14.5208 8.33395 14.4693C8.40887 14.3522 8.4873 14.2469 8.55285 14.1275C8.6184 14.0081 8.69449 13.8934 8.75302 13.7763C9.00821 13.2917 9.22009 12.786 9.38631 12.2639C9.55955 11.7383 9.67778 11.1952 9.73748 10.645C9.76675 11.2069 9.71875 11.7688 9.59467 12.3178C9.56658 12.4559 9.53029 12.5917 9.49634 12.7286C9.4624 12.8656 9.4144 12.9991 9.37928 13.1348C9.34417 13.2706 9.28447 13.4006 9.23764 13.534C9.19082 13.6675 9.12058 13.795 9.07142 13.9262C9.02226 14.0573 8.94617 14.1813 8.88413 14.3101C8.82209 14.4389 8.74717 14.5594 8.67459 14.6835C8.6383 14.7444 8.60202 14.8006 8.56339 14.8661L8.43931 15.0429L8.32225 15.2185C8.27894 15.2758 8.23094 15.3355 8.18646 15.387C7.82592 15.8424 7.39046 16.2322 6.89882 16.5424L6.88594 16.5494H6.87306C6.82273 16.5705 6.77122 16.588 6.71855 16.6033C6.66938 16.6161 6.62022 16.6278 6.56988 16.636C6.46804 16.6536 6.36503 16.6595 6.26202 16.6536C6.1555 16.6466 6.05014 16.6267 5.94947 16.5927C5.84763 16.5564 5.75164 16.5061 5.66385 16.4429C5.5105 16.327 5.37237 16.1924 5.25532 16.0402C5.21083 15.984 5.1605 15.9314 5.10782 15.8834C5.05866 15.8436 5.00364 15.8096 4.94511 15.785C4.80698 15.7324 4.66066 15.6984 4.51317 15.6867C4.43591 15.6762 4.35397 15.6727 4.27203 15.668L4.13741 15.6586C4.09058 15.6586 4.04376 15.6516 3.99694 15.6434C3.80847 15.6176 3.62469 15.5673 3.45028 15.4924C3.26883 15.4186 3.10261 15.3109 2.96214 15.174C2.81816 15.0324 2.7093 14.8591 2.64608 14.6671C2.5899 14.4775 2.57468 14.2785 2.60043 14.0818C2.61331 13.9917 2.63204 13.9039 2.65662 13.8161C2.68588 13.7307 2.71983 13.6417 2.7491 13.5609C2.77251 13.5188 2.77719 13.4673 2.75963 13.4216C2.72568 13.3573 2.68237 13.2987 2.63087 13.2484C2.50444 13.1231 2.39207 12.985 2.29491 12.8352C2.19892 12.6842 2.124 12.5203 2.0725 12.3494C2.01397 12.1808 1.99056 12.0029 2.00343 11.8261C2.01163 11.736 2.04089 11.6494 2.08772 11.5721C2.1322 11.4925 2.21063 11.4387 2.29959 11.4223Z" fill="#BDBDBD"/>
<path d="M5.14842 12.6214C4.81481 12.7045 4.47534 12.7642 4.13353 12.7981C3.96145 12.804 3.8163 12.6682 3.81045 12.4961C3.80576 12.3404 3.9158 12.2047 4.07032 12.1777C5.56398 12.0256 6.29443 11.72 7.50949 10.9182C7.84662 10.7005 8.16034 10.45 8.44596 10.1678C8.15448 10.7707 7.72254 11.2951 7.18641 11.6978C6.59761 12.1438 5.96549 12.413 5.14842 12.6214Z" fill="#B3B3B3"/>
<path d="M6.51953 14.1532C6.3896 14.193 6.24913 14.1404 6.17772 14.0245C6.08524 13.8817 6.1227 13.6909 6.26083 13.5925C6.93977 13.1606 7.52623 12.5975 7.98393 11.935C8.20868 11.6014 8.5423 10.9985 8.5423 10.9985C8.5025 11.3403 8.43344 11.6775 8.33394 12.0064C7.9254 13.2905 6.80749 14.0619 6.51953 14.1532Z" fill="#B3B3B3"/>
<path d="M4.80516 2.27137H5.34366C5.34366 2.27137 7.55557 1.98789 9.05137 2.0004C10.4772 2.01233 12.5737 2.27137 12.5737 2.27137H13.4212C14.2839 3.61328 14.904 4.99132 15.1882 6.40688C12.4011 5.65999 9.05137 7.23863 9.05137 7.23863C9.05137 7.23863 5.65139 5.68755 2.94141 6.24503C3.37518 4.79596 3.90979 3.48096 4.80516 2.27137Z" fill="#7F2125"/>
<path d="M4.80516 2.27137H5.34366C5.34366 2.27137 7.55557 1.98789 9.05137 2.0004C10.4772 2.01233 12.5737 2.27137 12.5737 2.27137H13.4212M4.80516 2.27137C3.90979 3.48096 3.37518 4.79596 2.94141 6.24503C5.65139 5.68755 9.05137 7.23863 9.05137 7.23863C9.05137 7.23863 12.4011 5.65999 15.1882 6.40688C14.904 4.99132 14.2839 3.61328 13.4212 2.27137M4.80516 2.27137C5.5056 2.98795 6.50351 2.53781 9.05137 3.08925C11.3582 2.55447 12.4689 3.02344 13.4212 2.27137" stroke="#67211F" stroke-width="0.065961"/>
<path d="M9.06815 7.21551L9.07633 3.09312C10.8107 2.59105 12.1274 2.98302 13.4286 2.29602C13.9953 3.11686 14.9327 4.65382 15.1956 6.39537C12.9432 5.84906 10.5617 6.57024 9.06815 7.21551Z" fill="#67211F" stroke="#67211F" stroke-width="0.0413981"/>
<path d="M6.09216 2.73632C5.69837 2.48785 5.32891 2.62249 5.34511 2.26562L4.83789 2.28081C5.23324 2.68055 5.81775 2.67951 6.09216 2.73632Z" fill="#67211F"/>
<path d="M11.9539 2.69131C12.3476 2.44534 12.6628 2.60424 12.6466 2.25098H13.4238C13.0285 2.64669 12.2283 2.63507 11.9539 2.69131Z" fill="#67211F" fill-opacity="0.56"/>
<path d="M9.12685 2.31193L9.03841 3.04469L9.20083 3.03413L9.12685 2.31193Z" fill="#67211F" stroke="#67211F" stroke-width="0.100363"/>
<path d="M7.00208 2.82013C6.71577 2.80506 6.54339 2.78998 6.3067 2.7749C6.15946 4.36909 6.10294 4.76385 6.40972 6.34285C6.8258 6.44547 7.14043 6.54228 7.4996 6.64651C6.65736 5.20338 6.89142 4.2763 7.00208 2.82013Z" fill="#D60000" stroke="#67211F" stroke-width="0.0413981"/>
<path d="M6.53254 2.79779L6.32801 2.78271L6.28711 3.06918L6.53254 2.79779Z" fill="#398F00" stroke="#67211F" stroke-width="0.00836361"/>
<path d="M6.19531 3.86882L6.9725 3.0245L6.98068 2.83603L6.53073 2.79834L6.2853 3.06973L6.19531 3.86882Z" fill="#FF7F00" stroke="#67211F" stroke-width="0.00836361"/>
<path d="M6.70198 3.31021C6.70198 3.31021 6.45382 3.04888 6.36656 2.97852L6.28475 3.06898L6.20294 3.86053C6.32293 3.72735 6.70198 3.31021 6.70198 3.31021Z" fill="#D60000" stroke="#67211F" stroke-width="0.00836361"/>
<path d="M6.9432 3.93608C6.94404 3.61076 6.95218 3.40902 6.97593 3.02393L6.20692 3.8607C6.17953 4.19266 6.173 4.37579 6.16602 4.69747L6.9432 3.93608Z" fill="#007FFF" stroke="#67211F" stroke-width="0.00669088"/>
<path d="M6.75504 4.11741L6.37054 3.68018L6.20692 3.8611C6.18558 4.18865 6.17534 4.3704 6.16602 4.69789L6.75504 4.11741Z" fill="#398F00" stroke="#67211F" stroke-width="0.00669088"/>
<path d="M6.78776 4.8787L6.41144 4.45654L6.16602 4.69778C6.1742 5.03701 6.19874 5.18779 6.22331 5.46671L6.78776 4.8787Z" fill="#D60000" stroke="#67211F" stroke-width="0.00669088"/>
<path d="M6.75457 5.73781L6.37825 5.30811L6.22281 5.46642C6.28826 5.81319 6.30462 5.90365 6.37007 6.15997L6.75457 5.73781Z" fill="#007FFF" stroke="#67211F" stroke-width="0.00669088"/>
<path d="M6.84986 6.4539L6.48172 6.03174L6.36719 6.15989L6.4189 6.32789L6.84986 6.4539Z" fill="#FF7F00" stroke="#67211F" stroke-width="0.00669088"/>
<path d="M6.98282 4.67433C6.95371 4.42091 6.94272 4.26458 6.94192 3.93555L6.41016 4.45571C6.65558 4.7271 6.6065 4.66679 6.78648 4.87787L6.98282 4.67433Z" fill="#FF7F00" stroke="#67211F" stroke-width="0.00669088"/>
<path d="M7.08051 5.37617C7.04779 5.14247 7.00688 5.02185 6.98234 4.68262L6.37695 5.30832C6.61645 5.59618 6.56882 5.53153 6.75328 5.73041L7.08051 5.37617Z" fill="#398F00" stroke="#67211F" stroke-width="0.00669088"/>
<path d="M7.26584 6.04691C7.19221 5.79814 7.1513 5.6926 7.07768 5.37598L6.48047 6.03183C6.66863 6.25799 6.66863 6.25799 6.85679 6.46153L7.26584 6.04691Z" fill="#D60000" stroke="#67211F" stroke-width="0.00669088"/>
<path d="M7.49963 6.63192C7.31147 6.4133 7.32328 6.42413 7.12694 6.19043L6.8457 6.44972C7.19082 6.53512 7.18477 6.53323 7.18477 6.53323L7.49963 6.63192Z" fill="#398F00" stroke="#67211F" stroke-width="0.00669088"/>
<path d="M7.26993 6.04688L7.13086 6.19011L7.49082 6.61227H7.499L7.26993 6.04688Z" fill="#007FFF" stroke="#67211F" stroke-width="0.00669088"/>
<path d="M7.02104 5.02918L6.98014 4.68994L6.93105 4.73517L6.85742 4.81056L7.02104 5.02918Z" fill="#007FFF" stroke="#67211F" stroke-width="0.00669088"/>
<g filter="url(#filter0_d_1193_1833)">
<path d="M8.05893 3.74981L8.191 3.55739C8.191 3.55739 8.33449 4.12174 8.23432 4.48276C8.15466 4.76982 7.861 5.14441 7.861 5.14441C7.72658 5.46784 7.73518 5.64523 7.80804 5.959L7.54001 6.25602C7.54001 6.25602 7.45714 5.84475 7.32323 5.64305C7.12895 5.35041 6.8084 5.43 6.61072 5.17278C6.31803 4.79195 6.46978 3.98792 6.46978 3.98792L6.70728 4.18172C6.70728 4.18172 6.85121 3.98153 6.99187 3.69423C7.04224 3.59134 7.0922 3.47728 7.13497 3.35724C7.20036 3.17374 7.27316 2.87867 7.27316 2.87867L7.41046 3.14349L7.52087 3.00268C7.52087 3.00268 7.5305 3.20566 7.57124 3.31916C7.66476 3.57966 7.77215 3.6745 8.05893 3.74981Z" fill="url(#paint1_linear_1193_1833)"/>
<path d="M8.05893 3.74981C8.11051 3.67467 8.191 3.55739 8.191 3.55739C8.191 3.55739 8.33449 4.12174 8.23432 4.48276C8.15466 4.76982 7.861 5.14441 7.861 5.14441C7.72658 5.46784 7.73518 5.64523 7.80804 5.959L7.54001 6.25602C7.54001 6.25602 7.45714 5.84475 7.32323 5.64305C7.12895 5.35041 6.8084 5.43 6.61072 5.17278C6.31803 4.79195 6.46979 3.98792 6.46979 3.98792L6.70728 4.18172M8.05893 3.74981C7.77215 3.6745 7.66476 3.57966 7.57124 3.31916C7.5305 3.20566 7.52087 3.00268 7.52087 3.00268L7.41046 3.14349M8.05893 3.74981C8.05107 3.77704 7.82041 4.24674 7.82041 4.24674C7.82041 4.24674 7.64003 3.92121 7.55892 3.70047M6.70728 4.18172C6.84315 4.329 6.86359 4.42526 6.9021 4.59591L7.07843 3.98525L7.34747 4.36015L7.39447 3.54408L7.55892 3.70047M6.70728 4.18172C6.70728 4.18172 6.85121 3.98153 6.99187 3.69423C7.04224 3.59134 7.0922 3.47728 7.13497 3.35724C7.20036 3.17374 7.27316 2.87867 7.27316 2.87867L7.41046 3.14349M7.41046 3.14349C7.41046 3.14349 7.48094 3.48822 7.55892 3.70047" stroke="#F8F7FC" stroke-width="0.0413981"/>
</g>
<defs>
<filter id="filter0_d_1193_1833" x="6.40958" y="2.8197" width="2.02502" height="3.60772" filterUnits="userSpaceOnUse" color-interpolation-filters="sRGB">
<feFlood flood-opacity="0" result="BackgroundImageFix"/>
<feColorMatrix in="SourceAlpha" type="matrix" values="0 0 0 0 0 0 0 0 0 0 0 0 0 0 0 0 0 0 127 0" result="hardAlpha"/>
<feOffset dx="0.0836361" dy="0.0669089"/>
<feGaussianBlur stdDeviation="0.030109"/>
<feComposite in2="hardAlpha" operator="out"/>
<feColorMatrix type="matrix" values="0 0 0 0 0 0 0 0 0 0 0 0 0 0 0 0 0 0 0.25 0"/>
<feBlend mode="normal" in2="BackgroundImageFix" result="effect1_dropShadow_1193_1833"/>
<feBlend mode="normal" in="SourceGraphic" in2="effect1_dropShadow_1193_1833" result="shape"/>
</filter>
<radialGradient id="paint0_radial_1193_1833" cx="0" cy="0" r="1" gradientUnits="userSpaceOnUse" gradientTransform="translate(9.02376 9.35896) scale(6.66761 6.66758)">
<stop offset="0.5" stop-color="#FDE030"/>
<stop offset="0.92" stop-color="#F7C02B"/>
<stop offset="1" stop-color="#F4A223"/>
</radialGradient>
<linearGradient id="paint1_linear_1193_1833" x1="7.71229" y1="2.98785" x2="6.93697" y2="6.10608" gradientUnits="userSpaceOnUse">
<stop stop-color="#C9C9C9"/>
<stop offset="1" stop-color="#939297"/>
</linearGradient>
</defs>
</svg>
