<svg width="18" height="18" viewBox="0 0 18 18" fill="none" xmlns="http://www.w3.org/2000/svg">
<path d="M8.94174 16.8926C5.4552 16.8926 1.69373 14.7057 1.69373 9.90707C1.69373 5.1084 5.4552 2.92151 8.94174 2.92151C10.8787 2.92151 12.6657 3.55883 13.9904 4.72101C15.4275 5.99565 16.1898 7.79515 16.1898 9.90707C16.1898 12.019 15.4275 13.806 13.9904 15.0806C12.6657 16.2428 10.8662 16.8926 8.94174 16.8926Z" fill="url(#paint0_radial_1200_6744)"/>
<path d="M14.9272 5.75439C15.5933 6.8291 15.9407 8.10874 15.9407 9.5321C15.9407 11.644 15.1784 13.431 13.7413 14.7057C12.4166 15.8678 10.6171 16.5177 8.69267 16.5177C6.43578 16.5177 4.06893 15.5992 2.67181 13.651C4.01645 15.8578 6.54575 16.8926 8.9426 16.8926C10.8671 16.8926 12.6666 16.2427 13.9912 15.0806C15.4283 13.8059 16.1906 12.0189 16.1906 9.90699C16.1906 8.31493 15.757 6.90033 14.9272 5.75439Z" fill="#EB8F00"/>
<path d="M11.4805 13.3806C11.4318 13.3793 11.3855 13.3668 11.343 13.3431C10.627 12.9382 9.81596 12.7308 8.99369 12.7433C8.17141 12.737 7.36289 12.9432 6.64433 13.3431C6.60684 13.3668 6.5631 13.3793 6.51937 13.3806C6.41939 13.3768 6.32817 13.3194 6.28193 13.2306C6.24319 13.1394 6.25819 13.0332 6.31942 12.9557C7.61407 11.4786 9.86095 11.3312 11.338 12.6258C11.4555 12.7283 11.5655 12.8382 11.668 12.9557C11.7604 13.0657 11.7454 13.2281 11.6367 13.3206C11.593 13.3568 11.538 13.3781 11.4805 13.3806Z" fill="#35220B"/>
<path d="M10.2294 8.30668C10.2394 8.30793 10.2481 8.31168 10.2544 8.31918C10.2681 8.32043 10.2781 8.33042 10.2794 8.34417C10.2919 8.34417 10.2919 8.34417 10.3044 8.35667C10.3331 8.37166 10.3619 8.38416 10.3919 8.39416L10.5043 8.43165C10.6068 8.46539 10.7105 8.49038 10.8167 8.50662C10.8792 8.51912 10.9417 8.51912 11.0042 8.53162C11.0704 8.54161 11.1366 8.54661 11.2041 8.54411H11.4041C11.4678 8.54161 11.5303 8.53412 11.5915 8.51912C11.7165 8.49413 11.8165 8.46913 11.9039 8.44414C11.9914 8.41915 12.0539 8.38166 12.1039 8.36916C12.1314 8.36291 12.1576 8.35042 12.1789 8.33167L12.2413 8.30668C12.4213 8.21296 12.6425 8.28044 12.7412 8.45664C12.8124 8.5891 12.7974 8.75156 12.7037 8.86902C12.6937 8.88027 12.685 8.89277 12.6787 8.90651C12.6575 8.939 12.6325 8.969 12.6037 8.99399C12.5088 9.08896 12.4038 9.17269 12.2913 9.24392C12.1364 9.31015 11.9777 9.36889 11.8165 9.41887C11.7215 9.44511 11.6265 9.46636 11.529 9.48135C11.4791 9.48135 11.4291 9.49385 11.3666 9.49385H11.2166C11.1167 9.49135 11.0167 9.48385 10.9167 9.46886C10.8192 9.45511 10.723 9.43387 10.6293 9.40637C10.4568 9.36139 10.2931 9.28891 10.1419 9.19393C10.0669 9.15644 10.017 9.10646 9.95447 9.06897C9.90574 9.03023 9.8595 8.98899 9.81701 8.944L9.76702 8.89402C9.75453 8.88152 9.75453 8.86902 9.74203 8.86902L9.71704 8.84403C9.59332 8.67783 9.62581 8.44289 9.79202 8.31918C9.92448 8.2342 10.0932 8.2292 10.2294 8.30668Z" fill="#35220B"/>
<path d="M5.63206 8.30803C5.64206 8.30928 5.65081 8.31303 5.65705 8.32052C5.6708 8.32177 5.6808 8.33177 5.68205 8.34552C5.69454 8.34552 5.69454 8.34552 5.70704 8.35801C5.73578 8.37301 5.76452 8.38551 5.79452 8.3955L5.90699 8.43299C6.00946 8.46673 6.11318 8.49173 6.2194 8.50797C6.28188 8.52047 6.34437 8.52047 6.40685 8.53297C6.47308 8.54421 6.53931 8.54796 6.60679 8.54546H6.80674C6.87047 8.54296 6.93295 8.53546 6.99419 8.52047C7.11915 8.49548 7.21913 8.47048 7.3066 8.44549C7.39408 8.4205 7.45656 8.38301 7.50655 8.37051C7.53404 8.36426 7.56028 8.35177 7.58153 8.33302L7.64401 8.30803C7.82396 8.2143 8.04515 8.28179 8.14387 8.45799C8.2151 8.59045 8.20011 8.7529 8.10638 8.87037C8.09639 8.88162 8.08764 8.89412 8.08139 8.90786C8.06015 8.94035 8.03515 8.97034 8.00641 8.99534C7.91394 9.09281 7.80896 9.17654 7.694 9.24527C7.53904 9.34024 7.37033 9.41272 7.19413 9.45771C7.09916 9.48395 7.00418 9.5052 6.90671 9.52019C6.85673 9.52019 6.80674 9.53269 6.74426 9.53269H6.5943C6.49432 9.53019 6.39435 9.52269 6.29438 9.50769C6.19691 9.49395 6.10068 9.4727 6.00696 9.44521C5.83201 9.39773 5.6633 9.32649 5.50709 9.23277C5.44461 9.19528 5.38213 9.1453 5.31965 9.10781C5.27091 9.06907 5.22467 9.02783 5.18218 8.98284L5.1322 8.93285C5.1197 8.92036 5.1197 8.90786 5.1072 8.90786L5.08221 8.88287C4.95849 8.71666 4.99099 8.48173 5.15719 8.35801C5.28965 8.24555 5.47835 8.22555 5.63206 8.30803Z" fill="#35220B"/>
<path d="M1.71589 13.5429C1.81586 13.4229 1.83085 13.2542 1.75338 13.118C1.58342 12.8281 1.53469 12.482 1.61966 12.1558C1.75338 11.5997 2.23574 11.1986 2.80684 11.1686H2.88182C3.09551 11.1698 3.30545 11.2236 3.49415 11.3248C3.6941 11.4397 3.87155 11.5934 4.01401 11.7746C4.45389 11.5922 6.32588 10.8999 6.80949 10.7212H6.81699L5.53484 13.4392C6.11468 13.8678 6.23715 14.6863 5.80852 15.2662C5.57983 15.5761 5.22493 15.7685 4.84003 15.7923H4.7638C4.45889 15.7948 4.16272 15.6886 3.92778 15.4924C3.8578 15.4349 3.76907 15.4036 3.67785 15.4049C3.60287 15.4061 3.52914 15.4274 3.46541 15.4674C3.24672 15.6123 2.98929 15.6911 2.72686 15.6923C2.62564 15.6923 2.52566 15.6798 2.42819 15.6548C1.8646 15.5274 1.45346 15.0437 1.41472 14.4677C1.38973 14.1315 1.49845 13.7991 1.71589 13.5429Z" fill="white"/>
<path d="M6.81083 10.7195L4.88885 13.255L5.53243 13.44L6.81083 10.7195Z" fill="#92CBEB"/>
<path d="M4.95 13.2123C4.90251 13.2148 4.86627 13.2535 4.86877 13.301C4.87002 13.3322 4.88877 13.3597 4.91626 13.3735C5.17369 13.4859 5.35989 13.7159 5.41612 13.9908C5.46861 14.2807 5.39113 14.6556 5.16619 14.8656C4.94125 15.0755 4.56885 15.1155 4.28268 15.0405C3.99651 14.9655 3.65785 14.6656 3.43666 14.4419C3.39918 14.4032 3.33669 14.4019 3.2967 14.4394C3.28046 14.4544 3.27046 14.4744 3.26796 14.4969C3.25546 14.6169 3.26546 14.7381 3.30045 14.8531C3.31795 14.9668 2.73686 15.4042 2.07829 15.0518C1.14229 14.5444 1.88334 13.4822 1.77712 13.4409C1.76212 13.4784 1.74213 13.5134 1.71589 13.5447C1.49845 13.8008 1.38973 14.1333 1.41472 14.4694C1.45346 15.0455 1.8646 15.5291 2.42819 15.6566C2.52566 15.6816 2.62564 15.6941 2.72686 15.6941C2.98929 15.6928 3.24672 15.6141 3.46541 15.4691C3.52914 15.4291 3.60287 15.4079 3.67785 15.4067C3.76907 15.4054 3.8578 15.4366 3.92778 15.4941C4.16272 15.6903 4.45888 15.7965 4.7638 15.794H4.84003C5.55983 15.7491 6.10718 15.1292 6.06095 14.4094C6.0372 14.0245 5.84351 13.6709 5.53484 13.4409L5.61107 13.2772C5.39613 13.2148 5.17244 13.1935 4.95 13.2123Z" fill="#92CBEB"/>
<path d="M1.62055 12.1567C1.53683 12.4828 1.58681 12.829 1.75802 13.1189C1.8105 13.2176 1.81925 13.3338 1.78176 13.4388C1.93922 13.3213 2.04544 13.1476 2.08043 12.954C2.09292 12.7428 2.06918 12.5316 2.00795 12.3291C1.95171 12.1579 1.96171 11.973 2.03669 11.8093C2.1729 11.4831 2.58029 11.2932 2.61528 11.2794C2.70026 11.2444 2.71775 11.2057 2.714 11.1794C2.18165 11.2457 1.74552 11.6356 1.62055 12.1567Z" fill="#92CBEB"/>
<path d="M16.2677 13.5429C16.1678 13.4229 16.1528 13.2542 16.2302 13.118C16.4014 12.8281 16.4514 12.482 16.3677 12.1558C16.234 11.5997 15.7516 11.1986 15.1805 11.1686H15.1055C14.8906 11.1686 14.6782 11.2223 14.4895 11.3248C14.2895 11.4397 14.1121 11.5934 13.9696 11.7746C13.5297 11.5922 11.6577 10.8999 11.1741 10.7212H11.1666L12.4488 13.4392C11.8689 13.8678 11.7465 14.6863 12.1751 15.2662C12.4038 15.5761 12.7587 15.7685 13.1436 15.7923H13.2198C13.5247 15.7948 13.8209 15.6886 14.0558 15.4924C14.1258 15.4349 14.2145 15.4036 14.3058 15.4049C14.3807 15.4061 14.4545 15.4274 14.5182 15.4674C14.7369 15.6123 14.9943 15.6911 15.2568 15.6923C15.358 15.6923 15.458 15.6798 15.5554 15.6548C16.119 15.5274 16.5302 15.0437 16.5689 14.4677C16.5939 14.1315 16.4852 13.7991 16.2677 13.5429Z" fill="white"/>
<path d="M11.1705 10.7195L13.0912 13.255L12.4489 13.44L11.1705 10.7195Z" fill="#92CBEB"/>
<path d="M13.0353 13.2119C13.0828 13.2144 13.1191 13.2531 13.1166 13.3006C13.1153 13.3318 13.0966 13.3593 13.0691 13.3731C12.8116 13.4855 12.6254 13.7155 12.5692 13.9904C12.5167 14.2803 12.5942 14.6552 12.8191 14.8651C13.0441 15.0751 13.4165 15.1151 13.7027 15.0401C13.9888 14.9651 14.3275 14.6652 14.5487 14.4415C14.5862 14.4028 14.6486 14.4015 14.6886 14.439C14.7049 14.454 14.7149 14.474 14.7174 14.4965C14.7299 14.6165 14.7199 14.7377 14.6849 14.8527C14.6674 14.9664 15.2485 15.4038 15.9071 15.0513C16.8455 14.5515 16.1045 13.488 16.2107 13.4468C16.2257 13.4843 16.2457 13.5193 16.272 13.5505C16.4894 13.8067 16.5981 14.1391 16.5731 14.4753C16.5344 15.0513 16.1232 15.535 15.5596 15.6624C15.4622 15.6874 15.3622 15.6999 15.261 15.6999C14.9985 15.6987 14.7411 15.6199 14.5224 15.475C14.4587 15.435 14.385 15.4137 14.31 15.4125C14.2188 15.4112 14.13 15.4425 14.0601 15.5C13.8251 15.6962 13.529 15.8024 13.224 15.7999H13.1478C12.428 15.7549 11.8807 15.1351 11.9269 14.4153C11.9506 14.0304 12.1443 13.6767 12.453 13.4468L12.3768 13.2831C12.5905 13.2194 12.8129 13.1956 13.0353 13.2119Z" fill="#92CBEB"/>
<path d="M16.3641 12.1567C16.4478 12.4828 16.3979 12.829 16.2267 13.1189C16.1742 13.2176 16.1654 13.3338 16.2029 13.4388C16.0455 13.3213 15.9392 13.1476 15.9042 12.954C15.8918 12.7428 15.9155 12.5316 15.9767 12.3291C16.033 12.1579 16.023 11.973 15.948 11.8093C15.8118 11.4831 15.4044 11.2932 15.3694 11.2794C15.2844 11.2444 15.2669 11.2057 15.2707 11.1794C15.803 11.2457 16.2392 11.6356 16.3641 12.1567Z" fill="#92CBEB"/>
<path d="M5.09988 1.30043H5.59278C5.59278 1.30043 7.61739 1.02484 8.98652 1.03701C10.2916 1.04861 12.2106 1.30043 12.2106 1.30043H12.9863C13.776 2.60497 14.3435 3.94463 14.6037 5.32076C12.0525 4.59468 8.98652 6.12934 8.98652 6.12934C8.98652 6.12934 5.87445 4.62146 3.39395 5.16341C3.79099 3.7547 4.28034 2.47633 5.09988 1.30043Z" fill="#7F2125"/>
<path d="M5.09988 1.30043H5.59278C5.59278 1.30043 7.61739 1.02484 8.98652 1.03701C10.2916 1.04861 12.2106 1.30043 12.2106 1.30043H12.9863M5.09988 1.30043C4.28034 2.47633 3.79099 3.7547 3.39395 5.16341C5.87445 4.62146 8.98652 6.12935 8.98652 6.12935C8.98652 6.12935 12.0525 4.59468 14.6037 5.32076C14.3435 3.94463 13.776 2.60497 12.9863 1.30043M5.09988 1.30043C5.74101 1.99705 6.65441 1.55945 8.98652 2.09553C11.098 1.57565 12.1146 2.03155 12.9863 1.30043" stroke="#67211F" stroke-width="0.0582032"/>
<path d="M9.00385 6.10656L9.01133 2.09899C10.5988 1.61091 11.8041 1.99196 12.995 1.3241C13.5138 2.12207 14.3718 3.61623 14.6125 5.30927C12.5508 4.77817 10.3709 5.47927 9.00385 6.10656Z" fill="#67211F" stroke="#67211F" stroke-width="0.0365292"/>
<path d="M6.27934 1.75202C5.9189 1.51047 5.58072 1.64136 5.59555 1.29443L5.13129 1.30919C5.49316 1.69781 6.02817 1.69679 6.27934 1.75202Z" fill="#67211F"/>
<path d="M11.6459 1.70785C12.0063 1.46874 12.2948 1.62321 12.28 1.27979H12.9914C12.6295 1.66447 11.8971 1.65318 11.6459 1.70785Z" fill="#67211F" fill-opacity="0.56"/>
<path d="M9.05705 1.33873L8.9761 2.05107L9.12476 2.04081L9.05705 1.33873Z" fill="#67211F" stroke="#67211F" stroke-width="0.0885594"/>
<path d="M7.11135 1.83328C6.84929 1.81862 6.6915 1.80396 6.47486 1.78931C6.34008 3.3391 6.28835 3.72285 6.56916 5.25788C6.95 5.35764 7.23799 5.45176 7.56675 5.55308C6.79583 4.15015 7.01006 3.24888 7.11135 1.83328Z" fill="#D60000" stroke="#67211F" stroke-width="0.0365292"/>
<path d="M6.68525 1.81163L6.4953 1.79675L6.45731 2.07933L6.68525 1.81163Z" fill="#398F00" stroke="#67211F" stroke-width="0.00737995"/>
<path d="M6.37555 2.85231L7.08692 2.0315L7.09441 1.84829L6.68256 1.81165L6.45792 2.07548L6.37555 2.85231Z" fill="#FF7F00" stroke="#67211F" stroke-width="0.00737995"/>
<path d="M6.83803 2.30976C6.83803 2.30976 6.61089 2.05571 6.53102 1.9873L6.45614 2.07525L6.38126 2.84475C6.49108 2.71528 6.83803 2.30976 6.83803 2.30976Z" fill="#D60000" stroke="#67211F" stroke-width="0.00737995"/>
<path d="M7.05754 2.918C7.0583 2.60174 7.06575 2.40562 7.08749 2.03125L6.3836 2.84472C6.35853 3.16744 6.35256 3.34546 6.34616 3.65818L7.05754 2.918Z" fill="#007FFF" stroke="#67211F" stroke-width="0.00590396"/>
<path d="M6.88531 3.09388L6.53336 2.66882L6.3836 2.84471C6.36407 3.16314 6.35469 3.33983 6.34616 3.65819L6.88531 3.09388Z" fill="#398F00" stroke="#67211F" stroke-width="0.00590396"/>
<path d="M6.91526 3.83411L6.57081 3.42371L6.34616 3.65822C6.35365 3.98801 6.37611 4.13458 6.39861 4.40574L6.91526 3.83411Z" fill="#D60000" stroke="#67211F" stroke-width="0.00590396"/>
<path d="M6.88358 4.66932L6.53913 4.25159L6.39685 4.40549C6.45676 4.7426 6.47173 4.83055 6.53164 5.07972L6.88358 4.66932Z" fill="#007FFF" stroke="#67211F" stroke-width="0.00590396"/>
<path d="M6.97731 5.3676L6.6387 4.9552L6.53336 5.08039L6.58092 5.24451L6.97731 5.3676Z" fill="#FF7F00" stroke="#67211F" stroke-width="0.00590396"/>
<path d="M7.0936 3.63593C7.06695 3.38956 7.0569 3.23759 7.05616 2.91772L6.56943 3.4234C6.79407 3.68723 6.74914 3.6286 6.91388 3.8338L7.0936 3.63593Z" fill="#FF7F00" stroke="#67211F" stroke-width="0.00590396"/>
<path d="M7.18317 4.31791C7.15321 4.09072 7.11577 3.97346 7.09331 3.64368L6.53918 4.25195C6.7584 4.53179 6.71481 4.46894 6.88364 4.66229L7.18317 4.31791Z" fill="#398F00" stroke="#67211F" stroke-width="0.00590396"/>
<path d="M7.3575 4.97012C7.29011 4.72827 7.25267 4.62567 7.18528 4.31787L6.63864 4.95546C6.81087 5.17532 6.81087 5.17532 6.9831 5.37319L7.3575 4.97012Z" fill="#D60000" stroke="#67211F" stroke-width="0.00590396"/>
<path d="M7.57257 5.54066C7.3995 5.32709 7.41037 5.33767 7.22978 5.10938L6.9711 5.36268C7.28853 5.4461 7.28297 5.44425 7.28297 5.44425L7.57257 5.54066Z" fill="#398F00" stroke="#67211F" stroke-width="0.00590396"/>
<path d="M7.3564 4.96997L7.22849 5.10989L7.55957 5.5223H7.56709L7.3564 4.96997Z" fill="#007FFF" stroke="#67211F" stroke-width="0.00590396"/>
<path d="M7.13133 3.9824L7.0937 3.651L7.04856 3.69519L6.98083 3.76883L7.13133 3.9824Z" fill="#007FFF" stroke="#67211F" stroke-width="0.00590396"/>
<g filter="url(#filter0_d_1200_6744)">
<path d="M8.08136 2.73732L8.20225 2.55026C8.20225 2.55026 8.33359 3.09889 8.24189 3.44985C8.16899 3.72892 7.90019 4.09308 7.90019 4.09308C7.77716 4.4075 7.78503 4.57995 7.85172 4.88497L7.60638 5.17372C7.60638 5.17372 7.53053 4.77391 7.40796 4.57783C7.23014 4.29334 6.93673 4.37071 6.75578 4.12066C6.48788 3.75043 6.62678 2.96879 6.62678 2.96879L6.84417 3.1572C6.84417 3.1572 6.97591 2.96258 7.10466 2.68328C7.15077 2.58326 7.19649 2.47238 7.23564 2.35568C7.29549 2.1773 7.36213 1.89044 7.36213 1.89044L7.4878 2.14788L7.58887 2.011C7.58887 2.011 7.59768 2.20832 7.63497 2.31867C7.72057 2.57191 7.81887 2.6641 8.08136 2.73732Z" fill="url(#paint1_linear_1200_6744)"/>
<path d="M8.08136 2.73732C8.12857 2.66427 8.20225 2.55026 8.20225 2.55026C8.20225 2.55026 8.33359 3.09889 8.24189 3.44985C8.16899 3.72892 7.90019 4.09308 7.90019 4.09308C7.77716 4.4075 7.78503 4.57995 7.85172 4.88497L7.60638 5.17372C7.60638 5.17372 7.53053 4.77391 7.40796 4.57783C7.23014 4.29334 6.93673 4.37071 6.75578 4.12066C6.48788 3.75043 6.62679 2.96879 6.62679 2.96879L6.84417 3.1572M8.08136 2.73732C7.81887 2.6641 7.72057 2.57191 7.63497 2.31867C7.59768 2.20832 7.58887 2.011 7.58887 2.011L7.4878 2.14788M8.08136 2.73732C8.07417 2.76379 7.86303 3.2204 7.86303 3.2204C7.86303 3.2204 7.69793 2.90395 7.62369 2.68935M6.84417 3.1572C6.96853 3.30038 6.98725 3.39395 7.02249 3.55985L7.18389 2.9662L7.43015 3.33065L7.47317 2.53732L7.62369 2.68935M6.84417 3.1572C6.84417 3.1572 6.97591 2.96258 7.10466 2.68328C7.15077 2.58326 7.19649 2.47238 7.23564 2.35568C7.29549 2.1773 7.36213 1.89044 7.36213 1.89044L7.4878 2.14788M7.4878 2.14788C7.4878 2.14788 7.55231 2.48301 7.62369 2.68935" stroke="#F8F7FC" stroke-width="0.0365292"/>
</g>
<path d="M10.4326 6.78286L10.4202 6.79786C10.2377 7.04779 9.82281 6.86284 9.96653 6.54793C10.0877 6.29675 10.2464 6.06556 10.4364 5.86187C10.945 5.30952 11.6461 4.97337 12.3946 4.92213C12.5371 4.90963 12.6633 5.0171 12.6758 5.15957C12.687 5.29578 12.5908 5.41824 12.4546 5.43824C11.6486 5.64568 10.935 6.1193 10.4326 6.78286Z" fill="#422B0D"/>
<path d="M7.79644 6.90796L7.80769 6.92296C7.99139 7.17289 8.40628 6.98794 8.26257 6.67303C8.14135 6.42185 7.98139 6.19066 7.79144 5.98697C7.28283 5.43462 6.58303 5.09847 5.83448 5.04723C5.69202 5.03348 5.56455 5.13846 5.55081 5.28092C5.53706 5.41963 5.63578 5.54334 5.77325 5.56334C6.58053 5.77078 7.29283 6.2444 7.79644 6.90796Z" fill="#422B0D"/>
<defs>
<filter id="filter0_d_1200_6744" x="6.57248" y="1.83606" width="1.84718" height="3.49072" filterUnits="userSpaceOnUse" color-interpolation-filters="sRGB">
<feFlood flood-opacity="0" result="BackgroundImageFix"/>
<feColorMatrix in="SourceAlpha" type="matrix" values="0 0 0 0 0 0 0 0 0 0 0 0 0 0 0 0 0 0 127 0" result="hardAlpha"/>
<feOffset dx="0.0737995" dy="0.0590396"/>
<feGaussianBlur stdDeviation="0.0265678"/>
<feComposite in2="hardAlpha" operator="out"/>
<feColorMatrix type="matrix" values="0 0 0 0 0 0 0 0 0 0 0 0 0 0 0 0 0 0 0.25 0"/>
<feBlend mode="normal" in2="BackgroundImageFix" result="effect1_dropShadow_1200_6744"/>
<feBlend mode="normal" in="SourceGraphic" in2="effect1_dropShadow_1200_6744" result="shape"/>
</filter>
<radialGradient id="paint0_radial_1200_6744" cx="0" cy="0" r="1" gradientUnits="userSpaceOnUse" gradientTransform="translate(8.94174 9.90706) scale(7.11802 7.11799)">
<stop offset="0.5" stop-color="#FDE030"/>
<stop offset="0.92" stop-color="#F7C02B"/>
<stop offset="1" stop-color="#F4A223"/>
</radialGradient>
<linearGradient id="paint1_linear_1200_6744" x1="7.76408" y1="1.99658" x2="6.96948" y2="5.00553" gradientUnits="userSpaceOnUse">
<stop stop-color="#C9C9C9"/>
<stop offset="1" stop-color="#939297"/>
</linearGradient>
</defs>
</svg>
