<svg width="19" height="19" viewBox="0 0 19 19" fill="none" xmlns="http://www.w3.org/2000/svg">
<path d="M9.95812 17.8884C6.47157 17.8884 2.7101 15.7015 2.7101 10.9028C2.7101 6.10413 6.47157 3.91724 9.95812 3.91724C11.8951 3.91724 13.6821 4.55456 15.0067 5.71674C16.4438 6.99138 17.2061 8.79088 17.2061 10.9028C17.2061 13.0147 16.4438 14.8017 15.0067 16.0764C13.6821 17.2385 11.8826 17.8884 9.95812 17.8884Z" fill="url(#paint0_radial_1200_7572)"/>
<path d="M7.51055 8.15869C6.98694 8.15869 6.51082 8.60107 6.51082 9.33586C6.51082 10.0707 6.98694 10.5118 7.51055 10.5118C8.0354 10.5118 8.51027 10.0694 8.51027 9.33586C8.51027 8.60232 8.0404 8.15869 7.51055 8.15869Z" fill="#422B0D"/>
<path d="M7.46374 8.64928C7.28628 8.5643 7.07259 8.63928 6.98637 8.81673C6.92013 8.95544 6.95013 9.12165 7.06135 9.22912C7.2388 9.31409 7.45249 9.23911 7.53872 9.06166C7.60495 8.92295 7.57496 8.75675 7.46374 8.64928Z" fill="#896024"/>
<path d="M12.3064 8.15869C11.7827 8.15869 11.3066 8.60107 11.3066 9.33586C11.3066 10.0707 11.7827 10.5118 12.3064 10.5118C12.83 10.5118 13.3061 10.0694 13.3061 9.33586C13.3061 8.60232 12.83 8.15869 12.3064 8.15869Z" fill="#422B0D"/>
<path d="M12.2585 8.6494C12.081 8.56442 11.8673 8.6394 11.7811 8.81685C11.7149 8.95557 11.7449 9.12177 11.8561 9.22924C12.0335 9.31422 12.2472 9.23924 12.3335 9.06179C12.3997 8.92307 12.3697 8.75687 12.2585 8.6494Z" fill="#896024"/>
<path d="M9.88319 14.4918C8.74975 14.5005 7.66755 14.0244 6.90901 13.1821C6.85152 13.1159 6.83778 13.0222 6.87402 12.9422C6.91026 12.861 6.99024 12.8085 7.07896 12.8073C7.11895 12.8073 7.15894 12.8185 7.19393 12.8385C7.79627 13.1846 8.80349 13.6145 9.88319 13.6145H9.90069C10.9791 13.6145 11.9876 13.1846 12.5887 12.8385C12.6237 12.8185 12.6637 12.8073 12.7037 12.8073C12.7924 12.8085 12.8724 12.861 12.9086 12.9422C12.9461 13.0222 12.9324 13.1159 12.8736 13.1821C12.1151 14.0244 11.0304 14.5018 9.89694 14.4918" fill="#422B0D"/>
<path d="M15.9427 6.75061C16.6088 7.82531 16.9562 9.10496 16.9562 10.5283C16.9562 12.6402 16.1939 14.4272 14.7568 15.7019C13.4322 16.8641 11.6327 17.5139 9.70819 17.5139C7.4513 17.5139 5.08445 16.5954 3.68733 14.6472C5.03196 16.8541 7.56127 17.8888 9.95812 17.8888C11.8826 17.8888 13.6821 17.2389 15.0067 16.0768C16.4438 14.8021 17.2061 13.0151 17.2061 10.9032C17.2061 9.31115 16.7725 7.89654 15.9427 6.75061Z" fill="#EB8F00"/>
<path d="M6.11692 2.33425H6.61095C6.61095 2.33425 8.64019 2.05866 10.0125 2.07083C11.3206 2.08243 13.2439 2.33425 13.2439 2.33425H14.0214C14.8129 3.63878 15.3817 4.97844 15.6425 6.35457C13.0855 5.62849 10.0125 7.16316 10.0125 7.16316C10.0125 7.16316 6.89326 5.65527 4.40709 6.19723C4.80504 4.78852 5.2955 3.51014 6.11692 2.33425Z" fill="#7F2125"/>
<path d="M6.11692 2.33425H6.61095C6.61095 2.33425 8.64019 2.05866 10.0125 2.07083C11.3206 2.08243 13.2439 2.33425 13.2439 2.33425H14.0214M6.11692 2.33425C5.2955 3.51014 4.80504 4.78852 4.40709 6.19723C6.89326 5.65527 10.0125 7.16316 10.0125 7.16316C10.0125 7.16316 13.0855 5.62849 15.6425 6.35457C15.3817 4.97844 14.8129 3.63878 14.0214 2.33425M6.11692 2.33425C6.75952 3.03087 7.67501 2.59326 10.0125 3.12934C12.1288 2.60946 13.1477 3.06537 14.0214 2.33425" stroke="#67211F" stroke-width="0.0582032"/>
<path d="M10.0306 7.14038L10.0381 3.1328C11.6292 2.64472 12.8372 3.02578 14.0309 2.35791C14.5508 3.15589 15.4108 4.65004 15.6521 6.34308C13.5857 5.81199 11.4008 6.51308 10.0306 7.14038Z" fill="#67211F" stroke="#67211F" stroke-width="0.0365292"/>
<path d="M7.30057 2.78608C6.9393 2.54452 6.60035 2.67542 6.61522 2.32849L6.14989 2.34325C6.51259 2.73186 7.04882 2.73085 7.30057 2.78608Z" fill="#67211F"/>
<path d="M12.6789 2.74154C13.0402 2.50243 13.3294 2.6569 13.3145 2.31348H14.0275C13.6648 2.69816 12.9307 2.68687 12.6789 2.74154Z" fill="#67211F" fill-opacity="0.56"/>
<path d="M10.0846 2.37242L10.0034 3.08476L10.1524 3.0745L10.0846 2.37242Z" fill="#67211F" stroke="#67211F" stroke-width="0.0885594"/>
<path d="M8.13377 2.86709C7.8711 2.85243 7.71295 2.83778 7.49581 2.82312C7.36073 4.37291 7.30888 4.75667 7.59033 6.2917C7.97204 6.39145 8.26069 6.48557 8.5902 6.58689C7.81752 5.18396 8.03224 4.2827 8.13377 2.86709Z" fill="#D60000" stroke="#67211F" stroke-width="0.0365292"/>
<path d="M7.70644 2.84568L7.51606 2.83081L7.47798 3.11338L7.70644 2.84568Z" fill="#398F00" stroke="#67211F" stroke-width="0.00737995"/>
<path d="M7.39523 3.88612L8.10824 3.06532L8.11574 2.8821L7.70295 2.84546L7.47779 3.10929L7.39523 3.88612Z" fill="#FF7F00" stroke="#67211F" stroke-width="0.00737995"/>
<path d="M7.86183 3.34346C7.86183 3.34346 7.63417 3.0894 7.55411 3.021L7.47906 3.10894L7.40401 3.87844C7.51408 3.74897 7.86183 3.34346 7.86183 3.34346Z" fill="#D60000" stroke="#67211F" stroke-width="0.00737995"/>
<path d="M8.07899 3.95169C8.07976 3.63543 8.08722 3.43931 8.10901 3.06494L7.40351 3.87841C7.37838 4.20113 7.37239 4.37915 7.36598 4.69187L8.07899 3.95169Z" fill="#007FFF" stroke="#67211F" stroke-width="0.00590396"/>
<path d="M7.90636 4.1277L7.55361 3.70264L7.40351 3.87852C7.38393 4.19695 7.37453 4.37364 7.36598 4.692L7.90636 4.1277Z" fill="#398F00" stroke="#67211F" stroke-width="0.00590396"/>
<path d="M7.93638 4.8678L7.59114 4.4574L7.36598 4.69191C7.37349 5.0217 7.396 5.16827 7.41855 5.43943L7.93638 4.8678Z" fill="#D60000" stroke="#67211F" stroke-width="0.00590396"/>
<path d="M7.90648 5.70325L7.56124 5.28552L7.41864 5.43942C7.47868 5.77654 7.49369 5.86448 7.55374 6.11366L7.90648 5.70325Z" fill="#007FFF" stroke="#67211F" stroke-width="0.00590396"/>
<path d="M7.99717 6.4013L7.65779 5.98889L7.5522 6.11409L7.59987 6.2782L7.99717 6.4013Z" fill="#FF7F00" stroke="#67211F" stroke-width="0.00590396"/>
<path d="M8.11657 4.66987C8.08986 4.4235 8.07979 4.27153 8.07905 3.95166L7.5912 4.45734C7.81636 4.72117 7.77133 4.66254 7.93645 4.86774L8.11657 4.66987Z" fill="#FF7F00" stroke="#67211F" stroke-width="0.00590396"/>
<path d="M8.20449 5.35172C8.17447 5.12454 8.13694 5.00728 8.11443 4.67749L7.55904 5.28577C7.77875 5.56561 7.73506 5.50276 7.90428 5.6961L8.20449 5.35172Z" fill="#398F00" stroke="#67211F" stroke-width="0.00590396"/>
<path d="M8.37996 6.00393C8.31241 5.76209 8.27489 5.65949 8.20734 5.35168L7.65945 5.98927C7.83208 6.20913 7.83208 6.20913 8.0047 6.40701L8.37996 6.00393Z" fill="#D60000" stroke="#67211F" stroke-width="0.00590396"/>
<path d="M8.59573 6.57435C8.42227 6.36078 8.43316 6.37136 8.25216 6.14307L7.99289 6.39637C8.31105 6.47979 8.30547 6.47794 8.30547 6.47794L8.59573 6.57435Z" fill="#398F00" stroke="#67211F" stroke-width="0.00590396"/>
<path d="M8.38142 6.00378L8.2532 6.14371L8.58505 6.55611H8.59259L8.38142 6.00378Z" fill="#007FFF" stroke="#67211F" stroke-width="0.00590396"/>
<path d="M8.15445 5.01597L8.11674 4.68457L8.07149 4.72876L8.00362 4.8024L8.15445 5.01597Z" fill="#007FFF" stroke="#67211F" stroke-width="0.00590396"/>
<g filter="url(#filter0_d_1200_7572)">
<path d="M9.10742 3.77126L9.22858 3.5842C9.22858 3.5842 9.36022 4.13282 9.26832 4.48379C9.19525 4.76286 8.92583 5.12701 8.92583 5.12701C8.80252 5.44143 8.81041 5.61388 8.87725 5.91891L8.63136 6.20766C8.63136 6.20766 8.55533 5.80784 8.43248 5.61176C8.25425 5.32728 7.96016 5.40464 7.77881 5.15459C7.51029 4.78436 7.64951 4.00273 7.64951 4.00273L7.8674 4.19113C7.8674 4.19113 7.99944 3.99652 8.12848 3.71722C8.1747 3.6172 8.22052 3.50631 8.25977 3.38962C8.31975 3.21123 8.38654 2.92437 8.38654 2.92437L8.5125 3.18182L8.6138 3.04493C8.6138 3.04493 8.62263 3.24226 8.66001 3.3526C8.7458 3.60585 8.84432 3.69804 9.10742 3.77126Z" fill="url(#paint1_linear_1200_7572)"/>
<path d="M9.10742 3.77126C9.15474 3.6982 9.22858 3.5842 9.22858 3.5842C9.22858 3.5842 9.36022 4.13282 9.26832 4.48379C9.19525 4.76286 8.92583 5.12701 8.92583 5.12701C8.80252 5.44143 8.81041 5.61388 8.87725 5.91891L8.63136 6.20766C8.63136 6.20766 8.55533 5.80784 8.43248 5.61176C8.25425 5.32728 7.96016 5.40464 7.77881 5.15459C7.51029 4.78436 7.64951 4.00273 7.64951 4.00273L7.8674 4.19113M9.10742 3.77126C8.84432 3.69804 8.7458 3.60585 8.66001 3.3526C8.62263 3.24226 8.6138 3.04493 8.6138 3.04493L8.5125 3.18182M9.10742 3.77126C9.10021 3.79773 8.88859 4.25434 8.88859 4.25434C8.88859 4.25434 8.72311 3.93788 8.6487 3.72329M7.8674 4.19113C7.99204 4.33431 8.0108 4.42789 8.04612 4.59378L8.20789 4.00014L8.45472 4.36459L8.49783 3.57125L8.6487 3.72329M7.8674 4.19113C7.8674 4.19113 7.99944 3.99652 8.12848 3.71722C8.1747 3.6172 8.22052 3.50631 8.25977 3.38962C8.31975 3.21123 8.38654 2.92437 8.38654 2.92437L8.5125 3.18182M8.5125 3.18182C8.5125 3.18182 8.57716 3.51695 8.6487 3.72329" stroke="#F8F7FC" stroke-width="0.0365292"/>
</g>
<defs>
<filter id="filter0_d_1200_7572" x="7.59512" y="2.87012" width="1.85103" height="3.49059" filterUnits="userSpaceOnUse" color-interpolation-filters="sRGB">
<feFlood flood-opacity="0" result="BackgroundImageFix"/>
<feColorMatrix in="SourceAlpha" type="matrix" values="0 0 0 0 0 0 0 0 0 0 0 0 0 0 0 0 0 0 127 0" result="hardAlpha"/>
<feOffset dx="0.0737995" dy="0.0590396"/>
<feGaussianBlur stdDeviation="0.0265678"/>
<feComposite in2="hardAlpha" operator="out"/>
<feColorMatrix type="matrix" values="0 0 0 0 0 0 0 0 0 0 0 0 0 0 0 0 0 0 0.25 0"/>
<feBlend mode="normal" in2="BackgroundImageFix" result="effect1_dropShadow_1200_7572"/>
<feBlend mode="normal" in="SourceGraphic" in2="effect1_dropShadow_1200_7572" result="shape"/>
</filter>
<radialGradient id="paint0_radial_1200_7572" cx="0" cy="0" r="1" gradientUnits="userSpaceOnUse" gradientTransform="translate(9.95812 10.9028) scale(7.11802 7.11799)">
<stop offset="0.5" stop-color="#FDE030"/>
<stop offset="0.92" stop-color="#F7C02B"/>
<stop offset="1" stop-color="#F4A223"/>
</radialGradient>
<linearGradient id="paint1_linear_1200_7572" x1="8.78941" y1="3.03052" x2="7.99639" y2="6.04036" gradientUnits="userSpaceOnUse">
<stop stop-color="#C9C9C9"/>
<stop offset="1" stop-color="#939297"/>
</linearGradient>
</defs>
</svg>
