<svg width="19" height="18" viewBox="0 0 19 18" fill="none" xmlns="http://www.w3.org/2000/svg">
<g clip-path="url(#clip0_1200_6312)">
<path d="M9.90474 15.8345C6.41819 15.8345 2.65672 13.6476 2.65672 8.84896C2.65672 4.0503 6.41819 1.8634 9.90474 1.8634C11.8417 1.8634 13.6287 2.50073 14.9534 3.6629C16.3905 4.93755 17.1528 6.73705 17.1528 8.84896C17.1528 10.9609 16.3905 12.7479 14.9534 14.0225C13.6287 15.1847 11.8292 15.8345 9.90474 15.8345Z" fill="url(#paint0_radial_1200_6312)"/>
<path d="M15.891 4.69617C16.557 5.77087 16.9044 7.05051 16.9044 8.47387C16.9044 10.5858 16.1422 12.3728 14.705 13.6474C13.3804 14.8096 11.5809 15.4594 9.65643 15.4594C7.39955 15.4594 5.03269 14.5409 3.63557 12.5927C4.98021 14.7996 7.50952 15.8343 9.90636 15.8343C11.8308 15.8343 13.6303 15.1845 14.955 14.0223C16.3921 12.7477 17.1544 10.9607 17.1544 8.84876C17.1544 7.25671 16.7207 5.8421 15.891 4.69617Z" fill="#EB8F00"/>
<path fill-rule="evenodd" clip-rule="evenodd" d="M8.40836 11.6407C8.60147 11.4537 8.90789 11.4529 9.10196 11.6388L9.95396 12.4553L10.7952 11.6407C10.9883 11.4537 11.2947 11.4529 11.4888 11.6388L12.3467 12.461L12.7796 12.0559C12.9812 11.8673 13.2975 11.8778 13.4861 12.0793C13.6748 12.2809 13.6643 12.5972 13.4627 12.7859L12.6842 13.5144C12.4903 13.6958 12.1885 13.694 11.9968 13.5103L11.1448 12.6938L10.3035 13.5085C10.1104 13.6955 9.804 13.6963 9.60992 13.5103L8.75792 12.6938L7.91667 13.5085C7.7253 13.6938 7.42221 13.6965 7.22759 13.5146L6.46155 12.7985C6.25987 12.61 6.2492 12.2937 6.43772 12.092C6.62624 11.8904 6.94255 11.8797 7.14423 12.0682L7.56283 12.4595L8.40836 11.6407Z" fill="#35220B"/>
<path d="M5.98083 9.62609L7.50541 9.32617L5.94334 8.67636C5.9296 8.66261 5.9121 8.65511 5.89336 8.65136C5.56844 8.45142 5.50596 8.03903 5.80588 7.7891C6.05706 7.59541 6.40197 7.58041 6.66814 7.75161C7.29297 8.12651 8.75507 9.02626 9.32991 9.37616C9.39365 9.40365 9.42239 9.47738 9.3949 9.53987C9.37865 9.57736 9.34491 9.60485 9.30492 9.6136L6.44321 10.6883C6.41821 10.7008 6.40572 10.7008 6.38072 10.7133C6.00582 10.8133 5.59344 10.6008 5.53095 10.2384C5.46847 9.9635 5.68091 9.70107 5.98083 9.62609Z" fill="#422B0D"/>
<path d="M13.9276 9.58776L12.403 9.28785L13.9776 8.63803C13.9913 8.62428 14.0088 8.61678 14.0276 8.61303C14.3525 8.41309 14.415 8.0007 14.1151 7.75077C13.8639 7.55708 13.519 7.54208 13.2528 7.71328C12.628 8.08818 11.1659 8.98793 10.591 9.33783C10.5273 9.36532 10.4985 9.43905 10.526 9.50154C10.5423 9.53903 10.576 9.56652 10.616 9.57526L13.4777 10.65C13.5027 10.6625 13.5152 10.6625 13.5402 10.675C13.9151 10.7749 14.3275 10.5625 14.39 10.2001C14.44 9.92517 14.2275 9.67524 13.9276 9.58776Z" fill="#422B0D"/>
<path d="M5.99284 0.242328H6.48574C6.48574 0.242328 8.51035 -0.0332615 9.87949 -0.0210929C11.1846 -0.00949348 13.1035 0.242328 13.1035 0.242328H13.8793C14.669 1.54686 15.2365 2.88652 15.4967 4.26266C12.9455 3.53657 9.87949 5.07124 9.87949 5.07124C9.87949 5.07124 6.76741 3.56335 4.28692 4.10531C4.68396 2.6966 5.1733 1.41823 5.99284 0.242328Z" fill="#7F2125"/>
<path d="M5.99284 0.242328H6.48574C6.48574 0.242328 8.51035 -0.0332615 9.87949 -0.0210929C11.1846 -0.00949348 13.1035 0.242328 13.1035 0.242328H13.8793M5.99284 0.242328C5.1733 1.41823 4.68396 2.6966 4.28692 4.10531C6.76741 3.56336 9.87949 5.07124 9.87949 5.07124C9.87949 5.07124 12.9455 3.53657 15.4967 4.26266C15.2365 2.88652 14.669 1.54686 13.8793 0.242328M5.99284 0.242328C6.63398 0.938946 7.54738 0.501343 9.87949 1.03743C11.991 0.517544 13.0076 0.973447 13.8793 0.242328" stroke="#67211F" stroke-width="0.0582032"/>
<path d="M9.89681 5.04846L9.9043 1.04089C11.4918 0.552801 12.697 0.933859 13.888 0.265991C14.4067 1.06397 15.2648 2.55812 15.5054 4.25116C13.4438 3.72007 11.2639 4.42116 9.89681 5.04846Z" fill="#67211F" stroke="#67211F" stroke-width="0.0365292"/>
<path d="M7.17155 0.694036C6.8111 0.452482 6.47293 0.58338 6.48776 0.23645L6.02349 0.25121C6.38536 0.639823 6.92037 0.638805 7.17155 0.694036Z" fill="#67211F"/>
<path d="M12.5371 0.649623C12.8976 0.41051 13.1861 0.564983 13.1712 0.221558H13.8826C13.5207 0.606245 12.7883 0.594951 12.5371 0.649623Z" fill="#67211F" fill-opacity="0.56"/>
<path d="M9.95021 0.280498L9.86925 0.992846L10.0179 0.982582L9.95021 0.280498Z" fill="#67211F" stroke="#67211F" stroke-width="0.0885594"/>
<path d="M8.00411 0.77505C7.74204 0.760393 7.58426 0.745736 7.36761 0.731079C7.23284 2.28087 7.18111 2.66463 7.46191 4.19966C7.84275 4.29941 8.13074 4.39353 8.4595 4.49485C7.68858 3.09192 7.90282 2.19066 8.00411 0.77505Z" fill="#D60000" stroke="#67211F" stroke-width="0.0365292"/>
<path d="M7.57638 0.753154L7.38642 0.738281L7.34843 1.02086L7.57638 0.753154Z" fill="#398F00" stroke="#67211F" stroke-width="0.00737995"/>
<path d="M7.26828 1.79396L7.97965 0.973155L7.98714 0.789939L7.57529 0.753296L7.35065 1.01713L7.26828 1.79396Z" fill="#FF7F00" stroke="#67211F" stroke-width="0.00737995"/>
<path d="M7.73195 1.25141C7.73195 1.25141 7.50481 0.997356 7.42493 0.928955L7.35005 1.0169L7.27517 1.7864C7.385 1.65693 7.73195 1.25141 7.73195 1.25141Z" fill="#D60000" stroke="#67211F" stroke-width="0.00737995"/>
<path d="M7.95047 1.85965C7.95124 1.54339 7.95869 1.34727 7.98043 0.9729L7.27654 1.78637C7.25147 2.10909 7.24549 2.28711 7.2391 2.59983L7.95047 1.85965Z" fill="#007FFF" stroke="#67211F" stroke-width="0.00590396"/>
<path d="M7.77824 2.0359L7.4263 1.61084L7.27654 1.78673C7.257 2.10515 7.24763 2.28184 7.2391 2.6002L7.77824 2.0359Z" fill="#398F00" stroke="#67211F" stroke-width="0.00590396"/>
<path d="M7.8082 2.77576L7.46374 2.36536L7.2391 2.59987C7.24659 2.92966 7.26905 3.07623 7.29154 3.34739L7.8082 2.77576Z" fill="#D60000" stroke="#67211F" stroke-width="0.00590396"/>
<path d="M7.77555 3.61121L7.43109 3.19348L7.28882 3.34738C7.34872 3.6845 7.3637 3.77244 7.4236 4.02162L7.77555 3.61121Z" fill="#007FFF" stroke="#67211F" stroke-width="0.00590396"/>
<path d="M7.86829 4.30925L7.52968 3.89685L7.42434 4.02204L7.4719 4.18616L7.86829 4.30925Z" fill="#FF7F00" stroke="#67211F" stroke-width="0.00590396"/>
<path d="M7.98458 2.57795C7.95793 2.33158 7.94788 2.17961 7.94714 1.85974L7.46041 2.36542C7.68506 2.62925 7.64013 2.57062 7.80487 2.77582L7.98458 2.57795Z" fill="#FF7F00" stroke="#67211F" stroke-width="0.00590396"/>
<path d="M8.07417 3.25932C8.04422 3.03213 8.00678 2.91487 7.98431 2.58508L7.43019 3.19336C7.6494 3.4732 7.60581 3.41035 7.77465 3.60369L8.07417 3.25932Z" fill="#398F00" stroke="#67211F" stroke-width="0.00590396"/>
<path d="M8.24753 3.91189C8.18013 3.67005 8.14269 3.56745 8.0753 3.25964L7.52866 3.89723C7.70089 4.11709 7.70089 4.11709 7.87312 4.31497L8.24753 3.91189Z" fill="#D60000" stroke="#67211F" stroke-width="0.00590396"/>
<path d="M8.46453 4.48231C8.29147 4.26874 8.30234 4.27932 8.12174 4.05103L7.86307 4.30433C8.1805 4.38775 8.17494 4.3859 8.17494 4.3859L8.46453 4.48231Z" fill="#398F00" stroke="#67211F" stroke-width="0.00590396"/>
<path d="M8.2474 3.91162L8.11948 4.05154L8.45057 4.46395H8.45809L8.2474 3.91162Z" fill="#007FFF" stroke="#67211F" stroke-width="0.00590396"/>
<path d="M8.02526 2.92417L7.98764 2.59277L7.94249 2.63696L7.87477 2.7106L8.02526 2.92417Z" fill="#007FFF" stroke="#67211F" stroke-width="0.00590396"/>
<g filter="url(#filter0_d_1200_6312)">
<path d="M8.97551 1.67909L9.0964 1.49203C9.0964 1.49203 9.22774 2.04066 9.13604 2.39163C9.06314 2.67069 8.79434 3.03485 8.79434 3.03485C8.67131 3.34927 8.67918 3.52172 8.74587 3.82675L8.50053 4.1155C8.50053 4.1155 8.42468 3.71568 8.30211 3.5196C8.12429 3.23511 7.83087 3.31248 7.64993 3.06243C7.38203 2.6922 7.52093 1.91057 7.52093 1.91057L7.73832 2.09897C7.73832 2.09897 7.87006 1.90435 7.99881 1.62506C8.04492 1.52503 8.09064 1.41415 8.12979 1.29746C8.18964 1.11907 8.25628 0.832211 8.25628 0.832211L8.38195 1.08966L8.48302 0.952768C8.48302 0.952768 8.49183 1.1501 8.52912 1.26044C8.61472 1.51368 8.71302 1.60588 8.97551 1.67909Z" fill="url(#paint1_linear_1200_6312)"/>
<path d="M8.97551 1.67909C9.02272 1.60604 9.0964 1.49203 9.0964 1.49203C9.0964 1.49203 9.22774 2.04066 9.13604 2.39163C9.06314 2.67069 8.79434 3.03485 8.79434 3.03485C8.67131 3.34927 8.67918 3.52172 8.74587 3.82675L8.50053 4.1155C8.50053 4.1155 8.42468 3.71568 8.30211 3.5196C8.12429 3.23511 7.83087 3.31248 7.64993 3.06243C7.38203 2.6922 7.52093 1.91057 7.52093 1.91057L7.73832 2.09897M8.97551 1.67909C8.71302 1.60588 8.61472 1.51368 8.52912 1.26044C8.49183 1.1501 8.48302 0.952768 8.48302 0.952768L8.38195 1.08966M8.97551 1.67909C8.96832 1.70556 8.75718 2.16218 8.75718 2.16218C8.75718 2.16218 8.59208 1.84572 8.51784 1.63112M7.73832 2.09897C7.86268 2.24215 7.8814 2.33572 7.91664 2.50162L8.07804 1.90797L8.3243 2.27243L8.36732 1.47909L8.51784 1.63112M7.73832 2.09897C7.73832 2.09897 7.87006 1.90435 7.99881 1.62506C8.04492 1.52503 8.09064 1.41415 8.12979 1.29746C8.18964 1.11907 8.25628 0.832211 8.25628 0.832211L8.38195 1.08966M8.38195 1.08966C8.38195 1.08966 8.44646 1.42479 8.51784 1.63112" stroke="#F8F7FC" stroke-width="0.0365292"/>
</g>
</g>
<defs>
<filter id="filter0_d_1200_6312" x="7.46664" y="0.777832" width="1.84716" height="3.49072" filterUnits="userSpaceOnUse" color-interpolation-filters="sRGB">
<feFlood flood-opacity="0" result="BackgroundImageFix"/>
<feColorMatrix in="SourceAlpha" type="matrix" values="0 0 0 0 0 0 0 0 0 0 0 0 0 0 0 0 0 0 127 0" result="hardAlpha"/>
<feOffset dx="0.0737995" dy="0.0590396"/>
<feGaussianBlur stdDeviation="0.0265678"/>
<feComposite in2="hardAlpha" operator="out"/>
<feColorMatrix type="matrix" values="0 0 0 0 0 0 0 0 0 0 0 0 0 0 0 0 0 0 0.25 0"/>
<feBlend mode="normal" in2="BackgroundImageFix" result="effect1_dropShadow_1200_6312"/>
<feBlend mode="normal" in="SourceGraphic" in2="effect1_dropShadow_1200_6312" result="shape"/>
</filter>
<radialGradient id="paint0_radial_1200_6312" cx="0" cy="0" r="1" gradientUnits="userSpaceOnUse" gradientTransform="translate(9.90474 8.84896) scale(7.11802 7.11799)">
<stop offset="0.5" stop-color="#FDE030"/>
<stop offset="0.92" stop-color="#F7C02B"/>
<stop offset="1" stop-color="#F4A223"/>
</radialGradient>
<linearGradient id="paint1_linear_1200_6312" x1="8.65823" y1="0.938355" x2="7.86363" y2="3.94731" gradientUnits="userSpaceOnUse">
<stop stop-color="#C9C9C9"/>
<stop offset="1" stop-color="#939297"/>
</linearGradient>
<clipPath id="clip0_1200_6312">
<rect width="17.996" height="17.996" fill="white" transform="translate(0.95639 -0.00793457)"/>
</clipPath>
</defs>
</svg>
