<svg width="19" height="18" viewBox="0 0 19 18" fill="none" xmlns="http://www.w3.org/2000/svg">
<path d="M9.93314 16.8772C6.44659 16.8772 2.68512 14.6904 2.68512 9.89169C2.68512 5.09302 6.44659 2.90613 9.93314 2.90613C11.8701 2.90613 13.6571 3.54345 14.9818 4.70563C16.4189 5.98027 17.1812 7.77977 17.1812 9.89169C17.1812 12.0036 16.4189 13.7906 14.9818 15.0653C13.6571 16.2274 11.8576 16.8772 9.93314 16.8772Z" fill="url(#paint0_radial_1206_12085)"/>
<path d="M15.9194 5.73914C16.5854 6.81384 16.9328 8.09348 16.9328 9.51684C16.9328 11.6288 16.1706 13.4158 14.7334 14.6904C13.4088 15.8526 11.6093 16.5024 9.68483 16.5024C7.42795 16.5024 5.06109 15.5839 3.66397 13.6357C5.00861 15.8426 7.53792 16.8773 9.93476 16.8773C11.8592 16.8773 13.6587 16.2275 14.9834 15.0653C16.4205 13.7907 17.1828 12.0036 17.1828 9.89173C17.1828 8.29968 16.7491 6.88507 15.9194 5.73914Z" fill="#EB8F00"/>
<path d="M11.358 14.0293H8.60874C8.33256 14.0293 8.10888 13.8056 8.10888 13.5294C8.10888 13.2532 8.33256 13.0295 8.60874 13.0295H11.358C11.6342 13.0295 11.8579 13.2532 11.8579 13.5294C11.8579 13.8056 11.6342 14.0293 11.358 14.0293Z" fill="#422B0D"/>
<path d="M12.4201 7.78223C12.8824 7.78223 13.2948 8.31958 13.2948 9.21933C13.2948 10.1191 12.8824 10.6564 12.4201 10.6564C11.9577 10.6564 11.5453 10.1191 11.5453 9.21933C11.5453 8.31958 11.9577 7.79472 12.4201 7.78223Z" fill="#422B0D"/>
<path d="M5.37021 7.73269C5.4202 7.63271 5.45769 7.55774 5.50768 7.47026C5.56266 7.39278 5.62015 7.3178 5.68263 7.24532C5.82509 7.09411 5.99504 6.97165 6.18249 6.88292C6.38119 6.79045 6.59988 6.74671 6.81982 6.75796C7.02726 6.76795 7.23221 6.81919 7.41965 6.90792L7.54462 6.9704C7.58211 6.9829 7.6071 7.00789 7.64459 7.02039C7.70708 7.04538 7.78206 7.08287 7.84454 7.10786C7.9745 7.1591 8.10822 7.20033 8.24443 7.23283C8.30941 7.24782 8.37689 7.25657 8.44437 7.25782H8.60683C8.65932 7.25032 8.71055 7.23408 8.75679 7.20783C8.81177 7.18159 8.86176 7.14785 8.90675 7.10786L8.93174 7.08287C9.05671 6.99414 9.22916 7.02163 9.31914 7.14535C9.39911 7.25657 9.38912 7.40903 9.29414 7.50775C9.22166 7.58148 9.14168 7.64896 9.05671 7.70769C8.96423 7.76893 8.86301 7.81516 8.75679 7.84516C8.7068 7.85765 8.63182 7.87015 8.58184 7.88265C8.53435 7.90264 8.48311 7.91139 8.43188 7.90764C8.33565 7.91014 8.23943 7.90639 8.14446 7.89514C7.96076 7.8739 7.78081 7.83266 7.6071 7.77018C7.52088 7.74393 7.43715 7.71144 7.35717 7.6702C7.27969 7.64146 7.20471 7.60772 7.13223 7.57023C6.92354 7.47776 6.68735 7.46401 6.46991 7.53274C6.35869 7.57648 6.25372 7.63521 6.1575 7.70769C6.10751 7.74518 6.05753 7.79517 6.00754 7.83266C5.9588 7.87515 5.91257 7.92138 5.87008 7.97012L5.82009 8.0326C5.72012 8.14007 5.55267 8.14507 5.44519 8.0451C5.4402 8.04135 5.43645 8.03635 5.4327 8.0326C5.35147 7.95513 5.32648 7.83641 5.37021 7.73269Z" fill="#422B0D"/>
<path d="M7.44087 8.39709C6.91726 8.39709 6.44114 8.83947 6.44114 9.57427C6.44114 10.3091 6.91726 10.7502 7.44087 10.7502C7.96448 10.7502 8.4406 10.3078 8.4406 9.57427C8.4406 8.84072 7.96448 8.39709 7.44087 8.39709Z" fill="#422B0D"/>
<path d="M7.39498 8.88878C7.21753 8.8038 7.00384 8.87878 6.91761 9.05623C6.85138 9.19495 6.88137 9.36115 6.99259 9.46862C7.17005 9.5536 7.38374 9.47862 7.46996 9.30117C7.5362 9.16245 7.5062 8.99625 7.39498 8.88878Z" fill="#896024"/>
<path d="M12.3287 8.28557C12.1525 8.27433 12.0013 8.40804 11.99 8.58299C11.99 8.58924 11.99 8.59549 11.99 8.60174C11.9513 8.77419 12.06 8.94539 12.2325 8.98413C12.2375 8.98538 12.2425 8.98663 12.2475 8.98663C12.4249 8.99663 12.5761 8.86041 12.5861 8.68296C12.5861 8.67921 12.5861 8.67421 12.5861 8.67047C12.6249 8.49801 12.5161 8.32681 12.3437 8.28807C12.3387 8.28682 12.3337 8.28682 12.3287 8.28557Z" fill="#896024"/>
<path d="M6.10571 1.31813H6.59861C6.59861 1.31813 8.62321 1.04254 9.99235 1.05471C11.2974 1.06631 13.2164 1.31813 13.2164 1.31813H13.9921C14.7818 2.62267 15.3493 3.96233 15.6095 5.33846C13.0584 4.61238 9.99235 6.14705 9.99235 6.14705C9.99235 6.14705 6.88028 4.63916 4.39978 5.18111C4.79682 3.7724 5.28616 2.49403 6.10571 1.31813Z" fill="#7F2125"/>
<path d="M6.10571 1.31813H6.59861C6.59861 1.31813 8.62321 1.04254 9.99235 1.05471C11.2974 1.06631 13.2164 1.31813 13.2164 1.31813H13.9921M6.10571 1.31813C5.28616 2.49403 4.79682 3.7724 4.39978 5.18111C6.88028 4.63916 9.99235 6.14705 9.99235 6.14705C9.99235 6.14705 13.0584 4.61238 15.6095 5.33846C15.3493 3.96233 14.7818 2.62267 13.9921 1.31813M6.10571 1.31813C6.74684 2.01475 7.66024 1.57715 9.99235 2.11323C12.1038 1.59335 13.1205 2.04925 13.9921 1.31813" stroke="#67211F" stroke-width="0.0582032"/>
<path d="M10.0075 6.12475L10.015 2.11718C11.6025 1.62909 12.8077 2.01015 13.9987 1.34229C14.5174 2.14026 15.3754 3.63442 15.6161 5.32746C13.5544 4.79636 11.3745 5.49746 10.0075 6.12475Z" fill="#67211F" stroke="#67211F" stroke-width="0.0365292"/>
<path d="M7.28456 1.76984C6.92412 1.52829 6.58594 1.65919 6.60077 1.31226L6.13651 1.32702C6.49838 1.71563 7.03339 1.71461 7.28456 1.76984Z" fill="#67211F"/>
<path d="M12.6521 1.7258C13.0125 1.48668 13.301 1.64115 13.2862 1.29773H13.9976C13.6357 1.68242 12.9033 1.67112 12.6521 1.7258Z" fill="#67211F" fill-opacity="0.56"/>
<path d="M10.0622 1.35691L9.98129 2.06926L10.13 2.059L10.0622 1.35691Z" fill="#67211F" stroke="#67211F" stroke-width="0.0885594"/>
<path d="M8.11546 1.85122C7.85339 1.83657 7.69561 1.82191 7.47897 1.80725C7.34419 3.35704 7.29246 3.7408 7.57326 5.27583C7.95411 5.37558 8.2421 5.4697 8.57086 5.57103C7.79994 4.16809 8.01417 3.26683 8.11546 1.85122Z" fill="#D60000" stroke="#67211F" stroke-width="0.0365292"/>
<path d="M7.68862 1.82945L7.49867 1.81458L7.46068 2.09715L7.68862 1.82945Z" fill="#398F00" stroke="#67211F" stroke-width="0.00737995"/>
<path d="M7.37963 2.87001L8.091 2.0492L8.09849 1.86599L7.68664 1.82935L7.462 2.09318L7.37963 2.87001Z" fill="#FF7F00" stroke="#67211F" stroke-width="0.00737995"/>
<path d="M7.84337 2.32771C7.84337 2.32771 7.61623 2.07365 7.53636 2.00525L7.46148 2.09319L7.3866 2.8627C7.49642 2.73323 7.84337 2.32771 7.84337 2.32771Z" fill="#D60000" stroke="#67211F" stroke-width="0.00737995"/>
<path d="M8.05995 2.93582C8.06072 2.61956 8.06816 2.42344 8.0899 2.04907L7.38601 2.86254C7.36094 3.18526 7.35497 3.36328 7.34857 3.676L8.05995 2.93582Z" fill="#007FFF" stroke="#67211F" stroke-width="0.00590396"/>
<path d="M7.88772 3.11183L7.53578 2.68677L7.38601 2.86265C7.36648 3.18108 7.3571 3.35777 7.34857 3.67613L7.88772 3.11183Z" fill="#398F00" stroke="#67211F" stroke-width="0.00590396"/>
<path d="M7.91767 3.85181L7.57322 3.44141L7.34857 3.67592C7.35606 4.00571 7.37852 4.15228 7.40102 4.42344L7.91767 3.85181Z" fill="#D60000" stroke="#67211F" stroke-width="0.00590396"/>
<path d="M7.88795 4.68751L7.54349 4.26978L7.40122 4.42368C7.46112 4.76079 7.4761 4.84874 7.53601 5.09791L7.88795 4.68751Z" fill="#007FFF" stroke="#67211F" stroke-width="0.00590396"/>
<path d="M7.98264 5.38579L7.64403 4.97339L7.53869 5.09858L7.58625 5.2627L7.98264 5.38579Z" fill="#FF7F00" stroke="#67211F" stroke-width="0.00590396"/>
<path d="M8.09893 3.65412C8.07229 3.40775 8.06223 3.25578 8.06149 2.93591L7.57476 3.44159C7.79941 3.70542 7.75448 3.64679 7.91922 3.85199L8.09893 3.65412Z" fill="#FF7F00" stroke="#67211F" stroke-width="0.00590396"/>
<path d="M8.18949 4.33561C8.15954 4.10842 8.1221 3.99116 8.09964 3.66138L7.54551 4.26965C7.76473 4.54949 7.72114 4.48664 7.88997 4.67999L8.18949 4.33561Z" fill="#398F00" stroke="#67211F" stroke-width="0.00590396"/>
<path d="M8.36089 4.98806C8.2935 4.74622 8.25606 4.64362 8.18867 4.33582L7.64203 4.97341C7.81426 5.19326 7.81426 5.19326 7.98649 5.39114L8.36089 4.98806Z" fill="#D60000" stroke="#67211F" stroke-width="0.00590396"/>
<path d="M8.57694 5.55848C8.40387 5.34491 8.41474 5.35549 8.23415 5.1272L7.97547 5.3805C8.2929 5.46392 8.28734 5.46207 8.28734 5.46207L8.57694 5.55848Z" fill="#398F00" stroke="#67211F" stroke-width="0.00590396"/>
<path d="M8.36078 4.98779L8.23286 5.12772L8.56394 5.54012H8.57147L8.36078 4.98779Z" fill="#007FFF" stroke="#67211F" stroke-width="0.00590396"/>
<path d="M8.13766 4.00022L8.10004 3.66882L8.05489 3.71301L7.98717 3.78665L8.13766 4.00022Z" fill="#007FFF" stroke="#67211F" stroke-width="0.00590396"/>
<g filter="url(#filter0_d_1206_12085)">
<path d="M9.08755 2.75526L9.20844 2.5682C9.20844 2.5682 9.33977 3.11683 9.24808 3.4678C9.17517 3.74687 8.90638 4.11102 8.90638 4.11102C8.78334 4.42544 8.79122 4.59789 8.8579 4.90292L8.61257 5.19167C8.61257 5.19167 8.53672 4.79185 8.41415 4.59577C8.23632 4.31129 7.94291 4.38865 7.76197 4.1386C7.49406 3.76837 7.63297 2.98674 7.63297 2.98674L7.85036 3.17514C7.85036 3.17514 7.9821 2.98053 8.11085 2.70123C8.15696 2.60121 8.20268 2.49032 8.24183 2.37363C8.30168 2.19524 8.36832 1.90838 8.36832 1.90838L8.49399 2.16583L8.59505 2.02894C8.59505 2.02894 8.60387 2.22627 8.64116 2.33661C8.72675 2.58986 8.82505 2.68205 9.08755 2.75526Z" fill="url(#paint1_linear_1206_12085)"/>
<path d="M9.08755 2.75526C9.13476 2.68221 9.20844 2.5682 9.20844 2.5682C9.20844 2.5682 9.33977 3.11683 9.24808 3.4678C9.17517 3.74687 8.90638 4.11102 8.90638 4.11102C8.78334 4.42544 8.79122 4.59789 8.8579 4.90292L8.61257 5.19167C8.61257 5.19167 8.53672 4.79185 8.41415 4.59577C8.23632 4.31129 7.94291 4.38865 7.76197 4.1386C7.49406 3.76837 7.63297 2.98674 7.63297 2.98674L7.85036 3.17514M9.08755 2.75526C8.82505 2.68205 8.72675 2.58986 8.64116 2.33661C8.60387 2.22627 8.59505 2.02894 8.59505 2.02894L8.49399 2.16583M9.08755 2.75526C9.08035 2.78174 8.86922 3.23835 8.86922 3.23835C8.86922 3.23835 8.70412 2.92189 8.62988 2.7073M7.85036 3.17514C7.97472 3.31832 7.99343 3.4119 8.02868 3.57779L8.19008 2.98414L8.43634 3.3486L8.47935 2.55526L8.62988 2.7073M7.85036 3.17514C7.85036 3.17514 7.9821 2.98053 8.11085 2.70123C8.15696 2.60121 8.20268 2.49032 8.24183 2.37363C8.30168 2.19524 8.36832 1.90838 8.36832 1.90838L8.49399 2.16583M8.49399 2.16583C8.49399 2.16583 8.5585 2.50096 8.62988 2.7073" stroke="#F8F7FC" stroke-width="0.0365292"/>
</g>
<path d="M13.8092 6.49556C13.7093 6.35809 13.6468 6.23313 13.5718 6.12066C13.5168 6.02194 13.4456 5.93196 13.3594 5.85823C13.3219 5.83324 13.2969 5.80825 13.2719 5.79575C13.2456 5.7795 13.2156 5.77201 13.1844 5.77076C13.0957 5.76076 13.0044 5.77326 12.922 5.80825C12.807 5.84824 12.6945 5.89322 12.5846 5.94571C12.4721 6.00819 12.3596 6.07067 12.2347 6.14565C12.0097 6.29561 11.7723 6.45807 11.5349 6.62052C11.4074 6.7055 11.2349 6.67176 11.1475 6.54554C11.0725 6.44182 11.0837 6.29936 11.1724 6.20814C11.3711 5.9782 11.5936 5.76826 11.8348 5.58331C12.0947 5.37712 12.3859 5.21216 12.697 5.09594C12.8907 5.03346 13.0957 5.01722 13.2969 5.04596C13.4118 5.06845 13.5218 5.11094 13.6218 5.17092C13.718 5.22466 13.803 5.29714 13.8717 5.38336C13.9904 5.51958 14.0842 5.67578 14.1466 5.84574C14.2091 5.99569 14.2591 6.13316 14.2966 6.24563V6.25812C14.3491 6.40558 14.2716 6.56804 14.1229 6.62052H14.1216C14.0017 6.64301 13.8805 6.59428 13.8092 6.49556Z" fill="#422B0D"/>
<defs>
<filter id="filter0_d_1206_12085" x="7.57867" y="1.854" width="1.84716" height="3.49072" filterUnits="userSpaceOnUse" color-interpolation-filters="sRGB">
<feFlood flood-opacity="0" result="BackgroundImageFix"/>
<feColorMatrix in="SourceAlpha" type="matrix" values="0 0 0 0 0 0 0 0 0 0 0 0 0 0 0 0 0 0 127 0" result="hardAlpha"/>
<feOffset dx="0.0737995" dy="0.0590396"/>
<feGaussianBlur stdDeviation="0.0265678"/>
<feComposite in2="hardAlpha" operator="out"/>
<feColorMatrix type="matrix" values="0 0 0 0 0 0 0 0 0 0 0 0 0 0 0 0 0 0 0.25 0"/>
<feBlend mode="normal" in2="BackgroundImageFix" result="effect1_dropShadow_1206_12085"/>
<feBlend mode="normal" in="SourceGraphic" in2="effect1_dropShadow_1206_12085" result="shape"/>
</filter>
<radialGradient id="paint0_radial_1206_12085" cx="0" cy="0" r="1" gradientUnits="userSpaceOnUse" gradientTransform="translate(9.93314 9.89169) scale(7.11802 7.11799)">
<stop offset="0.5" stop-color="#FDE030"/>
<stop offset="0.92" stop-color="#F7C02B"/>
<stop offset="1" stop-color="#F4A223"/>
</radialGradient>
<linearGradient id="paint1_linear_1206_12085" x1="8.77026" y1="2.01453" x2="7.97567" y2="5.02348" gradientUnits="userSpaceOnUse">
<stop stop-color="#C9C9C9"/>
<stop offset="1" stop-color="#939297"/>
</linearGradient>
</defs>
</svg>
