<svg width="18" height="18" viewBox="0 0 18 18" fill="none" xmlns="http://www.w3.org/2000/svg">
<path d="M9.27429 17.1516C5.87194 17.1516 2.20129 14.8603 2.20129 9.83244C2.20129 4.80463 5.87194 2.51331 9.27429 2.51331C11.1645 2.51331 12.9084 3.18106 14.201 4.39874C15.6034 5.73425 16.3473 7.61968 16.3473 9.83244C16.3473 12.0452 15.6034 13.9175 14.201 15.2531C12.9084 16.4707 11.1523 17.1516 9.27429 17.1516Z" fill="url(#paint0_radial_1193_633)"/>
<path d="M15.1104 5.48486C15.7604 6.61088 16.0994 7.95164 16.0994 9.44296C16.0994 11.6557 15.3555 13.5281 13.9531 14.8636C12.6605 16.0812 10.9044 16.7621 9.02641 16.7621C6.82402 16.7621 4.51432 15.7997 3.15094 13.7585C4.4631 16.0708 6.93134 17.1549 9.2703 17.1549C11.1483 17.1549 12.9044 16.474 14.197 15.2564C15.5994 13.9209 16.3433 12.0485 16.3433 9.83576C16.3433 8.16768 15.9201 6.68552 15.1104 5.48486Z" fill="#EB8F00"/>
<path d="M9.31923 13.8809C7.91561 13.8809 6.91319 13.0953 6.61198 12.6056C6.49857 12.4472 6.4754 12.2351 6.55101 12.0531C6.60832 11.9365 6.72173 11.8645 6.8449 11.8684C6.89002 11.8684 6.93514 11.8763 6.97782 11.8907C7.73756 12.1369 8.52657 12.2599 9.31923 12.2547C10.1119 12.2599 10.9021 12.1369 11.6606 11.8907C11.7033 11.8763 11.7484 11.8684 11.7936 11.8684C11.9167 11.8645 12.0301 11.9365 12.0875 12.0531C12.1631 12.2351 12.1399 12.4472 12.0265 12.6056C11.7253 13.0979 10.7229 13.8809 9.31923 13.8809Z" fill="#422B0D"/>
<path d="M16.6387 7.54639C16.6387 7.54639 16.1192 7.55817 16.1192 8.00465C16.1192 9.1071 16.1314 11.4731 13.4363 11.4731C11.2827 11.4731 10.2547 10.279 10.0815 8.96046C10.0108 8.41185 9.83762 7.8148 9.3169 7.8148C8.79618 7.8148 8.62789 8.40792 8.55716 8.96046C8.38399 10.279 7.35597 11.4731 5.20236 11.4731C2.51218 11.4731 2.5195 9.1071 2.5195 8.00465C2.5195 7.55817 2 7.54639 2 7.54639V6.45441C2.83535 6.33657 3.67679 6.28158 4.51823 6.28943C6.04015 6.28943 6.64623 6.28943 7.85718 6.42037C8.57301 6.49631 9.32056 6.50547 9.32056 6.50547C9.32056 6.50547 10.0644 6.49631 10.7839 6.42037C11.9949 6.28943 12.601 6.28943 14.1229 6.28943C14.9643 6.28158 15.8045 6.33788 16.6387 6.45441V7.54639Z" fill="#422B0D"/>
<path d="M4.09268 8.40838C4.08049 8.61787 4.00244 8.81165 3.81098 8.85093C3.78903 8.85486 3.7683 8.85748 3.74635 8.85748C3.5744 8.85617 3.42685 8.72262 3.40002 8.53931C3.32563 8.17794 3.40734 7.79954 3.62196 7.51018C3.81952 7.25355 4.11464 7.1056 4.42438 7.10691C4.60853 7.08858 4.77194 7.23391 4.78901 7.43162C4.78901 7.43555 4.79023 7.43948 4.79023 7.44471C4.79023 7.69087 4.60731 7.79561 4.42438 7.8637C4.22439 7.96059 4.09512 8.1727 4.09268 8.40838Z" fill="#896024"/>
<path d="M11.8452 8.40838C11.8343 8.61787 11.755 8.81165 11.5648 8.85093C11.5428 8.85486 11.5209 8.85748 11.4989 8.85748C11.3257 8.85748 11.1782 8.72262 11.1501 8.53931C11.0758 8.17794 11.1575 7.79954 11.3721 7.51018C11.5709 7.25355 11.8648 7.1056 12.1757 7.10691C12.3599 7.08858 12.5233 7.23391 12.5404 7.43162C12.5404 7.43555 12.5416 7.43948 12.5416 7.44471C12.5416 7.69087 12.3586 7.79561 12.1757 7.8637C11.9769 7.96059 11.8477 8.1727 11.8452 8.40838Z" fill="#896024"/>
<path d="M5.36009 1.26901H5.86098C5.86098 1.26901 7.9184 0.987991 9.30971 1.0004C10.636 1.01223 12.586 1.26901 12.586 1.26901H13.3743C14.1768 2.59922 14.7535 3.96526 15.0179 5.36848C12.586 5.67479 9.34886 6.3956 9.34886 6.3956C9.34886 6.3956 6.28223 5.75501 3.62653 5.20804C4.03 3.7716 4.52727 2.46805 5.36009 1.26901Z" fill="#7F2125"/>
<path d="M5.36009 1.26901H5.86098C5.86098 1.26901 7.9184 0.987991 9.30971 1.0004C10.636 1.01223 12.586 1.26901 12.586 1.26901H13.3743M5.36009 1.26901C4.52727 2.46805 4.03 3.7716 3.62653 5.20804C6.28223 5.75501 9.34885 6.3956 9.34885 6.3956C9.34885 6.3956 12.586 5.67479 15.0179 5.36848C14.7535 3.96526 14.1768 2.59922 13.3743 1.26901M5.36009 1.26901C6.01161 1.97934 6.93982 1.53312 9.30971 2.07976C11.4554 1.54964 12.4885 2.01452 13.3743 1.26901" stroke="#67211F" stroke-width="0.0593491"/>
<path d="M9.35767 6.38941L9.33484 2.08471C10.948 1.58701 12.1728 1.97557 13.3831 1.29456C13.9102 2.10824 14.7822 3.63181 15.0267 5.35819C13.17 5.57668 10.2175 6.20128 9.35767 6.38941Z" fill="#67211F" stroke="#67211F" stroke-width="0.0372484"/>
<path d="M12.0135 1.68491C12.3798 1.44109 12.6729 1.5986 12.6579 1.24841H13.3808C13.013 1.64067 12.2687 1.62916 12.0135 1.68491Z" fill="#67211F" fill-opacity="0.56"/>
<path d="M6.55622 1.73179C6.18993 1.48548 5.84628 1.61896 5.86134 1.2652L5.38956 1.28025C5.75729 1.67651 6.30097 1.67547 6.55622 1.73179Z" fill="#67211F"/>
<path d="M9.38114 1.30752L9.29887 2.03389L9.44995 2.02343L9.38114 1.30752Z" fill="#67211F" stroke="#67211F" stroke-width="0.0903029"/>
<path d="M7.3964 1.79828C7.13291 1.781 6.97432 1.76461 6.75651 1.74772C6.5499 3.31094 6.4513 4.38072 6.99197 5.88094C7.34536 5.95917 7.71406 6.00744 8.06751 6.07816C7.30447 4.63116 7.28194 3.25087 7.3964 1.79828Z" fill="#D60000" stroke="#67211F" stroke-width="0.0372484"/>
<path d="M6.96785 1.77074L6.77967 1.7541L6.73953 2.03972L6.96785 1.77074Z" fill="#398F00" stroke="#67211F" stroke-width="0.00752524"/>
<path d="M6.6468 2.83906L7.36968 2.00236L7.37884 1.81431L6.96487 1.77318L6.73655 2.04215L6.6468 2.83906Z" fill="#FF7F00" stroke="#67211F" stroke-width="0.00752524"/>
<path d="M7.11895 2.28687C7.11895 2.28687 6.89272 2.02409 6.81298 1.95318L6.73687 2.04284L6.65471 2.83228C6.76634 2.70028 7.11895 2.28687 7.11895 2.28687Z" fill="#D60000" stroke="#67211F" stroke-width="0.00752524"/>
<path d="M7.33023 2.91035C7.33381 2.58564 7.34304 2.38433 7.36823 2.00014L6.65294 2.82937C6.62486 3.1605 6.61727 3.34323 6.60805 3.66426L7.33023 2.91035Z" fill="#007FFF" stroke="#67211F" stroke-width="0.00602019"/>
<path d="M7.16107 3.09207L6.81081 2.65265L6.6586 2.83197C6.63612 3.15874 6.62512 3.34008 6.61371 3.66688L7.16107 3.09207Z" fill="#398F00" stroke="#67211F" stroke-width="0.00602019"/>
<path d="M7.18505 3.85188L6.84219 3.42757L6.61413 3.66645C6.61873 4.00511 6.64003 4.1558 6.66025 4.4344L7.18505 3.85188Z" fill="#D60000" stroke="#67211F" stroke-width="0.00602019"/>
<path d="M7.14824 4.70874L6.80544 4.27691L6.66096 4.43371C6.71822 4.78035 6.73251 4.87077 6.79056 5.12712L7.14824 4.70874Z" fill="#007FFF" stroke="#67211F" stroke-width="0.00602019"/>
<path d="M7.23097 5.42513L6.89565 5.00089L6.78909 5.12792C6.86915 5.45217 6.87674 5.44471 6.94992 5.69366L7.23097 5.42513Z" fill="#FF7F00" stroke="#67211F" stroke-width="0.00602019"/>
<path d="M7.40774 5.94332L7.10228 5.54943L6.95039 5.69112C6.97247 5.75151 7.00195 5.82701 7.01669 5.86476L7.01669 5.86476L7.40774 5.94332Z" fill="#007FFF" stroke="#67211F" stroke-width="0.00602019"/>
<path d="M7.36353 3.65074C7.33891 3.39756 7.33015 3.24144 7.33224 2.91301L6.83813 3.42807C7.06177 3.70086 7.01709 3.64029 7.18099 3.85237L7.36353 3.65074Z" fill="#FF7F00" stroke="#67211F" stroke-width="0.00602019"/>
<path d="M7.4509 4.34978C7.42279 4.11626 7.38617 3.99555 7.3665 3.65675L6.80368 4.27658C7.02171 4.56576 6.97842 4.50086 7.14654 4.70081L7.4509 4.34978Z" fill="#398F00" stroke="#67211F" stroke-width="0.00602019"/>
<path d="M7.61447 5.02279C7.54882 4.7739 7.51207 4.66824 7.44701 4.35163L6.89146 5.00162C7.06276 5.22882 7.06276 5.22882 7.23426 5.43345L7.61447 5.02279Z" fill="#D60000" stroke="#67211F" stroke-width="0.00602019"/>
<path d="M7.81453 5.58673C7.64316 5.36705 7.6655 5.39734 7.48673 5.16255L7.09919 5.55058C7.27048 5.77778 7.24068 5.7399 7.39711 5.9444L7.81453 5.58673Z" fill="#398F00" stroke="#67211F" stroke-width="0.00602019"/>
<path d="M7.61423 5.02098L7.48494 5.16286L7.81273 5.58704L7.82026 5.58711L7.61423 5.02098Z" fill="#007FFF" stroke="#67211F" stroke-width="0.00602019"/>
<path d="M7.40123 4.00242L7.3665 3.66349L7.32091 3.70826L7.25247 3.78293L7.40123 4.00242Z" fill="#007FFF" stroke="#67211F" stroke-width="0.00602019"/>
<path d="M7.60399 5.77419L7.82413 5.5804C7.90235 5.7739 7.95057 5.87722 8.04601 6.05636L7.77522 6.00892L7.60399 5.77419Z" fill="#FF7F00" stroke="#67211F" stroke-width="0.00451515"/>
<g filter="url(#filter0_d_1193_633)">
<path d="M8.54166 2.89286L8.6645 2.70211C8.6645 2.70211 8.79797 3.26154 8.70479 3.61942C8.6307 3.90398 8.35755 4.27531 8.35755 4.27531C8.23252 4.59592 8.24052 4.77176 8.30829 5.08279L8.05898 5.37723C8.05898 5.37723 7.9819 4.96954 7.85735 4.7696C7.67664 4.47951 7.37847 4.5584 7.1946 4.30343C6.92235 3.92591 7.06351 3.12889 7.06351 3.12889L7.28442 3.321C7.28442 3.321 7.41829 3.12255 7.54913 2.83776C7.59598 2.73576 7.64245 2.6227 7.68223 2.50371C7.74305 2.32181 7.81077 2.0293 7.81077 2.0293L7.93848 2.29182L8.04118 2.15223C8.04118 2.15223 8.05013 2.35345 8.08803 2.46596C8.17501 2.72419 8.27491 2.8182 8.54166 2.89286Z" fill="#939297"/>
<path d="M8.54166 2.89286C8.58963 2.81837 8.6645 2.70211 8.6645 2.70211C8.6645 2.70211 8.79797 3.26154 8.70479 3.61942C8.6307 3.90398 8.35755 4.27531 8.35755 4.27531C8.23252 4.59592 8.24052 4.77176 8.30829 5.08279L8.05898 5.37723C8.05898 5.37723 7.9819 4.96954 7.85735 4.7696C7.67664 4.47951 7.37847 4.5584 7.1946 4.30343C6.92235 3.92591 7.06351 3.12889 7.06351 3.12889L7.28442 3.321M8.54166 2.89286C8.27491 2.8182 8.17501 2.72419 8.08803 2.46596C8.05013 2.35345 8.04118 2.15223 8.04118 2.15223L7.93848 2.29182M8.54166 2.89286C8.53434 2.91985 8.31979 3.38545 8.31979 3.38545C8.31979 3.38545 8.15201 3.06277 8.07657 2.84394M7.28442 3.321C7.41079 3.467 7.42981 3.56242 7.46562 3.73158L7.62964 3.12624L7.87989 3.49787M7.28442 3.321C7.28442 3.321 7.41829 3.12255 7.54913 2.83776C7.59598 2.73577 7.64245 2.6227 7.68223 2.50371C7.74305 2.32181 7.81077 2.0293 7.81077 2.0293L7.93848 2.29182M7.93848 2.29182C7.93848 2.29182 8.00403 2.63354 8.07657 2.84394M8.07657 2.84394L7.92361 2.68892L7.87989 3.49787M7.87989 3.49787L7.85735 3.89762" stroke="#F8F7FC" stroke-width="0.0372484"/>
</g>
<defs>
<filter id="filter0_d_1193_633" x="7.00827" y="1.97375" width="1.87766" height="3.5597" filterUnits="userSpaceOnUse" color-interpolation-filters="sRGB">
<feFlood flood-opacity="0" result="BackgroundImageFix"/>
<feColorMatrix in="SourceAlpha" type="matrix" values="0 0 0 0 0 0 0 0 0 0 0 0 0 0 0 0 0 0 127 0" result="hardAlpha"/>
<feOffset dx="0.0752524" dy="0.0602019"/>
<feGaussianBlur stdDeviation="0.0270909"/>
<feComposite in2="hardAlpha" operator="out"/>
<feColorMatrix type="matrix" values="0 0 0 0 0 0 0 0 0 0 0 0 0 0 0 0 0 0 0.25 0"/>
<feBlend mode="normal" in2="BackgroundImageFix" result="effect1_dropShadow_1193_633"/>
<feBlend mode="normal" in="SourceGraphic" in2="effect1_dropShadow_1193_633" result="shape"/>
</filter>
<radialGradient id="paint0_radial_1193_633" cx="0" cy="0" r="1" gradientUnits="userSpaceOnUse" gradientTransform="translate(9.27429 9.83243) scale(6.94614 7.45789)">
<stop offset="0.5" stop-color="#FDE030"/>
<stop offset="0.92" stop-color="#F7C02B"/>
<stop offset="1" stop-color="#F4A223"/>
</radialGradient>
</defs>
</svg>
