<svg width="18" height="18" viewBox="0 0 18 18" fill="none" xmlns="http://www.w3.org/2000/svg">
<path d="M9.04115 3.13159C5.40822 3.13159 2.04396 5.65678 2.04396 10.1704C2.04396 14.7206 5.40822 17.2214 9.04115 17.2214C12.6741 17.2214 16.0383 14.7816 16.0383 10.1704C16.0267 5.59579 12.6624 3.13159 9.04115 3.13159Z" fill="url(#paint0_radial_1193_715)"/>
<path d="M5.60516 11.5128C7.08663 11.5128 8.28759 10.2587 8.28759 8.71156C8.28759 7.16445 7.08663 5.91028 5.60516 5.91028C4.1237 5.91028 2.92273 7.16445 2.92273 8.71156C2.92273 10.2587 4.1237 11.5128 5.60516 11.5128Z" fill="#4FC3F7"/>
<path d="M12.4758 11.5128C13.9572 11.5128 15.1582 10.2587 15.1582 8.71156C15.1582 7.16445 13.9572 5.91028 12.4758 5.91028C10.9943 5.91028 9.79333 7.16445 9.79333 8.71156C9.79333 10.2587 10.9943 11.5128 12.4758 11.5128Z" fill="#4FC3F7"/>
<path d="M4.67423 6.30443L4.35963 6.59412L7.32981 10.1119L7.64441 9.82219L4.67423 6.30443Z" fill="#E1F5FE"/>
<path d="M4.09697 6.83716L3.36795 7.54724L6.33779 11.0659L7.06681 10.3546L4.09697 6.83716Z" fill="#E1F5FE"/>
<path d="M11.7468 6.30102L11.4323 6.5907L14.4024 10.1084L14.717 9.81877L11.7468 6.30102Z" fill="#E1F5FE"/>
<path d="M11.1696 6.83374L10.4406 7.54382L13.4104 11.0625L14.1406 10.3512L11.1696 6.83374Z" fill="#E1F5FE"/>
<path d="M12.8622 12.9633C12.9007 12.6486 12.7944 12.3058 12.6169 12.0569C12.5935 12.024 12.5433 12.0398 12.5421 12.0801C12.5339 12.2887 12.4627 12.7096 12.0316 12.8657C11.2174 13.1609 10.8144 11.7215 9.63575 11.8373C9.37993 11.863 9.18485 11.9813 9.0435 12.157C9.04234 12.1557 9.04117 12.1545 9.04117 12.1545C9.04 12.1557 9.03883 12.157 9.03883 12.157C8.89749 11.9813 8.70241 11.8617 8.44658 11.8373C7.26676 11.7215 6.86375 13.1609 6.05072 12.8657C5.61967 12.7096 5.54842 12.2887 5.54024 12.0801C5.53907 12.0398 5.48884 12.024 5.46548 12.0569C5.28792 12.3058 5.18045 12.6486 5.22017 12.9633C5.2961 13.5733 5.85914 13.7538 5.85914 13.7538C5.70261 13.9075 5.55192 13.9478 5.37086 13.9331C5.31245 13.9283 5.27507 14.0014 5.31128 14.049C5.73532 14.6199 6.51447 14.7993 7.08336 14.4272C7.04948 14.5419 6.99575 14.6492 6.92683 14.7395C6.89879 14.7773 6.91164 14.8334 6.95486 14.8517C7.68145 15.1579 8.43607 15.0176 9.04234 14.4028C9.64744 15.0176 10.4032 15.1579 11.1298 14.8517C11.1719 14.8334 11.1859 14.7773 11.1578 14.7395C11.0889 14.6492 11.0352 14.5419 11.0013 14.4272C11.569 14.7993 12.3494 14.6199 12.7734 14.049C12.8096 14.0002 12.7722 13.9283 12.7138 13.9331C12.5316 13.9478 12.3821 13.9075 12.2255 13.7538C12.2232 13.7538 12.7874 13.5733 12.8622 12.9633Z" fill="url(#paint1_radial_1193_715)"/>
<path d="M4.77044 4.80501C5.0228 4.95874 5.15014 5.27108 5.15014 5.27108C5.15014 5.27108 4.78914 4.99168 4.19914 5.40163C3.8837 5.62002 3.87202 5.78961 3.49699 5.93114C3.45493 5.947 3.44208 6.00556 3.47596 6.03728C3.68158 6.22761 3.91291 6.38744 4.1711 6.48627C4.60338 6.6522 5.04383 6.4094 5.49012 6.39476C6.08829 6.37402 6.86288 6.55093 7.39446 6.86571C7.54517 6.41673 7.53816 5.91284 7.37577 5.46873C7.22856 5.06733 6.95635 4.71839 6.6117 4.48414C6.5673 4.45363 6.51005 4.49146 6.51706 4.54636L6.61053 5.20764C6.34182 4.78183 5.92006 4.52562 5.4282 4.5427C5.22725 4.55002 4.96672 4.59028 4.77161 4.69277C4.72955 4.71595 4.72955 4.77939 4.77044 4.80501Z" fill="url(#paint2_radial_1193_715)"/>
<path d="M13.3146 4.80465C13.0622 4.95838 12.9349 5.27071 12.9349 5.27071C12.9349 5.27071 13.2959 4.99132 13.8859 5.40126C14.2013 5.61965 14.213 5.78924 14.588 5.93077C14.6301 5.94663 14.6429 6.0052 14.609 6.03692C14.4034 6.22725 14.1721 6.38708 13.9139 6.4859C13.4816 6.65183 13.0412 6.40904 12.5949 6.3944C11.9967 6.37366 11.2221 6.55057 10.6905 6.86534C10.5398 6.41636 10.5468 5.91247 10.7092 5.46837C10.8564 5.06696 11.1287 4.71802 11.4733 4.48377C11.5177 4.45327 11.5749 4.49109 11.5679 4.54599L11.4745 5.20727C11.7432 4.78147 12.1649 4.52525 12.6568 4.54233C12.8578 4.54965 13.1183 4.58992 13.3134 4.6924C13.3554 4.71558 13.3554 4.77903 13.3146 4.80465Z" fill="url(#paint3_radial_1193_715)"/>
<path d="M5.60516 6.55697C6.73959 6.55697 7.66372 7.52083 7.66372 8.70674C7.66372 9.89264 6.74075 10.8565 5.60516 10.8565C4.46957 10.8565 3.54661 9.89264 3.54661 8.70674C3.54661 7.52083 4.46957 6.55697 5.60516 6.55697ZM5.60516 5.90546C4.12375 5.90546 2.92273 7.15969 2.92273 8.70674C2.92273 10.2538 4.12375 11.508 5.60516 11.508C7.08657 11.508 8.28759 10.2538 8.28759 8.70674C8.28759 7.15969 7.08657 5.90546 5.60516 5.90546Z" fill="#212121"/>
<path d="M12.475 6.55655C13.6094 6.55655 14.5335 7.5204 14.5335 8.70631C14.5335 9.89221 13.6106 10.8561 12.475 10.8561C11.3394 10.8561 10.4164 9.89221 10.4164 8.70631C10.4164 7.5204 11.3405 6.55655 12.475 6.55655ZM12.475 5.90503C10.9936 5.90503 9.79254 7.15926 9.79254 8.70631C9.79254 10.2534 10.9936 11.5076 12.475 11.5076C13.9564 11.5076 15.1574 10.2534 15.1574 8.70631C15.1574 7.15926 13.9564 5.90503 12.475 5.90503Z" fill="#212121"/>
<path d="M15.0209 9.6201C15.1401 9.26506 15.6845 9.08571 15.9462 9.01861C16.0292 8.99787 16.0888 8.91978 16.0888 8.83072V8.4464C16.0888 8.34269 16.0117 8.25851 15.9124 8.25363C15.6483 8.2402 15.1658 8.17066 15.0361 7.84856C14.8527 7.39714 14.8632 10.0923 15.0209 9.6201Z" fill="url(#paint4_linear_1193_715)"/>
<path d="M10.0228 7.58788C10.0216 7.58788 9.98303 7.74771 9.76923 7.74771C9.56011 7.74771 9.46197 7.56714 9.04255 7.56714C8.62313 7.56714 8.52499 7.74771 8.31586 7.74771C8.10206 7.74771 8.06234 7.5891 8.06234 7.58788C7.99691 7.5464 8.03313 8.32846 8.03313 8.32846C8.05533 8.40533 8.18034 9.16665 8.24927 9.17641C8.24927 9.17641 8.5355 8.65056 9.04255 8.64446C9.54842 8.65056 9.83583 9.17641 9.83583 9.17641C9.90476 9.16665 10.0298 8.40533 10.052 8.32846C10.052 8.32846 10.087 7.5464 10.0228 7.58788Z" fill="#212121"/>
<path d="M3.06783 9.6201C2.94866 9.26506 2.40423 9.08571 2.14253 9.01861C2.05958 8.99787 2 8.91978 2 8.83072V8.4464C2 8.34269 2.07711 8.25851 2.17641 8.25363C2.44045 8.2402 2.92296 8.17066 3.05264 7.84856C3.23607 7.39714 3.22555 10.0923 3.06783 9.6201Z" fill="url(#paint5_linear_1193_715)"/>
<path d="M10.0452 9.88545C9.77416 8.93989 9.63046 8.37988 9.04631 8.37744C9.04514 8.37744 9.04397 8.37744 9.0428 8.37744C9.04164 8.37744 9.04047 8.37744 9.0393 8.37744C8.45631 8.37866 8.31261 8.93989 8.0404 9.88545C7.71327 11.0226 6.6209 11.8388 7.1665 12.6086C7.36278 12.8844 7.63499 12.8795 7.80089 12.9234C7.96446 12.9673 8.28925 13.7579 9.0393 13.7579C9.04047 13.7579 9.04164 13.7579 9.0428 13.7579C9.04397 13.7579 9.04514 13.7579 9.04631 13.7579C9.79636 13.7579 10.1212 12.9686 10.2847 12.9234C10.4506 12.8783 10.7228 12.8844 10.9191 12.6086C11.4647 11.8376 10.3723 11.0226 10.0452 9.88545Z" fill="url(#paint6_linear_1193_715)"/>
<path d="M8.25538 10.7271C8.45983 10.2745 8.51357 9.47168 8.51357 9.47168C8.51357 9.47168 8.32314 9.69251 7.93526 10.2794C7.85698 10.3989 7.70394 10.6551 7.61398 10.8125C7.25648 11.4433 6.78565 12.0655 7.16885 12.6048C7.36513 12.8806 7.63734 12.8757 7.80324 12.9196C7.85348 12.933 7.91891 13.016 8.00536 13.1246C8.00536 13.1246 7.7495 12.6475 7.80324 12.1595C7.85698 11.6715 8.05092 11.1798 8.25538 10.7271Z" fill="url(#paint7_radial_1193_715)"/>
<path d="M9.83432 10.7271C9.62987 10.2745 9.57613 9.47168 9.57613 9.47168C9.57613 9.47168 9.76656 9.69251 10.1544 10.2794C10.2327 10.3989 10.3858 10.6551 10.4757 10.8125C10.8332 11.4433 11.3041 12.0655 10.9208 12.6048C10.7246 12.8806 10.4524 12.8757 10.2865 12.9196C10.2362 12.933 10.1708 13.016 10.0843 13.1246C10.0843 13.1246 10.3402 12.6475 10.2865 12.1595C10.2327 11.6715 10.0388 11.1798 9.83432 10.7271Z" fill="url(#paint8_radial_1193_715)"/>
<path d="M13.734 4.67049C11.7981 3.57596 10.7699 3.54744 9.01739 4.34659C7.09788 3.69093 6.06065 3.62361 4.36255 4.67049L5.17268 2.54487L9.01739 1.16827L13.4319 2.69332L13.734 4.67049Z" fill="#574D4D"/>
<path d="M9.01739 1.16827V4.34659M9.01739 1.16827L13.4319 2.69332L13.734 4.67049C11.7981 3.57596 10.7699 3.54744 9.01739 4.34659M9.01739 1.16827L5.17268 2.54487L4.36255 4.67049C6.06065 3.62361 7.09788 3.69093 9.01739 4.34659" stroke="#342B2C" stroke-width="0.323904"/>
<path d="M13.5124 2.64605L8.97893 1.0437L8.99429 4.45709C10.9585 3.60406 11.9606 3.78449 13.8214 4.81249L13.5124 2.64605Z" fill="#342B2C"/>
<defs>
<radialGradient id="paint0_radial_1193_715" cx="0" cy="0" r="1" gradientUnits="userSpaceOnUse" gradientTransform="translate(9.04115 10.1765) scale(6.87276 7.17726)">
<stop offset="0.5" stop-color="#FDE030"/>
<stop offset="0.9188" stop-color="#F7C02B"/>
<stop offset="1" stop-color="#F4A223"/>
</radialGradient>
<radialGradient id="paint1_radial_1193_715" cx="0" cy="0" r="1" gradientUnits="userSpaceOnUse" gradientTransform="translate(9.04144 13.1554) scale(3.95089 1.90494)">
<stop offset="0.0323"/>
<stop offset="1" stop-color="#424242"/>
</radialGradient>
<radialGradient id="paint2_radial_1193_715" cx="0" cy="0" r="1" gradientUnits="userSpaceOnUse" gradientTransform="translate(5.95544 6.44819) rotate(0.374648) scale(2.57816 1.82839)">
<stop offset="0.0323"/>
<stop offset="0.9664" stop-color="#424242"/>
</radialGradient>
<radialGradient id="paint3_radial_1193_715" cx="0" cy="0" r="1" gradientUnits="userSpaceOnUse" gradientTransform="translate(12.2116 6.39067) rotate(179.625) scale(2.38909 1.29537)">
<stop offset="0.0323"/>
<stop offset="1" stop-color="#424242"/>
</radialGradient>
<linearGradient id="paint4_linear_1193_715" x1="14.8449" y1="8.73613" x2="16.0333" y2="8.73613" gradientUnits="userSpaceOnUse">
<stop offset="0.4463" stop-color="#212121"/>
<stop offset="0.7484" stop-color="#323232"/>
<stop offset="0.9664" stop-color="#424242"/>
</linearGradient>
<linearGradient id="paint5_linear_1193_715" x1="3.24386" y1="8.73613" x2="2.05552" y2="8.73613" gradientUnits="userSpaceOnUse">
<stop offset="0.4463" stop-color="#212121"/>
<stop offset="0.7484" stop-color="#323232"/>
<stop offset="0.9664" stop-color="#424242"/>
</linearGradient>
<linearGradient id="paint6_linear_1193_715" x1="9.04397" y1="4.91407" x2="9.04397" y2="9.31309" gradientUnits="userSpaceOnUse">
<stop offset="0.5" stop-color="#FDE030"/>
<stop offset="1" stop-color="#F7C02B"/>
</linearGradient>
<radialGradient id="paint7_radial_1193_715" cx="0" cy="0" r="1" gradientUnits="userSpaceOnUse" gradientTransform="translate(8.38238 12.4781) rotate(16.4586) scale(1.34887 1.66405)">
<stop offset="0.000198287" stop-color="#B36E00"/>
<stop offset="0.7126" stop-color="#C77B00" stop-opacity="0.2874"/>
<stop offset="1" stop-color="#D18100" stop-opacity="0"/>
</radialGradient>
<radialGradient id="paint8_radial_1193_715" cx="0" cy="0" r="1" gradientUnits="userSpaceOnUse" gradientTransform="translate(9.70703 12.4781) rotate(163.541) scale(1.34887 1.66405)">
<stop offset="0.000198287" stop-color="#B36E00"/>
<stop offset="0.7126" stop-color="#C77B00" stop-opacity="0.2874"/>
<stop offset="1" stop-color="#D18100" stop-opacity="0"/>
</radialGradient>
</defs>
</svg>
