<svg width="19" height="19" viewBox="0 0 19 19" fill="none" xmlns="http://www.w3.org/2000/svg">
<g clip-path="url(#clip0_1200_6375)">
<path d="M9.91565 16.8333C6.4291 16.8333 2.66763 14.6464 2.66763 9.84774C2.66763 5.04908 6.4291 2.86218 9.91565 2.86218C11.8526 2.86218 13.6396 3.49951 14.9643 4.66168C16.4014 5.93633 17.1637 7.73583 17.1637 9.84774C17.1637 11.9597 16.4014 13.7467 14.9643 15.0213C13.6396 16.1835 11.8401 16.8333 9.91565 16.8333Z" fill="url(#paint0_radial_1200_6375)"/>
<path d="M15.9005 5.69409C16.5666 6.76879 16.914 8.04844 16.914 9.47179C16.914 11.5837 16.1517 13.3707 14.7146 14.6454C13.3899 15.8075 11.5904 16.4574 9.66595 16.4574C7.40907 16.4574 5.04221 15.5389 3.6451 13.5906C4.98973 15.7975 7.51904 16.8322 9.91588 16.8322C11.8404 16.8322 13.6399 16.1824 14.9645 15.0203C16.4016 13.7456 17.1639 11.9586 17.1639 9.84669C17.1639 8.25463 16.7303 6.84002 15.9005 5.69409Z" fill="#EB8F00"/>
<path d="M9.91522 16.8322C6.42868 16.8322 2.66721 14.6453 2.66721 9.84664C2.66721 5.04798 6.42868 2.86108 9.91522 2.86108C11.8522 2.86108 13.6392 3.49841 14.9638 4.66058C16.4009 5.93523 17.1632 7.73473 17.1632 9.84664C17.1632 11.9586 16.4009 13.7456 14.9638 15.0202C13.6392 16.1824 11.8397 16.8322 9.91522 16.8322Z" fill="url(#paint1_linear_1200_6375)"/>
<path d="M9.91522 16.8322C6.42868 16.8322 2.66721 14.6453 2.66721 9.84664C2.66721 5.04798 6.42868 2.86108 9.91522 2.86108C11.8522 2.86108 13.6392 3.49841 14.9638 4.66058C16.4009 5.93523 17.1632 7.73473 17.1632 9.84664C17.1632 11.9586 16.4009 13.7456 14.9638 15.0202C13.6392 16.1824 11.8397 16.8322 9.91522 16.8322Z" fill="url(#paint2_linear_1200_6375)"/>
<path d="M15.9005 5.69409C16.5666 6.76879 16.914 8.04844 16.914 9.47179C16.914 11.5837 16.1517 13.3707 14.7146 14.6454C13.3899 15.8075 11.5904 16.4574 9.66595 16.4574C7.40907 16.4574 5.04221 15.5389 3.6451 13.5906C4.98973 15.7975 7.51904 16.8322 9.91588 16.8322C11.8404 16.8322 13.6399 16.1824 14.9645 15.0203C16.4016 13.7456 17.1639 11.9586 17.1639 9.84669C17.1639 8.25463 16.7303 6.84002 15.9005 5.69409Z" fill="#EB8F00"/>
<path d="M9.96599 15.6997C9.2137 15.6947 8.60511 15.0862 8.60011 14.3339V12.7593C8.60011 12.0045 9.2112 11.3934 9.96599 11.3934C10.7208 11.3934 11.3319 12.0045 11.3319 12.7593V14.3351C11.3269 15.0874 10.7183 15.6947 9.96599 15.6997Z" fill="#422B0D"/>
<path d="M7.38 7.21313C7.63493 7.21313 7.88486 7.28686 8.09981 7.42433C8.80461 7.87045 9.09953 8.92391 8.53094 10.0124C8.13854 10.7621 7.54871 11.1083 6.99011 11.1083C6.73518 11.1083 6.48525 11.0346 6.27031 10.8971C5.5655 10.451 5.27058 9.39753 5.83917 8.30908C6.23157 7.55929 6.82016 7.21313 7.38 7.21313Z" fill="white"/>
<path opacity="0.66" d="M16.83 11.1069C16.6587 10.982 16.68 10.8433 16.2051 11.0345C16.0089 11.1144 15.784 11.5643 15.784 11.5643C15.784 11.5643 15.4453 10.887 14.7755 11.788C13.5583 13.4225 13.026 13.3476 12.3099 14.0974C11.8488 14.5772 11.4502 15.0346 11.6039 15.9431C11.6901 16.4505 11.9313 16.5892 11.9313 16.5892C11.9313 16.5892 12.0788 16.5892 13.5259 15.8394C14.973 15.0896 16.2364 14.0286 16.9312 12.3291" fill="url(#paint3_linear_1200_6375)"/>
<path d="M12.9332 14.4204C13.4768 14.008 14.0017 13.6293 14.2491 13.3032C14.4965 12.977 14.7627 12.2934 14.9227 11.8461C15.0826 11.3987 15.5475 11.18 15.7974 11.5624C15.8624 11.6649 15.8112 12.0623 15.7974 12.2147C15.9337 11.9885 16.0299 11.7399 16.0824 11.4812C16.2073 10.8713 16.8447 10.6739 16.9571 11.4937C16.9571 11.4937 17.4307 11.5124 17.2208 12.982C17.1158 13.5543 16.9271 14.1092 16.6585 14.6253C15.9849 15.8949 15.4575 16.4835 14.7752 16.9509C13.708 17.6807 12.697 17.507 12.3809 17.0921C11.841 16.3786 11.986 15.1389 12.9332 14.4204Z" fill="url(#paint4_radial_1200_6375)"/>
<path d="M15.7904 11.5637C15.7904 11.8074 15.5555 12.6559 15.4667 12.8734C15.1606 13.6794 14.602 14.0543 14.7582 14.1817C14.9144 14.3092 15.2131 14.038 15.6442 13.0146C15.7767 12.6659 15.8541 12.2998 15.8716 11.9274C15.8704 11.8012 15.8429 11.6774 15.7904 11.5637Z" fill="#ED6C30"/>
<path d="M16.6139 10.9458C16.7726 11.0145 17.0088 11.4669 16.6552 12.7341C16.4365 13.6913 15.7092 14.4361 15.8841 14.5198C16.0903 14.6585 16.5614 13.8775 16.8951 12.7953C16.9826 12.4679 17.0376 12.133 17.0563 11.7956C17.0613 11.6256 17.0038 10.992 16.6139 10.9458Z" fill="#ED6C30"/>
<path opacity="0.66" d="M3.03263 11.1071C3.20384 10.9821 3.18259 10.8434 3.65746 11.0346C3.85366 11.1146 4.0786 11.5644 4.0786 11.5644C4.0786 11.5644 4.41726 10.8871 5.08707 11.7881C6.30424 13.4227 6.83659 13.3477 7.55265 14.0975C8.01252 14.5773 8.41116 15.0347 8.25745 15.9432C8.17248 16.4506 7.93129 16.5893 7.93129 16.5893C7.93129 16.5893 7.69136 16.5893 6.54042 16.0019C6.4417 15.952 6.45045 15.9007 6.33673 15.8407C4.88963 15.091 3.62622 14.03 2.93141 12.3305" fill="url(#paint5_linear_1200_6375)"/>
<path d="M6.93143 14.4205C6.38783 14.0081 5.86298 13.6294 5.61554 13.3033C5.36811 12.9771 5.10193 12.2936 4.94073 11.8462C4.77952 11.3988 4.3159 11.1801 4.07222 11.5625C4.00723 11.665 4.05847 12.0624 4.07222 12.2148C3.93475 11.9887 3.83603 11.74 3.7823 11.4813C3.65733 10.8715 3.02 10.674 2.90754 11.4938C2.90754 11.4938 2.43392 11.5125 2.64386 12.9821C2.74883 13.5545 2.93753 14.1093 3.2062 14.6254C3.87852 15.8951 4.40712 16.4837 5.08944 16.951C6.1554 17.6808 7.16637 17.5071 7.48378 17.0922C8.01989 16.3787 7.87867 15.139 6.93143 14.4205Z" fill="url(#paint6_radial_1200_6375)"/>
<path d="M4.07436 11.5637C4.07436 11.8074 4.3093 12.6559 4.39802 12.8734C4.70419 13.6794 5.26154 14.0543 5.10658 14.1817C4.95162 14.3092 4.65045 14.038 4.21932 13.0146C4.08686 12.6659 4.01063 12.2998 3.99313 11.9274C3.99313 11.8012 4.02063 11.6774 4.07436 11.5637Z" fill="#ED6C30"/>
<path d="M3.25095 10.9459C3.0935 11.0147 2.85731 11.467 3.21096 12.7317C3.42965 13.6889 4.15696 14.4337 3.982 14.5174C3.77581 14.6561 3.30469 13.8751 2.97103 12.7929C2.88355 12.4655 2.82857 12.1306 2.80982 11.7932C2.80483 11.6257 2.86231 10.9922 3.25095 10.9459Z" fill="#ED6C30"/>
<path d="M8.54537 10.0207C8.4529 10.3469 8.2817 10.6443 8.04551 10.888C7.79058 11.1517 7.45442 11.3216 7.09202 11.3716C6.70338 11.4203 6.30974 11.3191 5.99232 11.0904C5.67991 10.863 5.44497 10.5431 5.32126 10.1769C5.29251 10.0882 5.26877 9.99697 5.25127 9.9045C5.23503 9.81327 5.22378 9.7208 5.21753 9.62832L5.20879 9.48461L5.21503 9.34715C5.21878 9.25593 5.22878 9.16595 5.24628 9.07598C5.31501 8.73107 5.45122 8.40241 5.64617 8.11C5.83486 7.81133 6.09229 7.56265 6.39596 7.3827C6.69213 7.204 7.04328 7.13901 7.38444 7.199V7.23524C7.06828 7.24149 6.76086 7.34896 6.50968 7.5414C6.25975 7.7326 6.05356 7.97628 5.90485 8.25371C5.74864 8.52613 5.64367 8.82355 5.59243 9.13346C5.54494 9.44337 5.57119 9.75954 5.66991 10.057C5.76488 10.3544 5.94858 10.6168 6.19727 10.8067C6.44595 11.0004 6.75711 11.0967 7.07203 11.0767C7.38444 11.0542 7.68311 10.9342 7.92429 10.7343C8.16798 10.5331 8.36792 10.2856 8.51288 10.0045L8.54537 10.0207Z" fill="#EB8F00"/>
<path d="M12.5671 7.21106C13.1269 7.21106 13.7155 7.56096 14.1079 8.30701C14.679 9.39045 14.3816 10.4489 13.6768 10.895C13.4618 11.0337 13.2119 11.1075 12.957 11.1075C12.3984 11.1075 11.8085 10.7576 11.4161 10.0115C10.8413 8.92683 11.1425 7.86838 11.8473 7.42225C12.0622 7.28479 12.3121 7.21106 12.5671 7.21106Z" fill="white"/>
<path d="M12.5659 7.19241C12.9071 7.13242 13.2582 7.19741 13.5544 7.37611C13.8581 7.55606 14.1155 7.80474 14.3042 8.1034C14.5004 8.39957 14.6366 8.73073 14.7041 9.07938C14.7203 9.16936 14.7316 9.25933 14.7353 9.35056V9.48802V9.62673C14.7278 9.81293 14.6928 9.99788 14.6328 10.1753C14.5091 10.5415 14.2754 10.8601 13.9618 11.0876C13.6444 11.3175 13.252 11.4175 12.8633 11.3687C12.4972 11.32 12.1585 11.1501 11.9023 10.8851C11.6662 10.6427 11.4937 10.3453 11.4025 10.0191L11.435 10.0016C11.5787 10.2815 11.7774 10.5302 12.0198 10.7327C12.2622 10.9339 12.5609 11.0538 12.8746 11.0763C13.1895 11.0963 13.5007 11.0001 13.7493 10.8064C13.9968 10.6152 14.1805 10.354 14.2754 10.0566C14.3742 9.75919 14.4004 9.44303 14.3529 9.13312C14.3042 8.8232 14.2005 8.52329 14.0455 8.24961C13.8968 7.97219 13.6906 7.72851 13.4407 7.53731C13.1895 7.34486 12.8821 7.23739 12.5659 7.23115V7.19241Z" fill="#EB8F00"/>
<path d="M6.07374 1.21645H6.56777C6.56777 1.21645 8.59701 0.94086 9.96928 0.953028C11.2774 0.964628 13.2007 1.21645 13.2007 1.21645H13.9782C14.7697 2.52098 15.3385 3.86064 15.5993 5.23678C13.0423 4.51069 9.96928 6.04536 9.96928 6.04536C9.96928 6.04536 6.85008 4.53748 4.36391 5.07943C4.76186 3.67072 5.25232 2.39235 6.07374 1.21645Z" fill="#7F2125"/>
<path d="M6.07374 1.21645H6.56777C6.56777 1.21645 8.59701 0.94086 9.96928 0.953028C11.2774 0.964628 13.2007 1.21645 13.2007 1.21645H13.9782M6.07374 1.21645C5.25232 2.39235 4.76186 3.67072 4.36391 5.07943C6.85008 4.53748 9.96928 6.04536 9.96928 6.04536C9.96928 6.04536 13.0423 4.51069 15.5993 5.23678C15.3385 3.86064 14.7697 2.52098 13.9782 1.21645M6.07374 1.21645C6.71634 1.91307 7.63183 1.47546 9.96928 2.01155C12.0856 1.49167 13.1046 1.94757 13.9782 1.21645" stroke="#67211F" stroke-width="0.0582032"/>
<path d="M9.98746 6.02282L9.99496 2.01525C11.5861 1.52717 12.7941 1.90822 13.9878 1.24036C14.5077 2.03833 15.3677 3.53249 15.6089 5.22553C13.5425 4.69443 11.3576 5.39553 9.98746 6.02282Z" fill="#67211F" stroke="#67211F" stroke-width="0.0365292"/>
<path d="M7.25713 1.66816C6.89586 1.4266 6.55691 1.5575 6.57177 1.21057L6.10645 1.22533C6.46915 1.61394 7.00538 1.61293 7.25713 1.66816Z" fill="#67211F"/>
<path d="M12.6355 1.62387C12.9968 1.38475 13.286 1.53923 13.2711 1.1958H13.9841C13.6214 1.58049 12.8873 1.56919 12.6355 1.62387Z" fill="#67211F" fill-opacity="0.56"/>
<path d="M10.0402 1.25499L9.95903 1.96733L10.108 1.95707L10.0402 1.25499Z" fill="#67211F" stroke="#67211F" stroke-width="0.0885594"/>
<path d="M8.08784 1.74954C7.82517 1.73488 7.66703 1.72022 7.44988 1.70557C7.3148 3.25536 7.26295 3.63911 7.5444 5.17414C7.92611 5.2739 8.21476 5.36802 8.54427 5.46934C7.77159 4.06641 7.98631 3.16514 8.08784 1.74954Z" fill="#D60000" stroke="#67211F" stroke-width="0.0365292"/>
<path d="M7.66169 1.72764L7.4713 1.71277L7.43323 1.99534L7.66169 1.72764Z" fill="#398F00" stroke="#67211F" stroke-width="0.00737995"/>
<path d="M7.35036 2.76857L8.06336 1.94776L8.07087 1.76455L7.65807 1.72791L7.43292 1.99174L7.35036 2.76857Z" fill="#FF7F00" stroke="#67211F" stroke-width="0.00737995"/>
<path d="M7.81486 2.2259C7.81486 2.2259 7.5872 1.97184 7.50715 1.90344L7.43209 1.99139L7.35704 2.76089C7.46712 2.63142 7.81486 2.2259 7.81486 2.2259Z" fill="#D60000" stroke="#67211F" stroke-width="0.00737995"/>
<path d="M8.03495 2.83402C8.03572 2.51776 8.04318 2.32163 8.06497 1.94727L7.35947 2.76073C7.33435 3.08345 7.32836 3.26147 7.32195 3.5742L8.03495 2.83402Z" fill="#007FFF" stroke="#67211F" stroke-width="0.00590396"/>
<path d="M7.86233 3.01014L7.50958 2.58508L7.35947 2.76097C7.33989 3.0794 7.3305 3.25609 7.32195 3.57445L7.86233 3.01014Z" fill="#398F00" stroke="#67211F" stroke-width="0.00590396"/>
<path d="M7.89235 3.75L7.5471 3.3396L7.32195 3.57412C7.32945 3.9039 7.35197 4.05048 7.37451 4.32163L7.89235 3.75Z" fill="#D60000" stroke="#67211F" stroke-width="0.00590396"/>
<path d="M7.85952 4.58558L7.51427 4.16785L7.37167 4.32175C7.43172 4.65886 7.44673 4.74681 7.50677 4.99598L7.85952 4.58558Z" fill="#007FFF" stroke="#67211F" stroke-width="0.00590396"/>
<path d="M7.95605 5.28386L7.61666 4.87146L7.51108 4.99665L7.55875 5.16077L7.95605 5.28386Z" fill="#FF7F00" stroke="#67211F" stroke-width="0.00590396"/>
<path d="M8.07156 3.55219C8.04485 3.30582 8.03477 3.15385 8.03403 2.83398L7.54619 3.33966C7.77135 3.60349 7.72632 3.54486 7.89143 3.75006L8.07156 3.55219Z" fill="#FF7F00" stroke="#67211F" stroke-width="0.00590396"/>
<path d="M8.16239 4.23393C8.13237 4.00674 8.09484 3.88948 8.07233 3.55969L7.51694 4.16797C7.73665 4.44781 7.69296 4.38496 7.86218 4.5783L8.16239 4.23393Z" fill="#398F00" stroke="#67211F" stroke-width="0.00590396"/>
<path d="M8.33591 4.88613C8.26836 4.64429 8.23084 4.54169 8.16329 4.23389L7.6154 4.87148C7.78802 5.09134 7.78802 5.09134 7.96065 5.28921L8.33591 4.88613Z" fill="#D60000" stroke="#67211F" stroke-width="0.00590396"/>
<path d="M8.54973 5.45667C8.37626 5.24311 8.38716 5.25369 8.20615 5.02539L7.94688 5.27869C8.26504 5.36212 8.25947 5.36027 8.25947 5.36027L8.54973 5.45667Z" fill="#398F00" stroke="#67211F" stroke-width="0.00590396"/>
<path d="M8.33639 4.88611L8.20818 5.02603L8.54002 5.43843H8.54756L8.33639 4.88611Z" fill="#007FFF" stroke="#67211F" stroke-width="0.00590396"/>
<path d="M8.1104 3.89817L8.07269 3.56677L8.02744 3.61096L7.95956 3.6846L8.1104 3.89817Z" fill="#007FFF" stroke="#67211F" stroke-width="0.00590396"/>
<g filter="url(#filter0_d_1200_6375)">
<path d="M9.06204 2.65346L9.1832 2.4664C9.1832 2.4664 9.31484 3.01503 9.22294 3.36599C9.14987 3.64506 8.88045 4.00921 8.88045 4.00921C8.75714 4.32364 8.76503 4.49609 8.83187 4.80111L8.58598 5.08986C8.58598 5.08986 8.50995 4.69004 8.3871 4.49396C8.20887 4.20948 7.91478 4.28684 7.73343 4.0368C7.46491 3.66657 7.60413 2.88493 7.60413 2.88493L7.82202 3.07333C7.82202 3.07333 7.95406 2.87872 8.0831 2.59942C8.12932 2.4994 8.17514 2.38852 8.21439 2.27182C8.27437 2.09343 8.34116 1.80658 8.34116 1.80658L8.46712 2.06402L8.56842 1.92713C8.56842 1.92713 8.57725 2.12446 8.61463 2.2348C8.70042 2.48805 8.79894 2.58024 9.06204 2.65346Z" fill="url(#paint7_linear_1200_6375)"/>
<path d="M9.06204 2.65346C9.10936 2.58041 9.1832 2.4664 9.1832 2.4664C9.1832 2.4664 9.31484 3.01503 9.22294 3.36599C9.14987 3.64506 8.88045 4.00921 8.88045 4.00921C8.75714 4.32364 8.76503 4.49609 8.83187 4.80111L8.58598 5.08986C8.58598 5.08986 8.50995 4.69004 8.3871 4.49396C8.20887 4.20948 7.91478 4.28684 7.73343 4.0368C7.46491 3.66657 7.60413 2.88493 7.60413 2.88493L7.82202 3.07333M9.06204 2.65346C8.79894 2.58024 8.70042 2.48805 8.61463 2.2348C8.57725 2.12446 8.56842 1.92713 8.56842 1.92713L8.46712 2.06402M9.06204 2.65346C9.05483 2.67993 8.84321 3.13654 8.84321 3.13654C8.84321 3.13654 8.67773 2.82009 8.60332 2.60549M7.82202 3.07333C7.94666 3.21651 7.96542 3.31009 8.00074 3.47599L8.16251 2.88234L8.40934 3.24679L8.45245 2.45346L8.60332 2.60549M7.82202 3.07333C7.82202 3.07333 7.95406 2.87872 8.0831 2.59942C8.12932 2.4994 8.17514 2.38852 8.21439 2.27182C8.27437 2.09343 8.34116 1.80658 8.34116 1.80658L8.46712 2.06402M8.46712 2.06402C8.46712 2.06402 8.53178 2.39915 8.60332 2.60549" stroke="#F8F7FC" stroke-width="0.0365292"/>
</g>
</g>
<defs>
<filter id="filter0_d_1200_6375" x="7.54974" y="1.75232" width="1.85103" height="3.49059" filterUnits="userSpaceOnUse" color-interpolation-filters="sRGB">
<feFlood flood-opacity="0" result="BackgroundImageFix"/>
<feColorMatrix in="SourceAlpha" type="matrix" values="0 0 0 0 0 0 0 0 0 0 0 0 0 0 0 0 0 0 127 0" result="hardAlpha"/>
<feOffset dx="0.0737995" dy="0.0590396"/>
<feGaussianBlur stdDeviation="0.0265678"/>
<feComposite in2="hardAlpha" operator="out"/>
<feColorMatrix type="matrix" values="0 0 0 0 0 0 0 0 0 0 0 0 0 0 0 0 0 0 0.25 0"/>
<feBlend mode="normal" in2="BackgroundImageFix" result="effect1_dropShadow_1200_6375"/>
<feBlend mode="normal" in="SourceGraphic" in2="effect1_dropShadow_1200_6375" result="shape"/>
</filter>
<radialGradient id="paint0_radial_1200_6375" cx="0" cy="0" r="1" gradientUnits="userSpaceOnUse" gradientTransform="translate(9.91565 9.84774) scale(7.11802 7.11799)">
<stop offset="0.5" stop-color="#FDE030"/>
<stop offset="0.92" stop-color="#F7C02B"/>
<stop offset="1" stop-color="#F4A223"/>
</radialGradient>
<linearGradient id="paint1_linear_1200_6375" x1="9.91522" y1="16.8322" x2="9.91522" y2="2.86108" gradientUnits="userSpaceOnUse">
<stop offset="0.39" stop-color="#40C0E7" stop-opacity="0"/>
<stop offset="1" stop-color="#5F7AFF"/>
</linearGradient>
<linearGradient id="paint2_linear_1200_6375" x1="9.91522" y1="16.8322" x2="9.91522" y2="2.86108" gradientUnits="userSpaceOnUse">
<stop offset="0.16" stop-color="#F4A223"/>
<stop offset="0.33" stop-color="#F7C02B"/>
<stop offset="0.81" stop-color="#FDE030" stop-opacity="0"/>
</linearGradient>
<linearGradient id="paint3_linear_1200_6375" x1="14.2508" y1="17.9575" x2="14.2508" y2="11.7468" gradientUnits="userSpaceOnUse">
<stop stop-color="#ED6C30"/>
<stop offset="1" stop-color="#ED6C30" stop-opacity="0.2"/>
</linearGradient>
<radialGradient id="paint4_radial_1200_6375" cx="0" cy="0" r="1" gradientUnits="userSpaceOnUse" gradientTransform="translate(13.4032 13.7658) rotate(141.52) scale(5.58574 5.14801)">
<stop offset="0.27" stop-color="#FFF176"/>
<stop offset="1" stop-color="#FFC400"/>
</radialGradient>
<linearGradient id="paint5_linear_1200_6375" x1="5.6112" y1="17.9577" x2="5.6112" y2="11.7469" gradientUnits="userSpaceOnUse">
<stop stop-color="#ED6C30"/>
<stop offset="1" stop-color="#ED6C30" stop-opacity="0.2"/>
</linearGradient>
<radialGradient id="paint6_radial_1200_6375" cx="0" cy="0" r="1" gradientUnits="userSpaceOnUse" gradientTransform="translate(6.45522 13.7565) rotate(38.4801) scale(5.58574 5.14801)">
<stop offset="0.27" stop-color="#FFF176"/>
<stop offset="1" stop-color="#FFC400"/>
</radialGradient>
<linearGradient id="paint7_linear_1200_6375" x1="8.74403" y1="1.91272" x2="7.95101" y2="4.92256" gradientUnits="userSpaceOnUse">
<stop stop-color="#C9C9C9"/>
<stop offset="1" stop-color="#939297"/>
</linearGradient>
<clipPath id="clip0_1200_6375">
<rect width="17.996" height="17.996" fill="white" transform="translate(0.968292 0.988037)"/>
</clipPath>
</defs>
</svg>
