<svg width="18" height="18" viewBox="0 0 18 18" fill="none" xmlns="http://www.w3.org/2000/svg">
<path d="M9.29542 16.8361C5.78654 16.8361 2.00098 14.6352 2.00098 9.80582C2.00098 4.97641 5.78654 2.77551 9.29542 2.77551C11.2448 2.77551 13.0433 3.41692 14.3764 4.58654C15.8227 5.86935 16.5899 7.68038 16.5899 9.80582C16.5899 11.9313 15.8227 13.7297 14.3764 15.0125C13.0433 16.1821 11.2322 16.8361 9.29542 16.8361Z" fill="url(#paint0_radial_1193_1873)"/>
<path d="M15.3199 5.6272C15.9902 6.70878 16.3399 7.99663 16.3399 9.4291C16.3399 11.5545 15.5727 13.353 14.1264 14.6358C12.7933 15.8054 10.9822 16.4594 9.04541 16.4594C6.77407 16.4594 4.39206 15.535 2.98599 13.5743C4.33924 15.7954 6.88475 16.8367 9.29695 16.8367C11.2337 16.8367 13.0448 16.1827 14.3779 15.0131C15.8242 13.7303 16.5914 11.9318 16.5914 9.8064C16.5914 8.20414 16.155 6.78047 15.3199 5.6272Z" fill="#EB8F00"/>
<path d="M7.53829 8.77923L7.51314 8.80438C7.49428 8.82702 7.47164 8.8484 7.449 8.86726L7.36222 8.93895C7.32575 8.96662 7.28425 8.9968 7.23645 9.02698C7.18741 9.05843 7.1371 9.08735 7.08553 9.11376C6.97109 9.17162 6.84909 9.2106 6.72333 9.23198C6.65793 9.2433 6.59253 9.24833 6.52587 9.24833H6.46676C6.45041 9.24959 6.43281 9.24959 6.41646 9.24833C6.39634 9.24833 6.35986 9.24079 6.32716 9.23701C6.26428 9.22569 6.2014 9.20935 6.13977 9.19048C6.08066 9.17036 6.02281 9.14646 5.96621 9.11879C5.91465 9.09238 5.86434 9.06346 5.81529 9.03202C5.73984 8.98297 5.66815 8.92763 5.60149 8.866L5.52226 8.79306L5.49082 8.76288C5.32984 8.61573 5.08711 8.60693 4.91607 8.7415C4.79407 8.83708 4.75508 9.00435 4.82048 9.1452L4.83809 9.18293C4.85444 9.21941 4.8733 9.25462 4.89469 9.28858C4.96889 9.41686 5.0607 9.53256 5.16634 9.63569C5.24054 9.70864 5.32103 9.77403 5.40781 9.83189C5.50717 9.90106 5.61281 9.96017 5.72474 10.008C5.84548 10.062 5.9725 10.1048 6.10204 10.1337C6.17121 10.1463 6.23535 10.1589 6.31962 10.1664C6.35861 10.1664 6.40514 10.174 6.42526 10.174H6.5221C6.66296 10.1715 6.80382 10.1576 6.94216 10.13C7.0717 10.101 7.19872 10.0583 7.31946 10.0042C7.43013 9.95639 7.53704 9.89728 7.63639 9.82811C7.72191 9.77026 7.8024 9.70486 7.87661 9.63192C7.942 9.57407 8.00237 9.51244 8.05771 9.44579L8.11682 9.36278L8.16713 9.28229C8.18599 9.25211 8.20234 9.21941 8.21617 9.18671C8.22498 9.16533 8.23001 9.15527 8.23001 9.15527C8.30547 8.97542 8.21995 8.76791 8.0401 8.69245C8.02752 8.68742 8.01495 8.68239 8.00237 8.67987C7.84139 8.62076 7.66154 8.65975 7.53829 8.77923Z" fill="#422B0D"/>
<path d="M13.1878 8.77852L13.1626 8.80367C13.1438 8.82631 13.1211 8.84769 13.0985 8.86656L13.0117 8.93824C12.9752 8.96591 12.9337 8.99609 12.8859 9.02628C12.8369 9.05772 12.7866 9.08665 12.735 9.11306C12.6797 9.14073 12.6218 9.16462 12.5627 9.18474C12.5011 9.20361 12.4382 9.21996 12.3741 9.23128C12.3087 9.2426 12.2433 9.24763 12.1766 9.24763H12.1175C12.0999 9.24888 12.0836 9.24888 12.0659 9.24763C12.0471 9.24763 12.0106 9.24008 11.9779 9.23631C11.9138 9.22499 11.8509 9.20864 11.7893 9.18977C11.7289 9.16839 11.671 9.14198 11.6144 9.11306C11.5629 9.08665 11.5126 9.05772 11.4635 9.02628C11.3881 8.97723 11.3164 8.92189 11.2497 8.86027L11.1705 8.78732L11.139 8.75714C10.9781 8.60999 10.7353 8.60119 10.5643 8.73576C10.4398 8.83134 10.3983 9.00238 10.4662 9.1445C10.4662 9.1445 10.4662 9.15833 10.4851 9.18223C10.5014 9.2187 10.5203 9.25391 10.5404 9.28787C10.6699 9.50545 10.8448 9.69032 11.0548 9.83118C11.1541 9.90035 11.2598 9.95946 11.3705 10.0073C11.4937 10.0626 11.622 10.1041 11.754 10.133C11.8232 10.1456 11.8874 10.1582 11.9716 10.1657C12.0106 10.1657 12.0559 10.1733 12.076 10.1733H12.1741C12.315 10.1707 12.4546 10.1569 12.5929 10.1292C12.725 10.1003 12.8532 10.0588 12.9765 10.0035C13.0872 9.95569 13.1928 9.89658 13.2922 9.82741C13.3789 9.76955 13.4594 9.70416 13.5336 9.63121C13.5953 9.57336 13.6531 9.51173 13.7059 9.44508L13.7663 9.36207L13.8166 9.28158C13.8355 9.2514 13.8518 9.2187 13.8657 9.186C13.8745 9.16462 13.8795 9.15456 13.8795 9.15456C13.955 8.97471 13.8694 8.7672 13.6896 8.69174C13.677 8.68671 13.6644 8.68168 13.6519 8.67916C13.4909 8.62005 13.311 8.65904 13.1878 8.77852Z" fill="#422B0D"/>
<path d="M15.3049 14.9621C17.9825 14.3697 17.1675 9.7931 12.5745 10.3968C11.7771 10.5024 10.9395 11.0256 10.3421 11.5526C10.1963 11.6783 10.2604 11.9299 10.4553 11.916C12.3708 11.7852 12.3142 15.6223 15.3049 14.9621Z" fill="#4FC3F7"/>
<path d="M15.4636 11.2674C15.5403 11.3328 15.5982 11.4158 15.6334 11.5088C15.6686 11.6032 15.6535 11.7075 15.5944 11.7893C15.5051 11.9012 15.3429 11.9151 15.1957 11.8949C14.8021 11.8559 14.4235 11.7289 14.0852 11.5252C13.8928 11.4095 13.6664 11.2108 13.7192 10.9555C13.7557 10.7857 13.9217 10.7454 14.0751 10.7429C14.5857 10.7429 15.08 10.9291 15.4636 11.2674Z" fill="#B3E5FC"/>
<path d="M5.77797 6.71029H5.79431C6.06345 6.64741 6.05339 6.24244 5.74652 6.2525C5.49876 6.26508 5.25478 6.31539 5.02211 6.40091C4.39579 6.62729 3.87889 7.08633 3.58083 7.68246C3.52675 7.79817 3.57705 7.93651 3.69276 7.98933C3.79589 8.03712 3.91788 8.00316 3.98202 7.9101C4.42723 7.31774 5.0611 6.89517 5.77797 6.71029Z" fill="#422B0D"/>
<path d="M12.8038 6.70912H12.7874C12.6617 6.69403 12.5711 6.58084 12.585 6.45382C12.5988 6.32931 12.7107 6.24001 12.8352 6.25133C13.083 6.26391 13.3257 6.31422 13.5584 6.39974C14.1872 6.62612 14.7054 7.0839 15.006 7.68129C15.06 7.79699 15.0097 7.93534 14.894 7.98816C14.7909 8.03595 14.6689 8.00199 14.6048 7.90893C14.1583 7.31657 13.5232 6.89274 12.8038 6.70912Z" fill="#422B0D"/>
<path d="M8.30193 14.3841C7.82024 14.3753 7.43666 13.9767 7.44546 13.495C7.44798 13.3327 7.49703 13.1743 7.58506 13.0385C7.97494 12.4348 8.59119 12.1204 9.34579 12.1204C10.1004 12.1204 10.7166 12.4348 11.1065 13.0385C11.2813 13.3026 11.2952 13.6409 11.1442 13.9188C10.9946 14.198 10.7066 14.3766 10.3897 14.3841C10.2903 14.3867 10.1922 14.3703 10.1004 14.3338C9.85766 14.2496 9.60235 14.2068 9.34579 14.2081C9.08923 14.2056 8.83392 14.2483 8.59119 14.3338C8.49813 14.3678 8.40003 14.3854 8.30193 14.3841Z" fill="#422B0D"/>
<path d="M5.35216 1.26634H5.85663C5.85663 1.26634 7.92875 0.98811 9.33001 1.0004C10.6657 1.01211 12.6297 1.26634 12.6297 1.26634H13.4236C14.2319 2.58339 14.8127 3.93589 15.079 5.32523C12.6297 5.6285 9.36943 6.34217 9.36943 6.34217C9.36943 6.34217 6.28089 5.70793 3.6062 5.16637C4.01256 3.74415 4.51339 2.45352 5.35216 1.26634Z" fill="#7F2125"/>
<path d="M5.35216 1.26634H5.85663C5.85663 1.26634 7.92875 0.98811 9.33001 1.0004C10.6657 1.01211 12.6297 1.26634 12.6297 1.26634H13.4236M5.35216 1.26634C4.51339 2.45352 4.01256 3.74415 3.6062 5.16637C6.28089 5.70793 9.36943 6.34217 9.36943 6.34217C9.36943 6.34217 12.6297 5.6285 15.079 5.32523C14.8127 3.93589 14.2319 2.58339 13.4236 1.26634M5.35216 1.26634C6.00834 1.96964 6.94317 1.52784 9.33001 2.06907C11.4911 1.5442 12.5315 2.00447 13.4236 1.26634" stroke="#67211F" stroke-width="0.0587614"/>
<path d="M9.37776 6.33444L9.35477 2.07237C10.9795 1.5796 12.213 1.96431 13.4319 1.29004C13.9629 2.09567 14.841 3.60415 15.0873 5.31343C13.2174 5.52976 10.2438 6.14817 9.37776 6.33444Z" fill="#67211F" stroke="#67211F" stroke-width="0.0368795"/>
<path d="M12.0525 1.67656C12.4214 1.43515 12.7167 1.5911 12.7015 1.24438H13.4296C13.0592 1.63276 12.3096 1.62136 12.0525 1.67656Z" fill="#67211F" fill-opacity="0.56"/>
<path d="M6.55885 1.72308C6.18995 1.47921 5.84384 1.61137 5.85901 1.26111L5.38385 1.27601C5.75421 1.66835 6.30178 1.66732 6.55885 1.72308Z" fill="#67211F"/>
<path d="M9.40054 1.30466L9.31769 2.02384L9.46984 2.01348L9.40054 1.30466Z" fill="#67211F" stroke="#67211F" stroke-width="0.0894087"/>
<path d="M7.40976 1.78959C7.14438 1.77248 6.98466 1.75625 6.7653 1.73953C6.55721 3.28727 6.45791 4.34646 7.00244 5.83182C7.35835 5.90928 7.72969 5.95707 8.08567 6.02709C7.31717 4.59441 7.29448 3.2278 7.40976 1.78959Z" fill="#D60000" stroke="#67211F" stroke-width="0.0368795"/>
<path d="M6.97247 1.76232L6.78247 1.7458L6.74195 2.02928L6.97247 1.76232Z" fill="#398F00" stroke="#67211F" stroke-width="0.00745073"/>
<path d="M6.65048 2.81877L7.37854 1.99036L7.38776 1.80417L6.97084 1.76345L6.74088 2.02976L6.65048 2.81877Z" fill="#FF7F00" stroke="#67211F" stroke-width="0.00745073"/>
<path d="M7.12737 2.27196C7.12737 2.27196 6.89952 2.01178 6.81921 1.94157L6.74256 2.03034L6.65981 2.81196C6.77224 2.68127 7.12737 2.27196 7.12737 2.27196Z" fill="#D60000" stroke="#67211F" stroke-width="0.00745073"/>
<path d="M7.33986 2.89144C7.34347 2.56995 7.35277 2.37064 7.37814 1.99025L6.65774 2.81127C6.62945 3.13912 6.62181 3.32005 6.61253 3.6379L7.33986 2.89144Z" fill="#007FFF" stroke="#67211F" stroke-width="0.00596058"/>
<path d="M7.16373 3.06909L6.81097 2.63402L6.65767 2.81156C6.63503 3.1351 6.62395 3.31464 6.61246 3.6382L7.16373 3.06909Z" fill="#398F00" stroke="#67211F" stroke-width="0.00596058"/>
<path d="M7.18844 3.82153L6.84313 3.40143L6.61344 3.63794C6.61808 3.97325 6.63953 4.12244 6.65989 4.39828L7.18844 3.82153Z" fill="#D60000" stroke="#67211F" stroke-width="0.00596058"/>
<path d="M7.1511 4.67192L6.80586 4.24436L6.66034 4.39962C6.71801 4.74282 6.7324 4.83235 6.79086 5.08615L7.1511 4.67192Z" fill="#007FFF" stroke="#67211F" stroke-width="0.00596058"/>
<path d="M7.23455 5.3793L6.89683 4.95926L6.7895 5.08502C6.87014 5.40607 6.87779 5.39868 6.95149 5.64517L7.23455 5.3793Z" fill="#FF7F00" stroke="#67211F" stroke-width="0.00596058"/>
<path d="M7.41353 5.89601L7.10589 5.50602L6.95292 5.64631C6.97515 5.7061 7.00484 5.78085 7.01969 5.81823L7.41353 5.89601Z" fill="#007FFF" stroke="#67211F" stroke-width="0.00596058"/>
<path d="M7.37296 3.62283C7.34817 3.37215 7.33934 3.21758 7.34145 2.89241L6.84381 3.40236C7.06904 3.67245 7.02405 3.61247 7.18911 3.82246L7.37296 3.62283Z" fill="#FF7F00" stroke="#67211F" stroke-width="0.00596058"/>
<path d="M7.45625 4.31497C7.42794 4.08377 7.39105 3.96425 7.37124 3.62881L6.80441 4.2425C7.02399 4.52882 6.9804 4.46457 7.14971 4.66253L7.45625 4.31497Z" fill="#398F00" stroke="#67211F" stroke-width="0.00596058"/>
<path d="M7.62466 4.98161C7.55854 4.73519 7.52153 4.63057 7.456 4.3171L6.89649 4.96065C7.06901 5.18561 7.06901 5.18561 7.24173 5.38821L7.62466 4.98161Z" fill="#D60000" stroke="#67211F" stroke-width="0.00596058"/>
<path d="M7.82319 5.54124C7.6506 5.32373 7.67309 5.35372 7.49305 5.12126L7.10273 5.50544C7.27526 5.7304 7.24524 5.69289 7.40278 5.89537L7.82319 5.54124Z" fill="#398F00" stroke="#67211F" stroke-width="0.00596058"/>
<path d="M7.62564 4.98069L7.49543 5.12117L7.82556 5.54114L7.83315 5.54121L7.62564 4.98069Z" fill="#007FFF" stroke="#67211F" stroke-width="0.00596058"/>
<path d="M7.4069 3.97226L7.37191 3.63669L7.326 3.68101L7.25707 3.75494L7.4069 3.97226Z" fill="#007FFF" stroke="#67211F" stroke-width="0.00596058"/>
<path d="M7.61042 5.72544L7.83213 5.53357C7.91091 5.72515 7.95947 5.82745 8.0556 6.00481L7.78288 5.95784L7.61042 5.72544Z" fill="#FF7F00" stroke="#67211F" stroke-width="0.00447043"/>
<g filter="url(#filter0_d_1193_1873)">
<path d="M8.55842 2.87405L8.68214 2.6852C8.68214 2.6852 8.81657 3.23909 8.72272 3.59342C8.6481 3.87516 8.373 4.24281 8.373 4.24281C8.24708 4.56025 8.25514 4.73435 8.32339 5.0423L8.0723 5.33382C8.0723 5.33382 7.99467 4.93017 7.86922 4.73221C7.68722 4.44499 7.38692 4.5231 7.20174 4.27066C6.92754 3.89688 7.06971 3.10774 7.06971 3.10774L7.2922 3.29795C7.2922 3.29795 7.42703 3.10147 7.5588 2.8195C7.60599 2.71851 7.65279 2.60657 7.69286 2.48875C7.75411 2.30866 7.82231 2.01905 7.82231 2.01905L7.95093 2.27896L8.05437 2.14076C8.05437 2.14076 8.06339 2.33998 8.10156 2.45138C8.18916 2.70706 8.28977 2.80013 8.55842 2.87405Z" fill="#939297"/>
<path d="M8.55842 2.87405C8.60674 2.8003 8.68214 2.6852 8.68214 2.6852C8.68214 2.6852 8.81657 3.23909 8.72272 3.59342C8.6481 3.87516 8.373 4.24281 8.373 4.24281C8.24708 4.56025 8.25514 4.73435 8.32339 5.0423L8.0723 5.33382C8.0723 5.33382 7.99467 4.93017 7.86922 4.73221C7.68722 4.44499 7.38692 4.5231 7.20174 4.27066C6.92754 3.89688 7.06971 3.10774 7.06971 3.10774L7.2922 3.29795M8.55842 2.87405C8.28977 2.80013 8.18916 2.70706 8.10156 2.45138C8.06339 2.33998 8.05437 2.14076 8.05437 2.14076L7.95093 2.27896M8.55842 2.87405C8.55106 2.90078 8.33497 3.36177 8.33497 3.36177C8.33497 3.36177 8.16599 3.04228 8.09001 2.82562M7.2922 3.29795C7.41948 3.44251 7.43863 3.53698 7.4747 3.70447L7.63989 3.10513L7.89193 3.47307M7.2922 3.29795C7.2922 3.29795 7.42703 3.10147 7.5588 2.8195C7.60599 2.71851 7.65279 2.60657 7.69286 2.48875C7.75411 2.30866 7.82231 2.01905 7.82231 2.01905L7.95093 2.27896M7.95093 2.27896C7.95093 2.27896 8.01696 2.61731 8.09001 2.82562M8.09001 2.82562L7.93595 2.67213L7.89193 3.47307M7.89193 3.47307L7.86922 3.86886" stroke="#F8F7FC" stroke-width="0.0368795"/>
</g>
<defs>
<filter id="filter0_d_1193_1873" x="7.01437" y="1.96472" width="1.88828" height="3.52329" filterUnits="userSpaceOnUse" color-interpolation-filters="sRGB">
<feFlood flood-opacity="0" result="BackgroundImageFix"/>
<feColorMatrix in="SourceAlpha" type="matrix" values="0 0 0 0 0 0 0 0 0 0 0 0 0 0 0 0 0 0 127 0" result="hardAlpha"/>
<feOffset dx="0.0745073" dy="0.0596058"/>
<feGaussianBlur stdDeviation="0.0268226"/>
<feComposite in2="hardAlpha" operator="out"/>
<feColorMatrix type="matrix" values="0 0 0 0 0 0 0 0 0 0 0 0 0 0 0 0 0 0 0.25 0"/>
<feBlend mode="normal" in2="BackgroundImageFix" result="effect1_dropShadow_1193_1873"/>
<feBlend mode="normal" in="SourceGraphic" in2="effect1_dropShadow_1193_1873" result="shape"/>
</filter>
<radialGradient id="paint0_radial_1193_1873" cx="0" cy="0" r="1" gradientUnits="userSpaceOnUse" gradientTransform="translate(9.29542 9.80581) scale(7.16361 7.16358)">
<stop offset="0.5" stop-color="#FDE030"/>
<stop offset="0.92" stop-color="#F7C02B"/>
<stop offset="1" stop-color="#F4A223"/>
</radialGradient>
</defs>
</svg>
