<svg width="18" height="18" viewBox="0 0 18 18" fill="none" xmlns="http://www.w3.org/2000/svg">
<path d="M9.08659 16.3518C5.59928 16.3518 1.83698 14.1644 1.83698 9.36466C1.83698 4.56494 5.59928 2.37756 9.08659 2.37756C11.024 2.37756 12.8114 3.01503 14.1363 4.17746C15.5737 5.45239 16.3362 7.25228 16.3362 9.36466C16.3362 11.477 15.5737 13.2644 14.1363 14.5394C12.8114 15.7018 11.0115 16.3518 9.08659 16.3518Z" fill="url(#paint0_radial_1217_8833)"/>
<path d="M15.0722 5.2113C15.7384 6.28624 16.0859 7.56617 16.0859 8.98984C16.0859 11.1022 15.3234 12.8896 13.886 14.1645C12.5611 15.327 10.7612 15.9769 8.83627 15.9769C6.57889 15.9769 4.20651 15.0582 2.81409 13.1096C4.15902 15.317 6.68763 16.3519 9.08625 16.3519C11.0112 16.3519 12.8111 15.702 14.136 14.5395C15.5734 13.2646 16.3359 11.4772 16.3359 9.36482C16.3359 7.77241 15.9021 6.35749 15.0722 5.2113Z" fill="#EB8F00"/>
<path d="M11.8998 14.0651C11.8598 14.0576 11.8223 14.0388 11.7911 14.0113C11.2586 13.5513 10.5924 13.2239 9.85241 13.0576C9.1137 12.8914 8.37124 12.9001 7.69253 13.0876C7.65253 13.0989 7.61003 13.0989 7.57128 13.0889C7.48504 13.0664 7.41754 12.9951 7.40129 12.9064C7.38504 12.8201 7.42129 12.7339 7.49504 12.6826C8.235 12.1727 9.15495 11.9989 10.0449 12.2002C10.9349 12.4002 11.6923 12.9514 12.141 13.7301C12.186 13.8076 12.1823 13.9013 12.1298 13.9726C12.0785 14.0463 11.9873 14.0813 11.8998 14.0651Z" fill="#422B0D"/>
<path d="M6.64112 8.37134C6.1174 8.37134 5.64117 8.81381 5.64117 9.54877C5.64117 10.2825 6.1174 10.7262 6.64112 10.7262C7.16484 10.7262 7.64107 10.2837 7.64107 9.54877C7.64107 8.81381 7.16609 8.37134 6.64112 8.37134Z" fill="#422B0D"/>
<path d="M6.59204 8.86091C6.4633 8.77092 6.26956 8.79967 6.14457 8.97966C6.01957 9.1609 6.06082 9.35088 6.18957 9.44088C6.31831 9.53087 6.51205 9.50213 6.63704 9.32214C6.76204 9.14215 6.72204 8.95091 6.59204 8.86091Z" fill="#896024"/>
<path d="M11.4359 8.37134C10.9121 8.37134 10.4359 8.81381 10.4359 9.54877C10.4359 10.2825 10.9121 10.7262 11.4359 10.7262C11.9596 10.7262 12.4358 10.2837 12.4358 9.54877C12.4358 8.81381 11.9596 8.37134 11.4359 8.37134Z" fill="#422B0D"/>
<path d="M11.3876 8.86091C11.2589 8.77092 11.0652 8.79967 10.9402 8.97966C10.8152 9.1609 10.8564 9.35088 10.9852 9.44088C11.1139 9.53087 11.3076 9.50213 11.4326 9.32214C11.5589 9.1409 11.5164 8.95091 11.3876 8.86091Z" fill="#896024"/>
<path d="M14.1363 4.17531C13.4488 3.5716 12.6351 3.11162 11.7414 2.80664L11.5052 2.93663L8.50781 4.3653L3.44433 5.05401L3.18184 5.08276C2.35439 6.1652 1.83691 7.58387 1.83691 9.36252C1.83691 10.04 1.91441 10.6637 2.05315 11.2374L9.50651 7.10889L15.7887 6.48768C15.4187 5.60148 14.8637 4.82153 14.1363 4.17531Z" fill="#F5F5F5"/>
<path d="M2.09838 11.4263L2.02838 11.1538C2.02838 11.1538 6.00692 8.04649 9.99796 6.84656L10.6979 6.9528C6.68313 8.22648 2.13963 11.3963 2.09838 11.4263Z" fill="#808080"/>
<path d="M8.9167 4.17297L8.19299 4.51795L8.9167 4.17297Z" fill="url(#paint1_linear_1217_8833)"/>
<path d="M11.7413 2.80664C12.1813 2.93788 12.6087 3.11412 13.0187 3.32536C13.4287 3.5366 13.8237 3.78408 14.1799 4.09032C14.5299 4.39905 14.8424 4.75153 15.1124 5.13276C15.2473 5.324 15.3723 5.52149 15.4873 5.72522C15.6023 5.93021 15.7073 6.1352 15.8011 6.36019L15.8786 6.54893L15.6686 6.57018C14.5274 6.68892 13.3849 6.80391 12.2425 6.90766C11.6713 6.96265 11.1001 7.01265 10.5288 7.0614C9.95762 7.11014 9.38516 7.16264 8.81394 7.20514C7.67275 7.29138 6.53156 7.39138 5.39037 7.50137L3.67921 7.67386C3.10924 7.73386 2.53927 7.80135 1.9693 7.86885C2.52927 7.74261 3.09549 7.64136 3.66046 7.54012C4.22543 7.43888 4.7929 7.34888 5.36162 7.26639C6.49906 7.10139 7.64025 6.96765 8.78394 6.85891L10.4963 6.69392C11.0676 6.64017 11.6375 6.58642 12.21 6.53893C13.3524 6.43643 14.4949 6.34644 15.6386 6.25769L15.5061 6.46768C15.3523 6.0602 15.1386 5.65148 14.8961 5.2765C14.6549 4.89777 14.3736 4.54154 14.0524 4.22656C13.7312 3.91283 13.3599 3.64534 12.9687 3.41286C12.7725 3.29661 12.5712 3.18787 12.3662 3.08787C12.1625 2.98663 11.955 2.89039 11.7413 2.80664Z" fill="#808080"/>
<path d="M14.136 4.18255C13.4861 4.2213 12.8424 4.2388 12.1974 4.26255C11.8749 4.27755 11.5524 4.27255 11.2299 4.29005L10.2612 4.34129C9.61628 4.37504 8.97006 4.42129 8.32635 4.47753C7.68138 4.52753 7.03766 4.59128 6.3927 4.66002L6.3902 4.64752C7.67263 4.46254 8.96131 4.33129 10.2525 4.2388C10.8987 4.19505 11.5449 4.15755 12.1924 4.14255C12.8399 4.13005 13.4886 4.13005 14.1348 4.1713L14.136 4.18255Z" fill="#808080"/>
<path d="M3.18195 5.08447C2.92947 5.58319 2.69948 6.08317 2.50699 6.59314C2.41324 6.84812 2.32575 7.10436 2.26075 7.36559C2.18826 7.62558 2.14326 7.88431 2.11576 8.1518C2.05701 8.69677 2.00952 9.24173 1.99452 9.78795C1.98827 10.0604 1.98452 10.3342 2.00077 10.6079C2.01327 10.8816 2.03576 11.1554 2.09701 11.4279C1.95702 11.1829 1.88202 10.9066 1.81828 10.6317C1.75828 10.3554 1.72203 10.0754 1.70203 9.7942C1.66203 9.23173 1.67953 8.66802 1.74328 8.11055C1.80578 7.53683 1.98827 6.98186 2.2395 6.47814C2.49199 5.97067 2.80197 5.49695 3.18195 5.08447Z" fill="#808080"/>
<path d="M2.5741 5.83636C3.03521 4.44202 3.51307 3.47482 4.46485 2.31092C5.30519 1.93277 6.47004 1.75205 9.06911 1.68066C11.5286 1.68067 12.9522 2.05882 13.7926 2.31092C14.7097 3.60214 15.2905 4.63 15.5927 5.9921C12.6299 5.27342 9.05389 6.64157 9.05389 6.64157C9.05389 6.64157 5.45116 5.4435 2.5741 5.83636Z" fill="#7F2125" stroke="#67211F" stroke-width="0.077569"/>
<path d="M9.04468 6.63865V1.68066C11.3216 1.70786 12.4819 2.01052 13.7926 2.31092C14.3988 3.1176 15.318 4.27939 15.5993 5.99092C13.1899 5.45402 10.6423 6.0045 9.04468 6.63865Z" fill="#67211F" stroke="#67211F" stroke-width="0.0486835"/>
<path d="M9.15041 2.05115L9.13797 2.7447L9.25005 2.7431L9.15041 2.05115Z" fill="#67211F" stroke="#67211F" stroke-width="0.118026"/>
<path d="M7.25308 1.7793C6.92985 1.78374 6.73879 1.85298 6.47139 1.85354C6.42002 3.76001 6.37965 4.21666 6.83805 6.06962C7.31357 6.1591 7.67454 6.24961 8.08615 6.34545C7.035 4.69582 7.23297 3.51884 7.25308 1.7793Z" fill="#D60000" stroke="#67211F" stroke-width="0.0516262"/>
<path d="M6.72095 1.84522L6.4879 1.86395L6.46434 2.18686L6.72095 1.84522Z" fill="#398F00" stroke="#67211F" stroke-width="0.01043"/>
<path d="M6.41876 3.14451L7.23271 2.0802L7.24077 1.78787L6.71942 1.84587L6.46272 2.18763L6.41876 3.14451Z" fill="#FF7F00" stroke="#67211F" stroke-width="0.01043"/>
<path d="M6.95254 2.44112C6.95254 2.44112 6.65458 2.14986 6.55135 2.07304L6.46579 2.18696L6.43049 3.13424C6.55595 2.96656 6.95254 2.44112 6.95254 2.44112Z" fill="#D60000" stroke="#67211F" stroke-width="0.01043"/>
<path d="M7.26502 3.16699C7.24264 2.78022 7.23733 2.53978 7.23644 2.08018L6.43116 3.13488C6.42414 3.53162 6.42992 3.7498 6.44512 4.13272L7.26502 3.16699Z" fill="#007FFF" stroke="#67211F" stroke-width="0.00834398"/>
<path d="M7.06558 3.39707L6.60159 2.90737L6.43046 3.13521C6.42993 3.52622 6.43143 3.74306 6.44443 4.13306L7.06558 3.39707Z" fill="#398F00" stroke="#67211F" stroke-width="0.00834398"/>
<path d="M7.15466 4.29822L6.70096 3.8258L6.4421 4.13172C6.47563 4.53432 6.51405 4.71162 6.5617 5.04125L7.15466 4.29822Z" fill="#D60000" stroke="#67211F" stroke-width="0.00834398"/>
<path d="M7.18316 5.32312L6.72891 4.84174L6.56537 5.04206C6.66387 5.44915 6.68877 5.5554 6.78078 5.85496L7.18316 5.32312Z" fill="#007FFF" stroke="#67211F" stroke-width="0.00834398"/>
<path d="M7.34051 6.16769L6.89616 5.69479L6.77652 5.85602L6.84672 6.05161L7.34051 6.16769Z" fill="#FF7F00" stroke="#67211F" stroke-width="0.00834398"/>
<path d="M7.36578 4.04145C7.31486 3.74249 7.29129 3.55752 7.26679 3.16648L6.70575 3.82631C7.00136 4.12973 6.94181 4.06188 7.15945 4.29873L7.36578 4.04145Z" fill="#FF7F00" stroke="#67211F" stroke-width="0.00834398"/>
<path d="M7.52337 4.86784C7.4698 4.59261 7.41512 4.45243 7.36319 4.05111L6.72687 4.84214C7.01698 5.1656 6.95876 5.09248 7.18057 5.31448L7.52337 4.86784Z" fill="#398F00" stroke="#67211F" stroke-width="0.00834398"/>
<path d="M7.78263 5.65037C7.68194 5.36041 7.62835 5.23815 7.5228 4.86754L6.89785 5.69378C7.12579 5.94791 7.12579 5.94791 7.3521 6.17516L7.78263 5.65037Z" fill="#D60000" stroke="#67211F" stroke-width="0.00834398"/>
<path d="M8.07726 6.34671C7.84987 6.10154 7.87206 6.09425 7.63438 5.8318L7.33652 6.16197C7.73097 6.23653 7.71078 6.25184 7.71078 6.25184L8.07726 6.34671Z" fill="#398F00" stroke="#67211F" stroke-width="0.00834398"/>
<path d="M7.77978 5.65052L7.63356 5.83163L8.05846 6.32583L8.08465 6.34715L7.77978 5.65052Z" fill="#007FFF" stroke="#67211F" stroke-width="0.00834398"/>
<path d="M7.43339 4.45966L7.36307 4.05976L7.3111 4.11733L7.23368 4.21266L7.43339 4.45966Z" fill="#007FFF" stroke="#67211F" stroke-width="0.00834398"/>
<g filter="url(#filter0_d_1217_8833)">
<path d="M8.5448 3.42048L8.69429 3.22333C8.69429 3.22333 8.85671 3.80155 8.74332 4.17145C8.65316 4.46558 8.32076 4.84938 8.32076 4.84938C8.16861 5.18077 8.17835 5.36252 8.26081 5.684L7.95743 5.98833C7.95743 5.98833 7.86362 5.56694 7.71205 5.36028C7.49214 5.06045 7.1293 5.14199 6.90554 4.87845C6.57424 4.48825 6.74602 3.66444 6.74602 3.66444L7.01484 3.86301C7.01484 3.86301 7.17776 3.65789 7.33697 3.36353C7.39399 3.25811 7.45054 3.14124 7.49895 3.01825C7.57296 2.83024 7.65537 2.52791 7.65537 2.52791L7.81078 2.79924L7.93576 2.65497C7.93576 2.65497 7.94666 2.86294 7.99278 2.97924C8.09863 3.24615 8.22019 3.34331 8.5448 3.42048Z" fill="url(#paint2_linear_1217_8833)"/>
<path d="M8.5448 3.42048C8.60318 3.34349 8.69429 3.22333 8.69429 3.22333C8.69429 3.22333 8.85671 3.80155 8.74332 4.17145C8.65316 4.46558 8.32076 4.84938 8.32076 4.84938C8.16861 5.18077 8.17835 5.36252 8.26081 5.684L7.95743 5.98833C7.95743 5.98833 7.86362 5.56694 7.71205 5.36028C7.49214 5.06045 7.1293 5.14199 6.90554 4.87845C6.57424 4.48825 6.74602 3.66444 6.74602 3.66444L7.01484 3.86301M8.5448 3.42048C8.22019 3.34331 8.09863 3.24615 7.99278 2.97924C7.94666 2.86294 7.93576 2.65497 7.93576 2.65497L7.81078 2.79924M8.5448 3.42048C8.5359 3.44838 8.27481 3.92963 8.27481 3.92963C8.27481 3.92963 8.07064 3.5961 7.97883 3.36992M7.01484 3.86301C7.16863 4.01391 7.19178 4.11254 7.23536 4.28738L7.43495 3.66171L7.73949 4.04582L7.79268 3.20969L7.97883 3.36992M7.01484 3.86301C7.01484 3.86301 7.17776 3.65789 7.33697 3.36353C7.39399 3.25811 7.45054 3.14124 7.49895 3.01825C7.57296 2.83024 7.65537 2.52791 7.65537 2.52791L7.81078 2.79924M7.81078 2.79924C7.81078 2.79924 7.89056 3.15245 7.97883 3.36992" stroke="#F8F7FC" stroke-width="0.0518389"/>
</g>
<defs>
<filter id="filter0_d_1217_8833" x="6.67499" y="2.45923" width="2.31514" height="3.73976" filterUnits="userSpaceOnUse" color-interpolation-filters="sRGB">
<feFlood flood-opacity="0" result="BackgroundImageFix"/>
<feColorMatrix in="SourceAlpha" type="matrix" values="0 0 0 0 0 0 0 0 0 0 0 0 0 0 0 0 0 0 127 0" result="hardAlpha"/>
<feOffset dx="0.104729" dy="0.0837836"/>
<feGaussianBlur stdDeviation="0.0377026"/>
<feComposite in2="hardAlpha" operator="out"/>
<feColorMatrix type="matrix" values="0 0 0 0 0 0 0 0 0 0 0 0 0 0 0 0 0 0 0.25 0"/>
<feBlend mode="normal" in2="BackgroundImageFix" result="effect1_dropShadow_1217_8833"/>
<feBlend mode="normal" in="SourceGraphic" in2="effect1_dropShadow_1217_8833" result="shape"/>
</filter>
<radialGradient id="paint0_radial_1217_8833" cx="0" cy="0" r="1" gradientUnits="userSpaceOnUse" gradientTransform="translate(9.08659 9.36465) scale(7.11958 7.11955)">
<stop offset="0.5" stop-color="#FDE030"/>
<stop offset="0.9188" stop-color="#F7C02B"/>
<stop offset="1" stop-color="#F4A223"/>
</radialGradient>
<linearGradient id="paint1_linear_1217_8833" x1="8.58287" y1="4.57423" x2="8.43529" y2="3.37228" gradientUnits="userSpaceOnUse">
<stop offset="0.0652" stop-color="#B3B3B3"/>
<stop offset="0.2661" stop-color="#BDBDBD" stop-opacity="0.7505"/>
<stop offset="0.6106" stop-color="#D9D9D9" stop-opacity="0.3227"/>
<stop offset="0.8705" stop-color="#F2F2F2" stop-opacity="0"/>
</linearGradient>
<linearGradient id="paint2_linear_1217_8833" x1="8.15243" y1="2.63978" x2="7.42572" y2="5.86866" gradientUnits="userSpaceOnUse">
<stop stop-color="#C9C9C9"/>
<stop offset="1" stop-color="#939297"/>
</linearGradient>
</defs>
</svg>
