<svg width="18" height="18" viewBox="0 0 18 18" fill="none" xmlns="http://www.w3.org/2000/svg">
<path d="M8.98258 16.8925C5.49603 16.8925 1.73456 14.7056 1.73456 9.90695C1.73456 5.10828 5.49603 2.92139 8.98258 2.92139C10.9195 2.92139 12.7066 3.55871 14.0312 4.72089C15.4683 5.99553 16.2306 7.79503 16.2306 9.90695C16.2306 12.0189 15.4683 13.8059 14.0312 15.0805C12.7066 16.2427 10.907 16.8925 8.98258 16.8925Z" fill="url(#paint0_radial_1200_6247)"/>
<path d="M14.9668 5.75439C15.6328 6.8291 15.9802 8.10874 15.9802 9.5321C15.9802 11.644 15.2179 13.431 13.7808 14.7057C12.4562 15.8678 10.6567 16.5177 8.73222 16.5177C6.47534 16.5177 4.10848 15.5992 2.71136 13.651C4.056 15.8578 6.58531 16.8926 8.98215 16.8926C10.9066 16.8926 12.7061 16.2427 14.0308 15.0806C15.4679 13.8059 16.2302 12.0189 16.2302 9.90699C16.2302 8.31493 15.7965 6.90033 14.9668 5.75439Z" fill="#EB8F00"/>
<path fill-rule="evenodd" clip-rule="evenodd" d="M7.15643 13.9175C7.15643 13.6414 7.38023 13.4176 7.6563 13.4176H10.4055C10.6816 13.4176 10.9054 13.6414 10.9054 13.9175C10.9054 14.1935 10.6816 14.4173 10.4055 14.4173H7.6563C7.38023 14.4173 7.15643 14.1935 7.15643 13.9175Z" fill="#35220B"/>
<path d="M7.23097 10.0399L7.20598 10.0649L7.14349 10.1274C7.1185 10.1524 7.09351 10.1648 7.05602 10.2023C7.01603 10.2348 6.97479 10.2636 6.93105 10.2898C6.88107 10.3148 6.83108 10.3523 6.78109 10.3773C6.73111 10.4023 6.66862 10.4273 6.60614 10.4523C6.54491 10.4748 6.48242 10.491 6.41869 10.5023C6.35246 10.5135 6.28623 10.5173 6.21875 10.5148H6.10628C6.08128 10.5148 6.04379 10.5023 6.0188 10.5023C5.95507 10.491 5.89259 10.4748 5.83135 10.4523C5.77012 10.4348 5.71138 10.4098 5.6564 10.3773C5.60391 10.3523 5.55393 10.3236 5.50644 10.2898C5.41896 10.2273 5.34398 10.1648 5.294 10.1274L5.21902 10.0524L5.19403 10.0274C5.03282 9.88243 4.79164 9.87243 4.61918 10.0024C4.49797 10.0974 4.45673 10.2623 4.51921 10.4023L4.53171 10.4398C4.54545 10.4748 4.56295 10.5073 4.58169 10.5397C4.65792 10.6685 4.7504 10.7859 4.85662 10.8896C4.93035 10.9621 5.01033 11.0296 5.09405 11.0896C5.19278 11.1583 5.2965 11.2171 5.40647 11.2645C5.52644 11.3195 5.65265 11.3608 5.78137 11.3895C5.84385 11.402 5.91883 11.4145 5.99381 11.427C6.0313 11.427 6.08128 11.4395 6.09378 11.4395H6.19375C6.33246 11.4395 6.46993 11.427 6.60614 11.402C6.7361 11.3758 6.86107 11.3333 6.98104 11.277C7.09101 11.2296 7.19473 11.1708 7.29345 11.1021C7.38343 11.0484 7.46341 10.9809 7.53089 10.9021C7.59212 10.8459 7.64711 10.7834 7.69334 10.7147C7.71834 10.6897 7.73083 10.6522 7.75583 10.6272C7.78082 10.6022 7.79332 10.5772 7.80581 10.5522C7.82706 10.5222 7.84455 10.4885 7.8558 10.4523L7.8683 10.4273C7.94577 10.2523 7.8658 10.0461 7.69084 9.96865C7.67585 9.96241 7.6596 9.95616 7.64336 9.95241C7.5009 9.89367 7.33719 9.92866 7.23097 10.0399Z" fill="#422B0D"/>
<path d="M12.8434 10.0868L12.8185 10.1118C12.7985 10.1343 12.7772 10.1555 12.7547 10.1743L12.6685 10.2455C12.6323 10.273 12.591 10.303 12.5435 10.333C12.496 10.363 12.4473 10.3917 12.3936 10.4192C12.3386 10.4467 12.2811 10.4705 12.2224 10.4904C12.1611 10.5092 12.0986 10.5242 12.0349 10.5367C11.9699 10.5467 11.905 10.5517 11.8387 10.5517H11.78C11.7475 10.5517 11.7412 10.5517 11.7288 10.5517L11.6413 10.5404C11.5775 10.5279 11.5151 10.5129 11.4538 10.4942C11.3938 10.4717 11.3364 10.4455 11.2801 10.4155C11.2264 10.388 11.1764 10.358 11.1302 10.3292C11.0564 10.2805 10.9877 10.2255 10.9227 10.1655L10.844 10.0931L10.8128 10.0618C10.6528 9.91561 10.4116 9.90686 10.2417 10.0406C10.1179 10.1355 10.0767 10.3055 10.1442 10.4467L10.1629 10.4842C10.1792 10.5204 10.1979 10.5554 10.2179 10.5892C10.3466 10.8041 10.5216 10.9878 10.729 11.129C10.8277 11.1978 10.9327 11.2565 11.0427 11.304C11.1652 11.3577 11.2926 11.4002 11.4238 11.4289C11.4926 11.4414 11.5563 11.4539 11.64 11.4614C11.6788 11.4614 11.7238 11.4689 11.7437 11.4689H11.8412C11.9812 11.4664 12.1199 11.4527 12.2574 11.4252C12.3886 11.3964 12.516 11.354 12.6385 11.3002C12.7485 11.2527 12.8534 11.194 12.9522 11.1253C13.1071 11.0203 13.2446 10.8903 13.3583 10.7416L13.4183 10.6579L13.4683 10.5792C13.487 10.5492 13.5033 10.5167 13.517 10.483L13.5308 10.4517C13.6057 10.273 13.5208 10.0668 13.3421 9.99184C13.3296 9.98684 13.3171 9.98184 13.3046 9.97934C13.1434 9.92311 12.9634 9.96559 12.8434 10.0868Z" fill="#422B0D"/>
<path d="M3.9595 7.89677C3.68458 7.94676 3.67208 8.34665 3.972 8.35914C4.63432 8.36789 5.27414 8.12171 5.75901 7.67184C5.94396 7.51188 6.10017 7.32193 6.22138 7.10949C6.29386 7.00577 6.26887 6.86331 6.16515 6.79083C6.06143 6.71835 5.91896 6.74334 5.84648 6.84706L5.83399 6.85956C5.34412 7.40691 4.68305 7.77306 3.9595 7.89677Z" fill="#422B0D"/>
<path d="M12.2187 6.84706C12.1462 6.74334 12.0038 6.71835 11.9 6.79083C11.7963 6.86331 11.7713 7.00577 11.8438 7.10949C11.965 7.32193 12.1212 7.51188 12.3062 7.67184C12.7935 8.11796 13.4321 8.36414 14.0932 8.35914C14.4056 8.34665 14.3806 7.94676 14.1057 7.89677C13.3734 7.77681 12.7073 7.40566 12.2187 6.84706Z" fill="#422B0D"/>
<path d="M5.12768 1.36635H5.62058C5.62058 1.36635 7.64519 1.09076 9.01432 1.10293C10.3194 1.11453 12.2384 1.36635 12.2384 1.36635H13.0141C13.8038 2.67089 14.3713 4.01054 14.6315 5.38668C12.0803 4.66059 9.01432 6.19526 9.01432 6.19526C9.01432 6.19526 5.90225 4.68738 3.42175 5.22933C3.8188 3.82062 4.30814 2.54225 5.12768 1.36635Z" fill="#7F2125"/>
<path d="M5.12768 1.36635H5.62058C5.62058 1.36635 7.64519 1.09076 9.01432 1.10293C10.3194 1.11453 12.2384 1.36635 12.2384 1.36635H13.0141M5.12768 1.36635C4.30814 2.54225 3.8188 3.82062 3.42175 5.22933C5.90225 4.68738 9.01432 6.19526 9.01432 6.19526C9.01432 6.19526 12.0803 4.66059 14.6315 5.38668C14.3713 4.01054 13.8038 2.67089 13.0141 1.36635M5.12768 1.36635C5.76881 2.06297 6.68221 1.62537 9.01432 2.16145C11.1258 1.64157 12.1424 2.09747 13.0141 1.36635" stroke="#67211F" stroke-width="0.0582032"/>
<path d="M9.0307 6.17285L9.03819 2.16528C10.6257 1.67719 11.8309 2.05825 13.0219 1.39038C13.5406 2.18836 14.3986 3.68251 14.6393 5.37555C12.5777 4.84446 10.3978 5.54555 9.0307 6.17285Z" fill="#67211F" stroke="#67211F" stroke-width="0.0365292"/>
<path d="M6.30766 1.81818C5.94722 1.57663 5.60905 1.70753 5.62387 1.3606L5.15961 1.37536C5.52148 1.76397 6.05649 1.76295 6.30766 1.81818Z" fill="#67211F"/>
<path d="M11.6752 1.77414C12.0356 1.53502 12.3241 1.68949 12.3093 1.34607H13.0207C12.6588 1.73076 11.9264 1.71946 11.6752 1.77414Z" fill="#67211F" fill-opacity="0.56"/>
<path d="M9.08443 1.40501L9.00347 2.11736L9.15214 2.10709L9.08443 1.40501Z" fill="#67211F" stroke="#67211F" stroke-width="0.0885594"/>
<path d="M7.13921 1.89944C6.87715 1.88478 6.71937 1.87013 6.50272 1.85547C6.36795 3.40526 6.31622 3.78902 6.59702 5.32404C6.97786 5.4238 7.26585 5.51792 7.59461 5.61924C6.82369 4.21631 7.03792 3.31505 7.13921 1.89944Z" fill="#D60000" stroke="#67211F" stroke-width="0.0365292"/>
<path d="M6.71409 1.87767L6.52414 1.86279L6.48615 2.14537L6.71409 1.87767Z" fill="#398F00" stroke="#67211F" stroke-width="0.00737995"/>
<path d="M6.4043 2.91823L7.11567 2.09742L7.12316 1.91421L6.71131 1.87756L6.48667 2.14139L6.4043 2.91823Z" fill="#FF7F00" stroke="#67211F" stroke-width="0.00737995"/>
<path d="M6.86687 2.37593C6.86687 2.37593 6.63973 2.12187 6.55986 2.05347L6.48498 2.14141L6.4101 2.91092C6.51992 2.78144 6.86687 2.37593 6.86687 2.37593Z" fill="#D60000" stroke="#67211F" stroke-width="0.00737995"/>
<path d="M7.08442 2.98416C7.08519 2.6679 7.09264 2.47178 7.11437 2.09741L6.41049 2.91088C6.38542 3.2336 6.37944 3.41162 6.37305 3.72434L7.08442 2.98416Z" fill="#007FFF" stroke="#67211F" stroke-width="0.00590396"/>
<path d="M6.91219 3.16005L6.56025 2.73499L6.41049 2.91087C6.39095 3.2293 6.38158 3.40599 6.37305 3.72435L6.91219 3.16005Z" fill="#398F00" stroke="#67211F" stroke-width="0.00590396"/>
<path d="M6.94215 3.90003L6.59769 3.48962L6.37305 3.72414C6.38054 4.05393 6.403 4.2005 6.42549 4.47166L6.94215 3.90003Z" fill="#D60000" stroke="#67211F" stroke-width="0.00590396"/>
<path d="M6.91239 4.73572L6.56793 4.31799L6.42566 4.47189C6.48556 4.80901 6.50054 4.89695 6.56045 5.14613L6.91239 4.73572Z" fill="#007FFF" stroke="#67211F" stroke-width="0.00590396"/>
<path d="M7.00322 5.43389L6.66461 5.02148L6.55927 5.14668L6.60683 5.31079L7.00322 5.43389Z" fill="#FF7F00" stroke="#67211F" stroke-width="0.00590396"/>
<path d="M7.11951 3.70234C7.09286 3.45597 7.08281 3.304 7.08207 2.98413L6.59534 3.48981C6.81998 3.75364 6.77505 3.69501 6.93979 3.90021L7.11951 3.70234Z" fill="#FF7F00" stroke="#67211F" stroke-width="0.00590396"/>
<path d="M7.20904 4.38395C7.17909 4.15676 7.14165 4.0395 7.11919 3.70972L6.56506 4.31799C6.78428 4.59783 6.74069 4.53498 6.90952 4.72833L7.20904 4.38395Z" fill="#398F00" stroke="#67211F" stroke-width="0.00590396"/>
<path d="M7.38244 5.03616C7.31504 4.79431 7.2776 4.69171 7.21021 4.38391L6.66357 5.0215C6.8358 5.24136 6.8358 5.24136 7.00803 5.43923L7.38244 5.03616Z" fill="#D60000" stroke="#67211F" stroke-width="0.00590396"/>
<path d="M7.59945 5.60658C7.42639 5.39301 7.43725 5.40359 7.25666 5.17529L6.99799 5.42859C7.31542 5.51202 7.30986 5.51017 7.30986 5.51017L7.59945 5.60658Z" fill="#398F00" stroke="#67211F" stroke-width="0.00590396"/>
<path d="M7.38329 5.03601L7.25537 5.17593L7.58646 5.58834H7.59398L7.38329 5.03601Z" fill="#007FFF" stroke="#67211F" stroke-width="0.00590396"/>
<path d="M7.16111 4.04856L7.12349 3.71716L7.07834 3.76135L7.01062 3.83499L7.16111 4.04856Z" fill="#007FFF" stroke="#67211F" stroke-width="0.00590396"/>
<g filter="url(#filter0_d_1200_6247)">
<path d="M8.11066 2.8036L8.23154 2.61654C8.23154 2.61654 8.36288 3.16517 8.27119 3.51614C8.19828 3.79521 7.92948 4.15936 7.92948 4.15936C7.80645 4.47378 7.81433 4.64623 7.88101 4.95126L7.63568 5.24001C7.63568 5.24001 7.55983 4.84019 7.43726 4.64411C7.25943 4.35963 6.96602 4.43699 6.78508 4.18694C6.51717 3.81671 6.65608 3.03508 6.65608 3.03508L6.87347 3.22348C6.87347 3.22348 7.00521 3.02887 7.13396 2.74957C7.18006 2.64955 7.22579 2.53866 7.26494 2.42197C7.32479 2.24358 7.39143 1.95672 7.39143 1.95672L7.5171 2.21417L7.61816 2.07728C7.61816 2.07728 7.62697 2.27461 7.66427 2.38495C7.74986 2.6382 7.84816 2.73039 8.11066 2.8036Z" fill="url(#paint1_linear_1200_6247)"/>
<path d="M8.11066 2.8036C8.15787 2.73055 8.23154 2.61654 8.23154 2.61654C8.23154 2.61654 8.36288 3.16517 8.27119 3.51614C8.19828 3.79521 7.92948 4.15936 7.92948 4.15936C7.80645 4.47378 7.81433 4.64623 7.88101 4.95126L7.63568 5.24001C7.63568 5.24001 7.55983 4.84019 7.43726 4.64411C7.25943 4.35962 6.96602 4.43699 6.78508 4.18694C6.51717 3.81671 6.65608 3.03508 6.65608 3.03508L6.87347 3.22348M8.11066 2.8036C7.84816 2.73039 7.74986 2.6382 7.66427 2.38495C7.62697 2.27461 7.61816 2.07728 7.61816 2.07728L7.5171 2.21417M8.11066 2.8036C8.10346 2.83008 7.89233 3.28669 7.89233 3.28669C7.89233 3.28669 7.72723 2.97023 7.65299 2.75564M6.87347 3.22348C6.99783 3.36666 7.01654 3.46024 7.05178 3.62613L7.21318 3.03248L7.45945 3.39694L7.50246 2.6036L7.65299 2.75564M6.87347 3.22348C6.87347 3.22348 7.00521 3.02887 7.13396 2.74957C7.18006 2.64955 7.22579 2.53866 7.26494 2.42197C7.32479 2.24358 7.39143 1.95672 7.39143 1.95672L7.5171 2.21417M7.5171 2.21417C7.5171 2.21417 7.58161 2.5493 7.65299 2.75564" stroke="#F8F7FC" stroke-width="0.0365292"/>
</g>
<defs>
<filter id="filter0_d_1200_6247" x="6.60181" y="1.90234" width="1.84715" height="3.49072" filterUnits="userSpaceOnUse" color-interpolation-filters="sRGB">
<feFlood flood-opacity="0" result="BackgroundImageFix"/>
<feColorMatrix in="SourceAlpha" type="matrix" values="0 0 0 0 0 0 0 0 0 0 0 0 0 0 0 0 0 0 127 0" result="hardAlpha"/>
<feOffset dx="0.0737995" dy="0.0590396"/>
<feGaussianBlur stdDeviation="0.0265678"/>
<feComposite in2="hardAlpha" operator="out"/>
<feColorMatrix type="matrix" values="0 0 0 0 0 0 0 0 0 0 0 0 0 0 0 0 0 0 0.25 0"/>
<feBlend mode="normal" in2="BackgroundImageFix" result="effect1_dropShadow_1200_6247"/>
<feBlend mode="normal" in="SourceGraphic" in2="effect1_dropShadow_1200_6247" result="shape"/>
</filter>
<radialGradient id="paint0_radial_1200_6247" cx="0" cy="0" r="1" gradientUnits="userSpaceOnUse" gradientTransform="translate(8.98258 9.90695) scale(7.11802 7.11799)">
<stop offset="0.5" stop-color="#FDE030"/>
<stop offset="0.92" stop-color="#F7C02B"/>
<stop offset="1" stop-color="#F4A223"/>
</radialGradient>
<linearGradient id="paint1_linear_1200_6247" x1="7.79337" y1="2.06287" x2="6.99878" y2="5.07182" gradientUnits="userSpaceOnUse">
<stop stop-color="#C9C9C9"/>
<stop offset="1" stop-color="#939297"/>
</linearGradient>
</defs>
</svg>
