<svg width="19" height="19" viewBox="0 0 19 19" fill="none" xmlns="http://www.w3.org/2000/svg">
<path d="M9.90675 17.8869C6.42021 17.8869 2.65874 15.7 2.65874 10.9013C2.65874 6.10266 6.42021 3.91577 9.90675 3.91577C11.8437 3.91577 13.6307 4.55309 14.9554 5.71527C16.3925 6.98992 17.1548 8.78942 17.1548 10.9013C17.1548 13.0132 16.3925 14.8002 14.9554 16.0749C13.6307 17.2371 11.8312 17.8869 9.90675 17.8869Z" fill="url(#paint0_radial_1200_7676)"/>
<path d="M14.7174 11.993C14.5512 11.6856 14.2 11.5519 13.8251 11.6681C12.7054 12.018 11.2671 12.2205 9.87747 12.2217C8.48785 12.2205 7.04949 12.018 5.9298 11.6681C5.55615 11.5519 5.20375 11.6856 5.03754 11.993C4.86759 12.308 4.99131 12.6704 5.13377 12.9853C5.93605 14.7473 7.70432 15.802 9.86622 15.8082C9.87247 15.8082 9.87997 15.8082 9.88622 15.8082C12.0481 15.802 13.8164 14.7473 14.6187 12.9853C14.7636 12.6704 14.8874 12.3067 14.7174 11.993Z" fill="#35220B"/>
<path d="M11.8771 15.3048C11.8309 15.2624 11.7834 15.2236 11.7359 15.1836C11.2173 14.75 10.65 14.5076 9.88644 14.5076C9.1254 14.5076 8.49182 14.7325 7.95447 15.1599C7.90573 15.1986 7.85699 15.2361 7.80951 15.2774C7.77077 15.3211 7.73828 15.3623 7.70953 15.4023C8.36061 15.661 9.08791 15.8022 9.86769 15.8047C9.87394 15.8047 9.88144 15.8047 9.88769 15.8047C10.6325 15.8022 11.3298 15.6735 11.9584 15.4361C11.9359 15.3936 11.9096 15.3511 11.8771 15.3048Z" fill="#ED7770"/>
<path d="M13.8257 11.6671C12.706 12.017 11.2676 12.2194 9.878 12.2207C8.48838 12.2194 7.05003 12.017 5.93033 11.6671C5.55668 11.5508 5.20428 11.6846 5.03808 11.992C5.01183 12.0407 4.99434 12.0907 4.98184 12.1419C5.02308 12.1632 5.07057 12.1844 5.1268 12.2069C6.63889 12.978 8.27094 13.3229 9.97548 13.3229C11.6113 13.3229 13.1796 13.0042 14.6404 12.2969C14.6992 12.2719 14.7479 12.2482 14.7917 12.2257C14.7804 12.1457 14.7579 12.0682 14.7167 11.992C14.5517 11.6846 14.2006 11.5496 13.8257 11.6671Z" fill="white"/>
<path d="M9.81114 12.4216C10.8321 12.4391 11.6631 12.2842 12.6729 12.0917C12.9253 12.043 13.1765 11.9868 13.4252 11.9205L13.6114 11.8693C13.6676 11.8543 13.7101 11.8443 13.7601 11.8405C13.855 11.8318 13.9475 11.8455 14.0275 11.8793C14.1862 11.9455 14.4124 12.1455 14.4686 12.3054C14.6173 12.7303 14.3761 13.4726 14.4361 13.3489C14.4386 13.3451 14.5898 13.0902 14.5911 13.0865C14.6923 12.8428 14.8248 12.5666 14.7923 12.2329C14.7585 11.8968 14.5049 11.5881 14.1887 11.4719C14.0325 11.4132 13.8663 11.3994 13.7113 11.4207C13.6351 11.4294 13.5539 11.4519 13.4901 11.4732L13.3139 11.5306C13.0777 11.6031 12.8378 11.6681 12.5954 11.7256C11.6256 11.9518 10.8259 12.0705 9.82364 12.0955H9.79365C8.79142 12.0717 8.04038 11.9518 7.07064 11.7256C6.82821 11.6681 6.58827 11.6031 6.35209 11.5306L6.17589 11.4732C6.1109 11.4519 6.03093 11.4294 5.9547 11.4207C5.79974 11.3994 5.63229 11.4132 5.47733 11.4719C5.16116 11.5881 4.93873 11.8955 4.89374 12.2304C4.82126 12.7778 5.31737 13.3664 5.31987 13.3701C5.37985 13.4938 5.06869 12.7278 5.2174 12.3029C5.27363 12.143 5.47983 11.9455 5.63728 11.8793C5.71726 11.8455 5.80849 11.8306 5.90471 11.8405C5.9547 11.8443 5.99594 11.8543 6.05342 11.8693L6.23962 11.9205C6.48955 11.9868 6.74073 12.043 6.99191 12.0917C8.00039 12.2829 8.76143 12.4379 9.7824 12.4216" fill="#EB8F00"/>
<path d="M17.674 7.20693C17.674 7.20693 17.5452 6.98449 15.1546 6.76205C11.9718 6.46588 10.8296 7.35064 10.6146 7.55058L10.5921 7.54933C10.3535 7.53434 10.1273 7.51934 9.87733 7.51934C9.87359 7.51934 9.86984 7.51934 9.86609 7.51934C9.74362 7.52059 9.49994 7.53309 9.29249 7.54558C9.06256 7.33439 7.91287 6.46838 4.75873 6.76205C2.36939 6.98449 2.24067 7.20693 2.24067 7.20693L2.22568 8.10918C2.22568 8.10918 2.58183 8.2104 2.81302 8.49657C3.04295 8.77899 3.15042 10.3611 3.52407 11.1046C4.10266 12.2593 6.97938 11.9669 6.97938 11.9669C6.97938 11.9669 8.15281 12.0593 8.72515 11.0709C9.24376 10.1774 9.4362 8.9252 9.46745 8.69651C9.58616 8.62778 9.74112 8.57405 9.93857 8.57155C10.1598 8.57405 10.3285 8.64153 10.4522 8.72151C10.4934 9.00393 10.6896 10.2061 11.1907 11.0696C11.7631 12.0568 12.9365 11.9656 12.9365 11.9656C12.9365 11.9656 15.8132 12.258 16.3918 11.1033C16.7654 10.3586 16.8729 8.77774 17.1029 8.49532C17.3328 8.20915 17.6902 8.10793 17.6902 8.10793L17.674 7.20693ZM8.50146 9.69624C8.27402 10.7509 7.98785 11.4695 6.03713 11.3583C4.78123 11.287 3.90772 11.2895 3.70652 9.45755C3.58281 8.31912 3.72027 7.88924 3.81399 7.75178C3.90647 7.61556 4.24263 7.22067 6.18584 7.28941C8.12906 7.35814 8.40774 7.79426 8.52145 7.99171C8.52645 7.99921 8.5302 8.00796 8.5352 8.0167L8.61768 8.28913C8.66392 8.5603 8.65392 8.99518 8.50146 9.69624ZM16.2081 9.45755C16.0082 11.2895 15.1346 11.287 13.8787 11.3583C11.928 11.4695 11.6419 10.7509 11.4144 9.69624C11.1857 8.64403 11.2782 8.18791 11.3932 7.99171C11.5069 7.79426 11.7856 7.35689 13.7288 7.28941C15.6732 7.22067 16.0082 7.61556 16.1006 7.75178C16.1931 7.88924 16.3318 8.31912 16.2081 9.45755Z" fill="#35220B"/>
<path d="M13.2072 8.28284C12.6836 8.28284 12.2075 8.72521 12.2075 9.46001C12.2075 10.1948 12.6836 10.6372 13.2072 10.6372C13.7308 10.6372 14.2069 10.1948 14.2069 9.46001C14.2069 8.72521 13.7308 8.28284 13.2072 8.28284Z" fill="#35220B"/>
<path d="M13.1606 8.77228C13.0319 8.6823 12.8382 8.71105 12.7132 8.891C12.5883 9.0722 12.6295 9.26214 12.7582 9.35212C12.8869 9.44209 13.0806 9.41335 13.2056 9.2334C13.3318 9.0522 13.2906 8.86225 13.1606 8.77228Z" fill="#896024"/>
<path d="M13.2072 8.28284C12.6836 8.28284 12.2075 8.72521 12.2075 9.46001C12.2075 10.1948 12.6836 10.6372 13.2072 10.6372C13.7308 10.6372 14.2069 10.1948 14.2069 9.46001C14.2069 8.72521 13.7308 8.28284 13.2072 8.28284Z" fill="#35220B"/>
<path d="M13.1606 8.77228C13.0319 8.6823 12.8382 8.71105 12.7132 8.891C12.5883 9.0722 12.6295 9.26214 12.7582 9.35212C12.8869 9.44209 13.0806 9.41335 13.2056 9.2334C13.3318 9.0522 13.2906 8.86225 13.1606 8.77228Z" fill="#896024"/>
<path d="M6.66629 8.28149C6.14268 8.28149 5.66656 8.72387 5.66656 9.45867C5.66656 10.1935 6.14268 10.6358 6.66629 10.6358C7.1899 10.6358 7.66602 10.1935 7.66602 9.45867C7.66602 8.72387 7.1899 8.28149 6.66629 8.28149Z" fill="#35220B"/>
<path d="M6.61997 8.77155C6.49126 8.68157 6.29756 8.71031 6.1726 8.89026C6.04763 9.07146 6.08887 9.26141 6.21758 9.35139C6.3463 9.44136 6.54 9.41262 6.66496 9.23267C6.78993 9.05147 6.74869 8.86152 6.61997 8.77155Z" fill="#896024"/>
<path d="M6.04617 2.33425H6.54019C6.54019 2.33425 8.56944 2.05866 9.94171 2.07083C11.2498 2.08243 13.1731 2.33425 13.1731 2.33425H13.9506C14.7421 3.63878 15.311 4.97844 15.5718 6.35457C13.0148 5.62849 9.94171 7.16316 9.94171 7.16316C9.94171 7.16316 6.82251 5.65527 4.33633 6.19723C4.73429 4.78852 5.22475 3.51014 6.04617 2.33425Z" fill="#7F2125"/>
<path d="M6.04617 2.33425H6.54019C6.54019 2.33425 8.56944 2.05866 9.94171 2.07083C11.2498 2.08243 13.1731 2.33425 13.1731 2.33425H13.9506M6.04617 2.33425C5.22475 3.51014 4.73429 4.78852 4.33633 6.19723C6.82251 5.65527 9.94171 7.16316 9.94171 7.16316C9.94171 7.16316 13.0148 5.62849 15.5718 6.35457C15.311 4.97844 14.7421 3.63878 13.9506 2.33425M6.04617 2.33425C6.68877 3.03087 7.60426 2.59326 9.94171 3.12934C12.058 2.60946 13.077 3.06537 13.9506 2.33425" stroke="#67211F" stroke-width="0.0582032"/>
<path d="M9.95793 7.14038L9.96544 3.1328C11.5566 2.64472 12.7646 3.02578 13.9582 2.35791C14.4782 3.15589 15.3382 4.65004 15.5794 6.34308C13.513 5.81199 11.3281 6.51308 9.95793 7.14038Z" fill="#67211F" stroke="#67211F" stroke-width="0.0365292"/>
<path d="M7.22795 2.78608C6.86669 2.54452 6.52774 2.67542 6.5426 2.32849L6.07727 2.34325C6.43997 2.73186 6.97621 2.73085 7.22795 2.78608Z" fill="#67211F"/>
<path d="M12.6063 2.74154C12.9676 2.50243 13.2568 2.6569 13.2419 2.31348H13.9549C13.5922 2.69816 12.8581 2.68687 12.6063 2.74154Z" fill="#67211F" fill-opacity="0.56"/>
<path d="M10.011 2.37242L9.92986 3.08476L10.0789 3.0745L10.011 2.37242Z" fill="#67211F" stroke="#67211F" stroke-width="0.0885594"/>
<path d="M8.06327 2.86709C7.8006 2.85243 7.64246 2.83778 7.42532 2.82312C7.29024 4.37291 7.23839 4.75667 7.51983 6.2917C7.90155 6.39145 8.1902 6.48557 8.51971 6.58689C7.74702 5.18396 7.96175 4.2827 8.06327 2.86709Z" fill="#D60000" stroke="#67211F" stroke-width="0.0365292"/>
<path d="M7.63494 2.84544L7.44456 2.83057L7.40648 3.11314L7.63494 2.84544Z" fill="#398F00" stroke="#67211F" stroke-width="0.00737995"/>
<path d="M7.32573 3.88625L8.03873 3.06544L8.04624 2.88222L7.63345 2.84558L7.40829 3.10941L7.32573 3.88625Z" fill="#FF7F00" stroke="#67211F" stroke-width="0.00737995"/>
<path d="M7.78924 3.34346C7.78924 3.34346 7.56158 3.0894 7.48153 3.021L7.40647 3.10894L7.33142 3.87844C7.4415 3.74897 7.78924 3.34346 7.78924 3.34346Z" fill="#D60000" stroke="#67211F" stroke-width="0.00737995"/>
<path d="M8.00738 3.95169C8.00815 3.63543 8.01561 3.43931 8.0374 3.06494L7.3319 3.87841C7.30677 4.20113 7.30078 4.37915 7.29437 4.69187L8.00738 3.95169Z" fill="#007FFF" stroke="#67211F" stroke-width="0.00590396"/>
<path d="M7.83475 4.1277L7.482 3.70264L7.3319 3.87852C7.31232 4.19695 7.30292 4.37364 7.29437 4.692L7.83475 4.1277Z" fill="#398F00" stroke="#67211F" stroke-width="0.00590396"/>
<path d="M7.86477 4.8678L7.51953 4.4574L7.29437 4.69191C7.30188 5.0217 7.32439 5.16827 7.34694 5.43943L7.86477 4.8678Z" fill="#D60000" stroke="#67211F" stroke-width="0.00590396"/>
<path d="M7.83388 5.70325L7.48864 5.28552L7.34604 5.43942C7.40608 5.77654 7.42109 5.86448 7.48113 6.11366L7.83388 5.70325Z" fill="#007FFF" stroke="#67211F" stroke-width="0.00590396"/>
<path d="M7.92652 6.4013L7.58714 5.98889L7.48155 6.11409L7.52922 6.2782L7.92652 6.4013Z" fill="#FF7F00" stroke="#67211F" stroke-width="0.00590396"/>
<path d="M8.04495 4.66987C8.01824 4.4235 8.00816 4.27153 8.00742 3.95166L7.51958 4.45734C7.74474 4.72117 7.6997 4.66254 7.86482 4.86774L8.04495 4.66987Z" fill="#FF7F00" stroke="#67211F" stroke-width="0.00590396"/>
<path d="M8.13189 5.35172C8.10187 5.12454 8.06434 5.00728 8.04183 4.67749L7.48643 5.28577C7.70615 5.56561 7.66246 5.50276 7.83168 5.6961L8.13189 5.35172Z" fill="#398F00" stroke="#67211F" stroke-width="0.00590396"/>
<path d="M8.30736 6.00393C8.23981 5.76209 8.20229 5.65949 8.13474 5.35168L7.58685 5.98927C7.75947 6.20913 7.75947 6.20913 7.9321 6.40701L8.30736 6.00393Z" fill="#D60000" stroke="#67211F" stroke-width="0.00590396"/>
<path d="M8.52508 6.57435C8.35162 6.36078 8.36252 6.37136 8.18151 6.14307L7.92224 6.39637C8.2404 6.47979 8.23483 6.47794 8.23483 6.47794L8.52508 6.57435Z" fill="#398F00" stroke="#67211F" stroke-width="0.00590396"/>
<path d="M8.30784 6.00378L8.17963 6.14371L8.51147 6.55611H8.51901L8.30784 6.00378Z" fill="#007FFF" stroke="#67211F" stroke-width="0.00590396"/>
<path d="M8.08381 5.01597L8.0461 4.68457L8.00085 4.72876L7.93297 4.8024L8.08381 5.01597Z" fill="#007FFF" stroke="#67211F" stroke-width="0.00590396"/>
<g filter="url(#filter0_d_1200_7676)">
<path d="M9.03578 3.77126L9.15694 3.5842C9.15694 3.5842 9.28858 4.13282 9.19668 4.48379C9.12361 4.76286 8.85419 5.12701 8.85419 5.12701C8.73088 5.44143 8.73877 5.61388 8.80561 5.91891L8.55972 6.20766C8.55972 6.20766 8.48369 5.80784 8.36084 5.61176C8.18261 5.32728 7.88852 5.40464 7.70717 5.15459C7.43865 4.78436 7.57787 4.00273 7.57787 4.00273L7.79576 4.19113C7.79576 4.19113 7.9278 3.99652 8.05684 3.71722C8.10306 3.6172 8.14888 3.50631 8.18813 3.38962C8.24811 3.21123 8.3149 2.92437 8.3149 2.92437L8.44086 3.18182L8.54216 3.04493C8.54216 3.04493 8.55099 3.24226 8.58837 3.3526C8.67416 3.60585 8.77268 3.69804 9.03578 3.77126Z" fill="url(#paint1_linear_1200_7676)"/>
<path d="M9.03578 3.77126C9.0831 3.6982 9.15694 3.5842 9.15694 3.5842C9.15694 3.5842 9.28858 4.13282 9.19668 4.48379C9.12361 4.76286 8.85419 5.12701 8.85419 5.12701C8.73088 5.44143 8.73877 5.61388 8.80561 5.91891L8.55972 6.20766C8.55972 6.20766 8.48369 5.80784 8.36084 5.61176C8.18261 5.32728 7.88852 5.40464 7.70717 5.15459C7.43865 4.78436 7.57787 4.00273 7.57787 4.00273L7.79576 4.19113M9.03578 3.77126C8.77268 3.69804 8.67416 3.60585 8.58837 3.3526C8.55099 3.24226 8.54216 3.04493 8.54216 3.04493L8.44086 3.18182M9.03578 3.77126C9.02857 3.79773 8.81695 4.25434 8.81695 4.25434C8.81695 4.25434 8.65147 3.93788 8.57706 3.72329M7.79576 4.19113C7.9204 4.33431 7.93916 4.42789 7.97448 4.59378L8.13625 4.00014L8.38308 4.36459L8.42619 3.57125L8.57706 3.72329M7.79576 4.19113C7.79576 4.19113 7.9278 3.99652 8.05684 3.71722C8.10306 3.6172 8.14888 3.50631 8.18813 3.38962C8.24811 3.21123 8.3149 2.92437 8.3149 2.92437L8.44086 3.18182M8.44086 3.18182C8.44086 3.18182 8.50552 3.51695 8.57706 3.72329" stroke="#F8F7FC" stroke-width="0.0365292"/>
</g>
<defs>
<filter id="filter0_d_1200_7676" x="7.52348" y="2.87012" width="1.85103" height="3.49059" filterUnits="userSpaceOnUse" color-interpolation-filters="sRGB">
<feFlood flood-opacity="0" result="BackgroundImageFix"/>
<feColorMatrix in="SourceAlpha" type="matrix" values="0 0 0 0 0 0 0 0 0 0 0 0 0 0 0 0 0 0 127 0" result="hardAlpha"/>
<feOffset dx="0.0737995" dy="0.0590396"/>
<feGaussianBlur stdDeviation="0.0265678"/>
<feComposite in2="hardAlpha" operator="out"/>
<feColorMatrix type="matrix" values="0 0 0 0 0 0 0 0 0 0 0 0 0 0 0 0 0 0 0.25 0"/>
<feBlend mode="normal" in2="BackgroundImageFix" result="effect1_dropShadow_1200_7676"/>
<feBlend mode="normal" in="SourceGraphic" in2="effect1_dropShadow_1200_7676" result="shape"/>
</filter>
<radialGradient id="paint0_radial_1200_7676" cx="0" cy="0" r="1" gradientUnits="userSpaceOnUse" gradientTransform="translate(9.90675 10.9013) scale(7.11802 7.11799)">
<stop offset="0.5" stop-color="#FDE030"/>
<stop offset="0.9188" stop-color="#F7C02B"/>
<stop offset="1" stop-color="#F4A223"/>
</radialGradient>
<linearGradient id="paint1_linear_1200_7676" x1="8.71777" y1="3.03052" x2="7.92475" y2="6.04036" gradientUnits="userSpaceOnUse">
<stop stop-color="#C9C9C9"/>
<stop offset="1" stop-color="#939297"/>
</linearGradient>
</defs>
</svg>
