<svg width="19" height="19" viewBox="0 0 19 19" fill="none" xmlns="http://www.w3.org/2000/svg">
<g clip-path="url(#clip0_1200_7814)">
<path d="M15.8952 16.1048C13.4296 18.5704 9.2233 19.6838 5.83048 16.2898C2.43765 12.8957 3.54985 8.69061 6.01543 6.22505C7.3813 4.85543 9.09958 4.04315 10.8579 3.92944C12.7761 3.81447 14.5868 4.54801 16.0802 6.04135C17.5735 7.53468 18.2983 9.33668 18.1833 11.2549C18.0684 13.0119 17.2536 14.7439 15.8952 16.1048Z" fill="url(#paint0_radial_1200_7814)"/>
<path d="M12.2567 3.9978C13.4863 4.28647 14.631 4.94629 15.6445 5.95226C17.1441 7.45184 17.8626 9.24884 17.7477 11.1658C17.6302 12.9278 16.8154 14.6561 15.4545 16.017C13.8587 17.6128 11.5331 18.6412 9.17 18.2476C11.6818 18.8574 14.2011 17.8015 15.8969 16.1057C17.2553 14.7448 18.0701 13.0128 18.185 11.2545C18.3 9.33632 17.5752 7.53432 16.0819 6.04099C14.9559 4.91505 13.6488 4.22149 12.2567 3.9978Z" fill="#EB8F00"/>
<path d="M15.0931 8.24787C14.7469 8.1479 14.3795 8.3191 14.2333 8.64901C13.5898 9.81994 12.7812 10.8909 11.8327 11.8319C10.893 12.7804 9.82078 13.5889 8.64985 14.2312C8.32119 14.3787 8.15124 14.7448 8.24871 15.091C8.35119 15.4346 8.69484 15.6033 9.0185 15.7245C10.8318 16.4031 12.8275 15.8982 14.3608 14.3737L14.3758 14.3599C15.8991 12.8266 16.404 10.8309 15.7254 9.01641C15.6055 8.694 15.4355 8.34909 15.0931 8.24787Z" fill="#422B0D"/>
<path d="M14.2658 14.2482L14.2573 14.2567V14.2652L14.2658 14.2482Z" fill="#422B0D"/>
<path d="M11.9608 11.9274L11.9457 11.9411L11.9321 11.9561L11.9608 11.9274Z" fill="#422B0D"/>
<path d="M11.9608 11.9274L11.9457 11.9411L11.9321 11.9561L11.9608 11.9274Z" fill="#422B0D"/>
<path d="M14.2658 14.2482L14.2573 14.2567V14.2652L14.2658 14.2482Z" fill="#422B0D"/>
<path d="M15.4316 12.599C15.3679 12.599 15.3067 12.6077 15.2467 12.6127C14.5681 12.6565 13.9308 12.9527 13.4597 13.4425C12.9548 13.9274 12.6349 14.5747 12.5549 15.2708C12.5474 15.332 12.5399 15.3957 12.5362 15.4557C12.5324 15.5157 12.5462 15.5657 12.5537 15.6157C13.2297 15.3182 13.8433 14.8971 14.3632 14.3735L14.3782 14.3598C14.8793 13.8611 15.2867 13.2763 15.5804 12.634C15.5316 12.619 15.4816 12.6077 15.4316 12.599Z" fill="#ED7770"/>
<path d="M14.2333 8.64901C13.5898 9.81994 12.7812 10.8909 11.8327 11.8319C10.893 12.7804 9.82078 13.5889 8.64985 14.2312C8.32119 14.3787 8.15124 14.7448 8.24871 15.091C8.26496 15.1422 8.2862 15.1909 8.3137 15.2372C8.36493 15.2197 8.41367 15.1997 8.46241 15.1759C10.0582 14.6461 11.5053 13.7438 12.6813 12.5417C13.8347 11.4132 14.7144 10.0374 15.2543 8.51655C15.2755 8.46531 15.2943 8.41283 15.3105 8.35909C15.2455 8.30911 15.1718 8.27037 15.0931 8.24787C14.7469 8.1479 14.3795 8.3191 14.2333 8.64901Z" fill="white"/>
<path d="M11.9323 12.0197C12.6659 11.3099 13.1458 10.6126 13.7231 9.76283C13.8668 9.55039 14.003 9.33295 14.1342 9.10927L14.2292 8.94056C14.2542 8.89683 14.2817 8.85434 14.3142 8.8156C14.3717 8.74437 14.4454 8.68938 14.5304 8.65439C14.7278 8.58191 14.944 8.57816 15.144 8.6444C15.5501 8.83934 15.9037 9.53415 15.8588 9.40418C15.8588 9.40418 15.785 9.11302 15.7825 9.10927C15.6826 8.85934 15.5801 8.57691 15.3214 8.35947C15.044 8.14828 14.6741 8.10579 14.3567 8.2495C14.208 8.31699 14.0792 8.42071 13.9818 8.55067C13.9343 8.61065 13.8918 8.67564 13.8568 8.74437L13.7731 8.90932C13.6569 9.12801 13.5331 9.3442 13.3982 9.55539C12.9183 10.3564 12.3522 11.1025 11.7099 11.7798L11.6899 11.7998C11.0263 12.4346 10.2953 12.9932 9.508 13.4656C9.29555 13.5905 9.08061 13.7155 8.86192 13.8405L8.69197 13.9267C8.62324 13.9617 8.55826 14.0029 8.49827 14.0516C8.36706 14.1491 8.26334 14.2778 8.19586 14.4265C8.06214 14.7415 8.10963 15.1051 8.32082 15.375C8.65698 15.8137 9.42427 15.8749 9.42802 15.8749C9.55298 15.9199 8.79569 15.5975 8.60074 15.1913C8.53201 14.9989 8.53201 14.7877 8.60074 14.5952C8.63324 14.5078 8.68697 14.4303 8.7582 14.3703C8.79694 14.3378 8.83943 14.3103 8.88317 14.2866L9.05187 14.1916C9.27431 14.0666 9.49175 13.9229 9.70544 13.7792C10.554 13.2019 11.205 12.7795 11.9111 12.0397" fill="#EB8F00"/>
<path d="M17.3952 7.2218C17.5452 8.17653 16.6679 9.08128 15.8719 9.18875C15.3121 9.26373 14.6872 9.13502 13.7475 8.90133C13.6088 8.87509 13.4676 8.83385 13.3126 8.79511C12.7403 8.6364 12.1779 8.44521 11.6268 8.22277C11.5181 8.18278 11.4581 8.06781 11.4856 7.95659C11.5019 7.90911 11.5343 7.86787 11.5756 7.84038C11.9967 7.408 12.4716 7.0306 12.9864 6.71569C14.2873 5.91091 14.7822 5.80219 15.3421 5.72721C16.1143 5.601 17.2328 6.17959 17.3952 7.2218Z" fill="url(#paint1_radial_1200_7814)"/>
<path d="M16.1975 6.32724C16.5611 6.49969 16.5636 6.99831 16.0088 7.07703C15.6526 7.12452 13.8194 7.29697 14.0331 6.95832C14.383 6.40222 15.6839 6.08356 16.1975 6.32724Z" fill="#81D4FA"/>
<path d="M12.0881 7.19189L10.9347 8.2266L11.3621 6.58331C11.3658 6.56332 11.3696 6.54457 11.3708 6.52458C11.4183 6.23966 11.2246 5.96973 10.9397 5.92349C10.8722 5.91225 10.8022 5.91475 10.7348 5.92974C10.4311 6.01347 10.2112 6.27839 10.1862 6.59206C10.1149 7.31811 9.94748 9.02888 9.8825 9.69495C9.8625 9.76118 9.89999 9.83116 9.96622 9.85115C10.01 9.8649 10.0574 9.8524 10.0899 9.81991L12.6755 8.18536L12.7267 8.14912C13.0391 7.90919 13.1154 7.45182 12.8629 7.18689C12.6705 6.98445 12.3381 7.00069 12.0881 7.19189Z" fill="#422B0D"/>
<path d="M6.24559 16.3022C6.2006 15.7636 6.19935 15.2788 6.68547 13.8954C6.87542 13.3481 7.13285 12.8269 7.45151 12.3433C7.46901 12.2983 7.5015 12.2609 7.54274 12.2359C7.64146 12.1859 7.76143 12.2196 7.82141 12.3121C8.14257 12.782 8.43624 13.2693 8.70367 13.7717C8.77115 13.9091 8.83863 14.0316 8.89237 14.1566C9.30476 14.9926 9.55344 15.5512 9.59842 16.0898C9.66216 16.8558 8.99609 17.863 8.07259 17.9205C7.06662 17.978 6.29308 17.052 6.24559 16.3022Z" fill="url(#paint2_radial_1200_7814)"/>
<path d="M7.13378 14.8224C7.40495 14.5512 7.62115 16.3007 7.64989 16.6444C7.69363 17.1792 7.22625 17.2792 6.99132 16.9755C6.65641 16.5506 6.68765 15.2623 7.13378 14.8224Z" fill="#81D4FA"/>
<path d="M6.77916 13.1463L7.61143 11.8379L6.0606 12.5303L6.00812 12.5515C5.73444 12.644 5.43702 12.4978 5.3433 12.2241C5.32081 12.1591 5.31206 12.0904 5.31706 12.0216C5.34955 11.708 5.57449 11.4481 5.88065 11.3718L8.88233 10.5583C8.94481 10.5283 9.01979 10.5546 9.04979 10.617C9.06978 10.6583 9.06603 10.707 9.03854 10.7433L7.85511 13.5612C7.84761 13.5812 7.83887 13.6 7.82887 13.6187C7.64392 13.9661 7.20404 14.1186 6.90162 13.9111C6.67044 13.7537 6.63295 13.4263 6.77916 13.1463Z" fill="#422B0D"/>
<path d="M2.2842 7.66958L2.64071 7.32758C2.64071 7.32758 3.91433 5.72394 4.91305 4.78275C5.86506 3.88559 7.42737 2.73586 7.42737 2.73586L7.98844 2.19764C9.46271 2.59112 10.8006 3.16412 11.9414 3.97666C9.59354 5.22279 8.43827 8.45763 8.43827 8.45763C8.43827 8.45763 5.14346 9.52876 3.72448 11.6409C3.03647 10.3489 2.50545 9.08679 2.2842 7.66958Z" fill="#7F2125"/>
<path d="M2.2842 7.66958L2.64071 7.32758C2.64071 7.32758 3.91433 5.72394 4.91305 4.78275C5.86506 3.88559 7.42737 2.73586 7.42737 2.73586L7.98844 2.19764M2.2842 7.66958C2.50545 9.08679 3.03647 10.3489 3.72448 11.6409C5.14346 9.52876 8.43827 8.45763 8.43827 8.45763C8.43827 8.45763 9.59354 5.22279 11.9414 3.97666C10.8006 3.16412 9.46271 2.59112 7.98844 2.19764M2.2842 7.66958C3.23017 7.72744 3.5879 6.77789 5.64582 5.54663C6.81317 3.70642 7.8641 3.33003 7.98844 2.19764" stroke="#67211F" stroke-width="0.0582032"/>
<path d="M8.43517 8.4299L5.66631 5.53264C6.47666 4.07895 7.61221 3.51769 8.01129 2.20938C8.9389 2.42532 10.5939 2.90823 11.94 3.96302C10.0811 5.01023 8.98971 7.02869 8.43517 8.4299Z" fill="#67211F" stroke="#67211F" stroke-width="0.0365292"/>
<path d="M3.44935 7.17757C3.02142 7.25334 2.86744 7.58244 2.638 7.32179L2.31241 7.65457C2.84317 7.68393 3.22944 7.31198 3.44935 7.17757Z" fill="#67211F"/>
<path d="M7.30055 3.42156C7.39573 2.99891 7.71134 2.9102 7.46288 2.67266L7.97741 2.17908C7.98197 2.70777 7.44437 3.20783 7.30055 3.42156Z" fill="#67211F" fill-opacity="0.56"/>
<path d="M5.17301 4.95209L5.60758 5.52232L5.70801 5.41176L5.17301 4.95209Z" fill="#67211F" stroke="#67211F" stroke-width="0.0885594"/>
<path d="M4.10849 6.65918C3.90879 6.83043 3.78452 6.92933 3.61768 7.06907C4.59305 8.28099 4.82129 8.59382 6.08704 9.50674C6.43156 9.31448 6.70502 9.18258 7.01295 9.0276C5.48415 8.55007 5.0152 7.75103 4.10849 6.65918Z" fill="#D60000" stroke="#67211F" stroke-width="0.0365292"/>
<path d="M3.78609 6.939L3.6384 7.06007L3.80654 7.29034L3.78609 6.939Z" fill="#398F00" stroke="#67211F" stroke-width="0.00737995"/>
<path d="M4.28363 7.90492L4.22996 6.81901L4.10855 6.6816L3.78529 6.94091L3.80544 7.28717L4.28363 7.90492Z" fill="#FF7F00" stroke="#67211F" stroke-width="0.00737995"/>
<path d="M4.24066 7.19189C4.24066 7.19189 3.90049 7.16615 3.79537 7.17221L3.80209 7.28763L4.28062 7.8949C4.27043 7.72526 4.24066 7.19189 4.24066 7.19189Z" fill="#D60000" stroke="#67211F" stroke-width="0.00737995"/>
<path d="M4.82032 7.47971C4.60194 7.25095 4.47156 7.10425 4.22812 6.81901L4.28213 7.89443C4.4874 8.14472 4.60632 8.27733 4.81818 8.50745L4.82032 7.47971Z" fill="#007FFF" stroke="#67211F" stroke-width="0.00590396"/>
<path d="M4.81779 7.72612L4.26898 7.66357L4.28242 7.89441C4.48872 8.13775 4.60425 8.27177 4.81847 8.50743L4.81779 7.72612Z" fill="#398F00" stroke="#67211F" stroke-width="0.00590396"/>
<path d="M5.35286 8.23931L4.81961 8.18214L4.81947 8.50725C5.05319 8.74005 5.1709 8.83023 5.37488 9.01031L5.35286 8.23931Z" fill="#D60000" stroke="#67211F" stroke-width="0.00590396"/>
<path d="M5.90771 8.86352L5.36938 8.80106L5.37302 9.01084C5.64972 9.21256 5.72143 9.26563 5.93725 9.40388L5.90771 8.86352Z" fill="#007FFF" stroke="#67211F" stroke-width="0.00590396"/>
<path d="M6.45903 9.3033L5.92862 9.24063L5.93909 9.40407L6.0871 9.4895L6.45903 9.3033Z" fill="#FF7F00" stroke="#67211F" stroke-width="0.00590396"/>
<path d="M5.34333 7.97247C5.15351 7.81317 5.04103 7.71048 4.81906 7.48016L4.81707 8.18279C5.16219 8.21732 5.08911 8.20618 5.35032 8.23996L5.34333 7.97247Z" fill="#FF7F00" stroke="#67211F" stroke-width="0.00590396"/>
<path d="M5.88312 8.40204C5.70419 8.25887 5.59593 8.20023 5.35139 7.97783L5.37167 8.80127C5.72395 8.85111 5.64892 8.836 5.90488 8.85839L5.88312 8.40204Z" fill="#398F00" stroke="#67211F" stroke-width="0.00590396"/>
<path d="M6.45829 8.75243C6.24213 8.62467 6.14402 8.5766 5.8822 8.40124L5.92819 9.24063C6.20497 9.2798 6.20497 9.2798 6.46652 9.30309L6.45829 8.75243Z" fill="#D60000" stroke="#67211F" stroke-width="0.00590396"/>
<path d="M7.00721 9.01452C6.73418 8.98048 6.74937 8.98057 6.46071 8.94112L6.44895 9.3034C6.7363 9.14336 6.731 9.14588 6.731 9.14588L7.00721 9.01452Z" fill="#398F00" stroke="#67211F" stroke-width="0.00590396"/>
<path d="M6.4568 8.75219L6.46114 8.94192L6.9861 9.00981L6.99155 9.00459L6.4568 8.75219Z" fill="#007FFF" stroke="#67211F" stroke-width="0.00590396"/>
<path d="M5.61254 8.19516L5.35591 7.98211L5.35384 8.04532L5.35584 8.14546L5.61254 8.19516Z" fill="#007FFF" stroke="#67211F" stroke-width="0.00590396"/>
<g filter="url(#filter0_d_1200_7814)">
<path d="M5.43796 6.63716L5.39591 6.41829C5.39591 6.41829 5.8707 6.72308 6.04734 7.03997C6.18779 7.29195 6.24546 7.74125 6.24546 7.74125C6.37413 8.05351 6.4992 8.1725 6.7586 8.34635L6.78104 8.72495C6.78104 8.72495 6.44939 8.48905 6.225 8.43259C5.89944 8.35068 5.74077 8.61009 5.4368 8.55519C4.98673 8.4739 4.54611 7.81345 4.54611 7.81345L4.83376 7.79858C4.83376 7.79858 4.79433 7.56673 4.69411 7.27584C4.65822 7.17167 4.61453 7.05993 4.56206 6.94855C4.48186 6.77829 4.33148 6.52504 4.33148 6.52504L4.6006 6.62363L4.57894 6.45472C4.57894 6.45472 4.72191 6.59101 4.82527 6.64476C5.06249 6.76813 5.19741 6.76645 5.43796 6.63716Z" fill="url(#paint3_linear_1200_7814)"/>
<path d="M5.43797 6.63716C5.42154 6.55169 5.39591 6.41829 5.39591 6.41829C5.39591 6.41829 5.8707 6.72308 6.04734 7.03997C6.18779 7.29195 6.24546 7.74125 6.24546 7.74125C6.37413 8.05351 6.4992 8.1725 6.7586 8.34635L6.78104 8.72495C6.78104 8.72495 6.44939 8.48905 6.225 8.43259C5.89944 8.35068 5.74077 8.61009 5.4368 8.55519C4.98673 8.4739 4.54611 7.81345 4.54611 7.81345L4.83376 7.79858M5.43797 6.63716C5.19741 6.76645 5.06249 6.76813 4.82527 6.64476C4.72191 6.59101 4.57894 6.45472 4.57894 6.45472L4.6006 6.62363M5.43797 6.63716C5.45108 6.66125 5.61447 7.13726 5.61447 7.13726C5.61447 7.13726 5.27598 7.02345 5.07372 6.92009M4.83376 7.79858C5.02283 7.81562 5.10115 7.87016 5.24148 7.96543L4.94726 7.42504L5.37768 7.51718L4.8596 6.91482L5.07372 6.92009M4.83376 7.79858C4.83376 7.79858 4.79433 7.56673 4.69411 7.27584C4.65822 7.17167 4.61453 7.05993 4.56206 6.94855C4.48186 6.77829 4.33148 6.52504 4.33148 6.52504L4.6006 6.62363M4.6006 6.62363C4.6006 6.62363 4.87926 6.82072 5.07372 6.92009" stroke="#F8F7FC" stroke-width="0.0365292"/>
</g>
</g>
<defs>
<filter id="filter0_d_1200_7814" x="4.28951" y="6.37988" width="2.6389" height="2.49426" filterUnits="userSpaceOnUse" color-interpolation-filters="sRGB">
<feFlood flood-opacity="0" result="BackgroundImageFix"/>
<feColorMatrix in="SourceAlpha" type="matrix" values="0 0 0 0 0 0 0 0 0 0 0 0 0 0 0 0 0 0 127 0" result="hardAlpha"/>
<feOffset dx="0.0737995" dy="0.0590396"/>
<feGaussianBlur stdDeviation="0.0265678"/>
<feComposite in2="hardAlpha" operator="out"/>
<feColorMatrix type="matrix" values="0 0 0 0 0 0 0 0 0 0 0 0 0 0 0 0 0 0 0.25 0"/>
<feBlend mode="normal" in2="BackgroundImageFix" result="effect1_dropShadow_1200_7814"/>
<feBlend mode="normal" in="SourceGraphic" in2="effect1_dropShadow_1200_7814" result="shape"/>
</filter>
<radialGradient id="paint0_radial_1200_7814" cx="0" cy="0" r="1" gradientUnits="userSpaceOnUse" gradientTransform="translate(10.771 10.9341) rotate(-44.9999) scale(7.14716)">
<stop offset="0.5" stop-color="#FDE030"/>
<stop offset="0.92" stop-color="#F7C02B"/>
<stop offset="1" stop-color="#F4A223"/>
</radialGradient>
<radialGradient id="paint1_radial_1200_7814" cx="0" cy="0" r="1" gradientUnits="userSpaceOnUse" gradientTransform="translate(12.6909 7.11729) rotate(-97.4809) scale(3.94298 6.09839)">
<stop offset="0.46" stop-color="#29B6F6"/>
<stop offset="1" stop-color="#1E88E5"/>
</radialGradient>
<radialGradient id="paint2_radial_1200_7814" cx="0" cy="0" r="1" gradientUnits="userSpaceOnUse" gradientTransform="translate(7.93786 12.515) rotate(175.426) scale(3.79355 5.80639)">
<stop offset="0.46" stop-color="#29B6F6"/>
<stop offset="1" stop-color="#1E88E5"/>
</radialGradient>
<linearGradient id="paint3_linear_1200_7814" x1="4.69569" y1="6.32275" x2="6.207" y2="9.04378" gradientUnits="userSpaceOnUse">
<stop stop-color="#C9C9C9"/>
<stop offset="1" stop-color="#939297"/>
</linearGradient>
<clipPath id="clip0_1200_7814">
<rect width="17.996" height="17.996" fill="white" transform="translate(0.952423 0.984131)"/>
</clipPath>
</defs>
</svg>
