<svg width="18" height="18" viewBox="0 0 18 18" fill="none" xmlns="http://www.w3.org/2000/svg">
<path d="M9.29823 16.8527C5.78812 16.8527 2.00122 14.651 2.00122 9.81989C2.00122 4.98878 5.78812 2.78711 9.29823 2.78711C11.2483 2.78711 13.0474 3.42874 14.381 4.59877C15.8278 5.88204 16.5952 7.6937 16.5952 9.81989C16.5952 11.9461 15.8278 13.7452 14.381 15.0284C13.0474 16.1985 11.2357 16.8527 9.29823 16.8527Z" fill="url(#paint0_radial_1193_454)"/>
<path d="M4.45947 10.7821C4.67209 11.2564 4.95264 11.6993 5.29107 12.0943C5.62573 12.4843 6.01449 12.8228 6.44602 13.1008C6.87503 13.3801 7.34053 13.5977 7.82993 13.7462C8.81629 14.0343 9.86303 14.0343 10.8494 13.7462C11.3388 13.5977 11.8043 13.3801 12.2333 13.1008C12.6699 12.824 13.0649 12.4843 13.4033 12.0943C13.7418 11.7005 14.0211 11.2615 14.2349 10.7884C14.3104 10.6513 14.4815 10.601 14.6187 10.6764C14.7319 10.7393 14.7898 10.8702 14.7571 10.996C14.5545 11.5395 14.2689 12.049 13.9116 12.5057C12.8095 13.9047 11.1274 14.7212 9.34721 14.7212C7.56573 14.72 5.88364 13.9035 4.7828 12.5032C4.4255 12.0465 4.13991 11.537 3.93735 10.9935C3.87822 10.8501 3.94616 10.684 4.08958 10.6249C4.23301 10.5657 4.39908 10.6337 4.45821 10.7771L4.45947 10.7821Z" fill="#422B0D"/>
<path d="M15.3234 5.63904C15.994 6.721 16.3437 8.0093 16.3437 9.44228C16.3437 11.5685 15.5763 13.3675 14.1295 14.6508C12.7959 15.8208 10.9842 16.4751 9.04672 16.4751C6.77458 16.4751 4.39173 15.5504 2.98517 13.589C4.33889 15.8108 6.88529 16.8525 9.29834 16.8525C11.2358 16.8525 13.0475 16.1983 14.3811 15.0282C15.8279 13.745 16.5954 11.9459 16.5954 9.81971C16.5954 8.21689 16.1588 6.79272 15.3234 5.63904Z" fill="#EB8F00"/>
<path d="M7.60443 8.96517L7.58556 8.9375L7.55914 8.90353C7.54907 8.88969 7.53901 8.87836 7.52642 8.86704L7.44842 8.78904C7.41697 8.75759 7.37923 8.72362 7.34022 8.68965C7.25719 8.61794 7.16409 8.56007 7.06344 8.51477C6.96531 8.47074 6.85837 8.44935 6.75143 8.44935H6.70488C6.6923 8.44684 6.68098 8.44684 6.6684 8.44935C6.64575 8.45187 6.6231 8.45564 6.60046 8.46068C6.54762 8.47326 6.49729 8.48961 6.44697 8.50974C6.34632 8.55503 6.25322 8.61291 6.17019 8.68462C6.10225 8.74249 6.03934 8.80414 5.98021 8.86956L5.9085 8.95008L5.87076 8.99285C5.72104 9.16899 5.45684 9.19163 5.28071 9.04192C5.14609 8.92743 5.09702 8.74123 5.15867 8.57516L5.17251 8.5349C5.18509 8.4959 5.20019 8.45816 5.21654 8.42042C5.27693 8.28328 5.35368 8.15496 5.44678 8.03795C5.66694 7.74733 5.97644 7.53597 6.32745 7.43532C6.39916 7.41645 6.47213 7.40261 6.54636 7.39255C6.5841 7.39255 6.63946 7.38123 6.65582 7.38123H6.75143C6.89486 7.38374 7.03702 7.40387 7.17541 7.44036C7.30751 7.47684 7.43458 7.52968 7.55284 7.59762C7.74785 7.71085 7.91895 7.86308 8.05609 8.04299C8.10893 8.11092 8.15673 8.18138 8.19825 8.25686C8.23222 8.31599 8.26242 8.37638 8.28884 8.43803C8.2989 8.45816 8.30771 8.47955 8.314 8.50093C8.314 8.51729 8.32406 8.53113 8.32784 8.54245L8.34042 8.57516C8.41213 8.79785 8.29009 9.03689 8.06741 9.1086C7.89882 9.16144 7.71388 9.10356 7.60443 8.96517Z" fill="#422B0D"/>
<path d="M13.0569 8.95861L13.0342 8.93093L13.0078 8.89696C12.9978 8.88312 12.9877 8.8718 12.9751 8.86048L12.8971 8.78248C12.8657 8.75102 12.8279 8.71705 12.7889 8.68309C12.7059 8.61137 12.6128 8.5535 12.5121 8.50821C12.4153 8.46543 12.3096 8.44279 12.2039 8.44279H12.1523C12.1397 8.44027 12.1284 8.44027 12.1158 8.44279C12.0932 8.4453 12.0705 8.44908 12.0479 8.45411C11.995 8.46669 11.9447 8.48305 11.8944 8.50318C11.7925 8.54973 11.6969 8.61012 11.6126 8.68309C11.5446 8.74096 11.4817 8.8026 11.4214 8.86803L11.361 8.94603L11.3232 8.9888C11.1823 9.17249 10.9194 9.20645 10.7357 9.06429C10.5847 8.94854 10.5306 8.74473 10.6061 8.5686L10.6199 8.52834C10.6325 8.48934 10.6476 8.45159 10.664 8.41385C10.7231 8.27546 10.8011 8.14588 10.8929 8.02636C11.1131 7.73574 11.4226 7.52438 11.7736 7.42373C11.8453 7.40486 11.9183 7.39102 11.9925 7.38095C12.0303 7.38095 12.0844 7.36963 12.102 7.36963H12.1976C12.341 7.37215 12.4832 7.39227 12.6216 7.42876C12.7537 7.46524 12.8808 7.51808 12.999 7.58602C13.194 7.69925 13.3651 7.85148 13.5023 8.03139C13.5551 8.09933 13.6029 8.16978 13.6444 8.24527C13.6784 8.3044 13.7086 8.36479 13.735 8.42643C13.7451 8.44656 13.7539 8.46795 13.7602 8.48934L13.774 8.53086L13.7853 8.56482C13.857 8.78751 13.735 9.02529 13.5123 9.097C13.345 9.1511 13.1626 9.09574 13.0531 8.95861H13.0569Z" fill="#422B0D"/>
<path d="M11.5533 13.4876C11.664 13.436 11.7735 13.3806 11.8804 13.3228C11.7735 13.3806 11.664 13.436 11.5533 13.4876Z" fill="#FF4081"/>
<path d="M12.2019 13.136C12.0975 13.2015 11.9918 13.2618 11.8836 13.3222C12.0094 13.2543 12.1353 13.1826 12.251 13.1058L12.2019 13.136Z" fill="#FF4081"/>
<path d="M10.6065 13.8178C10.6908 13.7976 10.7751 13.7763 10.8582 13.7511C10.7776 13.7775 10.6933 13.7964 10.6065 13.8178Z" fill="#FF4081"/>
<path d="M13.1425 12.3742C13.2318 12.2823 13.3199 12.188 13.4042 12.0898C13.3199 12.188 13.2318 12.2823 13.1425 12.3742Z" fill="#FF4081"/>
<path d="M11.2134 13.6295C11.3254 13.5867 11.4361 13.5402 11.5455 13.4899C11.4361 13.5402 11.3254 13.5867 11.2134 13.6295Z" fill="#FF4081"/>
<path d="M10.8571 13.7534C10.9742 13.7195 11.0874 13.6805 11.2006 13.6377C11.0899 13.6805 10.983 13.7195 10.8571 13.7534Z" fill="#FF4081"/>
<path d="M12.8964 12.6084C12.8196 12.6763 12.7404 12.7418 12.6586 12.8034C12.6183 12.8361 12.5768 12.8663 12.5328 12.8978C12.4384 12.9695 12.3428 13.0387 12.2447 13.1028C12.3705 13.0236 12.4837 12.938 12.5995 12.8512C12.7152 12.7644 12.802 12.6927 12.8964 12.6084Z" fill="#FF4081"/>
<path opacity="0.3" d="M13.143 12.3702C13.1342 12.379 13.1266 12.3879 13.1178 12.3954C13.0474 12.4696 12.9731 12.5401 12.8976 12.608C12.9769 12.5376 13.0536 12.4646 13.1266 12.3879L13.143 12.3702Z" fill="#AB3F2E"/>
<path d="M9.89597 13.9374L10.3627 14.4331L10.408 14.4796L9.89597 13.9374Z" fill="#FF4081"/>
<path opacity="0.3" d="M10.4068 14.4789L10.5188 14.5997L10.52 14.5984V14.5971L10.4068 14.4789Z" fill="#AB3F2E"/>
<path d="M15.087 13.1152L14.2063 12.1942L14.171 12.1577L13.8339 11.8055L13.7345 11.7011L13.7219 11.6885C13.6225 11.8294 13.5168 11.9653 13.4036 12.0948C13.0689 12.4849 12.6802 12.8233 12.2487 13.1013C11.8196 13.3806 11.3542 13.5983 10.8647 13.7467C10.5502 13.8398 10.2269 13.9015 9.89978 13.9329L10.4068 14.4852L10.52 14.6035L10.6106 14.6979L10.6622 14.752L11.9631 16.1107C12.7167 16.8983 13.966 16.9259 14.7536 16.1723L15.0253 15.9119C15.8141 15.1583 15.8443 13.909 15.0907 13.1189C15.0895 13.1177 15.0882 13.1164 15.087 13.1152Z" fill="#FF4081"/>
<path d="M13.3329 14.0607L12.3503 13.0328C12.3163 13.0567 12.2836 13.0819 12.2497 13.1045C12.1452 13.1712 12.0396 13.2304 11.9326 13.2945L12.9844 14.3941C13.0284 14.4407 13.0888 14.4671 13.153 14.4683C13.2171 14.4708 13.2788 14.4469 13.3253 14.4016C13.421 14.3111 13.426 14.1601 13.3354 14.0632C13.3354 14.0632 13.3341 14.062 13.3329 14.0607Z" fill="#E62B6B"/>
<path opacity="0.3" d="M13.8276 11.8017L13.7282 11.6973L13.7156 11.6847C13.6187 11.8269 13.5143 11.964 13.4036 12.0961C13.0689 12.4861 12.6802 12.8245 12.2487 13.1026C11.8196 13.3819 11.3541 13.5995 10.8647 13.748C10.5502 13.8411 10.2269 13.9027 9.89978 13.9342L10.4068 14.4865L10.52 14.6047C12.8614 13.7555 13.6728 12.1854 13.8276 11.8017Z" fill="#AB3F2E"/>
<path d="M5.225 1.27944H5.74595C5.74595 1.27944 7.88577 0.98574 9.33281 0.998708C10.7122 1.01107 12.7403 1.27944 12.7403 1.27944H13.5602C14.3948 2.66971 14.9946 4.09741 15.2697 5.56399C12.7403 5.88412 9.37352 6.63748 9.37352 6.63748C9.37352 6.63748 6.18408 5.96797 3.422 5.3963C3.84163 3.89501 4.35882 2.53262 5.225 1.27944Z" fill="#7F2125"/>
<path d="M5.225 1.27944H5.74595C5.74595 1.27944 7.88577 0.98574 9.33281 0.998708C10.7122 1.01107 12.7403 1.27944 12.7403 1.27944H13.5602M5.225 1.27944C4.35882 2.53262 3.84163 3.89501 3.422 5.3963C6.18408 5.96797 9.37352 6.63748 9.37352 6.63748C9.37352 6.63748 12.7403 5.88412 15.2697 5.56399C14.9946 4.09741 14.3948 2.66971 13.5602 1.27944M5.225 1.27944C5.90262 2.02184 6.868 1.55548 9.33281 2.12679C11.5645 1.57275 12.6389 2.05861 13.5602 1.27944" stroke="#67211F" stroke-width="0.0473218"/>
<path d="M9.3819 6.62851L9.35815 2.12947C11.036 1.60931 12.3098 2.01541 13.5685 1.30365C14.1168 2.15407 15.0237 3.74642 15.278 5.55074C13.3469 5.7791 10.2762 6.43189 9.3819 6.62851Z" fill="#67211F" stroke="#67211F" stroke-width="0.0296999"/>
<path d="M12.1467 1.71566C12.5276 1.46083 12.8326 1.62546 12.8169 1.25946H13.5688C13.1863 1.66943 12.4122 1.65739 12.1467 1.71566Z" fill="#67211F" fill-opacity="0.56"/>
<path d="M6.47132 1.76445C6.09037 1.50702 5.73295 1.64653 5.74862 1.27679L5.25793 1.29252C5.6404 1.70668 6.20586 1.70559 6.47132 1.76445Z" fill="#67211F"/>
<path d="M9.41046 1.32657L9.3249 2.08574L9.48203 2.0748L9.41046 1.32657Z" fill="#67211F" stroke="#67211F" stroke-width="0.0720027"/>
<path d="M7.35087 1.83358C7.07682 1.81552 6.91188 1.79839 6.68535 1.78073C6.47047 3.41453 6.36792 4.53261 6.93024 6.10055C7.29778 6.18232 7.68126 6.23277 8.04886 6.30667C7.25525 4.79435 7.23182 3.35175 7.35087 1.83358Z" fill="#D60000" stroke="#67211F" stroke-width="0.0296999"/>
<path d="M6.90003 1.80679L6.7043 1.7894L6.66256 2.0879L6.90003 1.80679Z" fill="#398F00" stroke="#67211F" stroke-width="0.00600023"/>
<path d="M6.56812 2.92117L7.31996 2.0467L7.32949 1.85016L6.89894 1.80717L6.66147 2.08829L6.56812 2.92117Z" fill="#FF7F00" stroke="#67211F" stroke-width="0.00600023"/>
<path d="M7.05265 2.34466C7.05265 2.34466 6.81735 2.07001 6.73442 1.9959L6.65526 2.0896L6.56981 2.91469C6.68591 2.77673 7.05265 2.34466 7.05265 2.34466Z" fill="#D60000" stroke="#67211F" stroke-width="0.00600023"/>
<path d="M7.27444 2.99469C7.27816 2.65532 7.28776 2.44493 7.31396 2.0434L6.57002 2.91006C6.54081 3.25614 6.53292 3.44712 6.52334 3.78265L7.27444 2.99469Z" fill="#007FFF" stroke="#67211F" stroke-width="0.00480018"/>
<path d="M7.09085 3.18522L6.72656 2.72597L6.56825 2.91338C6.54487 3.25491 6.53343 3.44443 6.52157 3.78598L7.09085 3.18522Z" fill="#398F00" stroke="#67211F" stroke-width="0.00480018"/>
<path d="M7.12232 3.98019L6.76573 3.53673L6.52854 3.78639C6.53332 4.14034 6.55547 4.29783 6.5765 4.58901L7.12232 3.98019Z" fill="#D60000" stroke="#67211F" stroke-width="0.00480018"/>
<path d="M7.0831 4.87654L6.72658 4.42522L6.57631 4.5891C6.63587 4.95139 6.65073 5.04589 6.7111 5.31381L7.0831 4.87654Z" fill="#007FFF" stroke="#67211F" stroke-width="0.00480018"/>
<path d="M7.16678 5.62682L6.81802 5.18343L6.70719 5.31619C6.79046 5.65508 6.79836 5.64729 6.87447 5.90747L7.16678 5.62682Z" fill="#FF7F00" stroke="#67211F" stroke-width="0.00480018"/>
<path d="M7.35459 6.17167L7.03691 5.76L6.87893 5.90809C6.90189 5.9712 6.93256 6.05011 6.94789 6.08956L7.35459 6.17167Z" fill="#007FFF" stroke="#67211F" stroke-width="0.00480018"/>
<path d="M7.31155 3.76852C7.28594 3.50391 7.27683 3.34074 7.27901 2.99749L6.76511 3.5358C6.9977 3.82091 6.95124 3.75759 7.1217 3.97926L7.31155 3.76852Z" fill="#FF7F00" stroke="#67211F" stroke-width="0.00480018"/>
<path d="M7.39986 4.50023C7.37062 4.25617 7.33253 4.13001 7.31207 3.77592L6.72671 4.42373C6.95348 4.72597 6.90845 4.65814 7.0833 4.86712L7.39986 4.50023Z" fill="#398F00" stroke="#67211F" stroke-width="0.00480018"/>
<path d="M7.56868 5.20131C7.5004 4.94119 7.46217 4.83075 7.39451 4.49986L6.81671 5.17919C6.99487 5.41664 6.99487 5.41664 7.17324 5.63051L7.56868 5.20131Z" fill="#D60000" stroke="#67211F" stroke-width="0.00480018"/>
<path d="M7.77432 5.79249C7.59609 5.56289 7.61932 5.59455 7.4334 5.34916L7.03033 5.75471C7.20848 5.99216 7.17749 5.95258 7.34018 6.16631L7.77432 5.79249Z" fill="#398F00" stroke="#67211F" stroke-width="0.00480018"/>
<path d="M7.57416 5.20475L7.43969 5.35303L7.78061 5.79636L7.78845 5.79643L7.57416 5.20475Z" fill="#007FFF" stroke="#67211F" stroke-width="0.00480018"/>
<path d="M7.35072 4.14154L7.3146 3.78731L7.26719 3.8341L7.196 3.91214L7.35072 4.14154Z" fill="#007FFF" stroke="#67211F" stroke-width="0.00480018"/>
<path d="M7.55543 5.99195L7.78439 5.78941C7.86574 5.99164 7.91589 6.09963 8.01515 6.28685L7.73352 6.23727L7.55543 5.99195Z" fill="#FF7F00" stroke="#67211F" stroke-width="0.00360014"/>
<g filter="url(#filter0_d_1193_454)">
<path d="M8.53975 2.97909L8.66751 2.77974C8.66751 2.77974 8.80633 3.36443 8.70942 3.73846C8.63236 4.03586 8.34827 4.42395 8.34827 4.42395C8.21823 4.75904 8.22655 4.94282 8.29704 5.26789L8.03774 5.57562C8.03774 5.57562 7.95757 5.14953 7.82803 4.94056C7.64008 4.63738 7.32998 4.71983 7.13874 4.45335C6.85559 4.05879 7.0024 3.22578 7.0024 3.22578L7.23215 3.42656C7.23215 3.42656 7.37139 3.21916 7.50747 2.92151C7.5562 2.81491 7.60452 2.69674 7.6459 2.57238C7.70916 2.38227 7.77959 2.07655 7.77959 2.07655L7.91241 2.35092L8.01923 2.20503C8.01923 2.20503 8.02854 2.41533 8.06796 2.53293C8.15842 2.80281 8.26232 2.90106 8.53975 2.97909Z" fill="#939297"/>
<path d="M8.53975 2.97909C8.58965 2.90124 8.66751 2.77974 8.66751 2.77974C8.66751 2.77974 8.80633 3.36443 8.70942 3.73846C8.63236 4.03586 8.34827 4.42395 8.34827 4.42395C8.21823 4.75904 8.22655 4.94282 8.29704 5.26789L8.03774 5.57562C8.03774 5.57562 7.95757 5.14953 7.82803 4.94056C7.64008 4.63738 7.32998 4.71983 7.13874 4.45335C6.85559 4.05879 7.0024 3.22578 7.0024 3.22578L7.23215 3.42656M8.53975 2.97909C8.26232 2.90106 8.15842 2.80281 8.06796 2.53293C8.02854 2.41533 8.01923 2.20503 8.01923 2.20503L7.91241 2.35092M8.53975 2.97909C8.53214 3.0073 8.309 3.49393 8.309 3.49393C8.309 3.49393 8.1345 3.15667 8.05604 2.92797M7.23215 3.42656C7.36359 3.57916 7.38337 3.67888 7.42062 3.85568L7.5912 3.22302L7.85148 3.61142M7.23215 3.42656C7.23215 3.42656 7.37139 3.21916 7.50747 2.92151C7.5562 2.81491 7.60452 2.69674 7.6459 2.57238C7.70916 2.38227 7.77959 2.07655 7.77959 2.07655L7.91241 2.35092M7.91241 2.35092C7.91241 2.35092 7.98059 2.70807 8.05604 2.92797M8.05604 2.92797L7.89694 2.76595L7.85148 3.61142M7.85148 3.61142L7.82803 4.02921" stroke="#F8F7FC" stroke-width="0.0296999"/>
</g>
<defs>
<filter id="filter0_d_1193_454" x="6.94949" y="2.0321" width="1.91235" height="3.66823" filterUnits="userSpaceOnUse" color-interpolation-filters="sRGB">
<feFlood flood-opacity="0" result="BackgroundImageFix"/>
<feColorMatrix in="SourceAlpha" type="matrix" values="0 0 0 0 0 0 0 0 0 0 0 0 0 0 0 0 0 0 127 0" result="hardAlpha"/>
<feOffset dx="0.0600023" dy="0.0480018"/>
<feGaussianBlur stdDeviation="0.0216008"/>
<feComposite in2="hardAlpha" operator="out"/>
<feColorMatrix type="matrix" values="0 0 0 0 0 0 0 0 0 0 0 0 0 0 0 0 0 0 0.25 0"/>
<feBlend mode="normal" in2="BackgroundImageFix" result="effect1_dropShadow_1193_454"/>
<feBlend mode="normal" in="SourceGraphic" in2="effect1_dropShadow_1193_454" result="shape"/>
</filter>
<radialGradient id="paint0_radial_1193_454" cx="0" cy="0" r="1" gradientUnits="userSpaceOnUse" gradientTransform="translate(9.29823 9.81989) scale(7.16613 7.1661)">
<stop offset="0.5" stop-color="#FDE030"/>
<stop offset="0.92" stop-color="#F7C02B"/>
<stop offset="1" stop-color="#F4A223"/>
</radialGradient>
</defs>
</svg>
