<svg width="19" height="18" viewBox="0 0 19 18" fill="none" xmlns="http://www.w3.org/2000/svg">
<path d="M9.9863 16.8113C6.49975 16.8113 2.73828 14.6244 2.73828 9.82577C2.73828 5.0271 6.49975 2.84021 9.9863 2.84021C11.9233 2.84021 13.7103 3.47753 15.0349 4.63971C16.472 5.91436 17.2343 7.71386 17.2343 9.82577C17.2343 11.9377 16.472 13.7247 15.0349 14.9993C13.7103 16.1615 11.9108 16.8113 9.9863 16.8113Z" fill="url(#paint0_radial_1206_12261)"/>
<path d="M15.9704 5.67297C16.6365 6.74768 16.9839 8.02732 16.9839 9.45068C16.9839 11.5626 16.2216 13.3496 14.7845 14.6242C13.4599 15.7864 11.6604 16.4362 9.73588 16.4362C7.479 16.4362 5.11214 15.5177 3.71503 13.5695C5.05966 15.7764 7.58897 16.8111 9.98581 16.8111C11.9103 16.8111 13.7098 16.1613 15.0344 14.9991C16.4715 13.7245 17.2338 11.9375 17.2338 9.82557C17.2338 8.23351 16.8002 6.81891 15.9704 5.67297Z" fill="#D84213"/>
<path d="M5.11028 11.0421L4.6687 15.2365L14.5401 16.2757L14.9817 12.0813L5.11028 11.0421Z" fill="black"/>
<path d="M6.87961 13.7477L6.61718 13.7227L6.44348 14.38L6.11857 14.3488L6.28852 13.6914L5.92737 13.6564L5.95611 13.3578L6.36725 13.3978L6.47972 12.9741L6.11982 12.9391L6.14856 12.6417L6.5572 12.6817L6.7359 12.0144L7.05831 12.0456L6.88586 12.7117L7.14828 12.7367L7.32574 12.0694L7.6494 12.1006L7.47195 12.7679L7.84684 12.8042L7.8181 13.1029L7.39322 13.0616L7.2795 13.484L7.6544 13.5202L7.62565 13.8189L7.20327 13.7777L7.02957 14.4362L6.70591 14.405L6.87961 13.7477ZM6.69466 13.429L6.95709 13.454L7.06956 13.0316L6.80713 13.0054L6.69466 13.429Z" fill="white"/>
<path d="M9.16314 14.023C9.17189 13.9567 9.15689 13.8905 9.1194 13.8355C9.06942 13.7755 9.00693 13.728 8.9357 13.6956C8.84573 13.6481 8.76325 13.6018 8.68577 13.5556C8.61579 13.5119 8.55081 13.4594 8.49457 13.3994C8.44459 13.3444 8.4071 13.2807 8.38335 13.2107C8.35836 13.1295 8.35086 13.0445 8.36086 12.9608C8.37336 12.8133 8.44584 12.6783 8.56205 12.5859C8.69202 12.4884 8.85198 12.4397 9.01443 12.4459L9.03817 12.141L9.26436 12.1635L9.23562 12.4696C9.39183 12.5009 9.53054 12.5909 9.62426 12.7196C9.71424 12.8545 9.75298 13.0195 9.73048 13.1807L9.24812 13.1345C9.26061 13.0545 9.24812 12.9733 9.21313 12.9008C9.15314 12.8046 9.02568 12.7746 8.92945 12.8345C8.92196 12.8395 8.91446 12.8445 8.90696 12.8508C8.86572 12.8933 8.84073 12.9495 8.83823 13.0082C8.82948 13.0695 8.84448 13.132 8.88197 13.182C8.9332 13.2394 8.99444 13.2857 9.06317 13.3194C9.14814 13.3657 9.22812 13.4119 9.3031 13.4606C9.37308 13.5044 9.43682 13.5581 9.49305 13.6181C9.54429 13.6743 9.58303 13.7393 9.60927 13.8105C9.63551 13.8905 9.64426 13.9767 9.63426 14.0605C9.62551 14.2092 9.55553 14.3479 9.44056 14.4441C9.31685 14.5403 9.16314 14.5903 9.00693 14.5853L8.97819 14.8715L8.752 14.8502L8.7795 14.5616C8.60079 14.5353 8.43834 14.4429 8.32337 14.3029C8.21965 14.1617 8.17466 13.9842 8.1984 13.8105L8.67827 13.8568C8.66453 13.943 8.68202 14.0317 8.72701 14.1067C8.77325 14.1692 8.84573 14.2079 8.92321 14.2117C8.97944 14.2204 9.03692 14.2042 9.08191 14.1679C9.1269 14.1317 9.15564 14.0805 9.16314 14.023Z" fill="white"/>
<path d="M10.2579 14.6698C10.2629 14.596 10.3004 14.5298 10.3604 14.4873C10.4929 14.3986 10.6678 14.4161 10.7815 14.5273C10.8777 14.636 10.8677 14.801 10.7603 14.8972C10.7553 14.9022 10.7503 14.9059 10.744 14.9109C10.6803 14.9559 10.6028 14.9747 10.5266 14.9647C10.4491 14.9597 10.3766 14.9259 10.3241 14.8697C10.2742 14.816 10.2492 14.7435 10.2579 14.6698ZM10.819 14.2311L10.3891 14.1899L10.4729 12.6166L11.0377 12.6716L10.819 14.2311Z" fill="white"/>
<path d="M14.0683 13.9826C14.0495 14.2012 13.962 14.4087 13.8183 14.5736C13.6946 14.7111 13.5109 14.7798 13.3272 14.7561C13.2535 14.7498 13.181 14.7248 13.1198 14.6836C13.0635 14.6424 13.0198 14.5874 12.9948 14.5224C12.8948 14.6386 12.7424 14.6974 12.5899 14.6786C12.4999 14.6711 12.4162 14.6336 12.3512 14.5711C12.285 14.5024 12.2413 14.4149 12.2263 14.3212C12.2025 14.2062 12.2025 14.0863 12.2263 13.9713C12.265 13.7576 12.3675 13.5602 12.5199 13.4052C12.6486 13.274 12.8298 13.2078 13.0123 13.2265C13.1435 13.2365 13.2697 13.284 13.3747 13.3627L13.4609 13.434L13.3022 14.2875C13.2735 14.4224 13.3135 14.4949 13.4272 14.5049C13.5234 14.5074 13.6109 14.4524 13.6521 14.3662C13.7259 14.245 13.7708 14.1088 13.7846 13.9676C13.8458 13.7026 13.8008 13.424 13.6596 13.1915C13.5072 12.9891 13.271 12.8666 13.0173 12.8591C12.8411 12.8391 12.6624 12.8729 12.5049 12.9541C12.345 13.0403 12.2113 13.1703 12.1213 13.329C12.0151 13.5077 11.9463 13.7051 11.9201 13.9113C11.8714 14.2525 11.9126 14.5212 12.0451 14.7173C12.2025 14.9248 12.4462 15.0498 12.7061 15.056C12.7936 15.0648 12.8823 15.0648 12.9698 15.056C13.0485 15.0498 13.126 15.0335 13.201 15.011L13.2322 15.2609C13.1535 15.2984 13.0685 15.3234 12.9823 15.3322C12.8761 15.3472 12.7674 15.3472 12.6611 15.3347C12.425 15.3197 12.1975 15.2447 11.9988 15.116C11.8214 14.996 11.6889 14.8198 11.6239 14.6161C11.5514 14.3762 11.5352 14.1225 11.5752 13.8751C11.6064 13.6227 11.6939 13.3815 11.8314 13.1678C11.9563 12.9716 12.1338 12.8154 12.3437 12.7167C12.7686 12.5292 13.2585 12.5679 13.6484 12.8204C13.8158 12.9378 13.9433 13.1065 14.0095 13.3002C14.0845 13.5189 14.1045 13.7539 14.0683 13.9826ZM12.5849 14.0075C12.5599 14.1025 12.5599 14.2037 12.5849 14.2987C12.6037 14.3612 12.6586 14.4062 12.7236 14.4112C12.7736 14.4137 12.8224 14.3962 12.8573 14.3612C12.9061 14.315 12.9448 14.2575 12.9698 14.195L13.0948 13.5302C13.066 13.5202 13.036 13.5127 13.0048 13.5102C12.9048 13.4964 12.8036 13.5352 12.7399 13.6139C12.6574 13.7301 12.6037 13.8663 12.5849 14.0075Z" fill="white"/>
<path d="M12.3813 8.38049C12.905 8.38049 13.3811 8.82287 13.3811 9.55767C13.3811 10.2925 12.905 10.7336 12.3813 10.7336C11.8577 10.7336 11.3816 10.2912 11.3816 9.55767C11.3816 8.82412 11.8577 8.38049 12.3813 8.38049Z" fill="#422B0D"/>
<path d="M7.69183 8.38049C7.16823 8.38049 6.69211 8.82287 6.69211 9.55767C6.69211 10.2925 7.16823 10.7336 7.69183 10.7336C8.21544 10.7336 8.69156 10.2912 8.69156 9.55767C8.69156 8.82412 8.21544 8.38049 7.69183 8.38049Z" fill="#422B0D"/>
<path d="M6.6098 7.42754L6.59605 7.41629C6.38736 7.23009 6.0587 7.53126 6.2449 7.79118C6.3961 7.99113 6.57855 8.16483 6.78725 8.30479C7.34335 8.68094 8.03441 8.79716 8.68298 8.6222C8.98915 8.53348 8.91916 8.0911 8.63924 8.11235C7.89944 8.15608 7.17214 7.9099 6.6098 7.42754Z" fill="#422B0D"/>
<path d="M13.4635 7.42754L13.4773 7.41629C13.686 7.23009 14.0146 7.53126 13.8284 7.79118C13.6772 7.99113 13.4948 8.16483 13.2861 8.30479C12.73 8.68094 12.0389 8.79716 11.3903 8.6222C11.0842 8.53348 11.1541 8.0911 11.4341 8.11235C12.1739 8.15608 12.9012 7.9099 13.4635 7.42754Z" fill="#422B0D"/>
<path d="M7.57311 8.82115C7.39566 8.73618 7.18197 8.81116 7.09574 8.98861C7.02951 9.12732 7.0595 9.29352 7.17072 9.40099C7.34817 9.48597 7.56186 9.41099 7.64809 9.23354C7.71432 9.09483 7.68433 8.92862 7.57311 8.82115Z" fill="#896024"/>
<path d="M12.3642 8.82115C12.1867 8.73618 11.973 8.81116 11.8868 8.98861C11.8206 9.12732 11.8506 9.29352 11.9618 9.40099C12.1392 9.48597 12.3529 9.41099 12.4392 9.23354C12.5054 9.09483 12.4754 8.92862 12.3642 8.82115Z" fill="#896024"/>
<path d="M6.01909 1.45058H6.52765C6.52765 1.45058 8.61658 1.17499 10.0292 1.18716C11.3758 1.19876 13.3557 1.45058 13.3557 1.45058H14.156C14.9708 2.75511 15.5564 4.09477 15.8248 5.47091C13.1926 4.74482 10.0292 6.27949 10.0292 6.27949C10.0292 6.27949 6.81827 4.77161 4.25897 5.31356C4.66863 3.90485 5.17352 2.62648 6.01909 1.45058Z" fill="#7F2125"/>
<path d="M6.01909 1.45058H6.52765C6.52765 1.45058 8.61658 1.17499 10.0292 1.18716C11.3758 1.19876 13.3557 1.45058 13.3557 1.45058H14.156M6.01909 1.45058C5.17352 2.62648 4.66863 3.90485 4.25897 5.31356C6.81827 4.77161 10.0292 6.27949 10.0292 6.27949C10.0292 6.27949 13.1926 4.74482 15.8248 5.47091C15.5564 4.09477 14.9708 2.75511 14.156 1.45058M6.01909 1.45058C6.68059 2.1472 7.62301 1.70959 10.0292 2.24568C12.2078 1.7258 13.2567 2.1817 14.156 1.45058" stroke="#67211F" stroke-width="0.0582032"/>
<path d="M10.0483 6.25683L10.056 2.24926C11.6939 1.76117 12.9375 2.14223 14.1663 1.47437C14.7015 2.27234 15.5868 3.7665 15.8351 5.45954C13.7079 4.92844 11.4588 5.62954 10.0483 6.25683Z" fill="#67211F" stroke="#67211F" stroke-width="0.0365292"/>
<path d="M7.23549 1.90241C6.8636 1.66086 6.51468 1.79175 6.52998 1.44482L6.05096 1.45958C6.42433 1.8482 6.97634 1.84718 7.23549 1.90241Z" fill="#67211F"/>
<path d="M12.7763 1.85788C13.1482 1.61876 13.4459 1.77323 13.4306 1.42981H14.1646C13.7912 1.8145 13.0355 1.8032 12.7763 1.85788Z" fill="#67211F" fill-opacity="0.56"/>
<path d="M10.103 1.48887L10.0195 2.20122L10.1729 2.19096L10.103 1.48887Z" fill="#67211F" stroke="#67211F" stroke-width="0.0885594"/>
<path d="M8.09634 1.98355C7.82595 1.96889 7.66316 1.95423 7.43963 1.93958C7.30057 3.48936 7.2472 3.87312 7.53692 5.40815C7.92986 5.50791 8.227 5.60203 8.5662 5.70335C7.7708 4.30042 7.99183 3.39915 8.09634 1.98355Z" fill="#D60000" stroke="#67211F" stroke-width="0.0365292"/>
<path d="M7.65486 1.96165L7.45887 1.94678L7.41968 2.22935L7.65486 1.96165Z" fill="#398F00" stroke="#67211F" stroke-width="0.00737995"/>
<path d="M7.33777 3.00246L8.07174 2.18165L8.07947 1.99844L7.65454 1.96179L7.42275 2.22562L7.33777 3.00246Z" fill="#FF7F00" stroke="#67211F" stroke-width="0.00737995"/>
<path d="M7.81394 2.46003C7.81394 2.46003 7.57958 2.20597 7.49717 2.13757L7.41991 2.22552L7.34265 2.99502C7.45597 2.86555 7.81394 2.46003 7.81394 2.46003Z" fill="#D60000" stroke="#67211F" stroke-width="0.00737995"/>
<path d="M8.03958 3.06803C8.04037 2.75176 8.04805 2.55564 8.07048 2.18127L7.34423 2.99474C7.31837 3.31746 7.3122 3.49548 7.3056 3.80821L8.03958 3.06803Z" fill="#007FFF" stroke="#67211F" stroke-width="0.00590396"/>
<path d="M7.86188 3.24415L7.49875 2.81909L7.34423 2.99498C7.32408 3.31341 7.31441 3.49009 7.3056 3.80846L7.86188 3.24415Z" fill="#398F00" stroke="#67211F" stroke-width="0.00590396"/>
<path d="M7.89278 3.98401L7.53738 3.57361L7.3056 3.80812C7.31333 4.13791 7.33651 4.28448 7.35971 4.55564L7.89278 3.98401Z" fill="#D60000" stroke="#67211F" stroke-width="0.00590396"/>
<path d="M7.86239 4.81971L7.50699 4.40198L7.3602 4.55588C7.42201 4.893 7.43746 4.98094 7.49927 5.23011L7.86239 4.81971Z" fill="#007FFF" stroke="#67211F" stroke-width="0.00590396"/>
<path d="M7.95672 5.51775L7.60735 5.10535L7.49866 5.23054L7.54773 5.39465L7.95672 5.51775Z" fill="#FF7F00" stroke="#67211F" stroke-width="0.00590396"/>
<path d="M8.07653 3.78608C8.04903 3.53971 8.03866 3.38774 8.0379 3.06787L7.53571 3.57355C7.76749 3.83738 7.72113 3.77875 7.8911 3.98395L8.07653 3.78608Z" fill="#FF7F00" stroke="#67211F" stroke-width="0.00590396"/>
<path d="M8.1699 4.46793C8.139 4.24075 8.10037 4.12349 8.07719 3.7937L7.50546 4.40198C7.73164 4.68182 7.68667 4.61897 7.86086 4.81231L8.1699 4.46793Z" fill="#398F00" stroke="#67211F" stroke-width="0.00590396"/>
<path d="M8.35053 5.12027C8.28099 4.87842 8.24236 4.77582 8.17283 4.46802L7.60883 5.10561C7.78652 5.32547 7.78652 5.32547 7.96422 5.52334L8.35053 5.12027Z" fill="#D60000" stroke="#67211F" stroke-width="0.00590396"/>
<path d="M8.56858 5.68859C8.39088 5.47606 8.40204 5.48659 8.21662 5.2594L7.95102 5.51147C8.27694 5.59449 8.27124 5.59265 8.27124 5.59265L8.56858 5.68859Z" fill="#398F00" stroke="#67211F" stroke-width="0.00590396"/>
<path d="M8.35015 5.12036L8.21817 5.26028L8.55977 5.67269H8.56754L8.35015 5.12036Z" fill="#007FFF" stroke="#67211F" stroke-width="0.00590396"/>
<path d="M8.11896 4.13242L8.08014 3.80103L8.03356 3.84521L7.96368 3.91885L8.11896 4.13242Z" fill="#007FFF" stroke="#67211F" stroke-width="0.00590396"/>
<g filter="url(#filter0_d_1206_12261)">
<path d="M9.09937 2.88771L9.2241 2.70065C9.2241 2.70065 9.35961 3.24928 9.26501 3.60024C9.18978 3.87931 8.91244 4.24347 8.91244 4.24347C8.7855 4.55789 8.79363 4.73034 8.86243 5.03536L8.60931 5.32412C8.60931 5.32412 8.53104 4.9243 8.40458 4.72822C8.2211 4.44373 7.91837 4.5211 7.73168 4.27105C7.45526 3.90082 7.59859 3.11918 7.59859 3.11918L7.82287 3.30759C7.82287 3.30759 7.9588 3.11297 8.09164 2.83367C8.13921 2.73365 8.18639 2.62277 8.22679 2.50607C8.28854 2.32769 8.35729 2.04083 8.35729 2.04083L8.48695 2.29828L8.59123 2.16139C8.59123 2.16139 8.60032 2.35871 8.6388 2.46906C8.72712 2.7223 8.82854 2.81449 9.09937 2.88771Z" fill="url(#paint1_linear_1206_12261)"/>
<path d="M9.09937 2.88771C9.14808 2.81466 9.2241 2.70065 9.2241 2.70065C9.2241 2.70065 9.35961 3.24928 9.26501 3.60024C9.18978 3.87931 8.91244 4.24347 8.91244 4.24347C8.7855 4.55789 8.79363 4.73034 8.86243 5.03536L8.60931 5.32412C8.60931 5.32412 8.53104 4.9243 8.40458 4.72822C8.2211 4.44373 7.91837 4.5211 7.73168 4.27105C7.45526 3.90082 7.59859 3.11918 7.59859 3.11918L7.82287 3.30759M9.09937 2.88771C8.82854 2.81449 8.72712 2.7223 8.6388 2.46906C8.60032 2.35871 8.59123 2.16139 8.59123 2.16139L8.48695 2.29828M9.09937 2.88771C9.09195 2.91418 8.87411 3.37079 8.87411 3.37079C8.87411 3.37079 8.70376 3.05434 8.62716 2.83974M7.82287 3.30759C7.95119 3.45077 7.9705 3.54434 8.00686 3.71024L8.17339 3.11659L8.42747 3.48105L8.47186 2.68771L8.62716 2.83974M7.82287 3.30759C7.82287 3.30759 7.9588 3.11297 8.09164 2.83367C8.13921 2.73365 8.18639 2.62277 8.22679 2.50607C8.28854 2.32769 8.35729 2.04083 8.35729 2.04083L8.48695 2.29828M8.48695 2.29828C8.48695 2.29828 8.55351 2.63341 8.62716 2.83974" stroke="#F8F7FC" stroke-width="0.0365292"/>
</g>
<defs>
<filter id="filter0_d_1206_12261" x="7.54306" y="1.98767" width="1.9008" height="3.48852" filterUnits="userSpaceOnUse" color-interpolation-filters="sRGB">
<feFlood flood-opacity="0" result="BackgroundImageFix"/>
<feColorMatrix in="SourceAlpha" type="matrix" values="0 0 0 0 0 0 0 0 0 0 0 0 0 0 0 0 0 0 127 0" result="hardAlpha"/>
<feOffset dx="0.0737995" dy="0.0590396"/>
<feGaussianBlur stdDeviation="0.0265678"/>
<feComposite in2="hardAlpha" operator="out"/>
<feColorMatrix type="matrix" values="0 0 0 0 0 0 0 0 0 0 0 0 0 0 0 0 0 0 0.25 0"/>
<feBlend mode="normal" in2="BackgroundImageFix" result="effect1_dropShadow_1206_12261"/>
<feBlend mode="normal" in="SourceGraphic" in2="effect1_dropShadow_1206_12261" result="shape"/>
</filter>
<radialGradient id="paint0_radial_1206_12261" cx="0" cy="0" r="1" gradientUnits="userSpaceOnUse" gradientTransform="translate(9.9863 9.82576) scale(7.11802 7.11799)">
<stop offset="0.12" stop-color="#FAC742"/>
<stop offset="0.32" stop-color="#FAC440"/>
<stop offset="0.48" stop-color="#FBBA3B"/>
<stop offset="0.62" stop-color="#FBA931"/>
<stop offset="0.76" stop-color="#FC9224"/>
<stop offset="0.88" stop-color="#FE7413"/>
<stop offset="1" stop-color="#FF5100"/>
</radialGradient>
<linearGradient id="paint1_linear_1206_12261" x1="8.77201" y1="2.14697" x2="7.99882" y2="5.16786" gradientUnits="userSpaceOnUse">
<stop stop-color="#C9C9C9"/>
<stop offset="1" stop-color="#939297"/>
</linearGradient>
</defs>
</svg>
