<svg width="18" height="18" viewBox="0 0 18 18" fill="none" xmlns="http://www.w3.org/2000/svg">
<path d="M8.78939 16.1755C5.52346 16.1755 2 14.1269 2 9.63192C2 5.13689 5.52346 3.08838 8.78939 3.08838C10.6038 3.08838 12.2777 3.68537 13.5185 4.77401C14.8647 5.968 15.5788 7.65364 15.5788 9.63192C15.5788 11.6102 14.8647 13.2841 13.5185 14.4781C12.2777 15.5668 10.5921 16.1755 8.78939 16.1755Z" fill="url(#paint0_radial_1193_1569)"/>
<path d="M14.394 5.74268C15.0179 6.74937 15.3433 7.94805 15.3433 9.28134C15.3433 11.2596 14.6293 12.9335 13.2831 14.1275C12.0423 15.2162 10.3566 15.8249 8.55394 15.8249C6.43986 15.8249 4.22278 14.9645 2.91406 13.1396C4.17361 15.2068 6.54287 16.176 8.78805 16.176C10.5908 16.176 12.2764 15.5673 13.5172 14.4787C14.8634 13.2847 15.5774 11.6108 15.5774 9.63251C15.5774 8.14119 15.1712 6.8161 14.394 5.74268Z" fill="#EB8F00"/>
<path d="M11.1698 14.3444C11.13 14.3292 11.0938 14.3046 11.0657 14.2718C9.92669 13.0884 8.04322 13.0521 6.85976 14.191C6.83283 14.218 6.80474 14.2449 6.77899 14.2718C6.75089 14.3046 6.71461 14.3292 6.67481 14.3444C6.58701 14.3772 6.48751 14.3584 6.41728 14.2964C6.34821 14.2355 6.3248 14.1384 6.35992 14.0529C6.70875 13.1574 7.74589 12.4551 8.92233 12.4551C10.0988 12.4551 11.1359 13.1574 11.4847 14.0517C11.5199 14.1372 11.4964 14.2344 11.4274 14.2952C11.3571 14.3573 11.2576 14.376 11.1698 14.3444Z" fill="#422B0D"/>
<path d="M8.15295 10.325C7.89074 9.9949 6.81029 9.36044 6.42049 9.17549C6.27534 9.10877 6.12433 9.05492 5.96981 9.01512C5.94172 9.00693 5.91128 9.00342 5.88202 9.00342C5.72633 9.00693 5.59289 9.11813 5.56128 9.27148C5.52499 9.43068 5.60693 9.59456 5.75677 9.66011C5.94055 9.75025 6.26129 9.92115 6.59373 10.1096C6.31631 10.2747 6.14657 10.5743 6.14657 10.8974V11.0683C6.14657 11.5529 6.53989 11.9463 7.02451 11.9463C7.50913 11.9463 7.90245 11.5529 7.90245 11.0683V10.8974C7.90245 10.8904 7.90245 10.8845 7.90245 10.8775C8.0277 10.8693 8.14008 10.7944 8.19509 10.682C8.25245 10.565 8.23606 10.4257 8.15295 10.325Z" fill="#422B0D"/>
<path d="M12.2909 9.27109C12.2582 9.11658 12.1224 9.00654 11.9643 9.00537C11.9351 9.00537 11.9046 9.00888 11.8765 9.01708C11.722 9.05571 11.571 9.10955 11.4259 9.17511C11.0361 9.35772 9.95562 9.99451 9.6934 10.3223C9.61029 10.4241 9.59625 10.5646 9.65477 10.6816C9.71096 10.7952 9.82217 10.8689 9.94859 10.8771C9.94859 10.8842 9.94859 10.89 9.94859 10.897V11.0679C9.94859 11.5526 10.3419 11.9459 10.8265 11.9459C11.3112 11.9459 11.7045 11.5526 11.7045 11.0679V10.897C11.7045 10.5751 11.5347 10.2766 11.2585 10.1116C11.5909 9.92311 11.9117 9.7522 12.0954 9.66207C12.2464 9.59651 12.3296 9.43146 12.2909 9.27109Z" fill="#422B0D"/>
<path d="M6.97783 10.2823C6.81161 10.2027 6.61144 10.273 6.53067 10.4392C6.46863 10.5691 6.49672 10.7248 6.60091 10.8255C6.76713 10.9051 6.9673 10.8348 7.04807 10.6686C7.11011 10.5387 7.08202 10.383 6.97783 10.2823Z" fill="#896024"/>
<path d="M10.7825 10.2823C10.6163 10.2027 10.4161 10.273 10.3354 10.4392C10.2733 10.5691 10.3014 10.7248 10.4056 10.8255C10.5718 10.9051 10.772 10.8348 10.8528 10.6686C10.9148 10.5387 10.8867 10.383 10.7825 10.2823Z" fill="#896024"/>
<path d="M4.289 2.29898H4.84541C4.84541 2.29898 7.13087 1.98665 8.67641 2.00044C10.1497 2.01359 12.3159 2.29898 12.3159 2.29898H13.1915C14.083 3.77739 14.7236 5.2956 15.0173 6.85516C12.1375 6.0323 8.67641 7.77152 8.67641 7.77152C8.67641 7.77152 5.16337 6.06265 2.36328 6.67684C2.81148 5.08037 3.36387 3.63161 4.289 2.29898Z" fill="#7F2125"/>
<path d="M4.289 2.29898H4.84541C4.84541 2.29898 7.13087 1.98665 8.67641 2.00044C10.1497 2.01359 12.3159 2.29898 12.3159 2.29898H13.1915M4.289 2.29898C3.36387 3.63161 2.81148 5.08037 2.36328 6.67684C5.16337 6.06265 8.67641 7.77152 8.67641 7.77152C8.67641 7.77152 12.1375 6.0323 15.0173 6.85516C14.7236 5.29561 14.083 3.77739 13.1915 2.29898M4.289 2.29898C5.01274 3.08844 6.04383 2.59251 8.67641 3.20005C11.0599 2.61087 12.2076 3.12754 13.1915 2.29898" stroke="#67211F" stroke-width="0.065961"/>
<path d="M8.69705 7.74681L8.7055 3.20508C10.4975 2.65194 11.8581 3.08379 13.2025 2.3269C13.788 3.23124 14.7566 4.92455 15.0283 6.84325C12.701 6.24137 10.2402 7.03591 8.69705 7.74681Z" fill="#67211F" stroke="#67211F" stroke-width="0.0413981"/>
<path d="M5.6241 2.81154C5.21721 2.53779 4.83547 2.68614 4.85221 2.29297L4.32812 2.3097C4.73662 2.75011 5.34056 2.74895 5.6241 2.81154Z" fill="#67211F"/>
<path d="M11.6804 2.76198C12.0872 2.49099 12.4129 2.66606 12.3962 2.27686H13.1992C12.7907 2.71282 11.9639 2.70002 11.6804 2.76198Z" fill="#67211F" fill-opacity="0.56"/>
<path d="M8.75666 2.34287L8.66527 3.15016L8.83309 3.13853L8.75666 2.34287Z" fill="#67211F" stroke="#67211F" stroke-width="0.100363"/>
<path d="M6.56034 2.90384C6.26451 2.88723 6.08639 2.87061 5.84184 2.854C5.6897 4.61036 5.6313 5.04527 5.94828 6.7849C6.37819 6.89795 6.70329 7.00461 7.07441 7.11944C6.20416 5.52952 6.446 4.50813 6.56034 2.90384Z" fill="#D60000" stroke="#67211F" stroke-width="0.0413981"/>
<path d="M6.07585 2.87843L5.86453 2.86182L5.82227 3.17742L6.07585 2.87843Z" fill="#398F00" stroke="#67211F" stroke-width="0.00836361"/>
<path d="M5.73059 4.05925L6.53362 3.12905L6.54207 2.92141L6.07716 2.87988L5.82357 3.17888L5.73059 4.05925Z" fill="#FF7F00" stroke="#67211F" stroke-width="0.00836361"/>
<path d="M6.25391 3.44356C6.25391 3.44356 5.9975 3.15564 5.90734 3.07812L5.82281 3.17779L5.73828 4.04986C5.86226 3.90313 6.25391 3.44356 6.25391 3.44356Z" fill="#D60000" stroke="#67211F" stroke-width="0.00836361"/>
<path d="M6.5003 4.13287C6.50116 3.77446 6.50957 3.55219 6.53411 3.12793L5.73953 4.04982C5.71123 4.41555 5.70449 4.61731 5.69727 4.97171L6.5003 4.13287Z" fill="#007FFF" stroke="#67211F" stroke-width="0.00669088"/>
<path d="M6.30588 4.3323L5.90859 3.85059L5.73953 4.04992C5.71748 4.41079 5.7069 4.61103 5.69727 4.97182L6.30588 4.3323Z" fill="#398F00" stroke="#67211F" stroke-width="0.00669088"/>
<path d="M6.33969 5.17165L5.95085 4.70654L5.69727 4.97232C5.70572 5.34606 5.73108 5.51217 5.75647 5.81947L6.33969 5.17165Z" fill="#D60000" stroke="#67211F" stroke-width="0.00669088"/>
<path d="M6.3053 6.11843L5.91647 5.64502L5.75586 5.81943C5.82348 6.20148 5.84039 6.30115 5.90801 6.58353L6.3053 6.11843Z" fill="#007FFF" stroke="#67211F" stroke-width="0.00669088"/>
<path d="M6.40497 6.907L6.02459 6.44189L5.90625 6.58309L5.95968 6.76817L6.40497 6.907Z" fill="#FF7F00" stroke="#67211F" stroke-width="0.00669088"/>
<path d="M6.54269 4.94626C6.51261 4.66705 6.50126 4.49482 6.50043 4.13232L5.95099 4.7054C6.20458 5.00439 6.15386 4.93795 6.33982 5.1705L6.54269 4.94626Z" fill="#FF7F00" stroke="#67211F" stroke-width="0.00669088"/>
<path d="M6.64297 5.71918C6.60916 5.46171 6.56689 5.32882 6.54153 4.95508L5.91602 5.64443C6.16347 5.96157 6.11427 5.89034 6.30485 6.10946L6.64297 5.71918Z" fill="#398F00" stroke="#67211F" stroke-width="0.00669088"/>
<path d="M6.83687 6.45891C6.7608 6.18483 6.71853 6.06855 6.64246 5.71973L6.02539 6.4423C6.21981 6.69146 6.21981 6.69146 6.41423 6.91571L6.83687 6.45891Z" fill="#D60000" stroke="#67211F" stroke-width="0.00669088"/>
<path d="M7.07801 7.10261C6.88359 6.86175 6.8958 6.87368 6.69293 6.61621L6.40234 6.90188C6.75893 6.99597 6.75269 6.99388 6.75269 6.99388L7.07801 7.10261Z" fill="#398F00" stroke="#67211F" stroke-width="0.00669088"/>
<path d="M6.8353 6.45837L6.6916 6.61618L7.06353 7.08128H7.07199L6.8353 6.45837Z" fill="#007FFF" stroke="#67211F" stroke-width="0.00669088"/>
<path d="M6.58312 5.33761L6.54086 4.96387L6.49014 5.0137L6.41406 5.09675L6.58312 5.33761Z" fill="#007FFF" stroke="#67211F" stroke-width="0.00669088"/>
<g filter="url(#filter0_d_1193_1569)">
<path d="M7.65651 3.92844L7.79297 3.71645C7.79297 3.71645 7.94123 4.3382 7.83772 4.73595C7.75542 5.05221 7.45199 5.4649 7.45199 5.4649C7.3131 5.82123 7.32199 6.01667 7.39727 6.36235L7.12033 6.68959C7.12033 6.68959 7.0347 6.23648 6.89634 6.01426C6.6956 5.69186 6.36439 5.77954 6.16014 5.49616C5.85771 5.07658 6.01452 4.19077 6.01452 4.19077L6.25991 4.40428C6.25991 4.40428 6.40862 4.18373 6.55396 3.8672C6.60601 3.75385 6.65762 3.62819 6.70182 3.49594C6.76938 3.29377 6.84461 2.96868 6.84461 2.96868L6.98647 3.26044L7.10055 3.10531C7.10055 3.10531 7.1105 3.32894 7.1526 3.45399C7.24922 3.74098 7.36019 3.84546 7.65651 3.92844Z" fill="url(#paint1_linear_1193_1569)"/>
<path d="M7.65651 3.92844C7.7098 3.84565 7.79297 3.71645 7.79297 3.71645C7.79297 3.71645 7.94123 4.3382 7.83772 4.73595C7.75542 5.05221 7.45199 5.4649 7.45199 5.4649C7.3131 5.82123 7.32199 6.01667 7.39727 6.36235L7.12033 6.68959C7.12033 6.68959 7.0347 6.23648 6.89634 6.01426C6.6956 5.69186 6.36439 5.77954 6.16014 5.49616C5.85771 5.07658 6.01452 4.19077 6.01452 4.19077L6.25991 4.40428M7.65651 3.92844C7.36019 3.84546 7.24922 3.74098 7.1526 3.45399C7.1105 3.32894 7.10055 3.10531 7.10055 3.10531L6.98647 3.26044M7.65651 3.92844C7.64838 3.95844 7.41005 4.47591 7.41005 4.47591C7.41005 4.47591 7.22367 4.11728 7.13987 3.87408M6.25991 4.40428C6.40029 4.56655 6.42142 4.67259 6.4612 4.8606L6.6434 4.18783L6.92139 4.60086L6.96995 3.70178L7.13987 3.87408M6.25991 4.40428C6.25991 4.40428 6.40862 4.18373 6.55396 3.8672C6.60601 3.75385 6.65762 3.62819 6.70182 3.49594C6.76938 3.29377 6.84461 2.96868 6.84461 2.96868L6.98647 3.26044M6.98647 3.26044C6.98647 3.26044 7.05929 3.64024 7.13987 3.87408" stroke="#F8F7FC" stroke-width="0.0413981"/>
</g>
<defs>
<filter id="filter0_d_1193_1569" x="5.95316" y="2.90686" width="2.08586" height="3.95635" filterUnits="userSpaceOnUse" color-interpolation-filters="sRGB">
<feFlood flood-opacity="0" result="BackgroundImageFix"/>
<feColorMatrix in="SourceAlpha" type="matrix" values="0 0 0 0 0 0 0 0 0 0 0 0 0 0 0 0 0 0 127 0" result="hardAlpha"/>
<feOffset dx="0.0836361" dy="0.0669089"/>
<feGaussianBlur stdDeviation="0.030109"/>
<feComposite in2="hardAlpha" operator="out"/>
<feColorMatrix type="matrix" values="0 0 0 0 0 0 0 0 0 0 0 0 0 0 0 0 0 0 0.25 0"/>
<feBlend mode="normal" in2="BackgroundImageFix" result="effect1_dropShadow_1193_1569"/>
<feBlend mode="normal" in="SourceGraphic" in2="effect1_dropShadow_1193_1569" result="shape"/>
</filter>
<radialGradient id="paint0_radial_1193_1569" cx="0" cy="0" r="1" gradientUnits="userSpaceOnUse" gradientTransform="translate(8.78939 9.6319) scale(6.66761 6.66758)">
<stop offset="0.5" stop-color="#FDE030"/>
<stop offset="0.92" stop-color="#F7C02B"/>
<stop offset="1" stop-color="#F4A223"/>
</radialGradient>
<linearGradient id="paint1_linear_1193_1569" x1="7.29834" y1="3.08897" x2="6.39475" y2="6.49722" gradientUnits="userSpaceOnUse">
<stop stop-color="#C9C9C9"/>
<stop offset="1" stop-color="#939297"/>
</linearGradient>
</defs>
</svg>
