<svg width="19" height="19" viewBox="0 0 19 19" fill="none" xmlns="http://www.w3.org/2000/svg">
<path d="M9.88406 17.8884C6.39752 17.8884 2.63605 15.7015 2.63605 10.9028C2.63605 6.10413 6.39752 3.91724 9.88406 3.91724C11.821 3.91724 13.608 4.55456 14.9327 5.71674C16.3698 6.99138 17.1321 8.79088 17.1321 10.9028C17.1321 13.0147 16.3698 14.8017 14.9327 16.0764C13.608 17.2385 11.8085 17.8884 9.88406 17.8884Z" fill="url(#paint0_radial_1200_7645)"/>
<path d="M15.8701 6.75037C16.5362 7.82507 16.8836 9.10471 16.8836 10.5281C16.8836 12.64 16.1213 14.427 14.6842 15.7016C13.3595 16.8638 11.56 17.5136 9.63554 17.5136C7.37866 17.5136 5.0118 16.5951 3.61469 14.6469C4.95932 16.8538 7.48863 17.8885 9.88547 17.8885C11.8099 17.8885 13.6095 17.2387 14.9341 16.0765C16.3712 14.8019 17.1335 13.0149 17.1335 10.903C17.1335 9.31091 16.6999 7.8963 15.8701 6.75037Z" fill="#EB8F00"/>
<g opacity="0.9">
<path opacity="0.9" d="M14.6394 14.0071C15.8431 14.0071 16.8188 13.1119 16.8188 12.0076C16.8188 10.9034 15.8431 10.0082 14.6394 10.0082C13.4358 10.0082 12.46 10.9034 12.46 12.0076C12.46 13.1119 13.4358 14.0071 14.6394 14.0071Z" fill="url(#paint1_radial_1200_7645)"/>
</g>
<path d="M17.215 8.5405C16.9775 8.30307 16.5939 8.30307 16.3565 8.5405L12.0314 12.8593L11.4153 13.4766C11.8839 13.5454 12.3438 13.6591 12.7899 13.8178L13.2236 13.3829L15.8104 10.8286L15.9653 10.6912L17.215 9.39402C17.4474 9.15658 17.4474 8.77794 17.215 8.5405Z" fill="#E6E6E6"/>
<path d="M15.5658 10.2896C15.4083 10.1321 15.1534 10.1321 14.9959 10.2896L11.6981 13.525C11.9942 13.5787 12.2854 13.6512 12.5728 13.7411L15.572 10.8669C15.7295 10.7082 15.7295 10.4521 15.5707 10.2946C15.5695 10.2934 15.567 10.2909 15.5658 10.2896Z" fill="#FF0000"/>
<path d="M9.94949 12.5295C8.93976 12.5208 7.94503 12.7744 7.06153 13.2631C6.73287 13.4368 6.95406 13.8779 7.23023 13.7804C8.10124 13.4855 9.01599 13.3443 9.93574 13.3643C10.4306 13.363 10.9255 13.4005 11.4141 13.4755L12.0302 12.8582C11.3579 12.6407 10.6555 12.5295 9.94949 12.5295Z" fill="#422B0D"/>
<path d="M13.2994 13.831C13.4087 13.7193 13.4062 13.5409 13.2957 13.4317C13.2794 13.4154 13.2605 13.4016 13.2392 13.389L13.2266 13.3815L12.7909 13.8185C12.8675 13.8461 12.9328 13.8725 12.9855 13.8951C13.0935 13.9403 13.2178 13.9152 13.2994 13.831Z" fill="#422B0D"/>
<path d="M12.7899 13.8185L13.2269 13.3815L12.7899 13.8185Z" fill="#E6E6E6"/>
<path d="M16.7717 9.8566L16.4263 9.51253C16.3836 9.46983 16.3836 9.40077 16.4263 9.35807C16.469 9.31538 16.5381 9.31538 16.5808 9.35807L16.9224 9.69963L16.7717 9.8566Z" fill="#404040"/>
<path d="M16.1385 10.5154L15.9476 10.3233C15.9062 10.2806 15.9062 10.2116 15.9476 10.1689C15.9903 10.1262 16.0594 10.1262 16.1021 10.1689L16.2892 10.3572L16.1385 10.5154Z" fill="#404040"/>
<path d="M14.9199 11.7222L14.7328 11.5401C14.6901 11.4974 14.6901 11.4284 14.7328 11.3857C14.7755 11.343 14.8446 11.343 14.8873 11.3857L15.0756 11.569L14.9199 11.7222Z" fill="#404040"/>
<path d="M13.6874 12.9317L13.5141 12.7572C13.4714 12.7145 13.4714 12.6454 13.5141 12.6027C13.5568 12.56 13.6259 12.56 13.6686 12.6027L13.8431 12.7785L13.6874 12.9317Z" fill="#404040"/>
<path d="M15.5606 11.0935L15.2203 10.7469C15.1776 10.7042 15.1776 10.6351 15.2203 10.5924C15.263 10.5498 15.3321 10.5498 15.3748 10.5924L15.7163 10.9403L15.5606 11.0935Z" fill="#404040"/>
<path d="M14.3397 12.2904L13.9919 11.9464C13.9492 11.9037 13.9492 11.8346 13.9919 11.7919C14.0346 11.7492 14.1036 11.7492 14.1463 11.7919L14.4954 12.1372L14.3397 12.2904Z" fill="#404040"/>
<path d="M13.1094 13.5019L12.7741 13.1654C12.7315 13.1227 12.7315 13.0536 12.7741 13.0109C12.8168 12.9682 12.8859 12.9682 12.9286 13.0109L13.2651 13.3474L13.1094 13.5019Z" fill="#404040"/>
<path d="M7.68506 7.86306C7.81127 7.86806 7.91749 7.76934 7.92249 7.64312C7.92749 7.51691 7.82877 7.41069 7.70255 7.40569C7.46012 7.37445 7.21394 7.38445 6.97525 7.43568C6.32543 7.5569 5.74559 7.91805 5.3507 8.4479C5.17324 8.70533 5.5069 8.92652 5.7131 8.73657C6.2492 8.22421 6.94776 7.91555 7.68756 7.86181" fill="#422B0D"/>
<path d="M12.1753 7.88787C12.0491 7.89287 11.9429 7.79415 11.9391 7.66669C11.9341 7.54047 12.0328 7.43425 12.1591 7.4305C12.4015 7.40051 12.6477 7.41051 12.8864 7.46174C13.5362 7.58296 14.116 7.94536 14.5109 8.47521C14.6884 8.73264 14.3547 8.95258 14.1485 8.76388C13.6124 8.25152 12.9151 7.94286 12.1753 7.88912" fill="#422B0D"/>
<path d="M7.43601 8.78149C6.9124 8.78149 6.43628 9.22387 6.43628 9.95867C6.43628 10.6935 6.9124 11.1346 7.43601 11.1346C7.96086 11.1346 8.43573 10.6922 8.43573 9.95867C8.43573 9.22512 7.96586 8.78149 7.43601 8.78149Z" fill="#422B0D"/>
<path d="M7.39321 9.27294C7.21576 9.18796 7.00207 9.26294 6.91584 9.44039C6.84961 9.5791 6.8796 9.7453 6.99082 9.85277C7.16827 9.93775 7.38196 9.86277 7.46819 9.68532C7.53442 9.54661 7.50443 9.38041 7.39321 9.27294Z" fill="#896024"/>
<path d="M12.2347 8.78149C11.7111 8.78149 11.235 9.22387 11.235 9.95867C11.235 10.6935 11.7111 11.1346 12.2347 11.1346C12.7583 11.1346 13.2345 10.6922 13.2345 9.95867C13.2345 9.22512 12.7583 8.78149 12.2347 8.78149Z" fill="#422B0D"/>
<path d="M12.1867 9.27294C12.0093 9.18796 11.7956 9.26294 11.7094 9.44039C11.6431 9.5791 11.6731 9.7453 11.7843 9.85277C11.9618 9.93775 12.1755 9.86277 12.2617 9.68532C12.3279 9.54661 12.2979 9.38041 12.1867 9.27294Z" fill="#896024"/>
<g opacity="0.9">
<path opacity="0.9" d="M5.36825 14.3431C6.5719 14.3431 7.54765 13.4479 7.54765 12.3437C7.54765 11.2394 6.5719 10.3442 5.36825 10.3442C4.1646 10.3442 3.18884 11.2394 3.18884 12.3437C3.18884 13.4479 4.1646 14.3431 5.36825 14.3431Z" fill="url(#paint2_radial_1200_7645)"/>
</g>
<path d="M6.01818 2.33425H6.51221C6.51221 2.33425 8.54145 2.05866 9.91372 2.07083C11.2218 2.08243 13.1452 2.33425 13.1452 2.33425H13.9226C14.7142 3.63878 15.283 4.97844 15.5438 6.35457C12.9868 5.62849 9.91372 7.16316 9.91372 7.16316C9.91372 7.16316 6.79452 5.65527 4.30835 6.19723C4.7063 4.78852 5.19676 3.51014 6.01818 2.33425Z" fill="#7F2125"/>
<path d="M6.01818 2.33425H6.51221C6.51221 2.33425 8.54145 2.05866 9.91372 2.07083C11.2218 2.08243 13.1452 2.33425 13.1452 2.33425H13.9226M6.01818 2.33425C5.19676 3.51014 4.7063 4.78852 4.30835 6.19723C6.79452 5.65527 9.91372 7.16316 9.91372 7.16316C9.91372 7.16316 12.9868 5.62849 15.5438 6.35457C15.283 4.97844 14.7142 3.63878 13.9226 2.33425M6.01818 2.33425C6.66078 3.03087 7.57627 2.59326 9.91372 3.12934C12.03 2.60946 13.049 3.06537 13.9226 2.33425" stroke="#67211F" stroke-width="0.0582032"/>
<path d="M9.92899 7.14038L9.93649 3.1328C11.5276 2.64472 12.7356 3.02578 13.9293 2.35791C14.4492 3.15589 15.3092 4.65004 15.5504 6.34308C13.4841 5.81199 11.2992 6.51308 9.92899 7.14038Z" fill="#67211F" stroke="#67211F" stroke-width="0.0365292"/>
<path d="M7.20003 2.78608C6.83876 2.54452 6.49981 2.67542 6.51467 2.32849L6.04935 2.34325C6.41205 2.73186 6.94828 2.73085 7.20003 2.78608Z" fill="#67211F"/>
<path d="M12.5784 2.74154C12.9397 2.50243 13.2289 2.6569 13.214 2.31348H13.927C13.5643 2.69816 12.8302 2.68687 12.5784 2.74154Z" fill="#67211F" fill-opacity="0.56"/>
<path d="M9.98307 2.37242L9.90193 3.08476L10.0509 3.0745L9.98307 2.37242Z" fill="#67211F" stroke="#67211F" stroke-width="0.0885594"/>
<path d="M8.03414 2.86709C7.77148 2.85243 7.61333 2.83778 7.39619 2.82312C7.26111 4.37291 7.20926 4.75667 7.4907 6.2917C7.87242 6.39145 8.16107 6.48557 8.49058 6.58689C7.7179 5.18396 7.93262 4.2827 8.03414 2.86709Z" fill="#D60000" stroke="#67211F" stroke-width="0.0365292"/>
<path d="M7.60401 2.84556L7.41363 2.83069L7.37555 3.11326L7.60401 2.84556Z" fill="#398F00" stroke="#67211F" stroke-width="0.00737995"/>
<path d="M7.2966 3.88637L8.0096 3.06556L8.01711 2.88235L7.60432 2.8457L7.37916 3.10953L7.2966 3.88637Z" fill="#FF7F00" stroke="#67211F" stroke-width="0.00737995"/>
<path d="M7.76221 3.34346C7.76221 3.34346 7.53454 3.0894 7.45449 3.021L7.37944 3.10894L7.30438 3.87844C7.41446 3.74897 7.76221 3.34346 7.76221 3.34346Z" fill="#D60000" stroke="#67211F" stroke-width="0.00737995"/>
<path d="M7.97741 3.95169C7.97818 3.63543 7.98564 3.43931 8.00743 3.06494L7.30193 3.87841C7.2768 4.20113 7.27082 4.37915 7.2644 4.69187L7.97741 3.95169Z" fill="#007FFF" stroke="#67211F" stroke-width="0.00590396"/>
<path d="M7.80479 4.1277L7.45204 3.70264L7.30193 3.87852C7.28235 4.19695 7.27296 4.37364 7.2644 4.692L7.80479 4.1277Z" fill="#398F00" stroke="#67211F" stroke-width="0.00590396"/>
<path d="M7.83481 4.8678L7.48956 4.4574L7.2644 4.69191C7.27191 5.0217 7.29443 5.16827 7.31697 5.43943L7.83481 4.8678Z" fill="#D60000" stroke="#67211F" stroke-width="0.00590396"/>
<path d="M7.80492 5.70325L7.45968 5.28552L7.31708 5.43942C7.37712 5.77654 7.39213 5.86448 7.45217 6.11366L7.80492 5.70325Z" fill="#007FFF" stroke="#67211F" stroke-width="0.00590396"/>
<path d="M7.89657 6.4013L7.55719 5.98889L7.4516 6.11409L7.49927 6.2782L7.89657 6.4013Z" fill="#FF7F00" stroke="#67211F" stroke-width="0.00590396"/>
<path d="M8.01499 4.66987C7.98829 4.4235 7.97821 4.27153 7.97747 3.95166L7.48962 4.45734C7.71478 4.72117 7.66975 4.66254 7.83487 4.86774L8.01499 4.66987Z" fill="#FF7F00" stroke="#67211F" stroke-width="0.00590396"/>
<path d="M8.10389 5.35172C8.07387 5.12454 8.03634 5.00728 8.01383 4.67749L7.45844 5.28577C7.67815 5.56561 7.63446 5.50276 7.80368 5.6961L8.10389 5.35172Z" fill="#398F00" stroke="#67211F" stroke-width="0.00590396"/>
<path d="M8.2784 6.00393C8.21085 5.76209 8.17333 5.65949 8.10578 5.35168L7.55789 5.98927C7.73051 6.20913 7.73051 6.20913 7.90314 6.40701L8.2784 6.00393Z" fill="#D60000" stroke="#67211F" stroke-width="0.00590396"/>
<path d="M8.49707 6.57435C8.32361 6.36078 8.3345 6.37136 8.15349 6.14307L7.89423 6.39637C8.21238 6.47979 8.20681 6.47794 8.20681 6.47794L8.49707 6.57435Z" fill="#398F00" stroke="#67211F" stroke-width="0.00590396"/>
<path d="M8.27888 6.00378L8.15067 6.14371L8.48251 6.55611H8.49005L8.27888 6.00378Z" fill="#007FFF" stroke="#67211F" stroke-width="0.00590396"/>
<path d="M8.05581 5.01597L8.0181 4.68457L7.97285 4.72876L7.90497 4.8024L8.05581 5.01597Z" fill="#007FFF" stroke="#67211F" stroke-width="0.00590396"/>
<g filter="url(#filter0_d_1200_7645)">
<path d="M9.00882 3.77126L9.12998 3.5842C9.12998 3.5842 9.26162 4.13282 9.16972 4.48379C9.09664 4.76286 8.82723 5.12701 8.82723 5.12701C8.70392 5.44143 8.71181 5.61388 8.77865 5.91891L8.53275 6.20766C8.53275 6.20766 8.45673 5.80784 8.33388 5.61176C8.15564 5.32728 7.86156 5.40464 7.68021 5.15459C7.41169 4.78436 7.55091 4.00273 7.55091 4.00273L7.76879 4.19113C7.76879 4.19113 7.90084 3.99652 8.02988 3.71722C8.07609 3.6172 8.12192 3.50631 8.16116 3.38962C8.22115 3.21123 8.28794 2.92437 8.28794 2.92437L8.4139 3.18182L8.5152 3.04493C8.5152 3.04493 8.52403 3.24226 8.56141 3.3526C8.6472 3.60585 8.74572 3.69804 9.00882 3.77126Z" fill="url(#paint3_linear_1200_7645)"/>
<path d="M9.00882 3.77126C9.05614 3.6982 9.12998 3.5842 9.12998 3.5842C9.12998 3.5842 9.26162 4.13282 9.16972 4.48379C9.09664 4.76286 8.82723 5.12701 8.82723 5.12701C8.70392 5.44143 8.71181 5.61388 8.77865 5.91891L8.53275 6.20766C8.53275 6.20766 8.45673 5.80784 8.33388 5.61176C8.15564 5.32728 7.86156 5.40464 7.68021 5.15459C7.41169 4.78436 7.55091 4.00273 7.55091 4.00273L7.76879 4.19113M9.00882 3.77126C8.74572 3.69804 8.6472 3.60585 8.56141 3.3526C8.52403 3.24226 8.5152 3.04493 8.5152 3.04493L8.4139 3.18182M9.00882 3.77126C9.00161 3.79773 8.78999 4.25434 8.78999 4.25434C8.78999 4.25434 8.62451 3.93788 8.5501 3.72329M7.76879 4.19113C7.89344 4.33431 7.9122 4.42789 7.94752 4.59378L8.10929 4.00014L8.35612 4.36459L8.39923 3.57125L8.5501 3.72329M7.76879 4.19113C7.76879 4.19113 7.90084 3.99652 8.02988 3.71722C8.07609 3.6172 8.12192 3.50631 8.16116 3.38962C8.22115 3.21123 8.28794 2.92437 8.28794 2.92437L8.4139 3.18182M8.4139 3.18182C8.4139 3.18182 8.47856 3.51695 8.5501 3.72329" stroke="#F8F7FC" stroke-width="0.0365292"/>
</g>
<defs>
<filter id="filter0_d_1200_7645" x="7.49652" y="2.87012" width="1.85103" height="3.49059" filterUnits="userSpaceOnUse" color-interpolation-filters="sRGB">
<feFlood flood-opacity="0" result="BackgroundImageFix"/>
<feColorMatrix in="SourceAlpha" type="matrix" values="0 0 0 0 0 0 0 0 0 0 0 0 0 0 0 0 0 0 127 0" result="hardAlpha"/>
<feOffset dx="0.0737995" dy="0.0590396"/>
<feGaussianBlur stdDeviation="0.0265678"/>
<feComposite in2="hardAlpha" operator="out"/>
<feColorMatrix type="matrix" values="0 0 0 0 0 0 0 0 0 0 0 0 0 0 0 0 0 0 0.25 0"/>
<feBlend mode="normal" in2="BackgroundImageFix" result="effect1_dropShadow_1200_7645"/>
<feBlend mode="normal" in="SourceGraphic" in2="effect1_dropShadow_1200_7645" result="shape"/>
</filter>
<radialGradient id="paint0_radial_1200_7645" cx="0" cy="0" r="1" gradientUnits="userSpaceOnUse" gradientTransform="translate(9.88406 10.9028) scale(7.11802 7.11799)">
<stop offset="0.5" stop-color="#FDE030"/>
<stop offset="0.92" stop-color="#F7C02B"/>
<stop offset="1" stop-color="#F4A223"/>
</radialGradient>
<radialGradient id="paint1_radial_1200_7645" cx="0" cy="0" r="1" gradientUnits="userSpaceOnUse" gradientTransform="translate(14.6332 12.0261) scale(2.37009 2.07715)">
<stop stop-color="#ED7770"/>
<stop offset="0.08" stop-color="#ED7770" stop-opacity="0.97"/>
<stop offset="0.21" stop-color="#ED7770" stop-opacity="0.88"/>
<stop offset="0.35" stop-color="#ED7770" stop-opacity="0.74"/>
<stop offset="0.52" stop-color="#ED7770" stop-opacity="0.55"/>
<stop offset="0.71" stop-color="#ED7770" stop-opacity="0.29"/>
<stop offset="0.9" stop-color="#ED7770" stop-opacity="0"/>
</radialGradient>
<radialGradient id="paint2_radial_1200_7645" cx="0" cy="0" r="1" gradientUnits="userSpaceOnUse" gradientTransform="translate(5.36825 12.3617) scale(2.36867 2.0759)">
<stop stop-color="#ED7770"/>
<stop offset="0.08" stop-color="#ED7770" stop-opacity="0.97"/>
<stop offset="0.21" stop-color="#ED7770" stop-opacity="0.88"/>
<stop offset="0.35" stop-color="#ED7770" stop-opacity="0.74"/>
<stop offset="0.52" stop-color="#ED7770" stop-opacity="0.55"/>
<stop offset="0.71" stop-color="#ED7770" stop-opacity="0.29"/>
<stop offset="0.9" stop-color="#ED7770" stop-opacity="0"/>
</radialGradient>
<linearGradient id="paint3_linear_1200_7645" x1="8.69081" y1="3.03052" x2="7.89779" y2="6.04036" gradientUnits="userSpaceOnUse">
<stop stop-color="#C9C9C9"/>
<stop offset="1" stop-color="#939297"/>
</linearGradient>
</defs>
</svg>
