<svg width="18" height="18" viewBox="0 0 18 18" fill="none" xmlns="http://www.w3.org/2000/svg">
<path d="M9.34096 16.6757C5.8097 16.6757 2 14.4607 2 9.60052C2 4.74032 5.8097 2.52539 9.34096 2.52539C11.3028 2.52539 13.1127 3.17089 14.4543 4.34796C15.9098 5.63895 16.6819 7.46153 16.6819 9.60052C16.6819 11.7395 15.9098 13.5494 14.4543 14.8404C13.1127 16.0175 11.2901 16.6757 9.34096 16.6757Z" fill="url(#paint0_radial_1193_800)"/>
<path d="M15.4019 5.39502C16.0765 6.4835 16.4284 7.77955 16.4284 9.22116C16.4284 11.3602 15.6563 13.1701 14.2008 14.4611C12.8592 15.6381 11.0366 16.2963 9.08743 16.2963C6.80161 16.2963 4.39935 15.366 2.98938 13.3928C4.35125 15.628 6.91173 16.676 9.34057 16.676C11.2897 16.676 13.1123 16.0178 14.4539 14.8408C15.9095 13.5498 16.6815 11.7399 16.6815 9.60086C16.6815 7.98839 16.2423 6.55564 15.4019 5.39502Z" fill="#EB8F00"/>
<path d="M6.86521 6.82092C6.33489 6.82092 5.85266 7.26897 5.85266 8.01319C5.85266 8.75741 6.33489 9.20546 6.86521 9.20546C7.39553 9.20546 7.87775 8.75741 7.87775 8.01319C7.87775 7.26897 7.39679 6.82092 6.86521 6.82092Z" fill="#422B0D"/>
<path d="M6.8147 7.31857C6.68433 7.22744 6.48815 7.25655 6.36158 7.43881C6.23501 7.62233 6.27678 7.81471 6.40715 7.90584C6.53751 7.99697 6.73369 7.96786 6.86026 7.7856C6.98683 7.60335 6.94633 7.4097 6.8147 7.31857Z" fill="#896024"/>
<path d="M11.7207 6.82092C11.1904 6.82092 10.7081 7.26897 10.7081 8.01319C10.7081 8.75741 11.1904 9.20546 11.7207 9.20546C12.251 9.20546 12.7332 8.75741 12.7332 8.01319C12.7332 7.26897 12.251 6.82092 11.7207 6.82092Z" fill="#422B0D"/>
<path d="M11.6694 7.31857C11.5391 7.22744 11.3429 7.25655 11.2163 7.43881C11.0898 7.62233 11.1315 7.81471 11.2619 7.90584C11.3922 7.99697 11.5884 7.96786 11.715 7.7856C11.8428 7.60208 11.7998 7.4097 11.6694 7.31857Z" fill="#896024"/>
<path d="M6.27668 13.5359H12.6165C13.4164 13.5359 14.0644 12.8879 14.0644 12.0879C14.0644 11.288 13.4164 10.64 12.6165 10.64H6.27668C5.47677 10.64 4.82874 11.288 4.82874 12.0879C4.82747 12.8879 5.47677 13.5359 6.27668 13.5359Z" fill="white"/>
<path d="M14.0404 11.8484H4.84647C4.83381 11.9256 4.82495 12.0053 4.82495 12.0863C4.82495 12.1787 4.83381 12.2673 4.85026 12.3547H14.0353C14.0518 12.2673 14.0606 12.1787 14.0606 12.0863C14.0619 12.0041 14.053 11.9256 14.0404 11.8484Z" fill="#B3B3B3"/>
<path d="M12.613 10.6385H12.5434V13.5357H12.613C12.7282 13.5357 12.8408 13.5205 12.9484 13.4952V10.6791C12.8408 10.6537 12.7295 10.6385 12.613 10.6385Z" fill="#B3B3B3"/>
<path d="M9.61736 10.6385H9.21234V13.5357H9.61736V10.6385Z" fill="#B3B3B3"/>
<path d="M6.2756 10.6385C6.13764 10.6385 6.00474 10.6588 5.87817 10.6955V13.4787C6.00474 13.5154 6.13764 13.5357 6.2756 13.5357H6.28319V10.6385H6.2756Z" fill="#B3B3B3"/>
<path d="M7.95025 10.6385H7.54523V13.5357H7.95025V10.6385Z" fill="#B3B3B3"/>
<path d="M11.2829 10.6385H10.8779V13.5357H11.2829V10.6385Z" fill="#B3B3B3"/>
<path d="M14.0639 12.0873C14.0208 11.6329 13.7766 11.2216 13.4146 10.9937C13.2374 10.876 13.0349 10.8026 12.8286 10.7811C12.6311 10.7609 12.3944 10.7824 12.1691 10.7862C11.716 10.8039 11.2616 10.8077 10.8085 10.8178L9.44539 10.8279L8.08478 10.8178C7.63167 10.8077 7.17729 10.8039 6.72418 10.7862C6.49889 10.7824 6.2622 10.7609 6.06476 10.7811C5.85845 10.8026 5.65468 10.8748 5.47875 10.9937C5.11676 11.2216 4.87122 11.6329 4.82819 12.0873C4.78515 11.6329 4.98893 11.1456 5.36863 10.8431C5.55595 10.69 5.78378 10.5837 6.02552 10.5356L6.11665 10.5179L6.20904 10.5103C6.27233 10.5039 6.32802 10.5039 6.38497 10.5014L6.72544 10.49C7.17856 10.4723 7.63294 10.4685 8.08605 10.4584L9.44666 10.4482L10.8073 10.4584C11.2604 10.4685 11.7148 10.4723 12.1679 10.49L12.5083 10.5014C12.5653 10.5039 12.6197 10.5039 12.6843 10.5103L12.7767 10.5179L12.8678 10.5356C13.1095 10.5837 13.3374 10.69 13.5247 10.8431C13.9031 11.1456 14.1069 11.6317 14.0639 12.0873Z" fill="#DE7321"/>
<path d="M4.95467 1.30065H5.51419C5.51419 1.30065 7.81242 0.986579 9.3666 1.00045C10.8481 1.01367 13.0264 1.30065 13.0264 1.30065H13.9069C14.8034 2.78732 15.4476 4.31402 15.743 5.88229C12.847 5.05483 9.3666 6.80377 9.3666 6.80377C9.3666 6.80377 5.83392 5.08536 3.01819 5.70298C3.46889 4.09758 4.02437 2.64072 4.95467 1.30065Z" fill="#7F2125"/>
<path d="M4.95467 1.30065H5.51419C5.51419 1.30065 7.81242 0.986579 9.3666 1.00045C10.8481 1.01367 13.0264 1.30065 13.0264 1.30065H13.9069M4.95467 1.30065C4.02437 2.64072 3.46889 4.09758 3.01819 5.70298C5.83392 5.08536 9.3666 6.80377 9.3666 6.80377C9.3666 6.80377 12.847 5.05483 15.743 5.88229C15.4476 4.31402 14.8034 2.78732 13.9069 1.30065M4.95467 1.30065C5.68245 2.09453 6.7193 1.59582 9.3666 2.20676C11.7635 1.61429 12.9175 2.13384 13.9069 1.30065" stroke="#67211F" stroke-width="0.0663296"/>
<path d="M9.38562 6.77796L9.39412 2.21084C11.1962 1.65461 12.5643 2.08887 13.9162 1.32776C14.505 2.23715 15.4791 3.93992 15.7522 5.86934C13.4119 5.2641 10.9374 6.06308 9.38562 6.77796Z" fill="#67211F" stroke="#67211F" stroke-width="0.0416294"/>
<path d="M6.29467 1.81554C5.88551 1.54026 5.50164 1.68944 5.51847 1.29407L4.99146 1.31089C5.40223 1.75376 6.00955 1.7526 6.29467 1.81554Z" fill="#67211F"/>
<path d="M12.3872 1.76505C12.7964 1.49256 13.1239 1.6686 13.107 1.27722H13.9146C13.5038 1.71562 12.6723 1.70275 12.3872 1.76505Z" fill="#67211F" fill-opacity="0.56"/>
<path d="M9.44758 1.34449L9.35569 2.1563L9.52445 2.1446L9.44758 1.34449Z" fill="#67211F" stroke="#67211F" stroke-width="0.100924"/>
<path d="M7.23748 1.90802C6.94 1.89132 6.76089 1.87461 6.51496 1.85791C6.36198 3.62408 6.30325 4.06142 6.62201 5.81077C7.05432 5.92446 7.38123 6.03172 7.75442 6.14719C6.87931 4.54837 7.1225 3.52128 7.23748 1.90802Z" fill="#D60000" stroke="#67211F" stroke-width="0.0416294"/>
<path d="M6.75006 1.88291L6.53756 1.86621L6.49506 2.18358L6.75006 1.88291Z" fill="#398F00" stroke="#67211F" stroke-width="0.00841034"/>
<path d="M6.40198 3.06902L7.20949 2.13361L7.21799 1.92482L6.75048 1.88306L6.49548 2.18372L6.40198 3.06902Z" fill="#FF7F00" stroke="#67211F" stroke-width="0.00841034"/>
<path d="M6.92983 2.45098C6.92983 2.45098 6.67199 2.16145 6.58132 2.0835L6.49632 2.18372L6.41132 3.06066C6.53599 2.91311 6.92983 2.45098 6.92983 2.45098Z" fill="#D60000" stroke="#67211F" stroke-width="0.00841034"/>
<path d="M7.17538 3.1441C7.17625 2.78369 7.1847 2.56018 7.20938 2.13354L6.41036 3.06059C6.3819 3.42837 6.37512 3.63124 6.36786 3.98763L7.17538 3.1441Z" fill="#007FFF" stroke="#67211F" stroke-width="0.00672827"/>
<path d="M6.97987 3.34464L6.58036 2.86023L6.41036 3.06067C6.38818 3.42356 6.37754 3.62492 6.36786 3.98773L6.97987 3.34464Z" fill="#398F00" stroke="#67211F" stroke-width="0.00672827"/>
<path d="M7.01387 4.18804L6.62286 3.72034L6.36786 3.9876C6.37636 4.36343 6.40186 4.53047 6.42739 4.83948L7.01387 4.18804Z" fill="#D60000" stroke="#67211F" stroke-width="0.00672827"/>
<path d="M6.98086 5.14024L6.58985 4.66418L6.42834 4.83957C6.49635 5.22376 6.51335 5.32398 6.58135 5.60794L6.98086 5.14024Z" fill="#007FFF" stroke="#67211F" stroke-width="0.00672827"/>
<path d="M7.08183 5.93365L6.69932 5.46594L6.58032 5.60792L6.63405 5.79404L7.08183 5.93365Z" fill="#FF7F00" stroke="#67211F" stroke-width="0.00672827"/>
<path d="M7.21879 3.96252C7.18854 3.68176 7.17713 3.50857 7.17629 3.14404L6.62378 3.72032C6.87878 4.02099 6.82778 3.95417 7.01479 4.18802L7.21879 3.96252Z" fill="#FF7F00" stroke="#67211F" stroke-width="0.00672827"/>
<path d="M7.32068 4.73932C7.28668 4.48041 7.24417 4.34678 7.21867 3.97095L6.58966 4.66415C6.8385 4.98306 6.78902 4.91144 6.98067 5.13178L7.32068 4.73932Z" fill="#398F00" stroke="#67211F" stroke-width="0.00672827"/>
<path d="M7.51578 5.48269C7.43928 5.20708 7.39678 5.09016 7.32028 4.73938L6.69977 5.46599C6.89527 5.71655 6.89527 5.71655 7.09078 5.94205L7.51578 5.48269Z" fill="#D60000" stroke="#67211F" stroke-width="0.00672827"/>
<path d="M7.75757 6.13047C7.56206 5.88827 7.57434 5.90026 7.37034 5.64136L7.07812 5.92862C7.43671 6.02324 7.43043 6.02114 7.43043 6.02114L7.75757 6.13047Z" fill="#398F00" stroke="#67211F" stroke-width="0.00672827"/>
<path d="M7.51572 5.48267L7.37122 5.64135L7.74522 6.10905H7.75372L7.51572 5.48267Z" fill="#007FFF" stroke="#67211F" stroke-width="0.00672827"/>
<path d="M7.26052 4.3552L7.21802 3.97937L7.16702 4.02948L7.09052 4.113L7.26052 4.3552Z" fill="#007FFF" stroke="#67211F" stroke-width="0.00672827"/>
<g filter="url(#filter0_d_1193_800)">
<path d="M8.34181 2.93828L8.47903 2.7251C8.47903 2.7251 8.62812 3.35033 8.52403 3.7503C8.44127 4.06833 8.13615 4.48333 8.13615 4.48333C7.99649 4.84165 8.00542 5.03818 8.08112 5.38579L7.80263 5.71486C7.80263 5.71486 7.71653 5.25922 7.5774 5.03576C7.37554 4.71155 7.04247 4.79972 6.83708 4.51476C6.53296 4.09284 6.69064 3.20207 6.69064 3.20207L6.9374 3.41678C6.9374 3.41678 7.08695 3.19499 7.2331 2.8767C7.28544 2.76271 7.33734 2.63634 7.38179 2.50336C7.44972 2.30006 7.52537 1.97315 7.52537 1.97315L7.66802 2.26655L7.78275 2.11054C7.78275 2.11054 7.79275 2.33542 7.83509 2.46117C7.93225 2.74978 8.04383 2.85484 8.34181 2.93828Z" fill="url(#paint1_linear_1193_800)"/>
<path d="M8.34181 2.93828C8.3954 2.85503 8.47903 2.7251 8.47903 2.7251C8.47903 2.7251 8.62812 3.35033 8.52403 3.7503C8.44127 4.06833 8.13615 4.48333 8.13615 4.48333C7.99649 4.84165 8.00542 5.03818 8.08112 5.38579L7.80263 5.71486C7.80263 5.71486 7.71653 5.25922 7.5774 5.03576C7.37554 4.71155 7.04247 4.79972 6.83708 4.51476C6.53296 4.09284 6.69064 3.20207 6.69064 3.20207L6.9374 3.41678M8.34181 2.93828C8.04383 2.85484 7.93225 2.74978 7.83509 2.46117C7.79275 2.33542 7.78275 2.11054 7.78275 2.11054L7.66802 2.26655M8.34181 2.93828C8.33364 2.96844 8.09397 3.48881 8.09397 3.48881C8.09397 3.48881 7.90655 3.12817 7.82228 2.88361M6.9374 3.41678C7.07857 3.57995 7.09982 3.68659 7.13982 3.87565L7.32304 3.19911L7.60258 3.61445L7.65141 2.71035L7.82228 2.88361M6.9374 3.41678C6.9374 3.41678 7.08695 3.19499 7.2331 2.8767C7.28544 2.76271 7.33734 2.63634 7.38179 2.50336C7.44972 2.30006 7.52537 1.97315 7.52537 1.97315L7.66802 2.26655M7.66802 2.26655C7.66802 2.26655 7.74125 2.64847 7.82228 2.88361" stroke="#F8F7FC" stroke-width="0.0416294"/>
</g>
<defs>
<filter id="filter0_d_1193_800" x="6.62891" y="1.91101" width="2.09754" height="3.97842" filterUnits="userSpaceOnUse" color-interpolation-filters="sRGB">
<feFlood flood-opacity="0" result="BackgroundImageFix"/>
<feColorMatrix in="SourceAlpha" type="matrix" values="0 0 0 0 0 0 0 0 0 0 0 0 0 0 0 0 0 0 127 0" result="hardAlpha"/>
<feOffset dx="0.0841034" dy="0.0672827"/>
<feGaussianBlur stdDeviation="0.0302772"/>
<feComposite in2="hardAlpha" operator="out"/>
<feColorMatrix type="matrix" values="0 0 0 0 0 0 0 0 0 0 0 0 0 0 0 0 0 0 0.25 0"/>
<feBlend mode="normal" in2="BackgroundImageFix" result="effect1_dropShadow_1193_800"/>
<feBlend mode="normal" in="SourceGraphic" in2="effect1_dropShadow_1193_800" result="shape"/>
</filter>
<radialGradient id="paint0_radial_1193_800" cx="0" cy="0" r="1" gradientUnits="userSpaceOnUse" gradientTransform="translate(9.34096 9.60051) scale(7.20929 7.20926)">
<stop offset="0.5" stop-color="#FDE030"/>
<stop offset="0.9188" stop-color="#F7C02B"/>
<stop offset="1" stop-color="#F4A223"/>
</radialGradient>
<linearGradient id="paint1_linear_1193_800" x1="7.98164" y1="2.09412" x2="7.073" y2="5.52142" gradientUnits="userSpaceOnUse">
<stop stop-color="#C9C9C9"/>
<stop offset="1" stop-color="#939297"/>
</linearGradient>
</defs>
</svg>
