<svg width="19" height="18" viewBox="0 0 19 18" fill="none" xmlns="http://www.w3.org/2000/svg">
<path d="M9.9758 16.7375C6.48925 16.7375 2.72778 14.5506 2.72778 9.75192C2.72778 4.95325 6.48925 2.76636 9.9758 2.76636C11.9128 2.76636 13.6998 3.40368 15.0244 4.56586C16.4615 5.8405 17.2238 7.64 17.2238 9.75192C17.2238 11.8638 16.4615 13.6508 15.0244 14.9255C13.6998 16.0877 11.9003 16.7375 9.9758 16.7375Z" fill="url(#paint0_radial_1206_12529)"/>
<path d="M9.90151 13.3403C8.76807 13.349 7.68586 12.8729 6.92732 12.0307C6.86983 11.9644 6.85609 11.8707 6.89233 11.7907C6.92857 11.7095 7.00855 11.657 7.09727 11.6558C7.13726 11.6558 7.17725 11.667 7.21224 11.687C7.81458 12.0332 8.8218 12.463 9.90151 12.463H9.919C10.9975 12.463 12.0059 12.0332 12.607 11.687C12.642 11.667 12.682 11.6558 12.722 11.6558C12.8107 11.657 12.8907 11.7095 12.9269 11.7907C12.9644 11.8707 12.9507 11.9644 12.8919 12.0307C12.1334 12.8729 11.0487 13.3503 9.91525 13.3403" fill="#422B0D"/>
<path d="M7.52692 7.00708C7.00331 7.00708 6.52719 7.44946 6.52719 8.18425C6.52719 8.91905 7.00331 9.36018 7.52692 9.36018C8.05177 9.36018 8.52664 8.9178 8.52664 8.18425C8.52664 7.45071 8.05677 7.00708 7.52692 7.00708Z" fill="#422B0D"/>
<path d="M7.4854 7.4995C7.30795 7.41452 7.09426 7.4895 7.00803 7.66695C6.9418 7.80566 6.97179 7.97187 7.08301 8.07934C7.26046 8.16431 7.47416 8.08933 7.56038 7.91188C7.62661 7.77317 7.59662 7.60697 7.4854 7.4995Z" fill="#896024"/>
<path d="M12.3257 7.00708C11.802 7.00708 11.3259 7.44946 11.3259 8.18425C11.3259 8.91905 11.802 9.36018 12.3257 9.36018C12.8493 9.36018 13.3254 8.9178 13.3254 8.18425C13.3254 7.45071 12.8493 7.00708 12.3257 7.00708Z" fill="#422B0D"/>
<path d="M12.2781 7.4995C12.1006 7.41452 11.8869 7.4895 11.8007 7.66695C11.7345 7.80566 11.7645 7.97187 11.8757 8.07934C12.0531 8.16431 12.2668 8.08933 12.353 7.91188C12.4193 7.77317 12.3893 7.60697 12.2781 7.4995Z" fill="#896024"/>
<path d="M6.65299 14.9504C5.84071 14.9504 5.21588 14.1631 5.21588 13.4883C5.21588 13.0134 5.42832 12.4636 5.72824 11.7013C5.76573 11.5888 5.81572 11.4764 5.8657 11.3514C6.04066 10.899 6.2406 10.4566 6.46554 10.0268C6.51053 9.94054 6.613 9.90305 6.70297 9.93929C6.74046 9.95804 6.77171 9.98928 6.79045 10.0268C6.9779 10.4142 7.19034 10.889 7.40278 11.3764C7.92764 12.5511 8.0776 13.0259 8.0776 13.5008C8.0901 14.1631 7.45277 14.9504 6.65299 14.9504Z" fill="url(#paint1_radial_1206_12529)"/>
<path d="M7.52772 14.0497C7.34402 14.3334 6.92789 14.2797 6.92789 13.8086C6.92789 13.5074 6.98912 11.9603 7.2478 12.1765C7.67268 12.5289 7.79265 13.6486 7.52772 14.0497Z" fill="#81D4FA"/>
<path d="M15.962 5.59924C16.6281 6.67394 16.9755 7.95359 16.9755 9.37694C16.9755 11.4889 16.2132 13.2759 14.7761 14.5505C13.4515 15.7127 11.652 16.3625 9.72749 16.3625C7.47061 16.3625 5.10375 15.444 3.70663 13.4958C5.05127 15.7027 7.58058 16.7374 9.97742 16.7374C11.9019 16.7374 13.7014 16.0876 15.026 14.9254C16.4631 13.6508 17.2254 11.8638 17.2254 9.75184C17.2254 8.15978 16.7918 6.74518 15.962 5.59924Z" fill="#EB8F00"/>
<path d="M5.95176 1.50881H6.46904C6.46904 1.50881 8.59378 1.23322 10.0306 1.24539C11.4003 1.25699 13.4141 1.50881 13.4141 1.50881H14.2282C15.057 2.81334 15.6525 4.153 15.9256 5.52913C13.2483 4.80305 10.0306 6.33772 10.0306 6.33772C10.0306 6.33772 6.76464 4.82983 4.16147 5.37179C4.57815 3.96308 5.09169 2.68471 5.95176 1.50881Z" fill="#7F2125"/>
<path d="M5.95176 1.50881H6.46904C6.46904 1.50881 8.59378 1.23322 10.0306 1.24539C11.4003 1.25699 13.4141 1.50881 13.4141 1.50881H14.2282M5.95176 1.50881C5.09169 2.68471 4.57815 3.96308 4.16147 5.37179C6.76464 4.82983 10.0306 6.33772 10.0306 6.33772C10.0306 6.33772 13.2483 4.80305 15.9256 5.52913C15.6525 4.153 15.057 2.81334 14.2282 1.50881M5.95176 1.50881C6.6246 2.20543 7.58318 1.76782 10.0306 2.3039C12.2465 1.78402 13.3134 2.23993 14.2282 1.50881" stroke="#67211F" stroke-width="0.0582032"/>
<path d="M10.0503 6.31518L10.0582 2.30761C11.7241 1.81952 12.989 2.20058 14.2389 1.53271C14.7832 2.33069 15.6837 3.82485 15.9363 5.51789C13.7727 4.98679 11.485 5.68789 10.0503 6.31518Z" fill="#67211F" stroke="#67211F" stroke-width="0.0365292"/>
<path d="M7.18857 1.96076C6.8103 1.71921 6.4554 1.8501 6.47096 1.50317L5.98373 1.51793C6.3635 1.90655 6.92497 1.90553 7.18857 1.96076Z" fill="#67211F"/>
<path d="M12.8228 1.91659C13.201 1.67748 13.5038 1.83195 13.4882 1.48853H14.2348C13.855 1.87321 13.0864 1.86192 12.8228 1.91659Z" fill="#67211F" fill-opacity="0.56"/>
<path d="M10.1074 1.54734L10.0224 2.25969L10.1784 2.24943L10.1074 1.54734Z" fill="#67211F" stroke="#67211F" stroke-width="0.0885594"/>
<path d="M8.06256 2.04202C7.78754 2.02736 7.62195 2.0127 7.39459 1.99805C7.25315 3.54784 7.19886 3.93159 7.49355 5.46662C7.89323 5.56638 8.19546 5.6605 8.54048 5.76182C7.73144 4.35889 7.95626 3.45762 8.06256 2.04202Z" fill="#D60000" stroke="#67211F" stroke-width="0.0365292"/>
<path d="M7.61897 2.02012L7.41963 2.00525L7.37976 2.28782L7.61897 2.02012Z" fill="#398F00" stroke="#67211F" stroke-width="0.00737995"/>
<path d="M7.29083 3.06117L8.03739 2.24037L8.04525 2.05715L7.61303 2.02051L7.37728 2.28434L7.29083 3.06117Z" fill="#FF7F00" stroke="#67211F" stroke-width="0.00737995"/>
<path d="M7.77816 2.5185C7.77816 2.5185 7.53979 2.26445 7.45597 2.19604L7.37738 2.28399L7.2988 3.05349C7.41406 2.92402 7.77816 2.5185 7.77816 2.5185Z" fill="#D60000" stroke="#67211F" stroke-width="0.00737995"/>
<path d="M8.00733 3.1265C8.00814 2.81024 8.01595 2.61411 8.03876 2.23975L7.30007 3.05321C7.27376 3.37593 7.26749 3.55395 7.26077 3.86668L8.00733 3.1265Z" fill="#007FFF" stroke="#67211F" stroke-width="0.00590396"/>
<path d="M7.82658 3.30262L7.45723 2.87756L7.30007 3.05345C7.27956 3.37188 7.26973 3.54857 7.26077 3.86693L7.82658 3.30262Z" fill="#398F00" stroke="#67211F" stroke-width="0.00590396"/>
<path d="M7.85802 4.0426L7.49653 3.6322L7.26077 3.86672C7.26863 4.19651 7.29221 4.34308 7.31581 4.61424L7.85802 4.0426Z" fill="#D60000" stroke="#67211F" stroke-width="0.00590396"/>
<path d="M7.82519 4.87818L7.4637 4.46045L7.31439 4.61435C7.37726 4.95147 7.39298 5.03941 7.45584 5.28858L7.82519 4.87818Z" fill="#007FFF" stroke="#67211F" stroke-width="0.00590396"/>
<path d="M7.92071 5.57634L7.56536 5.16394L7.4548 5.28913L7.50472 5.45325L7.92071 5.57634Z" fill="#FF7F00" stroke="#67211F" stroke-width="0.00590396"/>
<path d="M8.04488 3.84467C8.01691 3.5983 8.00636 3.44633 8.00558 3.12646L7.49478 3.63214C7.73054 3.89597 7.68339 3.83734 7.85627 4.04254L8.04488 3.84467Z" fill="#FF7F00" stroke="#67211F" stroke-width="0.00590396"/>
<path d="M8.13841 4.52653C8.10698 4.29934 8.06769 4.18208 8.04411 3.85229L7.46259 4.46057C7.69264 4.74041 7.64689 4.67756 7.82408 4.87091L8.13841 4.52653Z" fill="#398F00" stroke="#67211F" stroke-width="0.00590396"/>
<path d="M8.32134 5.17886C8.25061 4.93701 8.21132 4.83441 8.14059 4.52661L7.56693 5.1642C7.74767 5.38406 7.74767 5.38406 7.92842 5.58193L8.32134 5.17886Z" fill="#D60000" stroke="#67211F" stroke-width="0.00590396"/>
<path d="M8.54508 5.74682C8.36434 5.53429 8.37569 5.54481 8.18708 5.31763L7.91693 5.5697C8.24844 5.65272 8.24264 5.65088 8.24264 5.65088L8.54508 5.74682Z" fill="#398F00" stroke="#67211F" stroke-width="0.00590396"/>
<path d="M8.32123 5.17847L8.18698 5.31839L8.53444 5.73079H8.54234L8.32123 5.17847Z" fill="#007FFF" stroke="#67211F" stroke-width="0.00590396"/>
<path d="M8.0846 4.19089L8.04512 3.8595L7.99774 3.90368L7.92667 3.97733L8.0846 4.19089Z" fill="#007FFF" stroke="#67211F" stroke-width="0.00590396"/>
<g filter="url(#filter0_d_1206_12529)">
<path d="M9.08436 2.94594L9.21122 2.75888C9.21122 2.75888 9.34906 3.30751 9.25283 3.65847C9.17632 3.93754 8.89422 4.30169 8.89422 4.30169C8.76511 4.61612 8.77337 4.78857 8.84336 5.09359L8.58589 5.38234C8.58589 5.38234 8.50628 4.98253 8.37766 4.78644C8.19103 4.50196 7.88311 4.57932 7.69322 4.32928C7.41206 3.95905 7.55784 3.17741 7.55784 3.17741L7.78598 3.36581C7.78598 3.36581 7.92424 3.1712 8.05935 2.8919C8.10774 2.79188 8.15572 2.681 8.19681 2.5643C8.25962 2.38592 8.32956 2.09906 8.32956 2.09906L8.46144 2.3565L8.5675 2.21961C8.5675 2.21961 8.57675 2.41694 8.61589 2.52728C8.70572 2.78053 8.80888 2.87272 9.08436 2.94594Z" fill="url(#paint2_linear_1206_12529)"/>
<path d="M9.08436 2.94594C9.1339 2.87289 9.21122 2.75888 9.21122 2.75888C9.21122 2.75888 9.34906 3.30751 9.25283 3.65847C9.17632 3.93754 8.89422 4.30169 8.89422 4.30169C8.76511 4.61612 8.77337 4.78857 8.84336 5.09359L8.58589 5.38234C8.58589 5.38234 8.50628 4.98253 8.37766 4.78644C8.19103 4.50196 7.88311 4.57932 7.69322 4.32928C7.41206 3.95905 7.55784 3.17741 7.55784 3.17741L7.78598 3.36581M9.08436 2.94594C8.80888 2.87272 8.70572 2.78053 8.61589 2.52728C8.57675 2.41694 8.5675 2.21961 8.5675 2.21961L8.46144 2.3565M9.08436 2.94594C9.07681 2.97241 8.85523 3.42902 8.85523 3.42902C8.85523 3.42902 8.68196 3.11257 8.60405 2.89797M7.78598 3.36581C7.91649 3.509 7.93613 3.60257 7.97311 3.76847L8.1425 3.17482L8.40094 3.53927L8.44608 2.74594L8.60405 2.89797M7.78598 3.36581C7.78598 3.36581 7.92424 3.1712 8.05935 2.8919C8.10774 2.79188 8.15572 2.681 8.19681 2.5643C8.25962 2.38592 8.32956 2.09906 8.32956 2.09906L8.46144 2.3565M8.46144 2.3565C8.46144 2.3565 8.52914 2.69163 8.60405 2.89797" stroke="#F8F7FC" stroke-width="0.0365292"/>
</g>
<defs>
<filter id="filter0_d_1206_12529" x="7.50165" y="2.04663" width="1.93065" height="3.4873" filterUnits="userSpaceOnUse" color-interpolation-filters="sRGB">
<feFlood flood-opacity="0" result="BackgroundImageFix"/>
<feColorMatrix in="SourceAlpha" type="matrix" values="0 0 0 0 0 0 0 0 0 0 0 0 0 0 0 0 0 0 127 0" result="hardAlpha"/>
<feOffset dx="0.0737995" dy="0.0590396"/>
<feGaussianBlur stdDeviation="0.0265678"/>
<feComposite in2="hardAlpha" operator="out"/>
<feColorMatrix type="matrix" values="0 0 0 0 0 0 0 0 0 0 0 0 0 0 0 0 0 0 0.25 0"/>
<feBlend mode="normal" in2="BackgroundImageFix" result="effect1_dropShadow_1206_12529"/>
<feBlend mode="normal" in="SourceGraphic" in2="effect1_dropShadow_1206_12529" result="shape"/>
</filter>
<radialGradient id="paint0_radial_1206_12529" cx="0" cy="0" r="1" gradientUnits="userSpaceOnUse" gradientTransform="translate(9.9758 9.75192) scale(7.11802 7.11799)">
<stop offset="0.5" stop-color="#FDE030"/>
<stop offset="0.92" stop-color="#F7C02B"/>
<stop offset="1" stop-color="#F4A223"/>
</radialGradient>
<radialGradient id="paint1_radial_1206_12529" cx="0" cy="0" r="1" gradientUnits="userSpaceOnUse" gradientTransform="translate(6.75546 10.5641) scale(3.3016 5.08444)">
<stop offset="0.46" stop-color="#29B6F6"/>
<stop offset="1" stop-color="#1E88E5"/>
</radialGradient>
<linearGradient id="paint2_linear_1206_12529" x1="8.75138" y1="2.2052" x2="7.98966" y2="5.23231" gradientUnits="userSpaceOnUse">
<stop stop-color="#C9C9C9"/>
<stop offset="1" stop-color="#939297"/>
</linearGradient>
</defs>
</svg>
