<svg width="18" height="18" viewBox="0 0 18 18" fill="none" xmlns="http://www.w3.org/2000/svg">
<path d="M9.29838 16.7949C5.78827 16.7949 2.00137 14.5933 2.00137 9.76215C2.00137 4.93105 5.78827 2.72937 9.29838 2.72937C11.2484 2.72937 13.0475 3.371 14.3811 4.54103C15.828 5.8243 16.5954 7.63596 16.5954 9.76215C16.5954 11.8883 15.828 13.6874 14.3811 14.9707C13.0475 16.1407 11.2359 16.7949 9.29838 16.7949Z" fill="url(#paint0_radial_1193_508)"/>
<path d="M15.3258 5.58508C15.9963 6.66705 16.3461 7.95534 16.3461 9.38832C16.3461 11.5145 15.5786 13.3136 14.1318 14.5969C12.7982 15.7669 10.9866 16.4211 9.04907 16.4211C6.77693 16.4211 4.39408 15.4964 2.98752 13.535C4.34124 15.7568 6.88764 16.7985 9.30069 16.7985C11.2382 16.7985 13.0498 16.1443 14.3834 14.9743C15.8303 13.691 16.5977 11.8919 16.5977 9.76575C16.5977 8.16293 16.1611 6.73876 15.3258 5.58508Z" fill="#EB8F00"/>
<path d="M7.46105 9.01444L7.44218 8.98928L7.38808 8.92008L7.3214 8.84837C7.29372 8.81692 7.26101 8.78672 7.22956 8.75401C7.1981 8.7213 7.1591 8.68985 7.12387 8.66343C7.09116 8.63827 7.05594 8.61436 7.01819 8.59549C6.99303 8.58165 6.96535 8.57033 6.93642 8.56404C6.92761 8.56278 6.9188 8.56278 6.91 8.56404C6.91 8.56404 6.90245 8.56404 6.89867 8.56404H6.88861C6.90371 8.56404 6.85464 8.56404 6.92258 8.56404H6.85338C6.83451 8.56404 6.84709 8.56404 6.85338 8.56404H6.86345C6.86345 8.56404 6.87351 8.56404 6.86345 8.56404H6.84961C6.82067 8.57033 6.79299 8.58039 6.76657 8.59549C6.73009 8.61562 6.6936 8.63827 6.66089 8.66343C6.62441 8.69111 6.58918 8.7213 6.55647 8.75401C6.48979 8.81817 6.43066 8.87982 6.39292 8.92889L6.32749 9.00437L6.29856 9.03834C6.11739 9.2409 5.81167 9.27361 5.5915 9.11509C5.45059 9.01695 5.37888 8.84711 5.40656 8.67727C5.40656 8.67727 5.41537 8.62694 5.43927 8.53762C5.47702 8.41055 5.52986 8.28726 5.59654 8.17151C5.70347 7.9828 5.84816 7.81799 6.02177 7.68714C6.13626 7.59908 6.26333 7.52862 6.39921 7.47956C6.43695 7.46446 6.47595 7.45314 6.51495 7.44307C6.55647 7.43049 6.59799 7.42168 6.64076 7.41413L6.71751 7.40281L6.78167 7.39526H6.85087H6.95026H7.01442C7.0572 7.39526 7.09871 7.40659 7.14023 7.41288C7.22075 7.42672 7.30127 7.4481 7.37801 7.47704C7.51389 7.52611 7.64096 7.59656 7.75544 7.68463C7.92906 7.81547 8.07374 7.98028 8.18068 8.16899C8.21968 8.23442 8.25365 8.30361 8.28133 8.37407C8.30524 8.43068 8.32537 8.48729 8.34172 8.54642C8.35053 8.57662 8.35808 8.60681 8.36185 8.63701V8.66846C8.39959 8.92511 8.22094 9.16415 7.96429 9.2019C7.958 9.20315 7.95171 9.20315 7.94542 9.20441C7.76173 9.23083 7.57805 9.15786 7.46105 9.01444Z" fill="#422B0D"/>
<path d="M12.4257 9.01444L12.4056 8.98928L12.3515 8.92008L12.2848 8.84837C12.2572 8.81692 12.2244 8.78672 12.193 8.75401C12.1615 8.7213 12.1225 8.68985 12.0873 8.66343C12.0546 8.63827 12.0194 8.61436 11.9816 8.59549C11.9565 8.58165 11.9288 8.57033 11.8999 8.56404C11.891 8.56278 11.8822 8.56278 11.8734 8.56404C11.8734 8.56404 11.8659 8.56404 11.8621 8.56404H11.852C11.8671 8.56404 11.8181 8.56404 11.886 8.56404H11.8168C11.798 8.56404 11.8105 8.56404 11.8168 8.56404H11.8269C11.8269 8.56404 11.837 8.56404 11.8269 8.56404H11.813C11.7841 8.57033 11.7564 8.58039 11.73 8.59549C11.6935 8.61436 11.6583 8.63827 11.6256 8.66343C11.5878 8.69111 11.5526 8.7213 11.5199 8.75401C11.4532 8.81817 11.3941 8.87982 11.3564 8.92889L11.2909 9.00437L11.2633 9.03834C11.0808 9.2409 10.7764 9.27361 10.5549 9.11509C10.414 9.01695 10.3423 8.84711 10.37 8.67727C10.37 8.67727 10.3788 8.62694 10.404 8.53762C10.4417 8.40929 10.4933 8.286 10.5612 8.17151C10.6682 7.9828 10.8116 7.81799 10.9852 7.68714C11.0997 7.59908 11.2268 7.52862 11.3626 7.47956C11.4004 7.46446 11.4394 7.45314 11.4784 7.44307C11.5199 7.43049 11.5614 7.42168 11.6042 7.41413L11.6822 7.40281L11.7451 7.39526H11.8143H11.9137H11.9779C12.0206 7.39526 12.0622 7.40659 12.1037 7.41288C12.1854 7.42672 12.2647 7.4481 12.3415 7.47704C12.4773 7.52611 12.6044 7.59656 12.7189 7.68463C12.8925 7.81547 13.0372 7.98028 13.1441 8.16899C13.1831 8.23442 13.2171 8.30361 13.2448 8.37407C13.2687 8.42942 13.2888 8.48604 13.3052 8.54391C13.314 8.5741 13.3215 8.6043 13.3253 8.63449V8.66594C13.3655 8.9226 13.1894 9.16289 12.9328 9.20315C12.929 9.20315 12.9252 9.20441 12.9214 9.20441C12.734 9.23586 12.544 9.16289 12.4257 9.01444Z" fill="#422B0D"/>
<path d="M14.1384 10.8637C13.9623 10.5454 13.5798 10.4057 13.2401 10.5341C11.9493 10.9102 10.6107 11.0977 9.26578 11.0914C7.92087 11.0977 6.58224 10.9102 5.29143 10.5341C4.953 10.4057 4.57053 10.5441 4.3944 10.8612C4.2233 11.177 4.34659 11.5431 4.49127 11.8588C5.29898 13.6328 7.0792 14.6946 9.25572 14.7009H9.27585C11.4524 14.7009 13.2326 13.6328 14.0416 11.8588C14.185 11.5405 14.3095 11.1795 14.1384 10.8637Z" fill="#422B0D"/>
<path d="M11.278 14.203C11.2315 14.1602 11.1837 14.1212 11.1359 14.0772C10.6226 13.6255 9.95828 13.3827 9.27387 13.3966C8.56933 13.3852 7.88366 13.6192 7.33387 14.0596C7.28606 14.0986 7.23574 14.1363 7.18919 14.1854C7.14264 14.2345 7.11747 14.2697 7.08728 14.3112C7.77924 14.5817 8.51649 14.7201 9.26003 14.7163H9.28016C9.99225 14.7163 10.698 14.5892 11.3648 14.3389C11.3397 14.2911 11.3107 14.2458 11.278 14.203Z" fill="#ED7770"/>
<path d="M13.2388 10.5346C11.948 10.9108 10.6094 11.0982 9.26449 11.0919C7.91958 11.0982 6.58095 10.9108 5.29014 10.5346C4.95171 10.4063 4.56924 10.5447 4.39311 10.8617C4.36795 10.9095 4.34782 10.9598 4.33524 11.0114C4.37675 11.0328 4.42456 11.0542 4.48118 11.0768C5.99593 11.8355 7.67047 12.2204 9.36388 12.2003C10.9881 12.2192 12.5934 11.8657 14.0604 11.1687C14.1195 11.1435 14.1686 11.1196 14.2126 11.097C14.2026 11.0152 14.1761 10.9347 14.1371 10.8617C13.961 10.5447 13.5785 10.405 13.2388 10.5346Z" fill="white"/>
<path d="M14.1435 10.8649C13.9648 10.5466 13.5811 10.4057 13.2389 10.5341C11.9481 10.9102 10.6094 11.0977 9.26578 11.0914C7.92087 11.0977 6.58224 10.9102 5.29143 10.5341C4.953 10.4057 4.57053 10.5441 4.3944 10.8612C4.2233 11.177 4.34659 11.5431 4.49127 11.8588C4.55544 12.001 4.62715 12.1407 4.70641 12.2753C4.70641 12.2753 4.44221 11.2965 4.67118 11.0121C4.74918 10.8914 4.88003 10.8159 5.02345 10.8083C5.08258 10.8083 5.14046 10.8184 5.19707 10.836C6.51053 11.2222 7.87306 11.4172 9.24314 11.4147H9.28717C10.6572 11.4172 12.0198 11.2222 13.3332 10.836C13.3899 10.8184 13.4477 10.8083 13.5069 10.8083C13.6503 10.8159 13.7824 10.8914 13.8604 11.0121C14.0931 11.2965 13.8252 12.279 13.8252 12.279C13.9032 12.1444 13.9812 12.006 14.0466 11.8626C14.19 11.5468 14.3146 11.182 14.1435 10.8649Z" fill="#EB8F00"/>
<path d="M4.96616 1.31148H5.51921C5.51921 1.31148 7.79088 0.985585 9.32709 0.999975C10.7914 1.01369 12.9446 1.31148 12.9446 1.31148H13.8149C14.701 2.85412 15.3378 4.4383 15.6297 6.06561C12.9446 6.42083 9.3703 7.25675 9.3703 7.25675C9.3703 7.25675 5.98433 6.51386 3.05206 5.87955C3.49756 4.21371 4.04661 2.702 4.96616 1.31148Z" fill="#7F2125"/>
<path d="M4.96616 1.31148H5.51921C5.51921 1.31148 7.79088 0.985585 9.32709 0.999975C10.7914 1.01369 12.9446 1.31148 12.9446 1.31148H13.8149M4.96616 1.31148C4.04661 2.702 3.49756 4.21371 3.05206 5.87955C5.98433 6.51386 9.3703 7.25675 9.3703 7.25675C9.3703 7.25675 12.9446 6.42083 15.6297 6.06561C15.3378 4.4383 14.701 2.85412 13.8149 1.31148M4.96616 1.31148C5.68553 2.13524 6.71039 1.61777 9.32709 2.2517C11.6962 1.63693 12.8369 2.17604 13.8149 1.31148" stroke="#67211F" stroke-width="0.0473218"/>
<path d="M9.37832 7.24593L9.35312 2.2538C11.1343 1.67662 12.4866 2.12723 13.8229 1.33746C14.405 2.28109 15.3677 4.04797 15.6378 6.05003C13.5877 6.30342 10.3277 7.02776 9.37832 7.24593Z" fill="#67211F" stroke="#67211F" stroke-width="0.0296999"/>
<path d="M12.3162 1.79374C12.7206 1.51098 13.0443 1.69365 13.0277 1.28754H13.8259C13.4198 1.74244 12.598 1.72908 12.3162 1.79374Z" fill="#67211F" fill-opacity="0.56"/>
<path d="M6.29236 1.84982C5.88793 1.56418 5.50849 1.71897 5.52513 1.30872L5.00421 1.32617C5.41024 1.78571 6.01054 1.78451 6.29236 1.84982Z" fill="#67211F"/>
<path d="M9.40862 1.35813L9.31779 2.2005L9.48459 2.18836L9.40862 1.35813Z" fill="#67211F" stroke="#67211F" stroke-width="0.0720027"/>
<path d="M7.22279 1.9263C6.93185 1.90627 6.75675 1.88726 6.51626 1.86767C6.28814 3.68053 6.17927 4.92115 6.77624 6.66094C7.16642 6.75167 7.57353 6.80764 7.96379 6.88965C7.12128 5.21158 7.09641 3.61087 7.22279 1.9263Z" fill="#D60000" stroke="#67211F" stroke-width="0.0296999"/>
<path d="M6.74067 1.89357L6.53289 1.87427L6.48857 2.2055L6.74067 1.89357Z" fill="#398F00" stroke="#67211F" stroke-width="0.00600023"/>
<path d="M6.39468 3.1284L7.19284 2.15809L7.20296 1.94L6.74588 1.89231L6.49378 2.20424L6.39468 3.1284Z" fill="#FF7F00" stroke="#67211F" stroke-width="0.00600023"/>
<path d="M6.90906 2.49283C6.90906 2.49283 6.65926 2.18808 6.57122 2.10585L6.48719 2.20982L6.39647 3.12533C6.51972 2.97225 6.90906 2.49283 6.90906 2.49283Z" fill="#D60000" stroke="#67211F" stroke-width="0.00600023"/>
<path d="M7.1412 3.21332C7.14516 2.83676 7.15535 2.60331 7.18316 2.15776L6.39338 3.11941C6.36238 3.50343 6.35399 3.71534 6.34382 4.08764L7.1412 3.21332Z" fill="#007FFF" stroke="#67211F" stroke-width="0.00480018"/>
<path d="M6.94577 3.42623L6.55903 2.91664L6.39097 3.12459C6.36615 3.50355 6.354 3.71384 6.34141 4.09283L6.94577 3.42623Z" fill="#398F00" stroke="#67211F" stroke-width="0.00480018"/>
<path d="M6.98016 4.30977L6.60159 3.81771L6.34978 4.09473C6.35487 4.48748 6.37838 4.66223 6.40071 4.98532L6.98016 4.30977Z" fill="#D60000" stroke="#67211F" stroke-width="0.00480018"/>
<path d="M6.94139 5.29907L6.5629 4.79828L6.40337 4.98012C6.4666 5.38212 6.48237 5.48698 6.54647 5.78426L6.94139 5.29907Z" fill="#007FFF" stroke="#67211F" stroke-width="0.00480018"/>
<path d="M7.02697 6.13102L6.65672 5.63903L6.53906 5.78635C6.62746 6.16238 6.63585 6.15373 6.71665 6.44243L7.02697 6.13102Z" fill="#FF7F00" stroke="#67211F" stroke-width="0.00480018"/>
<path d="M7.22538 6.73586L6.88811 6.27907L6.72041 6.44339C6.74478 6.51342 6.77733 6.60097 6.79361 6.64475L6.79361 6.64475L7.22538 6.73586Z" fill="#007FFF" stroke="#67211F" stroke-width="0.00480018"/>
<path d="M7.18169 4.0728C7.15451 3.77919 7.14483 3.59814 7.14715 3.21727L6.60158 3.81457C6.84851 4.13093 6.79918 4.06068 6.98014 4.30663L7.18169 4.0728Z" fill="#FF7F00" stroke="#67211F" stroke-width="0.00480018"/>
<path d="M7.27583 4.88393C7.24479 4.61312 7.20435 4.47313 7.18263 4.08023L6.56121 4.79904C6.80194 5.13441 6.75414 5.05915 6.93977 5.29102L7.27583 4.88393Z" fill="#398F00" stroke="#67211F" stroke-width="0.00480018"/>
<path d="M7.45525 5.66122C7.38277 5.3726 7.34219 5.25006 7.27035 4.8829L6.65696 5.63668C6.8461 5.90016 6.8461 5.90016 7.03545 6.13747L7.45525 5.66122Z" fill="#D60000" stroke="#67211F" stroke-width="0.00480018"/>
<path d="M7.67205 6.32381C7.48284 6.06905 7.50751 6.10418 7.31013 5.83189L6.88222 6.28189C7.07136 6.54537 7.03845 6.50144 7.21117 6.7386L7.67205 6.32381Z" fill="#398F00" stroke="#67211F" stroke-width="0.00480018"/>
<path d="M7.4585 5.66428L7.31574 5.82882L7.67767 6.32074L7.68599 6.32081L7.4585 5.66428Z" fill="#007FFF" stroke="#67211F" stroke-width="0.00480018"/>
<path d="M7.22192 4.48235L7.18356 4.0893L7.13323 4.14122L7.05766 4.22781L7.22192 4.48235Z" fill="#007FFF" stroke="#67211F" stroke-width="0.00480018"/>
<path d="M7.44103 6.54097L7.6841 6.31623C7.77046 6.54063 7.8237 6.66045 7.92908 6.86819L7.6301 6.81318L7.44103 6.54097Z" fill="#FF7F00" stroke="#67211F" stroke-width="0.00360014"/>
<g filter="url(#filter0_d_1193_508)">
<path d="M8.48553 3.1937L8.62116 2.9725C8.62116 2.9725 8.76853 3.62127 8.66565 4.03629C8.58384 4.3663 8.28224 4.79692 8.28224 4.79692C8.1442 5.16873 8.15303 5.37266 8.22786 5.73336L7.95259 6.07481C7.95259 6.07481 7.86748 5.60202 7.72995 5.37015C7.53042 5.03374 7.20121 5.12522 6.99819 4.82954C6.69759 4.39173 6.85345 3.46743 6.85345 3.46743L7.09736 3.69022C7.09736 3.69022 7.24518 3.46008 7.38964 3.1298C7.44137 3.01153 7.49267 2.8804 7.5366 2.74241C7.60375 2.53146 7.67853 2.19224 7.67853 2.19224L7.81953 2.49668L7.93293 2.33481C7.93293 2.33481 7.94282 2.56815 7.98466 2.69864C8.0807 2.9981 8.191 3.10712 8.48553 3.1937Z" fill="#939297"/>
<path d="M8.48553 3.1937C8.53849 3.10732 8.62116 2.9725 8.62116 2.9725C8.62116 2.9725 8.76853 3.62127 8.66565 4.03629C8.58384 4.3663 8.28224 4.79692 8.28224 4.79692C8.1442 5.16873 8.15303 5.37266 8.22786 5.73336L7.95259 6.07481C7.95259 6.07481 7.86748 5.60202 7.72995 5.37015C7.53042 5.03374 7.20121 5.12522 6.99819 4.82954C6.69759 4.39173 6.85345 3.46743 6.85345 3.46743L7.09736 3.69022M8.48553 3.1937C8.191 3.10712 8.0807 2.9981 7.98466 2.69864C7.94282 2.56815 7.93293 2.33481 7.93293 2.33481L7.81953 2.49668M8.48553 3.1937C8.47745 3.22501 8.24055 3.76496 8.24055 3.76496C8.24055 3.76496 8.0553 3.39075 7.97201 3.13698M7.09736 3.69022C7.2369 3.85953 7.25789 3.97019 7.29744 4.16636L7.47853 3.46436L7.75485 3.89534M7.09736 3.69022C7.09736 3.69022 7.24518 3.46008 7.38964 3.1298C7.44137 3.01153 7.49267 2.8804 7.5366 2.74241C7.60375 2.53146 7.67853 2.19224 7.67853 2.19224L7.81953 2.49668M7.81953 2.49668C7.81953 2.49668 7.89191 2.89298 7.97201 3.13698M7.97201 3.13698L7.80311 2.9572L7.75485 3.89534M7.75485 3.89534L7.72995 4.35892" stroke="#F8F7FC" stroke-width="0.0296999"/>
</g>
<path d="M15.1975 8.47517C14.3797 8.47517 13.7507 7.68257 13.7507 7.00319C13.7507 6.52511 13.9645 5.97155 14.2665 5.20411C14.3042 5.09088 14.3546 4.97765 14.4049 4.85184C14.5345 4.47944 14.6892 4.11711 14.8691 3.7661C14.961 3.60255 15.1673 3.54467 15.3321 3.63652C15.3862 3.66671 15.4315 3.712 15.4617 3.7661C15.6378 4.10075 15.7636 4.45931 15.9524 4.87574C16.4808 6.05836 16.6317 6.53644 16.6317 7.01451C16.6443 7.68257 16.0027 8.47517 15.1975 8.47517Z" fill="url(#paint1_radial_1193_508)"/>
<path d="M16.0811 7.56987C15.8961 7.85546 15.4772 7.80136 15.4772 7.32706C15.4772 7.02386 15.5388 5.46633 15.7992 5.68398C16.2232 6.03877 16.344 7.16602 16.0811 7.56987Z" fill="#81D4FA"/>
<defs>
<filter id="filter0_d_1193_508" x="6.79828" y="2.1463" width="2.02184" height="4.0544" filterUnits="userSpaceOnUse" color-interpolation-filters="sRGB">
<feFlood flood-opacity="0" result="BackgroundImageFix"/>
<feColorMatrix in="SourceAlpha" type="matrix" values="0 0 0 0 0 0 0 0 0 0 0 0 0 0 0 0 0 0 127 0" result="hardAlpha"/>
<feOffset dx="0.0600023" dy="0.0480018"/>
<feGaussianBlur stdDeviation="0.0216008"/>
<feComposite in2="hardAlpha" operator="out"/>
<feColorMatrix type="matrix" values="0 0 0 0 0 0 0 0 0 0 0 0 0 0 0 0 0 0 0.25 0"/>
<feBlend mode="normal" in2="BackgroundImageFix" result="effect1_dropShadow_1193_508"/>
<feBlend mode="normal" in="SourceGraphic" in2="effect1_dropShadow_1193_508" result="shape"/>
</filter>
<radialGradient id="paint0_radial_1193_508" cx="0" cy="0" r="1" gradientUnits="userSpaceOnUse" gradientTransform="translate(9.29838 9.76215) scale(7.16613 7.1661)">
<stop offset="0.5" stop-color="#FDE030"/>
<stop offset="0.92" stop-color="#F7C02B"/>
<stop offset="1" stop-color="#F4A223"/>
</radialGradient>
<radialGradient id="paint1_radial_1193_508" cx="0" cy="0" r="1" gradientUnits="userSpaceOnUse" gradientTransform="translate(15.3007 4.21493) scale(3.2283 4.97156)">
<stop offset="0.46" stop-color="#29B6F6"/>
<stop offset="1" stop-color="#1E88E5"/>
</radialGradient>
</defs>
</svg>
