<svg width="19" height="19" viewBox="0 0 19 19" fill="none" xmlns="http://www.w3.org/2000/svg">
<g clip-path="url(#clip0_1200_7269)">
<path d="M9.95462 16.8333C6.46808 16.8333 2.7066 14.6464 2.7066 9.84774C2.7066 5.04908 6.46808 2.86218 9.95462 2.86218C11.8916 2.86218 13.6786 3.49951 15.0032 4.66168C16.4403 5.93633 17.2026 7.73583 17.2026 9.84774C17.2026 11.9597 16.4403 13.7467 15.0032 15.0213C13.6786 16.1835 11.8791 16.8333 9.95462 16.8333Z" fill="url(#paint0_radial_1200_7269)"/>
<path d="M15.9362 5.69531C16.6023 6.77001 16.9497 8.04966 16.9497 9.47301C16.9497 11.5849 16.1874 13.3719 14.7503 14.6466C13.4256 15.8088 11.6261 16.4586 9.70166 16.4586C7.44477 16.4586 5.07292 15.5401 3.6808 13.5919C5.02543 15.7988 7.55349 16.8335 9.95159 16.8335C11.8761 16.8335 13.6756 16.1837 15.0002 15.0215C16.4373 13.7468 17.1996 11.9598 17.1996 9.84791C17.1996 8.25585 16.766 6.84124 15.9362 5.69531Z" fill="#EB8F00"/>
<path d="M9.95462 16.8333C6.46808 16.8333 2.7066 14.6464 2.7066 9.84774C2.7066 5.04908 6.46808 2.86218 9.95462 2.86218C11.8916 2.86218 13.6786 3.49951 15.0032 4.66168C16.4403 5.93633 17.2026 7.73583 17.2026 9.84774C17.2026 11.9597 16.4403 13.7467 15.0032 15.0213C13.6786 16.1835 11.8791 16.8333 9.95462 16.8333Z" fill="url(#paint1_radial_1200_7269)"/>
<path d="M15.9362 5.69531C16.6023 6.77001 16.9497 8.04966 16.9497 9.47301C16.9497 11.5849 16.1874 13.3719 14.7503 14.6466C13.4256 15.8088 11.6261 16.4586 9.70166 16.4586C7.44477 16.4586 5.07292 15.5401 3.6808 13.5919C5.02543 15.7988 7.55349 16.8335 9.95159 16.8335C11.8761 16.8335 13.6756 16.1837 15.0002 15.0215C16.4373 13.7468 17.1996 11.9598 17.1996 9.84791C17.1996 8.25585 16.766 6.84124 15.9362 5.69531Z" fill="#EB8F00"/>
<path d="M12.2169 6.31965C11.1609 6.60832 10.5848 7.50557 10.7648 8.65275C10.8748 9.36005 11.5833 10.7309 13.4628 10.316C14.5837 10.0686 15.1511 9.25258 15.1298 8.18413C15.1286 8.1179 15.0861 8.07916 15.0736 8.07666C15.0736 8.07666 15.0474 8.10165 15.0049 8.26036C14.7899 9.05888 14.2288 9.80493 13.2254 9.91615C11.9695 10.0561 11.3296 9.18385 11.2322 8.55902C11.1034 7.728 11.5258 7.00071 12.3431 6.77702C12.8267 6.64456 13.2966 6.78202 13.6327 7.15441C13.7902 7.32937 13.9602 7.65303 13.9027 7.97294C13.744 8.84644 12.9329 8.83395 12.6543 8.6265C12.4418 8.46655 12.3668 8.13414 12.8105 8.02542C12.9717 7.98668 13.1104 7.94919 13.1541 7.7355C13.1829 7.59929 13.0704 7.46058 12.9492 7.39935C12.6818 7.26313 12.3431 7.38935 12.1419 7.5643C11.9257 7.75175 11.8357 8.04542 11.8932 8.36908C11.9382 8.62151 12.1432 8.95141 12.4968 9.12762C12.9329 9.34506 14.0826 9.31881 14.3526 8.19163C14.4763 7.67302 14.2501 7.13692 14.0076 6.86075C13.3241 6.08721 12.3893 6.27216 12.2169 6.31965Z" fill="#422B0D"/>
<path d="M7.69165 10.3391C8.74761 10.0504 9.3237 9.15314 9.14375 8.00596C9.03378 7.29866 8.32523 5.92779 6.44574 6.34267C5.3248 6.5901 4.75745 7.40613 4.7787 8.47458C4.77995 8.54081 4.82244 8.57955 4.83493 8.58205C4.83493 8.58205 4.86117 8.55706 4.90366 8.39835C5.1186 7.59982 5.6797 6.85378 6.68318 6.74256C7.93908 6.6026 8.57891 7.47486 8.67638 8.09968C8.80509 8.9307 8.38271 9.658 7.56543 9.88169C7.08182 10.0142 6.61195 9.87669 6.27579 9.50429C6.11833 9.32934 5.94838 9.00568 6.00586 8.68577C6.16457 7.81226 6.9756 7.82476 7.25427 8.0322C7.46671 8.19216 7.54169 8.52457 7.09806 8.63329C6.93686 8.67203 6.79814 8.70952 6.75441 8.92321C6.72566 9.05942 6.83813 9.19813 6.95935 9.25936C7.22678 9.39558 7.56543 9.26936 7.76663 9.09441C7.98282 8.90696 8.0728 8.61329 8.01531 8.28963C7.97032 8.0372 7.76538 7.70729 7.41173 7.53109C6.9756 7.31365 5.82591 7.3399 5.55598 8.46708C5.43227 8.98569 5.65846 9.52179 5.90089 9.79796C6.58445 10.5702 7.5192 10.3865 7.69165 10.3391Z" fill="#422B0D"/>
<path d="M14.3857 12.891C14.1995 12.676 13.6297 12.2899 12.5949 12.796C12.365 12.9085 12.2438 13.0359 11.8277 13.0059C11.554 12.9872 11.349 12.8547 11.1141 12.7035C10.8154 12.5111 10.4768 12.2961 9.95192 12.2749C9.42706 12.2961 9.0884 12.5111 8.78973 12.7035C8.55355 12.856 8.34985 12.9872 8.07618 13.0059C7.66004 13.0359 7.52758 12.9285 7.29764 12.816C6.26292 12.3099 5.70433 12.676 5.51813 12.891C5.35192 13.0834 5.46439 13.2884 5.77056 13.0697C5.95926 12.9347 6.29792 12.7635 7.06396 13.1959C7.31014 13.3346 7.54257 13.5445 8.11117 13.5046C8.51356 13.4758 8.79223 13.2971 9.06091 13.1234C9.32334 12.9535 9.57452 12.7948 9.95192 12.7748C10.3306 12.7948 10.5805 12.9535 10.8429 13.1234C11.1116 13.2971 11.3903 13.4771 11.7927 13.5046C12.3613 13.5445 12.5824 13.3146 12.8286 13.1759C13.5947 12.7435 13.9446 12.9347 14.1333 13.0697C14.4382 13.2884 14.5519 13.0834 14.3857 12.891Z" fill="#422B0D"/>
<path d="M6.03387 1.28273H6.5279C6.5279 1.28273 8.55715 1.00714 9.92942 1.01931C11.2375 1.03091 13.1609 1.28273 13.1609 1.28273H13.9383C14.7298 2.58727 15.2987 3.92692 15.5595 5.30306C13.0025 4.57698 9.92942 6.11164 9.92942 6.11164C9.92942 6.11164 6.81022 4.60376 4.32404 5.14571C4.72199 3.737 5.21246 2.45863 6.03387 1.28273Z" fill="#7F2125"/>
<path d="M6.03387 1.28273H6.5279C6.5279 1.28273 8.55715 1.00714 9.92942 1.01931C11.2375 1.03091 13.1609 1.28273 13.1609 1.28273H13.9383M6.03387 1.28273C5.21246 2.45863 4.72199 3.737 4.32404 5.14571C6.81022 4.60376 9.92942 6.11164 9.92942 6.11164C9.92942 6.11164 13.0025 4.57698 15.5595 5.30306C15.2987 3.92692 14.7298 2.58727 13.9383 1.28273M6.03387 1.28273C6.67647 1.97935 7.59197 1.54175 9.92942 2.07783C12.0457 1.55795 13.0647 2.01385 13.9383 1.28273" stroke="#67211F" stroke-width="0.0582032"/>
<path d="M9.94564 6.08886L9.95314 2.08129C11.5443 1.59321 12.7523 1.97426 13.946 1.3064C14.4659 2.10437 15.3259 3.59853 15.5671 5.29157C13.5007 4.76047 11.3158 5.46157 9.94564 6.08886Z" fill="#67211F" stroke="#67211F" stroke-width="0.0365292"/>
<path d="M7.21454 1.73444C6.85327 1.49289 6.51433 1.62379 6.52919 1.27686L6.06386 1.29162C6.42656 1.68023 6.96279 1.67921 7.21454 1.73444Z" fill="#67211F"/>
<path d="M12.5959 1.69015C12.9571 1.45104 13.2463 1.60551 13.2314 1.26208H13.9444C13.5817 1.64677 12.8476 1.63548 12.5959 1.69015Z" fill="#67211F" fill-opacity="0.56"/>
<path d="M9.99759 1.3209L9.91644 2.03325L10.0655 2.02299L9.99759 1.3209Z" fill="#67211F" stroke="#67211F" stroke-width="0.0885594"/>
<path d="M8.04887 1.8157C7.78621 1.80104 7.62806 1.78639 7.41092 1.77173C7.27584 3.32152 7.22399 3.70528 7.50544 5.2403C7.88715 5.34006 8.1758 5.43418 8.50531 5.5355C7.73263 4.13257 7.94735 3.23131 8.04887 1.8157Z" fill="#D60000" stroke="#67211F" stroke-width="0.0365292"/>
<path d="M7.62265 1.79393L7.43227 1.77905L7.39419 2.06163L7.62265 1.79393Z" fill="#398F00" stroke="#67211F" stroke-width="0.00737995"/>
<path d="M7.31034 2.83449L8.02334 2.01368L8.03085 1.83047L7.61806 1.79382L7.3929 2.05765L7.31034 2.83449Z" fill="#FF7F00" stroke="#67211F" stroke-width="0.00737995"/>
<path d="M7.77499 2.29206C7.77499 2.29206 7.54733 2.038 7.46727 1.9696L7.39222 2.05755L7.31717 2.82705C7.42725 2.69758 7.77499 2.29206 7.77499 2.29206Z" fill="#D60000" stroke="#67211F" stroke-width="0.00737995"/>
<path d="M7.99409 2.9003C7.99486 2.58404 8.00233 2.38792 8.02412 2.01355L7.31862 2.82702C7.29349 3.14974 7.2875 3.32776 7.28109 3.64048L7.99409 2.9003Z" fill="#007FFF" stroke="#67211F" stroke-width="0.00590396"/>
<path d="M7.82147 3.07631L7.46872 2.65125L7.31862 2.82713C7.29904 3.14556 7.28964 3.32225 7.28109 3.64061L7.82147 3.07631Z" fill="#398F00" stroke="#67211F" stroke-width="0.00590396"/>
<path d="M7.85149 3.81629L7.50625 3.40588L7.28109 3.6404C7.2886 3.97019 7.31111 4.11676 7.33365 4.38792L7.85149 3.81629Z" fill="#D60000" stroke="#67211F" stroke-width="0.00590396"/>
<path d="M7.82158 4.65174L7.47634 4.23401L7.33374 4.38791C7.39378 4.72503 7.40879 4.81297 7.46884 5.06214L7.82158 4.65174Z" fill="#007FFF" stroke="#67211F" stroke-width="0.00590396"/>
<path d="M7.91715 5.3499L7.57777 4.9375L7.47218 5.06269L7.51985 5.22681L7.91715 5.3499Z" fill="#FF7F00" stroke="#67211F" stroke-width="0.00590396"/>
<path d="M8.0307 3.61835C8.004 3.37199 7.99392 3.22001 7.99318 2.90015L7.50533 3.40582C7.73049 3.66965 7.68546 3.61102 7.85058 3.81622L8.0307 3.61835Z" fill="#FF7F00" stroke="#67211F" stroke-width="0.00590396"/>
<path d="M8.12349 4.29997C8.09347 4.07278 8.05594 3.95552 8.03343 3.62573L7.47803 4.23401C7.69775 4.51385 7.65406 4.451 7.82328 4.64434L8.12349 4.29997Z" fill="#398F00" stroke="#67211F" stroke-width="0.00590396"/>
<path d="M8.29409 4.95242C8.22654 4.71057 8.18901 4.60797 8.12146 4.30017L7.57358 4.93776C7.7462 5.15762 7.7462 5.15762 7.91882 5.35549L8.29409 4.95242Z" fill="#D60000" stroke="#67211F" stroke-width="0.00590396"/>
<path d="M8.51083 5.52284C8.33737 5.30927 8.34826 5.31985 8.16726 5.09155L7.90799 5.34485C8.22615 5.42828 8.22058 5.42643 8.22058 5.42643L8.51083 5.52284Z" fill="#398F00" stroke="#67211F" stroke-width="0.00590396"/>
<path d="M8.29456 4.95239L8.16635 5.09232L8.49819 5.50472H8.50574L8.29456 4.95239Z" fill="#007FFF" stroke="#67211F" stroke-width="0.00590396"/>
<path d="M8.07053 3.9647L8.03282 3.6333L7.98757 3.67749L7.91969 3.75113L8.07053 3.9647Z" fill="#007FFF" stroke="#67211F" stroke-width="0.00590396"/>
<g filter="url(#filter0_d_1200_7269)">
<path d="M9.02335 2.71962L9.14451 2.53256C9.14451 2.53256 9.27615 3.08119 9.18425 3.43215C9.11117 3.71122 8.84176 4.07538 8.84176 4.07538C8.71844 4.3898 8.72633 4.56225 8.79318 4.86727L8.54728 5.15602C8.54728 5.15602 8.47125 4.75621 8.34841 4.56013C8.17017 4.27564 7.87609 4.35301 7.69473 4.10296C7.42621 3.73273 7.56544 2.95109 7.56544 2.95109L7.78332 3.1395C7.78332 3.1395 7.91536 2.94488 8.04441 2.66558C8.09062 2.56556 8.13645 2.45468 8.17569 2.33798C8.23567 2.1596 8.30247 1.87274 8.30247 1.87274L8.42843 2.13018L8.52972 1.9933C8.52972 1.9933 8.53855 2.19062 8.57593 2.30097C8.66172 2.55421 8.76025 2.6464 9.02335 2.71962Z" fill="url(#paint2_linear_1200_7269)"/>
<path d="M9.02335 2.71962C9.07066 2.64657 9.14451 2.53256 9.14451 2.53256C9.14451 2.53256 9.27615 3.08119 9.18425 3.43215C9.11117 3.71122 8.84176 4.07538 8.84176 4.07538C8.71844 4.3898 8.72633 4.56225 8.79318 4.86727L8.54728 5.15602C8.54728 5.15602 8.47125 4.75621 8.34841 4.56013C8.17017 4.27564 7.87609 4.35301 7.69473 4.10296C7.42621 3.73273 7.56544 2.95109 7.56544 2.95109L7.78332 3.1395M9.02335 2.71962C8.76025 2.6464 8.66172 2.55421 8.57593 2.30097C8.53855 2.19062 8.52972 1.9933 8.52972 1.9933L8.42843 2.13018M9.02335 2.71962C9.01613 2.74609 8.80452 3.2027 8.80452 3.2027C8.80452 3.2027 8.63904 2.88625 8.56463 2.67165M7.78332 3.1395C7.90797 3.28268 7.92672 3.37625 7.96205 3.54215L8.12382 2.9485L8.37064 3.31295L8.41376 2.51962L8.56463 2.67165M7.78332 3.1395C7.78332 3.1395 7.91536 2.94488 8.04441 2.66558C8.09062 2.56556 8.13645 2.45468 8.17569 2.33798C8.23567 2.1596 8.30247 1.87274 8.30247 1.87274L8.42843 2.13018M8.42843 2.13018C8.42843 2.13018 8.49308 2.46531 8.56463 2.67165" stroke="#F8F7FC" stroke-width="0.0365292"/>
</g>
</g>
<defs>
<filter id="filter0_d_1200_7269" x="7.51105" y="1.81848" width="1.85102" height="3.49059" filterUnits="userSpaceOnUse" color-interpolation-filters="sRGB">
<feFlood flood-opacity="0" result="BackgroundImageFix"/>
<feColorMatrix in="SourceAlpha" type="matrix" values="0 0 0 0 0 0 0 0 0 0 0 0 0 0 0 0 0 0 127 0" result="hardAlpha"/>
<feOffset dx="0.0737995" dy="0.0590396"/>
<feGaussianBlur stdDeviation="0.0265678"/>
<feComposite in2="hardAlpha" operator="out"/>
<feColorMatrix type="matrix" values="0 0 0 0 0 0 0 0 0 0 0 0 0 0 0 0 0 0 0.25 0"/>
<feBlend mode="normal" in2="BackgroundImageFix" result="effect1_dropShadow_1200_7269"/>
<feBlend mode="normal" in="SourceGraphic" in2="effect1_dropShadow_1200_7269" result="shape"/>
</filter>
<radialGradient id="paint0_radial_1200_7269" cx="0" cy="0" r="1" gradientUnits="userSpaceOnUse" gradientTransform="translate(9.95462 9.84773) scale(7.11802 7.11799)">
<stop offset="0.5" stop-color="#FDE030"/>
<stop offset="0.9188" stop-color="#F7C02B"/>
<stop offset="1" stop-color="#F4A223"/>
</radialGradient>
<radialGradient id="paint1_radial_1200_7269" cx="0" cy="0" r="1" gradientUnits="userSpaceOnUse" gradientTransform="translate(9.95462 9.84773) scale(7.11802 7.11799)">
<stop offset="0.5" stop-color="#FDE030"/>
<stop offset="0.9188" stop-color="#F7C02B"/>
<stop offset="1" stop-color="#F4A223"/>
</radialGradient>
<linearGradient id="paint2_linear_1200_7269" x1="8.70533" y1="1.97888" x2="7.91232" y2="4.98873" gradientUnits="userSpaceOnUse">
<stop stop-color="#C9C9C9"/>
<stop offset="1" stop-color="#939297"/>
</linearGradient>
<clipPath id="clip0_1200_7269">
<rect width="17.996" height="17.996" fill="white" transform="translate(0.95639 0.988037)"/>
</clipPath>
</defs>
</svg>
