<svg width="19" height="18" viewBox="0 0 19 18" fill="none" xmlns="http://www.w3.org/2000/svg">
<path d="M9.94232 16.9035C6.45578 16.9035 2.69431 14.7166 2.69431 9.91793C2.69431 5.11927 6.45578 2.93237 9.94232 2.93237C11.8793 2.93237 13.6663 3.5697 14.9909 4.73187C16.428 6.00652 17.1903 7.80602 17.1903 9.91793C17.1903 12.0298 16.428 13.8168 14.9909 15.0915C13.6663 16.2537 11.8668 16.9035 9.94232 16.9035Z" fill="url(#paint0_radial_1206_10451)"/>
<path d="M7.36936 8.01782C8.56654 8.02157 9.53502 8.99505 9.53127 10.1922C9.52752 11.3894 8.55404 12.3579 7.35687 12.3541C6.15969 12.3504 5.19121 11.3769 5.19496 10.1797C5.20246 8.9838 6.17344 8.01907 7.36936 8.01782Z" fill="white"/>
<path d="M7.33197 11.8279C8.39483 11.8279 9.25645 10.9663 9.25645 9.90347C9.25645 8.84062 8.39483 7.979 7.33197 7.979C6.26912 7.979 5.4075 8.84062 5.4075 9.90347C5.4075 10.9663 6.26912 11.8279 7.33197 11.8279Z" fill="#422B0D"/>
<path d="M8.20248 10.8619C8.33991 10.7465 8.365 10.5501 8.25851 10.4233C8.15202 10.2964 7.95428 10.2871 7.81684 10.4024C7.67941 10.5178 7.65432 10.7142 7.76081 10.841C7.8673 10.9679 8.06504 10.9772 8.20248 10.8619Z" fill="white"/>
<path d="M7.37476 10.0382C7.87304 9.66726 8.03311 9.03896 7.73228 8.6348C7.43145 8.23063 6.78363 8.20366 6.28535 8.57454C5.78706 8.94543 5.62699 9.57373 5.92782 9.9779C6.22865 10.3821 6.87647 10.409 7.37476 10.0382Z" fill="white"/>
<path d="M12.7423 8.0177C13.9395 8.02145 14.908 8.99493 14.9043 10.1921C14.9005 11.3893 13.927 12.3577 12.7299 12.354C11.5327 12.3502 10.5642 11.3768 10.5679 10.1796C10.5754 8.98368 11.5464 8.01895 12.7423 8.0177Z" fill="white"/>
<path d="M12.705 11.8279C13.7678 11.8279 14.6294 10.9663 14.6294 9.90347C14.6294 8.84062 13.7678 7.979 12.705 7.979C11.6421 7.979 10.7805 8.84062 10.7805 9.90347C10.7805 10.9663 11.6421 11.8279 12.705 11.8279Z" fill="#422B0D"/>
<path d="M13.5862 10.8545C13.7236 10.7392 13.7487 10.5428 13.6422 10.4159C13.5357 10.2891 13.338 10.2798 13.2006 10.3951C13.0631 10.5105 13.038 10.7068 13.1445 10.8337C13.251 10.9606 13.4488 10.9699 13.5862 10.8545Z" fill="white"/>
<path d="M12.7507 10.0382C13.249 9.66726 13.409 9.03896 13.1082 8.6348C12.8074 8.23063 12.1595 8.20366 11.6613 8.57454C11.163 8.94543 11.0029 9.57373 11.3037 9.9779C11.6046 10.3821 12.2524 10.409 12.7507 10.0382Z" fill="white"/>
<path d="M14.7839 10.6154C14.514 10.5704 14.2403 10.6753 14.0703 10.8915C13.9491 11.0502 13.7592 11.1402 13.5592 11.1352H13.5255C13.388 11.1352 13.2518 11.1727 13.1343 11.2439C12.9494 11.3564 12.7157 11.3564 12.5308 11.2439C12.4133 11.1727 12.2771 11.1352 12.1396 11.1352C12.1096 11.1327 12.0809 11.1327 12.0509 11.1352C11.8372 11.1665 11.6235 11.0815 11.491 10.9115C11.3486 10.7178 11.1224 10.6041 10.8812 10.6054C10.4676 10.6154 10.1364 10.9503 10.1314 11.3639C10.1352 11.7763 10.4688 12.1099 10.8812 12.1137C10.9162 12.1137 10.9524 12.1112 10.9874 12.1062C11.1936 12.0725 11.4011 12.1562 11.526 12.3236C11.7572 12.6548 12.2083 12.7435 12.547 12.5248C12.7232 12.4136 12.9469 12.4136 13.1231 12.5248C13.4518 12.7348 13.8854 12.6585 14.1228 12.3499C14.2365 12.1937 14.4202 12.1049 14.6139 12.1124H14.6614C15.0788 12.1062 15.4125 11.7625 15.4062 11.3452C15.4012 10.984 15.1413 10.6778 14.7864 10.6129L14.7839 10.6154Z" fill="#29B6F6"/>
<path d="M9.47983 10.6136C9.20991 10.5687 8.93623 10.6749 8.76753 10.8898C8.64506 11.0485 8.45511 11.1385 8.25517 11.1335H8.22268C8.08522 11.1322 7.949 11.1697 7.83154 11.2422C7.64534 11.3547 7.4129 11.3547 7.2267 11.2422C7.10923 11.1697 6.97302 11.1322 6.83556 11.1335C6.80682 11.1322 6.77682 11.1322 6.74808 11.1335C6.53189 11.166 6.31445 11.0785 6.18199 10.9048C6.03953 10.7111 5.81334 10.5974 5.5734 10.5986C5.15977 10.6086 4.82861 10.9435 4.82361 11.3572C4.82361 11.7708 5.15977 12.107 5.5734 12.107C5.5759 12.107 5.57715 12.107 5.57965 12.107C5.61464 12.107 5.64963 12.1045 5.68462 12.0995C5.89082 12.0657 6.09951 12.1495 6.22448 12.3169C6.45191 12.6493 6.90179 12.7418 7.24295 12.5269C7.4179 12.4156 7.64284 12.4156 7.81779 12.5269C8.14645 12.7368 8.58008 12.6606 8.81752 12.3519C8.92999 12.1957 9.11493 12.107 9.30738 12.1145H9.35612C9.76976 12.1495 10.1334 11.8408 10.1684 11.4272C10.2034 11.0135 9.89472 10.6499 9.47983 10.6136Z" fill="#29B6F6"/>
<path d="M5.41998 7.03117C5.14506 7.08116 5.13256 7.48105 5.43248 7.49354C6.0948 7.50229 6.73462 7.25611 7.21949 6.80623C7.40444 6.64628 7.56065 6.45633 7.68186 6.24389C7.75434 6.14017 7.72935 5.99771 7.62563 5.92523C7.52191 5.85275 7.37944 5.87774 7.30696 5.98146L7.29447 5.99396C6.8046 6.54131 6.14353 6.90746 5.41998 7.03117Z" fill="#422B0D"/>
<path d="M12.5539 5.98146C12.4814 5.87774 12.339 5.85275 12.2352 5.92523C12.1315 5.99771 12.1065 6.14017 12.179 6.24389C12.3002 6.45633 12.4564 6.64628 12.6414 6.80623C13.1288 7.25236 13.7673 7.49854 14.4284 7.49354C14.7408 7.48105 14.7158 7.08116 14.4409 7.03117C13.7086 6.91121 13.0425 6.54006 12.5539 5.98146Z" fill="#422B0D"/>
<path d="M15.9276 5.76526C16.5936 6.83996 16.9411 8.11961 16.9411 9.54296C16.9411 11.6549 16.1788 13.4419 14.7417 14.7165C13.417 15.8787 11.6175 16.5285 9.69303 16.5285C7.43615 16.5285 5.0693 15.61 3.67218 13.6618C5.01681 15.8687 7.54612 16.9034 9.94297 16.9034C11.8674 16.9034 13.6669 16.2536 14.9916 15.0914C16.4287 13.8168 17.191 12.0298 17.191 9.91786C17.191 8.3258 16.7574 6.91119 15.9276 5.76526Z" fill="#EB8F00"/>
<path d="M9.99192 14.9536C11.3415 14.9536 12.2163 13.9664 12.4537 13.504C12.5412 13.329 12.5412 13.1791 12.4662 13.1166C12.3863 13.0666 12.2838 13.0666 12.2038 13.1166C12.1638 13.1328 12.1263 13.1541 12.0913 13.1791C11.479 13.619 10.7455 13.8589 9.99192 13.8664C9.24087 13.8564 8.50857 13.6215 7.89249 13.1916C7.8575 13.1666 7.82001 13.1453 7.78002 13.1291C7.70004 13.0791 7.59757 13.0791 7.51759 13.1291C7.44261 13.2041 7.44261 13.3415 7.53009 13.5165C7.76752 13.9664 8.64228 14.9536 9.99192 14.9536Z" fill="#422B0D"/>
<path d="M6.07577 1.3218H6.56867C6.56867 1.3218 8.59328 1.04621 9.96241 1.05837C11.2675 1.06997 13.1865 1.3218 13.1865 1.3218H13.9622C14.7519 2.62633 15.3194 3.96599 15.5796 5.34212C13.0284 4.61604 9.96241 6.15071 9.96241 6.15071C9.96241 6.15071 6.85034 4.64282 4.36984 5.18478C4.76689 3.77607 5.25623 2.49769 6.07577 1.3218Z" fill="#7F2125"/>
<path d="M6.07577 1.3218H6.56867C6.56867 1.3218 8.59328 1.04621 9.96241 1.05837C11.2675 1.06997 13.1865 1.3218 13.1865 1.3218H13.9622M6.07577 1.3218C5.25623 2.49769 4.76689 3.77607 4.36984 5.18478C6.85034 4.64282 9.96241 6.15071 9.96241 6.15071C9.96241 6.15071 13.0284 4.61604 15.5796 5.34212C15.3194 3.96599 14.7519 2.62633 13.9622 1.3218M6.07577 1.3218C6.7169 2.01841 7.6303 1.58081 9.96241 2.11689C12.0739 1.59701 13.0905 2.05292 13.9622 1.3218" stroke="#67211F" stroke-width="0.0582032"/>
<path d="M9.97876 6.12854L9.98625 2.12096C11.5737 1.63288 12.779 2.01394 13.9699 1.34607C14.4887 2.14405 15.3467 3.6382 15.5874 5.33124C13.5257 4.80015 11.3458 5.50124 9.97876 6.12854Z" fill="#67211F" stroke="#67211F" stroke-width="0.0365292"/>
<path d="M7.25401 1.77375C6.89357 1.53219 6.5554 1.66309 6.57022 1.31616L6.10596 1.33092C6.46783 1.71953 7.00284 1.71852 7.25401 1.77375Z" fill="#67211F"/>
<path d="M12.6206 1.72958C12.981 1.49047 13.2695 1.64494 13.2547 1.30151H13.9661C13.6042 1.6862 12.8717 1.67491 12.6206 1.72958Z" fill="#67211F" fill-opacity="0.56"/>
<path d="M10.0327 1.36058L9.95171 2.07292L10.1004 2.06266L10.0327 1.36058Z" fill="#67211F" stroke="#67211F" stroke-width="0.0885594"/>
<path d="M8.0891 1.85501C7.82704 1.84035 7.66926 1.82569 7.45261 1.81104C7.31784 3.36082 7.26611 3.74458 7.54691 5.27961C7.92775 5.37937 8.21574 5.47349 8.5445 5.57481C7.77358 4.17188 7.98781 3.27061 8.0891 1.85501Z" fill="#D60000" stroke="#67211F" stroke-width="0.0365292"/>
<path d="M7.65928 1.83311L7.46933 1.81824L7.43134 2.10081L7.65928 1.83311Z" fill="#398F00" stroke="#67211F" stroke-width="0.00737995"/>
<path d="M7.35031 2.87428L8.06169 2.05348L8.06917 1.87026L7.65733 1.83362L7.43268 2.09745L7.35031 2.87428Z" fill="#FF7F00" stroke="#67211F" stroke-width="0.00737995"/>
<path d="M7.81197 2.33149C7.81197 2.33149 7.58483 2.07743 7.50496 2.00903L7.43008 2.09698L7.35519 2.86648C7.46502 2.73701 7.81197 2.33149 7.81197 2.33149Z" fill="#D60000" stroke="#67211F" stroke-width="0.00737995"/>
<path d="M8.03245 2.93973C8.03322 2.62347 8.04066 2.42735 8.0624 2.05298L7.35852 2.86644C7.33345 3.18916 7.32747 3.36719 7.32108 3.67991L8.03245 2.93973Z" fill="#007FFF" stroke="#67211F" stroke-width="0.00590396"/>
<path d="M7.86022 3.11561L7.50828 2.69055L7.35852 2.86644C7.33898 3.18487 7.32961 3.36155 7.32108 3.67992L7.86022 3.11561Z" fill="#398F00" stroke="#67211F" stroke-width="0.00590396"/>
<path d="M7.89017 3.85572L7.54572 3.44531L7.32108 3.67983C7.32856 4.00962 7.35103 4.15619 7.37352 4.42735L7.89017 3.85572Z" fill="#D60000" stroke="#67211F" stroke-width="0.00590396"/>
<path d="M7.85654 4.69117L7.51209 4.27344L7.36981 4.42734C7.42972 4.76446 7.44469 4.8524 7.5046 5.10157L7.85654 4.69117Z" fill="#007FFF" stroke="#67211F" stroke-width="0.00590396"/>
<path d="M7.95219 5.38945L7.61358 4.97705L7.50824 5.10224L7.5558 5.26636L7.95219 5.38945Z" fill="#FF7F00" stroke="#67211F" stroke-width="0.00590396"/>
<path d="M8.06946 3.65778C8.04281 3.41142 8.03276 3.25944 8.03202 2.93958L7.54529 3.44525C7.76993 3.70908 7.725 3.65045 7.88974 3.85565L8.06946 3.65778Z" fill="#FF7F00" stroke="#67211F" stroke-width="0.00590396"/>
<path d="M8.15906 4.33939C8.1291 4.11221 8.09166 3.99495 8.0692 3.66516L7.51508 4.27344C7.73429 4.55328 7.6907 4.49043 7.85953 4.68377L8.15906 4.33939Z" fill="#398F00" stroke="#67211F" stroke-width="0.00590396"/>
<path d="M8.33144 4.99173C8.26405 4.74988 8.22661 4.64728 8.15921 4.33948L7.61258 4.97707C7.78481 5.19693 7.78481 5.19693 7.95703 5.3948L8.33144 4.99173Z" fill="#D60000" stroke="#67211F" stroke-width="0.00590396"/>
<path d="M8.54553 5.56263C8.37246 5.34906 8.38333 5.35964 8.20274 5.13135L7.94406 5.38465C8.26149 5.46807 8.25593 5.46622 8.25593 5.46622L8.54553 5.56263Z" fill="#398F00" stroke="#67211F" stroke-width="0.00590396"/>
<path d="M8.3323 4.9917L8.20438 5.13162L8.53546 5.54403H8.54299L8.3323 4.9917Z" fill="#007FFF" stroke="#67211F" stroke-width="0.00590396"/>
<path d="M8.10624 4.00388L8.06862 3.67249L8.02347 3.71667L7.95575 3.79031L8.10624 4.00388Z" fill="#007FFF" stroke="#67211F" stroke-width="0.00590396"/>
<g filter="url(#filter0_d_1206_10451)">
<path d="M9.05896 2.75905L9.17985 2.57199C9.17985 2.57199 9.31119 3.12062 9.21949 3.47158C9.14659 3.75065 8.87779 4.11481 8.87779 4.11481C8.75476 4.42923 8.76263 4.60168 8.82932 4.9067L8.58398 5.19545C8.58398 5.19545 8.50813 4.79564 8.38556 4.59956C8.20774 4.31507 7.91433 4.39244 7.73338 4.14239C7.46548 3.77216 7.60439 2.99052 7.60439 2.99052L7.82177 3.17892C7.82177 3.17892 7.95351 2.98431 8.08226 2.70501C8.12837 2.60499 8.17409 2.49411 8.21324 2.37741C8.27309 2.19903 8.33973 1.91217 8.33973 1.91217L8.4654 2.16961L8.56647 2.03272C8.56647 2.03272 8.57528 2.23005 8.61257 2.3404C8.69817 2.59364 8.79647 2.68583 9.05896 2.75905Z" fill="url(#paint1_linear_1206_10451)"/>
<path d="M9.05896 2.75905C9.10617 2.686 9.17985 2.57199 9.17985 2.57199C9.17985 2.57199 9.31119 3.12062 9.21949 3.47158C9.14659 3.75065 8.87779 4.11481 8.87779 4.11481C8.75476 4.42923 8.76263 4.60168 8.82932 4.9067L8.58398 5.19545C8.58398 5.19545 8.50813 4.79564 8.38556 4.59956C8.20774 4.31507 7.91433 4.39244 7.73338 4.14239C7.46548 3.77216 7.60439 2.99052 7.60439 2.99052L7.82177 3.17892M9.05896 2.75905C8.79647 2.68583 8.69817 2.59364 8.61257 2.3404C8.57528 2.23005 8.56647 2.03272 8.56647 2.03272L8.4654 2.16961M9.05896 2.75905C9.05177 2.78552 8.84063 3.24213 8.84063 3.24213C8.84063 3.24213 8.67553 2.92568 8.60129 2.71108M7.82177 3.17892C7.94613 3.32211 7.96485 3.41568 8.00009 3.58158L8.16149 2.98793L8.40775 3.35238L8.45077 2.55905L8.60129 2.71108M7.82177 3.17892C7.82177 3.17892 7.95351 2.98431 8.08226 2.70501C8.12837 2.60499 8.17409 2.49411 8.21324 2.37741C8.27309 2.19903 8.33973 1.91217 8.33973 1.91217L8.4654 2.16961M8.4654 2.16961C8.4654 2.16961 8.52991 2.50474 8.60129 2.71108" stroke="#F8F7FC" stroke-width="0.0365292"/>
</g>
<defs>
<filter id="filter0_d_1206_10451" x="7.55008" y="1.85779" width="1.84718" height="3.49072" filterUnits="userSpaceOnUse" color-interpolation-filters="sRGB">
<feFlood flood-opacity="0" result="BackgroundImageFix"/>
<feColorMatrix in="SourceAlpha" type="matrix" values="0 0 0 0 0 0 0 0 0 0 0 0 0 0 0 0 0 0 127 0" result="hardAlpha"/>
<feOffset dx="0.0737995" dy="0.0590396"/>
<feGaussianBlur stdDeviation="0.0265678"/>
<feComposite in2="hardAlpha" operator="out"/>
<feColorMatrix type="matrix" values="0 0 0 0 0 0 0 0 0 0 0 0 0 0 0 0 0 0 0.25 0"/>
<feBlend mode="normal" in2="BackgroundImageFix" result="effect1_dropShadow_1206_10451"/>
<feBlend mode="normal" in="SourceGraphic" in2="effect1_dropShadow_1206_10451" result="shape"/>
</filter>
<radialGradient id="paint0_radial_1206_10451" cx="0" cy="0" r="1" gradientUnits="userSpaceOnUse" gradientTransform="translate(9.94232 9.91798) scale(7.11802 7.11799)">
<stop offset="0.5" stop-color="#FDE030"/>
<stop offset="0.92" stop-color="#F7C02B"/>
<stop offset="1" stop-color="#F4A223"/>
</radialGradient>
<linearGradient id="paint1_linear_1206_10451" x1="8.74168" y1="2.01831" x2="7.94708" y2="5.02726" gradientUnits="userSpaceOnUse">
<stop stop-color="#C9C9C9"/>
<stop offset="1" stop-color="#939297"/>
</linearGradient>
</defs>
</svg>
