<svg width="19" height="19" viewBox="0 0 19 19" fill="none" xmlns="http://www.w3.org/2000/svg">
<g clip-path="url(#clip0_1200_7504)">
<path d="M10.0291 17.9258C6.54254 17.9258 2.78107 15.7389 2.78107 10.9403C2.78107 6.1416 6.54254 3.95471 10.0291 3.95471C11.9661 3.95471 13.7531 4.59203 15.0777 5.75421C16.5148 7.02886 17.2771 8.82836 17.2771 10.9403C17.2771 13.0522 16.5148 14.8392 15.0777 16.1138C13.7531 17.276 11.9536 17.9258 10.0291 17.9258Z" fill="url(#paint0_radial_1200_7504)"/>
<path d="M10.0291 17.9258C6.54254 17.9258 2.78107 15.7389 2.78107 10.9403C2.78107 6.1416 6.54254 3.95471 10.0291 3.95471C11.9661 3.95471 13.7531 4.59203 15.0777 5.75421C16.5148 7.02886 17.2771 8.82836 17.2771 10.9403C17.2771 13.0522 16.5148 14.8392 15.0777 16.1138C13.7531 17.276 11.9536 17.9258 10.0291 17.9258Z" fill="url(#paint1_linear_1200_7504)"/>
<path d="M16.0135 6.7876C16.6796 7.8623 17.027 9.14194 17.027 10.5653C17.027 12.6772 16.2647 14.4642 14.8276 15.7389C13.5029 16.901 11.7034 17.5509 9.77894 17.5509C7.52206 17.5509 5.15521 16.6324 3.75809 14.6842C5.10272 16.891 7.63203 17.9258 10.0289 17.9258C11.9533 17.9258 13.7529 17.2759 15.0775 16.1138C16.5146 14.8391 17.2769 13.0521 17.2769 10.9402C17.2769 9.34814 16.8433 7.93353 16.0135 6.7876Z" fill="#EB8F00"/>
<path d="M2.87504 12.4638C2.6476 12.74 3.13122 13.4735 3.21744 13.8472C3.42488 14.7494 3.21744 14.9719 3.2012 15.7741C3.18745 16.6564 3.45113 17.3987 4.12344 17.8723C4.75577 18.3209 5.51806 18.5509 6.4928 18.2635C7.46753 17.976 8.05987 17.6586 8.10985 17.1788C8.13735 16.9801 8.03237 16.7851 7.84992 16.7001C7.9474 16.6539 8.02488 16.5752 8.06861 16.4764C8.30105 15.9216 7.83743 15.8041 7.83743 15.8041C7.90116 15.7279 7.9549 15.6442 7.99738 15.5542C8.1361 15.278 8.1136 14.9031 7.71371 14.7807C7.53001 14.7244 7.48002 14.7544 7.48002 14.7544C7.66997 14.5595 7.89741 14.4033 8.14859 14.2983C8.82091 14.0096 9.61819 13.8347 9.81689 13.666C10.1056 13.416 10.1231 12.9349 9.61319 12.7912C8.88089 12.5763 7.53376 13.0761 6.71398 13.5972C5.89421 14.1184 5.14191 14.3995 4.89198 14.3046C4.64205 14.2096 4.48709 14.0546 4.39212 13.6797C4.21592 12.9824 4.07971 12.7125 3.78104 12.4513C3.5336 12.2389 3.04999 12.2514 2.87504 12.4638Z" fill="url(#paint2_radial_1200_7504)"/>
<path d="M10.104 13.1241C10.0203 11.9794 7.7659 12.6867 6.61497 13.4403C5.18411 14.3775 4.97417 14.2113 4.83421 14.1238C4.6655 14.0188 4.55928 13.9314 4.4768 13.6065C4.2906 12.8717 4.23937 12.6017 3.90446 12.3093C3.62454 12.0506 2.78102 12.0569 2.72478 12.4668C2.66355 12.9079 2.91348 12.9904 3.08219 13.8389C3.29088 14.6987 3.20715 15.6484 3.20715 15.6484C3.20715 15.6484 3.59704 14.7424 3.22215 13.3303C3.14592 12.9491 2.78352 12.3656 3.39585 12.4318C3.98819 12.4955 4.02693 13.0116 4.21188 13.7252C4.31435 14.1288 4.41932 14.3662 4.82671 14.4787C5.2316 14.5899 6.16759 14.0701 6.83991 13.6427C7.66343 13.1191 8.88435 12.6617 9.52542 12.8492C9.80285 12.9092 9.9878 13.2678 9.69663 13.5215C9.23425 13.9576 7.45599 14.1538 6.38503 15.3122C6.38503 15.3122 6.515 15.3597 6.70994 15.2635C6.90614 15.1673 7.63844 14.8049 7.63844 14.8049C7.85713 14.8973 7.9621 15.261 7.84338 15.4547C7.65093 15.7684 6.90239 16.202 6.52874 16.1832C6.52874 16.1832 6.52249 16.3744 6.89739 16.3232C7.01611 16.307 7.50722 16.1995 7.85088 15.9333C8.10706 16.1183 8.03458 16.4332 7.84213 16.6606C7.65094 16.8868 7.18356 17.1792 6.70244 17.2305C6.70244 17.2305 6.65496 17.4129 6.97862 17.4092C7.30228 17.4054 7.65343 17.2404 7.91211 17.0393C7.95085 17.1005 7.98709 17.2342 7.94336 17.4179C7.87587 17.7016 7.49473 17.989 6.75868 18.1489C6.08011 18.2964 5.31532 18.4001 3.83948 17.6341C3.83948 17.6341 4.39058 18.3501 5.82893 18.4776C7.20856 18.6001 8.81937 17.989 8.17329 16.7631C8.17329 16.7631 8.31325 16.5556 8.33075 16.2707C8.34325 16.0758 8.28201 15.8096 8.1383 15.6884C8.27326 15.291 8.23078 15.0161 8.14455 14.8536C8.08707 14.7461 7.94211 14.6412 7.94211 14.6412C7.94211 14.6412 8.22828 14.3825 9.0718 14.1651C9.6129 14.0238 10.1553 13.8239 10.104 13.1241Z" fill="#EB8F00"/>
<path d="M4.41196 13.3428C4.41196 13.3428 5.01554 14.325 6.34518 13.6127C6.34518 13.6127 5.52915 14.4687 4.89432 14.305C4.2595 14.1413 4.41196 13.3428 4.41196 13.3428Z" fill="#EB8F00"/>
<path d="M8.20374 15.0184C8.20374 15.0184 8.51115 14.3585 9.071 14.1624C9.071 14.1624 8.16125 14.2398 7.81509 14.6135L8.20374 15.0184Z" fill="#EB8F00"/>
<path d="M11.6909 11.99C11.651 11.9825 11.6135 11.9662 11.5822 11.94C11.0186 11.4876 10.3463 11.1927 9.63276 11.0827C8.9192 10.959 8.1869 11.0265 7.50834 11.2777C7.47085 11.2927 7.43086 11.2977 7.39087 11.2914C7.30339 11.2764 7.23216 11.2114 7.20842 11.1252C7.18467 11.0402 7.21342 10.9503 7.2809 10.894C8.60554 9.79433 10.57 9.97678 11.6697 11.3014C11.7597 11.4101 11.8422 11.5251 11.9171 11.6438C11.9646 11.7175 11.9646 11.8125 11.9171 11.8862C11.8684 11.9625 11.7797 12.0025 11.6909 11.99Z" fill="#422B0D"/>
<path d="M12.1759 6.96802C12.6995 6.96802 13.1757 7.41039 13.1757 8.14519C13.1757 8.87999 12.6995 9.32111 12.1759 9.32111C11.6523 9.32111 11.1762 8.87874 11.1762 8.14519C11.1762 7.41164 11.6523 6.96802 12.1759 6.96802Z" fill="#422B0D"/>
<path d="M7.84995 5.82922C7.32634 5.82922 6.85022 6.2716 6.85022 7.00515C6.85022 7.73869 7.32634 8.18232 7.84995 8.18232C8.3748 8.18232 8.84967 7.73994 8.84967 7.00515C8.84967 6.27035 8.3748 5.82922 7.84995 5.82922Z" fill="#422B0D"/>
<path d="M13.7042 6.64362C13.7966 6.59238 13.8591 6.49866 13.8716 6.39369C13.8791 6.28497 13.8329 6.18 13.7466 6.11376C13.2055 5.68263 12.5182 5.47644 11.8297 5.54142C11.5747 5.56267 11.3248 5.62265 11.0874 5.71887L11.0424 5.74012C10.9037 5.81385 10.8424 5.98005 10.8999 6.12626C10.9612 6.28497 11.1274 6.37494 11.2936 6.3387V6.23873L11.3111 6.3362C12.0109 6.20624 12.7344 6.31496 13.3655 6.64487C13.4692 6.7036 13.5954 6.7036 13.6992 6.64487L13.7042 6.64362Z" fill="#422B0D"/>
<path d="M7.82313 6.2226C7.69442 6.13262 7.50072 6.16136 7.37575 6.34131C7.25079 6.52251 7.29203 6.71246 7.42074 6.80244C7.54946 6.89241 7.74315 6.86367 7.86812 6.68372C7.99308 6.50252 7.95184 6.31257 7.82313 6.2226Z" fill="#896024"/>
<path d="M12.1523 7.29083C12.0236 7.20086 11.8299 7.2296 11.7049 7.40955C11.5799 7.59075 11.6212 7.7807 11.7499 7.87067C11.8786 7.96065 12.0723 7.93191 12.1973 7.75196C12.3235 7.57076 12.2823 7.38081 12.1523 7.29083Z" fill="#896024"/>
<path d="M10.4615 5.20559C9.97253 4.70402 9.81839 4.34613 8.82874 4.11647L9.25324 2.90961L12.1922 1.93823C14.0554 2.84532 14.3474 2.99791 16.1434 5.11728L16.3393 7.29551C14.0535 5.32333 13.3025 5.20559 10.4615 5.20559Z" fill="#67211F"/>
<path d="M10.461 5.20558L12.1916 1.93823C12.1916 1.93823 10.2979 2.34008 9.2527 2.90961L8.5343 4.20477C9.33231 4.34008 9.67727 4.44026 10.461 5.20558Z" fill="#7F2125"/>
<path d="M10.7351 2.35052C10.5799 2.39599 10.5157 2.40318 10.3926 2.44504C10.027 3.41098 9.93343 3.6139 9.77446 4.62094C9.94187 4.73042 10.0649 4.82505 10.2064 4.92919C10.1991 4.01334 10.416 3.25796 10.7351 2.35052Z" fill="#D60000" stroke="#67211F" stroke-width="0.0365292"/>
<path d="M10.4836 2.41419L10.3913 2.45289L10.3327 2.59944L10.4836 2.41419Z" fill="#398F00" stroke="#67211F" stroke-width="0.00737995"/>
<path d="M10.1436 3.07811L10.6504 2.6458L10.7337 2.35859L10.4823 2.41448L10.3336 2.5972L10.1436 3.07811Z" fill="#FF7F00" stroke="#67211F" stroke-width="0.00737995"/>
<path d="M10.4794 2.79273C10.4794 2.79273 10.4167 2.60368 10.3906 2.5505L10.3367 2.59721L10.1508 3.07672C10.23 3.0079 10.4794 2.79273 10.4794 2.79273Z" fill="#D60000" stroke="#67211F" stroke-width="0.00737995"/>
<path d="M10.4674 3.20193C10.5287 3.00217 10.5701 2.87914 10.6529 2.6452L10.1512 3.07378C10.0767 3.27467 10.0395 3.38645 9.97608 3.58329L10.4674 3.20193Z" fill="#007FFF" stroke="#67211F" stroke-width="0.00590396"/>
<path d="M10.3481 3.29246L10.2575 2.98111L10.1502 3.07407C10.0793 3.27292 10.0406 3.38344 9.9751 3.58359L10.3481 3.29246Z" fill="#398F00" stroke="#67211F" stroke-width="0.00590396"/>
<path d="M10.2213 3.76315L10.1315 3.46197L9.97624 3.58289C9.91638 3.7922 9.89915 3.88756 9.85793 4.06164L10.2213 3.76315Z" fill="#D60000" stroke="#67211F" stroke-width="0.00590396"/>
<path d="M10.0448 4.2895L9.95598 3.98221L9.8561 4.06257C9.82034 4.28396 9.81069 4.34163 9.79196 4.50717L10.0448 4.2895Z" fill="#007FFF" stroke="#67211F" stroke-width="0.00590396"/>
<path d="M9.9562 4.74374L9.86882 4.43906L9.79233 4.50603L9.78394 4.61659L9.9562 4.74374Z" fill="#FF7F00" stroke="#67211F" stroke-width="0.00590396"/>
<path d="M10.3451 3.66188C10.3796 3.50245 10.4041 3.40487 10.4655 3.202L10.1284 3.46328C10.1879 3.65791 10.1771 3.61527 10.2185 3.76543L10.3451 3.66188Z" fill="#FF7F00" stroke="#67211F" stroke-width="0.00590396"/>
<path d="M10.2579 4.10193C10.287 3.95473 10.2912 3.87608 10.3437 3.66495L9.95492 3.98205C10.0085 4.18551 9.99921 4.1405 10.0447 4.28318L10.2579 4.10193Z" fill="#398F00" stroke="#67211F" stroke-width="0.00590396"/>
<path d="M10.2189 4.53536C10.2324 4.37435 10.2339 4.30497 10.2601 4.10227L9.86932 4.4388C9.91139 4.59866 9.91139 4.59866 9.95769 4.74461L10.2189 4.53536Z" fill="#D60000" stroke="#67211F" stroke-width="0.00590396"/>
<path d="M10.2153 4.92321C10.1715 4.76674 10.1748 4.77477 10.1301 4.60805L9.95394 4.73711C10.0939 4.82867 10.0915 4.82682 10.0915 4.82682L10.2153 4.92321Z" fill="#398F00" stroke="#67211F" stroke-width="0.00590396"/>
<path d="M10.2167 4.53531L10.1271 4.6082L10.2099 4.90902L10.2136 4.90993L10.2167 4.53531Z" fill="#007FFF" stroke="#67211F" stroke-width="0.00590396"/>
<path d="M10.2995 3.88592L10.3454 3.66985L10.3144 3.6925L10.2666 3.73119L10.2995 3.88592Z" fill="#007FFF" stroke="#67211F" stroke-width="0.00590396"/>
<g filter="url(#filter0_d_1200_7504)">
<path d="M10.894 3.18702L10.982 3.09031C10.982 3.09031 10.8949 3.3792 10.7773 3.5621C10.6838 3.70754 10.5006 3.89544 10.5006 3.89544C10.3808 4.05886 10.3417 4.1493 10.291 4.30985L10.1344 4.45849C10.1344 4.45849 10.2049 4.24818 10.2094 4.14411C10.216 3.99313 10.0939 4.03049 10.091 3.89751C10.0867 3.70063 10.3257 3.29257 10.3257 3.29257L10.3564 3.39364C10.3564 3.39364 10.4501 3.29309 10.5633 3.14814C10.6039 3.09623 10.6469 3.03863 10.6891 2.9779C10.7535 2.88508 10.8467 2.7355 10.8467 2.7355L10.8284 2.87175L10.8972 2.80112C10.8972 2.80112 10.8523 2.90461 10.8386 2.96283C10.8072 3.09645 10.8194 3.14582 10.894 3.18702Z" fill="url(#paint3_linear_1200_7504)"/>
<path d="M10.894 3.18702C10.9284 3.14925 10.982 3.09031 10.982 3.09031C10.982 3.09031 10.8949 3.3792 10.7773 3.5621C10.6838 3.70754 10.5006 3.89544 10.5006 3.89544C10.3808 4.05886 10.3417 4.1493 10.291 4.30985L10.1344 4.45849C10.1344 4.45849 10.2049 4.24818 10.2094 4.14411C10.216 3.99313 10.0939 4.03049 10.091 3.89751C10.0867 3.70063 10.3257 3.29257 10.3257 3.29257L10.3564 3.39364M10.894 3.18702C10.8194 3.14582 10.8072 3.09645 10.8386 2.96283C10.8523 2.90461 10.8972 2.80112 10.8972 2.80112L10.8284 2.87175M10.894 3.18702C10.885 3.20081 10.6997 3.43778 10.6997 3.43778C10.6997 3.43778 10.7185 3.27018 10.7445 3.15693M10.3564 3.39364C10.3653 3.47001 10.3492 3.51924 10.3212 3.60655L10.5224 3.29724L10.5205 3.49087L10.7285 3.07565L10.7445 3.15693M10.3564 3.39364C10.3564 3.39364 10.4501 3.29309 10.5633 3.14814C10.6039 3.09623 10.6469 3.03863 10.6891 2.9779C10.7535 2.88508 10.8467 2.7355 10.8467 2.7355L10.8284 2.87175M10.8284 2.87175C10.8284 2.87175 10.7696 3.04805 10.7445 3.15693" stroke="#F8F7FC" stroke-width="0.0365292"/>
</g>
<path d="M7.04456 4.4072C6.98833 4.31472 6.98083 4.19976 7.02457 4.10103C7.07206 4.00231 7.16578 3.93483 7.2745 3.92108C7.95556 3.81486 8.65037 3.97607 9.21522 4.36971C9.42641 4.51467 9.61386 4.68962 9.77257 4.89081C9.78256 4.90331 9.79131 4.91706 9.80006 4.93205C9.88504 5.06451 9.85629 5.23947 9.73383 5.33819C9.60261 5.44691 9.41017 5.44316 9.28395 5.32819L9.33644 5.24321L9.2727 5.31819C8.72535 4.86082 8.04054 4.59964 7.32824 4.5784C7.20952 4.5784 7.09955 4.51592 7.03956 4.41345L7.04456 4.4072Z" fill="#422B0D"/>
</g>
<defs>
<filter id="filter0_d_1200_7504" x="10.0719" y="2.72742" width="1.05537" height="1.8551" filterUnits="userSpaceOnUse" color-interpolation-filters="sRGB">
<feFlood flood-opacity="0" result="BackgroundImageFix"/>
<feColorMatrix in="SourceAlpha" type="matrix" values="0 0 0 0 0 0 0 0 0 0 0 0 0 0 0 0 0 0 127 0" result="hardAlpha"/>
<feOffset dx="0.0737995" dy="0.0590396"/>
<feGaussianBlur stdDeviation="0.0265678"/>
<feComposite in2="hardAlpha" operator="out"/>
<feColorMatrix type="matrix" values="0 0 0 0 0 0 0 0 0 0 0 0 0 0 0 0 0 0 0.25 0"/>
<feBlend mode="normal" in2="BackgroundImageFix" result="effect1_dropShadow_1200_7504"/>
<feBlend mode="normal" in="SourceGraphic" in2="effect1_dropShadow_1200_7504" result="shape"/>
</filter>
<radialGradient id="paint0_radial_1200_7504" cx="0" cy="0" r="1" gradientUnits="userSpaceOnUse" gradientTransform="translate(10.0291 10.9403) scale(7.11802 7.11799)">
<stop offset="0.5" stop-color="#FDE030"/>
<stop offset="0.92" stop-color="#F7C02B"/>
<stop offset="1" stop-color="#F4A223"/>
</radialGradient>
<linearGradient id="paint1_linear_1200_7504" x1="10.0291" y1="17.9258" x2="10.0291" y2="3.95471" gradientUnits="userSpaceOnUse">
<stop stop-color="#F4A223"/>
<stop offset="0.08" stop-color="#F7C02B"/>
<stop offset="0.54" stop-color="#FDE030" stop-opacity="0"/>
</linearGradient>
<radialGradient id="paint2_radial_1200_7504" cx="0" cy="0" r="1" gradientUnits="userSpaceOnUse" gradientTransform="translate(7.26009 13.5153) scale(7.42696 6.98131)">
<stop offset="0.27" stop-color="#FFF176"/>
<stop offset="1" stop-color="#FFC400"/>
</radialGradient>
<linearGradient id="paint3_linear_1200_7504" x1="10.9624" y1="2.79546" x2="10.1077" y2="4.44462" gradientUnits="userSpaceOnUse">
<stop stop-color="#C9C9C9"/>
<stop offset="1" stop-color="#939297"/>
</linearGradient>
<clipPath id="clip0_1200_7504">
<rect width="17.996" height="17.996" fill="white" transform="translate(0.984131 0.984131)"/>
</clipPath>
</defs>
</svg>
