<svg width="19" height="18" viewBox="0 0 19 18" fill="none" xmlns="http://www.w3.org/2000/svg">
<path d="M9.9274 16.8925C6.44085 16.8925 2.67938 14.7056 2.67938 9.90695C2.67938 5.10828 6.44085 2.92139 9.9274 2.92139C11.8644 2.92139 13.6514 3.55871 14.976 4.72089C16.4131 5.99553 17.1754 7.79503 17.1754 9.90695C17.1754 12.0189 16.4131 13.8059 14.976 15.0805C13.6514 16.2427 11.8519 16.8925 9.9274 16.8925Z" fill="url(#paint0_radial_1200_6333)"/>
<path opacity="0.8" d="M5.38447 13.5011C6.59226 13.5011 7.57137 12.522 7.57137 11.3142C7.57137 10.1064 6.59226 9.12732 5.38447 9.12732C4.17668 9.12732 3.19757 10.1064 3.19757 11.3142C3.19757 12.522 4.17668 13.5011 5.38447 13.5011Z" fill="url(#paint1_radial_1200_6333)"/>
<path d="M8.24676 9.43293L8.22802 9.40544L8.20178 9.3717C8.19178 9.35795 8.18178 9.34671 8.16929 9.33546L8.09181 9.25798C8.06057 9.22674 8.02308 9.193 7.98434 9.15926C7.90186 9.08803 7.80938 9.03054 7.70941 8.98556C7.61194 8.94182 7.50572 8.92057 7.3995 8.92057H7.35326C7.34076 8.91808 7.32952 8.91808 7.31702 8.92057C7.29452 8.92307 7.27203 8.92682 7.24954 8.93182C7.19705 8.94432 7.14707 8.96056 7.09708 8.98056C6.99711 9.02555 6.90463 9.08303 6.82215 9.15426C6.75467 9.21174 6.69219 9.27298 6.63346 9.33796L6.56223 9.41794L6.52474 9.46042C6.37603 9.63538 6.1136 9.65787 5.93865 9.50916C5.80493 9.39544 5.7562 9.21049 5.81743 9.04554L5.83118 9.00555C5.84367 8.96681 5.85867 8.92932 5.87491 8.89183C5.9349 8.75562 6.01113 8.62816 6.1036 8.51194C6.32229 8.22327 6.62971 8.01333 6.97836 7.91335C7.04959 7.89461 7.12207 7.88086 7.1958 7.87087C7.23329 7.87087 7.28828 7.85962 7.30452 7.85962H7.3995C7.54196 7.86212 7.68317 7.88211 7.82063 7.91835C7.95185 7.95459 8.07806 8.00708 8.19553 8.07456C8.38923 8.18703 8.55918 8.33824 8.69539 8.51694C8.74788 8.58442 8.79536 8.6544 8.8366 8.72938C8.87034 8.78811 8.90034 8.84809 8.92658 8.90933C8.93658 8.92932 8.94532 8.95057 8.95157 8.97181C8.95157 8.98806 8.96157 9.0018 8.96532 9.01305L8.97781 9.04554C9.04905 9.26673 8.92783 9.50416 8.70664 9.57539C8.53919 9.62788 8.35549 9.57039 8.24676 9.43293Z" fill="#422B0D"/>
<path d="M13.6605 9.43244L13.638 9.40495L13.6118 9.3712C13.6018 9.35746 13.5918 9.34621 13.5793 9.33496L13.5018 9.25749C13.4706 9.22624 13.4331 9.1925 13.3944 9.15876C13.3119 9.08753 13.2194 9.03005 13.1194 8.98506C13.0232 8.94257 12.9182 8.92008 12.8133 8.92008H12.762C12.7495 8.91758 12.7383 8.91758 12.7258 8.92008C12.7033 8.92258 12.6808 8.92633 12.6583 8.93133C12.6058 8.94382 12.5558 8.96007 12.5059 8.98006C12.4046 9.0263 12.3097 9.08628 12.2259 9.15876C12.1585 9.21625 12.096 9.27748 12.036 9.34246L11.976 9.41994L11.9385 9.46243C11.7985 9.64488 11.5374 9.67862 11.3549 9.53741C11.205 9.42244 11.1512 9.22 11.2262 9.04505L11.24 9.00506C11.2524 8.96632 11.2674 8.92883 11.2837 8.89134C11.3424 8.75388 11.4199 8.62516 11.5111 8.50644C11.7298 8.21777 12.0372 8.00783 12.3859 7.90786C12.4571 7.88912 12.5296 7.87537 12.6033 7.86537C12.6408 7.86537 12.6946 7.85413 12.712 7.85413H12.807C12.9495 7.85663 13.0907 7.87662 13.2282 7.91286C13.3594 7.9491 13.4856 8.00158 13.6031 8.06907C13.7968 8.18153 13.9667 8.33274 14.1029 8.51144C14.1554 8.57892 14.2029 8.64891 14.2441 8.72388C14.2779 8.78262 14.3079 8.8426 14.3341 8.90383C14.3441 8.92383 14.3528 8.94507 14.3591 8.96632L14.3728 9.00756L14.3841 9.0413C14.4553 9.26248 14.3341 9.49867 14.1129 9.5699C13.9467 9.62363 13.7655 9.56865 13.6568 9.43244H13.6605Z" fill="#422B0D"/>
<path d="M11.0839 12.6613C11.2976 12.4726 11.4313 12.2114 11.4588 11.9277C11.4826 11.4778 11.3676 11.3229 11.2201 11.1267C10.8815 10.6706 9.92048 10.7793 9.92048 10.7793C9.67055 10.7893 9.36564 10.9117 9.40188 11.2092C9.45061 11.3779 9.58807 11.5066 9.76053 11.5453C10.1354 11.6365 10.6815 11.5453 10.6965 11.9315C10.714 12.3638 10.0492 12.1814 9.99671 12.6438C9.94423 13.1061 10.6965 13.0424 10.6965 13.3573C10.6965 13.5985 10.4466 13.6397 10.1879 13.6947C9.96422 13.741 9.53434 13.8109 9.49935 14.0696C9.46436 14.3283 9.61307 14.6407 10.2179 14.5495C11.1689 14.4058 11.4888 13.8847 11.4888 13.5648C11.4951 13.2186 11.3463 12.8874 11.0839 12.6613Z" fill="#422B0D"/>
<path d="M7.87666 6.12171C8.16533 6.12171 8.25155 5.73057 7.94289 5.66559C7.70295 5.6206 7.45677 5.6131 7.21434 5.64434C6.55827 5.71807 5.95468 6.04048 5.5273 6.54534C5.3311 6.78528 5.65226 7.03771 5.86346 6.85901C6.4333 6.39539 7.14186 6.13546 7.87666 6.12171Z" fill="#422B0D"/>
<path d="M11.9758 6.20726C11.6896 6.23975 11.5672 5.85486 11.8646 5.75989C12.1008 5.6924 12.3469 5.66241 12.5931 5.67116C13.2542 5.67991 13.8865 5.94234 14.3601 6.40346C14.5788 6.6234 14.2852 6.90332 14.0565 6.74836C13.4429 6.33973 12.7106 6.14853 11.9758 6.20726Z" fill="#422B0D"/>
<path d="M15.9128 5.75427C16.5789 6.82897 16.9263 8.10862 16.9263 9.53197C16.9263 11.6439 16.164 13.4309 14.7269 14.7055C13.4022 15.8677 11.6027 16.5175 9.67826 16.5175C7.42138 16.5175 5.05453 15.599 3.65741 13.6508C5.00204 15.8577 7.53135 16.8924 9.92819 16.8924C11.8527 16.8924 13.6522 16.2426 14.9768 15.0804C16.4139 13.8058 17.1762 12.0188 17.1762 9.90687C17.1762 8.31481 16.7426 6.9002 15.9128 5.75427Z" fill="#EB8F00"/>
<path opacity="0.8" d="M14.5554 13.502C15.7632 13.502 16.7423 12.5229 16.7423 11.3151C16.7423 10.1073 15.7632 9.12817 14.5554 9.12817C13.3476 9.12817 12.3685 10.1073 12.3685 11.3151C12.3685 12.5229 13.3476 13.502 14.5554 13.502Z" fill="url(#paint2_radial_1200_6333)"/>
<path d="M6.04122 1.30043H6.53412C6.53412 1.30043 8.55873 1.02484 9.92786 1.03701C11.233 1.04861 13.1519 1.30043 13.1519 1.30043H13.9276C14.7173 2.60497 15.2848 3.94463 15.545 5.32076C12.9939 4.59468 9.92786 6.12934 9.92786 6.12934C9.92786 6.12934 6.81579 4.62146 4.3353 5.16341C4.73234 3.7547 5.22168 2.47633 6.04122 1.30043Z" fill="#7F2125"/>
<path d="M6.04122 1.30043H6.53412C6.53412 1.30043 8.55873 1.02484 9.92786 1.03701C11.233 1.04861 13.1519 1.30043 13.1519 1.30043H13.9276M6.04122 1.30043C5.22168 2.47633 4.73234 3.7547 4.3353 5.16341C6.81579 4.62146 9.92786 6.12935 9.92786 6.12935C9.92786 6.12935 12.9939 4.59468 15.545 5.32076C15.2848 3.94463 14.7173 2.60497 13.9276 1.30043M6.04122 1.30043C6.68235 1.99705 7.59576 1.55945 9.92786 2.09553C12.0394 1.57565 13.056 2.03155 13.9276 1.30043" stroke="#67211F" stroke-width="0.0582032"/>
<path d="M9.94421 6.10656L9.9517 2.09899C11.5392 1.61091 12.7444 1.99196 13.9354 1.3241C14.4541 2.12207 15.3122 3.61623 15.5528 5.30927C13.4912 4.77817 11.3113 5.47927 9.94421 6.10656Z" fill="#67211F" stroke="#67211F" stroke-width="0.0365292"/>
<path d="M7.21855 1.75202C6.85811 1.51047 6.51993 1.64136 6.53476 1.29443L6.0705 1.30919C6.43237 1.69781 6.96738 1.69679 7.21855 1.75202Z" fill="#67211F"/>
<path d="M12.5851 1.70785C12.9455 1.46874 13.2341 1.62321 13.2192 1.27979H13.9306C13.5687 1.66447 12.8363 1.65318 12.5851 1.70785Z" fill="#67211F" fill-opacity="0.56"/>
<path d="M9.99626 1.33873L9.91531 2.05107L10.064 2.04081L9.99626 1.33873Z" fill="#67211F" stroke="#67211F" stroke-width="0.0885594"/>
<path d="M8.05163 1.83328C7.78956 1.81862 7.63178 1.80396 7.41513 1.78931C7.28036 3.3391 7.22863 3.72285 7.50943 5.25788C7.89028 5.35764 8.17827 5.45176 8.50702 5.55308C7.73611 4.15015 7.95034 3.24888 8.05163 1.83328Z" fill="#D60000" stroke="#67211F" stroke-width="0.0365292"/>
<path d="M7.62464 1.81163L7.43469 1.79675L7.3967 2.07933L7.62464 1.81163Z" fill="#398F00" stroke="#67211F" stroke-width="0.00737995"/>
<path d="M7.31381 2.85207L8.02519 2.03126L8.03267 1.84804L7.62083 1.8114L7.39618 2.07523L7.31381 2.85207Z" fill="#FF7F00" stroke="#67211F" stroke-width="0.00737995"/>
<path d="M7.77743 2.30976C7.77743 2.30976 7.55028 2.05571 7.47041 1.9873L7.39553 2.07525L7.32065 2.84475C7.43047 2.71528 7.77743 2.30976 7.77743 2.30976Z" fill="#D60000" stroke="#67211F" stroke-width="0.00737995"/>
<path d="M7.99693 2.918C7.9977 2.60174 8.00514 2.40562 8.02688 2.03125L7.323 2.84472C7.29793 3.16744 7.29195 3.34546 7.28555 3.65818L7.99693 2.918Z" fill="#007FFF" stroke="#67211F" stroke-width="0.00590396"/>
<path d="M7.8247 3.09388L7.47276 2.66882L7.32299 2.84471C7.30346 3.16314 7.29408 3.33983 7.28555 3.65819L7.8247 3.09388Z" fill="#398F00" stroke="#67211F" stroke-width="0.00590396"/>
<path d="M7.85465 3.83411L7.5102 3.42371L7.28555 3.65822C7.29304 3.98801 7.31551 4.13458 7.338 4.40574L7.85465 3.83411Z" fill="#D60000" stroke="#67211F" stroke-width="0.00590396"/>
<path d="M7.82297 4.66932L7.47852 4.25159L7.33624 4.40549C7.39615 4.7426 7.41112 4.83055 7.47103 5.07972L7.82297 4.66932Z" fill="#007FFF" stroke="#67211F" stroke-width="0.00590396"/>
<path d="M7.91475 5.3676L7.57614 4.9552L7.47079 5.08039L7.51836 5.24451L7.91475 5.3676Z" fill="#FF7F00" stroke="#67211F" stroke-width="0.00590396"/>
<path d="M8.03397 3.63593C8.00732 3.38956 7.99726 3.23759 7.99653 2.91772L7.5098 3.4234C7.73444 3.68723 7.68951 3.6286 7.85425 3.8338L8.03397 3.63593Z" fill="#FF7F00" stroke="#67211F" stroke-width="0.00590396"/>
<path d="M8.12256 4.31791C8.0926 4.09072 8.05516 3.97346 8.0327 3.64368L7.47858 4.25195C7.69779 4.53179 7.6542 4.46894 7.82303 4.66229L8.12256 4.31791Z" fill="#398F00" stroke="#67211F" stroke-width="0.00590396"/>
<path d="M8.2969 4.97012C8.2295 4.72827 8.19206 4.62567 8.12467 4.31787L7.57803 4.95546C7.75026 5.17532 7.75026 5.17532 7.92249 5.37319L8.2969 4.97012Z" fill="#D60000" stroke="#67211F" stroke-width="0.00590396"/>
<path d="M8.51196 5.54066C8.33889 5.32709 8.34976 5.33767 8.16917 5.10938L7.91049 5.36268C8.22792 5.4461 8.22236 5.44425 8.22236 5.44425L8.51196 5.54066Z" fill="#398F00" stroke="#67211F" stroke-width="0.00590396"/>
<path d="M8.29677 4.96997L8.16885 5.10989L8.49994 5.5223H8.50746L8.29677 4.96997Z" fill="#007FFF" stroke="#67211F" stroke-width="0.00590396"/>
<path d="M8.07075 3.9824L8.03313 3.651L7.98798 3.69519L7.92026 3.76883L8.07075 3.9824Z" fill="#007FFF" stroke="#67211F" stroke-width="0.00590396"/>
<g filter="url(#filter0_d_1200_6333)">
<path d="M9.0235 2.73732L9.14439 2.55026C9.14439 2.55026 9.27572 3.09889 9.18403 3.44985C9.11113 3.72892 8.84233 4.09308 8.84233 4.09308C8.7193 4.4075 8.72717 4.57995 8.79386 4.88497L8.54852 5.17372C8.54852 5.17372 8.47267 4.77391 8.3501 4.57783C8.17227 4.29334 7.87886 4.37071 7.69792 4.12066C7.43002 3.75043 7.56892 2.96879 7.56892 2.96879L7.78631 3.1572C7.78631 3.1572 7.91805 2.96258 8.0468 2.68328C8.09291 2.58326 8.13863 2.47238 8.17778 2.35568C8.23763 2.1773 8.30427 1.89044 8.30427 1.89044L8.42994 2.14788L8.531 2.011C8.531 2.011 8.53982 2.20832 8.57711 2.31867C8.66271 2.57191 8.761 2.6641 9.0235 2.73732Z" fill="url(#paint3_linear_1200_6333)"/>
<path d="M9.0235 2.73732C9.07071 2.66427 9.14439 2.55026 9.14439 2.55026C9.14439 2.55026 9.27572 3.09889 9.18403 3.44985C9.11113 3.72892 8.84233 4.09308 8.84233 4.09308C8.7193 4.4075 8.72717 4.57995 8.79386 4.88497L8.54852 5.17372C8.54852 5.17372 8.47267 4.77391 8.3501 4.57783C8.17227 4.29334 7.87886 4.37071 7.69792 4.12066C7.43002 3.75043 7.56892 2.96879 7.56892 2.96879L7.78631 3.1572M9.0235 2.73732C8.761 2.6641 8.66271 2.57191 8.57711 2.31867C8.53982 2.20832 8.531 2.011 8.531 2.011L8.42994 2.14788M9.0235 2.73732C9.01631 2.76379 8.80517 3.2204 8.80517 3.2204C8.80517 3.2204 8.64007 2.90395 8.56583 2.68935M7.78631 3.1572C7.91067 3.30038 7.92938 3.39395 7.96463 3.55985L8.12603 2.9662L8.37229 3.33065L8.4153 2.53732L8.56583 2.68935M7.78631 3.1572C7.78631 3.1572 7.91805 2.96258 8.0468 2.68328C8.09291 2.58326 8.13863 2.47238 8.17778 2.35568C8.23763 2.1773 8.30427 1.89044 8.30427 1.89044L8.42994 2.14788M8.42994 2.14788C8.42994 2.14788 8.49445 2.48301 8.56583 2.68935" stroke="#F8F7FC" stroke-width="0.0365292"/>
</g>
<defs>
<filter id="filter0_d_1200_6333" x="7.51462" y="1.83606" width="1.84718" height="3.49072" filterUnits="userSpaceOnUse" color-interpolation-filters="sRGB">
<feFlood flood-opacity="0" result="BackgroundImageFix"/>
<feColorMatrix in="SourceAlpha" type="matrix" values="0 0 0 0 0 0 0 0 0 0 0 0 0 0 0 0 0 0 127 0" result="hardAlpha"/>
<feOffset dx="0.0737995" dy="0.0590396"/>
<feGaussianBlur stdDeviation="0.0265678"/>
<feComposite in2="hardAlpha" operator="out"/>
<feColorMatrix type="matrix" values="0 0 0 0 0 0 0 0 0 0 0 0 0 0 0 0 0 0 0.25 0"/>
<feBlend mode="normal" in2="BackgroundImageFix" result="effect1_dropShadow_1200_6333"/>
<feBlend mode="normal" in="SourceGraphic" in2="effect1_dropShadow_1200_6333" result="shape"/>
</filter>
<radialGradient id="paint0_radial_1200_6333" cx="0" cy="0" r="1" gradientUnits="userSpaceOnUse" gradientTransform="translate(9.9274 9.90695) scale(7.11802 7.11799)">
<stop offset="0.5" stop-color="#FDE030"/>
<stop offset="0.92" stop-color="#F7C02B"/>
<stop offset="1" stop-color="#F4A223"/>
</radialGradient>
<radialGradient id="paint1_radial_1200_6333" cx="0" cy="0" r="1" gradientUnits="userSpaceOnUse" gradientTransform="translate(5.38447 11.3095) scale(2.38219 2.26064)">
<stop stop-color="#ED7770"/>
<stop offset="0.08" stop-color="#ED7770" stop-opacity="0.96"/>
<stop offset="0.22" stop-color="#ED7770" stop-opacity="0.85"/>
<stop offset="0.39" stop-color="#ED7770" stop-opacity="0.68"/>
<stop offset="0.59" stop-color="#ED7770" stop-opacity="0.43"/>
<stop offset="0.81" stop-color="#ED7770" stop-opacity="0.13"/>
<stop offset="0.9" stop-color="#ED7770" stop-opacity="0"/>
</radialGradient>
<radialGradient id="paint2_radial_1200_6333" cx="0" cy="0" r="1" gradientUnits="userSpaceOnUse" gradientTransform="translate(14.556 11.3103) scale(2.38219 2.26064)">
<stop stop-color="#ED7770"/>
<stop offset="0.08" stop-color="#ED7770" stop-opacity="0.96"/>
<stop offset="0.22" stop-color="#ED7770" stop-opacity="0.85"/>
<stop offset="0.39" stop-color="#ED7770" stop-opacity="0.68"/>
<stop offset="0.59" stop-color="#ED7770" stop-opacity="0.43"/>
<stop offset="0.81" stop-color="#ED7770" stop-opacity="0.13"/>
<stop offset="0.9" stop-color="#ED7770" stop-opacity="0"/>
</radialGradient>
<linearGradient id="paint3_linear_1200_6333" x1="8.70621" y1="1.99658" x2="7.91162" y2="5.00553" gradientUnits="userSpaceOnUse">
<stop stop-color="#C9C9C9"/>
<stop offset="1" stop-color="#939297"/>
</linearGradient>
</defs>
</svg>
