<svg width="19" height="18" viewBox="0 0 19 18" fill="none" xmlns="http://www.w3.org/2000/svg">
<g clip-path="url(#clip0_1206_12218)">
<path d="M9.97089 16.5464C6.48434 16.5464 2.72287 14.3595 2.72287 9.56088C2.72287 4.76221 6.48434 2.57532 9.97089 2.57532C11.9079 2.57532 13.6949 3.21264 15.0195 4.37482C16.4566 5.64946 17.2189 7.44896 17.2189 9.56088C17.2189 11.6728 16.4566 13.4598 15.0195 14.7344C13.6949 15.8966 11.8954 16.5464 9.97089 16.5464Z" fill="url(#paint0_radial_1206_12218)"/>
<path d="M9.97089 16.5464C6.48434 16.5464 2.72287 14.3595 2.72287 9.56088C2.72287 4.76221 6.48434 2.57532 9.97089 2.57532C11.9079 2.57532 13.6949 3.21264 15.0195 4.37482C16.4566 5.64946 17.2189 7.44896 17.2189 9.56088C17.2189 11.6728 16.4566 13.4598 15.0195 14.7344C13.6949 15.8966 11.8954 16.5464 9.97089 16.5464Z" fill="url(#paint1_linear_1206_12218)"/>
<path d="M15.9562 5.40857C16.6222 6.48327 16.9696 7.76292 16.9696 9.18627C16.9696 11.2982 16.2073 13.0852 14.7702 14.3598C13.4456 15.522 11.6461 16.1718 9.72161 16.1718C7.46473 16.1718 5.09788 15.2533 3.70076 13.3051C5.04539 15.512 7.5747 16.5467 9.97155 16.5467C11.896 16.5467 13.6955 15.8969 15.0202 14.7347C16.4573 13.4601 17.2196 11.6731 17.2196 9.56117C17.2196 7.96911 16.7859 6.5545 15.9562 5.40857Z" fill="#EB8F00"/>
<path d="M11.9817 10.235C10.857 10.5087 10.5071 10.4812 10.0447 10.4812H9.99476C9.53238 10.4812 9.18248 10.5087 8.05779 10.235C7.85784 10.1937 7.69539 10.4674 7.9953 10.7136C8.59514 11.1922 9.30745 11.3434 10.0198 11.3434C10.7321 11.3434 11.4444 11.1935 12.0442 10.7136C12.3441 10.4674 12.1817 10.1937 11.9817 10.235Z" fill="#422B0D"/>
<path d="M7.48242 8.58549C7.7136 8.58299 7.94479 8.60799 8.16973 8.66047C8.28969 8.69171 8.41466 8.63423 8.46965 8.52301C8.56337 8.32807 8.61086 8.11437 8.60711 7.89818C8.60711 7.16089 8.13224 6.72351 7.60738 6.72351C7.08253 6.72351 6.60766 7.16089 6.60766 7.89818C6.60391 8.09188 6.64265 8.28308 6.72012 8.46053C6.76511 8.56925 6.88008 8.63173 6.99505 8.61049C7.14501 8.59799 7.30746 8.58549 7.48242 8.58549Z" fill="#422B0D"/>
<path d="M12.5564 8.58549C12.3252 8.58299 12.094 8.60799 11.8691 8.66047C11.7491 8.68921 11.6254 8.63173 11.5692 8.52301C11.4754 8.32806 11.428 8.11437 11.4317 7.89818C11.4317 7.16089 11.9066 6.72351 12.4314 6.72351C12.9563 6.72351 13.4312 7.16089 13.4312 7.89818C13.4349 8.09188 13.3962 8.28308 13.3187 8.46053C13.2737 8.56925 13.1587 8.63173 13.0438 8.61049C12.8938 8.59799 12.7314 8.58549 12.5564 8.58549Z" fill="#422B0D"/>
<path d="M10.6063 10.4479C10.52 10.4479 10.4413 10.4479 10.3651 10.4554C10.3276 10.7128 10.3126 10.9727 10.3201 11.2327C10.4113 11.2327 10.5025 11.2189 10.5925 11.2077C10.5738 10.954 10.5788 10.7003 10.6063 10.4479Z" fill="#422B0D"/>
<path d="M13.564 13.4304C13.5378 13.3404 13.4878 13.2592 13.4178 13.1967C13.1842 12.9131 12.8055 12.7931 12.4506 12.8906C12.4506 12.8793 12.4431 12.8668 12.4381 12.8568C12.5168 12.5132 12.4831 12.1533 12.3406 11.8309C12.1707 11.5097 11.842 11.3048 11.4796 11.2935C11.1897 11.2773 10.6036 11.431 10.5124 11.436C10.5124 11.436 10.6349 11.0586 10.6586 10.2313C10.7036 8.60925 10.2824 8.44805 9.96878 8.39806C9.48516 8.32059 9.40894 8.66924 9.42643 9.22658C9.43518 9.50776 9.46767 10.0888 9.18775 11.3098C9.05278 11.8983 8.66789 12.4182 8.65289 12.4407C7.56569 14.0652 7.79563 15.6023 8.48294 16.4146C8.90032 16.8895 9.49891 17.0382 10.1287 17.0757C10.6473 17.1081 11.4084 17.0169 11.8895 16.5471C12.3706 16.0772 12.5693 14.8288 12.5806 14.7163C12.733 14.7213 12.8855 14.7001 13.0304 14.6513C13.2179 14.5826 13.3754 14.4501 13.4753 14.2764C13.574 14.1065 13.6215 13.9103 13.6115 13.7141C13.6115 13.6166 13.5953 13.5216 13.564 13.4304Z" fill="url(#paint2_radial_1206_12218)"/>
<path d="M13.1143 14.3773C13.1143 14.3773 12.958 14.5373 12.5557 14.5273C12.5207 14.3698 12.4657 14.2361 12.377 14.1299C12.4807 13.91 12.6869 13.4513 12.5582 13.0502C13.0468 12.9952 13.3167 13.2476 13.3779 13.5176C13.4879 14.0012 13.2355 14.4111 12.7931 14.511C12.5019 14.5773 13.2217 14.7447 13.2367 14.7635C13.7691 14.5148 13.7716 13.9162 13.7553 13.6288C13.6854 12.8378 12.9531 12.6728 12.5644 12.7565C12.5757 11.958 12.2907 11.2482 11.3935 11.2132C11.0648 11.2007 10.8636 11.2307 10.7299 11.2744C10.7299 11.2744 10.7799 11.0507 10.8024 10.4484C10.8511 9.14753 10.6337 8.22778 9.85515 8.22778C9.38403 8.22778 9.37278 8.57144 9.33404 9.15253C9.2953 9.73112 9.43651 10.887 8.51302 12.4829C8.26433 12.9115 7.86944 13.825 7.91693 14.5748C7.91693 14.5748 8.19935 13.4001 8.73421 12.5466C9.69894 11.0058 9.56398 9.67863 9.58522 9.19626C9.61147 8.60643 9.6827 8.56519 9.85515 8.54644C10.4187 8.54395 10.5637 9.15878 10.5175 10.3434C10.4975 10.8546 10.4825 11.2382 10.3175 11.4206C10.1576 11.5968 9.62646 11.9468 9.55273 12.1842C9.479 12.4216 10.0164 11.7106 11.1086 11.5569C11.8234 11.4569 12.2045 11.8405 12.1908 12.5303C11.466 12.0467 10.4662 12.7203 10.2625 12.9115C10.0588 13.1027 9.99761 13.2789 9.99761 13.2789C10.4625 13.0539 11.291 12.5716 11.8621 12.7753C12.3082 12.9752 12.2832 13.4688 12.087 13.8575C11.4997 13.4651 10.6874 13.8312 10.4537 14.0337C10.2213 14.2374 10.2388 14.3973 10.2388 14.3973C11.3447 13.6325 11.9546 14.1936 12.082 14.3598C12.3182 14.6448 12.322 14.8509 12.0283 15.3358C11.8146 15.6895 11.4797 15.5745 11.4222 15.5195C11.296 15.407 11.226 15.1509 11.3597 15.0284C11.4785 14.9209 11.5859 14.9084 11.5459 14.8547C11.5047 14.801 11.3023 14.7772 11.161 14.8684C10.9299 15.0171 10.9386 15.4708 11.1773 15.7295C11.5372 15.9794 11.7446 15.9082 11.8983 15.8344C11.9921 15.7894 11.9246 16.1868 11.481 16.543C10.9598 16.9616 8.97289 17.1366 8.13687 15.8582C8.13687 15.8582 8.35806 17.0941 10.515 17.1353C11.4997 17.1541 12.1245 16.6354 12.3107 16.0256C12.3832 15.7869 12.4857 15.5133 12.5544 15.2521C12.6231 14.9909 12.7656 14.9009 12.8843 14.8759C13.0155 14.8484 13.1717 14.8047 13.2717 14.741L13.1143 14.3773Z" fill="#EB8F00"/>
<path d="M7.34757 7.16213C7.17331 7.12953 7.00532 7.24487 6.97398 7.41913C6.9489 7.55578 7.01409 7.69243 7.1357 7.75888C7.30996 7.79148 7.47796 7.67614 7.5093 7.50188C7.53437 7.36522 7.46918 7.22857 7.34757 7.16213Z" fill="#896024"/>
<path d="M12.1579 7.16213C11.9836 7.12953 11.8156 7.24487 11.7843 7.41913C11.7592 7.55578 11.8244 7.69243 11.946 7.75888C12.1203 7.79148 12.2883 7.67614 12.3196 7.50188C12.3447 7.36522 12.2795 7.22857 12.1579 7.16213Z" fill="#896024"/>
<path d="M6.03862 1.11989H6.54137C6.54137 1.11989 8.60642 0.844302 10.0029 0.856471C11.3341 0.86807 13.2914 1.11989 13.2914 1.11989H14.0826C14.8881 2.42443 15.4669 3.76408 15.7323 5.14022C13.1302 4.41413 10.0029 5.9488 10.0029 5.9488C10.0029 5.9488 6.82866 4.44092 4.29861 4.98287C4.70359 3.57416 5.20271 2.29579 6.03862 1.11989Z" fill="#7F2125"/>
<path d="M6.03862 1.11989H6.54137C6.54137 1.11989 8.60642 0.844302 10.0029 0.856471C11.3341 0.86807 13.2914 1.11989 13.2914 1.11989H14.0826M6.03862 1.11989C5.20271 2.29579 4.70359 3.57416 4.29861 4.98287C6.82866 4.44092 10.0029 5.9488 10.0029 5.9488C10.0029 5.9488 13.1302 4.41413 15.7323 5.14022C15.4669 3.76408 14.8881 2.42443 14.0826 1.11989M6.03862 1.11989C6.69256 1.81651 7.62421 1.37891 10.0029 1.91499C12.1566 1.39511 13.1935 1.85101 14.0826 1.11989" stroke="#67211F" stroke-width="0.0582032"/>
<path d="M10.0179 5.92614L10.0256 1.91857C11.6448 1.43049 12.8741 1.81154 14.0888 1.14368C14.6179 1.94165 15.4931 3.43581 15.7386 5.12885C13.6357 4.59775 11.4123 5.29885 10.0179 5.92614Z" fill="#67211F" stroke="#67211F" stroke-width="0.0365292"/>
<path d="M7.24275 1.57172C6.87511 1.33017 6.53018 1.46107 6.5453 1.11414L6.07176 1.1289C6.44086 1.51751 6.98656 1.51649 7.24275 1.57172Z" fill="#67211F"/>
<path d="M12.7155 1.52731C13.0831 1.2882 13.3774 1.44267 13.3623 1.09924H14.0878C13.7187 1.48393 12.9717 1.47264 12.7155 1.52731Z" fill="#67211F" fill-opacity="0.56"/>
<path d="M10.0732 1.15818L9.99059 1.87053L10.1422 1.86027L10.0732 1.15818Z" fill="#67211F" stroke="#67211F" stroke-width="0.0885594"/>
<path d="M8.0877 1.65261C7.8204 1.63796 7.65947 1.6233 7.43849 1.60864C7.30103 3.15843 7.24826 3.54219 7.53468 5.07722C7.92313 5.17697 8.21687 5.27109 8.5522 5.37242C7.76588 3.96948 7.98439 3.06822 8.0877 1.65261Z" fill="#D60000" stroke="#67211F" stroke-width="0.0365292"/>
<path d="M7.65428 1.63084L7.46053 1.61597L7.42178 1.89854L7.65428 1.63084Z" fill="#398F00" stroke="#67211F" stroke-width="0.00737995"/>
<path d="M7.33794 2.67177L8.06352 1.85096L8.07116 1.66775L7.65108 1.6311L7.42195 1.89493L7.33794 2.67177Z" fill="#FF7F00" stroke="#67211F" stroke-width="0.00737995"/>
<path d="M7.81164 2.12934C7.81164 2.12934 7.57996 1.87529 7.49849 1.80688L7.42211 1.89483L7.34573 2.66433C7.45775 2.53486 7.81164 2.12934 7.81164 2.12934Z" fill="#D60000" stroke="#67211F" stroke-width="0.00737995"/>
<path d="M8.0333 2.73758C8.03408 2.42132 8.04167 2.2252 8.06385 1.85083L7.3459 2.6643C7.32033 2.98702 7.31423 3.16504 7.30771 3.47776L8.0333 2.73758Z" fill="#007FFF" stroke="#67211F" stroke-width="0.00590396"/>
<path d="M7.85763 2.91371L7.49865 2.48865L7.3459 2.66453C7.32597 2.98296 7.31641 3.15965 7.30771 3.47801L7.85763 2.91371Z" fill="#398F00" stroke="#67211F" stroke-width="0.00590396"/>
<path d="M7.88818 3.6532L7.53684 3.2428L7.30771 3.47731C7.31535 3.8071 7.33826 3.95367 7.3612 4.22483L7.88818 3.6532Z" fill="#D60000" stroke="#67211F" stroke-width="0.00590396"/>
<path d="M7.8568 4.48902L7.50547 4.07129L7.36035 4.22519C7.42145 4.56231 7.43673 4.65025 7.49783 4.89942L7.8568 4.48902Z" fill="#007FFF" stroke="#67211F" stroke-width="0.00590396"/>
<path d="M7.95357 5.18706L7.6082 4.77466L7.50075 4.89985L7.54926 5.06397L7.95357 5.18706Z" fill="#FF7F00" stroke="#67211F" stroke-width="0.00590396"/>
<path d="M8.07341 3.45551C8.04624 3.20914 8.03598 3.05717 8.03523 2.7373L7.53877 3.24298C7.7679 3.50681 7.72208 3.44818 7.89011 3.65338L8.07341 3.45551Z" fill="#FF7F00" stroke="#67211F" stroke-width="0.00590396"/>
<path d="M8.16441 4.13712C8.13386 3.90994 8.09567 3.79268 8.07276 3.46289L7.50757 4.07117C7.73116 4.35101 7.6867 4.28816 7.8589 4.4815L8.16441 4.13712Z" fill="#398F00" stroke="#67211F" stroke-width="0.00590396"/>
<path d="M8.33829 4.78958C8.26956 4.54773 8.23137 4.44513 8.16263 4.13733L7.60507 4.77492C7.78074 4.99478 7.78074 4.99478 7.95641 5.19265L8.33829 4.78958Z" fill="#D60000" stroke="#67211F" stroke-width="0.00590396"/>
<path d="M8.55583 5.3579C8.38017 5.14537 8.3912 5.1559 8.20789 4.92871L7.94533 5.18078C8.26753 5.2638 8.26189 5.26196 8.26189 5.26196L8.55583 5.3579Z" fill="#398F00" stroke="#67211F" stroke-width="0.00590396"/>
<path d="M8.33905 4.78955L8.20857 4.92947L8.54627 5.34188H8.55395L8.33905 4.78955Z" fill="#007FFF" stroke="#67211F" stroke-width="0.00590396"/>
<path d="M8.11053 3.80185L8.07216 3.47046L8.02611 3.51465L7.95703 3.58829L8.11053 3.80185Z" fill="#007FFF" stroke="#67211F" stroke-width="0.00590396"/>
<g filter="url(#filter0_d_1206_12218)">
<path d="M9.07953 2.5569L9.20283 2.36984C9.20283 2.36984 9.33679 2.91847 9.24327 3.26943C9.1689 3.5485 8.89473 3.91266 8.89473 3.91266C8.76924 4.22708 8.77727 4.39953 8.8453 4.70455L8.59506 4.9933C8.59506 4.9933 8.51769 4.59349 8.39268 4.39741C8.2113 4.11292 7.91202 4.19029 7.72747 3.94024C7.45421 3.57001 7.59589 2.78837 7.59589 2.78837L7.81762 2.97678C7.81762 2.97678 7.95199 2.78216 8.08331 2.50286C8.13034 2.40284 8.17698 2.29196 8.21691 2.17526C8.27796 1.99688 8.34593 1.71002 8.34593 1.71002L8.47411 1.96746L8.57719 1.83058C8.57719 1.83058 8.58618 2.0279 8.62422 2.13825C8.71152 2.39149 8.81179 2.48368 9.07953 2.5569Z" fill="url(#paint3_linear_1206_12218)"/>
<path d="M9.07953 2.5569C9.12768 2.48385 9.20283 2.36984 9.20283 2.36984C9.20283 2.36984 9.33679 2.91847 9.24327 3.26943C9.1689 3.5485 8.89473 3.91266 8.89473 3.91266C8.76924 4.22708 8.77727 4.39953 8.8453 4.70455L8.59506 4.9933C8.59506 4.9933 8.51769 4.59349 8.39268 4.39741C8.2113 4.11292 7.91202 4.19029 7.72747 3.94024C7.45421 3.57001 7.59589 2.78837 7.59589 2.78837L7.81762 2.97678M9.07953 2.5569C8.81179 2.48368 8.71152 2.39149 8.62422 2.13825C8.58618 2.0279 8.57719 1.83058 8.57719 1.83058L8.47411 1.96746M9.07953 2.5569C9.07219 2.58337 8.85684 3.03998 8.85684 3.03998C8.85684 3.03998 8.68844 2.72353 8.61272 2.50893M7.81762 2.97678C7.94447 3.11996 7.96355 3.21353 7.9995 3.37943L8.16412 2.78578L8.41531 3.15023L8.45918 2.3569L8.61272 2.50893M7.81762 2.97678C7.81762 2.97678 7.95199 2.78216 8.08331 2.50286C8.13034 2.40284 8.17698 2.29196 8.21691 2.17526C8.27796 1.99688 8.34593 1.71002 8.34593 1.71002L8.47411 1.96746M8.47411 1.96746C8.47411 1.96746 8.53991 2.30259 8.61272 2.50893" stroke="#F8F7FC" stroke-width="0.0365292"/>
</g>
</g>
<defs>
<filter id="filter0_d_1206_12218" x="7.54083" y="1.65649" width="1.88089" height="3.48925" filterUnits="userSpaceOnUse" color-interpolation-filters="sRGB">
<feFlood flood-opacity="0" result="BackgroundImageFix"/>
<feColorMatrix in="SourceAlpha" type="matrix" values="0 0 0 0 0 0 0 0 0 0 0 0 0 0 0 0 0 0 127 0" result="hardAlpha"/>
<feOffset dx="0.0737995" dy="0.0590396"/>
<feGaussianBlur stdDeviation="0.0265678"/>
<feComposite in2="hardAlpha" operator="out"/>
<feColorMatrix type="matrix" values="0 0 0 0 0 0 0 0 0 0 0 0 0 0 0 0 0 0 0.25 0"/>
<feBlend mode="normal" in2="BackgroundImageFix" result="effect1_dropShadow_1206_12218"/>
<feBlend mode="normal" in="SourceGraphic" in2="effect1_dropShadow_1206_12218" result="shape"/>
</filter>
<radialGradient id="paint0_radial_1206_12218" cx="0" cy="0" r="1" gradientUnits="userSpaceOnUse" gradientTransform="translate(9.97089 9.56088) scale(7.11802 7.11799)">
<stop offset="0.5" stop-color="#FDE030"/>
<stop offset="0.92" stop-color="#F7C02B"/>
<stop offset="1" stop-color="#F4A223"/>
</radialGradient>
<linearGradient id="paint1_linear_1206_12218" x1="9.97089" y1="16.5464" x2="9.97089" y2="2.57532" gradientUnits="userSpaceOnUse">
<stop offset="0.16" stop-color="#F4A223"/>
<stop offset="0.33" stop-color="#F7C02B"/>
<stop offset="0.81" stop-color="#FDE030" stop-opacity="0"/>
</linearGradient>
<radialGradient id="paint2_radial_1206_12218" cx="0" cy="0" r="1" gradientUnits="userSpaceOnUse" gradientTransform="translate(10.2016 11.5938) rotate(85.5666) scale(5.23534 3.77505)">
<stop stop-color="#FFF176"/>
<stop offset="0.1478" stop-color="#FFEE6E"/>
<stop offset="0.3769" stop-color="#FFE658"/>
<stop offset="0.6585" stop-color="#FFD835"/>
<stop offset="0.9793" stop-color="#FFC503"/>
<stop offset="1" stop-color="#FFC400"/>
</radialGradient>
<linearGradient id="paint3_linear_1206_12218" x1="8.7559" y1="1.81616" x2="7.97489" y2="4.83274" gradientUnits="userSpaceOnUse">
<stop stop-color="#C9C9C9"/>
<stop offset="1" stop-color="#939297"/>
</linearGradient>
<clipPath id="clip0_1206_12218">
<rect width="17.996" height="17.996" fill="white" transform="translate(0.964325 -0.00390625)"/>
</clipPath>
</defs>
</svg>
