<svg width="19" height="18" viewBox="0 0 19 18" fill="none" xmlns="http://www.w3.org/2000/svg">
<g clip-path="url(#clip0_1206_12433)">
<path d="M9.89078 16.5008C6.40423 16.5008 2.64276 14.3139 2.64276 9.51522C2.64276 4.71656 6.40423 2.52966 9.89078 2.52966C11.8277 2.52966 13.6148 3.16699 14.9394 4.32916C16.3765 5.60381 17.1388 7.40331 17.1388 9.51522C17.1388 11.6271 16.3765 13.4141 14.9394 14.6888C13.6148 15.851 11.8153 16.5008 9.89078 16.5008Z" fill="url(#paint0_radial_1206_12433)"/>
<path d="M15.8751 5.36292C16.5411 6.43762 16.8885 7.71726 16.8885 9.14062C16.8885 11.2525 16.1263 13.0395 14.6891 14.3142C13.3645 15.4764 11.565 16.1262 9.64053 16.1262C7.38365 16.1262 5.01179 15.2077 3.61967 13.2595C4.96431 15.4664 7.49237 16.5011 9.89046 16.5011C11.8149 16.5011 13.6144 15.8513 14.9391 14.6891C16.3762 13.4144 17.1385 11.6274 17.1385 9.51551C17.1385 7.92345 16.7048 6.50885 15.8751 5.36292Z" fill="#EB8F00"/>
<path opacity="0.8" d="M5.34729 11.6925C6.55508 11.6925 7.53419 10.7134 7.53419 9.50562C7.53419 8.29783 6.55508 7.31873 5.34729 7.31873C4.13949 7.31873 3.16039 8.29783 3.16039 9.50562C3.16039 10.7134 4.13949 11.6925 5.34729 11.6925Z" fill="url(#paint1_radial_1206_12433)"/>
<path opacity="0.8" d="M14.5343 11.6925C15.7421 11.6925 16.7212 10.7134 16.7212 9.50562C16.7212 8.29783 15.7421 7.31873 14.5343 7.31873C13.3265 7.31873 12.3474 8.29783 12.3474 9.50562C12.3474 10.7134 13.3265 11.6925 14.5343 11.6925Z" fill="url(#paint2_radial_1206_12433)"/>
<path d="M14.5241 9.78353C13.2407 10.5283 11.6561 10.9694 9.93909 10.9694C8.22206 10.9694 6.6375 10.5283 5.3541 9.78353C5.11791 9.64732 4.87048 9.94223 5.04668 10.1484C6.20886 11.5068 7.96838 12.3728 9.93909 12.3728C11.9098 12.3728 13.6693 11.5068 14.8315 10.1484C15.009 9.94098 14.7603 9.64607 14.5241 9.78353Z" fill="#422B0D"/>
<path d="M8.13486 7.17028C8.13486 7.17028 8.12861 7.16153 8.11486 7.14529C8.10237 7.12904 8.08487 7.10655 8.06238 7.07781C8.04363 7.05781 8.02114 7.03407 7.9949 7.00658C7.96865 6.97658 7.93616 6.94534 7.90367 6.91285C7.86993 6.88161 7.83494 6.84912 7.7987 6.82288C7.76371 6.79413 7.72497 6.77289 7.69373 6.7554C7.66124 6.7354 7.63125 6.7304 7.6125 6.72415C7.60251 6.7204 7.59376 6.7204 7.58626 6.71915C7.58251 6.7204 7.57876 6.71791 7.57501 6.71915L7.57001 6.7204H7.56751H7.56626C7.58126 6.7204 7.53252 6.72165 7.60001 6.71915L7.53127 6.72165C7.51378 6.72165 7.52503 6.7229 7.52628 6.7229C7.53002 6.7229 7.53252 6.7229 7.53502 6.72165C7.54502 6.71791 7.53502 6.72165 7.53252 6.72165C7.52878 6.72165 7.52378 6.7229 7.51878 6.7254C7.49878 6.73165 7.46879 6.73665 7.43755 6.75664C7.40631 6.77414 7.36757 6.79538 7.33258 6.82413C7.29759 6.85162 7.26135 6.88286 7.22761 6.9141C7.16263 6.97783 7.10514 7.04157 7.06515 7.0878C7.02391 7.13529 7.00142 7.16278 7.00142 7.16278L6.97268 7.19652C6.80147 7.39647 6.48656 7.43021 6.27037 7.27275C6.12291 7.16528 6.05918 6.99783 6.08667 6.83787C6.08667 6.83787 6.09542 6.78664 6.12041 6.69791C6.14665 6.60919 6.19039 6.48297 6.27662 6.33426C6.36284 6.1868 6.48781 6.0131 6.699 5.8544C6.80272 5.77692 6.92894 5.69944 7.0789 5.64695C7.11514 5.63321 7.15388 5.62071 7.19387 5.61071C7.23511 5.60072 7.2676 5.58947 7.32383 5.58197L7.40131 5.57072C7.42505 5.56822 7.46004 5.56448 7.46504 5.56448L7.53377 5.55948L7.57251 5.55823H7.57626H7.58376L7.60001 5.55948L7.6325 5.56073L7.69623 5.56448C7.73872 5.56822 7.77996 5.57572 7.8212 5.58197C7.90242 5.59697 7.98365 5.61821 8.05738 5.6457C8.20734 5.69819 8.33355 5.77442 8.43728 5.85315C8.64847 6.01185 8.77343 6.18555 8.85966 6.33301C8.9034 6.40674 8.93589 6.47672 8.95963 6.53796C8.98588 6.59669 9.00462 6.65917 9.01962 6.70541C9.03336 6.7504 9.03336 6.77414 9.03961 6.79538C9.04336 6.81538 9.04461 6.82663 9.04461 6.82663C9.09085 7.07906 8.90465 7.31774 8.63097 7.35898C8.43228 7.39022 8.24358 7.31024 8.13486 7.17028Z" fill="#422B0D"/>
<path d="M12.8198 7.17028C12.8198 7.17028 12.8136 7.16153 12.7998 7.14529C12.7873 7.12904 12.7698 7.10655 12.7473 7.07781C12.7286 7.05781 12.7061 7.03407 12.6798 7.00658C12.6536 6.97658 12.6211 6.94534 12.5886 6.91285C12.5549 6.88161 12.5199 6.84912 12.4837 6.82288C12.4487 6.79413 12.4099 6.77289 12.3787 6.7554C12.3462 6.7354 12.3162 6.7304 12.2975 6.72415C12.2875 6.7204 12.2787 6.7204 12.2712 6.71915C12.2675 6.7204 12.2637 6.71791 12.26 6.71915L12.255 6.7204H12.2525H12.2512H12.25C12.265 6.7204 12.2162 6.72165 12.2837 6.71915L12.215 6.72165C12.1975 6.72165 12.2087 6.7229 12.21 6.7229C12.2137 6.7229 12.2162 6.7229 12.2187 6.72165C12.2287 6.71791 12.2187 6.72165 12.2162 6.72165C12.2125 6.72165 12.2075 6.7229 12.2025 6.7254C12.1825 6.73165 12.1525 6.73665 12.1213 6.75664C12.09 6.77414 12.0513 6.79538 12.0163 6.82413C11.9813 6.85162 11.945 6.88286 11.9113 6.9141C11.8463 6.97783 11.7888 7.04157 11.7489 7.0878C11.7076 7.13529 11.6851 7.16278 11.6851 7.16278L11.6564 7.19652C11.4852 7.39647 11.1703 7.43021 10.9541 7.27275C10.8066 7.16528 10.7429 6.99783 10.7704 6.83787C10.7704 6.83787 10.7791 6.78664 10.8041 6.69791C10.8304 6.60919 10.8741 6.48297 10.9603 6.33426C11.0465 6.1868 11.1715 6.0131 11.3827 5.8544C11.4864 5.77692 11.6126 5.69944 11.7626 5.64695C11.7988 5.63321 11.8376 5.62071 11.8776 5.61071C11.9188 5.60072 11.9513 5.58947 12.0075 5.58197L12.085 5.57072C12.1088 5.56822 12.1437 5.56448 12.1487 5.56448L12.2175 5.55948L12.2562 5.55823H12.26H12.2675L12.2837 5.55948L12.3162 5.56073L12.3799 5.56448C12.4224 5.56822 12.4637 5.57572 12.5049 5.58197C12.5861 5.59697 12.6674 5.61821 12.7411 5.6457C12.891 5.69819 13.0173 5.77442 13.121 5.85315C13.3322 6.01185 13.4571 6.18555 13.5434 6.33301C13.5871 6.40674 13.6196 6.47672 13.6433 6.53796C13.6696 6.59669 13.6883 6.65917 13.7033 6.70541C13.7171 6.7504 13.7171 6.77414 13.7233 6.79538C13.7271 6.81538 13.7283 6.82663 13.7283 6.82663C13.7745 7.07906 13.5883 7.31774 13.3147 7.35898C13.116 7.39022 12.9273 7.31024 12.8198 7.17028Z" fill="#422B0D"/>
<path d="M16.4766 13.6815C15.6794 13.1641 14.8146 13.679 14.8146 13.679C14.8146 13.679 14.9933 12.8454 14.326 12.3568C13.525 11.7695 12.4265 11.9657 11.9754 13.2166C11.4593 14.6474 12.7827 17.1393 12.7827 17.1393C12.7827 17.1393 15.357 17.2405 16.5566 16.1283C17.5326 15.2248 17.079 14.0726 16.4766 13.6815Z" fill="#F44336"/>
<path d="M16.4772 13.6825C16.4772 13.6825 16.2797 13.5575 16.1623 13.535C16.1623 13.535 16.5547 13.9862 16.6146 14.6035C16.6534 15.0109 16.5472 15.4895 16.0885 15.9594C15.0938 16.9778 12.9556 17.134 12.7969 17.1415C12.9856 17.1478 15.405 17.199 16.5584 16.1306C17.5331 15.2258 17.0795 14.0736 16.4772 13.6825Z" fill="#C62828"/>
<path d="M14.7724 13.812C14.8073 13.682 14.8223 13.5471 14.8273 13.4671C14.8511 13.0647 14.7524 12.8123 14.5324 12.5524C14.3112 12.2924 13.9813 12.1525 13.9813 12.1525C13.9813 12.1525 14.2725 12.3499 14.36 12.8623C14.4062 13.1309 14.3875 13.4084 14.3237 13.6745C14.3012 13.7708 14.2725 13.8682 14.2887 13.9657C14.305 14.0632 14.3787 14.1594 14.4774 14.1619C14.6361 14.1669 14.7236 13.9945 14.7724 13.812Z" fill="#C62828"/>
<path d="M12.8609 12.6593C13.1358 12.4744 13.5357 12.3394 13.7819 12.6543C13.9118 12.8218 13.8119 13.1504 13.5632 13.2367C13.1421 13.3804 13.0746 13.5416 12.9933 13.6665C12.8959 13.8177 12.8034 14.0052 12.6272 14.0414C12.451 14.0777 12.3473 13.949 12.3398 13.6915C12.3385 13.639 12.2985 13.038 12.8609 12.6593Z" fill="#FF847A"/>
<path d="M5.44123 9.12444C4.55148 9.4581 4.4515 10.4591 4.4515 10.4591C4.4515 10.4591 3.88666 9.8205 3.09812 10.0667C2.14963 10.3628 1.65477 11.3626 2.39332 12.4685C3.23808 13.7332 6.02857 14.1493 6.02857 14.1493C6.02857 14.1493 7.63938 12.1386 7.45818 10.5128C7.31072 9.19067 6.1148 8.87201 5.44123 9.12444Z" fill="#F44336"/>
<path d="M5.43852 9.12516C5.43852 9.12516 5.22108 9.21014 5.13361 9.29137C5.13361 9.29137 5.72969 9.24388 6.26205 9.56254C6.61195 9.77248 6.93436 10.1424 7.03933 10.7909C7.26677 12.1968 6.12209 14.0088 6.03461 14.1413C6.15083 13.9926 7.63042 12.0768 7.45547 10.5148C7.30801 9.19139 6.11209 8.87273 5.43852 9.12516Z" fill="#C62828"/>
<path d="M4.53597 10.5722C4.45224 10.4672 4.35227 10.3748 4.28978 10.3235C3.97987 10.0649 3.71869 9.99488 3.37878 10.0174C3.03763 10.0399 2.73021 10.2236 2.73021 10.2236C2.73021 10.2236 3.06262 10.1061 3.52624 10.3398C3.76992 10.4622 3.98237 10.6422 4.15857 10.8509C4.2223 10.9259 4.28478 11.0071 4.37226 11.0521C4.45974 11.0971 4.5822 11.0946 4.64219 11.0171C4.73966 10.8921 4.65343 10.7184 4.53597 10.5722Z" fill="#C62828"/>
<path d="M2.46971 11.4235C2.48471 11.0924 2.61343 10.69 3.01332 10.68C3.22576 10.675 3.4307 10.9512 3.35072 11.2024C3.21701 11.6272 3.30574 11.7759 3.35822 11.9159C3.42195 12.0846 3.51818 12.2696 3.4432 12.4333C3.36822 12.597 3.20201 12.6045 2.99082 12.457C2.94708 12.4258 2.44097 12.1009 2.46971 11.4235Z" fill="#FF847A"/>
<path d="M5.98266 1.11989H6.49994C6.49994 1.11989 8.62468 0.844302 10.0615 0.856471C11.4312 0.86807 13.445 1.11989 13.445 1.11989H14.2591C15.0879 2.42443 15.6834 3.76408 15.9565 5.14022C13.2792 4.41413 10.0615 5.9488 10.0615 5.9488C10.0615 5.9488 6.79554 4.44092 4.19237 4.98287C4.60905 3.57416 5.12259 2.29579 5.98266 1.11989Z" fill="#7F2125"/>
<path d="M5.98266 1.11989H6.49994C6.49994 1.11989 8.62468 0.844302 10.0615 0.856471C11.4312 0.86807 13.445 1.11989 13.445 1.11989H14.2591M5.98266 1.11989C5.12259 2.29579 4.60905 3.57416 4.19237 4.98287C6.79554 4.44092 10.0615 5.9488 10.0615 5.9488C10.0615 5.9488 13.2792 4.41413 15.9565 5.14022C15.6834 3.76408 15.0879 2.42443 14.2591 1.11989M5.98266 1.11989C6.6555 1.81651 7.61408 1.37891 10.0615 1.91499C12.2774 1.39511 13.3443 1.85101 14.2591 1.11989" stroke="#67211F" stroke-width="0.0582032"/>
<path d="M10.0792 5.92614L10.087 1.91857C11.753 1.43049 13.0179 1.81154 14.2677 1.14368C14.8121 1.94165 15.7126 3.43581 15.9652 5.12885C13.8015 4.59775 11.5138 5.29885 10.0792 5.92614Z" fill="#67211F" stroke="#67211F" stroke-width="0.0365292"/>
<path d="M7.21968 1.57172C6.84141 1.33017 6.48651 1.46107 6.50207 1.11414L6.01485 1.1289C6.39461 1.51751 6.95609 1.51649 7.21968 1.57172Z" fill="#67211F"/>
<path d="M12.8539 1.52731C13.2321 1.2882 13.5349 1.44267 13.5194 1.09924H14.2659C13.8861 1.48393 13.1175 1.47264 12.8539 1.52731Z" fill="#67211F" fill-opacity="0.56"/>
<path d="M10.1346 1.15818L10.0496 1.87053L10.2057 1.86027L10.1346 1.15818Z" fill="#67211F" stroke="#67211F" stroke-width="0.0885594"/>
<path d="M8.09255 1.65261C7.81752 1.63796 7.65193 1.6233 7.42457 1.60864C7.28314 3.15843 7.22885 3.54219 7.52354 5.07722C7.92321 5.17697 8.22545 5.27109 8.57046 5.37242C7.76142 3.96948 7.98625 3.06822 8.09255 1.65261Z" fill="#D60000" stroke="#67211F" stroke-width="0.0365292"/>
<path d="M7.6458 1.63096L7.44645 1.61609L7.40659 1.89866L7.6458 1.63096Z" fill="#398F00" stroke="#67211F" stroke-width="0.00737995"/>
<path d="M7.31982 2.67165L8.06638 1.85084L8.07424 1.66762L7.64202 1.63098L7.40627 1.89481L7.31982 2.67165Z" fill="#FF7F00" stroke="#67211F" stroke-width="0.00737995"/>
<path d="M7.80699 2.12934C7.80699 2.12934 7.56861 1.87529 7.48479 1.80688L7.40621 1.89483L7.32762 2.66433C7.44288 2.53486 7.80699 2.12934 7.80699 2.12934Z" fill="#D60000" stroke="#67211F" stroke-width="0.00737995"/>
<path d="M8.03518 2.73758C8.03598 2.42132 8.0438 2.2252 8.06661 1.85083L7.32791 2.6643C7.3016 2.98702 7.29533 3.16504 7.28862 3.47776L8.03518 2.73758Z" fill="#007FFF" stroke="#67211F" stroke-width="0.00590396"/>
<path d="M7.85443 2.91371L7.48508 2.48865L7.32791 2.66453C7.30741 2.98296 7.29757 3.15965 7.28862 3.47801L7.85443 2.91371Z" fill="#398F00" stroke="#67211F" stroke-width="0.00590396"/>
<path d="M7.88586 3.6532L7.52437 3.2428L7.28862 3.47731C7.29648 3.8071 7.32005 3.95367 7.34366 4.22483L7.88586 3.6532Z" fill="#D60000" stroke="#67211F" stroke-width="0.00590396"/>
<path d="M7.85402 4.48902L7.49253 4.07129L7.34322 4.22519C7.40608 4.56231 7.4218 4.65025 7.48467 4.89942L7.85402 4.48902Z" fill="#007FFF" stroke="#67211F" stroke-width="0.00590396"/>
<path d="M7.95148 5.18706L7.59612 4.77466L7.48557 4.89985L7.53548 5.06397L7.95148 5.18706Z" fill="#FF7F00" stroke="#67211F" stroke-width="0.00590396"/>
<path d="M8.07173 3.45551C8.04377 3.20914 8.03321 3.05717 8.03244 2.7373L7.52164 3.24298C7.75739 3.50681 7.71024 3.44818 7.88313 3.65338L8.07173 3.45551Z" fill="#FF7F00" stroke="#67211F" stroke-width="0.00590396"/>
<path d="M8.16822 4.13712C8.13678 3.90994 8.09749 3.79268 8.07391 3.46289L7.49239 4.07117C7.72244 4.35101 7.67669 4.28816 7.85388 4.4815L8.16822 4.13712Z" fill="#398F00" stroke="#67211F" stroke-width="0.00590396"/>
<path d="M8.34917 4.78958C8.27845 4.54773 8.23915 4.44513 8.16843 4.13733L7.59476 4.77492C7.7755 4.99478 7.7755 4.99478 7.95625 5.19265L8.34917 4.78958Z" fill="#D60000" stroke="#67211F" stroke-width="0.00590396"/>
<path d="M8.57389 5.3579C8.39315 5.14537 8.4045 5.1559 8.21589 4.92871L7.94574 5.18078C8.27725 5.2638 8.27145 5.26196 8.27145 5.26196L8.57389 5.3579Z" fill="#398F00" stroke="#67211F" stroke-width="0.00590396"/>
<path d="M8.35103 4.78955L8.21678 4.92947L8.56424 5.34188H8.57214L8.35103 4.78955Z" fill="#007FFF" stroke="#67211F" stroke-width="0.00590396"/>
<path d="M8.11538 3.80185L8.0759 3.47046L8.02851 3.51465L7.95744 3.58829L8.11538 3.80185Z" fill="#007FFF" stroke="#67211F" stroke-width="0.00590396"/>
<g filter="url(#filter0_d_1206_12433)">
<path d="M9.11254 2.5569L9.2394 2.36984C9.2394 2.36984 9.37724 2.91847 9.28101 3.26943C9.2045 3.5485 8.92241 3.91266 8.92241 3.91266C8.79329 4.22708 8.80155 4.39953 8.87154 4.70455L8.61407 4.9933C8.61407 4.9933 8.53447 4.59349 8.40584 4.39741C8.21922 4.11292 7.91129 4.19029 7.7214 3.94024C7.44025 3.57001 7.58603 2.78837 7.58603 2.78837L7.81416 2.97678C7.81416 2.97678 7.95242 2.78216 8.08753 2.50286C8.13592 2.40284 8.18391 2.29196 8.22499 2.17526C8.2878 1.99688 8.35774 1.71002 8.35774 1.71002L8.48962 1.96746L8.59569 1.83058C8.59569 1.83058 8.60493 2.0279 8.64407 2.13825C8.7339 2.39149 8.83706 2.48368 9.11254 2.5569Z" fill="url(#paint3_linear_1206_12433)"/>
<path d="M9.11254 2.5569C9.16208 2.48385 9.2394 2.36984 9.2394 2.36984C9.2394 2.36984 9.37724 2.91847 9.28101 3.26943C9.2045 3.5485 8.92241 3.91266 8.92241 3.91266C8.79329 4.22708 8.80155 4.39953 8.87154 4.70455L8.61407 4.9933C8.61407 4.9933 8.53447 4.59349 8.40584 4.39741C8.21922 4.11292 7.91129 4.19029 7.7214 3.94024C7.44025 3.57001 7.58603 2.78837 7.58603 2.78837L7.81416 2.97678M9.11254 2.5569C8.83706 2.48368 8.7339 2.39149 8.64407 2.13825C8.60493 2.0279 8.59569 1.83058 8.59569 1.83058L8.48962 1.96746M9.11254 2.5569C9.10499 2.58337 8.88342 3.03998 8.88342 3.03998C8.88342 3.03998 8.71015 2.72353 8.63224 2.50893M7.81416 2.97678C7.94467 3.11996 7.96431 3.21353 8.0013 3.37943L8.17068 2.78578L8.42912 3.15023L8.47427 2.3569L8.63224 2.50893M7.81416 2.97678C7.81416 2.97678 7.95242 2.78216 8.08753 2.50286C8.13592 2.40284 8.18391 2.29196 8.22499 2.17526C8.2878 1.99688 8.35774 1.71002 8.35774 1.71002L8.48962 1.96746M8.48962 1.96746C8.48962 1.96746 8.55732 2.30259 8.63224 2.50893" stroke="#F8F7FC" stroke-width="0.0365292"/>
</g>
<path d="M15.7844 1.80592C14.9021 2.15957 14.8246 3.16304 14.8246 3.16304C14.8246 3.16304 14.246 2.53696 13.4625 2.80064C12.5215 3.11805 12.0479 4.12777 12.8102 5.21747C13.6824 6.46337 16.4817 6.81828 16.4817 6.81828C16.4817 6.81828 18.0475 4.77259 17.8301 3.15054C17.6539 1.83216 16.4517 1.53849 15.7844 1.80592Z" fill="#F44336"/>
<path d="M15.7834 1.80592C15.7834 1.80592 15.5672 1.89464 15.4822 1.97837C15.4822 1.97837 16.0771 1.91714 16.6157 2.22455C16.9706 2.427 17.3005 2.78939 17.4205 3.43546C17.6791 4.83508 16.5744 6.67207 16.4895 6.80703C16.6032 6.65582 18.039 4.70886 17.8303 3.15054C17.6529 1.83216 16.4507 1.53849 15.7834 1.80592Z" fill="#C62828"/>
<path d="M14.9089 3.2739C14.8226 3.17018 14.7202 3.0802 14.6577 3.03022C14.3428 2.77904 14.0803 2.71406 13.7404 2.7453C13.4005 2.77529 13.0969 2.96524 13.0969 2.96524C13.0969 2.96524 13.4268 2.84027 13.8954 3.06396C14.1416 3.18143 14.3578 3.35638 14.539 3.56132C14.604 3.63505 14.6689 3.71503 14.7564 3.75877C14.8439 3.8025 14.9664 3.79626 15.0263 3.71753C15.1201 3.59006 15.0301 3.41886 14.9089 3.2739Z" fill="#C62828"/>
<path d="M12.8633 4.16936C12.8708 3.83821 12.992 3.43332 13.3906 3.41457C13.6031 3.40458 13.8143 3.677 13.7405 3.92943C13.6156 4.35681 13.708 4.50427 13.7643 4.64298C13.8305 4.81044 13.9317 4.99289 13.8605 5.15784C13.7893 5.32279 13.6231 5.33404 13.4094 5.19158C13.3619 5.16159 12.8483 4.84668 12.8633 4.16936Z" fill="#FF847A"/>
</g>
<defs>
<filter id="filter0_d_1206_12433" x="7.52983" y="1.65759" width="1.93065" height="3.4873" filterUnits="userSpaceOnUse" color-interpolation-filters="sRGB">
<feFlood flood-opacity="0" result="BackgroundImageFix"/>
<feColorMatrix in="SourceAlpha" type="matrix" values="0 0 0 0 0 0 0 0 0 0 0 0 0 0 0 0 0 0 127 0" result="hardAlpha"/>
<feOffset dx="0.0737995" dy="0.0590396"/>
<feGaussianBlur stdDeviation="0.0265678"/>
<feComposite in2="hardAlpha" operator="out"/>
<feColorMatrix type="matrix" values="0 0 0 0 0 0 0 0 0 0 0 0 0 0 0 0 0 0 0.25 0"/>
<feBlend mode="normal" in2="BackgroundImageFix" result="effect1_dropShadow_1206_12433"/>
<feBlend mode="normal" in="SourceGraphic" in2="effect1_dropShadow_1206_12433" result="shape"/>
</filter>
<radialGradient id="paint0_radial_1206_12433" cx="0" cy="0" r="1" gradientUnits="userSpaceOnUse" gradientTransform="translate(9.89078 9.51521) scale(7.11802 7.11799)">
<stop offset="0.5" stop-color="#FDE030"/>
<stop offset="0.9188" stop-color="#F7C02B"/>
<stop offset="1" stop-color="#F4A223"/>
</radialGradient>
<radialGradient id="paint1_radial_1206_12433" cx="0" cy="0" r="1" gradientUnits="userSpaceOnUse" gradientTransform="translate(5.34736 9.50547) scale(2.3791 2.26003)">
<stop stop-color="#ED7770"/>
<stop offset="0.9" stop-color="#ED7770" stop-opacity="0"/>
</radialGradient>
<radialGradient id="paint2_radial_1206_12433" cx="0" cy="0" r="1" gradientUnits="userSpaceOnUse" gradientTransform="translate(14.5346 9.50547) scale(2.3791 2.26003)">
<stop stop-color="#ED7770"/>
<stop offset="0.9" stop-color="#ED7770" stop-opacity="0"/>
</radialGradient>
<linearGradient id="paint3_linear_1206_12433" x1="8.77956" y1="1.81616" x2="8.01784" y2="4.84327" gradientUnits="userSpaceOnUse">
<stop stop-color="#C9C9C9"/>
<stop offset="1" stop-color="#939297"/>
</linearGradient>
<clipPath id="clip0_1206_12433">
<rect width="17.996" height="17.996" fill="white" transform="translate(0.968292 -0.00390625)"/>
</clipPath>
</defs>
</svg>
