<svg width="18" height="18" viewBox="0 0 18 18" fill="none" xmlns="http://www.w3.org/2000/svg">
<path d="M8.9689 16.7008C5.48236 16.7008 1.72089 14.5525 1.72089 9.8386C1.72089 5.1247 5.48236 2.97644 8.9689 2.97644C10.9059 2.97644 12.6929 3.6025 14.0175 4.74415C15.4546 5.99628 16.2169 7.76399 16.2169 9.8386C16.2169 11.9132 15.4546 13.6686 14.0175 14.9208C12.6929 16.0624 10.8934 16.7008 8.9689 16.7008Z" fill="url(#paint0_radial_1206_10703)"/>
<path d="M14.9543 5.75916C15.6203 6.81487 15.9677 8.07191 15.9677 9.47012C15.9677 11.5447 15.2054 13.3002 13.7683 14.5523C12.4437 15.6939 10.6442 16.3323 8.71971 16.3323C6.46282 16.3323 4.09097 15.43 2.69885 13.5162C4.04348 15.6841 6.57154 16.7006 8.96964 16.7006C10.8941 16.7006 12.6936 16.0622 14.0183 14.9206C15.4554 13.6684 16.2177 11.913 16.2177 9.8384C16.2177 8.27446 15.784 6.88484 14.9543 5.75916Z" fill="#EB8F00"/>
<path d="M6.5199 13.3247C6.74484 13.0792 7.34467 12.7968 8.18194 12.8091C9.29414 12.8337 9.89398 13.3247 9.89398 13.3247C10.2564 13.6193 10.0939 14.0735 9.70653 14.0367C9.0817 13.963 9.11919 13.8525 7.9945 13.828C7.18222 13.8157 6.79482 13.9385 6.75733 13.9385C6.5324 13.9508 6.44492 13.8648 6.40743 13.7175C6.36994 13.5948 6.40743 13.4352 6.5199 13.3247Z" fill="#422B0D"/>
<path d="M11.3053 7.49524C11.8552 7.49524 12.355 7.94944 12.355 8.71054C12.355 9.47164 11.8552 9.92584 11.3053 9.92584C10.7555 9.92584 10.2556 9.47164 10.2556 8.71054C10.2556 7.94944 10.7555 7.49524 11.3053 7.49524Z" fill="#422B0D"/>
<path d="M5.67081 7.70337C5.14595 7.70337 4.67108 8.13302 4.67108 8.85729C4.67108 9.58156 5.14595 10.0112 5.67081 10.0112C6.19566 10.0112 6.67053 9.58156 6.67053 8.85729C6.67053 8.13302 6.19566 7.70337 5.67081 7.70337Z" fill="#422B0D"/>
<path d="M11.1923 8.05375C11.0636 7.96537 10.8699 7.9936 10.745 8.17037C10.62 8.34837 10.6612 8.53496 10.7899 8.62335C10.9187 8.71173 11.1124 8.6835 11.2373 8.50673C11.3635 8.32873 11.321 8.14091 11.1923 8.05375Z" fill="#896024"/>
<path d="M14.3308 8.24341H13.631V9.34823H14.3308C14.6682 9.34823 15.0056 9.13954 15.0056 8.82037V8.77127C15.0056 8.43982 14.6682 8.24341 14.3308 8.24341ZM14.2683 9.18864C14.0309 9.18864 13.8434 9.00451 13.8434 8.78354C13.8434 8.56258 14.0309 8.37844 14.2683 8.37844C14.5057 8.37844 14.6932 8.56258 14.6932 8.78354C14.6932 9.00451 14.5057 9.18864 14.2683 9.18864Z" fill="#404040"/>
<path d="M14.2812 10.81C14.2437 10.81 14.2062 10.7855 14.2062 10.7486V10.1839C14.2062 10.1471 14.2312 10.1226 14.2687 10.1226H14.2812C14.3187 10.1226 14.3437 10.1471 14.3437 10.1839V10.7486C14.3437 10.7732 14.3187 10.81 14.2812 10.81Z" fill="#404040"/>
<path d="M14.2812 11.743C14.2437 11.743 14.2062 11.7184 14.2062 11.6816V11.1169C14.2062 11.0801 14.2312 11.0555 14.2687 11.0555H14.2812C14.3187 11.0555 14.3437 11.0801 14.3437 11.1169V11.6816C14.3437 11.7184 14.3187 11.743 14.2812 11.743Z" fill="#404040"/>
<path d="M14.2812 12.6874C14.2437 12.6874 14.2062 12.6629 14.2062 12.6261V12.0614C14.2062 12.0246 14.2312 12 14.2687 12H14.2812C14.3187 12 14.3437 12.0246 14.3437 12.0614V12.6261C14.3437 12.6629 14.3187 12.6874 14.2812 12.6874Z" fill="#404040"/>
<path d="M14.2812 13.6323C14.2437 13.6323 14.2062 13.6077 14.2062 13.5709V13.0062C14.2062 12.9694 14.2312 12.9448 14.2687 12.9448H14.2812C14.3187 12.9448 14.3437 12.9694 14.3437 13.0062V13.5709C14.3437 13.6077 14.3187 13.6323 14.2812 13.6323Z" fill="#404040"/>
<path d="M14.2812 14.5787C14.2437 14.5787 14.2062 14.5541 14.2062 14.5173V13.9526C14.2062 13.9158 14.2312 13.8912 14.2687 13.8912H14.2812C14.3187 13.8912 14.3437 13.9158 14.3437 13.9526V14.5173C14.3437 14.5541 14.3187 14.5787 14.2812 14.5787Z" fill="#404040"/>
<path d="M14.2812 15.5237C14.2437 15.5237 14.2062 15.4992 14.2062 15.4624V14.8977C14.2062 14.8609 14.2312 14.8363 14.2687 14.8363H14.2812C14.3187 14.8363 14.3437 14.8609 14.3437 14.8977V15.4624C14.3437 15.4992 14.3187 15.5237 14.2812 15.5237Z" fill="#404040"/>
<path d="M14.2812 16.4681C14.2437 16.4681 14.2062 16.4435 14.2062 16.4067V15.842C14.2062 15.8052 14.2312 15.7806 14.2687 15.7806H14.2812C14.3187 15.7806 14.3437 15.8052 14.3437 15.842V16.4067C14.3437 16.4435 14.3187 16.4681 14.2812 16.4681Z" fill="#404040"/>
<path d="M14.2812 9.81598C14.2437 9.81598 14.2062 9.79143 14.2062 9.7546V9.18992C14.2062 9.15309 14.2312 9.12854 14.2687 9.12854H14.2812C14.3187 9.12854 14.3437 9.15309 14.3437 9.18992V9.7546C14.3437 9.77916 14.3187 9.81598 14.2812 9.81598Z" fill="#404040"/>
<path fill-rule="evenodd" clip-rule="evenodd" d="M14.2806 9.72835C14.1357 9.72835 14.0182 9.84377 14.0182 9.98614C14.0182 10.1285 14.1357 10.2439 14.2806 10.2439C14.4256 10.2439 14.5431 10.1285 14.5431 9.98614C14.5431 9.84377 14.4256 9.72835 14.2806 9.72835ZM13.8932 9.98614C13.8932 9.77597 14.0667 9.60559 14.2806 9.60559C14.4946 9.60559 14.668 9.77597 14.668 9.98614C14.668 10.1963 14.4946 10.3667 14.2806 10.3667C14.0667 10.3667 13.8932 10.1963 13.8932 9.98614Z" fill="#404040"/>
<path fill-rule="evenodd" clip-rule="evenodd" d="M14.2806 10.6748C14.1357 10.6748 14.0182 10.7902 14.0182 10.9326C14.0182 11.0749 14.1357 11.1903 14.2806 11.1903C14.4256 11.1903 14.5431 11.0749 14.5431 10.9326C14.5431 10.7902 14.4256 10.6748 14.2806 10.6748ZM13.8932 10.9326C13.8932 10.7224 14.0667 10.552 14.2806 10.552C14.4946 10.552 14.668 10.7224 14.668 10.9326C14.668 11.1427 14.4946 11.3131 14.2806 11.3131C14.0667 11.3131 13.8932 11.1427 13.8932 10.9326Z" fill="#404040"/>
<path fill-rule="evenodd" clip-rule="evenodd" d="M14.2806 11.6077C14.1357 11.6077 14.0182 11.7232 14.0182 11.8655C14.0182 12.0079 14.1357 12.1233 14.2806 12.1233C14.4256 12.1233 14.5431 12.0079 14.5431 11.8655C14.5431 11.7232 14.4256 11.6077 14.2806 11.6077ZM13.8932 11.8655C13.8932 11.6554 14.0667 11.485 14.2806 11.485C14.4946 11.485 14.668 11.6554 14.668 11.8655C14.668 12.0757 14.4946 12.2461 14.2806 12.2461C14.0667 12.2461 13.8932 12.0757 13.8932 11.8655Z" fill="#404040"/>
<path fill-rule="evenodd" clip-rule="evenodd" d="M14.2806 12.5526C14.1357 12.5526 14.0182 12.668 14.0182 12.8104C14.0182 12.9527 14.1357 13.0681 14.2806 13.0681C14.4256 13.0681 14.5431 12.9527 14.5431 12.8104C14.5431 12.668 14.4256 12.5526 14.2806 12.5526ZM13.8932 12.8104C13.8932 12.6002 14.0667 12.4298 14.2806 12.4298C14.4946 12.4298 14.668 12.6002 14.668 12.8104C14.668 13.0205 14.4946 13.1909 14.2806 13.1909C14.0667 13.1909 13.8932 13.0205 13.8932 12.8104Z" fill="#404040"/>
<path fill-rule="evenodd" clip-rule="evenodd" d="M14.2806 13.4852C14.1357 13.4852 14.0182 13.6006 14.0182 13.743C14.0182 13.8854 14.1357 14.0008 14.2806 14.0008C14.4256 14.0008 14.5431 13.8854 14.5431 13.743C14.5431 13.6006 14.4256 13.4852 14.2806 13.4852ZM13.8932 13.743C13.8932 13.5328 14.0667 13.3624 14.2806 13.3624C14.4946 13.3624 14.668 13.5328 14.668 13.743C14.668 13.9531 14.4946 14.1235 14.2806 14.1235C14.0667 14.1235 13.8932 13.9531 13.8932 13.743Z" fill="#404040"/>
<path fill-rule="evenodd" clip-rule="evenodd" d="M14.2806 14.4299C14.1357 14.4299 14.0182 14.5453 14.0182 14.6877C14.0182 14.8301 14.1357 14.9455 14.2806 14.9455C14.4256 14.9455 14.5431 14.8301 14.5431 14.6877C14.5431 14.5453 14.4256 14.4299 14.2806 14.4299ZM13.8932 14.6877C13.8932 14.4775 14.0667 14.3071 14.2806 14.3071C14.4946 14.3071 14.668 14.4775 14.668 14.6877C14.668 14.8978 14.4946 15.0682 14.2806 15.0682C14.0667 15.0682 13.8932 14.8978 13.8932 14.6877Z" fill="#404040"/>
<path fill-rule="evenodd" clip-rule="evenodd" d="M14.2806 15.3646C14.1357 15.3646 14.0182 15.48 14.0182 15.6224C14.0182 15.7647 14.1357 15.8802 14.2806 15.8802C14.4256 15.8802 14.5431 15.7647 14.5431 15.6224C14.5431 15.48 14.4256 15.3646 14.2806 15.3646ZM13.8932 15.6224C13.8932 15.4122 14.0667 15.2418 14.2806 15.2418C14.4946 15.2418 14.668 15.4122 14.668 15.6224C14.668 15.8325 14.4946 16.0029 14.2806 16.0029C14.0667 16.0029 13.8932 15.8325 13.8932 15.6224Z" fill="#404040"/>
<path fill-rule="evenodd" clip-rule="evenodd" d="M14.2797 16.3089C14.1347 16.3089 14.0172 16.4243 14.0172 16.5667C14.0172 16.7091 14.1347 16.8245 14.2797 16.8245C14.4246 16.8245 14.5421 16.7091 14.5421 16.5667C14.5421 16.4243 14.4246 16.3089 14.2797 16.3089ZM13.8923 16.5667C13.8923 16.3565 14.0657 16.1862 14.2797 16.1862C14.4936 16.1862 14.6671 16.3565 14.6671 16.5667C14.6671 16.7769 14.4936 16.9473 14.2797 16.9473C14.0657 16.9473 13.8923 16.7769 13.8923 16.5667Z" fill="#404040"/>
<path d="M10.9697 11.239C12.3915 11.239 13.544 10.1068 13.544 8.71021C13.544 7.31358 12.3915 6.1814 10.9697 6.1814C9.548 6.1814 8.39545 7.31358 8.39545 8.71021C8.39545 10.1068 9.548 11.239 10.9697 11.239Z" fill="#CCCCCC" fill-opacity="0.5"/>
<path fill-rule="evenodd" clip-rule="evenodd" d="M10.9683 6.39633C9.66731 6.39633 8.61267 7.43233 8.61267 8.71031C8.61267 9.98829 9.66731 11.0243 10.9683 11.0243C12.2692 11.0243 13.3239 9.98829 13.3239 8.71031C13.3239 7.43233 12.2692 6.39633 10.9683 6.39633ZM8.17529 8.71031C8.17529 7.19504 9.42576 5.96667 10.9683 5.96667C12.5108 5.96667 13.7613 7.19504 13.7613 8.71031C13.7613 10.2256 12.5108 11.4539 10.9683 11.4539C9.42576 11.4539 8.17529 10.2256 8.17529 8.71031Z" fill="#404040"/>
<path d="M12.8674 8.56274C12.8174 8.09626 12.6049 7.66661 12.255 7.37199C11.9051 7.07737 11.4553 6.91779 11.0054 6.91779C10.543 6.91779 10.0931 7.0651 9.74323 7.34744C9.39333 7.62978 9.16839 8.05944 9.1309 8.52591C9.1309 8.56274 9.09341 8.58729 9.06841 8.57502C9.04342 8.57502 9.01843 8.55047 9.01843 8.51364C9.00593 8.26812 9.05592 8.01033 9.15589 7.77709C9.25586 7.54385 9.40582 7.33516 9.59327 7.15103C9.96817 6.79503 10.5055 6.62317 11.0179 6.62317C11.5427 6.62317 12.0551 6.81958 12.43 7.17558C12.6174 7.35972 12.7674 7.5684 12.8674 7.80164C12.9673 8.03488 13.0048 8.29267 12.9923 8.53819C12.9923 8.57502 12.9673 8.59957 12.9299 8.59957C12.8924 8.61184 12.8674 8.58729 12.8674 8.56274Z" fill="white"/>
<path d="M5.64765 8.17936C5.51894 8.09098 5.32524 8.11921 5.20028 8.29598C5.07531 8.47275 5.11655 8.66057 5.24526 8.74896C5.37398 8.83735 5.56768 8.80911 5.69264 8.63234C5.81886 8.45434 5.77762 8.26652 5.64765 8.17936Z" fill="#896024"/>
<path d="M5.14336 1.32228H5.63626C5.63626 1.32228 7.66087 1.04669 9.03001 1.05886C10.3351 1.07046 12.2541 1.32228 12.2541 1.32228H13.0298C13.8195 2.62682 14.387 3.96648 14.6472 5.34261C12.096 4.61653 9.03001 6.1512 9.03001 6.1512C9.03001 6.1512 5.91793 4.64331 3.43744 5.18526C3.83448 3.77655 4.32382 2.49818 5.14336 1.32228Z" fill="#7F2125"/>
<path d="M5.14336 1.32228H5.63626C5.63626 1.32228 7.66087 1.04669 9.03001 1.05886C10.3351 1.07046 12.2541 1.32228 12.2541 1.32228H13.0298M5.14336 1.32228C4.32382 2.49818 3.83448 3.77655 3.43744 5.18526C5.91793 4.64331 9.03001 6.1512 9.03001 6.1512C9.03001 6.1512 12.096 4.61653 14.6472 5.34261C14.387 3.96648 13.8195 2.62682 13.0298 1.32228M5.14336 1.32228C5.7845 2.0189 6.6979 1.5813 9.03001 2.11738C11.1415 1.5975 12.1581 2.0534 13.0298 1.32228" stroke="#67211F" stroke-width="0.0582032"/>
<path d="M9.04639 6.12841L9.05387 2.12084C10.6414 1.63276 11.8466 2.01381 13.0376 1.34595C13.5563 2.14392 14.4143 3.63808 14.655 5.33112C12.5933 4.80002 10.4134 5.50112 9.04639 6.12841Z" fill="#67211F" stroke="#67211F" stroke-width="0.0365292"/>
<path d="M6.32335 1.77411C5.9629 1.53256 5.62473 1.66346 5.63956 1.31653L5.17529 1.33129C5.53716 1.7199 6.07218 1.71888 6.32335 1.77411Z" fill="#67211F"/>
<path d="M11.6928 1.7297C12.0533 1.49059 12.3418 1.64506 12.327 1.30164H13.0383C12.6765 1.68632 11.944 1.67503 11.6928 1.7297Z" fill="#67211F" fill-opacity="0.56"/>
<path d="M9.10103 1.36058L9.02007 2.07292L9.16874 2.06266L9.10103 1.36058Z" fill="#67211F" stroke="#67211F" stroke-width="0.0885594"/>
<path d="M7.156 1.85488C6.89393 1.84023 6.73615 1.82557 6.5195 1.81091C6.38473 3.3607 6.333 3.74446 6.6138 5.27949C6.99465 5.37925 7.28264 5.47336 7.61139 5.57469C6.84048 4.17175 7.05471 3.27049 7.156 1.85488Z" fill="#D60000" stroke="#67211F" stroke-width="0.0365292"/>
<path d="M6.72977 1.83299L6.53982 1.81812L6.50183 2.10069L6.72977 1.83299Z" fill="#398F00" stroke="#67211F" stroke-width="0.00737995"/>
<path d="M6.4209 2.87416L7.13227 2.05335L7.13976 1.87014L6.72791 1.8335L6.50327 2.09733L6.4209 2.87416Z" fill="#FF7F00" stroke="#67211F" stroke-width="0.00737995"/>
<path d="M6.88353 2.33149C6.88353 2.33149 6.65639 2.07743 6.57652 2.00903L6.50164 2.09698L6.42676 2.86648C6.53658 2.73701 6.88353 2.33149 6.88353 2.33149Z" fill="#D60000" stroke="#67211F" stroke-width="0.00737995"/>
<path d="M7.10011 2.93973C7.10088 2.62347 7.10832 2.42735 7.13006 2.05298L6.42618 2.86644C6.40111 3.18916 6.39513 3.36719 6.38873 3.67991L7.10011 2.93973Z" fill="#007FFF" stroke="#67211F" stroke-width="0.00590396"/>
<path d="M6.92788 3.11586L6.57594 2.6908L6.42617 2.86668C6.40664 3.18511 6.39726 3.3618 6.38873 3.68016L6.92788 3.11586Z" fill="#398F00" stroke="#67211F" stroke-width="0.00590396"/>
<path d="M6.95783 3.85572L6.61338 3.44531L6.38873 3.67983C6.39622 4.00962 6.41869 4.15619 6.44118 4.42735L6.95783 3.85572Z" fill="#D60000" stroke="#67211F" stroke-width="0.00590396"/>
<path d="M6.92807 4.69141L6.58362 4.27368L6.44135 4.42758C6.50125 4.7647 6.51623 4.85264 6.57613 5.10182L6.92807 4.69141Z" fill="#007FFF" stroke="#67211F" stroke-width="0.00590396"/>
<path d="M7.02177 5.38958L6.68316 4.97717L6.57782 5.10237L6.62538 5.26648L7.02177 5.38958Z" fill="#FF7F00" stroke="#67211F" stroke-width="0.00590396"/>
<path d="M7.14001 3.65815C7.11337 3.41178 7.10331 3.25981 7.10257 2.93994L6.61584 3.44562C6.84049 3.70945 6.79556 3.65082 6.9603 3.85602L7.14001 3.65815Z" fill="#FF7F00" stroke="#67211F" stroke-width="0.00590396"/>
<path d="M7.22961 4.33952C7.19966 4.11233 7.16222 3.99507 7.13976 3.66528L6.58563 4.27356C6.80484 4.5534 6.76126 4.49055 6.93009 4.68389L7.22961 4.33952Z" fill="#398F00" stroke="#67211F" stroke-width="0.00590396"/>
<path d="M7.39812 4.99185C7.33073 4.75 7.29329 4.6474 7.22589 4.3396L6.67926 4.97719C6.85149 5.19705 6.85149 5.19705 7.02371 5.39492L7.39812 4.99185Z" fill="#D60000" stroke="#67211F" stroke-width="0.00590396"/>
<path d="M7.61709 5.56226C7.44402 5.3487 7.45489 5.35928 7.2743 5.13098L7.01562 5.38428C7.33305 5.46771 7.3275 5.46586 7.3275 5.46586L7.61709 5.56226Z" fill="#398F00" stroke="#67211F" stroke-width="0.00590396"/>
<path d="M7.39995 4.99146L7.27203 5.13138L7.60312 5.54378H7.61064L7.39995 4.99146Z" fill="#007FFF" stroke="#67211F" stroke-width="0.00590396"/>
<path d="M7.17778 4.004L7.14015 3.67261L7.095 3.71679L7.02728 3.79044L7.17778 4.004Z" fill="#007FFF" stroke="#67211F" stroke-width="0.00590396"/>
<g filter="url(#filter0_d_1206_10703)">
<path d="M8.12732 2.75929L8.24821 2.57223C8.24821 2.57223 8.37955 3.12086 8.28785 3.47183C8.21495 3.75089 7.94615 4.11505 7.94615 4.11505C7.82312 4.42947 7.83099 4.60192 7.89768 4.90695L7.65234 5.1957C7.65234 5.1957 7.57649 4.79588 7.45392 4.5998C7.27609 4.31531 6.98268 4.39268 6.80174 4.14263C6.53384 3.7724 6.67274 2.99077 6.67274 2.99077L6.89013 3.17917C6.89013 3.17917 7.02187 2.98455 7.15062 2.70526C7.19673 2.60523 7.24245 2.49435 7.2816 2.37766C7.34145 2.19927 7.40809 1.91241 7.40809 1.91241L7.53376 2.16986L7.63483 2.03297C7.63483 2.03297 7.64364 2.2303 7.68093 2.34064C7.76653 2.59388 7.86483 2.68608 8.12732 2.75929Z" fill="url(#paint1_linear_1206_10703)"/>
<path d="M8.12732 2.75929C8.17453 2.68624 8.24821 2.57223 8.24821 2.57223C8.24821 2.57223 8.37955 3.12086 8.28785 3.47183C8.21495 3.75089 7.94615 4.11505 7.94615 4.11505C7.82312 4.42947 7.83099 4.60192 7.89768 4.90695L7.65234 5.1957C7.65234 5.1957 7.57649 4.79588 7.45392 4.5998C7.27609 4.31531 6.98268 4.39268 6.80174 4.14263C6.53384 3.7724 6.67274 2.99077 6.67274 2.99077L6.89013 3.17917M8.12732 2.75929C7.86483 2.68608 7.76653 2.59388 7.68093 2.34064C7.64364 2.2303 7.63483 2.03297 7.63483 2.03297L7.53376 2.16986M8.12732 2.75929C8.12013 2.78576 7.90899 3.24238 7.90899 3.24238C7.90899 3.24238 7.74389 2.92592 7.66965 2.71132M6.89013 3.17917C7.01449 3.32235 7.03321 3.41592 7.06845 3.58182L7.22985 2.98817L7.47611 3.35263L7.51913 2.55929L7.66965 2.71132M6.89013 3.17917C6.89013 3.17917 7.02187 2.98456 7.15062 2.70526C7.19673 2.60523 7.24245 2.49435 7.2816 2.37766C7.34145 2.19927 7.40809 1.91241 7.40809 1.91241L7.53376 2.16986M7.53376 2.16986C7.53376 2.16986 7.59827 2.50499 7.66965 2.71132" stroke="#F8F7FC" stroke-width="0.0365292"/>
</g>
<path d="M10.3051 5.12396C10.4175 5.02576 10.53 4.93983 10.655 4.8539C10.7799 4.76797 10.9174 4.70659 11.0424 4.63293C11.3173 4.51017 11.6172 4.38742 11.9796 4.37514C12.0671 4.36287 12.1546 4.38742 12.2545 4.38742C12.342 4.38742 12.442 4.42424 12.5294 4.4488C12.5544 4.46107 12.5794 4.46107 12.5919 4.47335L12.6544 4.51017L12.7794 4.57155C12.8544 4.62066 12.9293 4.68204 13.0043 4.74341C13.1418 4.86617 13.2293 5.02576 13.3042 5.17307C13.3417 5.24672 13.3667 5.32038 13.3917 5.39403C13.4167 5.46769 13.4292 5.54134 13.4417 5.59044L13.4542 5.62727C13.4792 5.77458 13.3792 5.92189 13.2293 5.94644C13.1043 5.97099 12.9918 5.90961 12.9293 5.81141C12.8919 5.73775 12.8544 5.67637 12.8294 5.62727C12.8044 5.57817 12.7669 5.52906 12.7419 5.47996C12.6794 5.39403 12.6044 5.32038 12.5294 5.259C12.517 5.24672 12.492 5.23445 12.467 5.22217C12.442 5.20989 12.4295 5.19762 12.417 5.18534C12.392 5.17307 12.3795 5.17307 12.3545 5.16079L12.3295 5.14852C12.317 5.14852 12.3045 5.14852 12.292 5.14852C12.2045 5.12396 12.1171 5.11169 12.0171 5.12396C11.8171 5.12396 11.5797 5.19762 11.3423 5.28355C11.2298 5.33265 11.1048 5.38176 10.9924 5.43086C10.8799 5.49224 10.7549 5.54134 10.63 5.59044L10.605 5.60272C10.455 5.6641 10.2926 5.59044 10.2426 5.45541C10.1801 5.33265 10.2176 5.19762 10.3051 5.12396Z" fill="#422B0D"/>
<path d="M6.71948 6.84333C6.61951 6.86788 6.55703 6.88016 6.46955 6.88016C6.39457 6.88016 6.30709 6.89243 6.23211 6.88016C6.06966 6.88016 5.9072 6.8556 5.75724 6.8065C5.50731 6.74512 5.25738 6.7083 5.04494 6.7083C4.94497 6.7083 4.84499 6.72057 4.77001 6.74512C4.69504 6.76967 4.63255 6.8065 4.57007 6.86788C4.4451 6.99064 4.32014 7.2116 4.19517 7.43257C4.12019 7.5676 3.94524 7.6167 3.80778 7.54305C3.69531 7.48167 3.64532 7.35891 3.65782 7.24843C3.68281 7.1134 3.7203 6.96609 3.77029 6.81878C3.83277 6.67147 3.89525 6.52416 4.02022 6.37685C4.14519 6.22954 4.30764 6.10678 4.49509 6.0454C4.68254 5.98402 4.85749 5.95947 5.03244 5.95947C5.36985 5.97175 5.65727 6.05768 5.9322 6.15589C6.04467 6.19271 6.15714 6.22954 6.2696 6.25409C6.33209 6.26637 6.38207 6.27864 6.44456 6.27864C6.49454 6.27864 6.56952 6.29092 6.60701 6.29092H6.657C6.80696 6.29092 6.93192 6.42595 6.91943 6.57326C6.93192 6.72057 6.84445 6.81878 6.71948 6.84333Z" fill="#422B0D"/>
<defs>
<filter id="filter0_d_1206_10703" x="6.61847" y="1.85803" width="1.84715" height="3.49072" filterUnits="userSpaceOnUse" color-interpolation-filters="sRGB">
<feFlood flood-opacity="0" result="BackgroundImageFix"/>
<feColorMatrix in="SourceAlpha" type="matrix" values="0 0 0 0 0 0 0 0 0 0 0 0 0 0 0 0 0 0 127 0" result="hardAlpha"/>
<feOffset dx="0.0737995" dy="0.0590396"/>
<feGaussianBlur stdDeviation="0.0265678"/>
<feComposite in2="hardAlpha" operator="out"/>
<feColorMatrix type="matrix" values="0 0 0 0 0 0 0 0 0 0 0 0 0 0 0 0 0 0 0.25 0"/>
<feBlend mode="normal" in2="BackgroundImageFix" result="effect1_dropShadow_1206_10703"/>
<feBlend mode="normal" in="SourceGraphic" in2="effect1_dropShadow_1206_10703" result="shape"/>
</filter>
<radialGradient id="paint0_radial_1206_10703" cx="0" cy="0" r="1" gradientUnits="userSpaceOnUse" gradientTransform="translate(8.9689 9.83859) scale(7.11802 6.99225)">
<stop offset="0.5" stop-color="#FDE030"/>
<stop offset="0.9188" stop-color="#F7C02B"/>
<stop offset="1" stop-color="#F4A223"/>
</radialGradient>
<linearGradient id="paint1_linear_1206_10703" x1="7.81004" y1="2.01856" x2="7.01544" y2="5.02751" gradientUnits="userSpaceOnUse">
<stop stop-color="#C9C9C9"/>
<stop offset="1" stop-color="#939297"/>
</linearGradient>
</defs>
</svg>
