<svg width="19" height="18" viewBox="0 0 19 18" fill="none" xmlns="http://www.w3.org/2000/svg">
<path d="M9.95148 16.9035C6.46493 16.9035 2.70346 14.7166 2.70346 9.91793C2.70346 5.11927 6.46493 2.93237 9.95148 2.93237C11.8884 2.93237 13.6755 3.5697 15.0001 4.73187C16.4372 6.00652 17.1995 7.80602 17.1995 9.91793C17.1995 12.0298 16.4372 13.8168 15.0001 15.0915C13.6755 16.2537 11.876 16.9035 9.95148 16.9035Z" fill="url(#paint0_radial_1206_10578)"/>
<path d="M15.9377 5.76526C16.6038 6.83996 16.9512 8.11961 16.9512 9.54296C16.9512 11.6549 16.1889 13.4419 14.7518 14.7165C13.4272 15.8787 11.6276 16.5285 9.70317 16.5285C7.44629 16.5285 5.07444 15.61 3.68232 13.6618C5.02695 15.8687 7.55501 16.9034 9.9531 16.9034C11.8776 16.9034 13.6771 16.2536 15.0017 15.0914C16.4388 13.8168 17.2011 12.0298 17.2011 9.91786C17.2011 8.3258 16.7675 6.91119 15.9377 5.76526Z" fill="#EB8F00"/>
<path d="M7.58644 7.79871C7.06284 7.79871 6.58672 8.24108 6.58672 8.97588C6.58672 9.71068 7.06284 10.1531 7.58644 10.1531C8.11005 10.1531 8.58617 9.71068 8.58617 8.97588C8.58617 8.24108 8.11005 7.79871 7.58644 7.79871Z" fill="#422B0D"/>
<path d="M7.53891 8.29242C7.4102 8.20245 7.2165 8.23119 7.09153 8.41114C6.96657 8.59234 7.00781 8.78228 7.13652 8.87226C7.26524 8.96223 7.45893 8.93349 7.5839 8.75354C7.70887 8.57234 7.66763 8.3824 7.53891 8.29242Z" fill="#896024"/>
<path d="M12.3793 7.79871C11.8557 7.79871 11.3796 8.24108 11.3796 8.97588C11.3796 9.71068 11.8557 10.1531 12.3793 10.1531C12.9029 10.1531 13.3791 9.71068 13.3791 8.97588C13.3791 8.24108 12.9029 7.79871 12.3793 7.79871Z" fill="#422B0D"/>
<path d="M12.3295 8.29242C12.2008 8.20245 12.0071 8.23119 11.8821 8.41114C11.7571 8.59234 11.7984 8.78228 11.9271 8.87226C12.0558 8.96223 12.2495 8.93349 12.3745 8.75354C12.5007 8.57234 12.4595 8.3824 12.3295 8.29242Z" fill="#896024"/>
<path d="M13.163 11.9669C12.8093 12.1793 11.9808 12.5542 10.475 13.199C10.4725 13.2003 10.47 13.2015 10.4687 13.2015C10.4662 13.2028 10.4637 13.2028 10.4612 13.204C8.95414 13.8489 8.11187 14.1888 7.71323 14.2975C7.4708 14.3637 7.26335 14.1163 7.47205 13.8001C7.85819 13.2165 12.2807 11.3258 12.9693 11.4495C13.3442 11.517 13.3792 11.8382 13.163 11.9669Z" fill="#422B0D"/>
<path d="M6.11275 1.3218H6.60566C6.60566 1.3218 8.63026 1.04621 9.9994 1.05837C11.3045 1.06997 13.2234 1.3218 13.2234 1.3218H13.9992C14.7889 2.62633 15.3564 3.96599 15.6166 5.34212C13.0654 4.61604 9.9994 6.15071 9.9994 6.15071C9.9994 6.15071 6.88732 4.64282 4.40683 5.18478C4.80387 3.77607 5.29321 2.49769 6.11275 1.3218Z" fill="#7F2125"/>
<path d="M6.11275 1.3218H6.60566C6.60566 1.3218 8.63026 1.04621 9.9994 1.05837C11.3045 1.06997 13.2235 1.3218 13.2235 1.3218H13.9992M6.11275 1.3218C5.29321 2.49769 4.80387 3.77607 4.40683 5.18478C6.88732 4.64282 9.9994 6.15071 9.9994 6.15071C9.9994 6.15071 13.0654 4.61604 15.6166 5.34212C15.3564 3.96599 14.7889 2.62633 13.9992 1.3218M6.11275 1.3218C6.75389 2.01841 7.66729 1.58081 9.9994 2.11689C12.1109 1.59701 13.1275 2.05292 13.9992 1.3218" stroke="#67211F" stroke-width="0.0582032"/>
<path d="M10.0148 6.12854L10.0223 2.12096C11.6098 1.63288 12.815 2.01394 14.006 1.34607C14.5247 2.14405 15.3827 3.6382 15.6234 5.33124C13.5617 4.80015 11.3818 5.50124 10.0148 6.12854Z" fill="#67211F" stroke="#67211F" stroke-width="0.0365292"/>
<path d="M7.29122 1.77375C6.93078 1.53219 6.5926 1.66309 6.60743 1.31616L6.14317 1.33092C6.50504 1.71953 7.04005 1.71852 7.29122 1.77375Z" fill="#67211F"/>
<path d="M12.6587 1.72958C13.0192 1.49047 13.3077 1.64494 13.2929 1.30151H14.0042C13.6424 1.6862 12.9099 1.67491 12.6587 1.72958Z" fill="#67211F" fill-opacity="0.56"/>
<path d="M10.0679 1.36058L9.98698 2.07292L10.1357 2.06266L10.0679 1.36058Z" fill="#67211F" stroke="#67211F" stroke-width="0.0885594"/>
<path d="M8.12207 1.85501C7.86001 1.84035 7.70222 1.82569 7.48558 1.81104C7.3508 3.36082 7.29907 3.74458 7.57988 5.27961C7.96072 5.37937 8.24871 5.47349 8.57747 5.57481C7.80655 4.17188 8.02078 3.27061 8.12207 1.85501Z" fill="#D60000" stroke="#67211F" stroke-width="0.0365292"/>
<path d="M7.69714 1.83287L7.50719 1.81799L7.4692 2.10057L7.69714 1.83287Z" fill="#398F00" stroke="#67211F" stroke-width="0.00737995"/>
<path d="M7.38625 2.87416L8.09762 2.05335L8.10511 1.87014L7.69326 1.8335L7.46862 2.09733L7.38625 2.87416Z" fill="#FF7F00" stroke="#67211F" stroke-width="0.00737995"/>
<path d="M7.8509 2.33149C7.8509 2.33149 7.62376 2.07743 7.54389 2.00903L7.46901 2.09698L7.39413 2.86648C7.50395 2.73701 7.8509 2.33149 7.8509 2.33149Z" fill="#D60000" stroke="#67211F" stroke-width="0.00737995"/>
<path d="M8.06651 2.93973C8.06728 2.62347 8.07472 2.42735 8.09646 2.05298L7.39258 2.86644C7.36751 3.18916 7.36153 3.36719 7.35513 3.67991L8.06651 2.93973Z" fill="#007FFF" stroke="#67211F" stroke-width="0.00590396"/>
<path d="M7.89428 3.11561L7.54234 2.69055L7.39257 2.86644C7.37304 3.18487 7.36366 3.36155 7.35513 3.67992L7.89428 3.11561Z" fill="#398F00" stroke="#67211F" stroke-width="0.00590396"/>
<path d="M7.92423 3.85572L7.57978 3.44531L7.35513 3.67983C7.36262 4.00962 7.38509 4.15619 7.40758 4.42735L7.92423 3.85572Z" fill="#D60000" stroke="#67211F" stroke-width="0.00590396"/>
<path d="M7.89548 4.69117L7.55103 4.27344L7.40875 4.42734C7.46866 4.76446 7.48363 4.8524 7.54354 5.10157L7.89548 4.69117Z" fill="#007FFF" stroke="#67211F" stroke-width="0.00590396"/>
<path d="M7.9892 5.38945L7.6506 4.97705L7.54525 5.10224L7.59281 5.26636L7.9892 5.38945Z" fill="#FF7F00" stroke="#67211F" stroke-width="0.00590396"/>
<path d="M8.10744 3.65778C8.0808 3.41142 8.07074 3.25944 8.07 2.93958L7.58327 3.44525C7.80792 3.70908 7.76299 3.65045 7.92773 3.85565L8.10744 3.65778Z" fill="#FF7F00" stroke="#67211F" stroke-width="0.00590396"/>
<path d="M8.19703 4.33939C8.16708 4.11221 8.12963 3.99495 8.10717 3.66516L7.55305 4.27344C7.77226 4.55328 7.72867 4.49043 7.8975 4.68377L8.19703 4.33939Z" fill="#398F00" stroke="#67211F" stroke-width="0.00590396"/>
<path d="M8.36745 4.99173C8.30006 4.74988 8.26262 4.64728 8.19522 4.33948L7.64859 4.97707C7.82082 5.19693 7.82082 5.19693 7.99304 5.3948L8.36745 4.99173Z" fill="#D60000" stroke="#67211F" stroke-width="0.00590396"/>
<path d="M8.58349 5.56263C8.41042 5.34906 8.42129 5.35964 8.2407 5.13135L7.98203 5.38465C8.29945 5.46807 8.2939 5.46622 8.2939 5.46622L8.58349 5.56263Z" fill="#398F00" stroke="#67211F" stroke-width="0.00590396"/>
<path d="M8.36831 4.9917L8.24039 5.13162L8.57148 5.54403H8.579L8.36831 4.9917Z" fill="#007FFF" stroke="#67211F" stroke-width="0.00590396"/>
<path d="M8.1452 4.00388L8.10757 3.67249L8.06243 3.71667L7.99471 3.79031L8.1452 4.00388Z" fill="#007FFF" stroke="#67211F" stroke-width="0.00590396"/>
<g filter="url(#filter0_d_1206_10578)">
<path d="M9.09616 2.75905L9.21705 2.57199C9.21705 2.57199 9.34839 3.12062 9.2567 3.47158C9.18379 3.75065 8.91499 4.11481 8.91499 4.11481C8.79196 4.42923 8.79983 4.60168 8.86652 4.9067L8.62119 5.19545C8.62119 5.19545 8.54533 4.79564 8.42276 4.59956C8.24494 4.31507 7.95153 4.39244 7.77059 4.14239C7.50268 3.77216 7.64159 2.99052 7.64159 2.99052L7.85897 3.17892C7.85897 3.17892 7.99071 2.98431 8.11946 2.70501C8.16557 2.60499 8.21129 2.49411 8.25044 2.37741C8.31029 2.19903 8.37693 1.91217 8.37693 1.91217L8.5026 2.16961L8.60367 2.03272C8.60367 2.03272 8.61248 2.23005 8.64977 2.3404C8.73537 2.59364 8.83367 2.68583 9.09616 2.75905Z" fill="url(#paint1_linear_1206_10578)"/>
<path d="M9.09616 2.75905C9.14337 2.686 9.21705 2.57199 9.21705 2.57199C9.21705 2.57199 9.34839 3.12062 9.2567 3.47158C9.18379 3.75065 8.91499 4.11481 8.91499 4.11481C8.79196 4.42923 8.79983 4.60168 8.86652 4.9067L8.62119 5.19545C8.62119 5.19545 8.54533 4.79564 8.42276 4.59956C8.24494 4.31507 7.95153 4.39244 7.77059 4.14239C7.50268 3.77216 7.64159 2.99052 7.64159 2.99052L7.85897 3.17892M9.09616 2.75905C8.83367 2.68583 8.73537 2.59364 8.64977 2.3404C8.61248 2.23005 8.60367 2.03272 8.60367 2.03272L8.5026 2.16961M9.09616 2.75905C9.08897 2.78552 8.87784 3.24213 8.87784 3.24213C8.87784 3.24213 8.71273 2.92568 8.63849 2.71108M7.85897 3.17892C7.98333 3.32211 8.00205 3.41568 8.03729 3.58158L8.19869 2.98793L8.44495 3.35238L8.48797 2.55905L8.63849 2.71108M7.85897 3.17892C7.85897 3.17892 7.99071 2.98431 8.11946 2.70501C8.16557 2.60499 8.21129 2.49411 8.25044 2.37741C8.31029 2.19903 8.37693 1.91217 8.37693 1.91217L8.5026 2.16961M8.5026 2.16961C8.5026 2.16961 8.56711 2.50474 8.63849 2.71108" stroke="#F8F7FC" stroke-width="0.0365292"/>
</g>
<defs>
<filter id="filter0_d_1206_10578" x="7.58729" y="1.85779" width="1.84716" height="3.49072" filterUnits="userSpaceOnUse" color-interpolation-filters="sRGB">
<feFlood flood-opacity="0" result="BackgroundImageFix"/>
<feColorMatrix in="SourceAlpha" type="matrix" values="0 0 0 0 0 0 0 0 0 0 0 0 0 0 0 0 0 0 127 0" result="hardAlpha"/>
<feOffset dx="0.0737995" dy="0.0590396"/>
<feGaussianBlur stdDeviation="0.0265678"/>
<feComposite in2="hardAlpha" operator="out"/>
<feColorMatrix type="matrix" values="0 0 0 0 0 0 0 0 0 0 0 0 0 0 0 0 0 0 0.25 0"/>
<feBlend mode="normal" in2="BackgroundImageFix" result="effect1_dropShadow_1206_10578"/>
<feBlend mode="normal" in="SourceGraphic" in2="effect1_dropShadow_1206_10578" result="shape"/>
</filter>
<radialGradient id="paint0_radial_1206_10578" cx="0" cy="0" r="1" gradientUnits="userSpaceOnUse" gradientTransform="translate(9.95148 9.91792) scale(7.11802 7.11799)">
<stop offset="0.5" stop-color="#FDE030"/>
<stop offset="0.9188" stop-color="#F7C02B"/>
<stop offset="1" stop-color="#F4A223"/>
</radialGradient>
<linearGradient id="paint1_linear_1206_10578" x1="8.77888" y1="2.01831" x2="7.98428" y2="5.02726" gradientUnits="userSpaceOnUse">
<stop stop-color="#C9C9C9"/>
<stop offset="1" stop-color="#939297"/>
</linearGradient>
</defs>
</svg>
