<svg width="19" height="19" viewBox="0 0 19 19" fill="none" xmlns="http://www.w3.org/2000/svg">
<path d="M9.90512 17.5785C6.80472 17.5785 3.45689 15.634 3.45689 11.3664C3.45689 7.09888 6.80472 5.15442 9.90512 5.15442C11.6272 5.15442 13.2167 5.72051 14.3951 6.75397C15.6723 7.88866 16.3509 9.48821 16.3509 11.3664C16.3509 13.2447 15.6723 14.8342 14.3951 15.9677C13.2167 17.0011 11.6159 17.5785 9.90512 17.5785Z" fill="url(#paint0_radial_1200_7763)"/>
<path d="M15.2287 7.67358C15.8385 8.6858 16.151 9.85048 16.1297 11.0327C16.1297 12.9071 15.4512 14.5004 14.174 15.6339C12.9956 16.6673 11.396 17.2447 9.68398 17.2447C7.67703 17.2447 5.56886 16.4287 4.33044 14.6954C5.52637 16.6586 7.7745 17.5783 9.90642 17.5783C11.6172 17.5783 13.218 17.001 14.3964 15.9675C15.6736 14.8328 16.3522 13.2445 16.3522 11.3663C16.3522 9.95045 15.966 8.69205 15.2287 7.67358Z" fill="#EB8F00"/>
<path d="M6.23757 6.16203C3.69451 5.15356 1.95749 3.67272 1.95749 4.82865C1.95749 7.13051 2.56107 8.9775 3.53206 10.3909C3.79574 8.39891 4.85545 7.00554 6.23757 6.16203Z" fill="#4A251A"/>
<path d="M16.2925 10.5148C17.3134 9.09266 17.9533 7.19818 17.9533 4.82884C17.9533 3.61668 16.1825 5.1575 13.5994 6.17972C13.8781 6.35342 14.1418 6.54836 14.3892 6.76455C15.4664 7.72054 16.115 9.00893 16.2925 10.5148Z" fill="#4A251A"/>
<path d="M13.7297 4.37896C13.1674 3.16679 12.1927 1.99212 11.2929 2.00462C10.3182 2.01711 10.4931 2.4295 9.95577 2.4295C9.39342 2.4295 9.60586 2.00462 8.69361 2.00462C7.78136 2.00462 6.76914 3.1418 6.1693 4.37896C7.40896 4.67887 8.68112 4.82133 9.95577 4.80384C11.6678 4.80384 12.905 4.60389 13.7297 4.37896Z" fill="#826156"/>
<path d="M14.0115 5.10407C13.9316 4.85664 13.8378 4.61546 13.7291 4.37927C12.9043 4.60421 11.6672 4.80415 9.95515 4.80415C8.6805 4.82165 7.40834 4.67919 6.16868 4.37927C6.05746 4.61671 5.96124 4.86164 5.87876 5.11032C7.22714 5.33401 8.58927 5.45647 9.95515 5.47897C11.3148 5.45647 12.6707 5.33151 14.0115 5.10407Z" fill="#A1887F"/>
<path d="M14.0112 5.10284C12.6703 5.33027 11.3144 5.45524 9.95479 5.47773C8.58891 5.45524 7.22678 5.33277 5.8784 5.10908C3.90394 4.80292 2.33187 4.41553 2.33187 4.41553C2.33187 4.41553 4.49378 8.70184 9.95479 8.70184C15.4158 8.70184 17.4652 4.41553 17.4652 4.41553C17.4652 4.41553 15.9444 4.80042 14.0112 5.10284Z" fill="#7A5549"/>
<path d="M12.2422 9.15112C12.6796 9.15112 13.0795 9.66348 13.0795 10.5132C13.0795 11.363 12.6796 11.8754 12.2422 11.8754C11.8048 11.8754 11.4049 11.363 11.4049 10.5132C11.4049 9.66348 11.8048 9.15112 12.2422 9.15112Z" fill="#422B0D"/>
<path d="M7.66673 9.15112C7.22935 9.15112 6.82946 9.66348 6.82946 10.5132C6.82946 11.363 7.22935 11.8754 7.66673 11.8754C8.10411 11.8754 8.504 11.363 8.504 10.5132C8.504 9.66348 8.10411 9.15112 7.66673 9.15112Z" fill="#422B0D"/>
<path d="M7.59639 9.64448C7.43566 9.57039 7.24604 9.64072 7.17195 9.80145C7.11544 9.92451 7.14181 10.0689 7.23725 10.1631C7.39798 10.2372 7.5876 10.1669 7.66169 10.0061C7.7182 9.88433 7.69183 9.73866 7.59639 9.64448Z" fill="#896024"/>
<path d="M12.209 9.64448C12.0482 9.57039 11.8586 9.64072 11.7845 9.80145C11.728 9.92451 11.7544 10.0689 11.8498 10.1631C12.0106 10.2372 12.2002 10.1669 12.2743 10.0061C12.3308 9.88433 12.3044 9.73866 12.209 9.64448Z" fill="#896024"/>
<path d="M13.9016 13.0761C13.7554 12.815 13.4392 12.7 13.1593 12.8062C12.0921 13.1174 10.9861 13.2723 9.87517 13.2673C8.76297 13.2723 7.65702 13.1174 6.58982 12.8062C6.30989 12.7012 5.99498 12.815 5.84877 13.0761C5.70756 13.3386 5.81003 13.641 5.92875 13.9022C6.59731 15.368 8.06816 16.244 9.86642 16.2503H9.88267C11.6822 16.244 13.153 15.368 13.8203 13.9022C13.9391 13.641 14.0428 13.3386 13.9016 13.0761Z" fill="#422B0D"/>
<path d="M11.5364 15.8342C11.4977 15.7992 11.459 15.7667 11.419 15.733C10.9941 15.3606 10.4455 15.1594 9.88064 15.1706C9.29705 15.1581 8.72846 15.3506 8.27233 15.7142C8.23234 15.7455 8.1911 15.7767 8.14736 15.8117C8.10363 15.8467 8.08863 15.8817 8.06364 15.9154C8.63598 16.1391 9.24456 16.2528 9.8594 16.2503H9.87564C10.4642 16.2516 11.0478 16.1478 11.5989 15.9429C11.5802 15.9054 11.5589 15.8692 11.5364 15.8342Z" fill="#ED7770"/>
<path d="M13.1587 12.8062C12.0915 13.1174 10.9856 13.2723 9.87464 13.2673C8.76245 13.2723 7.6565 13.1174 6.58929 12.8062C6.30937 12.7012 5.99446 12.815 5.84825 13.0761C5.827 13.1161 5.81201 13.1574 5.80076 13.2011C5.83575 13.2186 5.87449 13.2361 5.92572 13.2548C7.17538 13.8809 8.5575 14.1996 9.95587 14.1833C11.298 14.1983 12.6251 13.9059 13.8373 13.3298C13.886 13.3098 13.926 13.2898 13.9623 13.2711C13.9535 13.2023 13.9335 13.1374 13.901 13.0761C13.7548 12.815 13.4387 12.7 13.1587 12.8062Z" fill="white"/>
<path d="M13.9059 13.0774C13.7572 12.8149 13.4385 12.7 13.1561 12.8062C12.0889 13.1174 10.9829 13.2723 9.87196 13.2673C8.76102 13.2723 7.65507 13.1174 6.58786 12.8062C6.30794 12.7012 5.99303 12.8149 5.84682 13.0761C5.7056 13.3385 5.80808 13.641 5.92679 13.9021C5.98053 14.0196 6.04051 14.1346 6.10424 14.2458C6.10424 14.2458 5.88306 13.4348 6.0755 13.1998C6.14049 13.1011 6.24796 13.0386 6.36667 13.0311C6.41541 13.0311 6.46415 13.0399 6.51038 13.0549C7.59759 13.371 8.72478 13.531 9.85697 13.5272H9.89321C11.0241 13.531 12.1501 13.371 13.236 13.0549C13.2823 13.0399 13.331 13.0311 13.3798 13.0311C13.4985 13.0374 13.6072 13.0999 13.6722 13.1998C13.8634 13.4348 13.6434 14.247 13.6434 14.247C13.7072 14.1358 13.7684 14.0209 13.8259 13.9034C13.9446 13.6422 14.0471 13.3398 13.9059 13.0774Z" fill="#EB8F00"/>
<defs>
<radialGradient id="paint0_radial_1200_7763" cx="0" cy="0" r="1" gradientUnits="userSpaceOnUse" gradientTransform="translate(9.90387 11.3665) scale(6.33061 6.33058)">
<stop offset="0.5" stop-color="#FDE030"/>
<stop offset="0.92" stop-color="#F7C02B"/>
<stop offset="1" stop-color="#F4A223"/>
</radialGradient>
</defs>
</svg>
