<svg width="19" height="18" viewBox="0 0 19 18" fill="none" xmlns="http://www.w3.org/2000/svg">
<path d="M9.9566 16.8938C6.47006 16.8938 2.70859 14.707 2.70859 9.90829C2.70859 5.10962 6.47006 2.92273 9.9566 2.92273C11.8936 2.92273 13.6806 3.56005 15.0052 4.72223C16.4423 5.99688 17.2046 7.79638 17.2046 9.90829C17.2046 12.0202 16.4423 13.8072 15.0052 15.0819C13.6806 16.244 11.8811 16.8938 9.9566 16.8938Z" fill="url(#paint0_radial_1200_6226)"/>
<path d="M6.92777 7.34896C7.05398 7.34896 7.15646 7.24649 7.15646 7.12027C7.15646 6.99406 7.05398 6.89158 6.92777 6.89158C6.68408 6.86659 6.43915 6.88409 6.20172 6.94157C5.55564 7.08028 4.9858 7.45893 4.6059 8.00003C4.4347 8.2612 4.77461 8.47239 4.97455 8.27745C5.49691 7.75135 6.18672 7.42269 6.92402 7.34896" fill="#422B0D"/>
<path d="M7.83362 13.8315C8.32349 13.7677 8.80086 13.7478 9.26698 13.7215C9.7331 13.6953 10.1917 13.669 10.6229 13.5965C11.0227 13.5541 11.4114 13.4416 11.7713 13.2641C12.0737 13.1029 12.2937 12.8218 12.3786 12.4906V12.4744C12.4424 12.2494 12.676 12.1195 12.901 12.1832C13.0859 12.2357 13.2121 12.4069 13.2072 12.5993C13.2009 12.9055 13.1209 13.2054 12.9735 13.4741C12.8198 13.7503 12.6048 13.9877 12.3449 14.1676C11.845 14.5113 11.2964 14.6375 10.7853 14.72C10.288 14.785 9.78684 14.8075 9.28572 14.7862C8.79586 14.7712 8.31599 14.7287 7.84862 14.675C7.61743 14.6463 7.45248 14.4363 7.48122 14.2039C7.50496 14.0114 7.65617 13.859 7.84862 13.8365L7.83362 13.8315Z" fill="#35220B"/>
<path d="M8.02878 9.02291C7.27273 8.82546 6.4742 8.85545 5.7344 9.10913C5.60194 9.16037 5.53571 9.30783 5.58694 9.44029C5.63443 9.56401 5.7669 9.63024 5.89436 9.59525C6.19053 9.53776 6.49295 9.52152 6.79411 9.54526C6.79411 9.55276 6.79411 9.594 6.79411 9.594C6.79411 10.2051 7.19026 10.575 7.62764 10.575C7.85133 10.5725 8.06502 10.48 8.21997 10.3175C8.4799 10.0414 8.53364 9.62899 8.35119 9.29658C8.28246 9.16787 8.16749 9.06914 8.02878 9.02291Z" fill="#422B0D"/>
<path d="M14.0058 9.02291C13.2498 8.82546 12.4513 8.85545 11.7115 9.10913C11.5778 9.15662 11.5065 9.30283 11.554 9.43654C11.6015 9.57026 11.7477 9.64149 11.8814 9.594C12.1776 9.53651 12.48 9.52027 12.7799 9.54401C12.7799 9.55151 12.7799 9.59275 12.7799 9.59275C12.7799 10.2038 13.1773 10.5737 13.6134 10.5737C13.8384 10.5712 14.0521 10.4788 14.207 10.3163C14.4632 10.0401 14.5132 9.63024 14.332 9.30033C14.2633 9.17037 14.1458 9.07039 14.0058 9.02291Z" fill="#422B0D"/>
<path d="M7.63993 9.44347C7.81738 9.35849 8.03107 9.43347 8.1173 9.61092C8.18353 9.74963 8.15354 9.91584 8.04232 10.0233C7.86487 10.1083 7.65118 10.0333 7.56495 9.85585C7.49872 9.71714 7.52871 9.55094 7.63993 9.44347Z" fill="#896024"/>
<path d="M13.636 9.44328C13.8147 9.35956 14.0271 9.43578 14.1121 9.61448C14.1771 9.7532 14.1471 9.9169 14.0371 10.0231C13.8584 10.1068 13.646 10.0306 13.561 9.85192C13.496 9.71446 13.526 9.5495 13.636 9.44328Z" fill="#896024"/>
<path d="M15.9392 5.75513C16.6053 6.82983 16.9527 8.10947 16.9527 9.53283C16.9527 11.6447 16.1904 13.4317 14.7533 14.7064C13.4287 15.8686 11.6292 16.5184 9.70469 16.5184C7.44781 16.5184 5.08096 15.5999 3.68384 13.6517C5.02847 15.8586 7.55778 16.8933 9.95462 16.8933C11.8791 16.8933 13.6786 16.2435 15.0032 15.0813C16.4404 13.8066 17.2026 12.0196 17.2026 9.90772C17.2026 8.31567 16.769 6.90106 15.9392 5.75513Z" fill="#EB8F00"/>
<path d="M13.0323 7.35189C12.9061 7.35189 12.8036 7.24941 12.8036 7.1232C12.8036 6.99698 12.9061 6.89451 13.0323 6.89451C13.276 6.86952 13.5209 6.88702 13.7583 6.9445C14.4044 7.08321 14.9755 7.46061 15.3541 8.00296C15.5253 8.26413 15.1854 8.47532 14.9792 8.28038C14.4569 7.75427 13.7683 7.42562 13.0298 7.35189" fill="#422B0D"/>
<path d="M6.09109 1.30043H6.58399C6.58399 1.30043 8.6086 1.02484 9.97773 1.03701C11.2828 1.04861 13.2018 1.30043 13.2018 1.30043H13.9775C14.7672 2.60497 15.3347 3.94463 15.5949 5.32076C13.0438 4.59468 9.97773 6.12934 9.97773 6.12934C9.97773 6.12934 6.86566 4.62146 4.38516 5.16341C4.7822 3.7547 5.27155 2.47633 6.09109 1.30043Z" fill="#7F2125"/>
<path d="M6.09109 1.30043H6.58399C6.58399 1.30043 8.6086 1.02484 9.97773 1.03701C11.2828 1.04861 13.2018 1.30043 13.2018 1.30043H13.9775M6.09109 1.30043C5.27155 2.47633 4.7822 3.7547 4.38516 5.16341C6.86566 4.62146 9.97773 6.12935 9.97773 6.12935C9.97773 6.12935 13.0438 4.59468 15.5949 5.32076C15.3347 3.94463 14.7672 2.60497 13.9775 1.30043M6.09109 1.30043C6.73222 1.99705 7.64562 1.55945 9.97773 2.09553C12.0892 1.57565 13.1058 2.03155 13.9775 1.30043" stroke="#67211F" stroke-width="0.0582032"/>
<path d="M9.99307 6.10656L10.0006 2.09899C11.588 1.61091 12.7933 1.99196 13.9843 1.3241C14.503 2.12207 15.361 3.61623 15.6017 5.30927C13.54 4.77817 11.3601 5.47927 9.99307 6.10656Z" fill="#67211F" stroke="#67211F" stroke-width="0.0365292"/>
<path d="M7.26814 1.75202C6.9077 1.51047 6.56952 1.64136 6.58435 1.29443L6.12009 1.30919C6.48196 1.69781 7.01697 1.69679 7.26814 1.75202Z" fill="#67211F"/>
<path d="M12.6337 1.70785C12.9941 1.46874 13.2826 1.62321 13.2678 1.27979H13.9792C13.6173 1.66447 12.8849 1.65318 12.6337 1.70785Z" fill="#67211F" fill-opacity="0.56"/>
<path d="M10.0458 1.33873L9.96487 2.05107L10.1135 2.04081L10.0458 1.33873Z" fill="#67211F" stroke="#67211F" stroke-width="0.0885594"/>
<path d="M8.10137 1.83328C7.83931 1.81862 7.68152 1.80396 7.46488 1.78931C7.33011 3.3391 7.27838 3.72285 7.55918 5.25788C7.94002 5.35764 8.22801 5.45176 8.55677 5.55308C7.78585 4.15015 8.00008 3.24888 8.10137 1.83328Z" fill="#D60000" stroke="#67211F" stroke-width="0.0365292"/>
<path d="M7.67536 1.81163L7.48541 1.79675L7.44742 2.07933L7.67536 1.81163Z" fill="#398F00" stroke="#67211F" stroke-width="0.00737995"/>
<path d="M7.36356 2.85207L8.07493 2.03126L8.08242 1.84804L7.67057 1.8114L7.44593 2.07523L7.36356 2.85207Z" fill="#FF7F00" stroke="#67211F" stroke-width="0.00737995"/>
<path d="M7.82815 2.30976C7.82815 2.30976 7.601 2.05571 7.52113 1.9873L7.44625 2.07525L7.37137 2.84475C7.48119 2.71528 7.82815 2.30976 7.82815 2.30976Z" fill="#D60000" stroke="#67211F" stroke-width="0.00737995"/>
<path d="M8.04667 2.918C8.04744 2.60174 8.05489 2.40562 8.07662 2.03125L7.37274 2.84472C7.34767 3.16744 7.34169 3.34546 7.3353 3.65818L8.04667 2.918Z" fill="#007FFF" stroke="#67211F" stroke-width="0.00590396"/>
<path d="M7.87444 3.09388L7.5225 2.66882L7.37274 2.84471C7.3532 3.16314 7.34383 3.33983 7.3353 3.65819L7.87444 3.09388Z" fill="#398F00" stroke="#67211F" stroke-width="0.00590396"/>
<path d="M7.9044 3.83411L7.55994 3.42371L7.3353 3.65822C7.34278 3.98801 7.36525 4.13458 7.38774 4.40574L7.9044 3.83411Z" fill="#D60000" stroke="#67211F" stroke-width="0.00590396"/>
<path d="M7.87369 4.66932L7.52924 4.25159L7.38696 4.40549C7.44687 4.7426 7.46184 4.83055 7.52175 5.07972L7.87369 4.66932Z" fill="#007FFF" stroke="#67211F" stroke-width="0.00590396"/>
<path d="M7.96547 5.3676L7.62686 4.9552L7.52151 5.08039L7.56908 5.24451L7.96547 5.3676Z" fill="#FF7F00" stroke="#67211F" stroke-width="0.00590396"/>
<path d="M8.08078 3.63593C8.05413 3.38956 8.04408 3.23759 8.04334 2.91772L7.55661 3.4234C7.78125 3.68723 7.73633 3.6286 7.90106 3.8338L8.08078 3.63593Z" fill="#FF7F00" stroke="#67211F" stroke-width="0.00590396"/>
<path d="M8.17233 4.31791C8.14238 4.09072 8.10494 3.97346 8.08247 3.64368L7.52835 4.25195C7.74756 4.53179 7.70397 4.46894 7.87281 4.66229L8.17233 4.31791Z" fill="#398F00" stroke="#67211F" stroke-width="0.00590396"/>
<path d="M8.34664 4.97012C8.27925 4.72827 8.24181 4.62567 8.17441 4.31787L7.62778 4.95546C7.8 5.17532 7.8 5.17532 7.97223 5.37319L8.34664 4.97012Z" fill="#D60000" stroke="#67211F" stroke-width="0.00590396"/>
<path d="M8.56073 5.54066C8.38766 5.32709 8.39853 5.33767 8.21794 5.10938L7.95926 5.36268C8.27669 5.4461 8.27113 5.44425 8.27113 5.44425L8.56073 5.54066Z" fill="#398F00" stroke="#67211F" stroke-width="0.00590396"/>
<path d="M8.34554 4.96997L8.21762 5.10989L8.54871 5.5223H8.55623L8.34554 4.96997Z" fill="#007FFF" stroke="#67211F" stroke-width="0.00590396"/>
<path d="M8.12245 3.9824L8.08482 3.651L8.03968 3.69519L7.97195 3.76883L8.12245 3.9824Z" fill="#007FFF" stroke="#67211F" stroke-width="0.00590396"/>
<g filter="url(#filter0_d_1200_6226)">
<path d="M9.07209 2.73732L9.19297 2.55026C9.19297 2.55026 9.32431 3.09889 9.23262 3.44985C9.15971 3.72892 8.89091 4.09308 8.89091 4.09308C8.76788 4.4075 8.77575 4.57995 8.84244 4.88497L8.59711 5.17372C8.59711 5.17372 8.52125 4.77391 8.39869 4.57783C8.22086 4.29334 7.92745 4.37071 7.74651 4.12066C7.4786 3.75043 7.61751 2.96879 7.61751 2.96879L7.83489 3.1572C7.83489 3.1572 7.96663 2.96258 8.09538 2.68328C8.14149 2.58326 8.18721 2.47238 8.22636 2.35568C8.28621 2.1773 8.35285 1.89044 8.35285 1.89044L8.47852 2.14788L8.57959 2.011C8.57959 2.011 8.5884 2.20832 8.62569 2.31867C8.71129 2.57191 8.80959 2.6641 9.07209 2.73732Z" fill="url(#paint1_linear_1200_6226)"/>
<path d="M9.07209 2.73732C9.11929 2.66427 9.19297 2.55026 9.19297 2.55026C9.19297 2.55026 9.32431 3.09889 9.23262 3.44985C9.15971 3.72892 8.89091 4.09308 8.89091 4.09308C8.76788 4.4075 8.77575 4.57995 8.84244 4.88497L8.59711 5.17372C8.59711 5.17372 8.52125 4.77391 8.39869 4.57783C8.22086 4.29334 7.92745 4.37071 7.74651 4.12066C7.4786 3.75043 7.61751 2.96879 7.61751 2.96879L7.83489 3.1572M9.07209 2.73732C8.80959 2.6641 8.71129 2.57191 8.62569 2.31867C8.5884 2.20832 8.57959 2.011 8.57959 2.011L8.47852 2.14788M9.07209 2.73732C9.06489 2.76379 8.85376 3.2204 8.85376 3.2204C8.85376 3.2204 8.68865 2.90395 8.61442 2.68935M7.83489 3.1572C7.95925 3.30038 7.97797 3.39395 8.01321 3.55985L8.17461 2.9662L8.42087 3.33065L8.46389 2.53732L8.61442 2.68935M7.83489 3.1572C7.83489 3.1572 7.96663 2.96258 8.09538 2.68328C8.14149 2.58326 8.18721 2.47238 8.22636 2.35568C8.28621 2.1773 8.35285 1.89044 8.35285 1.89044L8.47852 2.14788M8.47852 2.14788C8.47852 2.14788 8.54303 2.48301 8.61442 2.68935" stroke="#F8F7FC" stroke-width="0.0365292"/>
</g>
<defs>
<filter id="filter0_d_1200_6226" x="7.5632" y="1.83606" width="1.84718" height="3.49072" filterUnits="userSpaceOnUse" color-interpolation-filters="sRGB">
<feFlood flood-opacity="0" result="BackgroundImageFix"/>
<feColorMatrix in="SourceAlpha" type="matrix" values="0 0 0 0 0 0 0 0 0 0 0 0 0 0 0 0 0 0 127 0" result="hardAlpha"/>
<feOffset dx="0.0737995" dy="0.0590396"/>
<feGaussianBlur stdDeviation="0.0265678"/>
<feComposite in2="hardAlpha" operator="out"/>
<feColorMatrix type="matrix" values="0 0 0 0 0 0 0 0 0 0 0 0 0 0 0 0 0 0 0.25 0"/>
<feBlend mode="normal" in2="BackgroundImageFix" result="effect1_dropShadow_1200_6226"/>
<feBlend mode="normal" in="SourceGraphic" in2="effect1_dropShadow_1200_6226" result="shape"/>
</filter>
<radialGradient id="paint0_radial_1200_6226" cx="0" cy="0" r="1" gradientUnits="userSpaceOnUse" gradientTransform="translate(9.9566 9.90829) scale(7.11802 7.11799)">
<stop offset="0.5" stop-color="#FDE030"/>
<stop offset="0.92" stop-color="#F7C02B"/>
<stop offset="1" stop-color="#F4A223"/>
</radialGradient>
<linearGradient id="paint1_linear_1200_6226" x1="8.7548" y1="1.99658" x2="7.9602" y2="5.00553" gradientUnits="userSpaceOnUse">
<stop stop-color="#C9C9C9"/>
<stop offset="1" stop-color="#939297"/>
</linearGradient>
</defs>
</svg>
