<svg width="19" height="18" viewBox="0 0 19 18" fill="none" xmlns="http://www.w3.org/2000/svg">
<g clip-path="url(#clip0_1206_10520)">
<path d="M9.91524 16.2201C6.42869 16.2201 2.66722 14.0332 2.66722 9.23458C2.66722 4.43592 6.42869 2.24902 9.91524 2.24902C11.8522 2.24902 13.6392 2.88635 14.9639 4.04852C16.401 5.32317 17.1633 7.12267 17.1633 9.23458C17.1633 11.3465 16.401 13.1335 14.9639 14.4081C13.6392 15.5703 11.8397 16.2201 9.91524 16.2201Z" fill="url(#paint0_radial_1206_10520)"/>
<path d="M15.9005 5.08252C16.5666 6.15722 16.914 7.43687 16.914 8.86022C16.914 10.9721 16.1517 12.7591 14.7146 14.0338C13.3899 15.196 11.5904 15.8458 9.66595 15.8458C7.40907 15.8458 5.03722 14.9273 3.6451 12.9791C4.98973 15.186 7.51779 16.2207 9.91588 16.2207C11.8404 16.2207 13.6399 15.5709 14.9645 14.4087C16.4016 13.134 17.1639 11.347 17.1639 9.23512C17.1639 7.64306 16.7303 6.22845 15.9005 5.08252Z" fill="#EB8F00"/>
<path d="M12.5567 11.8798C12.1843 11.8285 11.357 11.811 9.86618 11.811C9.86368 11.811 9.86118 11.811 9.85993 11.811C9.85868 11.811 9.85493 11.811 9.85368 11.811C8.36159 11.811 7.53556 11.8285 7.16317 11.8798C6.93698 11.911 6.85075 12.1922 7.13942 12.3821C7.67178 12.732 8.47031 12.9707 9.86118 12.9807C11.252 12.972 12.0506 12.732 12.5829 12.3821C12.8691 12.1922 12.7829 11.911 12.5567 11.8798Z" fill="#422B0D"/>
<path d="M11.1528 2.73988C11.1466 2.73113 11.1403 2.72364 11.1341 2.71614C10.9954 2.54244 10.5068 2.29001 10.2806 2.41747C10.1806 2.47371 10.1469 2.6699 10.1006 2.76737C10.0194 2.93858 9.91443 3.09478 9.81071 3.25349C9.48205 3.7546 4.3772 7.50856 4.3772 7.50856L2.9251 7.26862C2.78638 7.62227 2.76764 8.03841 2.76764 8.03841C2.76764 8.03841 3.16378 8.32708 4.80958 8.2321C5.87304 8.17087 7.90748 7.29736 8.29113 6.65754C8.38485 6.50134 9.16464 5.41539 9.15714 5.32041C9.33334 5.22794 10.2181 4.68809 10.6755 4.3057C11.0241 4.01453 11.2466 3.78334 11.2878 3.31222C11.3053 3.11353 11.2703 2.90234 11.1528 2.73988Z" fill="#F09300"/>
<path d="M7.46732 6.99011C6.94371 6.99011 6.46759 7.43249 6.46759 8.16729C6.46759 8.90208 6.94371 9.34446 7.46732 9.34446C7.99092 9.34446 8.46704 8.90208 8.46704 8.16729C8.46704 7.43249 7.99217 6.99011 7.46732 6.99011Z" fill="#422B0D"/>
<path d="M7.4221 7.48395C7.29338 7.39397 7.09969 7.42272 6.97472 7.60267C6.84976 7.78387 6.89099 7.97381 7.01971 8.06379C7.14842 8.15376 7.34212 8.12502 7.46709 7.94507C7.59205 7.76512 7.55206 7.57392 7.4221 7.48395Z" fill="#896024"/>
<path d="M12.2631 6.99011C11.7395 6.99011 11.2634 7.43249 11.2634 8.16729C11.2634 8.90208 11.7395 9.34446 12.2631 9.34446C12.7867 9.34446 13.2629 8.90208 13.2629 8.16729C13.2629 7.43249 12.7867 6.99011 12.2631 6.99011Z" fill="#422B0D"/>
<path d="M12.2149 7.48395C12.0862 7.39397 11.8925 7.42272 11.7675 7.60267C11.6426 7.78387 11.6838 7.97381 11.8125 8.06379C11.9412 8.15376 12.1349 8.12502 12.2599 7.94507C12.3861 7.76387 12.3436 7.57392 12.2149 7.48395Z" fill="#896024"/>
<path d="M5.69711 0.263813H6.19001C6.19001 0.263813 8.21461 -0.0117771 9.58375 0.00039143C10.8888 0.0119909 12.8078 0.263813 12.8078 0.263813H13.5835C14.3732 1.56835 14.9407 2.908 15.2009 4.28414C12.6498 3.55805 9.58375 5.09272 9.58375 5.09272C9.58375 5.09272 6.47168 3.58484 3.99118 4.12679C4.38822 2.71808 4.87756 1.43971 5.69711 0.263813Z" fill="#7F2125"/>
<path d="M5.69711 0.263813H6.19001C6.19001 0.263813 8.21461 -0.0117771 9.58375 0.00039143C10.8888 0.0119909 12.8078 0.263813 12.8078 0.263813H13.5835M5.69711 0.263813C4.87756 1.43971 4.38822 2.71808 3.99118 4.12679C6.47168 3.58484 9.58375 5.09272 9.58375 5.09272C9.58375 5.09272 12.6498 3.55805 15.2009 4.28414C14.9407 2.908 14.3732 1.56835 13.5835 0.263813M5.69711 0.263813C6.33824 0.96043 7.25164 0.522827 9.58375 1.05891C11.6952 0.539028 12.7119 0.994932 13.5835 0.263813" stroke="#67211F" stroke-width="0.0582032"/>
<path d="M9.60191 5.06994L9.6094 1.06237C11.1969 0.574285 12.4021 0.955343 13.5931 0.287476C14.1118 1.08545 14.9699 2.57961 15.2105 4.27265C13.1489 3.74155 10.969 4.44265 9.60191 5.06994Z" fill="#67211F" stroke="#67211F" stroke-width="0.0365292"/>
<path d="M6.87697 0.715642C6.51652 0.474088 6.17835 0.604986 6.19318 0.258057L5.72891 0.272817C6.09078 0.661429 6.6258 0.660412 6.87697 0.715642Z" fill="#67211F"/>
<path d="M12.2416 0.671108C12.602 0.431994 12.8905 0.586467 12.8757 0.243042H13.5871C13.2252 0.62773 12.4927 0.616435 12.2416 0.671108Z" fill="#67211F" fill-opacity="0.56"/>
<path d="M9.65369 0.302105L9.57273 1.01445L9.7214 1.00419L9.65369 0.302105Z" fill="#67211F" stroke="#67211F" stroke-width="0.0885594"/>
<path d="M7.70818 0.796901C7.44612 0.782244 7.28834 0.767587 7.07169 0.75293C6.93692 2.30272 6.88519 2.68648 7.16599 4.22151C7.54683 4.32126 7.83482 4.41538 8.16358 4.5167C7.39266 3.11377 7.60689 2.21251 7.70818 0.796901Z" fill="#D60000" stroke="#67211F" stroke-width="0.0365292"/>
<path d="M7.28002 0.774882L7.09007 0.76001L7.05208 1.04258L7.28002 0.774882Z" fill="#398F00" stroke="#67211F" stroke-width="0.00737995"/>
<path d="M6.97331 1.81581L7.68469 0.995005L7.69217 0.81179L7.28033 0.775146L7.05568 1.03898L6.97331 1.81581Z" fill="#FF7F00" stroke="#67211F" stroke-width="0.00737995"/>
<path d="M7.43691 1.27314C7.43691 1.27314 7.20977 1.01908 7.1299 0.950684L7.05501 1.03863L6.98013 1.80813C7.08996 1.67866 7.43691 1.27314 7.43691 1.27314Z" fill="#D60000" stroke="#67211F" stroke-width="0.00737995"/>
<path d="M7.65446 1.8815C7.65523 1.56524 7.66267 1.36912 7.68441 0.994751L6.98053 1.80822C6.95546 2.13094 6.94948 2.30896 6.94308 2.62168L7.65446 1.8815Z" fill="#007FFF" stroke="#67211F" stroke-width="0.00590396"/>
<path d="M7.48223 2.05751L7.13029 1.63245L6.98053 1.80833C6.96099 2.12676 6.95162 2.30345 6.94308 2.62181L7.48223 2.05751Z" fill="#398F00" stroke="#67211F" stroke-width="0.00590396"/>
<path d="M7.51218 2.79773L7.16773 2.38733L6.94308 2.62184C6.95057 2.95163 6.97304 3.09821 6.99553 3.36936L7.51218 2.79773Z" fill="#D60000" stroke="#67211F" stroke-width="0.00590396"/>
<path d="M7.4815 3.63294L7.13704 3.21521L6.99477 3.36911C7.05467 3.70623 7.06965 3.79417 7.12955 4.04334L7.4815 3.63294Z" fill="#007FFF" stroke="#67211F" stroke-width="0.00590396"/>
<path d="M7.57326 4.3311L7.23465 3.9187L7.1293 4.0439L7.17687 4.20801L7.57326 4.3311Z" fill="#FF7F00" stroke="#67211F" stroke-width="0.00590396"/>
<path d="M7.68954 2.59943C7.6629 2.35307 7.65284 2.20109 7.6521 1.88123L7.16537 2.3869C7.39002 2.65073 7.34509 2.5921 7.50983 2.7973L7.68954 2.59943Z" fill="#FF7F00" stroke="#67211F" stroke-width="0.00590396"/>
<path d="M7.77914 3.28141C7.74919 3.05422 7.71175 2.93697 7.68929 2.60718L7.13516 3.21545C7.35437 3.49529 7.31079 3.43245 7.47962 3.62579L7.77914 3.28141Z" fill="#398F00" stroke="#67211F" stroke-width="0.00590396"/>
<path d="M7.95444 3.93338C7.88705 3.69153 7.84961 3.58893 7.78222 3.28113L7.23558 3.91872C7.40781 4.13858 7.40781 4.13858 7.58004 4.33645L7.95444 3.93338Z" fill="#D60000" stroke="#67211F" stroke-width="0.00590396"/>
<path d="M8.16951 4.50379C7.99644 4.29023 8.00731 4.3008 7.82672 4.07251L7.56804 4.32581C7.88547 4.40924 7.87991 4.40739 7.87991 4.40739L8.16951 4.50379Z" fill="#398F00" stroke="#67211F" stroke-width="0.00590396"/>
<path d="M7.95432 3.93347L7.8264 4.07339L8.15749 4.4858H8.16501L7.95432 3.93347Z" fill="#007FFF" stroke="#67211F" stroke-width="0.00590396"/>
<path d="M7.73024 2.94553L7.69261 2.61414L7.64746 2.65832L7.57974 2.73197L7.73024 2.94553Z" fill="#007FFF" stroke="#67211F" stroke-width="0.00590396"/>
<g filter="url(#filter0_d_1206_10520)">
<path d="M8.67899 1.70094L8.79987 1.51388C8.79987 1.51388 8.93121 2.06251 8.83952 2.41348C8.76661 2.69254 8.49781 3.0567 8.49781 3.0567C8.37478 3.37112 8.38265 3.54357 8.44934 3.8486L8.20401 4.13735C8.20401 4.13735 8.12816 3.73753 8.00559 3.54145C7.82776 3.25696 7.53435 3.33433 7.35341 3.08428C7.0855 2.71405 7.22441 1.93242 7.22441 1.93242L7.44179 2.12082C7.44179 2.12082 7.57354 1.92621 7.70229 1.64691C7.74839 1.54688 7.79412 1.436 7.83327 1.31931C7.89312 1.14092 7.95976 0.854062 7.95976 0.854062L8.08543 1.11151L8.18649 0.974619C8.18649 0.974619 8.1953 1.17195 8.2326 1.28229C8.31819 1.53553 8.41649 1.62773 8.67899 1.70094Z" fill="url(#paint1_linear_1206_10520)"/>
<path d="M8.67899 1.70094C8.7262 1.62789 8.79987 1.51388 8.79987 1.51388C8.79987 1.51388 8.93121 2.06251 8.83952 2.41348C8.76661 2.69254 8.49781 3.0567 8.49781 3.0567C8.37478 3.37112 8.38265 3.54357 8.44934 3.8486L8.20401 4.13735C8.20401 4.13735 8.12816 3.73753 8.00559 3.54145C7.82776 3.25696 7.53435 3.33433 7.35341 3.08428C7.0855 2.71405 7.22441 1.93242 7.22441 1.93242L7.44179 2.12082M8.67899 1.70094C8.41649 1.62773 8.31819 1.53553 8.2326 1.28229C8.1953 1.17195 8.18649 0.974619 8.18649 0.974619L8.08543 1.11151M8.67899 1.70094C8.67179 1.72741 8.46066 2.18403 8.46066 2.18403C8.46066 2.18403 8.29556 1.86757 8.22132 1.65297M7.44179 2.12082C7.56616 2.264 7.58487 2.35757 7.62011 2.52347L7.78151 1.92982L8.02778 2.29428L8.07079 1.50094L8.22132 1.65297M7.44179 2.12082C7.44179 2.12082 7.57354 1.92621 7.70229 1.64691C7.74839 1.54688 7.79412 1.436 7.83327 1.31931C7.89312 1.14092 7.95976 0.854062 7.95976 0.854062L8.08543 1.11151M8.08543 1.11151C8.08543 1.11151 8.14994 1.44664 8.22132 1.65297" stroke="#F8F7FC" stroke-width="0.0365292"/>
</g>
<path d="M2.92453 7.27022C1.91481 6.258 2.22972 3.93989 4.15669 3.40129C5.05895 3.14886 5.45759 2.85894 5.9512 2.67649C6.63227 2.42406 7.50078 1.88046 7.8082 1.86297C8.21433 1.84048 8.37929 2.17038 8.37929 2.17038C8.37929 2.17038 8.77918 1.9467 9.0616 1.77549C9.34403 1.60429 9.53272 1.54681 9.70268 1.64428C9.90637 1.75925 10.0238 2.04667 10.0238 2.04667C10.0238 2.04667 10.1526 1.93545 10.2888 1.80174C10.4775 1.61679 10.8361 1.67552 10.9898 1.99418C11.1298 2.2841 10.8624 2.91018 10.8624 2.91018C10.8624 2.91018 11.2672 2.91268 11.0798 3.50626C10.8924 4.09985 10.5862 4.23731 10.36 4.43975C10.1338 4.6422 9.48649 5.02834 9.20156 5.20454C9.20156 5.20454 9.43525 5.47696 9.33778 5.82562C9.29404 5.98058 9.15408 6.0843 9.03411 6.18677C8.86666 6.33048 8.01439 6.91407 7.83444 7.04153C7.40955 7.3427 6.08492 7.99751 5.30388 8.04375C5.30138 8.0425 3.9555 8.30493 2.92453 7.27022Z" fill="url(#paint2_linear_1206_10520)"/>
<path d="M3.94603 6.16116C3.78233 6.24239 3.56488 6.14741 3.72234 5.96246C4.02851 5.65505 4.38216 5.39012 4.63209 5.03022C4.76706 4.85777 4.87703 4.65283 4.92326 4.56785C4.9695 4.48287 5.04323 4.3904 5.08197 4.49912C5.10821 4.5741 5.06198 4.7328 5.01824 4.84777C4.77705 5.35388 4.43965 5.87499 3.94603 6.16116Z" fill="#F09300"/>
<path d="M11.1541 3.55572C11.3641 2.96964 10.9405 2.82468 10.9405 2.82468C10.9405 2.82468 11.2366 2.27358 11.0117 1.89119C10.8442 1.60502 10.623 1.55753 10.3644 1.68999C10.1869 1.78122 10.012 1.95617 10.012 1.95617C10.012 1.95617 9.96697 1.68124 9.76327 1.56628C9.51959 1.44881 9.33589 1.45131 8.97224 1.73123C8.7573 1.89618 8.37865 2.17111 8.37865 2.17111C8.13622 1.78122 7.82006 1.86244 7.80756 1.86369C7.49889 1.87994 6.63163 2.42479 5.95057 2.67722C5.45695 2.85967 4.96334 2.94089 4.08858 3.2758C2.38904 3.92687 2.04913 5.18777 2.41279 6.3537C2.32531 4.60418 3.33878 3.96436 4.22229 3.6257C4.72215 3.43451 5.09205 3.32829 5.41821 3.23581C6.00055 3.08835 6.54041 2.85092 7.07276 2.5735C7.34519 2.43728 7.52889 2.32731 7.62636 2.27983C7.75632 2.21734 7.90378 2.22984 8.00875 2.29482C8.10998 2.35731 8.23994 2.51226 8.05999 2.75095C7.91253 2.94589 7.50639 3.0971 7.14024 3.26705C6.93405 3.37077 5.72188 3.88938 5.92807 4.17305C5.96431 4.22679 6.03055 4.25303 6.09303 4.23678C6.14676 4.21929 6.25173 4.21179 6.29047 4.16555C6.61289 3.84689 7.03402 3.69818 7.4614 3.48949C7.93627 3.2683 8.32992 3.0846 8.54861 2.52101L8.62234 2.47352C8.77729 2.34481 9.08971 2.08363 9.3084 1.91618C9.4771 1.75622 9.81326 1.87369 9.85075 2.08613C9.88824 2.29857 9.74828 2.49477 9.45336 2.81593C8.92225 3.35828 7.63761 3.84564 7.08776 4.50296C6.99653 4.61168 7.109 4.78663 7.24646 4.74789C7.30895 4.7304 7.39767 4.70665 7.55138 4.5242C7.70509 4.34176 8.10498 4.08433 8.58985 3.79566C9.23092 3.40701 9.83825 2.89841 10.0957 2.25858C10.1719 2.06989 10.3981 1.95117 10.6068 1.94867C10.833 1.94992 10.9892 2.23234 10.808 2.60224C10.7268 2.76969 10.648 2.9184 10.2781 3.31329C9.95072 3.66194 9.50709 3.92187 9.04097 4.1893C8.62359 4.42798 8.2112 4.69291 8.01375 4.92909C7.91628 5.03781 7.97751 5.21901 8.12122 5.18402C8.18121 5.17152 8.21245 5.21526 8.35491 5.04781C8.49737 4.88036 8.80229 4.64542 9.17718 4.43173C9.84075 4.09307 10.3894 3.60946 10.7967 3.05961C10.7967 3.05961 11.0479 3.08835 10.9692 3.41326C10.748 4.33551 9.64081 4.67041 8.93225 5.17652C8.51237 5.39146 7.4839 6.22748 7.27895 6.13751C6.82283 5.93631 5.63315 5.86633 4.96084 6.50116C4.88586 6.57239 4.76339 6.6986 4.80338 6.75109C4.84337 6.80357 4.93085 6.72984 4.98958 6.69235C5.51944 6.35744 6.26423 6.19499 7.17023 6.47991C7.36018 6.53989 8.69732 5.65889 9.09221 5.41396C9.08596 5.41021 9.77577 4.99282 10.1494 4.7329C10.5256 4.47172 10.9417 4.14806 11.1541 3.55572Z" fill="#F09300"/>
<path d="M9.28151 5.24722C9.339 5.21098 9.01534 5.40343 9.01534 5.40343C9.03408 5.42342 9.20403 5.59212 9.17154 5.70709C9.1578 5.75708 9.17529 5.87579 8.91411 6.06574C8.77415 6.16696 7.59697 6.99423 7.59697 6.99423C4.63029 8.97493 2.71831 7.06296 2.92325 7.26916C2.9245 7.27041 2.92575 7.27166 2.927 7.27291C3.95672 8.30262 5.35384 8.15391 5.35384 8.15391C6.62849 7.96521 7.45326 7.41287 7.87815 7.1117C8.0581 6.98424 8.9641 6.35066 9.13155 6.20695C9.25152 6.10448 9.38273 5.98951 9.42647 5.83331C9.52145 5.4934 9.29401 5.25972 9.28151 5.24722Z" fill="#F09300"/>
</g>
<defs>
<filter id="filter0_d_1206_10520" x="7.17012" y="0.799683" width="1.84715" height="3.49072" filterUnits="userSpaceOnUse" color-interpolation-filters="sRGB">
<feFlood flood-opacity="0" result="BackgroundImageFix"/>
<feColorMatrix in="SourceAlpha" type="matrix" values="0 0 0 0 0 0 0 0 0 0 0 0 0 0 0 0 0 0 127 0" result="hardAlpha"/>
<feOffset dx="0.0737995" dy="0.0590396"/>
<feGaussianBlur stdDeviation="0.0265678"/>
<feComposite in2="hardAlpha" operator="out"/>
<feColorMatrix type="matrix" values="0 0 0 0 0 0 0 0 0 0 0 0 0 0 0 0 0 0 0.25 0"/>
<feBlend mode="normal" in2="BackgroundImageFix" result="effect1_dropShadow_1206_10520"/>
<feBlend mode="normal" in="SourceGraphic" in2="effect1_dropShadow_1206_10520" result="shape"/>
</filter>
<radialGradient id="paint0_radial_1206_10520" cx="0" cy="0" r="1" gradientUnits="userSpaceOnUse" gradientTransform="translate(9.91524 9.23457) scale(7.11802 7.11799)">
<stop offset="0.5" stop-color="#FDE030"/>
<stop offset="0.9188" stop-color="#F7C02B"/>
<stop offset="1" stop-color="#F4A223"/>
</radialGradient>
<linearGradient id="paint1_linear_1206_10520" x1="8.3617" y1="0.960206" x2="7.56711" y2="3.96916" gradientUnits="userSpaceOnUse">
<stop stop-color="#C9C9C9"/>
<stop offset="1" stop-color="#939297"/>
</linearGradient>
<linearGradient id="paint2_linear_1206_10520" x1="8.44115" y1="8.48635" x2="6.43224" y2="3.52048" gradientUnits="userSpaceOnUse">
<stop stop-color="#FFC400"/>
<stop offset="1" stop-color="#FFF176"/>
</linearGradient>
<clipPath id="clip0_1206_10520">
<rect width="17.996" height="17.996" fill="white" transform="translate(0.967438)"/>
</clipPath>
</defs>
</svg>
