<svg width="18" height="18" viewBox="0 0 18 18" fill="none" xmlns="http://www.w3.org/2000/svg">
<g clip-path="url(#clip0_1217_8786)">
<path d="M9.01433 16.6875C5.52701 16.6875 1.76471 14.5001 1.76471 9.70036C1.76471 4.90063 5.52701 2.71326 9.01433 2.71326C10.9517 2.71326 12.7391 3.35072 14.0641 4.51315C15.5015 5.78808 16.2639 7.58798 16.2639 9.70036C16.2639 11.8127 15.5015 13.6001 14.0641 14.8751C12.7391 16.0375 10.9392 16.6875 9.01433 16.6875Z" fill="url(#paint0_radial_1217_8786)"/>
<path d="M15.0002 5.547C15.6664 6.62194 16.0139 7.90186 16.0139 9.32553C16.0139 11.4379 15.2515 13.2253 13.814 14.5002C12.4891 15.6627 10.6892 16.3126 8.76431 16.3126C6.50693 16.3126 4.13955 15.3939 2.74213 13.4453C4.08706 15.6527 6.61692 16.6876 9.01429 16.6876C10.9392 16.6876 12.7391 16.0376 14.064 14.8752C15.5014 13.6003 16.2639 11.8129 16.2639 9.70051C16.2639 8.1081 15.8302 6.69318 15.0002 5.547Z" fill="#EB8F00"/>
<path d="M12.1892 12.8397H5.93955C5.66331 12.8397 5.43958 12.6159 5.43958 12.3397C5.43958 12.0635 5.66331 11.8397 5.93955 11.8397H12.1892C12.4655 11.8397 12.6892 12.0635 12.6892 12.3397C12.6892 12.6159 12.4655 12.8397 12.1892 12.8397Z" fill="#422B0D"/>
<path d="M6.6482 7.5813C6.12448 7.5813 5.64825 8.02377 5.64825 8.75873C5.64825 9.49369 6.12448 9.93491 6.6482 9.93491C7.17192 9.93491 7.64815 9.49244 7.64815 8.75873C7.64815 8.02502 7.17192 7.5813 6.6482 7.5813Z" fill="#422B0D"/>
<path d="M6.59971 8.07055C6.42222 7.98556 6.20848 8.06055 6.12224 8.23804C6.05599 8.37678 6.08599 8.54302 6.19723 8.65052C6.37473 8.73551 6.58846 8.66052 6.67471 8.48303C6.74096 8.34428 6.71096 8.17804 6.59971 8.07055Z" fill="#896024"/>
<path d="M11.4392 7.5813C10.9154 7.5813 10.4392 8.02377 10.4392 8.75873C10.4392 9.49369 10.9154 9.93491 11.4392 9.93491C11.9629 9.93491 12.4391 9.49244 12.4391 8.75873C12.4391 8.02502 11.9654 7.5813 11.4392 7.5813Z" fill="#422B0D"/>
<path d="M11.3929 8.07055C11.2154 7.98556 11.0017 8.06055 10.9155 8.23804C10.8492 8.37678 10.8792 8.54302 10.9904 8.65052C11.1679 8.73551 11.3817 8.66052 11.4679 8.48303C11.5342 8.34428 11.5042 8.17804 11.3929 8.07055Z" fill="#896024"/>
<path d="M4.7286 1.52701H5.27507C5.27507 1.52701 7.51971 1.22233 9.03763 1.23578C10.4846 1.24861 12.6121 1.52701 12.6121 1.52701H13.4721C14.3476 2.96923 14.9768 4.45029 15.2653 5.97167C12.4369 5.16895 9.03763 6.8656 9.03763 6.8656C9.03763 6.8656 5.58735 5.19856 2.83728 5.79772C3.27747 4.24032 3.81999 2.82702 4.7286 1.52701Z" fill="#7F2125"/>
<path d="M4.7286 1.52701H5.27507C5.27507 1.52701 7.51971 1.22233 9.03763 1.23578C10.4846 1.24861 12.6121 1.52701 12.6121 1.52701H13.4721M4.7286 1.52701C3.81999 2.82702 3.27747 4.24032 2.83728 5.79772C5.58735 5.19856 9.03763 6.8656 9.03763 6.8656C9.03763 6.8656 12.4369 5.16895 15.2653 5.97167C14.9768 4.45029 14.3476 2.96923 13.4721 1.52701M4.7286 1.52701C5.43941 2.29715 6.45208 1.81336 9.03763 2.40603C11.3786 1.83127 12.5057 2.3353 13.4721 1.52701" stroke="#67211F" stroke-width="0.0643464"/>
<path d="M9.05609 6.84059L9.06439 2.41003C10.8244 1.87043 12.1606 2.2917 13.481 1.55334C14.0561 2.43555 15.0074 4.08741 15.2742 5.95915C12.9885 5.37199 10.5717 6.14709 9.05609 6.84059Z" fill="#67211F" stroke="#67211F" stroke-width="0.0403848"/>
<path d="M6.03558 2.02639C5.63596 1.75934 5.26104 1.90406 5.27748 1.52051L4.76276 1.53683C5.16395 1.96646 5.75711 1.96533 6.03558 2.02639Z" fill="#67211F"/>
<path d="M11.9862 1.9774C12.3859 1.71305 12.7057 1.88382 12.6893 1.50415H13.478C13.0768 1.92944 12.2647 1.91695 11.9862 1.9774Z" fill="#67211F" fill-opacity="0.56"/>
<path d="M9.115 1.56944L9.02525 2.35697L9.19007 2.34562L9.115 1.56944Z" fill="#67211F" stroke="#67211F" stroke-width="0.0979067"/>
<path d="M6.95779 2.11612C6.66725 2.09991 6.49232 2.08371 6.25213 2.0675C6.10271 3.78087 6.04535 4.20513 6.35667 5.90218C6.7789 6.01247 7.09819 6.11652 7.46268 6.22854C6.60798 4.67753 6.84549 3.68114 6.95779 2.11612Z" fill="#D60000" stroke="#67211F" stroke-width="0.0403848"/>
<path d="M6.48231 2.09167L6.27437 2.07544L6.23279 2.38389L6.48231 2.09167Z" fill="#398F00" stroke="#67211F" stroke-width="0.00815889"/>
<path d="M6.1416 3.24255L6.93029 2.33511L6.93859 2.13255L6.48198 2.09204L6.23292 2.38372L6.1416 3.24255Z" fill="#FF7F00" stroke="#67211F" stroke-width="0.00815889"/>
<path d="M6.65626 2.64287C6.65626 2.64287 6.40443 2.362 6.31588 2.28638L6.23286 2.3836L6.14984 3.23433C6.2716 3.09119 6.65626 2.64287 6.65626 2.64287Z" fill="#D60000" stroke="#67211F" stroke-width="0.00815889"/>
<path d="M6.89727 3.31531C6.89812 2.96566 6.90637 2.74884 6.93047 2.33496L6.15009 3.23429C6.1223 3.59107 6.11567 3.78788 6.10858 4.13361L6.89727 3.31531Z" fill="#007FFF" stroke="#67211F" stroke-width="0.00652711"/>
<path d="M6.70632 3.50984L6.31613 3.03992L6.15009 3.23437C6.12843 3.5864 6.11804 3.78174 6.10858 4.13371L6.70632 3.50984Z" fill="#398F00" stroke="#67211F" stroke-width="0.00652711"/>
<path d="M6.73953 4.32799L6.35764 3.87427L6.10858 4.13354C6.11688 4.49813 6.14179 4.66018 6.16673 4.95995L6.73953 4.32799Z" fill="#D60000" stroke="#67211F" stroke-width="0.00652711"/>
<path d="M6.70625 5.25174L6.32436 4.78992L6.16663 4.96006C6.23304 5.33276 6.24965 5.42999 6.31606 5.70546L6.70625 5.25174Z" fill="#007FFF" stroke="#67211F" stroke-width="0.00652711"/>
<path d="M6.80555 6.02123L6.43196 5.5675L6.31573 5.70524L6.36821 5.8858L6.80555 6.02123Z" fill="#FF7F00" stroke="#67211F" stroke-width="0.00652711"/>
<path d="M6.93807 4.10907C6.90853 3.83671 6.89738 3.66869 6.89656 3.31506L6.35693 3.87411C6.60599 4.16579 6.55618 4.10097 6.73882 4.32783L6.93807 4.10907Z" fill="#FF7F00" stroke="#67211F" stroke-width="0.00652711"/>
<path d="M7.03727 4.86271C7.00406 4.61154 6.96255 4.48191 6.93765 4.11731L6.3233 4.78979C6.56634 5.09916 6.51801 5.02968 6.70519 5.24343L7.03727 4.86271Z" fill="#398F00" stroke="#67211F" stroke-width="0.00652711"/>
<path d="M7.2293 5.58401C7.15458 5.31664 7.11307 5.20321 7.03835 4.86292L6.43231 5.5678C6.62326 5.81087 6.62326 5.81087 6.8142 6.02962L7.2293 5.58401Z" fill="#D60000" stroke="#67211F" stroke-width="0.00652711"/>
<path d="M7.46572 6.21228C7.27478 5.97732 7.28677 5.98896 7.08752 5.73779L6.80212 6.01647C7.15234 6.10825 7.14621 6.10622 7.14621 6.10622L7.46572 6.21228Z" fill="#398F00" stroke="#67211F" stroke-width="0.00652711"/>
<path d="M7.22957 5.58374L7.08844 5.73768L7.45373 6.1914H7.46203L7.22957 5.58374Z" fill="#007FFF" stroke="#67211F" stroke-width="0.00652711"/>
<path d="M6.98013 4.49008L6.93862 4.12549L6.8888 4.1741L6.81409 4.25512L6.98013 4.49008Z" fill="#007FFF" stroke="#67211F" stroke-width="0.00652711"/>
<g filter="url(#filter0_d_1217_8786)">
<path d="M8.03517 3.11579L8.16919 2.90899C8.16919 2.90899 8.31481 3.51552 8.21315 3.90353C8.13232 4.21206 7.83431 4.61465 7.83431 4.61465C7.69791 4.96226 7.70663 5.15291 7.78057 5.49013L7.50857 5.80936C7.50857 5.80936 7.42448 5.36734 7.28859 5.15056C7.09144 4.83605 6.76614 4.92158 6.56553 4.64514C6.26851 4.23583 6.42251 3.3717 6.42251 3.3717L6.66352 3.57999C6.66352 3.57999 6.80958 3.36483 6.95232 3.05605C7.00344 2.94547 7.05413 2.82289 7.09754 2.69388C7.16389 2.49666 7.23778 2.17953 7.23778 2.17953L7.3771 2.46414L7.48915 2.31281C7.48915 2.31281 7.49892 2.53096 7.54027 2.65295C7.63517 2.93293 7.74415 3.03485 8.03517 3.11579Z" fill="url(#paint1_linear_1217_8786)"/>
<path d="M8.03517 3.11579C8.08751 3.03503 8.16919 2.90899 8.16919 2.90899C8.16919 2.90899 8.31481 3.51552 8.21315 3.90353C8.13232 4.21206 7.83431 4.61465 7.83431 4.61465C7.69791 4.96226 7.70663 5.15291 7.78057 5.49013L7.50857 5.80936C7.50857 5.80936 7.42448 5.36734 7.28859 5.15056C7.09144 4.83605 6.76614 4.92158 6.56553 4.64514C6.26851 4.23583 6.42251 3.3717 6.42251 3.3717L6.66352 3.57999M8.03517 3.11579C7.74415 3.03485 7.63517 2.93293 7.54027 2.65295C7.49892 2.53096 7.48915 2.31281 7.48915 2.31281L7.3771 2.46414M8.03517 3.11579C8.02719 3.14506 7.79312 3.64987 7.79312 3.64987C7.79312 3.64987 7.61007 3.30001 7.52776 3.06276M6.66352 3.57999C6.8014 3.73828 6.82215 3.84173 6.86122 4.02514L7.04016 3.36883L7.31319 3.77175L7.36088 2.89468L7.52776 3.06276M6.66352 3.57999C6.66352 3.57999 6.80958 3.36483 6.95232 3.05605C7.00344 2.94547 7.05413 2.82289 7.09754 2.69388C7.16389 2.49666 7.23778 2.17953 7.23778 2.17953L7.3771 2.46414M7.3771 2.46414C7.3771 2.46414 7.44862 2.83465 7.52776 3.06276" stroke="#F8F7FC" stroke-width="0.0403848"/>
</g>
</g>
<defs>
<filter id="filter0_d_1217_8786" x="6.36237" y="2.11963" width="2.04738" height="3.85888" filterUnits="userSpaceOnUse" color-interpolation-filters="sRGB">
<feFlood flood-opacity="0" result="BackgroundImageFix"/>
<feColorMatrix in="SourceAlpha" type="matrix" values="0 0 0 0 0 0 0 0 0 0 0 0 0 0 0 0 0 0 127 0" result="hardAlpha"/>
<feOffset dx="0.0815889" dy="0.0652711"/>
<feGaussianBlur stdDeviation="0.029372"/>
<feComposite in2="hardAlpha" operator="out"/>
<feColorMatrix type="matrix" values="0 0 0 0 0 0 0 0 0 0 0 0 0 0 0 0 0 0 0.25 0"/>
<feBlend mode="normal" in2="BackgroundImageFix" result="effect1_dropShadow_1217_8786"/>
<feBlend mode="normal" in="SourceGraphic" in2="effect1_dropShadow_1217_8786" result="shape"/>
</filter>
<radialGradient id="paint0_radial_1217_8786" cx="0" cy="0" r="1" gradientUnits="userSpaceOnUse" gradientTransform="translate(9.01432 9.70034) scale(7.11958 7.11955)">
<stop offset="0.5" stop-color="#FDE030"/>
<stop offset="0.92" stop-color="#F7C02B"/>
<stop offset="1" stop-color="#F4A223"/>
</radialGradient>
<linearGradient id="paint1_linear_1217_8786" x1="7.6834" y1="2.29687" x2="6.8071" y2="5.62463" gradientUnits="userSpaceOnUse">
<stop stop-color="#C9C9C9"/>
<stop offset="1" stop-color="#939297"/>
</linearGradient>
<clipPath id="clip0_1217_8786">
<rect width="18" height="18" fill="white"/>
</clipPath>
</defs>
</svg>
