<svg width="18" height="18" viewBox="0 0 18 18" fill="none" xmlns="http://www.w3.org/2000/svg">
<path d="M9.29774 16.8361C5.78886 16.8361 2.0033 14.6352 2.0033 9.80582C2.0033 4.97641 5.78886 2.77551 9.29774 2.77551C11.2471 2.77551 13.0456 3.41692 14.3787 4.58654C15.825 5.86935 16.5922 7.68038 16.5922 9.80582C16.5922 11.9313 15.825 13.7297 14.3787 15.0125C13.0456 16.1821 11.2345 16.8361 9.29774 16.8361Z" fill="url(#paint0_radial_1193_933)"/>
<path d="M15.3222 5.6272C15.9926 6.70878 16.3422 7.99663 16.3422 9.4291C16.3422 11.5545 15.575 13.353 14.1287 14.6358C12.7956 15.8054 10.9846 16.4594 9.04776 16.4594C6.77642 16.4594 4.39441 15.535 2.98834 13.5743C4.34159 15.7954 6.8871 16.8367 9.2993 16.8367C11.2361 16.8367 13.0471 16.1827 14.3803 15.0131C15.8266 13.7303 16.5937 11.9318 16.5937 9.8064C16.5937 8.20414 16.1573 6.78047 15.3222 5.6272Z" fill="#EB8F00"/>
<path fill-rule="evenodd" clip-rule="evenodd" d="M5.57367 8.81788C5.57367 8.54005 5.7989 8.31482 6.07673 8.31482H7.96323C8.24107 8.31482 8.4663 8.54005 8.4663 8.81788C8.4663 9.09572 8.24107 9.32095 7.96323 9.32095H6.07673C5.7989 9.32095 5.57367 9.09572 5.57367 8.81788Z" fill="#35220B"/>
<path fill-rule="evenodd" clip-rule="evenodd" d="M10.3545 8.81788C10.3545 8.54005 10.5798 8.31482 10.8576 8.31482H12.7441C13.0219 8.31482 13.2471 8.54005 13.2471 8.81788C13.2471 9.09572 13.0219 9.32095 12.7441 9.32095H10.8576C10.5798 9.32095 10.3545 9.09572 10.3545 8.81788Z" fill="#35220B"/>
<path d="M12.4947 12.9673H6.20637C5.92843 12.9673 5.70331 12.7422 5.70331 12.4642C5.70331 12.1863 5.92843 11.9612 6.20637 11.9612H12.4947C12.7726 11.9612 12.9978 12.1863 12.9978 12.4642C12.9978 12.7422 12.7726 12.9673 12.4947 12.9673Z" fill="#422B0D"/>
<path d="M5.34633 1.26634H5.8508C5.8508 1.26634 7.92292 0.98811 9.32418 1.0004C10.6599 1.01211 12.6239 1.26634 12.6239 1.26634H13.4178C14.226 2.58339 14.8069 3.93589 15.0732 5.32523C12.6239 5.6285 9.3636 6.34217 9.3636 6.34217C9.3636 6.34217 6.27506 5.70793 3.60037 5.16637C4.00673 3.74415 4.50756 2.45352 5.34633 1.26634Z" fill="#7F2125"/>
<path d="M5.34633 1.26634H5.8508C5.8508 1.26634 7.92292 0.98811 9.32418 1.0004C10.6599 1.01211 12.6239 1.26634 12.6239 1.26634H13.4178M5.34633 1.26634C4.50756 2.45352 4.00673 3.74415 3.60037 5.16637C6.27506 5.70793 9.3636 6.34217 9.3636 6.34217C9.3636 6.34217 12.6239 5.6285 15.0732 5.32523C14.8069 3.93589 14.226 2.58339 13.4178 1.26634M5.34633 1.26634C6.00251 1.96964 6.93735 1.52784 9.32418 2.06907C11.4852 1.5442 12.5257 2.00447 13.4178 1.26634" stroke="#67211F" stroke-width="0.0587614"/>
<path d="M9.37193 6.33444L9.34894 2.07237C10.9737 1.5796 12.2072 1.96431 13.4261 1.29004C13.957 2.09567 14.8352 3.60415 15.0815 5.31343C13.2115 5.52976 10.2379 6.14817 9.37193 6.33444Z" fill="#67211F" stroke="#67211F" stroke-width="0.0368795"/>
<path d="M12.0486 1.67656C12.4175 1.43515 12.7128 1.5911 12.6976 1.24438H13.4257C13.0553 1.63276 12.3057 1.62136 12.0486 1.67656Z" fill="#67211F" fill-opacity="0.56"/>
<path d="M6.55497 1.72308C6.18607 1.47921 5.83996 1.61137 5.85513 1.26111L5.37997 1.27601C5.75034 1.66835 6.29791 1.66732 6.55497 1.72308Z" fill="#67211F"/>
<path d="M9.39474 1.30466L9.31189 2.02384L9.46404 2.01348L9.39474 1.30466Z" fill="#67211F" stroke="#67211F" stroke-width="0.0894087"/>
<path d="M7.40262 1.78971C7.13724 1.7726 6.97752 1.75637 6.75816 1.73965C6.55007 3.28739 6.45077 4.34658 6.9953 5.83194C7.35121 5.9094 7.72255 5.95719 8.07853 6.02721C7.31003 4.59454 7.28734 3.22792 7.40262 1.78971Z" fill="#D60000" stroke="#67211F" stroke-width="0.0368795"/>
<path d="M6.96352 1.76232L6.77353 1.7458L6.73301 2.02928L6.96352 1.76232Z" fill="#398F00" stroke="#67211F" stroke-width="0.00745073"/>
<path d="M6.64359 2.81902L7.37164 1.9906L7.38087 1.80441L6.96394 1.76369L6.73399 2.03L6.64359 2.81902Z" fill="#FF7F00" stroke="#67211F" stroke-width="0.00745073"/>
<path d="M7.12035 2.27196C7.12035 2.27196 6.8925 2.01178 6.81219 1.94157L6.73554 2.03034L6.65279 2.81196C6.76522 2.68127 7.12035 2.27196 7.12035 2.27196Z" fill="#D60000" stroke="#67211F" stroke-width="0.00745073"/>
<path d="M7.33477 2.89144C7.33837 2.56995 7.34767 2.37064 7.37304 1.99025L6.65264 2.81127C6.62435 3.13912 6.61671 3.32005 6.60743 3.6379L7.33477 2.89144Z" fill="#007FFF" stroke="#67211F" stroke-width="0.00596058"/>
<path d="M7.15864 3.06909L6.80587 2.63402L6.65257 2.81156C6.62993 3.1351 6.61886 3.31464 6.60736 3.6382L7.15864 3.06909Z" fill="#398F00" stroke="#67211F" stroke-width="0.00596058"/>
<path d="M7.18335 3.82153L6.83804 3.40143L6.60835 3.63794C6.61298 3.97325 6.63443 4.12244 6.6548 4.39828L7.18335 3.82153Z" fill="#D60000" stroke="#67211F" stroke-width="0.00596058"/>
<path d="M7.14408 4.67192L6.79884 4.24436L6.65332 4.39962C6.71099 4.74282 6.72538 4.83235 6.78385 5.08615L7.14408 4.67192Z" fill="#007FFF" stroke="#67211F" stroke-width="0.00596058"/>
<path d="M7.22945 5.3793L6.89173 4.95926L6.78441 5.08502C6.86504 5.40607 6.87269 5.39868 6.9464 5.64517L7.22945 5.3793Z" fill="#FF7F00" stroke="#67211F" stroke-width="0.00596058"/>
<path d="M7.4084 5.89601L7.10077 5.50602L6.94779 5.64631C6.97003 5.7061 6.99972 5.78085 7.01456 5.81823L7.4084 5.89601Z" fill="#007FFF" stroke="#67211F" stroke-width="0.00596058"/>
<path d="M7.36594 3.62283C7.34115 3.37215 7.33232 3.21758 7.33443 2.89241L6.83679 3.40236C7.06202 3.67245 7.01703 3.61247 7.1821 3.82246L7.36594 3.62283Z" fill="#FF7F00" stroke="#67211F" stroke-width="0.00596058"/>
<path d="M7.44923 4.31497C7.42092 4.08377 7.38404 3.96425 7.36422 3.62881L6.79739 4.2425C7.01698 4.52882 6.97338 4.46457 7.1427 4.66253L7.44923 4.31497Z" fill="#398F00" stroke="#67211F" stroke-width="0.00596058"/>
<path d="M7.61764 4.98161C7.55153 4.73519 7.51451 4.63057 7.44898 4.3171L6.88947 4.96065C7.06199 5.18561 7.06199 5.18561 7.23471 5.38821L7.61764 4.98161Z" fill="#D60000" stroke="#67211F" stroke-width="0.00596058"/>
<path d="M7.81806 5.54124C7.64547 5.32373 7.66797 5.35372 7.48792 5.12126L7.09761 5.50544C7.27013 5.7304 7.24011 5.69289 7.39766 5.89537L7.81806 5.54124Z" fill="#398F00" stroke="#67211F" stroke-width="0.00596058"/>
<path d="M7.6167 4.98069L7.48649 5.12117L7.81662 5.54114L7.82421 5.54121L7.6167 4.98069Z" fill="#007FFF" stroke="#67211F" stroke-width="0.00596058"/>
<path d="M7.39988 3.97226L7.3649 3.63669L7.31898 3.68101L7.25005 3.75494L7.39988 3.97226Z" fill="#007FFF" stroke="#67211F" stroke-width="0.00596058"/>
<path d="M7.60337 5.72544L7.82508 5.53357C7.90386 5.72515 7.95242 5.82745 8.04855 6.00481L7.77583 5.95784L7.60337 5.72544Z" fill="#FF7F00" stroke="#67211F" stroke-width="0.00447043"/>
<g filter="url(#filter0_d_1193_933)">
<path d="M8.55263 2.87405L8.67635 2.6852C8.67635 2.6852 8.81077 3.23909 8.71692 3.59342C8.64231 3.87516 8.3672 4.24281 8.3672 4.24281C8.24128 4.56025 8.24934 4.73435 8.31759 5.0423L8.0665 5.33382C8.0665 5.33382 7.98887 4.93017 7.86342 4.73221C7.68142 4.44499 7.38113 4.5231 7.19594 4.27066C6.92174 3.89688 7.06391 3.10774 7.06391 3.10774L7.2864 3.29795C7.2864 3.29795 7.42123 3.10147 7.553 2.8195C7.60019 2.71851 7.64699 2.60657 7.68706 2.48875C7.74831 2.30866 7.81652 2.01905 7.81652 2.01905L7.94513 2.27896L8.04857 2.14076C8.04857 2.14076 8.05759 2.33998 8.09576 2.45138C8.18336 2.70706 8.28397 2.80013 8.55263 2.87405Z" fill="#939297"/>
<path d="M8.55263 2.87405C8.60094 2.8003 8.67635 2.6852 8.67635 2.6852C8.67635 2.6852 8.81077 3.23909 8.71692 3.59342C8.64231 3.87516 8.3672 4.24281 8.3672 4.24281C8.24128 4.56025 8.24934 4.73435 8.31759 5.0423L8.0665 5.33382C8.0665 5.33382 7.98887 4.93017 7.86342 4.73221C7.68142 4.44499 7.38113 4.5231 7.19594 4.27066C6.92174 3.89688 7.06391 3.10774 7.06391 3.10774L7.2864 3.29795M8.55263 2.87405C8.28397 2.80013 8.18336 2.70706 8.09576 2.45138C8.05759 2.33998 8.04857 2.14076 8.04857 2.14076L7.94513 2.27896M8.55263 2.87405C8.54526 2.90078 8.32917 3.36177 8.32917 3.36177C8.32917 3.36177 8.1602 3.04228 8.08421 2.82562M7.2864 3.29795C7.41368 3.44251 7.43283 3.53698 7.4689 3.70447L7.63409 3.10513L7.88613 3.47307M7.2864 3.29795C7.2864 3.29795 7.42123 3.10147 7.553 2.8195C7.60019 2.71851 7.64699 2.60657 7.68706 2.48875C7.74831 2.30866 7.81652 2.01905 7.81652 2.01905L7.94513 2.27896M7.94513 2.27896C7.94513 2.27896 8.01116 2.61731 8.08421 2.82562M8.08421 2.82562L7.93016 2.67213L7.88613 3.47307M7.88613 3.47307L7.86342 3.86886" stroke="#F8F7FC" stroke-width="0.0368795"/>
</g>
<defs>
<filter id="filter0_d_1193_933" x="7.00858" y="1.96472" width="1.88828" height="3.52329" filterUnits="userSpaceOnUse" color-interpolation-filters="sRGB">
<feFlood flood-opacity="0" result="BackgroundImageFix"/>
<feColorMatrix in="SourceAlpha" type="matrix" values="0 0 0 0 0 0 0 0 0 0 0 0 0 0 0 0 0 0 127 0" result="hardAlpha"/>
<feOffset dx="0.0745073" dy="0.0596058"/>
<feGaussianBlur stdDeviation="0.0268226"/>
<feComposite in2="hardAlpha" operator="out"/>
<feColorMatrix type="matrix" values="0 0 0 0 0 0 0 0 0 0 0 0 0 0 0 0 0 0 0.25 0"/>
<feBlend mode="normal" in2="BackgroundImageFix" result="effect1_dropShadow_1193_933"/>
<feBlend mode="normal" in="SourceGraphic" in2="effect1_dropShadow_1193_933" result="shape"/>
</filter>
<radialGradient id="paint0_radial_1193_933" cx="0" cy="0" r="1" gradientUnits="userSpaceOnUse" gradientTransform="translate(9.29774 9.80581) scale(7.16361 7.16358)">
<stop offset="0.5" stop-color="#FDE030"/>
<stop offset="0.92" stop-color="#F7C02B"/>
<stop offset="1" stop-color="#F4A223"/>
</radialGradient>
</defs>
</svg>
