<svg width="18" height="18" viewBox="0 0 18 18" fill="none" xmlns="http://www.w3.org/2000/svg">
<path d="M8.78911 15.1751C5.52318 15.1751 1.99973 13.1266 1.99973 8.63155C1.99973 4.13653 5.52318 2.08801 8.78911 2.08801C10.6035 2.08801 12.2775 2.68501 13.5183 3.77365C14.8644 4.96764 15.5785 6.65327 15.5785 8.63155C15.5785 10.6098 14.8644 12.2838 13.5183 13.4777C12.2775 14.5664 10.5918 15.1751 8.78911 15.1751Z" fill="url(#paint0_radial_1193_1389)"/>
<path d="M14.3938 4.74097C15.0177 5.74767 15.3431 6.94634 15.3431 8.27963C15.3431 10.2579 14.6291 11.9318 13.2829 13.1258C12.0421 14.2145 10.3565 14.8232 8.55375 14.8232C6.43968 14.8232 4.22259 13.9628 2.91388 12.1379C4.17343 14.2051 6.54269 15.1743 8.78787 15.1743C10.5906 15.1743 12.2762 14.5656 13.517 13.477C14.8632 12.283 15.5773 10.6091 15.5773 8.6308C15.5773 7.13948 15.1711 5.81439 14.3938 4.74097Z" fill="#EB8F00"/>
<path d="M11.0067 9.60507C12.1342 9.60507 13.0482 8.69107 13.0482 7.56358C13.0482 6.4361 12.1342 5.52209 11.0067 5.52209C9.87919 5.52209 8.96518 6.4361 8.96518 7.56358C8.96518 8.69107 9.87919 9.60507 11.0067 9.60507Z" fill="white"/>
<path d="M11.0966 8.45177C11.5802 8.45177 11.9722 8.05346 11.9722 7.56213C11.9722 7.07079 11.5802 6.67249 11.0966 6.67249C10.6131 6.67249 10.221 7.07079 10.221 7.56213C10.221 8.05346 10.6131 8.45177 11.0966 8.45177Z" fill="#422B0D"/>
<path d="M7.4951 7.93065L7.47754 7.90139C7.45764 7.86978 7.43657 7.83818 7.41433 7.80891C7.33707 7.70707 7.25279 7.61109 7.16148 7.52212C7.0374 7.40272 6.90512 7.29035 6.76699 7.18734C6.69091 7.13349 6.61248 7.07028 6.53288 7.02345C6.45328 6.97663 6.369 6.92044 6.27769 6.86777C6.18638 6.81509 6.10561 6.77412 6.01782 6.73081C5.93003 6.6875 5.84106 6.64887 5.75561 6.61375C5.59641 6.54703 5.43253 6.49084 5.26513 6.44636C5.14222 6.41358 5.01697 6.39017 4.89055 6.37729C4.85192 6.37261 4.81212 6.37027 4.77349 6.37027H4.7372C4.578 6.36793 4.4469 6.49435 4.44456 6.65355C4.44221 6.7788 4.52181 6.89118 4.64004 6.93098L4.67048 6.94151L4.77232 6.97429C4.83904 6.99653 4.93503 7.03282 5.05443 7.08198C5.17383 7.13115 5.31079 7.19904 5.45828 7.26928L5.6842 7.38633C5.76146 7.42613 5.83404 7.4671 5.91832 7.51627L5.96631 7.54319C5.91364 7.54319 5.86096 7.55256 5.80829 7.55958C5.75561 7.5666 5.71932 7.57363 5.66079 7.58533C5.60226 7.59704 5.55427 7.60757 5.50628 7.61928C5.40912 7.64386 5.31313 7.6743 5.21948 7.70941C5.04975 7.77263 4.88821 7.85574 4.7372 7.95641C4.67516 7.99855 4.61663 8.0442 4.56161 8.09453C4.51713 8.13316 4.47616 8.17413 4.43753 8.21862C4.41061 8.24788 4.38603 8.27832 4.36378 8.30992L4.3392 8.3427C4.25024 8.4738 4.28419 8.6529 4.41529 8.74304C4.51245 8.80859 4.64004 8.80976 4.7372 8.74421L4.76881 8.71962L4.78871 8.70441L4.84724 8.66344C4.92215 8.6131 5.00058 8.56862 5.08135 8.52999C5.20075 8.47263 5.32483 8.42581 5.45126 8.38835C5.52266 8.36611 5.59758 8.34855 5.67367 8.33099C5.7123 8.32163 5.74976 8.3146 5.78487 8.30875C5.81999 8.3029 5.87735 8.2947 5.90779 8.2947C6.06347 8.27363 6.21916 8.2631 6.37602 8.26427C6.5083 8.26661 6.64057 8.27832 6.77168 8.29939C6.82669 8.30992 6.8782 8.32046 6.92034 8.33216C6.96248 8.34387 7.00345 8.35557 7.02803 8.3626L7.06198 8.37313L7.09827 8.38835L7.1287 8.4024C7.2481 8.4539 7.38857 8.41996 7.47052 8.31811C7.50914 8.27012 7.53139 8.21159 7.53373 8.15072C7.55129 8.07463 7.53724 7.99621 7.4951 7.93065Z" fill="#422B0D"/>
<path d="M8.69455 10.6798C7.34838 10.6868 6.00455 10.5744 4.67828 10.3415C4.45587 10.2994 4.24048 10.4457 4.19834 10.6681C4.18897 10.7196 4.18897 10.7734 4.19834 10.8249C4.57995 12.6979 6.42245 14.2348 8.69338 14.2348C11.1762 14.2348 12.8466 12.6464 13.1943 10.8179C13.2341 10.5943 13.0866 10.3813 12.863 10.3403C12.8138 10.331 12.7623 10.3321 12.7132 10.3415C11.3869 10.5744 10.0419 10.6868 8.69455 10.6798Z" fill="#422B0D"/>
<path d="M9.01285 11.218H8.69328H8.54579C7.87504 11.218 7.21366 11.1864 6.57803 11.1337V14.0099C6.5792 15.1184 7.47938 16.0174 8.58793 16.0174H8.97071C10.0804 16.0174 10.9806 15.1172 10.9806 14.0075V11.1185C10.3461 11.1759 9.68594 11.2098 9.01285 11.218Z" fill="#FF4081"/>
<path opacity="0.3" d="M8.78286 13.7051C8.91163 13.7051 9.01698 13.5998 9.01698 13.471V11.2177H8.69741H8.54875V13.4698C8.54758 13.5986 8.65293 13.704 8.78169 13.7051H8.78286Z" fill="#AB3F2E"/>
<path opacity="0.3" d="M9.01402 11.219H8.54579C7.87504 11.219 7.21366 11.1874 6.57803 11.1347V11.5503C7.13289 11.6755 8.77873 11.9576 10.9806 11.5245V11.1195C10.3473 11.1769 9.68711 11.2108 9.01402 11.219Z" fill="#AB3F2E"/>
<path d="M4.82693 1.2475H5.33227C5.33227 1.2475 7.40798 0.989334 8.81167 1.00073C10.1497 1.0116 12.1171 1.2475 12.1171 1.2475H12.9124C13.722 2.46956 14.3039 3.72452 14.5706 5.01365C11.9551 4.33347 8.81167 5.77111 8.81167 5.77111C8.81167 5.77111 5.62105 4.35856 3.07794 4.86625C3.48501 3.5466 3.9867 2.34905 4.82693 1.2475Z" fill="#7F2125"/>
<path d="M4.82693 1.2475H5.33227C5.33227 1.2475 7.40798 0.989334 8.81167 1.00073C10.1497 1.0116 12.1171 1.2475 12.1171 1.2475H12.9124M4.82693 1.2475C3.9867 2.34905 3.48501 3.5466 3.07794 4.86625C5.62105 4.35856 8.81167 5.77111 8.81167 5.77111C8.81167 5.77111 11.9551 4.33347 14.5706 5.01365C14.3039 3.72452 13.722 2.46956 12.9124 1.2475M4.82693 1.2475C5.48424 1.90008 6.4207 1.25418 8.81167 1.75637C10.9765 1.26935 12.0187 1.9324 12.9124 1.2475" stroke="#67211F" stroke-width="0.065961"/>
<path d="M8.82822 5.74952V1.74855C10.4558 1.29132 11.6991 1.89505 12.9201 1.26941C13.452 2.01694 14.3317 3.41663 14.5784 5.00263C12.4647 4.50511 10.2298 5.16188 8.82822 5.74952Z" fill="#67211F" stroke="#67211F" stroke-width="0.0413981"/>
<path d="M5.90917 1.55998C5.52605 1.3337 5.19279 1.56682 5.20855 1.24182H4.83002C5.21465 1.60587 5.6422 1.50825 5.90917 1.55998Z" fill="#67211F"/>
<path d="M11.6382 1.62964C12.0213 1.40564 12.3279 1.55035 12.3122 1.22864H13.0683C12.6837 1.589 11.9051 1.57842 11.6382 1.62964Z" fill="#67211F" fill-opacity="0.56"/>
<path d="M8.88469 1.28308L8.85857 1.94077L8.95666 1.94077L8.88469 1.28308Z" fill="#67211F" stroke="#67211F" stroke-width="0.100363"/>
<path d="M6.82889 1.53733C6.55033 1.52304 6.37157 1.57427 6.1413 1.55997C5.99805 3.07166 5.94306 3.44598 6.24153 4.94327C6.64633 5.04057 6.95244 5.13238 7.30188 5.23121C6.48246 3.86277 6.72122 2.91813 6.82889 1.53733Z" fill="#D60000" stroke="#67211F" stroke-width="0.0413981"/>
<path d="M6.37283 1.56746L6.15888 1.56702L6.11908 1.83866L6.37283 1.56746Z" fill="#398F00" stroke="#67211F" stroke-width="0.00836361"/>
<path d="M6.0351 2.59673L6.79122 1.79611L6.81436 1.55237C6.64079 1.55237 6.55778 1.55991 6.36912 1.56746L6.12265 1.839L6.0351 2.59673Z" fill="#FF7F00" stroke="#67211F" stroke-width="0.00836361"/>
<path d="M6.52842 2.06758C6.52842 2.06758 6.28699 1.81977 6.20209 1.75305L6.1225 1.83883L6.04291 2.58942C6.15964 2.46313 6.52842 2.06758 6.52842 2.06758Z" fill="#D60000" stroke="#67211F" stroke-width="0.00836361"/>
<path d="M6.75802 2.66146C6.75884 2.35297 6.76675 2.16167 6.78986 1.79651L6.04169 2.58997C6.01504 2.90476 6.00869 3.07841 6.00189 3.38344L6.75802 2.66146Z" fill="#007FFF" stroke="#67211F" stroke-width="0.00669088"/>
<path d="M6.57496 2.83319L6.20087 2.41858L6.04169 2.59014C6.02092 2.90074 6.01096 3.07308 6.00189 3.38362L6.57496 2.83319Z" fill="#398F00" stroke="#67211F" stroke-width="0.00669088"/>
<path d="M6.60679 3.55473L6.24067 3.15442L6.00189 3.38317C6.00985 3.70485 6.03373 3.84782 6.05764 4.11231L6.60679 3.55473Z" fill="#D60000" stroke="#67211F" stroke-width="0.00669088"/>
<path d="M6.57771 4.37023L6.21159 3.96277L6.06036 4.11289C6.12404 4.44171 6.13996 4.5275 6.20363 4.77054L6.57771 4.37023Z" fill="#007FFF" stroke="#67211F" stroke-width="0.00669088"/>
<path d="M6.66897 5.04912L6.3108 4.6488L6.19937 4.77033L6.24968 4.92963L6.66897 5.04912Z" fill="#FF7F00" stroke="#67211F" stroke-width="0.00669088"/>
<path d="M6.79927 3.36131C6.77095 3.12101 6.76026 2.97277 6.75948 2.66077L6.24213 3.15401C6.4809 3.41135 6.43315 3.35416 6.60825 3.55432L6.79927 3.36131Z" fill="#FF7F00" stroke="#67211F" stroke-width="0.00669088"/>
<path d="M6.89342 4.02643C6.86158 3.80483 6.82179 3.69045 6.79791 3.36877L6.20892 3.96209C6.44193 4.23505 6.3956 4.17375 6.57505 4.36234L6.89342 4.02643Z" fill="#398F00" stroke="#67211F" stroke-width="0.00669088"/>
<path d="M7.0786 4.66294C7.00697 4.42705 6.96717 4.32697 6.89554 4.02673L6.31451 4.64865C6.49758 4.8631 6.49758 4.8631 6.68064 5.05611L7.0786 4.66294Z" fill="#D60000" stroke="#67211F" stroke-width="0.00669088"/>
<path d="M7.30417 5.21734C7.12111 5.01004 7.13261 5.02031 6.94159 4.79871L6.66797 5.04458C7.00373 5.12556 6.99785 5.12376 6.99785 5.12376L7.30417 5.21734Z" fill="#398F00" stroke="#67211F" stroke-width="0.00669088"/>
<path d="M7.07665 4.66223L6.94135 4.79805L7.29155 5.19836H7.29951L7.07665 4.66223Z" fill="#007FFF" stroke="#67211F" stroke-width="0.00669088"/>
<path d="M6.83707 3.69766L6.79728 3.37598L6.74952 3.41887L6.67789 3.49035L6.83707 3.69766Z" fill="#007FFF" stroke="#67211F" stroke-width="0.00669088"/>
<g filter="url(#filter0_d_1193_1389)">
<path d="M7.84941 2.59376L7.97789 2.41853C7.97789 2.41853 8.1175 2.93247 8.02004 3.26125C7.94254 3.52267 7.65683 3.8638 7.65683 3.8638C7.52606 4.15835 7.53443 4.31989 7.60531 4.60563L7.34454 4.87613C7.34454 4.87613 7.26392 4.50159 7.13364 4.31791C6.94462 4.05141 6.63275 4.12388 6.44043 3.88964C6.15567 3.54282 6.30332 2.8106 6.30332 2.8106L6.53437 2.98709C6.53437 2.98709 6.67441 2.80478 6.81125 2.54314C6.86026 2.44944 6.90886 2.34557 6.95048 2.23625C7.01409 2.06914 7.08492 1.80042 7.08492 1.80042L7.2185 2.04159L7.32592 1.91336C7.32592 1.91336 7.33529 2.09821 7.37493 2.20158C7.46591 2.43881 7.57039 2.52517 7.84941 2.59376Z" fill="url(#paint1_linear_1193_1389)"/>
<path d="M7.84941 2.59376C7.89958 2.52533 7.97789 2.41853 7.97789 2.41853C7.97789 2.41853 8.1175 2.93247 8.02004 3.26125C7.94254 3.52267 7.65683 3.8638 7.65683 3.8638C7.52606 4.15835 7.53443 4.31989 7.60531 4.60563L7.34454 4.87613C7.34454 4.87613 7.26392 4.50159 7.13364 4.31791C6.94462 4.05141 6.63275 4.12388 6.44043 3.88964C6.15567 3.54282 6.30332 2.8106 6.30332 2.8106L6.53437 2.98709M7.84941 2.59376C7.57039 2.52517 7.46591 2.43881 7.37493 2.20158C7.33529 2.09821 7.32592 1.91336 7.32592 1.91336L7.2185 2.04159M7.84941 2.59376C7.84176 2.61856 7.61734 3.0463 7.61734 3.0463C7.61734 3.0463 7.44185 2.74985 7.36294 2.54882M6.53437 2.98709C6.66656 3.12122 6.68645 3.20888 6.72391 3.36429L6.89547 2.80817L7.15722 3.14958L7.20294 2.4064L7.36294 2.54882M6.53437 2.98709C6.53437 2.98709 6.67441 2.80478 6.81125 2.54314C6.86026 2.44944 6.90886 2.34557 6.95048 2.23625C7.01409 2.06914 7.08492 1.80042 7.08492 1.80042L7.2185 2.04159M7.2185 2.04159C7.2185 2.04159 7.28707 2.35553 7.36294 2.54882" stroke="#F8F7FC" stroke-width="0.0413981"/>
</g>
<defs>
<filter id="filter0_d_1193_1389" x="6.24399" y="1.74426" width="1.97552" height="3.30108" filterUnits="userSpaceOnUse" color-interpolation-filters="sRGB">
<feFlood flood-opacity="0" result="BackgroundImageFix"/>
<feColorMatrix in="SourceAlpha" type="matrix" values="0 0 0 0 0 0 0 0 0 0 0 0 0 0 0 0 0 0 127 0" result="hardAlpha"/>
<feOffset dx="0.0836361" dy="0.0669089"/>
<feGaussianBlur stdDeviation="0.030109"/>
<feComposite in2="hardAlpha" operator="out"/>
<feColorMatrix type="matrix" values="0 0 0 0 0 0 0 0 0 0 0 0 0 0 0 0 0 0 0.25 0"/>
<feBlend mode="normal" in2="BackgroundImageFix" result="effect1_dropShadow_1193_1389"/>
<feBlend mode="normal" in="SourceGraphic" in2="effect1_dropShadow_1193_1389" result="shape"/>
</filter>
<radialGradient id="paint0_radial_1193_1389" cx="0" cy="0" r="1" gradientUnits="userSpaceOnUse" gradientTransform="translate(8.78911 8.63155) scale(6.66761 6.66758)">
<stop offset="0.5" stop-color="#FDE030"/>
<stop offset="0.92" stop-color="#F7C02B"/>
<stop offset="1" stop-color="#F4A223"/>
</radialGradient>
<linearGradient id="paint1_linear_1193_1389" x1="7.51216" y1="1.89985" x2="6.84644" y2="4.7602" gradientUnits="userSpaceOnUse">
<stop stop-color="#C9C9C9"/>
<stop offset="1" stop-color="#939297"/>
</linearGradient>
</defs>
</svg>
