<svg width="19" height="18" viewBox="0 0 19 18" fill="none" xmlns="http://www.w3.org/2000/svg">
<g clip-path="url(#clip0_1206_10555)">
<path d="M10.3949 16.9284C6.90831 16.9284 3.14684 14.7415 3.14684 9.94283C3.14684 5.14417 6.90831 2.95728 10.3949 2.95728C12.3318 2.95728 14.1188 3.5946 15.4435 4.75678C16.8806 6.03142 17.6429 7.83092 17.6429 9.94283C17.6429 12.0547 16.8806 13.8418 15.4435 15.1164C14.1188 16.2786 12.3193 16.9284 10.3949 16.9284Z" fill="url(#paint0_radial_1206_10555)"/>
<path d="M10.3949 16.9284C6.90831 16.9284 3.14684 14.7415 3.14684 9.94283C3.14684 5.14417 6.90831 2.95728 10.3949 2.95728C12.3318 2.95728 14.1188 3.5946 15.4435 4.75678C16.8806 6.03142 17.6429 7.83092 17.6429 9.94283C17.6429 12.0547 16.8806 13.8418 15.4435 15.1164C14.1188 16.2786 12.3193 16.9284 10.3949 16.9284Z" fill="url(#paint1_linear_1206_10555)"/>
<path d="M16.3801 5.79065C17.0462 6.86535 17.3936 8.145 17.3936 9.56835C17.3936 11.6803 16.6313 13.4673 15.1942 14.7419C13.8695 15.9041 12.07 16.5539 10.1456 16.5539C7.88868 16.5539 5.51683 15.6354 4.12471 13.6872C5.46934 15.8941 7.9974 16.9288 10.3955 16.9288C12.32 16.9288 14.1195 16.279 15.4441 15.1168C16.8812 13.8422 17.6435 12.0552 17.6435 9.94325C17.6435 8.35119 17.2099 6.93658 16.3801 5.79065Z" fill="#EB8F00"/>
<path opacity="0.8" d="M6.40423 14.0352C7.61203 14.0352 8.59113 13.0561 8.59113 11.8483C8.59113 10.6405 7.61203 9.66138 6.40423 9.66138C5.19644 9.66138 4.21733 10.6405 4.21733 11.8483C4.21733 13.0561 5.19644 14.0352 6.40423 14.0352Z" fill="url(#paint2_radial_1206_10555)"/>
<path opacity="0.8" d="M14.4876 14.0352C15.6954 14.0352 16.6745 13.0561 16.6745 11.8483C16.6745 10.6405 15.6954 9.66138 14.4876 9.66138C13.2798 9.66138 12.3007 10.6405 12.3007 11.8483C12.3007 13.0561 13.2798 14.0352 14.4876 14.0352Z" fill="url(#paint3_radial_1206_10555)"/>
<path d="M12.7739 11.6417C14.0528 11.6417 15.0895 10.605 15.0895 9.3261C15.0895 8.04723 14.0528 7.0105 12.7739 7.0105C11.495 7.0105 10.4583 8.04723 10.4583 9.3261C10.4583 10.605 11.495 11.6417 12.7739 11.6417Z" fill="white"/>
<path d="M12.7549 10.3306C13.3098 10.3306 13.7596 9.88078 13.7596 9.32589C13.7596 8.771 13.3098 8.32117 12.7549 8.32117C12.2 8.32117 11.7502 8.771 11.7502 9.32589C11.7502 9.88078 12.2 10.3306 12.7549 10.3306Z" fill="#422B0D"/>
<path d="M12.6575 8.64362C12.5238 8.57364 12.3339 8.64112 12.2214 8.85606C12.1089 9.071 12.1639 9.2647 12.2976 9.33468C12.4314 9.40466 12.6213 9.33718 12.7338 9.12224C12.8462 8.9073 12.7913 8.7136 12.6575 8.64362Z" fill="#896024"/>
<path d="M11.2725 13.6058C11.2025 13.6058 11.1326 13.6208 11.0651 13.6508C10.3203 13.9907 9.64796 13.6721 9.62047 13.6583C9.37304 13.5384 9.07437 13.6383 8.9519 13.8845C8.82944 14.1307 8.92691 14.4281 9.17184 14.5518C9.21683 14.5743 10.2865 15.1042 11.48 14.5606C11.7311 14.4456 11.8424 14.1494 11.7274 13.8983C11.6437 13.7146 11.4625 13.6058 11.2725 13.6058Z" fill="#422B0D"/>
<path d="M6.56899 1.38869H7.06189C7.06189 1.38869 9.0865 1.1131 10.4556 1.12527C11.7607 1.13687 13.6797 1.38869 13.6797 1.38869H14.4554C15.2451 2.69322 15.8126 4.03288 16.0728 5.40902C13.5217 4.68293 10.4556 6.2176 10.4556 6.2176C10.4556 6.2176 7.34356 4.70972 4.86307 5.25167C5.26011 3.84296 5.74945 2.56459 6.56899 1.38869Z" fill="#7F2125"/>
<path d="M6.56899 1.38869H7.06189C7.06189 1.38869 9.0865 1.1131 10.4556 1.12527C11.7607 1.13687 13.6797 1.38869 13.6797 1.38869H14.4554M6.56899 1.38869C5.74945 2.56459 5.26011 3.84296 4.86307 5.25167C7.34356 4.70972 10.4556 6.2176 10.4556 6.2176C10.4556 6.2176 13.5217 4.68293 16.0728 5.40902C15.8126 4.03288 15.2451 2.69322 14.4554 1.38869M6.56899 1.38869C7.21012 2.08531 8.12353 1.64771 10.4556 2.18379C12.5671 1.66391 13.5838 2.11981 14.4554 1.38869" stroke="#67211F" stroke-width="0.0582032"/>
<path d="M10.4739 6.19519L10.4814 2.18761C12.0689 1.69953 13.2742 2.08059 14.4651 1.41272C14.9838 2.2107 15.8419 3.70485 16.0826 5.39789C14.0209 4.8668 11.841 5.56789 10.4739 6.19519Z" fill="#67211F" stroke="#67211F" stroke-width="0.0365292"/>
<path d="M7.75029 1.84052C7.38985 1.59897 7.05167 1.72986 7.0665 1.38293L6.60223 1.39769C6.96411 1.78631 7.49912 1.78529 7.75029 1.84052Z" fill="#67211F"/>
<path d="M13.1168 1.79623C13.4773 1.55712 13.7658 1.71159 13.751 1.36816H14.4623C14.1005 1.75285 13.368 1.74156 13.1168 1.79623Z" fill="#67211F" fill-opacity="0.56"/>
<path d="M10.529 1.4271L10.448 2.13945L10.5967 2.12919L10.529 1.4271Z" fill="#67211F" stroke="#67211F" stroke-width="0.0885594"/>
<path d="M8.5796 1.92153C8.31753 1.90688 8.15975 1.89222 7.9431 1.87756C7.80833 3.42735 7.7566 3.81111 8.0374 5.34614C8.41825 5.4459 8.70624 5.54001 9.03499 5.64134C8.26408 4.23841 8.47831 3.33714 8.5796 1.92153Z" fill="#D60000" stroke="#67211F" stroke-width="0.0365292"/>
<path d="M8.15452 1.89976L7.96456 1.88489L7.92657 2.16746L8.15452 1.89976Z" fill="#398F00" stroke="#67211F" stroke-width="0.00737995"/>
<path d="M7.84276 2.94081L8.55413 2.12001L8.56162 1.93679L8.14977 1.90015L7.92513 2.16398L7.84276 2.94081Z" fill="#FF7F00" stroke="#67211F" stroke-width="0.00737995"/>
<path d="M8.30712 2.39814C8.30712 2.39814 8.07998 2.14408 8.0001 2.07568L7.92522 2.16363L7.85034 2.93313C7.96017 2.80366 8.30712 2.39814 8.30712 2.39814Z" fill="#D60000" stroke="#67211F" stroke-width="0.00737995"/>
<path d="M8.52565 3.00614C8.52641 2.68987 8.53386 2.49375 8.5556 2.11938L7.85171 2.93285C7.82664 3.25557 7.82067 3.43359 7.81427 3.74632L8.52565 3.00614Z" fill="#007FFF" stroke="#67211F" stroke-width="0.00590396"/>
<path d="M8.35342 3.18251L8.00147 2.75745L7.85171 2.93333C7.83218 3.25176 7.8228 3.42845 7.81427 3.74681L8.35342 3.18251Z" fill="#398F00" stroke="#67211F" stroke-width="0.00590396"/>
<path d="M8.38337 3.92237L8.03891 3.51196L7.81427 3.74648C7.82176 4.07627 7.84422 4.22284 7.86671 4.494L8.38337 3.92237Z" fill="#D60000" stroke="#67211F" stroke-width="0.00590396"/>
<path d="M8.35365 4.75794L8.0092 4.34021L7.86692 4.49411C7.92683 4.83123 7.9418 4.91917 8.00171 5.16834L8.35365 4.75794Z" fill="#007FFF" stroke="#67211F" stroke-width="0.00590396"/>
<path d="M8.44736 5.4561L8.10876 5.0437L8.00341 5.1689L8.05097 5.33301L8.44736 5.4561Z" fill="#FF7F00" stroke="#67211F" stroke-width="0.00590396"/>
<path d="M8.56463 3.72443C8.53798 3.47807 8.52793 3.32609 8.52719 3.00623L8.04046 3.5119C8.2651 3.77573 8.22017 3.7171 8.38491 3.9223L8.56463 3.72443Z" fill="#FF7F00" stroke="#67211F" stroke-width="0.00590396"/>
<path d="M8.65422 4.40604C8.62427 4.17886 8.58683 4.0616 8.56436 3.73181L8.01024 4.34009C8.22945 4.61993 8.18586 4.55708 8.35469 4.75042L8.65422 4.40604Z" fill="#398F00" stroke="#67211F" stroke-width="0.00590396"/>
<path d="M8.82757 5.05838C8.76018 4.81653 8.72274 4.71393 8.65535 4.40613L8.10871 5.04372C8.28094 5.26358 8.28094 5.26358 8.45317 5.46145L8.82757 5.05838Z" fill="#D60000" stroke="#67211F" stroke-width="0.00590396"/>
<path d="M9.04166 5.62891C8.86859 5.41535 8.87946 5.42593 8.69887 5.19763L8.44019 5.45093C8.75762 5.53436 8.75206 5.53251 8.75206 5.53251L9.04166 5.62891Z" fill="#398F00" stroke="#67211F" stroke-width="0.00590396"/>
<path d="M8.82745 5.05835L8.69953 5.19827L9.03062 5.61068H9.03814L8.82745 5.05835Z" fill="#007FFF" stroke="#67211F" stroke-width="0.00590396"/>
<path d="M8.60141 4.07053L8.56379 3.73914L8.51864 3.78332L8.45092 3.85697L8.60141 4.07053Z" fill="#007FFF" stroke="#67211F" stroke-width="0.00590396"/>
<g filter="url(#filter0_d_1206_10555)">
<path d="M9.5523 2.82594L9.67319 2.63888C9.67319 2.63888 9.80453 3.18751 9.71283 3.53848C9.63993 3.81754 9.37113 4.1817 9.37113 4.1817C9.2481 4.49612 9.25597 4.66857 9.32266 4.9736L9.07732 5.26235C9.07732 5.26235 9.00147 4.86253 8.8789 4.66645C8.70108 4.38196 8.40766 4.45933 8.22672 4.20928C7.95882 3.83905 8.09772 3.05742 8.09772 3.05742L8.31511 3.24582C8.31511 3.24582 8.44685 3.05121 8.5756 2.77191C8.62171 2.67188 8.66743 2.561 8.70658 2.44431C8.76643 2.26592 8.83307 1.97906 8.83307 1.97906L8.95874 2.23651L9.05981 2.09962C9.05981 2.09962 9.06862 2.29695 9.10591 2.40729C9.19151 2.66053 9.28981 2.75273 9.5523 2.82594Z" fill="url(#paint4_linear_1206_10555)"/>
<path d="M9.5523 2.82594C9.59951 2.75289 9.67319 2.63888 9.67319 2.63888C9.67319 2.63888 9.80453 3.18751 9.71283 3.53848C9.63993 3.81754 9.37113 4.1817 9.37113 4.1817C9.2481 4.49612 9.25597 4.66857 9.32266 4.9736L9.07732 5.26235C9.07732 5.26235 9.00147 4.86253 8.8789 4.66645C8.70108 4.38196 8.40766 4.45933 8.22672 4.20928C7.95882 3.83905 8.09772 3.05742 8.09772 3.05742L8.31511 3.24582M9.5523 2.82594C9.28981 2.75273 9.19151 2.66053 9.10591 2.40729C9.06862 2.29695 9.05981 2.09962 9.05981 2.09962L8.95874 2.23651M9.5523 2.82594C9.54511 2.85241 9.33397 3.30903 9.33397 3.30903C9.33397 3.30903 9.16887 2.99257 9.09463 2.77797M8.31511 3.24582C8.43947 3.389 8.45819 3.48257 8.49343 3.64847L8.65483 3.05482L8.90109 3.41928L8.94411 2.62594L9.09463 2.77797M8.31511 3.24582C8.31511 3.24582 8.44685 3.05121 8.5756 2.77191C8.62171 2.67188 8.66743 2.561 8.70658 2.44431C8.76643 2.26592 8.83307 1.97906 8.83307 1.97906L8.95874 2.23651M8.95874 2.23651C8.95874 2.23651 9.02325 2.57164 9.09463 2.77797" stroke="#F8F7FC" stroke-width="0.0365292"/>
</g>
<path d="M12.1061 14.2899C11.9237 14.0525 11.6038 13.5314 11.0064 12.7629C10.5891 12.2268 9.03573 11.1458 8.62209 10.5797C8.4084 10.2873 8.22845 9.99362 8.34342 9.77743C8.72581 9.05638 9.20943 9.67121 9.20943 9.67121C9.20943 9.67121 8.10473 9.05763 8.82079 8.41031C9.13445 8.12789 9.43812 8.16163 10.0854 8.644C10.0854 8.644 12.8684 10.5622 13.1021 10.4023C13.3346 10.2411 12.5848 7.21064 12.5473 6.23341C12.5273 5.70606 12.5048 5.27743 12.9921 5.14622C13.702 4.95377 13.7857 5.95099 13.7719 5.80728C13.7582 5.66357 13.9631 5.28743 14.473 5.18746C14.8679 5.10873 15.0628 5.61359 15.1903 6.36963C15.3178 7.12567 16.0163 9.8774 16.3512 10.1086C16.3512 10.1086 16.4687 8.61775 17.1935 8.08665C17.5222 7.84547 18.0957 7.74924 18.167 8.15663C18.2082 8.39656 18.2082 8.81145 18.0183 9.42503C17.8546 9.95113 17.8658 11.257 17.9233 12.218C17.972 13.029 18.172 14.3362 16.3612 15.3321C14.3743 16.4231 12.9072 15.3259 12.1061 14.2899Z" fill="url(#paint5_linear_1206_10555)"/>
<path d="M12.4588 6.27434C12.415 5.85696 12.395 5.52205 12.6887 5.24338C13.0124 4.93471 13.3723 4.94096 13.5535 5.12466C13.6297 5.20214 13.7072 5.32336 13.7834 5.5058C13.9009 5.20464 14.1196 5.07093 14.4282 5.02594C14.7869 4.97345 15.0893 5.23588 15.2193 5.80197C15.2967 6.13813 16.1115 9.32599 16.2702 9.50344C16.2702 9.50344 16.2727 8.34127 17.3499 7.82891C17.6448 7.68895 17.9897 7.70144 18.2522 7.98137C18.5146 8.26129 18.1922 8.7699 17.9822 10.102C17.8685 10.8243 17.901 11.6816 17.901 11.6816C17.901 11.6816 17.5586 11.2217 17.7261 9.61216C17.7885 9.00858 18.2097 8.38001 17.906 8.15507C17.7098 8.01011 17.5111 7.98137 17.14 8.32377C16.3764 9.02858 16.5651 10.172 16.5226 10.3145C16.4802 10.4569 16.3364 10.5394 16.0815 9.86334C15.8278 9.18853 15.1705 6.68548 14.9681 5.91444C14.8044 5.29211 14.5757 5.24088 14.2908 5.39209C13.9359 5.57953 14.0408 6.17187 14.0921 6.36557C14.1345 6.52552 14.5419 8.71741 14.7656 9.47345C14.8131 9.63341 14.9368 9.88084 14.9206 9.99456C14.9018 10.1195 14.4732 10.362 14.3957 9.71588C14.3107 9.00733 13.7759 6.41555 13.7759 6.41555C13.7759 6.41555 13.6922 5.8807 13.5385 5.54454C13.4685 5.39084 13.2535 5.21339 12.8986 5.49331C12.595 5.73324 12.7624 6.45679 12.7624 6.45679L13.3398 9.96706C13.3398 9.96706 13.431 10.3782 13.2585 10.5369C13.0586 10.7219 12.7099 10.4557 12.7099 10.4557C12.7099 10.4557 10.2993 8.86487 9.9232 8.65993C9.5483 8.45499 9.31711 8.2163 8.96221 8.44499C8.85974 8.51122 8.6548 8.79989 8.99845 9.09606C9.34211 9.39222 10.4868 10.3082 11.8302 11.1942C11.9077 11.2467 12.4812 11.4029 12.2426 11.7891C12.0051 12.1752 11.6102 11.5916 11.5403 11.5379C10.6468 10.8418 9.63078 10.0433 9.03594 9.71963C8.58856 9.47595 8.31989 9.98456 8.74227 10.4532C9.01845 10.7606 9.44583 11.1605 9.94194 11.5791C10.4268 11.9878 10.828 12.3976 11.0379 12.6726C11.5515 13.3424 11.7752 13.7198 12.1238 14.2096C13.6109 16.0016 15.1843 15.9354 16.875 15.0007C16.6551 15.2518 13.6897 17.4112 11.579 14.0697C11.3878 13.7848 11.1254 13.3949 10.7442 12.8963C10.558 12.6526 10.1469 12.2777 9.70326 11.8603C9.25963 11.4429 7.96374 10.3382 8.17743 9.73713C8.32364 9.32724 8.68979 9.30725 8.68979 9.30725C8.68979 9.30725 8.14244 8.66618 8.85099 8.16382C9.23589 7.89139 9.82073 8.30628 9.82073 8.30628L12.5825 10.082C12.5825 10.082 12.7012 10.1708 12.8499 10.2457C13.0486 10.3445 13.0348 10.0533 13.0236 9.98331C12.9136 9.29725 12.4937 6.613 12.4588 6.27434Z" fill="#EB8F00"/>
<path d="M9.62341 7.00577C9.1098 6.85581 8.7699 7.70558 8.7699 7.70558C8.7699 7.70558 8.86612 7.16573 8.9286 6.69336C8.96859 6.39094 8.83613 5.91982 8.50497 5.79486C8.17256 5.67114 7.77642 6.0148 7.67519 6.30097L7.27655 7.41816C7.27655 7.41816 7.46775 7.05201 7.14909 6.47217C7.04037 6.22224 6.7492 6.10852 6.49927 6.21724C6.45178 6.23724 6.40929 6.26473 6.37055 6.29972C6.1981 6.46592 6.07563 6.67711 6.0169 6.90955C5.77322 7.77181 5.08215 10.0249 4.721 10.2724C4.57979 10.3686 4.5523 10.3573 4.3511 9.53757C4.24988 9.03021 3.92872 8.59533 3.47259 8.3504C3.20892 8.20919 2.74029 8.48911 2.77404 8.80277C2.79653 9.03521 3.02647 9.46759 3.15518 9.98369C3.36013 10.836 3.35513 12.2081 3.36512 12.333C3.44135 13.249 3.58506 14.9548 5.36458 15.5646C6.9404 16.1057 8.55995 14.8861 9.13604 13.9438C10.2407 12.1531 10.8168 9.9537 10.8256 9.91121C10.9268 9.46134 10.9193 8.92774 10.5619 8.7228C10.122 8.46787 9.82461 9.06895 9.82461 9.06895C9.96457 8.68156 10.042 8.27417 10.052 7.86303C10.0445 7.45065 9.96957 7.10824 9.62341 7.00577Z" fill="url(#paint6_radial_1206_10555)"/>
<path d="M10.2587 7.85813C10.2537 7.5932 10.2424 6.97338 9.68132 6.80717C9.48138 6.75094 9.28518 6.77218 9.11273 6.86966C9.19646 6.45352 9.07274 5.73997 8.45416 5.56877C8.22422 5.50503 7.92056 5.55377 7.65313 5.89493C7.45943 6.14111 7.3882 6.48726 7.3882 6.48726C7.37196 6.45227 7.13452 5.77371 6.38348 6.1636C6.08106 6.32106 5.9236 6.72969 5.85862 6.99462C5.43748 8.47921 4.69769 10.1662 4.66645 10.04C4.67644 9.20526 4.16158 8.39548 3.553 8.16055C3.28932 8.01934 2.61201 8.30176 2.66949 8.74164C2.71698 9.10278 3.08438 9.7576 3.17935 10.4387C3.25308 10.9648 3.26683 12.9705 3.57924 13.7165C3.57924 13.7165 3.53176 13.1717 3.50426 12.3706C3.47427 11.5171 3.45928 10.3924 3.3543 9.9338C3.26308 9.52392 3.04814 9.11778 2.97816 8.78037C2.95816 8.63292 3.12437 8.34175 3.52926 8.5217C3.93415 8.70165 4.15783 9.13528 4.2753 9.72386C4.43651 10.3799 4.35153 10.4799 4.53773 10.5024C5.16131 10.5786 6.00108 7.58571 6.21602 6.95963C6.26476 6.76468 6.36723 6.58723 6.50469 6.45477C6.76587 6.1761 7.08203 6.59973 7.08203 6.59973C7.27198 7.00462 7.2195 7.04711 7.11078 7.60195C7.0333 7.99684 6.68214 9.29523 6.35473 10.0138C6.35473 10.0138 6.4647 10.1312 6.66215 9.85383C6.8596 9.5764 7.35321 8.13805 7.54566 7.27079C7.54566 7.27079 7.76435 6.10862 8.1305 5.95241C8.5029 5.7937 8.64411 6.02614 8.71034 6.30231C8.77657 6.57849 8.72284 7.01836 8.57038 7.63444C8.2967 8.74039 7.79184 10.3537 7.79184 10.3537C7.79184 10.3537 7.90056 10.4437 8.06427 10.2112C8.39543 9.73761 8.94028 7.64819 8.94028 7.64819C8.97902 7.48199 9.24144 7.08585 9.56511 7.20456C9.72631 7.2533 9.85253 7.44575 9.84003 7.9606C9.82753 8.57793 9.4014 9.98004 8.95527 11.1072C8.95527 11.1072 9.10273 11.1622 9.26644 10.9023C9.43014 10.6424 9.90751 9.31897 10.0162 9.14902C10.125 8.97907 10.2349 8.81412 10.4736 8.90909C10.786 9.05655 10.7823 9.37396 10.6698 9.87132C10.6648 9.89257 10.1162 12.2369 8.99901 13.9939C8.40917 14.9224 7.38695 15.5123 5.79989 15.6697C7.04579 15.9234 8.69909 15.1536 9.35766 14.0589C10.4674 12.2169 11.0684 9.98254 11.0722 9.96255C11.1534 9.60265 11.3221 8.8516 10.6373 8.52919C10.4736 8.46421 10.3236 8.46296 10.1912 8.50045C10.2312 8.29176 10.2537 8.07682 10.2587 7.85813Z" fill="#EB8F00"/>
</g>
<defs>
<filter id="filter0_d_1206_10555" x="8.04343" y="1.92468" width="1.84716" height="3.49072" filterUnits="userSpaceOnUse" color-interpolation-filters="sRGB">
<feFlood flood-opacity="0" result="BackgroundImageFix"/>
<feColorMatrix in="SourceAlpha" type="matrix" values="0 0 0 0 0 0 0 0 0 0 0 0 0 0 0 0 0 0 127 0" result="hardAlpha"/>
<feOffset dx="0.0737995" dy="0.0590396"/>
<feGaussianBlur stdDeviation="0.0265678"/>
<feComposite in2="hardAlpha" operator="out"/>
<feColorMatrix type="matrix" values="0 0 0 0 0 0 0 0 0 0 0 0 0 0 0 0 0 0 0.25 0"/>
<feBlend mode="normal" in2="BackgroundImageFix" result="effect1_dropShadow_1206_10555"/>
<feBlend mode="normal" in="SourceGraphic" in2="effect1_dropShadow_1206_10555" result="shape"/>
</filter>
<radialGradient id="paint0_radial_1206_10555" cx="0" cy="0" r="1" gradientUnits="userSpaceOnUse" gradientTransform="translate(10.3949 9.94285) scale(7.11802 7.11799)">
<stop offset="0.5" stop-color="#FDE030"/>
<stop offset="0.92" stop-color="#F7C02B"/>
<stop offset="1" stop-color="#F4A223"/>
</radialGradient>
<linearGradient id="paint1_linear_1206_10555" x1="10.3949" y1="16.9284" x2="10.3949" y2="2.95728" gradientUnits="userSpaceOnUse">
<stop stop-color="#F4A223"/>
<stop offset="0.3812" stop-color="#F7C02B"/>
<stop offset="0.7478" stop-color="#FDE030" stop-opacity="0"/>
</linearGradient>
<radialGradient id="paint2_radial_1206_10555" cx="0" cy="0" r="1" gradientUnits="userSpaceOnUse" gradientTransform="translate(6.40375 11.8482) scale(2.3791 2.26003)">
<stop stop-color="#ED7770"/>
<stop offset="0.9" stop-color="#ED7770" stop-opacity="0"/>
</radialGradient>
<radialGradient id="paint3_radial_1206_10555" cx="0" cy="0" r="1" gradientUnits="userSpaceOnUse" gradientTransform="translate(14.4885 11.8482) scale(2.3791 2.26003)">
<stop stop-color="#ED7770"/>
<stop offset="0.9" stop-color="#ED7770" stop-opacity="0"/>
</radialGradient>
<linearGradient id="paint4_linear_1206_10555" x1="9.23502" y1="2.08521" x2="8.44042" y2="5.09416" gradientUnits="userSpaceOnUse">
<stop stop-color="#C9C9C9"/>
<stop offset="1" stop-color="#939297"/>
</linearGradient>
<linearGradient id="paint5_linear_1206_10555" x1="13.9671" y1="7.0683" x2="12.4117" y2="15.3743" gradientUnits="userSpaceOnUse">
<stop stop-color="#FFF176"/>
<stop offset="1" stop-color="#FFC400"/>
</linearGradient>
<radialGradient id="paint6_radial_1206_10555" cx="0" cy="0" r="1" gradientUnits="userSpaceOnUse" gradientTransform="translate(5.78993 9.22324) rotate(-38.8422) scale(8.9711 8.97109)">
<stop offset="0.27" stop-color="#FFF176"/>
<stop offset="1" stop-color="#FFC400"/>
</radialGradient>
<clipPath id="clip0_1206_10555">
<rect width="17.996" height="17.996" fill="white" transform="translate(0.959503)"/>
</clipPath>
</defs>
</svg>
