<svg width="19" height="18" viewBox="0 0 19 18" fill="none" xmlns="http://www.w3.org/2000/svg">
<g clip-path="url(#clip0_1206_12347)">
<path d="M9.99994 16.4145C6.51339 16.4145 2.75192 14.2276 2.75192 9.42892C2.75192 4.63025 6.51339 2.44336 9.99994 2.44336C11.9369 2.44336 13.7239 3.08068 15.0486 4.24286C16.4857 5.51751 17.248 7.31701 17.248 9.42892C17.248 11.5408 16.4857 13.3278 15.0486 14.6025C13.7239 15.7647 11.9244 16.4145 9.99994 16.4145Z" fill="url(#paint0_radial_1206_12347)"/>
<path d="M15.9852 5.27612C16.6513 6.35082 16.9987 7.63047 16.9987 9.05382C16.9987 11.1657 16.2364 12.9527 14.7993 14.2274C13.4746 15.3896 11.6751 16.0394 9.75065 16.0394C7.49377 16.0394 5.12692 15.1209 3.7298 13.1727C5.07443 15.3796 7.60374 16.4143 10.0006 16.4143C11.9251 16.4143 13.7246 15.7645 15.0492 14.6023C16.4863 13.3276 17.2486 11.5406 17.2486 9.42872C17.2486 7.83666 16.815 6.42205 15.9852 5.27612Z" fill="#EB8F00"/>
<path d="M13.7487 12.1367C12.5365 11.8268 11.2881 11.6756 10.0372 11.6881C8.77002 11.6744 7.50662 11.8281 6.2807 12.1467C5.86207 12.7203 5.63213 13.4101 5.62213 14.1212C5.62213 14.7323 6.32319 15.0884 6.94927 14.8397C7.93275 14.4498 8.97871 14.2424 10.0372 14.2274C11.0956 14.2436 12.1416 14.4511 13.1251 14.8422C13.7499 15.0922 14.4522 14.7348 14.4522 14.1237C14.4385 13.4026 14.191 12.7053 13.7487 12.1367Z" fill="#422B0D"/>
<path d="M13.7482 12.1376C12.8734 10.9591 11.3451 10.1669 10.0367 10.1669C8.61584 10.1669 7.115 10.9654 6.28023 12.1501C7.50614 11.8314 8.76955 11.6765 10.0367 11.6889C11.2876 11.6765 12.536 11.8277 13.7482 12.1376Z" fill="white"/>
<path d="M14.1248 16.4594C14.7322 16.2757 14.9559 16.0633 14.9271 15.9108C14.8896 15.7133 14.0374 15.6834 13.0376 15.8271V12.0019C13.0376 12.0019 12.0242 11.6995 9.97596 11.6995C7.70283 11.6995 6.9143 12.0019 6.9143 12.0019V15.4834C6.28947 15.4472 5.81585 15.5247 5.78961 15.6934C5.77211 15.8271 6.1645 15.9883 6.65437 16.1257C5.70713 16.2232 5.13853 16.3757 5.13853 16.5469C5.13853 16.8405 6.94304 17.078 9.14369 17.078C10.0085 17.083 10.8732 17.0417 11.733 16.953C12.2104 17.0217 12.6915 17.053 13.1738 17.0492C14.2785 17.0492 15.1733 16.9093 15.1733 16.7368C15.1795 16.6156 14.7534 16.5119 14.1248 16.4594Z" fill="url(#paint1_linear_1206_12347)"/>
<path d="M15.8259 15.8352C16.0068 15.8082 16.1406 15.7 16.1247 15.5936C16.1088 15.4871 15.9493 15.4226 15.7684 15.4495C15.5875 15.4765 15.4537 15.5846 15.4696 15.6911C15.4855 15.7976 15.645 15.8621 15.8259 15.8352Z" fill="#368231"/>
<path d="M5.24535 15.5597C5.28965 15.4173 5.12952 15.2409 4.88768 15.1657C4.64583 15.0904 4.41386 15.1447 4.36956 15.2871C4.32525 15.4294 4.48539 15.6058 4.72723 15.6811C4.96907 15.7564 5.20104 15.702 5.24535 15.5597Z" fill="#368231"/>
<path d="M9.31932 15.9706C9.48634 15.9706 9.62174 15.7071 9.62174 15.382C9.62174 15.057 9.48634 14.7935 9.31932 14.7935C9.1523 14.7935 9.01691 15.057 9.01691 15.382C9.01691 15.7071 9.1523 15.9706 9.31932 15.9706Z" fill="#368231"/>
<path d="M9.88306 13.8149C10.0383 13.8149 10.1642 13.5866 10.1642 13.305C10.1642 13.0234 10.0383 12.7952 9.88306 12.7952C9.72777 12.7952 9.60188 13.0234 9.60188 13.305C9.60188 13.5866 9.72777 13.8149 9.88306 13.8149Z" fill="#368231"/>
<path d="M11.5845 15.4493C11.8578 15.4493 12.0794 15.0437 12.0794 14.5433C12.0794 14.043 11.8578 13.6373 11.5845 13.6373C11.3112 13.6373 11.0897 14.043 11.0897 14.5433C11.0897 15.0437 11.3112 15.4493 11.5845 15.4493Z" fill="#368231"/>
<path d="M8.06532 14.2616C8.19507 14.2616 8.30025 14.0787 8.30025 13.853C8.30025 13.6273 8.19507 13.4443 8.06532 13.4443C7.93557 13.4443 7.83038 13.6273 7.83038 13.853C7.83038 14.0787 7.93557 14.2616 8.06532 14.2616Z" fill="#368231"/>
<path d="M6.18812 9.13353L7.7102 8.83861L6.14188 8.19004L6.0894 8.1613C5.83322 8.02634 5.73574 7.71018 5.8707 7.454C5.9032 7.39277 5.94693 7.33903 5.99942 7.29529C6.24935 7.1041 6.59176 7.0891 6.85793 7.2578L9.51721 8.88235C9.58219 8.9061 9.61468 8.97858 9.59094 9.04231C9.57469 9.08605 9.53595 9.11729 9.48971 9.12354L6.62675 10.2007C6.60675 10.2082 6.58676 10.2157 6.56676 10.2207C6.19187 10.3257 5.77573 10.1095 5.717 9.74836C5.67326 9.47344 5.8857 9.21726 6.18812 9.13353Z" fill="#422B0D"/>
<path d="M14.0103 9.10246L12.4882 8.80754L14.0565 8.15648L14.109 8.12773C14.3652 7.99277 14.4627 7.67661 14.3277 7.42043C14.2952 7.3592 14.2515 7.30546 14.199 7.26172C13.9491 7.07053 13.6067 7.05553 13.3405 7.22423L10.6812 8.84878C10.6162 8.87253 10.5837 8.94501 10.6075 9.00874C10.6237 9.05248 10.6625 9.08372 10.7087 9.08997L13.5717 10.1647C13.5917 10.1722 13.6117 10.1797 13.6316 10.1847C14.0065 10.2896 14.4227 10.0734 14.4814 9.71229C14.5252 9.43987 14.3127 9.18994 14.0103 9.10246Z" fill="#422B0D"/>
<path d="M5.96332 5.91679C5.68839 5.96678 5.67589 6.36667 5.97581 6.37916C6.63813 6.38791 7.27796 6.14173 7.76282 5.69185C7.94777 5.5319 8.10398 5.34195 8.2252 5.12951C8.29768 5.02579 8.27268 4.88333 8.16896 4.81085C8.06524 4.73837 7.92278 4.76336 7.8503 4.86708L7.8378 4.87958C7.34794 5.42693 6.68687 5.79308 5.96332 5.91679Z" fill="#422B0D"/>
<path d="M12.099 4.86708C12.0266 4.76336 11.8841 4.73837 11.7804 4.81085C11.6767 4.88333 11.6517 5.02579 11.7241 5.12951C11.8454 5.34195 12.0016 5.5319 12.1865 5.69185C12.6739 6.13798 13.3125 6.38416 13.9735 6.37916C14.2859 6.36667 14.261 5.96678 13.986 5.91679C13.2537 5.79683 12.5877 5.42568 12.099 4.86708Z" fill="#422B0D"/>
<path d="M5.94505 1.18593H6.46233C6.46233 1.18593 8.58706 0.910342 10.0239 0.922511C11.3936 0.93411 13.4074 1.18593 13.4074 1.18593H14.2215C15.0502 2.49047 15.6458 3.83012 15.9189 5.20626C13.2416 4.48017 10.0239 6.01484 10.0239 6.01484C10.0239 6.01484 6.75793 4.50696 4.15475 5.04891C4.57143 3.6402 5.08498 2.36183 5.94505 1.18593Z" fill="#7F2125"/>
<path d="M5.94505 1.18593H6.46233C6.46233 1.18593 8.58706 0.910342 10.0239 0.922511C11.3936 0.93411 13.4074 1.18593 13.4074 1.18593H14.2215M5.94505 1.18593C5.08498 2.36183 4.57143 3.6402 4.15475 5.04891C6.75793 4.50696 10.0239 6.01484 10.0239 6.01484C10.0239 6.01484 13.2416 4.48017 15.9189 5.20626C15.6458 3.83012 15.0502 2.49047 14.2215 1.18593M5.94505 1.18593C6.61789 1.88255 7.57646 1.44495 10.0239 1.98103C12.2398 1.46115 13.3067 1.91705 14.2215 1.18593" stroke="#67211F" stroke-width="0.0582032"/>
<path d="M10.0417 5.99218L10.0496 1.98461C11.7156 1.49653 12.9804 1.87758 14.2303 1.20972C14.7747 2.00769 15.6752 3.50185 15.9277 5.19489C13.7641 4.66379 11.4764 5.36489 10.0417 5.99218Z" fill="#67211F" stroke="#67211F" stroke-width="0.0365292"/>
<path d="M7.18366 1.63776C6.80539 1.39621 6.45049 1.52711 6.46605 1.18018L5.97882 1.19494C6.35859 1.58355 6.92006 1.58253 7.18366 1.63776Z" fill="#67211F"/>
<path d="M12.8159 1.59323C13.1942 1.35411 13.4969 1.50859 13.4814 1.16516H14.2279C13.8482 1.54985 13.0795 1.53855 12.8159 1.59323Z" fill="#67211F" fill-opacity="0.56"/>
<path d="M10.0976 1.22447L10.0126 1.93682L10.1686 1.92655L10.0976 1.22447Z" fill="#67211F" stroke="#67211F" stroke-width="0.0885594"/>
<path d="M8.05823 1.71914C7.7832 1.70448 7.61762 1.68983 7.39026 1.67517C7.24882 3.22496 7.19453 3.60872 7.48922 5.14375C7.8889 5.2435 8.19113 5.33762 8.53615 5.43895C7.7271 4.03601 7.95193 3.13475 8.05823 1.71914Z" fill="#D60000" stroke="#67211F" stroke-width="0.0365292"/>
<path d="M7.60944 1.69688L7.41009 1.68201L7.37022 1.96458L7.60944 1.69688Z" fill="#398F00" stroke="#67211F" stroke-width="0.00737995"/>
<path d="M7.28453 2.73781L8.03109 1.917L8.03894 1.73379L7.60673 1.69714L7.37097 1.96097L7.28453 2.73781Z" fill="#FF7F00" stroke="#67211F" stroke-width="0.00737995"/>
<path d="M7.77072 2.19526C7.77072 2.19526 7.53234 1.9412 7.44852 1.8728L7.36994 1.96075L7.29135 2.73025C7.40661 2.60078 7.77072 2.19526 7.77072 2.19526Z" fill="#D60000" stroke="#67211F" stroke-width="0.00737995"/>
<path d="M8.00086 2.8035C8.00167 2.48724 8.00948 2.29111 8.03229 1.91675L7.2936 2.73021C7.26729 3.05293 7.26102 3.23096 7.2543 3.54368L8.00086 2.8035Z" fill="#007FFF" stroke="#67211F" stroke-width="0.00590396"/>
<path d="M7.82011 2.97963L7.45076 2.55457L7.2936 2.73045C7.27309 3.04888 7.26326 3.22557 7.2543 3.54393L7.82011 2.97963Z" fill="#398F00" stroke="#67211F" stroke-width="0.00590396"/>
<path d="M7.85155 3.71961L7.49006 3.3092L7.2543 3.54372C7.26216 3.87351 7.28574 4.02008 7.30934 4.29124L7.85155 3.71961Z" fill="#D60000" stroke="#67211F" stroke-width="0.00590396"/>
<path d="M7.81679 4.55518L7.4553 4.13745L7.30598 4.29135C7.36885 4.62847 7.38457 4.71641 7.44744 4.96559L7.81679 4.55518Z" fill="#007FFF" stroke="#67211F" stroke-width="0.00590396"/>
<path d="M7.91423 5.25322L7.55887 4.84082L7.44832 4.96601L7.49823 5.13013L7.91423 5.25322Z" fill="#FF7F00" stroke="#67211F" stroke-width="0.00590396"/>
<path d="M8.03937 3.52167C8.0114 3.27531 8.00085 3.12333 8.00007 2.80347L7.48927 3.30914C7.72503 3.57297 7.67788 3.51434 7.85076 3.71954L8.03937 3.52167Z" fill="#FF7F00" stroke="#67211F" stroke-width="0.00590396"/>
<path d="M8.13098 4.20365C8.09955 3.97646 8.06026 3.85921 8.03668 3.52942L7.45515 4.13769C7.68521 4.41753 7.63946 4.35469 7.81664 4.54803L8.13098 4.20365Z" fill="#398F00" stroke="#67211F" stroke-width="0.00590396"/>
<path d="M8.31485 4.85549C8.24413 4.61365 8.20484 4.51105 8.13411 4.20325L7.56044 4.84084C7.74119 5.0607 7.74119 5.0607 7.92193 5.25857L8.31485 4.85549Z" fill="#D60000" stroke="#67211F" stroke-width="0.00590396"/>
<path d="M8.53568 5.42406C8.35494 5.21153 8.36629 5.22206 8.17768 4.99487L7.90753 5.24694C8.23904 5.32997 8.23324 5.32812 8.23324 5.32812L8.53568 5.42406Z" fill="#398F00" stroke="#67211F" stroke-width="0.00590396"/>
<path d="M8.31378 4.85571L8.17953 4.99564L8.52699 5.40804H8.53489L8.31378 4.85571Z" fill="#007FFF" stroke="#67211F" stroke-width="0.00590396"/>
<path d="M8.07716 3.86765L8.03767 3.53625L7.99029 3.58044L7.91922 3.65408L8.07716 3.86765Z" fill="#007FFF" stroke="#67211F" stroke-width="0.00590396"/>
<g filter="url(#filter0_d_1206_12347)">
<path d="M9.07554 2.62306L9.2024 2.436C9.2024 2.436 9.34024 2.98463 9.24401 3.3356C9.1675 3.61466 8.8854 3.97882 8.8854 3.97882C8.75629 4.29324 8.76455 4.46569 8.83454 4.77071L8.57707 5.05947C8.57707 5.05947 8.49747 4.65965 8.36884 4.46357C8.18221 4.17908 7.87429 4.25645 7.6844 4.0064C7.40324 3.63617 7.54902 2.85453 7.54902 2.85453L7.77716 3.04294C7.77716 3.04294 7.91542 2.84832 8.05053 2.56903C8.09892 2.469 8.1469 2.35812 8.18799 2.24143C8.2508 2.06304 8.32074 1.77618 8.32074 1.77618L8.45262 2.03363L8.55868 1.89674C8.55868 1.89674 8.56793 2.09407 8.60707 2.20441C8.6969 2.45765 8.80006 2.54985 9.07554 2.62306Z" fill="url(#paint2_linear_1206_12347)"/>
<path d="M9.07554 2.62306C9.12508 2.55001 9.2024 2.436 9.2024 2.436C9.2024 2.436 9.34024 2.98463 9.24401 3.3356C9.1675 3.61466 8.8854 3.97882 8.8854 3.97882C8.75629 4.29324 8.76455 4.46569 8.83454 4.77071L8.57707 5.05947C8.57707 5.05947 8.49747 4.65965 8.36884 4.46357C8.18221 4.17908 7.87429 4.25645 7.6844 4.0064C7.40324 3.63617 7.54902 2.85453 7.54902 2.85453L7.77716 3.04294M9.07554 2.62306C8.80006 2.54985 8.6969 2.45765 8.60707 2.20441C8.56793 2.09407 8.55868 1.89674 8.55868 1.89674L8.45262 2.03363M9.07554 2.62306C9.06799 2.64953 8.84641 3.10615 8.84641 3.10615C8.84641 3.10615 8.67314 2.78969 8.59523 2.57509M7.77716 3.04294C7.90767 3.18612 7.92731 3.27969 7.9643 3.44559L8.13368 2.85194L8.39212 3.2164L8.43726 2.42306L8.59523 2.57509M7.77716 3.04294C7.77716 3.04294 7.91542 2.84832 8.05053 2.56903C8.09892 2.469 8.1469 2.35812 8.18799 2.24143C8.2508 2.06304 8.32074 1.77618 8.32074 1.77618L8.45262 2.03363M8.45262 2.03363C8.45262 2.03363 8.52032 2.36876 8.59523 2.57509" stroke="#F8F7FC" stroke-width="0.0365292"/>
</g>
</g>
<defs>
<filter id="filter0_d_1206_12347" x="7.49283" y="1.72375" width="1.93065" height="3.4873" filterUnits="userSpaceOnUse" color-interpolation-filters="sRGB">
<feFlood flood-opacity="0" result="BackgroundImageFix"/>
<feColorMatrix in="SourceAlpha" type="matrix" values="0 0 0 0 0 0 0 0 0 0 0 0 0 0 0 0 0 0 127 0" result="hardAlpha"/>
<feOffset dx="0.0737995" dy="0.0590396"/>
<feGaussianBlur stdDeviation="0.0265678"/>
<feComposite in2="hardAlpha" operator="out"/>
<feColorMatrix type="matrix" values="0 0 0 0 0 0 0 0 0 0 0 0 0 0 0 0 0 0 0.25 0"/>
<feBlend mode="normal" in2="BackgroundImageFix" result="effect1_dropShadow_1206_12347"/>
<feBlend mode="normal" in="SourceGraphic" in2="effect1_dropShadow_1206_12347" result="shape"/>
</filter>
<radialGradient id="paint0_radial_1206_12347" cx="0" cy="0" r="1" gradientUnits="userSpaceOnUse" gradientTransform="translate(9.99994 9.42891) scale(7.11802 7.11799)">
<stop offset="0.5" stop-color="#FDE030"/>
<stop offset="0.92" stop-color="#F7C02B"/>
<stop offset="1" stop-color="#F4A223"/>
</radialGradient>
<linearGradient id="paint1_linear_1206_12347" x1="10.1559" y1="11.7345" x2="10.1559" y2="17.2454" gradientUnits="userSpaceOnUse">
<stop stop-color="#469643"/>
<stop offset="0.02" stop-color="#489743"/>
<stop offset="0.44" stop-color="#6DB141"/>
<stop offset="0.78" stop-color="#84C03F"/>
<stop offset="1" stop-color="#8CC63F"/>
</linearGradient>
<linearGradient id="paint2_linear_1206_12347" x1="8.74256" y1="1.88233" x2="7.98084" y2="4.90944" gradientUnits="userSpaceOnUse">
<stop stop-color="#C9C9C9"/>
<stop offset="1" stop-color="#939297"/>
</linearGradient>
<clipPath id="clip0_1206_12347">
<rect width="17.996" height="17.996" fill="white" transform="translate(0.97226 -0.00390625)"/>
</clipPath>
</defs>
</svg>
