<svg width="19" height="19" viewBox="0 0 19 19" fill="none" xmlns="http://www.w3.org/2000/svg">
<g clip-path="url(#clip0_1200_7293)">
<path d="M9.89362 16.8333C6.40707 16.8333 2.6456 14.6464 2.6456 9.84774C2.6456 5.04908 6.40707 2.86218 9.89362 2.86218C11.8306 2.86218 13.6176 3.49951 14.9422 4.66168C16.3793 5.93633 17.1416 7.73583 17.1416 9.84774C17.1416 11.9597 16.3793 13.7467 14.9422 15.0213C13.6176 16.1835 11.8181 16.8333 9.89362 16.8333Z" fill="url(#paint0_radial_1200_7293)"/>
<path d="M15.8789 5.69531C16.5449 6.77001 16.8924 8.04966 16.8924 9.47301C16.8924 11.5849 16.1301 13.3719 14.693 14.6466C13.3683 15.8088 11.5688 16.4586 9.64433 16.4586C7.38745 16.4586 5.0206 15.5401 3.62348 13.5919C4.96811 15.7988 7.49742 16.8335 9.89426 16.8335C11.8187 16.8335 13.6182 16.1837 14.9429 15.0215C16.38 13.7468 17.1423 11.9598 17.1423 9.84791C17.1423 8.25585 16.7086 6.84124 15.8789 5.69531Z" fill="#EB8F00"/>
<path d="M7.52612 7.72778C7.00251 7.72778 6.52639 8.17016 6.52639 8.90496C6.52639 9.63975 7.00251 10.0809 7.52612 10.0809C8.04972 10.0809 8.52584 9.6385 8.52584 8.90496C8.52584 8.17141 8.04972 7.72778 7.52612 7.72778Z" fill="#422B0D"/>
<path d="M7.4794 8.21764C7.30195 8.13266 7.08826 8.20764 7.00203 8.38509C6.9358 8.5238 6.96579 8.69001 7.07701 8.79748C7.25446 8.88245 7.46815 8.80747 7.55438 8.63002C7.62061 8.49131 7.59062 8.32511 7.4794 8.21764Z" fill="#896024"/>
<path d="M12.3151 7.72778C11.7915 7.72778 11.3154 8.17016 11.3154 8.90496C11.3154 9.63975 11.7915 10.0809 12.3151 10.0809C12.8387 10.0809 13.3148 9.6385 13.3148 8.90496C13.3148 8.17141 12.8412 7.72778 12.3151 7.72778Z" fill="#422B0D"/>
<path d="M12.2703 8.21764C12.0928 8.13266 11.8791 8.20764 11.7929 8.38509C11.7267 8.5238 11.7567 8.69001 11.8679 8.79748C12.0453 8.88245 12.259 8.80747 12.3452 8.63002C12.4115 8.49131 12.3815 8.32511 12.2703 8.21764Z" fill="#896024"/>
<path d="M6.02855 1.28273H6.52258C6.52258 1.28273 8.55183 1.00714 9.92409 1.01931C11.2322 1.03091 13.1555 1.28273 13.1555 1.28273H13.933C14.7245 2.58727 15.2933 3.92692 15.5541 5.30306C12.9971 4.57698 9.92409 6.11164 9.92409 6.11164C9.92409 6.11164 6.8049 4.60376 4.31872 5.14571C4.71667 3.737 5.20713 2.45863 6.02855 1.28273Z" fill="#7F2125"/>
<path d="M6.02855 1.28273H6.52258C6.52258 1.28273 8.55183 1.00714 9.92409 1.01931C11.2322 1.03091 13.1555 1.28273 13.1555 1.28273H13.933M6.02855 1.28273C5.20713 2.45863 4.71667 3.737 4.31872 5.14571C6.8049 4.60376 9.92409 6.11164 9.92409 6.11164C9.92409 6.11164 12.9971 4.57698 15.5541 5.30306C15.2933 3.92692 14.7245 2.58727 13.933 1.28273M6.02855 1.28273C6.67115 1.97935 7.58665 1.54175 9.92409 2.07783C12.0404 1.55795 13.0594 2.01385 13.933 1.28273" stroke="#67211F" stroke-width="0.0582032"/>
<path d="M9.94115 6.08886L9.94865 2.08129C11.5398 1.59321 12.7478 1.97426 13.9415 1.3064C14.4614 2.10437 15.3214 3.59853 15.5626 5.29157C13.4962 4.76047 11.3113 5.46157 9.94115 6.08886Z" fill="#67211F" stroke="#67211F" stroke-width="0.0365292"/>
<path d="M7.2127 1.73444C6.85143 1.49289 6.51248 1.62379 6.52734 1.27686L6.06202 1.29162C6.42472 1.68023 6.96095 1.67921 7.2127 1.73444Z" fill="#67211F"/>
<path d="M12.5921 1.69015C12.9533 1.45104 13.2425 1.60551 13.2276 1.26208H13.9406C13.5779 1.64677 12.8438 1.63548 12.5921 1.69015Z" fill="#67211F" fill-opacity="0.56"/>
<path d="M9.99574 1.3209L9.9146 2.03325L10.0636 2.02299L9.99574 1.3209Z" fill="#67211F" stroke="#67211F" stroke-width="0.0885594"/>
<path d="M8.04619 1.8157C7.78352 1.80104 7.62538 1.78639 7.40824 1.77173C7.27315 3.32152 7.22131 3.70528 7.50275 5.2403C7.88446 5.34006 8.17311 5.43418 8.50263 5.5355C7.72994 4.13257 7.94467 3.23131 8.04619 1.8157Z" fill="#D60000" stroke="#67211F" stroke-width="0.0365292"/>
<path d="M7.61802 1.79393L7.42763 1.77905L7.38955 2.06163L7.61802 1.79393Z" fill="#398F00" stroke="#67211F" stroke-width="0.00737995"/>
<path d="M7.30571 2.83437L8.01871 2.01356L8.02621 1.83034L7.61342 1.7937L7.38826 2.05753L7.30571 2.83437Z" fill="#FF7F00" stroke="#67211F" stroke-width="0.00737995"/>
<path d="M7.77035 2.29206C7.77035 2.29206 7.54269 2.038 7.46264 1.9696L7.38758 2.05755L7.31253 2.82705C7.42261 2.69758 7.77035 2.29206 7.77035 2.29206Z" fill="#D60000" stroke="#67211F" stroke-width="0.00737995"/>
<path d="M7.99044 2.9003C7.99121 2.58404 7.99867 2.38792 8.02046 2.01355L7.31496 2.82702C7.28983 3.14974 7.28384 3.32776 7.27743 3.64048L7.99044 2.9003Z" fill="#007FFF" stroke="#67211F" stroke-width="0.00590396"/>
<path d="M7.81781 3.07631L7.46506 2.65125L7.31496 2.82713C7.29538 3.14556 7.28598 3.32225 7.27743 3.64061L7.81781 3.07631Z" fill="#398F00" stroke="#67211F" stroke-width="0.00590396"/>
<path d="M7.84783 3.81629L7.50259 3.40588L7.27743 3.6404C7.28494 3.97019 7.30745 4.11676 7.33 4.38792L7.84783 3.81629Z" fill="#D60000" stroke="#67211F" stroke-width="0.00590396"/>
<path d="M7.81597 4.65174L7.47073 4.23401L7.32813 4.38791C7.38817 4.72503 7.40318 4.81297 7.46322 5.06214L7.81597 4.65174Z" fill="#007FFF" stroke="#67211F" stroke-width="0.00590396"/>
<path d="M7.90959 5.3499L7.57021 4.9375L7.46462 5.06269L7.51229 5.22681L7.90959 5.3499Z" fill="#FF7F00" stroke="#67211F" stroke-width="0.00590396"/>
<path d="M8.02802 3.61835C8.00131 3.37199 7.99123 3.22001 7.99049 2.90015L7.50265 3.40582C7.72781 3.66965 7.68277 3.61102 7.84789 3.81622L8.02802 3.61835Z" fill="#FF7F00" stroke="#67211F" stroke-width="0.00590396"/>
<path d="M8.1169 4.29997C8.08688 4.07278 8.04935 3.95552 8.02684 3.62573L7.47145 4.23401C7.69116 4.51385 7.64747 4.451 7.81669 4.64434L8.1169 4.29997Z" fill="#398F00" stroke="#67211F" stroke-width="0.00590396"/>
<path d="M8.29043 4.95242C8.22288 4.71057 8.18535 4.60797 8.11781 4.30017L7.56992 4.93776C7.74254 5.15762 7.74254 5.15762 7.91516 5.35549L8.29043 4.95242Z" fill="#D60000" stroke="#67211F" stroke-width="0.00590396"/>
<path d="M8.5062 5.52284C8.33274 5.30927 8.34363 5.31985 8.16262 5.09155L7.90335 5.34485C8.22151 5.42828 8.21594 5.42643 8.21594 5.42643L8.5062 5.52284Z" fill="#398F00" stroke="#67211F" stroke-width="0.00590396"/>
<path d="M8.2909 4.95239L8.16269 5.09232L8.49454 5.50472H8.50208L8.2909 4.95239Z" fill="#007FFF" stroke="#67211F" stroke-width="0.00590396"/>
<path d="M8.06492 3.9647L8.02721 3.6333L7.98195 3.67749L7.91408 3.75113L8.06492 3.9647Z" fill="#007FFF" stroke="#67211F" stroke-width="0.00590396"/>
<g filter="url(#filter0_d_1200_7293)">
<path d="M9.01858 2.71962L9.13974 2.53256C9.13974 2.53256 9.27138 3.08119 9.17948 3.43215C9.1064 3.71122 8.83699 4.07538 8.83699 4.07538C8.71368 4.3898 8.72157 4.56225 8.78841 4.86727L8.54251 5.15602C8.54251 5.15602 8.46649 4.75621 8.34364 4.56013C8.1654 4.27564 7.87132 4.35301 7.68996 4.10296C7.42144 3.73273 7.56067 2.95109 7.56067 2.95109L7.77855 3.1395C7.77855 3.1395 7.9106 2.94488 8.03964 2.66558C8.08585 2.56556 8.13168 2.45468 8.17092 2.33798C8.23091 2.1596 8.2977 1.87274 8.2977 1.87274L8.42366 2.13018L8.52495 1.9933C8.52495 1.9933 8.53379 2.19062 8.57117 2.30097C8.65696 2.55421 8.75548 2.6464 9.01858 2.71962Z" fill="url(#paint1_linear_1200_7293)"/>
<path d="M9.01858 2.71962C9.06589 2.64657 9.13974 2.53256 9.13974 2.53256C9.13974 2.53256 9.27138 3.08119 9.17948 3.43215C9.1064 3.71122 8.83699 4.07538 8.83699 4.07538C8.71368 4.3898 8.72157 4.56225 8.78841 4.86727L8.54251 5.15602C8.54251 5.15602 8.46649 4.75621 8.34364 4.56013C8.1654 4.27564 7.87132 4.35301 7.68996 4.10296C7.42144 3.73273 7.56067 2.95109 7.56067 2.95109L7.77855 3.1395M9.01858 2.71962C8.75548 2.6464 8.65696 2.55421 8.57117 2.30097C8.53379 2.19062 8.52495 1.9933 8.52495 1.9933L8.42366 2.13018M9.01858 2.71962C9.01137 2.74609 8.79975 3.2027 8.79975 3.2027C8.79975 3.2027 8.63427 2.88625 8.55986 2.67165M7.77855 3.1395C7.9032 3.28268 7.92196 3.37625 7.95728 3.54215L8.11905 2.9485L8.36587 3.31295L8.40899 2.51962L8.55986 2.67165M7.77855 3.1395C7.77855 3.1395 7.9106 2.94488 8.03964 2.66558C8.08585 2.56556 8.13168 2.45468 8.17092 2.33798C8.23091 2.1596 8.2977 1.87274 8.2977 1.87274L8.42366 2.13018M8.42366 2.13018C8.42366 2.13018 8.48832 2.46531 8.55986 2.67165" stroke="#F8F7FC" stroke-width="0.0365292"/>
</g>
</g>
<defs>
<filter id="filter0_d_1200_7293" x="7.50629" y="1.81848" width="1.85102" height="3.49059" filterUnits="userSpaceOnUse" color-interpolation-filters="sRGB">
<feFlood flood-opacity="0" result="BackgroundImageFix"/>
<feColorMatrix in="SourceAlpha" type="matrix" values="0 0 0 0 0 0 0 0 0 0 0 0 0 0 0 0 0 0 127 0" result="hardAlpha"/>
<feOffset dx="0.0737995" dy="0.0590396"/>
<feGaussianBlur stdDeviation="0.0265678"/>
<feComposite in2="hardAlpha" operator="out"/>
<feColorMatrix type="matrix" values="0 0 0 0 0 0 0 0 0 0 0 0 0 0 0 0 0 0 0.25 0"/>
<feBlend mode="normal" in2="BackgroundImageFix" result="effect1_dropShadow_1200_7293"/>
<feBlend mode="normal" in="SourceGraphic" in2="effect1_dropShadow_1200_7293" result="shape"/>
</filter>
<radialGradient id="paint0_radial_1200_7293" cx="0" cy="0" r="1" gradientUnits="userSpaceOnUse" gradientTransform="translate(9.89362 9.84773) scale(7.11802 7.11799)">
<stop offset="0.5" stop-color="#FDE030"/>
<stop offset="0.92" stop-color="#F7C02B"/>
<stop offset="1" stop-color="#F4A223"/>
</radialGradient>
<linearGradient id="paint1_linear_1200_7293" x1="8.70056" y1="1.97888" x2="7.90755" y2="4.98873" gradientUnits="userSpaceOnUse">
<stop stop-color="#C9C9C9"/>
<stop offset="1" stop-color="#939297"/>
</linearGradient>
<clipPath id="clip0_1200_7293">
<rect width="17.996" height="17.996" fill="white" transform="translate(0.944519 0.988037)"/>
</clipPath>
</defs>
</svg>
