<svg width="19" height="19" viewBox="0 0 19 19" fill="none" xmlns="http://www.w3.org/2000/svg">
<g clip-path="url(#clip0_1200_6296)">
<path d="M9.92478 16.8305C6.43823 16.8305 2.67676 14.6436 2.67676 9.84493C2.67676 5.04627 6.43823 2.85938 9.92478 2.85938C11.8617 2.85938 13.6488 3.4967 14.9734 4.65887C16.4105 5.93352 17.1728 7.73302 17.1728 9.84493C17.1728 11.9568 16.4105 13.7439 14.9734 15.0185C13.6488 16.1807 11.8492 16.8305 9.92478 16.8305Z" fill="url(#paint0_radial_1200_6296)"/>
<path d="M15.91 5.69214C16.5761 6.76684 16.9235 8.04648 16.9235 9.46984C16.9235 11.5818 16.1612 13.3688 14.7241 14.6434C13.3995 15.8056 11.6 16.4554 9.67549 16.4554C7.4186 16.4554 5.05175 15.5369 3.65463 13.5887C4.99926 15.7956 7.52857 16.8303 9.92542 16.8303C11.8499 16.8303 13.6494 16.1805 14.974 15.0183C16.4111 13.7437 17.1734 11.9566 17.1734 9.84474C17.1734 8.25268 16.7398 6.83807 15.91 5.69214Z" fill="#EB8F00"/>
<path d="M13.1926 11.8671C12.1492 11.5547 11.0645 11.4035 9.97601 11.4172C8.87257 11.4072 7.77412 11.5647 6.71815 11.8859C6.352 12.4819 6.15706 13.1668 6.15206 13.8666C6.14581 14.3064 6.49697 14.6676 6.93684 14.6738C7.06306 14.6751 7.18928 14.6476 7.30174 14.5914C8.14027 14.199 9.05127 13.9865 9.97601 13.9665C10.902 13.984 11.813 14.1977 12.6503 14.5914C13.0439 14.7863 13.5213 14.6263 13.7175 14.2315C13.7737 14.1177 13.8025 13.9928 13.8 13.8666C13.7925 13.1555 13.5813 12.462 13.1926 11.8671Z" fill="#422B0D"/>
<path d="M13.1919 11.8671C12.4372 10.6799 11.1113 10.38 9.97533 10.38C8.74066 10.38 7.43852 10.6887 6.71747 11.8796C7.77343 11.5609 8.87188 11.4047 9.97533 11.4172C11.0638 11.4035 12.1485 11.5547 13.1919 11.8671Z" fill="white"/>
<path d="M6.19073 5.84868C5.91581 5.89866 5.90331 6.29855 6.20323 6.31105C6.86555 6.3198 7.50537 6.07362 7.99024 5.62374C8.17519 5.46378 8.3314 5.27384 8.45261 5.0614C8.52509 4.95767 8.5001 4.81521 8.39638 4.74273C8.29266 4.67025 8.1502 4.69525 8.07772 4.79897L8.06522 4.81147C7.57535 5.35881 6.91428 5.72496 6.19073 5.84868Z" fill="#422B0D"/>
<path d="M11.7785 4.79885C11.706 4.69513 11.5636 4.67013 11.4599 4.74261C11.3561 4.81509 11.3311 4.95755 11.4036 5.06127C11.5248 5.27371 11.681 5.46366 11.866 5.62362C12.3534 6.06974 12.9919 6.31593 13.653 6.31093C13.9654 6.29843 13.9404 5.89854 13.6655 5.84856C12.9332 5.72859 12.2671 5.35744 11.7785 4.79885Z" fill="#422B0D"/>
<path d="M6.28295 7.13715C6.28295 7.13715 7.91375 7.3071 9.04094 8.49427C9.16466 8.62049 9.16216 8.82293 9.0347 8.94665C8.98346 8.99663 8.91848 9.02787 8.8485 9.03537C8.41237 9.07536 7.76004 9.29905 6.84904 9.99011C6.84904 9.99011 6.35668 10.4587 5.96678 9.99011C5.65937 9.61521 6.21672 9.19033 6.21672 9.19033C6.21672 9.19033 6.87279 8.59549 7.65257 8.55425L6.20547 8.22684C6.05801 8.20685 5.9193 8.14062 5.81183 8.0369C5.66937 7.91693 5.61938 7.72074 5.68686 7.54703C5.77809 7.2971 6.01677 7.1334 6.28295 7.13715Z" fill="#422B0D"/>
<path d="M13.7235 7.13708C13.7235 7.13708 12.0989 7.30704 10.9667 8.49421C10.843 8.62042 10.8468 8.82287 10.973 8.94658C11.0242 8.99657 11.0917 9.02781 11.1629 9.03531C11.5991 9.0753 12.2501 9.29899 13.1624 9.99004C13.1624 9.99004 13.6535 10.4587 14.0446 9.99004C14.3521 9.61515 13.7947 9.19026 13.7947 9.19026C13.7947 9.19026 13.1386 8.59543 12.3589 8.55419L13.791 8.22678C13.9397 8.20679 14.0771 8.14056 14.1859 8.03683C14.3271 7.91687 14.3783 7.72067 14.3108 7.54697C14.2208 7.30079 13.9859 7.13708 13.7235 7.13708Z" fill="#422B0D"/>
<path d="M9.96758 10.1954C10.4075 10.1992 10.8461 10.2542 11.2747 10.3579C11.7096 10.4616 12.1207 10.6453 12.4881 10.9002C12.8505 11.1639 13.1492 11.5063 13.3629 11.9C13.5766 12.2836 13.7278 12.6997 13.8078 13.1309C13.8478 13.3458 13.869 13.5632 13.869 13.7819C13.874 13.8969 13.8615 14.0106 13.8315 14.1218C13.7978 14.2343 13.7416 14.338 13.6678 14.428C13.5179 14.6055 13.3017 14.7154 13.0692 14.7317C12.9555 14.7379 12.8405 14.7229 12.7318 14.6879C12.6231 14.6479 12.5331 14.5992 12.4344 14.563C11.6596 14.2056 10.8211 14.0031 9.96758 13.9694C10.8248 13.9706 11.6746 14.1406 12.4669 14.4692C12.5669 14.508 12.6668 14.5567 12.7593 14.5867C12.8555 14.613 12.9555 14.6217 13.0542 14.613C13.2517 14.593 13.4316 14.4942 13.5541 14.338C13.6128 14.2618 13.6553 14.1731 13.6791 14.0794C13.7016 13.9831 13.7091 13.8832 13.7003 13.7844C13.6916 13.5745 13.6641 13.3646 13.6191 13.1596C13.5279 12.7535 13.3717 12.3648 13.1542 12.0099C12.9455 11.6575 12.6606 11.3564 12.3207 11.1277C11.977 10.9077 11.5959 10.7528 11.196 10.6728C10.7899 10.5916 10.3762 10.5553 9.96259 10.5666L9.96758 10.1954Z" fill="#EB8F00"/>
<path d="M9.99686 10.5703C9.58322 10.5591 9.16958 10.5953 8.76469 10.6766C8.3648 10.7565 7.98366 10.9115 7.64 11.1314C7.30009 11.3601 7.01517 11.6613 6.80648 12.0137C6.59029 12.3686 6.43283 12.7572 6.34161 13.1634C6.29662 13.3683 6.26913 13.5782 6.26038 13.7882C6.25163 13.8869 6.25913 13.9869 6.28162 14.0831C6.30662 14.1768 6.3491 14.2643 6.40659 14.3418C6.52906 14.498 6.70901 14.5967 6.90645 14.6167C7.00517 14.6255 7.10515 14.6167 7.20137 14.5905C7.2951 14.5605 7.39507 14.5117 7.49379 14.473C8.28607 14.1443 9.13584 13.9744 9.99311 13.9731C9.14084 14.0044 8.30232 14.2031 7.52628 14.558C7.42881 14.6005 7.33758 14.6492 7.22886 14.6829C7.12014 14.7179 7.00517 14.7329 6.89146 14.7267C6.65777 14.7104 6.44158 14.6005 6.29162 14.4218C6.21664 14.3318 6.16041 14.2281 6.12667 14.1156C6.09667 14.0044 6.08418 13.8907 6.08918 13.7757C6.09043 13.557 6.11167 13.3396 6.15041 13.1246C6.23289 12.6935 6.38409 12.2786 6.59904 11.8962C6.81273 11.5026 7.1114 11.1602 7.4738 10.8965C7.84245 10.6428 8.25483 10.4604 8.68971 10.3579C9.11835 10.2542 9.55698 10.1992 9.99686 10.1954V10.5703Z" fill="#EB8F00"/>
<path d="M6.06194 1.28286H6.55597C6.55597 1.28286 8.58522 1.00727 9.95748 1.01943C11.2656 1.03103 13.1889 1.28286 13.1889 1.28286H13.9664C14.7579 2.58739 15.3267 3.92705 15.5875 5.30318C13.0305 4.5771 9.95748 6.11177 9.95748 6.11177C9.95748 6.11177 6.83829 4.60388 4.35211 5.14583C4.75006 3.73713 5.24053 2.45875 6.06194 1.28286Z" fill="#7F2125"/>
<path d="M6.06194 1.28286H6.55597C6.55597 1.28286 8.58522 1.00727 9.95748 1.01943C11.2656 1.03103 13.1889 1.28286 13.1889 1.28286H13.9664M6.06194 1.28286C5.24053 2.45875 4.75006 3.73713 4.35211 5.14584C6.83829 4.60388 9.95748 6.11177 9.95748 6.11177C9.95748 6.11177 13.0305 4.5771 15.5875 5.30318C15.3267 3.92705 14.7579 2.58739 13.9664 1.28286M6.06194 1.28286C6.70454 1.97947 7.62004 1.54187 9.95748 2.07795C12.0738 1.55807 13.0928 2.01397 13.9664 1.28286" stroke="#67211F" stroke-width="0.0582032"/>
<path d="M9.97272 6.08899L9.98022 2.08141C11.5713 1.59333 12.7793 1.97439 13.973 1.30652C14.493 2.1045 15.353 3.59865 15.5942 5.29169C13.5278 4.76059 11.3429 5.46169 9.97272 6.08899Z" fill="#67211F" stroke="#67211F" stroke-width="0.0365292"/>
<path d="M7.24181 1.73456C6.88054 1.49301 6.54159 1.62391 6.55645 1.27698L6.09113 1.29174C6.45383 1.68035 6.99006 1.67933 7.24181 1.73456Z" fill="#67211F"/>
<path d="M12.6192 1.69027C12.9805 1.45116 13.2697 1.60563 13.2548 1.26221H13.9678C13.6051 1.64689 12.871 1.6356 12.6192 1.69027Z" fill="#67211F" fill-opacity="0.56"/>
<path d="M10.0258 1.32103L9.94469 2.03337L10.0937 2.02311L10.0258 1.32103Z" fill="#67211F" stroke="#67211F" stroke-width="0.0885594"/>
<path d="M8.07693 1.81582C7.81426 1.80116 7.65612 1.78651 7.43897 1.77185C7.30389 3.32164 7.25204 3.7054 7.53349 5.24043C7.9152 5.34018 8.20385 5.4343 8.53336 5.53562C7.76068 4.13269 7.9754 3.23143 8.07693 1.81582Z" fill="#D60000" stroke="#67211F" stroke-width="0.0365292"/>
<path d="M7.64863 1.79405L7.45824 1.77917L7.42017 2.06175L7.64863 1.79405Z" fill="#398F00" stroke="#67211F" stroke-width="0.00737995"/>
<path d="M7.33936 2.83461L8.05236 2.0138L8.05986 1.83059L7.64707 1.79395L7.42191 2.05778L7.33936 2.83461Z" fill="#FF7F00" stroke="#67211F" stroke-width="0.00737995"/>
<path d="M7.80401 2.29219C7.80401 2.29219 7.57635 2.03813 7.4963 1.96973L7.42124 2.05767L7.34619 2.82718C7.45627 2.6977 7.80401 2.29219 7.80401 2.29219Z" fill="#D60000" stroke="#67211F" stroke-width="0.00737995"/>
<path d="M8.02019 2.90042C8.02096 2.58416 8.02843 2.38804 8.05022 2.01367L7.34472 2.82714C7.31959 3.14986 7.3136 3.32788 7.30719 3.6406L8.02019 2.90042Z" fill="#007FFF" stroke="#67211F" stroke-width="0.00590396"/>
<path d="M7.84757 3.07643L7.49482 2.65137L7.34472 2.82725C7.32514 3.14568 7.31574 3.32237 7.30719 3.64073L7.84757 3.07643Z" fill="#398F00" stroke="#67211F" stroke-width="0.00590396"/>
<path d="M7.87759 3.81641L7.53235 3.40601L7.30719 3.64052C7.3147 3.97031 7.33721 4.11688 7.35975 4.38804L7.87759 3.81641Z" fill="#D60000" stroke="#67211F" stroke-width="0.00590396"/>
<path d="M7.8467 4.65186L7.50146 4.23413L7.35886 4.38803C7.4189 4.72515 7.43391 4.81309 7.49395 5.06227L7.8467 4.65186Z" fill="#007FFF" stroke="#67211F" stroke-width="0.00590396"/>
<path d="M7.94033 5.35003L7.60095 4.93762L7.49536 5.06282L7.54303 5.22693L7.94033 5.35003Z" fill="#FF7F00" stroke="#67211F" stroke-width="0.00590396"/>
<path d="M8.05778 3.61847C8.03107 3.37211 8.02099 3.22013 8.02025 2.90027L7.53241 3.40594C7.75757 3.66977 7.71254 3.61114 7.87765 3.81635L8.05778 3.61847Z" fill="#FF7F00" stroke="#67211F" stroke-width="0.00590396"/>
<path d="M8.1486 4.30009C8.11858 4.0729 8.08105 3.95564 8.05853 3.62585L7.50314 4.23413C7.72286 4.51397 7.67917 4.45112 7.84839 4.64446L8.1486 4.30009Z" fill="#398F00" stroke="#67211F" stroke-width="0.00590396"/>
<path d="M8.32213 4.95254C8.25458 4.7107 8.21706 4.6081 8.14951 4.30029L7.60162 4.93788C7.77425 5.15774 7.77425 5.15774 7.94687 5.35561L8.32213 4.95254Z" fill="#D60000" stroke="#67211F" stroke-width="0.00590396"/>
<path d="M8.53888 5.52296C8.36542 5.30939 8.37631 5.31997 8.1953 5.09167L7.93604 5.34498C8.25419 5.4284 8.24862 5.42655 8.24862 5.42655L8.53888 5.52296Z" fill="#398F00" stroke="#67211F" stroke-width="0.00590396"/>
<path d="M8.32261 4.95251L8.1944 5.09244L8.52624 5.50484H8.53378L8.32261 4.95251Z" fill="#007FFF" stroke="#67211F" stroke-width="0.00590396"/>
<path d="M8.09566 3.96482L8.05795 3.63342L8.0127 3.67761L7.94482 3.75125L8.09566 3.96482Z" fill="#007FFF" stroke="#67211F" stroke-width="0.00590396"/>
<g filter="url(#filter0_d_1200_6296)">
<path d="M9.04962 2.71974L9.17078 2.53268C9.17078 2.53268 9.30242 3.08131 9.21052 3.43227C9.13745 3.71134 8.86803 4.0755 8.86803 4.0755C8.74472 4.38992 8.75261 4.56237 8.81945 4.86739L8.57356 5.15615C8.57356 5.15615 8.49753 4.75633 8.37468 4.56025C8.19645 4.27576 7.90236 4.35313 7.72101 4.10308C7.45249 3.73285 7.59171 2.95121 7.59171 2.95121L7.80959 3.13962C7.80959 3.13962 7.94164 2.945 8.07068 2.66571C8.1169 2.56568 8.16272 2.4548 8.20196 2.3381C8.26195 2.15972 8.32874 1.87286 8.32874 1.87286L8.4547 2.13031L8.556 1.99342C8.556 1.99342 8.56483 2.19075 8.60221 2.30109C8.688 2.55433 8.78652 2.64652 9.04962 2.71974Z" fill="url(#paint1_linear_1200_6296)"/>
<path d="M9.04962 2.71974C9.09694 2.64669 9.17078 2.53268 9.17078 2.53268C9.17078 2.53268 9.30242 3.08131 9.21052 3.43227C9.13745 3.71134 8.86803 4.0755 8.86803 4.0755C8.74472 4.38992 8.75261 4.56237 8.81945 4.86739L8.57356 5.15615C8.57356 5.15615 8.49753 4.75633 8.37468 4.56025C8.19645 4.27576 7.90236 4.35313 7.72101 4.10308C7.45249 3.73285 7.59171 2.95121 7.59171 2.95121L7.80959 3.13962M9.04962 2.71974C8.78652 2.64652 8.688 2.55433 8.60221 2.30109C8.56483 2.19075 8.556 1.99342 8.556 1.99342L8.4547 2.13031M9.04962 2.71974C9.04241 2.74621 8.83079 3.20282 8.83079 3.20282C8.83079 3.20282 8.66531 2.88637 8.5909 2.67177M7.80959 3.13962C7.93424 3.2828 7.953 3.37637 7.98832 3.54227L8.15009 2.94862L8.39692 3.31308L8.44003 2.51974L8.5909 2.67177M7.80959 3.13962C7.80959 3.13962 7.94164 2.945 8.07068 2.66571C8.1169 2.56568 8.16272 2.4548 8.20196 2.3381C8.26195 2.15972 8.32874 1.87286 8.32874 1.87286L8.4547 2.13031M8.4547 2.13031C8.4547 2.13031 8.51936 2.46544 8.5909 2.67177" stroke="#F8F7FC" stroke-width="0.0365292"/>
</g>
</g>
<defs>
<filter id="filter0_d_1200_6296" x="7.53732" y="1.8186" width="1.85103" height="3.49059" filterUnits="userSpaceOnUse" color-interpolation-filters="sRGB">
<feFlood flood-opacity="0" result="BackgroundImageFix"/>
<feColorMatrix in="SourceAlpha" type="matrix" values="0 0 0 0 0 0 0 0 0 0 0 0 0 0 0 0 0 0 127 0" result="hardAlpha"/>
<feOffset dx="0.0737995" dy="0.0590396"/>
<feGaussianBlur stdDeviation="0.0265678"/>
<feComposite in2="hardAlpha" operator="out"/>
<feColorMatrix type="matrix" values="0 0 0 0 0 0 0 0 0 0 0 0 0 0 0 0 0 0 0.25 0"/>
<feBlend mode="normal" in2="BackgroundImageFix" result="effect1_dropShadow_1200_6296"/>
<feBlend mode="normal" in="SourceGraphic" in2="effect1_dropShadow_1200_6296" result="shape"/>
</filter>
<radialGradient id="paint0_radial_1200_6296" cx="0" cy="0" r="1" gradientUnits="userSpaceOnUse" gradientTransform="translate(9.92477 9.84493) scale(7.11802 7.11799)">
<stop offset="0.5" stop-color="#FDE030"/>
<stop offset="0.92" stop-color="#F7C02B"/>
<stop offset="1" stop-color="#F4A223"/>
</radialGradient>
<linearGradient id="paint1_linear_1200_6296" x1="8.73161" y1="1.979" x2="7.93859" y2="4.98885" gradientUnits="userSpaceOnUse">
<stop stop-color="#C9C9C9"/>
<stop offset="1" stop-color="#939297"/>
</linearGradient>
<clipPath id="clip0_1200_6296">
<rect width="17.996" height="17.996" fill="white" transform="translate(0.976196 0.988159)"/>
</clipPath>
</defs>
</svg>
