<svg width="18" height="18" viewBox="0 0 18 18" fill="none" xmlns="http://www.w3.org/2000/svg">
<path d="M9.15776 16.9991C5.71463 16.9991 2 14.751 2 9.81788C2 4.8848 5.71463 2.63666 9.15776 2.63666C11.0706 2.63666 12.8354 3.29183 14.1435 4.48656C15.5627 5.79691 16.3155 7.64681 16.3155 9.81788C16.3155 11.9889 15.5627 13.826 14.1435 15.1364C12.8329 16.3311 11.0583 16.9991 9.15776 16.9991Z" fill="url(#paint0_radial_1193_757)"/>
<path d="M6.79239 6.9978C6.27531 6.9978 5.80511 7.45257 5.80511 8.20795C5.80511 8.96333 6.27531 9.41681 6.79239 9.41681C7.31071 9.41681 7.77967 8.96204 7.77967 8.20795C7.77967 7.45386 7.31565 6.9978 6.79239 6.9978Z" fill="#422B0D"/>
<path d="M6.74544 7.50292C6.5702 7.41556 6.35917 7.49264 6.27402 7.67506C6.20861 7.81766 6.23823 7.98852 6.34806 8.099C6.52331 8.18636 6.73434 8.10928 6.81949 7.92686C6.8849 7.78426 6.85528 7.6134 6.74544 7.50292Z" fill="#896024"/>
<path d="M11.5313 6.9978C11.0142 6.9978 10.544 7.45257 10.544 8.20795C10.544 8.96333 11.0142 9.41681 11.5313 9.41681C12.0483 9.41681 12.5185 8.96204 12.5185 8.20795C12.5185 7.45386 12.0483 6.9978 11.5313 6.9978Z" fill="#422B0D"/>
<path d="M11.4767 7.50292C11.3014 7.41556 11.0904 7.49264 11.0053 7.67506C10.9398 7.81766 10.9695 7.98852 11.0793 8.099C11.2545 8.18636 11.4656 8.10928 11.5507 7.92686C11.6161 7.78426 11.5865 7.6134 11.4767 7.50292Z" fill="#896024"/>
<path d="M15.1207 5.55212C15.7785 6.65693 16.1215 7.97241 16.1215 9.43564C16.1215 11.6067 15.3687 13.4438 13.9495 14.7541C12.6414 15.9488 10.8643 16.6169 8.96378 16.6169C6.735 16.6169 4.39762 15.6726 3.0179 13.6699C4.34579 15.9386 6.8436 17.0023 9.2106 17.0023C11.1111 17.0023 12.8882 16.3342 14.1963 15.1395C15.6156 13.8292 16.3684 11.9921 16.3684 9.82103C16.3684 8.18438 15.9401 6.73015 15.1207 5.55212Z" fill="#EB8F00"/>
<path d="M13.96 10.9417C13.7872 10.6167 13.4121 10.4741 13.0789 10.6051C11.8127 10.9892 10.4996 11.1807 9.18036 11.1742C7.86111 11.1807 6.54803 10.9892 5.28185 10.6051C4.94988 10.4741 4.57471 10.6154 4.40194 10.9391C4.2341 11.2616 4.35504 11.6354 4.49696 11.9579C5.28925 13.7692 7.0355 14.8535 9.17049 14.8599H9.19023C11.3252 14.8599 13.0715 13.7692 13.865 11.9579C14.0057 11.6329 14.1279 11.2642 13.96 10.9417Z" fill="#422B0D"/>
<path d="M11.1522 14.3481C11.1065 14.3044 11.0596 14.2646 11.0128 14.2196C10.5092 13.7584 9.85764 13.5105 9.18629 13.5246C8.49519 13.5131 7.82261 13.752 7.28331 14.2016C7.23641 14.2415 7.18705 14.28 7.14139 14.3301C7.09573 14.3802 7.07105 14.4162 7.04143 14.4586C7.72018 14.7348 8.44336 14.8761 9.17271 14.8722H9.19246C9.89096 14.8722 10.5833 14.7425 11.2374 14.4868C11.2127 14.438 11.1843 14.3918 11.1522 14.3481Z" fill="#ED7770"/>
<path d="M13.0741 10.6057C11.8079 10.9898 10.4948 11.1812 9.17557 11.1748C7.85632 11.1812 6.54324 10.9898 5.27706 10.6057C4.94509 10.4746 4.56992 10.616 4.39715 10.9397C4.37246 10.9885 4.35272 11.0399 4.34038 11.0926C4.3811 11.1144 4.428 11.1362 4.48353 11.1594C5.96939 11.934 7.61197 12.3271 9.27306 12.3066C10.8663 12.3258 12.441 11.9648 13.8799 11.2531C13.9379 11.2275 13.9861 11.203 14.0293 11.1799C14.0194 11.0964 13.9935 11.0142 13.9552 10.9397C13.7825 10.616 13.4073 10.4734 13.0741 10.6057Z" fill="white"/>
<path d="M13.965 10.943C13.7897 10.618 13.4133 10.4741 13.0776 10.6051C11.8115 10.9892 10.4984 11.1807 9.18036 11.1742C7.86111 11.1807 6.54803 10.9892 5.28185 10.6051C4.94988 10.4741 4.57471 10.6154 4.40194 10.9391C4.2341 11.2616 4.35504 11.6354 4.49696 11.9579C4.5599 12.103 4.63024 12.2456 4.70799 12.3831C4.70799 12.3831 4.44883 11.3836 4.67344 11.0933C4.74995 10.97 4.8783 10.8929 5.01898 10.8852C5.07699 10.8852 5.13376 10.8955 5.18929 10.9135C6.47769 11.3078 7.81421 11.507 9.15815 11.5044H9.20134C10.5453 11.507 11.8818 11.3078 13.1702 10.9135C13.2257 10.8955 13.2825 10.8852 13.3405 10.8852C13.4812 10.8929 13.6108 10.97 13.6873 11.0933C13.9156 11.3836 13.6527 12.387 13.6527 12.387C13.7292 12.2495 13.8058 12.1082 13.8699 11.9617C14.0106 11.6393 14.1328 11.2667 13.965 10.943Z" fill="#EB8F00"/>
<path d="M5.28925 1.26394H5.78614C5.78614 1.26394 7.82714 0.988217 9.20736 1.00039C10.523 1.012 12.4575 1.26394 12.4575 1.26394H13.2395C14.0356 2.56909 14.6077 3.90939 14.87 5.28617C12.4575 5.58671 9.24619 6.29394 9.24619 6.29394C9.24619 6.29394 6.20404 5.66542 3.56952 5.12875C3.96978 3.71937 4.46308 2.44039 5.28925 1.26394Z" fill="#7F2125"/>
<path d="M5.28925 1.26394H5.78614C5.78614 1.26394 7.82714 0.988217 9.20736 1.00039C10.523 1.012 12.4575 1.26394 12.4575 1.26394H13.2395M5.28925 1.26394C4.46308 2.44039 3.96978 3.71937 3.56952 5.12875C6.20404 5.66542 9.24619 6.29394 9.24619 6.29394C9.24619 6.29394 12.4575 5.58671 14.87 5.28617C14.6077 3.90939 14.0356 2.56909 13.2395 1.26394M5.28925 1.26394C5.93558 1.96089 6.85637 1.52308 9.20736 2.05941C11.3359 1.53928 12.3608 1.9954 13.2395 1.26394" stroke="#67211F" stroke-width="0.0582308"/>
<path d="M9.26076 6.28737L9.23811 2.06378C10.8385 1.57546 12.0535 1.9567 13.2541 1.28851C13.777 2.08687 14.642 3.58173 14.8846 5.27558C13.0427 5.48996 10.1138 6.10279 9.26076 6.28737Z" fill="#67211F" stroke="#67211F" stroke-width="0.0365466"/>
<path d="M11.8912 1.6707C12.2546 1.43147 12.5454 1.58602 12.5305 1.24243H13.2476C12.8828 1.6273 12.1444 1.616 11.8912 1.6707Z" fill="#67211F" fill-opacity="0.56"/>
<path d="M6.48415 1.71726C6.12079 1.47559 5.77987 1.60656 5.79482 1.25946L5.3268 1.27423C5.6916 1.66302 6.23094 1.66201 6.48415 1.71726Z" fill="#67211F"/>
<path d="M9.28326 1.30121L9.20165 2.0139L9.35152 2.00363L9.28326 1.30121Z" fill="#67211F" stroke="#67211F" stroke-width="0.0886015"/>
<path d="M7.31668 1.78314C7.05529 1.76619 6.89797 1.75011 6.6819 1.73353C6.47694 3.2673 6.37913 4.31693 6.91548 5.78888C7.26605 5.86564 7.63181 5.913 7.98244 5.98238C7.22548 4.56265 7.20314 3.20837 7.31668 1.78314Z" fill="#D60000" stroke="#67211F" stroke-width="0.0365466"/>
<path d="M6.88266 1.75596L6.69598 1.73963L6.65616 2.01986L6.88266 1.75596Z" fill="#398F00" stroke="#67211F" stroke-width="0.00738345"/>
<path d="M6.57131 2.80373L7.28843 1.98279L7.29751 1.79828L6.88685 1.75793L6.66035 2.02184L6.57131 2.80373Z" fill="#FF7F00" stroke="#67211F" stroke-width="0.00738345"/>
<path d="M7.03947 2.26133C7.03947 2.26133 6.81504 2.0035 6.73594 1.93393L6.66044 2.0219L6.57894 2.79646C6.68967 2.66695 7.03947 2.26133 7.03947 2.26133Z" fill="#D60000" stroke="#67211F" stroke-width="0.00738345"/>
<path d="M7.2505 2.87501C7.25405 2.55642 7.26321 2.35891 7.2882 1.98196L6.57862 2.79556C6.55076 3.12045 6.54323 3.29974 6.53409 3.61472L7.2505 2.87501Z" fill="#007FFF" stroke="#67211F" stroke-width="0.00590676"/>
<path d="M7.07668 3.04867L6.72922 2.61753L6.57822 2.79347C6.55592 3.11408 6.54501 3.292 6.53369 3.61264L7.07668 3.04867Z" fill="#398F00" stroke="#67211F" stroke-width="0.00590676"/>
<path d="M7.09869 3.79654L6.75857 3.38023L6.53233 3.61461C6.5369 3.94689 6.55802 4.09474 6.57808 4.36809L7.09869 3.79654Z" fill="#D60000" stroke="#67211F" stroke-width="0.00590676"/>
<path d="M7.06251 4.63783L6.72245 4.21414L6.57912 4.36799C6.63593 4.7081 6.6501 4.79682 6.70769 5.04833L7.06251 4.63783Z" fill="#007FFF" stroke="#67211F" stroke-width="0.00590676"/>
<path d="M7.14398 5.3404L6.81133 4.92415L6.70561 5.04879C6.78504 5.36693 6.79257 5.35961 6.86517 5.60387L7.14398 5.3404Z" fill="#FF7F00" stroke="#67211F" stroke-width="0.00590676"/>
<path d="M7.32348 5.85299L7.02047 5.46652L6.86979 5.60554C6.89169 5.66479 6.92094 5.73887 6.93556 5.77591L7.32348 5.85299Z" fill="#007FFF" stroke="#67211F" stroke-width="0.00590676"/>
<path d="M7.28157 3.59733C7.25715 3.34893 7.24845 3.19574 7.25053 2.87351L6.76036 3.37886C6.98221 3.64651 6.9379 3.58708 7.10048 3.79517L7.28157 3.59733Z" fill="#FF7F00" stroke="#67211F" stroke-width="0.00590676"/>
<path d="M7.36145 4.2864C7.33356 4.05728 7.29723 3.93884 7.27771 3.60643L6.71939 4.21458C6.93568 4.49831 6.89274 4.43464 7.05951 4.63082L7.36145 4.2864Z" fill="#398F00" stroke="#67211F" stroke-width="0.00590676"/>
<path d="M7.52853 4.94517C7.4634 4.70098 7.42695 4.59731 7.3624 4.28667L6.81129 4.92441C6.98123 5.14733 6.98123 5.14733 7.15135 5.3481L7.52853 4.94517Z" fill="#D60000" stroke="#67211F" stroke-width="0.00590676"/>
<path d="M7.72758 5.49994C7.55758 5.2844 7.57974 5.31412 7.4024 5.08375L7.01794 5.46447C7.18788 5.68739 7.15831 5.65023 7.31349 5.85088L7.72758 5.49994Z" fill="#398F00" stroke="#67211F" stroke-width="0.00590676"/>
<path d="M7.52904 4.94436L7.40078 5.08357L7.72596 5.49976L7.73343 5.49982L7.52904 4.94436Z" fill="#007FFF" stroke="#67211F" stroke-width="0.00590676"/>
<path d="M7.31412 3.94633L7.27966 3.61379L7.23444 3.65771L7.16654 3.73098L7.31412 3.94633Z" fill="#007FFF" stroke="#67211F" stroke-width="0.00590676"/>
<path d="M7.51855 5.68329L7.73694 5.49315C7.81453 5.683 7.86237 5.78437 7.95705 5.96014L7.68842 5.91359L7.51855 5.68329Z" fill="#FF7F00" stroke="#67211F" stroke-width="0.00443007"/>
<g filter="url(#filter0_d_1193_757)">
<path d="M8.45144 2.85594L8.5733 2.66879C8.5733 2.66879 8.70571 3.21768 8.61327 3.56881C8.53977 3.84801 8.2688 4.21234 8.2688 4.21234C8.14477 4.52691 8.15271 4.69944 8.21994 5.00461L7.97262 5.2935C7.97262 5.2935 7.89615 4.89349 7.77259 4.69732C7.59332 4.4127 7.29754 4.4901 7.11513 4.23993C6.84506 3.86953 6.98509 3.08752 6.98509 3.08752L7.20423 3.27601C7.20423 3.27601 7.33704 3.08131 7.46683 2.80188C7.51331 2.70181 7.55941 2.59087 7.59887 2.47412C7.65921 2.29565 7.72639 2.00865 7.72639 2.00865L7.85307 2.26622L7.95496 2.12927C7.95496 2.12927 7.96384 2.32669 8.00144 2.43709C8.08772 2.69045 8.18682 2.78269 8.45144 2.85594Z" fill="#939297"/>
<path d="M8.45144 2.85594C8.49903 2.78285 8.5733 2.66879 8.5733 2.66879C8.5733 2.66879 8.70571 3.21768 8.61327 3.56881C8.53977 3.84801 8.2688 4.21234 8.2688 4.21234C8.14477 4.52691 8.15271 4.69944 8.21994 5.00461L7.97262 5.2935C7.97262 5.2935 7.89615 4.89349 7.77259 4.69732C7.59332 4.4127 7.29754 4.4901 7.11513 4.23993C6.84506 3.86953 6.98509 3.08752 6.98509 3.08752L7.20423 3.27601M8.45144 2.85594C8.18682 2.78269 8.08772 2.69045 8.00144 2.43709C7.96384 2.32669 7.95496 2.12927 7.95496 2.12927L7.85307 2.26622M8.45144 2.85594C8.44419 2.88242 8.23134 3.33925 8.23134 3.33925C8.23134 3.33925 8.06491 3.02265 7.99007 2.80795M7.20423 3.27601C7.3296 3.41926 7.34847 3.51288 7.38399 3.67886L7.5467 3.08493L7.79496 3.44955M7.20423 3.27601C7.20423 3.27601 7.33704 3.08131 7.46683 2.80188C7.51331 2.70181 7.55941 2.59087 7.59887 2.47412C7.65921 2.29565 7.72639 2.00865 7.72639 2.00865L7.85307 2.26622M7.85307 2.26622C7.85307 2.26622 7.91811 2.60151 7.99007 2.80795M7.99007 2.80795L7.83832 2.65584L7.79496 3.44955M7.79496 3.44955L7.77259 3.84177" stroke="#F8F7FC" stroke-width="0.0365466"/>
</g>
<defs>
<filter id="filter0_d_1193_757" x="6.93048" y="1.95459" width="1.8609" height="3.49187" filterUnits="userSpaceOnUse" color-interpolation-filters="sRGB">
<feFlood flood-opacity="0" result="BackgroundImageFix"/>
<feColorMatrix in="SourceAlpha" type="matrix" values="0 0 0 0 0 0 0 0 0 0 0 0 0 0 0 0 0 0 127 0" result="hardAlpha"/>
<feOffset dx="0.0738346" dy="0.0590676"/>
<feGaussianBlur stdDeviation="0.0265804"/>
<feComposite in2="hardAlpha" operator="out"/>
<feColorMatrix type="matrix" values="0 0 0 0 0 0 0 0 0 0 0 0 0 0 0 0 0 0 0.25 0"/>
<feBlend mode="normal" in2="BackgroundImageFix" result="effect1_dropShadow_1193_757"/>
<feBlend mode="normal" in="SourceGraphic" in2="effect1_dropShadow_1193_757" result="shape"/>
</filter>
<radialGradient id="paint0_radial_1193_757" cx="0" cy="0" r="1" gradientUnits="userSpaceOnUse" gradientTransform="translate(9.15776 9.81788) scale(7.02938 7.31736)">
<stop offset="0.5" stop-color="#FDE030"/>
<stop offset="0.92" stop-color="#F7C02B"/>
<stop offset="1" stop-color="#F4A223"/>
</radialGradient>
</defs>
</svg>
