<svg width="18" height="18" viewBox="0 0 18 18" fill="none" xmlns="http://www.w3.org/2000/svg">
<path d="M9.34904 16.6247C5.81779 16.6247 2.00809 14.4098 2.00809 9.54962C2.00809 4.68942 5.81779 2.47449 9.34904 2.47449C11.3108 2.47449 13.1208 3.11998 14.4624 4.29706C15.9179 5.58805 16.69 7.41063 16.69 9.54962C16.69 11.6886 15.9179 13.4985 14.4624 14.7895C13.1208 15.9666 11.2982 16.6247 9.34904 16.6247Z" fill="url(#paint0_radial_1193_404)"/>
<path d="M15.4117 5.34418C16.0863 6.43266 16.4382 7.72871 16.4382 9.17032C16.4382 11.3093 15.6661 13.1192 14.2106 14.4102C12.8689 15.5873 11.0464 16.2455 9.0972 16.2455C6.81138 16.2455 4.40912 15.3152 2.99915 13.342C4.36102 15.5772 6.92149 16.6252 9.35034 16.6252C11.2995 16.6252 13.1221 15.967 14.4637 14.7899C15.9192 13.4989 16.6913 11.689 16.6913 9.55002C16.6913 7.93755 16.2521 6.5048 15.4117 5.34418Z" fill="#EB8F00"/>
<path d="M4.86773 13.1303C3.93745 13.5898 3.10843 13.5176 3.10843 13.5176C3.36789 13.9935 3.62483 14.2226 3.87923 14.4745C3.87923 14.4745 4.3488 14.5162 4.92089 14.2669C5.49297 14.0176 5.798 12.6709 4.86773 13.1303Z" fill="#EEEEEE"/>
<path d="M4.90638 10.3518C3.16606 10.2341 2.01809 9.16211 2.01809 9.16211C1.95987 9.79115 2.0472 10.3898 2.0472 10.3898C2.0472 10.3898 2.87116 11.4163 4.87347 11.5289C6.39862 11.615 6.35938 10.4506 4.90638 10.3518Z" fill="#EEEEEE"/>
<path d="M13.8207 13.1304C14.7509 13.5898 15.58 13.5177 15.58 13.5177C15.3205 13.9936 15.0636 14.2227 14.8092 14.4745C14.8092 14.4745 14.3396 14.5163 13.7675 14.267C13.1954 14.0164 12.8904 12.6709 13.8207 13.1304Z" fill="#EEEEEE"/>
<path d="M13.7818 10.3518C15.5221 10.2341 16.6701 9.16211 16.6701 9.16211C16.7283 9.79115 16.6409 10.3898 16.6409 10.3898C16.6409 10.3898 15.817 11.4163 13.8147 11.5289C12.2895 11.615 12.3275 10.4506 13.7818 10.3518Z" fill="#EEEEEE"/>
<path d="M14.0808 13.8501V12.487V11.6124L14.0795 10.5303C14.0707 10.31 13.9327 10.2366 13.6505 10.1341C13.0176 9.90375 11.1014 9.33293 9.40031 9.33167H9.39905H9.39778C7.6967 9.33167 5.7792 9.90375 5.14762 10.1341C4.86537 10.2366 4.72868 10.31 4.71855 10.5303L4.71729 11.6124V12.487V13.8501C4.71729 13.9197 4.69704 14.2678 5.11724 14.4703C5.58428 14.6956 7.49166 15.4006 9.39905 15.4006C11.3064 15.4006 13.2151 14.6956 13.6808 14.4703C14.1011 14.2678 14.0808 13.9197 14.0808 13.8501Z" fill="#F5F5F5"/>
<path d="M5.14682 10.1316C5.05063 10.1481 4.96456 10.1937 4.90887 10.2557C4.85571 10.3202 4.8266 10.3962 4.82154 10.4797C4.81394 10.5594 4.8228 10.6569 4.82787 10.7506L4.84432 11.0366C4.86963 11.4188 4.88356 11.8036 4.88862 12.1884C4.89242 12.5731 4.88735 12.9579 4.8633 13.3439C4.85698 13.4414 4.85318 13.5351 4.84305 13.6363C4.83166 13.7325 4.8228 13.8224 4.8228 13.9122C4.82027 14.0907 4.84812 14.2767 5.0038 14.4046C4.9076 14.3805 4.81901 14.3109 4.75952 14.2236C4.70003 14.1362 4.66333 14.035 4.63801 13.9337C4.61397 13.8325 4.60384 13.73 4.59371 13.6338C4.58232 13.5414 4.576 13.4439 4.56587 13.3477C4.52916 12.963 4.51145 12.5782 4.50765 12.1922C4.50385 11.8061 4.51271 11.4201 4.54815 11.0328C4.56714 10.8366 4.57979 10.6506 4.64054 10.4379C4.67725 10.3342 4.74686 10.2316 4.84305 10.1747C4.94178 10.1177 5.05189 10.1063 5.14682 10.1316Z" fill="#808080"/>
<path d="M13.6279 10.1317C13.7228 10.1064 13.8329 10.1178 13.9304 10.1735C14.0266 10.2304 14.0962 10.3329 14.1329 10.4367C14.1936 10.6494 14.2063 10.8354 14.2253 11.0316C14.2607 11.4189 14.2696 11.8049 14.2658 12.1909C14.262 12.577 14.2443 12.9617 14.2076 13.3465C14.1987 13.4414 14.1911 13.5402 14.1797 13.6326C14.1696 13.7287 14.1595 13.8325 14.1354 13.9325C14.1101 14.0325 14.0734 14.1338 14.0139 14.2224C13.9544 14.3097 13.8658 14.3793 13.7696 14.4034C13.9253 14.2755 13.9531 14.0895 13.9506 13.911C13.9506 13.8199 13.9418 13.7313 13.9304 13.6351C13.9202 13.5351 13.9164 13.4402 13.9101 13.3427C13.8861 12.9567 13.881 12.5719 13.8848 12.1872C13.8899 11.8024 13.9038 11.4189 13.9291 11.0354L13.9456 10.7493C13.9506 10.6557 13.9595 10.5582 13.9519 10.4785C13.9468 10.395 13.919 10.319 13.8646 10.2545C13.8101 10.1937 13.7253 10.1481 13.6279 10.1317Z" fill="#808080"/>
<path d="M6.95423 6.89685C6.42391 6.89685 5.94168 7.3449 5.94168 8.08912C5.94168 8.83334 6.42391 9.28139 6.95423 9.28139C7.48455 9.28139 7.96677 8.83334 7.96677 8.08912C7.96677 7.3449 7.48455 6.89685 6.95423 6.89685Z" fill="#422B0D"/>
<path d="M6.9053 7.39437C6.77494 7.30324 6.57876 7.33236 6.45219 7.51461C6.32562 7.69814 6.36739 7.89052 6.49775 7.98165C6.62812 8.07278 6.8243 8.04367 6.95087 7.86141C7.07744 7.67789 7.03567 7.4855 6.9053 7.39437Z" fill="#896024"/>
<path d="M11.8074 6.89661C11.2771 6.89661 10.7949 7.34466 10.7949 8.08887C10.7949 8.83309 11.2771 9.28114 11.8074 9.28114C12.3377 9.28114 12.82 8.83309 12.82 8.08887C12.82 7.34466 12.3377 6.89661 11.8074 6.89661Z" fill="#422B0D"/>
<path d="M11.7585 7.39425C11.6281 7.30312 11.4319 7.33223 11.3054 7.51449C11.1788 7.69801 11.2206 7.8904 11.3509 7.98153C11.4813 8.07265 11.6775 8.04354 11.804 7.86129C11.9319 7.67776 11.8901 7.48538 11.7585 7.39425Z" fill="#896024"/>
<path d="M4.99495 1.30065H5.55447C5.55447 1.30065 7.85271 0.986579 9.40688 1.00045C10.8884 1.01367 13.0667 1.30065 13.0667 1.30065H13.9472C14.8436 2.78732 15.4879 4.31402 15.7832 5.88229C12.8873 5.05483 9.40688 6.80377 9.40688 6.80377C9.40688 6.80377 5.87421 5.08536 3.05847 5.70298C3.50918 4.09758 4.06465 2.64072 4.99495 1.30065Z" fill="#7F2125"/>
<path d="M4.99495 1.30065H5.55447C5.55447 1.30065 7.85271 0.986579 9.40688 1.00045C10.8884 1.01367 13.0667 1.30065 13.0667 1.30065H13.9472M4.99495 1.30065C4.06465 2.64072 3.50917 4.09758 3.05847 5.70298C5.87421 5.08536 9.40688 6.80377 9.40688 6.80377C9.40688 6.80377 12.8873 5.05483 15.7832 5.88229C15.4879 4.31402 14.8436 2.78732 13.9472 1.30065M4.99495 1.30065C5.72274 2.09453 6.75958 1.59582 9.40688 2.20676C11.8037 1.61429 12.9578 2.13384 13.9472 1.30065" stroke="#67211F" stroke-width="0.0663296"/>
<path d="M9.42593 6.77802L9.43443 2.21091C11.2365 1.65467 12.6046 2.08894 13.9565 1.32782C14.5454 2.23721 15.5194 3.93998 15.7926 5.8694C13.4523 5.26416 10.9777 6.06314 9.42593 6.77802Z" fill="#67211F" stroke="#67211F" stroke-width="0.0416294"/>
<path d="M6.33355 1.81554C5.92439 1.54026 5.54051 1.68944 5.55735 1.29407L5.03033 1.31089C5.44111 1.75376 6.04843 1.7526 6.33355 1.81554Z" fill="#67211F"/>
<path d="M12.4261 1.76505C12.8353 1.49256 13.1628 1.6686 13.1459 1.27722H13.9535C13.5427 1.71562 12.7112 1.70275 12.4261 1.76505Z" fill="#67211F" fill-opacity="0.56"/>
<path d="M9.48649 1.34443L9.3946 2.15624L9.56336 2.14454L9.48649 1.34443Z" fill="#67211F" stroke="#67211F" stroke-width="0.100924"/>
<path d="M7.27782 1.90802C6.98034 1.89132 6.80123 1.87461 6.55531 1.85791C6.40232 3.62408 6.3436 4.06142 6.66235 5.81077C7.09466 5.92446 7.42158 6.03172 7.79477 6.14719C6.91966 4.54837 7.16284 3.52128 7.27782 1.90802Z" fill="#D60000" stroke="#67211F" stroke-width="0.0416294"/>
<path d="M6.79038 1.88291L6.57787 1.86621L6.53537 2.18358L6.79038 1.88291Z" fill="#398F00" stroke="#67211F" stroke-width="0.00841034"/>
<path d="M6.44232 3.06908L7.24984 2.13367L7.25834 1.92488L6.79083 1.88312L6.53582 2.18378L6.44232 3.06908Z" fill="#FF7F00" stroke="#67211F" stroke-width="0.00841034"/>
<path d="M6.96858 2.45104C6.96858 2.45104 6.71075 2.16151 6.62008 2.08356L6.53507 2.18378L6.45007 3.06072C6.57474 2.91317 6.96858 2.45104 6.96858 2.45104Z" fill="#D60000" stroke="#67211F" stroke-width="0.00841034"/>
<path d="M7.21572 3.1441C7.21659 2.78369 7.22505 2.56018 7.24972 2.13354L6.45071 3.06059C6.42225 3.42837 6.41547 3.63124 6.4082 3.98763L7.21572 3.1441Z" fill="#007FFF" stroke="#67211F" stroke-width="0.00672827"/>
<path d="M7.02022 3.3447L6.62071 2.86029L6.4507 3.06073C6.42853 3.42362 6.41789 3.62498 6.4082 3.98779L7.02022 3.3447Z" fill="#398F00" stroke="#67211F" stroke-width="0.00672827"/>
<path d="M7.05422 4.18804L6.66321 3.72034L6.4082 3.9876C6.4167 4.36343 6.4422 4.53047 6.46774 4.83948L7.05422 4.18804Z" fill="#D60000" stroke="#67211F" stroke-width="0.00672827"/>
<path d="M7.01964 5.14024L6.62864 4.66418L6.46713 4.83957C6.53513 5.22376 6.55213 5.32398 6.62014 5.60794L7.01964 5.14024Z" fill="#007FFF" stroke="#67211F" stroke-width="0.00672827"/>
<path d="M7.12215 5.93365L6.73964 5.46594L6.62064 5.60792L6.67436 5.79404L7.12215 5.93365Z" fill="#FF7F00" stroke="#67211F" stroke-width="0.00672827"/>
<path d="M7.25752 3.96252C7.22727 3.68176 7.21586 3.50857 7.21502 3.14404L6.66251 3.72032C6.91751 4.02099 6.86651 3.95417 7.05351 4.18802L7.25752 3.96252Z" fill="#FF7F00" stroke="#67211F" stroke-width="0.00672827"/>
<path d="M7.3594 4.73938C7.3254 4.48047 7.2829 4.34684 7.2574 3.97101L6.62839 4.66421C6.87723 4.98312 6.82775 4.9115 7.0194 5.13184L7.3594 4.73938Z" fill="#398F00" stroke="#67211F" stroke-width="0.00672827"/>
<path d="M7.55607 5.48276C7.47957 5.20714 7.43707 5.09022 7.36056 4.73944L6.74005 5.46605C6.93556 5.71661 6.93556 5.71661 7.13106 5.94211L7.55607 5.48276Z" fill="#D60000" stroke="#67211F" stroke-width="0.00672827"/>
<path d="M7.79788 6.13047C7.60238 5.88827 7.61466 5.90026 7.41065 5.64136L7.11844 5.92862C7.47702 6.02324 7.47074 6.02114 7.47074 6.02114L7.79788 6.13047Z" fill="#398F00" stroke="#67211F" stroke-width="0.00672827"/>
<path d="M7.55603 5.4826L7.41153 5.64129L7.78554 6.10899H7.79404L7.55603 5.4826Z" fill="#007FFF" stroke="#67211F" stroke-width="0.00672827"/>
<path d="M7.30086 4.3552L7.25836 3.97937L7.20736 4.02948L7.13086 4.113L7.30086 4.3552Z" fill="#007FFF" stroke="#67211F" stroke-width="0.00672827"/>
<g filter="url(#filter0_d_1193_404)">
<path d="M8.38072 2.93834L8.51794 2.72516C8.51794 2.72516 8.66703 3.35039 8.56294 3.75036C8.48018 4.06839 8.17506 4.48339 8.17506 4.48339C8.0354 4.84171 8.04433 5.03824 8.12003 5.38585L7.84154 5.71492C7.84154 5.71492 7.75544 5.25928 7.61631 5.03582C7.41445 4.71161 7.08138 4.79978 6.87599 4.51482C6.57187 4.0929 6.72955 3.20213 6.72955 3.20213L6.97631 3.41684C6.97631 3.41684 7.12586 3.19505 7.27201 2.87676C7.32435 2.76277 7.37625 2.63641 7.4207 2.50342C7.48863 2.30013 7.56428 1.97322 7.56428 1.97322L7.70693 2.26661L7.82166 2.1106C7.82166 2.1106 7.83166 2.33548 7.874 2.46123C7.97116 2.74984 8.08274 2.8549 8.38072 2.93834Z" fill="url(#paint1_linear_1193_404)"/>
<path d="M8.38072 2.93834C8.43431 2.85509 8.51794 2.72516 8.51794 2.72516C8.51794 2.72516 8.66703 3.35039 8.56294 3.75036C8.48018 4.06839 8.17506 4.48339 8.17506 4.48339C8.0354 4.84171 8.04433 5.03824 8.12003 5.38585L7.84154 5.71492C7.84154 5.71492 7.75544 5.25928 7.61631 5.03582C7.41445 4.71161 7.08138 4.79978 6.87599 4.51482C6.57187 4.0929 6.72955 3.20213 6.72955 3.20213L6.97631 3.41684M8.38072 2.93834C8.08274 2.8549 7.97116 2.74984 7.874 2.46123C7.83166 2.33548 7.82166 2.1106 7.82166 2.1106L7.70693 2.26661M8.38072 2.93834C8.37255 2.96851 8.13288 3.48887 8.13288 3.48887C8.13288 3.48887 7.94546 3.12823 7.86119 2.88367M6.97631 3.41684C7.11748 3.58001 7.13873 3.68665 7.17873 3.87571L7.36195 3.19918L7.64149 3.61452L7.69032 2.71041L7.86119 2.88367M6.97631 3.41684C6.97631 3.41684 7.12586 3.19505 7.27201 2.87676C7.32435 2.76277 7.37625 2.63641 7.4207 2.50342C7.48863 2.30013 7.56428 1.97322 7.56428 1.97322L7.70693 2.26661M7.70693 2.26661C7.70693 2.26661 7.78016 2.64853 7.86119 2.88367" stroke="#F8F7FC" stroke-width="0.0416294"/>
</g>
<defs>
<filter id="filter0_d_1193_404" x="6.66785" y="1.91107" width="2.09751" height="3.97848" filterUnits="userSpaceOnUse" color-interpolation-filters="sRGB">
<feFlood flood-opacity="0" result="BackgroundImageFix"/>
<feColorMatrix in="SourceAlpha" type="matrix" values="0 0 0 0 0 0 0 0 0 0 0 0 0 0 0 0 0 0 127 0" result="hardAlpha"/>
<feOffset dx="0.0841034" dy="0.0672827"/>
<feGaussianBlur stdDeviation="0.0302772"/>
<feComposite in2="hardAlpha" operator="out"/>
<feColorMatrix type="matrix" values="0 0 0 0 0 0 0 0 0 0 0 0 0 0 0 0 0 0 0.25 0"/>
<feBlend mode="normal" in2="BackgroundImageFix" result="effect1_dropShadow_1193_404"/>
<feBlend mode="normal" in="SourceGraphic" in2="effect1_dropShadow_1193_404" result="shape"/>
</filter>
<radialGradient id="paint0_radial_1193_404" cx="0" cy="0" r="1" gradientUnits="userSpaceOnUse" gradientTransform="translate(9.34904 9.54964) scale(7.20929 7.20926)">
<stop offset="0.5" stop-color="#FDE030"/>
<stop offset="0.9188" stop-color="#F7C02B"/>
<stop offset="1" stop-color="#F4A223"/>
</radialGradient>
<linearGradient id="paint1_linear_1193_404" x1="8.02055" y1="2.09418" x2="7.11191" y2="5.52148" gradientUnits="userSpaceOnUse">
<stop stop-color="#C9C9C9"/>
<stop offset="1" stop-color="#939297"/>
</linearGradient>
</defs>
</svg>
