<svg width="18" height="18" viewBox="0 0 18 18" fill="none" xmlns="http://www.w3.org/2000/svg">
<g clip-path="url(#clip0_1206_12687)">
<path d="M8.69193 16.5361C5.20538 16.5361 1.44391 14.3492 1.44391 9.5505C1.44391 4.75183 5.20538 2.56494 8.69193 2.56494C10.6289 2.56494 12.4159 3.20226 13.7405 4.36444C15.1777 5.63909 15.9399 7.43859 15.9399 9.5505C15.9399 11.6624 15.1777 13.4494 13.7405 14.7241C12.4159 15.8862 10.6164 16.5361 8.69193 16.5361Z" fill="url(#paint0_radial_1206_12687)"/>
<path d="M8.69235 16.5353C5.20581 16.5353 1.44434 14.3484 1.44434 9.54977C1.44434 4.7511 5.20581 2.56421 8.69235 2.56421C10.6293 2.56421 12.4163 3.20153 13.741 4.36371C15.1781 5.63835 15.9404 7.43785 15.9404 9.54977C15.9404 11.6617 15.1781 13.4487 13.741 14.7233C12.4163 15.8855 10.6168 16.5353 8.69235 16.5353Z" fill="url(#paint1_radial_1206_12687)"/>
<path d="M14.6772 5.39771C15.3433 6.47241 15.6907 7.75205 15.6907 9.17541C15.6907 11.2873 14.9284 13.0743 13.4913 14.349C12.1666 15.5111 10.3671 16.161 8.44264 16.161C6.18575 16.161 3.8189 15.2425 2.42178 13.2943C3.76642 15.5012 6.29572 16.5359 8.69257 16.5359C10.617 16.5359 12.4166 15.886 13.7412 14.7239C15.1783 13.4492 15.9406 11.6622 15.9406 9.5503C15.9406 7.95824 15.507 6.54364 14.6772 5.39771Z" fill="#018CE3"/>
<path d="M6.24262 7.43127C5.71901 7.43127 5.24289 7.87365 5.24289 8.60845C5.24289 9.34324 5.71901 9.78437 6.24262 9.78437C6.76747 9.78437 7.24234 9.34199 7.24234 8.60845C7.24234 7.8749 6.77247 7.43127 6.24262 7.43127Z" fill="#422B0D"/>
<path d="M6.20092 7.92235C6.02347 7.83737 5.80978 7.91235 5.72355 8.0898C5.65732 8.22851 5.68731 8.39472 5.79853 8.50219C5.97598 8.58717 6.18967 8.51219 6.2759 8.33474C6.34213 8.19602 6.31214 8.02982 6.20092 7.92235Z" fill="#896024"/>
<path d="M11.0404 7.43127C10.5168 7.43127 10.0406 7.87365 10.0406 8.60845C10.0406 9.34324 10.5168 9.78437 11.0404 9.78437C11.564 9.78437 12.0401 9.34199 12.0401 8.60845C12.0401 7.8749 11.564 7.43127 11.0404 7.43127Z" fill="#422B0D"/>
<path d="M10.9918 7.92235C10.8143 7.83737 10.6006 7.91235 10.5144 8.0898C10.4481 8.22851 10.4781 8.39472 10.5894 8.50219C10.7668 8.58717 10.9805 8.51219 11.0667 8.33474C11.133 8.19602 11.103 8.02982 10.9918 7.92235Z" fill="#896024"/>
<path d="M5.66441 10.9501H11.924C12.7137 10.9501 13.3536 11.5899 13.3536 12.3797V12.3809C13.3536 13.1707 12.7137 13.8105 11.924 13.8105H5.66441C4.87463 13.8105 4.2348 13.1707 4.2348 12.3809V12.3797C4.2348 11.5899 4.87463 10.9501 5.66441 10.9501Z" fill="white"/>
<path d="M13.3328 12.1465H4.2553C4.22406 12.3114 4.22406 12.4814 4.2553 12.6463H13.3278C13.3591 12.4814 13.3591 12.3114 13.3278 12.1465H13.3328Z" fill="#B3B3B3"/>
<path d="M11.9228 10.9501H11.8541V13.8118H11.9228C12.034 13.8118 12.1452 13.798 12.254 13.7718V10.9901C12.1452 10.9638 12.034 10.9501 11.9228 10.9501Z" fill="#B3B3B3"/>
<path d="M8.96447 10.9501H8.56458V13.8105H8.96447V10.9501Z" fill="#B3B3B3"/>
<path d="M5.66455 10.9501C5.53208 10.9501 5.39962 10.9688 5.27216 11.0063V13.7555C5.39962 13.793 5.53208 13.8118 5.66455 13.8118H5.67205V10.9501H5.66455Z" fill="#B3B3B3"/>
<path d="M4.60983 9.97713C4.59483 9.91965 4.53485 9.88466 4.47737 9.89966H4.47612L4.20494 9.97214C4.13746 9.98713 4.06623 9.97713 4.00375 9.94589L3.52888 9.67222C3.49888 9.66097 3.48264 9.62723 3.49389 9.59724C3.50013 9.58099 3.51263 9.5685 3.52888 9.56225L4.00375 9.28733C4.06623 9.25608 4.13621 9.24734 4.20494 9.26108L4.47612 9.33481C4.53485 9.35356 4.59733 9.32107 4.61608 9.26233C4.61608 9.26108 4.61733 9.25858 4.61733 9.25733L4.65982 9.09988C4.67606 9.04114 4.64107 8.98116 4.58234 8.96492L4.41738 8.92118C4.3599 8.90618 4.32491 8.8462 4.3399 8.78871V8.78746L4.38364 8.62376C4.39864 8.56503 4.3649 8.50504 4.30616 8.4888L4.14121 8.44006C4.08248 8.42382 4.02249 8.45881 4.00625 8.51754L3.93502 8.78996C3.91377 8.8562 3.86878 8.91368 3.81005 8.95117L3.33518 9.22484C3.28394 9.25608 3.24146 9.22484 3.24146 9.17111V8.63001C3.2452 8.56003 3.27145 8.49505 3.31768 8.44256L3.51763 8.24387C3.56012 8.20138 3.56012 8.1314 3.51763 8.08891L3.40016 7.97144C3.35767 7.92895 3.28894 7.92895 3.24645 7.97144L3.12149 8.09641C3.079 8.13889 3.00902 8.13889 2.96653 8.09641L2.84157 7.97144C2.79908 7.92895 2.73035 7.92895 2.68786 7.97144L2.57039 8.08766C2.5279 8.13015 2.5279 8.20013 2.57039 8.24262L2.78033 8.44006C2.82657 8.4913 2.85406 8.55753 2.85781 8.62751V9.17611C2.85781 9.23609 2.81532 9.26108 2.76284 9.23109L2.28922 8.95617C2.22923 8.91743 2.18549 8.8587 2.16425 8.79121L2.09052 8.52004C2.07552 8.46131 2.01679 8.42632 1.95806 8.44006L1.79935 8.48255C1.74062 8.49879 1.70563 8.55878 1.72187 8.61751L1.76561 8.78247C1.78061 8.8412 1.74561 8.89993 1.68813 8.91618L1.52318 8.95992C1.46444 8.97616 1.42945 9.03615 1.44445 9.09488L1.49318 9.25858C1.50943 9.31232 1.56316 9.34481 1.61815 9.33481L1.89182 9.26108C1.96056 9.24734 2.03054 9.25733 2.09302 9.28858L2.57414 9.56475C2.60413 9.576 2.62038 9.60974 2.60913 9.63973C2.60288 9.65597 2.59038 9.66847 2.57414 9.67472L2.09927 9.94964C2.03679 9.98088 1.9668 9.98963 1.89807 9.97588L1.6244 9.90215C1.56816 9.88841 1.51068 9.9209 1.49318 9.97713L1.4507 10.1358C1.43445 10.1946 1.46944 10.2546 1.52817 10.2708L1.68938 10.3145C1.74686 10.3283 1.78185 10.387 1.76811 10.4445C1.76811 10.4458 1.76811 10.447 1.76686 10.4483L1.72312 10.6132C1.70688 10.6707 1.74187 10.7307 1.79935 10.7469H1.8006L1.95931 10.7894C2.01804 10.8044 2.07802 10.7707 2.09427 10.7119L2.1655 10.4395C2.18674 10.3733 2.23173 10.317 2.29047 10.2796L2.76409 10.0046C2.81657 9.97463 2.85906 10.0046 2.85906 10.0596V10.6082C2.85531 10.6782 2.82782 10.7432 2.78158 10.7957L2.58289 10.9944C2.5404 11.0368 2.5404 11.1068 2.58289 11.1493L2.70035 11.263C2.74284 11.3055 2.81157 11.3055 2.85406 11.263L2.97903 11.1381C3.02152 11.0956 3.0915 11.0956 3.13398 11.1381L3.25895 11.263C3.30144 11.3055 3.37017 11.3055 3.41266 11.263L3.53013 11.1456C3.57261 11.1031 3.57261 11.0331 3.53013 10.9906L3.33018 10.7919C3.28394 10.7394 3.2577 10.6744 3.25395 10.6045V10.0559C3.25395 9.99588 3.29644 9.97089 3.34768 10.0021L3.82255 10.2758C3.88128 10.3145 3.92627 10.372 3.94751 10.4395L4.01999 10.7107C4.03624 10.7694 4.09622 10.8044 4.15496 10.7882L4.31366 10.7457C4.37115 10.7319 4.40614 10.6732 4.39239 10.6157C4.39239 10.6145 4.39239 10.6132 4.39114 10.612L4.3474 10.447C4.33241 10.3933 4.3599 10.3358 4.41238 10.3145L4.57734 10.2708C4.63482 10.2571 4.66981 10.1983 4.65607 10.1408C4.65607 10.1396 4.65607 10.1383 4.65482 10.1371L4.60983 9.97713Z" fill="#B7E4FF"/>
<path d="M7.85135 16.2001C7.82885 16.1651 7.78137 16.1551 7.74638 16.1776L7.58517 16.2851C7.54393 16.3101 7.49519 16.3188 7.44771 16.3126L7.07281 16.2376C7.05032 16.2363 7.03282 16.2189 7.03407 16.1964C7.03407 16.1851 7.04032 16.1739 7.04907 16.1664L7.299 15.8827C7.33274 15.849 7.37648 15.8265 7.42396 15.8215L7.61766 15.809C7.6589 15.8065 7.69014 15.7727 7.68764 15.7315C7.68764 15.7302 7.68764 15.729 7.68764 15.729V15.6165C7.68514 15.5753 7.65015 15.5428 7.60891 15.5453H7.60766L7.4902 15.5528C7.44896 15.5553 7.41272 15.524 7.41022 15.4828L7.40272 15.3653C7.40022 15.3241 7.36398 15.2929 7.32274 15.2954H7.21027C7.16903 15.2979 7.13779 15.3341 7.14029 15.3753L7.15279 15.569C7.15404 15.6165 7.13779 15.664 7.1078 15.7015L6.85787 15.9852C6.84662 16.0039 6.82163 16.0102 6.80288 15.9989C6.79289 15.9927 6.78539 15.9827 6.78414 15.9702L6.65917 15.614C6.64668 15.5678 6.65043 15.519 6.66917 15.4753L6.7554 15.3016C6.77414 15.2641 6.75915 15.2191 6.72291 15.2004C6.72291 15.2004 6.72291 15.2004 6.72166 15.2004L6.61918 15.1491C6.58169 15.1317 6.53796 15.1466 6.51796 15.1829L6.46673 15.2879C6.44798 15.3253 6.40299 15.3403 6.36675 15.3216C6.36675 15.3216 6.36675 15.3216 6.3655 15.3216L6.26178 15.2704C6.22429 15.2516 6.1793 15.2666 6.16056 15.3029C6.16056 15.3029 6.16056 15.3029 6.16056 15.3041L6.10932 15.4053C6.09183 15.4428 6.10682 15.4878 6.14431 15.5065L6.31802 15.5928C6.35926 15.6165 6.39175 15.654 6.40924 15.699L6.53421 16.0564C6.54795 16.0964 6.52546 16.1214 6.48422 16.1126L6.10932 16.0377C6.06309 16.0252 6.02185 15.9964 5.99311 15.9577L5.88563 15.7965C5.86189 15.7627 5.8169 15.7527 5.78191 15.7752L5.68819 15.839C5.6532 15.8614 5.64445 15.9077 5.66694 15.9427L5.73193 16.0414C5.75442 16.0764 5.74567 16.1226 5.71068 16.1464L5.61321 16.2101C5.57822 16.2326 5.56822 16.2801 5.59072 16.3151L5.6532 16.41C5.67694 16.4438 5.72318 16.4525 5.75817 16.43L5.92188 16.3226C5.96311 16.2988 6.0106 16.2888 6.05809 16.2963L6.43299 16.3713C6.45548 16.3713 6.47297 16.3888 6.47297 16.4113C6.47297 16.4238 6.46673 16.435 6.45798 16.4425L6.20805 16.7262C6.17431 16.7599 6.13057 16.7812 6.08308 16.7874L5.88688 16.7999C5.84565 16.8024 5.8144 16.8387 5.8169 16.8799V16.9924C5.8194 17.0349 5.85564 17.0661 5.89813 17.0636L6.01435 17.0561C6.05559 17.0536 6.09183 17.0849 6.09558 17.1261L6.10308 17.2436C6.10557 17.2848 6.14182 17.316 6.18305 17.3135H6.29552C6.33676 17.311 6.36925 17.2761 6.36675 17.2348V17.2336L6.35301 17.0399C6.35301 16.9924 6.36925 16.9449 6.39799 16.9074L6.64793 16.6237C6.65917 16.605 6.68417 16.5987 6.70291 16.61C6.71291 16.6162 6.72041 16.6262 6.72166 16.6387L6.84662 16.9974C6.85912 17.0436 6.85537 17.0924 6.83662 17.1361L6.7504 17.3123C6.73165 17.3498 6.74665 17.3948 6.78289 17.4135C6.78289 17.4135 6.78289 17.4135 6.78414 17.4135L6.88536 17.4623C6.92285 17.4797 6.96659 17.4648 6.98658 17.4285L7.03782 17.3235C7.05656 17.2861 7.10155 17.2711 7.13779 17.2898C7.13779 17.2898 7.13779 17.2898 7.13904 17.2898L7.24401 17.341C7.28025 17.3598 7.32524 17.3448 7.34274 17.3085C7.34274 17.3085 7.34274 17.3073 7.34399 17.3073L7.39522 17.2061C7.41397 17.1686 7.39897 17.1236 7.36273 17.1049C7.36273 17.1049 7.36273 17.1049 7.36148 17.1049L7.18778 17.0186C7.14654 16.9949 7.11405 16.9574 7.09655 16.9137L6.97159 16.555C6.95909 16.5163 6.98159 16.49 7.02157 16.4988L7.39647 16.5738C7.44396 16.585 7.4852 16.6137 7.51269 16.6537L7.61516 16.8124C7.63766 16.8474 7.68514 16.8574 7.72013 16.8349L7.81386 16.7712C7.8476 16.7487 7.85885 16.7037 7.83635 16.67C7.83635 16.6687 7.8351 16.6687 7.8351 16.6675L7.77012 16.57C7.74763 16.535 7.75762 16.4888 7.79136 16.465L7.88884 16.4C7.92383 16.3776 7.93257 16.3313 7.91008 16.2963L7.85135 16.2001Z" fill="#B7E4FF"/>
<path d="M7.31874 10.9501H6.91885V13.8105H7.31874V10.9501Z" fill="#B3B3B3"/>
<path d="M10.6092 10.9501H10.2093V13.8105H10.6092V10.9501Z" fill="#B3B3B3"/>
<path d="M13.3541 12.3808C13.3179 11.9409 13.0805 11.5435 12.713 11.2998C12.5393 11.1848 12.3407 11.1136 12.1332 11.0911C11.9158 11.0799 11.6996 11.0799 11.4821 11.0911C11.0335 11.1086 10.5861 11.1124 10.1388 11.1224L8.79412 11.1323L7.45074 11.1224C7.00211 11.1124 6.55474 11.1086 6.10611 11.0911C5.88867 11.0799 5.67248 11.0799 5.45504 11.0911C5.24759 11.1124 5.0489 11.1848 4.87644 11.3011C4.5078 11.5435 4.27161 11.9409 4.23412 12.3808C4.19788 11.9084 4.39783 11.4485 4.76772 11.1523C4.95642 10.9999 5.17886 10.8962 5.4163 10.8487L5.50627 10.8312L5.5975 10.8237C5.65998 10.8237 5.71497 10.8162 5.7712 10.8149L6.10611 10.8037C6.55474 10.7862 7.00211 10.7824 7.45074 10.7724L8.79412 10.7625L10.1388 10.7737C10.5861 10.7837 11.0335 10.7874 11.4821 10.8049L11.8183 10.8149C11.8745 10.8149 11.9283 10.8149 11.992 10.8237L12.082 10.8324L12.1719 10.8499C12.4094 10.8962 12.6318 10.9999 12.8205 11.1523C13.1904 11.4485 13.3904 11.9084 13.3541 12.3808Z" fill="#018CE3"/>
<path d="M4.63121 1.27944H5.14848C5.14848 1.27944 7.27322 1.00385 8.71007 1.01602C10.0797 1.02762 12.0936 1.27944 12.0936 1.27944H12.9076C13.7364 2.58397 14.332 3.92363 14.6051 5.29976C11.9277 4.57368 8.71007 6.10835 8.71007 6.10835C8.71007 6.10835 5.44408 4.60046 2.84091 5.14242C3.25759 3.73371 3.77113 2.45534 4.63121 1.27944Z" fill="#7F2125"/>
<path d="M4.63121 1.27944H5.14848C5.14848 1.27944 7.27322 1.00385 8.71007 1.01602C10.0797 1.02762 12.0936 1.27944 12.0936 1.27944H12.9076M4.63121 1.27944C3.77113 2.45534 3.25759 3.73371 2.84091 5.14242C5.44408 4.60046 8.71007 6.10835 8.71007 6.10835C8.71007 6.10835 11.9277 4.57368 14.6051 5.29976C14.332 3.92363 13.7364 2.58397 12.9076 1.27944M4.63121 1.27944C5.30405 1.97606 6.26262 1.53845 8.71007 2.07453C10.926 1.55465 11.9929 2.01056 12.9076 1.27944" stroke="#67211F" stroke-width="0.0582032"/>
<path d="M8.72867 6.08606L8.73653 2.07848C10.4025 1.5904 11.6674 1.97146 12.9172 1.30359C13.4616 2.10157 14.3621 3.59572 14.6147 5.28876C12.451 4.75766 10.1633 5.45876 8.72867 6.08606Z" fill="#67211F" stroke="#67211F" stroke-width="0.0365292"/>
<path d="M5.86783 1.73139C5.48956 1.48984 5.13466 1.62073 5.15022 1.2738L4.66299 1.28856C5.04276 1.67718 5.60423 1.67616 5.86783 1.73139Z" fill="#67211F"/>
<path d="M11.5001 1.68722C11.8783 1.44811 12.1811 1.60258 12.1656 1.25916H12.9121C12.5323 1.64384 11.7637 1.63255 11.5001 1.68722Z" fill="#67211F" fill-opacity="0.56"/>
<path d="M8.78469 1.31834L8.69973 2.03069L8.85575 2.02042L8.78469 1.31834Z" fill="#67211F" stroke="#67211F" stroke-width="0.0885594"/>
<path d="M6.74106 1.81253C6.46603 1.79787 6.30045 1.78321 6.07309 1.76855C5.93165 3.31834 5.87736 3.7021 6.17205 5.23713C6.57173 5.33689 6.87396 5.43101 7.21898 5.53233C6.40993 4.1294 6.63476 3.22813 6.74106 1.81253Z" fill="#D60000" stroke="#67211F" stroke-width="0.0365292"/>
<path d="M6.29531 1.79087L6.09596 1.776L6.05609 2.05857L6.29531 1.79087Z" fill="#398F00" stroke="#67211F" stroke-width="0.00737995"/>
<path d="M5.96835 2.83192L6.71491 2.01112L6.72277 1.8279L6.29055 1.79126L6.0548 2.05509L5.96835 2.83192Z" fill="#FF7F00" stroke="#67211F" stroke-width="0.00737995"/>
<path d="M6.4555 2.28901C6.4555 2.28901 6.21713 2.03495 6.1333 1.96655L6.05472 2.0545L5.97614 2.824C6.09139 2.69453 6.4555 2.28901 6.4555 2.28901Z" fill="#D60000" stroke="#67211F" stroke-width="0.00737995"/>
<path d="M6.68275 2.89725C6.68355 2.58099 6.69137 2.38486 6.71418 2.0105L5.97548 2.82396C5.94917 3.14668 5.9429 3.32471 5.93619 3.63743L6.68275 2.89725Z" fill="#007FFF" stroke="#67211F" stroke-width="0.00590396"/>
<path d="M6.502 3.07313L6.13265 2.64807L5.97548 2.82396C5.95498 3.14238 5.94514 3.31907 5.93619 3.63744L6.502 3.07313Z" fill="#398F00" stroke="#67211F" stroke-width="0.00590396"/>
<path d="M6.53343 3.81311L6.17194 3.40271L5.93619 3.63723C5.94405 3.96701 5.96762 4.11359 5.99123 4.38475L6.53343 3.81311Z" fill="#D60000" stroke="#67211F" stroke-width="0.00590396"/>
<path d="M6.50256 4.64893L6.14107 4.2312L5.99176 4.3851C6.05463 4.72222 6.07035 4.81016 6.13321 5.05934L6.50256 4.64893Z" fill="#007FFF" stroke="#67211F" stroke-width="0.00590396"/>
<path d="M6.60001 5.34734L6.24465 4.93494L6.13409 5.06013L6.18401 5.22424L6.60001 5.34734Z" fill="#FF7F00" stroke="#67211F" stroke-width="0.00590396"/>
<path d="M6.72026 3.61567C6.6923 3.3693 6.68174 3.21733 6.68097 2.89746L6.17017 3.40314C6.40592 3.66697 6.35877 3.60834 6.53166 3.81354L6.72026 3.61567Z" fill="#FF7F00" stroke="#67211F" stroke-width="0.00590396"/>
<path d="M6.81774 4.29691C6.7863 4.06973 6.74701 3.95247 6.72343 3.62268L6.14191 4.23096C6.37196 4.5108 6.32622 4.44795 6.5034 4.64129L6.81774 4.29691Z" fill="#398F00" stroke="#67211F" stroke-width="0.00590396"/>
<path d="M6.9977 4.94961C6.92697 4.70777 6.88768 4.60517 6.81696 4.29736L6.24329 4.93495C6.42403 5.15481 6.42403 5.15481 6.60478 5.35269L6.9977 4.94961Z" fill="#D60000" stroke="#67211F" stroke-width="0.00590396"/>
<path d="M7.22144 5.51794C7.0407 5.30541 7.05205 5.31593 6.86344 5.08875L6.59329 5.34082C6.9248 5.42384 6.919 5.422 6.919 5.422L7.22144 5.51794Z" fill="#398F00" stroke="#67211F" stroke-width="0.00590396"/>
<path d="M6.99954 4.9491L6.8653 5.08902L7.21275 5.50142H7.22065L6.99954 4.9491Z" fill="#007FFF" stroke="#67211F" stroke-width="0.00590396"/>
<path d="M6.76389 3.96177L6.72441 3.63037L6.67703 3.67456L6.60596 3.7482L6.76389 3.96177Z" fill="#007FFF" stroke="#67211F" stroke-width="0.00590396"/>
<g filter="url(#filter0_d_1206_12687)">
<path d="M7.76167 2.71657L7.88853 2.52951C7.88853 2.52951 8.02636 3.07814 7.93014 3.4291C7.85362 3.70817 7.57153 4.07232 7.57153 4.07232C7.44241 4.38675 7.45068 4.5592 7.52066 4.86422L7.2632 5.15297C7.2632 5.15297 7.18359 4.75316 7.05496 4.55707C6.86834 4.27259 6.56042 4.34995 6.37053 4.09991C6.08937 3.72968 6.23515 2.94804 6.23515 2.94804L6.46328 3.13644C6.46328 3.13644 6.60154 2.94183 6.73666 2.66253C6.78505 2.56251 6.83303 2.45163 6.87412 2.33493C6.93693 2.15655 7.00686 1.86969 7.00686 1.86969L7.13875 2.12713L7.24481 1.99024C7.24481 1.99024 7.25406 2.18757 7.2932 2.29791C7.38303 2.55116 7.48619 2.64335 7.76167 2.71657Z" fill="url(#paint2_linear_1206_12687)"/>
<path d="M7.76167 2.71657C7.81121 2.64352 7.88853 2.52951 7.88853 2.52951C7.88853 2.52951 8.02636 3.07814 7.93014 3.4291C7.85362 3.70817 7.57153 4.07232 7.57153 4.07232C7.44241 4.38675 7.45068 4.5592 7.52066 4.86422L7.2632 5.15297C7.2632 5.15297 7.18359 4.75316 7.05496 4.55707C6.86834 4.27259 6.56042 4.34995 6.37053 4.09991C6.08937 3.72968 6.23515 2.94804 6.23515 2.94804L6.46328 3.13644M7.76167 2.71657C7.48619 2.64335 7.38303 2.55116 7.2932 2.29791C7.25406 2.18757 7.24481 1.99024 7.24481 1.99024L7.13875 2.12713M7.76167 2.71657C7.75411 2.74304 7.53254 3.19965 7.53254 3.19965C7.53254 3.19965 7.35927 2.8832 7.28136 2.6686M6.46328 3.13644C6.5938 3.27963 6.61344 3.3732 6.65042 3.5391L6.8198 2.94545L7.07825 3.3099L7.12339 2.51657L7.28136 2.6686M6.46328 3.13644C6.46328 3.13644 6.60154 2.94183 6.73666 2.66253C6.78505 2.56251 6.83303 2.45163 6.87412 2.33493C6.93693 2.15655 7.00686 1.86969 7.00686 1.86969L7.13875 2.12713M7.13875 2.12713C7.13875 2.12713 7.20645 2.46226 7.28136 2.6686" stroke="#F8F7FC" stroke-width="0.0365292"/>
</g>
<path d="M15.9311 7.77047C15.9511 7.70423 15.9149 7.63425 15.8486 7.61426C15.8474 7.61426 15.8462 7.61301 15.8437 7.61301L15.5287 7.52553C15.4513 7.50054 15.3863 7.4493 15.3425 7.38057L15.0301 6.82573C15.0064 6.79824 15.0089 6.757 15.0364 6.732L15.0376 6.73075C15.0539 6.71701 15.0751 6.71201 15.0951 6.71576H15.7312C15.8124 6.72076 15.8886 6.75325 15.9486 6.80698L16.1773 7.04067C16.2248 7.09065 16.3048 7.0919 16.3535 7.04442C16.3548 7.04317 16.356 7.04192 16.3573 7.04067L16.4897 6.9157C16.5397 6.86822 16.5422 6.78949 16.4947 6.7395C16.4935 6.73825 16.4922 6.737 16.4897 6.7345L16.351 6.59329C16.301 6.54581 16.2998 6.46583 16.3473 6.41709C16.3485 6.41584 16.3498 6.41459 16.351 6.41334L16.4922 6.27463C16.5422 6.22714 16.5447 6.14842 16.4972 6.09843C16.496 6.09718 16.4947 6.09593 16.4922 6.09343L16.3648 5.95722C16.3173 5.90723 16.2373 5.90598 16.1886 5.95347C16.1873 5.95472 16.1861 5.95597 16.1848 5.95722L15.9549 6.1909C15.8936 6.24339 15.8174 6.27463 15.7362 6.27838L15.0989 6.27213C15.0289 6.27213 15.0014 6.22215 15.0364 6.16216L15.365 5.61232C15.41 5.54483 15.4763 5.49485 15.5525 5.4711L15.8699 5.38988C15.9374 5.37363 15.9786 5.30615 15.9624 5.23867C15.9624 5.23742 15.9611 5.23617 15.9611 5.23492L15.9136 5.04747C15.8974 4.97999 15.8299 4.93875 15.7624 4.955C15.7612 4.955 15.7599 4.95625 15.7587 4.95625L15.5675 5.00498C15.5012 5.02248 15.4325 4.98374 15.415 4.91626C15.415 4.91501 15.415 4.91501 15.4138 4.91376L15.3638 4.72381C15.3475 4.65633 15.2801 4.61509 15.2126 4.63134C15.2113 4.63134 15.2101 4.63259 15.2088 4.63259L15.0239 4.68007C14.9564 4.69507 14.9152 4.76255 14.9302 4.83003C14.9302 4.83128 14.9314 4.83378 14.9314 4.83503L15.0139 5.15244C15.0289 5.23242 15.0176 5.31365 14.9801 5.38613L14.6502 5.94097C14.614 6.00096 14.5565 6.00096 14.5253 5.94097L14.2116 5.38613C14.1754 5.3124 14.1666 5.22867 14.1854 5.14869L14.2728 4.83378C14.2928 4.76755 14.2553 4.69757 14.1891 4.67757C14.1879 4.67757 14.1854 4.67633 14.1841 4.67633L14.0004 4.62634C13.9342 4.60634 13.8642 4.64258 13.8442 4.70882C13.8442 4.71007 13.8429 4.71132 13.8429 4.71381L13.7892 4.90376C13.7717 4.97124 13.7042 5.01123 13.6368 4.99374C13.6355 4.99374 13.633 4.99249 13.6318 4.99249L13.4418 4.93875C13.3756 4.91876 13.3056 4.95625 13.2856 5.02248C13.2856 5.02373 13.2844 5.02623 13.2844 5.02748L13.2331 5.21118C13.2131 5.27741 13.2506 5.34739 13.3168 5.36738C13.3193 5.36863 13.3206 5.36863 13.3231 5.36863L13.6405 5.45736C13.718 5.4836 13.783 5.53484 13.8267 5.60357L14.1391 6.15841C14.1629 6.18716 14.1604 6.22964 14.1316 6.25339C14.1154 6.26713 14.0941 6.27213 14.0741 6.26838H13.4381C13.3568 6.26338 13.2806 6.23089 13.2206 6.17591L12.9907 5.92723C12.9432 5.87724 12.8632 5.87599 12.8145 5.92348C12.8132 5.92473 12.812 5.92598 12.8107 5.92723L12.6708 6.06594C12.6208 6.11343 12.6195 6.1934 12.667 6.24214C12.6683 6.24339 12.6695 6.24464 12.6708 6.24589L12.8095 6.3871C12.8595 6.43459 12.8607 6.51456 12.8132 6.5633C12.812 6.56455 12.8107 6.5658 12.8095 6.56705L12.6658 6.70076C12.6158 6.74825 12.6145 6.82823 12.662 6.87696C12.6633 6.87821 12.6645 6.87946 12.6658 6.88071L12.7995 7.01693C12.847 7.06691 12.9269 7.06816 12.9757 7.02067C12.9769 7.01942 12.9782 7.01817 12.9794 7.01693L13.2119 6.78574C13.2731 6.73325 13.3493 6.70201 13.4306 6.69826L14.0679 6.70451C14.1379 6.70451 14.1654 6.7545 14.1304 6.81448L13.8067 7.36433C13.7617 7.43306 13.6942 7.48305 13.6155 7.50804L13.2981 7.58927C13.2306 7.60551 13.1894 7.67299 13.2056 7.74047C13.2056 7.74172 13.2069 7.74297 13.2069 7.74422L13.2569 7.92792C13.2731 7.9954 13.3406 8.03664 13.4081 8.0204C13.4093 8.0204 13.4106 8.01915 13.4118 8.01915L13.603 7.96916C13.6692 7.95167 13.738 7.99165 13.7555 8.05789C13.7555 8.05914 13.7567 8.06039 13.7567 8.06163L13.8067 8.25158C13.823 8.31906 13.8904 8.3603 13.9579 8.34406C13.9592 8.34406 13.9604 8.34281 13.9617 8.34281L14.1466 8.29532C14.2141 8.28032 14.2566 8.21409 14.2416 8.14661C14.2416 8.14411 14.2403 8.14286 14.2403 8.14036L14.1579 7.82295C14.1429 7.74422 14.1541 7.66175 14.1916 7.59052L14.5153 7.04067C14.5515 6.98069 14.609 6.98069 14.6402 7.04067L14.9526 7.59551C14.9889 7.66924 14.9989 7.75297 14.9801 7.83295L14.8927 8.14786C14.8727 8.21409 14.9114 8.28407 14.9776 8.30282C14.9789 8.30282 14.9801 8.30407 14.9814 8.30407L15.1651 8.35405C15.2313 8.37405 15.3013 8.33781 15.3213 8.27158C15.3213 8.27033 15.3225 8.26908 15.3225 8.26658L15.3763 8.07663C15.3938 8.00915 15.4613 7.96916 15.5287 7.98666C15.53 7.98666 15.5325 7.98791 15.5337 7.98791L15.7237 8.04164C15.7899 8.06164 15.8599 8.02415 15.8799 7.95791C15.8799 7.95666 15.8811 7.95416 15.8811 7.95291L15.9311 7.77047Z" fill="#B7E4FF"/>
<path d="M2.53163 4.4552C3.07207 2.90875 2.54011 1.75161 3.9867 0.98288C5.0587 0.413212 7.57028 0.314048 8.58338 0.982879C9.12709 1.34183 9.44801 1.40468 9.07942 1.9419C8.74135 2.43464 7.65222 1.84741 7.06217 1.9419C6.47433 2.03604 6.23543 2.50408 6.03701 2.96706C5.6082 3.96762 5.67216 4.59999 4.68116 5.05044C4.31739 5.21579 3.37073 5.09094 2.79622 5.70963C2.36632 6.17261 1.77104 7.56153 1.67186 7.56153C1.07657 7.56153 2.11375 5.65096 2.53163 4.4552Z" fill="url(#paint3_linear_1206_12687)"/>
<path d="M10.1843 1.47258C9.94184 1.23154 10.7158 1.08557 11.1025 1.08231C11.2825 1.08079 11.381 1.11076 11.5459 1.16142C11.6995 1.20862 11.8729 1.23565 11.9148 1.32429C11.9566 1.41294 11.7465 1.52773 11.5941 1.60872C11.2739 1.77887 11.0182 1.65585 10.6684 1.59765C10.4731 1.56517 10.311 1.59861 10.1843 1.47258Z" fill="url(#paint4_linear_1206_12687)"/>
<path d="M9.14106 1.19895C9.04714 1.10558 9.34695 1.04903 9.49675 1.04777C9.56647 1.04718 9.60463 1.05879 9.66851 1.07841C9.72802 1.0967 9.7952 1.10717 9.81141 1.14151C9.82762 1.17585 9.74621 1.22031 9.68717 1.25169C9.56316 1.3176 9.4641 1.26995 9.32858 1.2474C9.25295 1.23482 9.19016 1.24777 9.14106 1.19895Z" fill="url(#paint5_linear_1206_12687)"/>
</g>
<defs>
<filter id="filter0_d_1206_12687" x="6.17896" y="1.81726" width="1.93065" height="3.4873" filterUnits="userSpaceOnUse" color-interpolation-filters="sRGB">
<feFlood flood-opacity="0" result="BackgroundImageFix"/>
<feColorMatrix in="SourceAlpha" type="matrix" values="0 0 0 0 0 0 0 0 0 0 0 0 0 0 0 0 0 0 127 0" result="hardAlpha"/>
<feOffset dx="0.0737995" dy="0.0590396"/>
<feGaussianBlur stdDeviation="0.0265678"/>
<feComposite in2="hardAlpha" operator="out"/>
<feColorMatrix type="matrix" values="0 0 0 0 0 0 0 0 0 0 0 0 0 0 0 0 0 0 0.25 0"/>
<feBlend mode="normal" in2="BackgroundImageFix" result="effect1_dropShadow_1206_12687"/>
<feBlend mode="normal" in="SourceGraphic" in2="effect1_dropShadow_1206_12687" result="shape"/>
</filter>
<radialGradient id="paint0_radial_1206_12687" cx="0" cy="0" r="1" gradientUnits="userSpaceOnUse" gradientTransform="translate(8.69193 9.55049) scale(7.11802 7.11799)">
<stop offset="0.5" stop-color="#FDE030"/>
<stop offset="0.92" stop-color="#F7C02B"/>
<stop offset="1" stop-color="#F4A223"/>
</radialGradient>
<radialGradient id="paint1_radial_1206_12687" cx="0" cy="0" r="1" gradientUnits="userSpaceOnUse" gradientTransform="translate(8.69235 9.54976) scale(7.11802 7.11799)">
<stop offset="0.16" stop-color="#40E3E7"/>
<stop offset="0.51" stop-color="#3FE1E7"/>
<stop offset="0.65" stop-color="#39DAE7"/>
<stop offset="0.77" stop-color="#30CDE6"/>
<stop offset="0.86" stop-color="#23BCE5"/>
<stop offset="0.94" stop-color="#13A5E4"/>
<stop offset="1" stop-color="#018CE3"/>
</radialGradient>
<linearGradient id="paint2_linear_1206_12687" x1="7.42869" y1="1.97583" x2="6.66697" y2="5.00294" gradientUnits="userSpaceOnUse">
<stop stop-color="#C9C9C9"/>
<stop offset="1" stop-color="#939297"/>
</linearGradient>
<linearGradient id="paint3_linear_1206_12687" x1="4.78966" y1="0.120864" x2="4.78966" y2="7.5894" gradientUnits="userSpaceOnUse">
<stop stop-color="white"/>
<stop offset="1" stop-color="#7DCEFF"/>
</linearGradient>
<linearGradient id="paint4_linear_1206_12687" x1="10.9464" y1="1.04676" x2="11.1282" y2="1.7512" gradientUnits="userSpaceOnUse">
<stop stop-color="#FBFDFF"/>
<stop offset="1" stop-color="#B7E4FF"/>
</linearGradient>
<linearGradient id="paint5_linear_1206_12687" x1="9.43628" y1="1.03399" x2="9.50673" y2="1.30688" gradientUnits="userSpaceOnUse">
<stop stop-color="#FBFDFF"/>
<stop offset="1" stop-color="#B7E4FF"/>
</linearGradient>
<clipPath id="clip0_1206_12687">
<rect width="17.996" height="17.996" fill="white" transform="translate(-0.00396729 -0.00390625)"/>
</clipPath>
</defs>
</svg>
