<svg width="19" height="18" viewBox="0 0 19 18" fill="none" xmlns="http://www.w3.org/2000/svg">
<g clip-path="url(#clip0_1206_10539)">
<path d="M9.91141 15.845C6.42486 15.845 2.66339 13.6581 2.66339 8.85946C2.66339 4.06079 6.42486 1.8739 9.91141 1.8739C11.8484 1.8739 13.6354 2.51122 14.96 3.6734C16.3971 4.94805 17.1594 6.74755 17.1594 8.85946C17.1594 10.9714 16.3971 12.7584 14.96 14.033C13.6354 15.1952 11.8359 15.845 9.91141 15.845Z" fill="url(#paint0_radial_1206_10539)"/>
<path d="M9.91141 15.845C6.42486 15.845 2.66339 13.6581 2.66339 8.85946C2.66339 4.06079 6.42486 1.8739 9.91141 1.8739C11.8484 1.8739 13.6354 2.51122 14.96 3.6734C16.3971 4.94805 17.1594 6.74755 17.1594 8.85946C17.1594 10.9714 16.3971 12.7584 14.96 14.033C13.6354 15.1952 11.8359 15.845 9.91141 15.845Z" fill="url(#paint1_linear_1206_10539)"/>
<path d="M15.8947 4.70728C16.5608 5.78198 16.9082 7.06162 16.9082 8.48498C16.9082 10.5969 16.1459 12.3839 14.7088 13.6585C13.3842 14.8207 11.5847 15.4705 9.66018 15.4705C7.4033 15.4705 5.03145 14.552 3.63933 12.6038C4.98396 14.8107 7.51202 15.8454 9.91011 15.8454C11.8346 15.8454 13.6341 15.1956 14.9587 14.0334C16.3958 12.7588 17.1581 10.9718 17.1581 8.85987C17.1581 7.26781 16.7245 5.85321 15.8947 4.70728Z" fill="#EB8F00"/>
<path d="M7.46866 6.11438C6.94505 6.11438 6.46893 6.55676 6.46893 7.29155C6.46893 8.02635 6.94505 8.46873 7.46866 8.46873C7.99227 8.46873 8.46839 8.02635 8.46839 7.29155C8.46839 6.55676 7.99352 6.11438 7.46866 6.11438Z" fill="#422B0D"/>
<path d="M7.41825 6.60809C7.28954 6.51812 7.09584 6.54686 6.97088 6.72681C6.84591 6.90801 6.88715 7.09796 7.01586 7.18793C7.14458 7.27791 7.33828 7.24917 7.46324 7.06922C7.58821 6.88927 7.54822 6.69807 7.41825 6.60809Z" fill="#896024"/>
<path d="M12.2625 6.11438C11.7389 6.11438 11.2628 6.55676 11.2628 7.29155C11.2628 8.02635 11.7389 8.46873 12.2625 8.46873C12.7861 8.46873 13.2623 8.02635 13.2623 7.29155C13.2623 6.55676 12.7861 6.11438 12.2625 6.11438Z" fill="#422B0D"/>
<path d="M12.2132 6.60809C12.0845 6.51812 11.8908 6.54686 11.7658 6.72681C11.6408 6.90801 11.6821 7.09796 11.8108 7.18793C11.9395 7.27791 12.1332 7.24917 12.2582 7.06922C12.3844 6.88802 12.3419 6.69807 12.2132 6.60809Z" fill="#896024"/>
<path d="M13.9987 11.2288C13.7212 10.8314 12.9989 11.2375 12.9989 11.2375C12.9989 11.2375 13.3738 10.9113 13.6862 10.6127C13.8862 10.4215 14.0611 10.0141 13.8974 9.73792C13.7337 9.46175 13.2576 9.47924 13.0239 9.62295L12.1079 10.1853C12.1079 10.1853 12.4516 10.0353 12.5553 9.4455C12.6203 9.20682 12.4803 8.96064 12.2416 8.89566C12.1967 8.88316 12.1504 8.87816 12.1042 8.88066C11.888 8.89941 11.6818 8.97938 11.5081 9.1106C10.8458 9.58047 9.07751 10.7789 8.68136 10.7476C8.52766 10.7351 8.7251 10.2615 9.01002 9.9891C9.29495 9.71668 9.61611 9.08935 9.43491 8.65822C9.32869 8.40829 8.90255 8.22834 8.74885 8.46952C8.63263 8.64698 8.18525 9.22182 7.74037 9.6542C7.29549 10.0878 6.56319 11.0563 6.49946 11.1513C6.03334 11.8411 5.21856 13.4082 6.12831 14.8503C6.93309 16.1274 8.77009 16.1874 9.71108 15.85C11.5093 15.2127 13.1651 13.988 13.1964 13.963C13.5238 13.7031 13.8212 13.3219 13.6862 12.9745C13.52 12.5446 12.9689 12.7996 12.9689 12.7996C13.2876 12.6059 13.5738 12.3622 13.815 12.0773C14.0436 11.7824 14.1849 11.4974 13.9987 11.2288Z" fill="url(#paint2_radial_1206_10539)"/>
<path d="M13.9637 12.191C14.1112 12.001 14.4561 11.5574 14.1536 11.1213C14.0449 10.9676 13.8937 10.8714 13.7175 10.8414C14.0137 10.5952 14.3311 10.0204 13.9924 9.54798C13.8662 9.37178 13.625 9.23432 13.2414 9.32304C12.9652 9.38678 12.7178 9.59047 12.7178 9.59047C12.7265 9.55673 12.944 8.94315 12.1929 8.79069C11.8905 8.72946 11.5469 8.9294 11.3494 9.07811C10.2085 9.88789 8.83385 10.6277 8.88384 10.5215C9.06129 10.1691 9.36121 9.92413 9.52366 9.60297C9.70236 9.24806 9.67737 8.97689 9.62863 8.74445C9.54866 8.36956 9.21 8.12713 8.86759 8.23335C8.56642 8.32707 8.47145 8.71196 7.9316 9.29555C7.05684 10.2403 5.74969 10.9988 5.74969 12.9908C5.74969 12.9908 5.96339 11.8348 6.50074 11.1488C7.00685 10.504 7.74665 9.88289 8.20652 9.37553C8.6439 8.89441 8.64515 8.73071 8.79011 8.60824C9.04254 8.3958 9.42994 8.54451 9.3912 9.00688C9.34621 9.56298 9.11253 9.75043 8.85884 10.0678C8.70264 10.264 8.53643 10.4952 8.46645 10.6602C8.42146 10.7651 8.50769 10.8776 8.62141 10.8626C9.38745 10.7614 11.167 9.54423 11.6206 9.25806C11.7655 9.14809 11.938 9.08186 12.1117 9.06562C12.4541 9.01688 12.4366 9.49675 12.4366 9.49675C12.3404 9.89039 12.2792 9.89039 11.8868 10.2203C11.6081 10.454 10.6221 11.1713 9.98229 11.4937C9.98229 11.4937 9.99353 11.6399 10.2897 11.5562C10.5859 11.4724 11.7531 10.7389 12.3816 10.2353C12.3816 10.2353 13.1964 9.53923 13.5438 9.63671C13.8962 9.73668 13.865 9.98161 13.7538 10.214C13.6438 10.4465 13.3551 10.7264 12.8977 11.0751C12.0755 11.6999 10.8021 12.5521 10.8021 12.5521C10.8021 12.5521 10.8283 12.6771 11.0757 12.6059C11.5793 12.4597 13.1514 11.295 13.1514 11.295C13.2739 11.2 13.6838 11.0688 13.8437 11.3375C13.93 11.4637 13.91 11.6699 13.6075 12.0273C13.2476 12.4559 12.1492 13.2032 11.1945 13.7456C11.1945 13.7456 11.2669 13.868 11.5306 13.7781C11.7943 13.6881 12.884 13.0245 13.0564 12.967C13.2289 12.9095 13.4014 12.8546 13.5163 13.0583C13.6525 13.3394 13.4701 13.5619 13.1089 13.8493C13.0939 13.8605 11.3744 15.2052 9.58615 15.81C8.6414 16.1299 7.58544 15.9649 6.37452 15.1739C7.10932 16.0612 8.71388 16.4573 9.80234 16.0599C11.6331 15.3901 13.3276 14.1542 13.3414 14.143C13.6038 13.9343 14.1499 13.5019 13.8487 12.8833C13.77 12.7446 13.665 12.6584 13.5501 12.6096C13.6988 12.4822 13.8362 12.3422 13.9637 12.191Z" fill="#EB8F00"/>
<path d="M6.01687 0.263813H6.50977C6.50977 0.263813 8.53438 -0.0117771 9.90351 0.00039143C11.2086 0.0119909 13.1276 0.263813 13.1276 0.263813H13.9033C14.693 1.56835 15.2605 2.908 15.5207 4.28414C12.9695 3.55805 9.90351 5.09272 9.90351 5.09272C9.90351 5.09272 6.79144 3.58484 4.31094 4.12679C4.70799 2.71808 5.19733 1.43971 6.01687 0.263813Z" fill="#7F2125"/>
<path d="M6.01687 0.263813H6.50977C6.50977 0.263813 8.53438 -0.0117771 9.90351 0.00039143C11.2086 0.0119909 13.1276 0.263813 13.1276 0.263813H13.9033M6.01687 0.263813C5.19733 1.43971 4.70799 2.71808 4.31094 4.12679C6.79144 3.58484 9.90351 5.09272 9.90351 5.09272C9.90351 5.09272 12.9695 3.55805 15.5207 4.28414C15.2605 2.908 14.693 1.56835 13.9033 0.263813M6.01687 0.263813C6.658 0.96043 7.5714 0.522827 9.90351 1.05891C12.015 0.539028 13.0316 0.994932 13.9033 0.263813" stroke="#67211F" stroke-width="0.0582032"/>
<path d="M9.91988 5.06994L9.92736 1.06237C11.5149 0.574285 12.7201 0.955343 13.9111 0.287476C14.4298 1.08545 15.2878 2.57961 15.5285 4.27265C13.4668 3.74155 11.2869 4.44265 9.91988 5.06994Z" fill="#67211F" stroke="#67211F" stroke-width="0.0365292"/>
<path d="M7.19546 0.715642C6.83502 0.474088 6.49685 0.604986 6.51167 0.258057L6.04741 0.272817C6.40928 0.661429 6.94429 0.660412 7.19546 0.715642Z" fill="#67211F"/>
<path d="M12.5659 0.671108C12.9264 0.431994 13.2149 0.586467 13.2 0.243042H13.9114C13.5495 0.62773 12.8171 0.616435 12.5659 0.671108Z" fill="#67211F" fill-opacity="0.56"/>
<path d="M9.97414 0.302105L9.89318 1.01445L10.0418 1.00419L9.97414 0.302105Z" fill="#67211F" stroke="#67211F" stroke-width="0.0885594"/>
<path d="M8.02842 0.796901C7.76635 0.782244 7.60857 0.767587 7.39193 0.75293C7.25715 2.30272 7.20542 2.68648 7.48622 4.22151C7.86707 4.32126 8.15506 4.41538 8.48382 4.5167C7.7129 3.11377 7.92713 2.21251 8.02842 0.796901Z" fill="#D60000" stroke="#67211F" stroke-width="0.0365292"/>
<path d="M7.60515 0.775126L7.4152 0.760254L7.37721 1.04283L7.60515 0.775126Z" fill="#398F00" stroke="#67211F" stroke-width="0.00737995"/>
<path d="M7.29337 1.81618L8.00474 0.995371L8.01223 0.812156L7.60038 0.775513L7.37574 1.03934L7.29337 1.81618Z" fill="#FF7F00" stroke="#67211F" stroke-width="0.00737995"/>
<path d="M7.75698 1.27314C7.75698 1.27314 7.52984 1.01908 7.44996 0.950684L7.37508 1.03863L7.3002 1.80813C7.41003 1.67866 7.75698 1.27314 7.75698 1.27314Z" fill="#D60000" stroke="#67211F" stroke-width="0.00737995"/>
<path d="M7.97355 1.8815C7.97432 1.56524 7.98177 1.36912 8.0035 0.994751L7.29962 1.80822C7.27455 2.13094 7.26857 2.30896 7.26218 2.62168L7.97355 1.8815Z" fill="#007FFF" stroke="#67211F" stroke-width="0.00590396"/>
<path d="M7.80132 2.05751L7.44938 1.63245L7.29962 1.80833C7.28008 2.12676 7.27071 2.30345 7.26218 2.62181L7.80132 2.05751Z" fill="#398F00" stroke="#67211F" stroke-width="0.00590396"/>
<path d="M7.83128 2.79773L7.48682 2.38733L7.26218 2.62184C7.26966 2.95163 7.29213 3.09821 7.31462 3.36936L7.83128 2.79773Z" fill="#D60000" stroke="#67211F" stroke-width="0.00590396"/>
<path d="M7.80155 3.63294L7.45709 3.21521L7.31482 3.36911C7.37472 3.70623 7.3897 3.79417 7.44961 4.04334L7.80155 3.63294Z" fill="#007FFF" stroke="#67211F" stroke-width="0.00590396"/>
<path d="M7.89235 4.3311L7.55374 3.9187L7.44839 4.0439L7.49596 4.20801L7.89235 4.3311Z" fill="#FF7F00" stroke="#67211F" stroke-width="0.00590396"/>
<path d="M8.01059 2.59943C7.98394 2.35307 7.97389 2.20109 7.97315 1.88123L7.48642 2.3869C7.71106 2.65073 7.66614 2.5921 7.83087 2.7973L8.01059 2.59943Z" fill="#FF7F00" stroke="#67211F" stroke-width="0.00590396"/>
<path d="M8.0992 3.28141C8.06924 3.05422 8.0318 2.93697 8.00934 2.60718L7.45522 3.21545C7.67443 3.49529 7.63084 3.43245 7.79967 3.62579L8.0992 3.28141Z" fill="#398F00" stroke="#67211F" stroke-width="0.00590396"/>
<path d="M8.27254 3.93338C8.20515 3.69153 8.16771 3.58893 8.10032 3.28113L7.55368 3.91872C7.72591 4.13858 7.72591 4.13858 7.89814 4.33645L8.27254 3.93338Z" fill="#D60000" stroke="#67211F" stroke-width="0.00590396"/>
<path d="M8.48956 4.50379C8.31649 4.29023 8.32736 4.3008 8.14677 4.07251L7.88809 4.32581C8.20552 4.40924 8.19996 4.40739 8.19996 4.40739L8.48956 4.50379Z" fill="#398F00" stroke="#67211F" stroke-width="0.00590396"/>
<path d="M8.27437 3.93347L8.14645 4.07339L8.47754 4.4858H8.48506L8.27437 3.93347Z" fill="#007FFF" stroke="#67211F" stroke-width="0.00590396"/>
<path d="M8.04931 2.94553L8.01169 2.61414L7.96654 2.65832L7.89882 2.73197L8.04931 2.94553Z" fill="#007FFF" stroke="#67211F" stroke-width="0.00590396"/>
<g filter="url(#filter0_d_1206_10539)">
<path d="M8.99942 1.70094L9.12031 1.51388C9.12031 1.51388 9.25165 2.06251 9.15995 2.41348C9.08705 2.69254 8.81825 3.0567 8.81825 3.0567C8.69522 3.37112 8.70309 3.54357 8.76978 3.8486L8.52444 4.13735C8.52444 4.13735 8.44859 3.73753 8.32602 3.54145C8.1482 3.25696 7.85479 3.33433 7.67384 3.08428C7.40594 2.71405 7.54485 1.93242 7.54485 1.93242L7.76223 2.12082C7.76223 2.12082 7.89397 1.92621 8.02272 1.64691C8.06883 1.54688 8.11455 1.436 8.1537 1.31931C8.21355 1.14092 8.28019 0.854062 8.28019 0.854062L8.40586 1.11151L8.50693 0.974619C8.50693 0.974619 8.51574 1.17195 8.55303 1.28229C8.63863 1.53553 8.73693 1.62773 8.99942 1.70094Z" fill="url(#paint3_linear_1206_10539)"/>
<path d="M8.99942 1.70094C9.04663 1.62789 9.12031 1.51388 9.12031 1.51388C9.12031 1.51388 9.25165 2.06251 9.15995 2.41348C9.08705 2.69254 8.81825 3.0567 8.81825 3.0567C8.69522 3.37112 8.70309 3.54357 8.76978 3.8486L8.52444 4.13735C8.52444 4.13735 8.44859 3.73753 8.32602 3.54145C8.1482 3.25696 7.85479 3.33433 7.67384 3.08428C7.40594 2.71405 7.54485 1.93242 7.54485 1.93242L7.76223 2.12082M8.99942 1.70094C8.73693 1.62773 8.63863 1.53553 8.55303 1.28229C8.51574 1.17195 8.50693 0.974619 8.50693 0.974619L8.40586 1.11151M8.99942 1.70094C8.99223 1.72741 8.78109 2.18403 8.78109 2.18403C8.78109 2.18403 8.61599 1.86757 8.54175 1.65297M7.76223 2.12082C7.88659 2.264 7.90531 2.35757 7.94055 2.52347L8.10195 1.92982L8.34821 2.29428L8.39123 1.50094L8.54175 1.65297M7.76223 2.12082C7.76223 2.12082 7.89397 1.92621 8.02272 1.64691C8.06883 1.54688 8.11455 1.436 8.1537 1.31931C8.21355 1.14092 8.28019 0.854062 8.28019 0.854062L8.40586 1.11151M8.40586 1.11151C8.40586 1.11151 8.47037 1.44664 8.54175 1.65297" stroke="#F8F7FC" stroke-width="0.0365292"/>
</g>
</g>
<defs>
<filter id="filter0_d_1206_10539" x="7.49055" y="0.799683" width="1.84715" height="3.49072" filterUnits="userSpaceOnUse" color-interpolation-filters="sRGB">
<feFlood flood-opacity="0" result="BackgroundImageFix"/>
<feColorMatrix in="SourceAlpha" type="matrix" values="0 0 0 0 0 0 0 0 0 0 0 0 0 0 0 0 0 0 127 0" result="hardAlpha"/>
<feOffset dx="0.0737995" dy="0.0590396"/>
<feGaussianBlur stdDeviation="0.0265678"/>
<feComposite in2="hardAlpha" operator="out"/>
<feColorMatrix type="matrix" values="0 0 0 0 0 0 0 0 0 0 0 0 0 0 0 0 0 0 0.25 0"/>
<feBlend mode="normal" in2="BackgroundImageFix" result="effect1_dropShadow_1206_10539"/>
<feBlend mode="normal" in="SourceGraphic" in2="effect1_dropShadow_1206_10539" result="shape"/>
</filter>
<radialGradient id="paint0_radial_1206_10539" cx="0" cy="0" r="1" gradientUnits="userSpaceOnUse" gradientTransform="translate(9.91141 8.85951) scale(7.11802 7.11799)">
<stop offset="0.5" stop-color="#FDE030"/>
<stop offset="0.9188" stop-color="#F7C02B"/>
<stop offset="1" stop-color="#F4A223"/>
</radialGradient>
<linearGradient id="paint1_linear_1206_10539" x1="9.91141" y1="15.8451" x2="9.91141" y2="1.8739" gradientUnits="userSpaceOnUse">
<stop offset="0.1579" stop-color="#F4A223"/>
<stop offset="0.333" stop-color="#F7C02B"/>
<stop offset="0.8071" stop-color="#FDE030" stop-opacity="0"/>
</linearGradient>
<radialGradient id="paint2_radial_1206_10539" cx="0" cy="0" r="1" gradientUnits="userSpaceOnUse" gradientTransform="translate(10.0255 10.5434) scale(8.16409 8.16406)">
<stop offset="0.27" stop-color="#FFF176"/>
<stop offset="1" stop-color="#FFC400"/>
</radialGradient>
<linearGradient id="paint3_linear_1206_10539" x1="8.68214" y1="0.960206" x2="7.88754" y2="3.96916" gradientUnits="userSpaceOnUse">
<stop stop-color="#C9C9C9"/>
<stop offset="1" stop-color="#939297"/>
</linearGradient>
<clipPath id="clip0_1206_10539">
<rect width="17.996" height="17.996" fill="white" transform="translate(0.96347)"/>
</clipPath>
</defs>
</svg>
