<svg width="18" height="18" viewBox="0 0 18 18" fill="none" xmlns="http://www.w3.org/2000/svg">
<path d="M9.2917 16.8361C5.78282 16.8361 1.99725 14.6352 1.99725 9.80582C1.99725 4.97641 5.78282 2.77551 9.2917 2.77551C11.2411 2.77551 13.0395 3.41692 14.3727 4.58654C15.819 5.86935 16.5862 7.68038 16.5862 9.80582C16.5862 11.9313 15.819 13.7297 14.3727 15.0125C13.0395 16.1821 11.2285 16.8361 9.2917 16.8361Z" fill="url(#paint0_radial_1193_1135)"/>
<path d="M15.3162 5.6272C15.9865 6.70878 16.3362 7.99663 16.3362 9.4291C16.3362 11.5545 15.569 13.353 14.1227 14.6358C12.7895 15.8054 10.9785 16.4594 9.04171 16.4594C6.77037 16.4594 4.38835 15.535 2.98228 13.5743C4.33553 15.7954 6.88104 16.8367 9.29324 16.8367C11.23 16.8367 13.0411 16.1827 14.3742 15.0131C15.8205 13.7303 16.5877 11.9318 16.5877 9.8064C16.5877 8.20414 16.1513 6.78047 15.3162 5.6272Z" fill="#EB8F00"/>
<path d="M9.34254 14.5984C8.2685 14.5984 7.50258 13.8073 7.27117 13.3684C7.18314 13.22 7.16679 13.0389 7.22464 12.8767C7.25985 12.7798 7.35292 12.7144 7.45605 12.7119C7.49126 12.7132 7.52522 12.7195 7.55792 12.732C8.09871 12.9446 8.57285 13.2527 9.34883 13.2527C10.1248 13.2527 10.6065 12.9446 11.1397 12.732C11.1724 12.7195 11.2064 12.7119 11.2416 12.7119C11.3435 12.7169 11.4315 12.7811 11.4667 12.8767C11.5246 13.0389 11.5082 13.22 11.4202 13.3684C11.1825 13.8073 10.4166 14.5984 9.34254 14.5984Z" fill="#422B0D"/>
<path d="M7.51973 8.73493L7.49457 8.76008C7.47445 8.78272 7.45307 8.8041 7.43043 8.82297L7.34365 8.89465C7.30718 8.92232 7.26568 8.9525 7.21789 8.98269C7.1701 9.01287 7.12105 9.0418 7.06697 9.06947C7.01163 9.09713 6.95378 9.12103 6.89467 9.14115C6.83304 9.16002 6.77016 9.17511 6.70602 9.18769C6.64062 9.19775 6.57522 9.20278 6.50857 9.20278H6.44946C6.41676 9.20278 6.41047 9.20278 6.39789 9.20278L6.30985 9.19146C6.24571 9.17888 6.18283 9.16379 6.12121 9.14493C6.06084 9.12229 6.00298 9.09588 5.94639 9.06569C5.89231 9.03802 5.842 9.00784 5.79547 8.97892C5.72127 8.92987 5.6521 8.87453 5.5867 8.81416L5.50747 8.74122L5.47602 8.70978C5.31504 8.56263 5.07231 8.55383 4.90127 8.6884C4.77676 8.78398 4.73526 8.95502 4.80317 9.09713L4.82204 9.13486C4.83839 9.17134 4.85725 9.20655 4.87738 9.24051C5.00692 9.45683 5.18299 9.6417 5.39176 9.78382C5.49112 9.85299 5.59676 9.9121 5.70743 9.95989C5.82943 10.014 5.95519 10.0555 6.08473 10.0857C6.1539 10.0982 6.21805 10.1108 6.30231 10.1184C6.3413 10.1184 6.38657 10.1259 6.40669 10.1259H6.50479C6.64565 10.1234 6.78525 10.1095 6.92359 10.0819C7.05313 10.0517 7.1789 10.0102 7.30089 9.95612C7.41157 9.90832 7.51721 9.84921 7.61657 9.78004C7.77252 9.6744 7.91086 9.5436 8.02531 9.39394L8.08568 9.30968L8.13598 9.23045C8.15485 9.20026 8.1712 9.16756 8.18503 9.13361L8.19887 9.10217C8.27433 8.92232 8.1888 8.71481 8.00896 8.63935C7.99638 8.63432 7.9838 8.62929 7.97123 8.62677C7.81276 8.57646 7.63795 8.61797 7.51973 8.73493Z" fill="#422B0D"/>
<path d="M13.1817 8.73493L13.1566 8.76008C13.1364 8.78272 13.1151 8.8041 13.0924 8.82297L13.0056 8.89465C12.9692 8.92232 12.9277 8.9525 12.8799 8.98269C12.8321 9.01287 12.783 9.0418 12.729 9.06947C12.6736 9.09713 12.6158 9.12103 12.5567 9.14115C12.495 9.16002 12.4321 9.17511 12.368 9.18769C12.3026 9.19775 12.2372 9.20278 12.1706 9.20278H12.1114C12.0787 9.20278 12.0725 9.20278 12.0599 9.20278L11.9718 9.19146C11.9077 9.17888 11.8448 9.16379 11.7832 9.14493C11.7228 9.12229 11.665 9.09588 11.6084 9.06569C11.5543 9.03802 11.504 9.00784 11.4575 8.97892C11.3833 8.92987 11.3141 8.87453 11.2487 8.81416L11.1695 8.74122L11.138 8.70978C10.977 8.56263 10.7343 8.55383 10.5633 8.6884C10.4388 8.78398 10.3972 8.95502 10.4652 9.09713L10.484 9.13486C10.5004 9.17134 10.5192 9.20655 10.5394 9.24051C10.6689 9.45683 10.845 9.6417 11.0537 9.78382C11.1531 9.85299 11.2587 9.9121 11.3694 9.95989C11.4927 10.014 11.621 10.0567 11.753 10.0857C11.8222 10.0982 11.8863 10.1108 11.9706 10.1184C12.0096 10.1184 12.0548 10.1259 12.075 10.1259H12.1731C12.3139 10.1234 12.4535 10.1095 12.5919 10.0819C12.7239 10.053 12.8522 10.0102 12.9755 9.95612C13.0861 9.90832 13.1918 9.84921 13.2911 9.78004C13.4471 9.6744 13.5854 9.5436 13.6999 9.39394L13.7602 9.30968L13.8105 9.23045C13.8294 9.20026 13.8458 9.16756 13.8596 9.13361L13.8734 9.10217C13.9489 8.92232 13.8634 8.71481 13.6835 8.63935C13.6709 8.63432 13.6584 8.62929 13.6458 8.62677C13.4836 8.57018 13.3024 8.61294 13.1817 8.73493Z" fill="#422B0D"/>
<path d="M4.86885 7.3401C4.78081 7.43191 4.63366 7.43568 4.54186 7.34639C4.45885 7.26715 4.44753 7.13762 4.51419 7.04455C4.65505 6.84332 4.82734 6.66599 5.02606 6.52011C5.55302 6.11388 6.21329 5.92146 6.87608 5.98309C7.18798 6.02207 7.12761 6.42075 6.84967 6.44716C6.10513 6.50627 5.40587 6.82194 4.86885 7.3401Z" fill="#422B0D"/>
<path d="M13.6798 7.3401C13.7679 7.43191 13.915 7.43568 14.0068 7.34639C14.0898 7.26715 14.1012 7.13762 14.0345 7.04455C13.8936 6.84332 13.7213 6.66599 13.5226 6.52011C12.9957 6.11388 12.3354 5.92146 11.6726 5.98309C11.3607 6.02207 11.4211 6.42075 11.699 6.44716C12.4436 6.50627 13.1428 6.82194 13.6798 7.3401Z" fill="#422B0D"/>
<path d="M5.33994 1.26634H5.8444C5.8444 1.26634 7.91653 0.98811 9.31779 1.0004C10.6535 1.01211 12.6175 1.26634 12.6175 1.26634H13.4114C14.2197 2.58339 14.8005 3.93589 15.0668 5.32523C12.6175 5.6285 9.35721 6.34217 9.35721 6.34217C9.35721 6.34217 6.26867 5.70793 3.59398 5.16637C4.00034 3.74415 4.50116 2.45352 5.33994 1.26634Z" fill="#7F2125"/>
<path d="M5.33994 1.26634H5.8444C5.8444 1.26634 7.91653 0.98811 9.31779 1.0004C10.6535 1.01211 12.6175 1.26634 12.6175 1.26634H13.4114M5.33994 1.26634C4.50116 2.45352 4.00034 3.74415 3.59398 5.16637C6.26867 5.70793 9.35721 6.34217 9.35721 6.34217C9.35721 6.34217 12.6175 5.6285 15.0668 5.32523C14.8005 3.93589 14.2197 2.58339 13.4114 1.26634M5.33994 1.26634C5.99612 1.96964 6.93095 1.52784 9.31779 2.06907C11.4788 1.5442 12.5193 2.00447 13.4114 1.26634" stroke="#67211F" stroke-width="0.0587614"/>
<path d="M9.36555 6.33444L9.34256 2.07237C10.9673 1.5796 12.2008 1.96431 13.4197 1.29004C13.9506 2.09567 14.8288 3.60415 15.0751 5.31343C13.2052 5.52976 10.2316 6.14817 9.36555 6.33444Z" fill="#67211F" stroke="#67211F" stroke-width="0.0368795"/>
<path d="M12.0403 1.67656C12.4092 1.43515 12.7044 1.5911 12.6893 1.24438H13.4173C13.047 1.63276 12.2973 1.62136 12.0403 1.67656Z" fill="#67211F" fill-opacity="0.56"/>
<path d="M6.54666 1.72308C6.17775 1.47921 5.83164 1.61137 5.84682 1.26111L5.37166 1.27601C5.74202 1.66835 6.28959 1.66732 6.54666 1.72308Z" fill="#67211F"/>
<path d="M9.39026 1.30466L9.3074 2.02384L9.45956 2.01348L9.39026 1.30466Z" fill="#67211F" stroke="#67211F" stroke-width="0.0894087"/>
<path d="M7.39697 1.78983C7.1316 1.77272 6.97187 1.75649 6.75251 1.73977C6.54442 3.28751 6.44512 4.34671 6.98965 5.83206C7.34556 5.90953 7.71691 5.95732 8.07288 6.02733C7.30438 4.59466 7.28169 3.22804 7.39697 1.78983Z" fill="#D60000" stroke="#67211F" stroke-width="0.0368795"/>
<path d="M6.95951 1.76232L6.76952 1.7458L6.72899 2.02928L6.95951 1.76232Z" fill="#398F00" stroke="#67211F" stroke-width="0.00745073"/>
<path d="M6.63753 2.81877L7.36558 1.99036L7.37481 1.80417L6.95788 1.76345L6.72793 2.02976L6.63753 2.81877Z" fill="#FF7F00" stroke="#67211F" stroke-width="0.00745073"/>
<path d="M7.11443 2.27196C7.11443 2.27196 6.88658 2.01178 6.80627 1.94157L6.72962 2.03034L6.64687 2.81196C6.7593 2.68127 7.11443 2.27196 7.11443 2.27196Z" fill="#D60000" stroke="#67211F" stroke-width="0.00745073"/>
<path d="M7.32885 2.89144C7.33245 2.56995 7.34175 2.37064 7.36712 1.99025L6.64672 2.81127C6.61843 3.13912 6.61079 3.32005 6.60151 3.6379L7.32885 2.89144Z" fill="#007FFF" stroke="#67211F" stroke-width="0.00596058"/>
<path d="M7.15079 3.06909L6.79803 2.63402L6.64473 2.81156C6.62209 3.1351 6.61101 3.31464 6.59952 3.6382L7.15079 3.06909Z" fill="#398F00" stroke="#67211F" stroke-width="0.00596058"/>
<path d="M7.17741 3.82153L6.8321 3.40143L6.60241 3.63794C6.60705 3.97325 6.6285 4.12244 6.64886 4.39828L7.17741 3.82153Z" fill="#D60000" stroke="#67211F" stroke-width="0.00596058"/>
<path d="M7.13814 4.67192L6.7929 4.24436L6.64738 4.39962C6.70506 4.74282 6.71945 4.83235 6.77791 5.08615L7.13814 4.67192Z" fill="#007FFF" stroke="#67211F" stroke-width="0.00596058"/>
<path d="M7.22352 5.3793L6.8858 4.95926L6.77847 5.08502C6.85911 5.40607 6.86676 5.39868 6.94046 5.64517L7.22352 5.3793Z" fill="#FF7F00" stroke="#67211F" stroke-width="0.00596058"/>
<path d="M7.40248 5.89601L7.09484 5.50602L6.94187 5.64631C6.96411 5.7061 6.9938 5.78085 7.00864 5.81823L7.40248 5.89601Z" fill="#007FFF" stroke="#67211F" stroke-width="0.00596058"/>
<path d="M7.36 3.62283C7.33521 3.37215 7.32638 3.21758 7.32849 2.89241L6.83085 3.40236C7.05609 3.67245 7.01109 3.61247 7.17616 3.82246L7.36 3.62283Z" fill="#FF7F00" stroke="#67211F" stroke-width="0.00596058"/>
<path d="M7.44331 4.31497C7.415 4.08377 7.37812 3.96425 7.3583 3.62881L6.79147 4.2425C7.01106 4.52882 6.96746 4.46457 7.13678 4.66253L7.44331 4.31497Z" fill="#398F00" stroke="#67211F" stroke-width="0.00596058"/>
<path d="M7.61364 4.98161C7.54753 4.73519 7.51051 4.63057 7.44499 4.3171L6.88547 4.96065C7.058 5.18561 7.058 5.18561 7.23072 5.38821L7.61364 4.98161Z" fill="#D60000" stroke="#67211F" stroke-width="0.00596058"/>
<path d="M7.81215 5.54124C7.63956 5.32373 7.66206 5.35372 7.48202 5.12126L7.0917 5.50544C7.26422 5.7304 7.23421 5.69289 7.39175 5.89537L7.81215 5.54124Z" fill="#398F00" stroke="#67211F" stroke-width="0.00596058"/>
<path d="M7.6127 4.98069L7.48249 5.12117L7.81262 5.54114L7.82021 5.54121L7.6127 4.98069Z" fill="#007FFF" stroke="#67211F" stroke-width="0.00596058"/>
<path d="M7.39394 3.97226L7.35896 3.63669L7.31305 3.68101L7.24411 3.75494L7.39394 3.97226Z" fill="#007FFF" stroke="#67211F" stroke-width="0.00596058"/>
<path d="M7.59746 5.72544L7.81917 5.53357C7.89796 5.72515 7.94652 5.82745 8.04264 6.00481L7.76992 5.95784L7.59746 5.72544Z" fill="#FF7F00" stroke="#67211F" stroke-width="0.00447043"/>
<g filter="url(#filter0_d_1193_1135)">
<path d="M8.54429 2.87405L8.66802 2.6852C8.66802 2.6852 8.80244 3.23909 8.70859 3.59342C8.63397 3.87516 8.35887 4.24281 8.35887 4.24281C8.23295 4.56025 8.24101 4.73435 8.30926 5.0423L8.05817 5.33382C8.05817 5.33382 7.98054 4.93017 7.85509 4.73221C7.67309 4.44499 7.37279 4.5231 7.18761 4.27066C6.91341 3.89688 7.05558 3.10774 7.05558 3.10774L7.27807 3.29795C7.27807 3.29795 7.4129 3.10147 7.54467 2.8195C7.59186 2.71851 7.63866 2.60657 7.67873 2.48875C7.73998 2.30866 7.80818 2.01905 7.80818 2.01905L7.9368 2.27896L8.04024 2.14076C8.04024 2.14076 8.04926 2.33998 8.08743 2.45138C8.17503 2.70706 8.27564 2.80013 8.54429 2.87405Z" fill="#939297"/>
<path d="M8.54429 2.87405C8.59261 2.8003 8.66802 2.6852 8.66802 2.6852C8.66802 2.6852 8.80244 3.23909 8.70859 3.59342C8.63397 3.87516 8.35887 4.24281 8.35887 4.24281C8.23295 4.56025 8.24101 4.73435 8.30926 5.0423L8.05817 5.33382C8.05817 5.33382 7.98054 4.93017 7.85509 4.73221C7.67309 4.44499 7.37279 4.5231 7.18761 4.27066C6.91341 3.89688 7.05558 3.10774 7.05558 3.10774L7.27807 3.29795M8.54429 2.87405C8.27564 2.80013 8.17503 2.70706 8.08743 2.45138C8.04926 2.33998 8.04024 2.14076 8.04024 2.14076L7.9368 2.27896M8.54429 2.87405C8.53693 2.90078 8.32084 3.36177 8.32084 3.36177C8.32084 3.36177 8.15186 3.04228 8.07588 2.82562M7.27807 3.29795C7.40535 3.44251 7.4245 3.53698 7.46057 3.70447L7.62576 3.10513L7.8778 3.47307M7.27807 3.29795C7.27807 3.29795 7.4129 3.10147 7.54467 2.8195C7.59186 2.71851 7.63866 2.60657 7.67873 2.48875C7.73998 2.30866 7.80818 2.01905 7.80818 2.01905L7.9368 2.27896M7.9368 2.27896C7.9368 2.27896 8.00283 2.61731 8.07588 2.82562M8.07588 2.82562L7.92182 2.67213L7.8778 3.47307M7.8778 3.47307L7.85509 3.86886" stroke="#F8F7FC" stroke-width="0.0368795"/>
</g>
<defs>
<filter id="filter0_d_1193_1135" x="7.00023" y="1.96472" width="1.8883" height="3.52329" filterUnits="userSpaceOnUse" color-interpolation-filters="sRGB">
<feFlood flood-opacity="0" result="BackgroundImageFix"/>
<feColorMatrix in="SourceAlpha" type="matrix" values="0 0 0 0 0 0 0 0 0 0 0 0 0 0 0 0 0 0 127 0" result="hardAlpha"/>
<feOffset dx="0.0745073" dy="0.0596058"/>
<feGaussianBlur stdDeviation="0.0268226"/>
<feComposite in2="hardAlpha" operator="out"/>
<feColorMatrix type="matrix" values="0 0 0 0 0 0 0 0 0 0 0 0 0 0 0 0 0 0 0.25 0"/>
<feBlend mode="normal" in2="BackgroundImageFix" result="effect1_dropShadow_1193_1135"/>
<feBlend mode="normal" in="SourceGraphic" in2="effect1_dropShadow_1193_1135" result="shape"/>
</filter>
<radialGradient id="paint0_radial_1193_1135" cx="0" cy="0" r="1" gradientUnits="userSpaceOnUse" gradientTransform="translate(9.2917 9.80582) scale(7.16361 7.16358)">
<stop offset="0.5" stop-color="#FDE030"/>
<stop offset="0.92" stop-color="#F7C02B"/>
<stop offset="1" stop-color="#F4A223"/>
</radialGradient>
</defs>
</svg>
