<svg width="19" height="19" viewBox="0 0 19 19" fill="none" xmlns="http://www.w3.org/2000/svg">
<g clip-path="url(#clip0_1200_7629)">
<path d="M9.99323 17.424C6.50668 17.424 2.74521 15.2371 2.74521 10.4384C2.74521 5.63977 6.50668 3.45288 9.99323 3.45288C11.9302 3.45288 13.7172 4.0902 15.0418 5.25238C16.479 6.52703 17.2412 8.32653 17.2412 10.4384C17.2412 12.5504 16.479 14.3374 15.0418 15.612C13.7172 16.7742 11.9177 17.424 9.99323 17.424Z" fill="url(#paint0_radial_1200_7629)"/>
<path d="M15.9756 6.28552C16.6416 7.36022 16.989 8.63987 16.989 10.0632C16.989 12.1751 16.2267 13.9621 14.7896 15.2368C13.465 16.399 11.6655 17.0488 9.74101 17.0488C7.48412 17.0488 5.11227 16.1303 3.72015 14.1821C5.06479 16.389 7.59284 17.4237 9.99094 17.4237C11.9154 17.4237 13.7149 16.7739 15.0396 15.6117C16.4767 14.337 17.239 12.55 17.239 10.4381C17.239 8.84606 16.8053 7.43145 15.9756 6.28552Z" fill="#EB8F00"/>
<path d="M9.87665 12.6278C8.28708 12.6278 6.80999 12.4941 5.57658 12.2666C5.27041 12.2104 5.00048 12.4791 5.06297 12.784C5.47285 14.7884 7.44606 16.4342 9.8754 16.4342C12.5334 16.4342 14.3229 14.7347 14.6941 12.7765C14.7516 12.4741 14.4816 12.2104 14.1792 12.2666C12.9446 12.4941 11.4662 12.6278 9.87665 12.6278Z" fill="#422B0D"/>
<path d="M13.2366 9.73993C13.1991 9.64746 13.1429 9.56498 13.0716 9.495C12.9992 9.42377 12.9117 9.36254 12.808 9.31005C12.7255 9.26881 12.633 9.23007 12.533 9.19508V8.14413C12.5518 8.15037 12.5718 8.15537 12.5893 8.16412C12.653 8.19536 12.7067 8.24035 12.7505 8.29658C12.7942 8.35282 12.828 8.4203 12.8505 8.49778C12.8592 8.52902 12.8667 8.56026 12.8717 8.59275C12.8867 8.68398 12.9617 8.75396 13.0542 8.75396H13.0592C13.1791 8.75396 13.2678 8.64774 13.2503 8.53027C13.2241 8.35032 13.1641 8.20161 13.0716 8.08414C12.9442 7.92169 12.7642 7.82421 12.533 7.79172V7.51555C12.533 7.41558 12.4518 7.33435 12.3518 7.33435C12.2519 7.33435 12.1706 7.41558 12.1706 7.51555V7.80047C12.0782 7.81547 11.9919 7.83921 11.9145 7.87545C11.822 7.91794 11.7445 7.97417 11.6795 8.04415C11.6158 8.11413 11.5658 8.19661 11.5296 8.29033C11.4946 8.38406 11.4771 8.48903 11.4771 8.6065C11.4771 8.73021 11.4971 8.83893 11.5371 8.93266C11.5771 9.02638 11.6345 9.11011 11.7083 9.18259C11.782 9.25507 11.8707 9.31755 11.9757 9.37003C12.0357 9.40003 12.1019 9.42877 12.1706 9.45501V10.5385C12.1706 10.5385 12.1706 10.5385 12.1694 10.5397C12.0782 10.5235 11.9994 10.4872 11.9307 10.4297C11.8757 10.3835 11.832 10.3223 11.797 10.246C11.7795 10.2073 11.767 10.1648 11.7583 10.1161C11.742 10.0261 11.6695 9.95612 11.5771 9.95612H11.5583C11.4446 9.95612 11.3584 10.0586 11.3771 10.1698C11.3884 10.2385 11.4059 10.301 11.4296 10.3585C11.4758 10.471 11.5358 10.5635 11.612 10.6372C11.6883 10.7109 11.7758 10.7671 11.8745 10.8059C11.9682 10.8434 12.0669 10.8659 12.1694 10.8784V11.0958C12.1694 11.1958 12.2506 11.277 12.3506 11.277C12.4506 11.277 12.5318 11.1958 12.5318 11.0958V10.8721C12.6368 10.8584 12.7342 10.8346 12.8217 10.7984C12.9204 10.7571 13.0042 10.7022 13.0741 10.6334C13.1429 10.5647 13.1966 10.4835 13.2354 10.3873C13.2728 10.2923 13.2928 10.1836 13.2928 10.0636C13.2941 9.94113 13.2753 9.83241 13.2366 9.73993ZM11.9994 8.93266C11.952 8.88892 11.917 8.83893 11.8945 8.7852C11.872 8.73146 11.8607 8.67023 11.8607 8.60025C11.862 8.45154 11.9057 8.33407 11.9919 8.2466C12.0382 8.19911 12.0994 8.16537 12.1706 8.14413V9.04762C12.1019 9.01263 12.0444 8.97389 11.9994 8.93266ZM12.868 10.2723C12.8405 10.3323 12.803 10.3835 12.753 10.426C12.703 10.4685 12.6418 10.501 12.5705 10.5222C12.5593 10.526 12.5468 10.5272 12.5343 10.5297V9.59122C12.633 9.63746 12.713 9.68745 12.7705 9.74243C12.8642 9.83241 12.9104 9.93988 12.9079 10.0661C12.9079 10.1448 12.8942 10.2123 12.868 10.2723Z" fill="#422B0D"/>
<path fill-rule="evenodd" clip-rule="evenodd" d="M12.1414 7.51554C12.1414 7.39831 12.2366 7.3031 12.3538 7.3031C12.4711 7.3031 12.5663 7.39831 12.5663 7.51554V7.76488C12.7916 7.80199 12.9701 7.90161 13.0982 8.06485C13.1947 8.18738 13.2564 8.34146 13.2833 8.5257C13.3035 8.66153 13.2007 8.78519 13.0611 8.78519H13.0562C12.9469 8.78519 12.8601 8.70261 12.8429 8.59781L12.8428 8.59749C12.8381 8.56671 12.8309 8.53681 12.8224 8.50634C12.8009 8.4323 12.7689 8.36851 12.7278 8.31575C12.6868 8.26301 12.6367 8.22118 12.5775 8.19216L12.5773 8.19205C12.5737 8.19025 12.57 8.18867 12.5663 8.18721V9.173C12.6594 9.20641 12.7459 9.2431 12.8239 9.2821L12.8241 9.28217C12.9302 9.33589 13.0204 9.39891 13.0955 9.47271C13.1696 9.54551 13.2283 9.63148 13.2675 9.72802C13.3081 9.82514 13.3273 9.93812 13.3261 10.0637C13.3261 10.1871 13.3055 10.2997 13.2664 10.3987L13.2663 10.3989C13.2261 10.4989 13.17 10.5837 13.0982 10.6555L13.098 10.6557C13.025 10.7274 12.9379 10.7845 12.8358 10.8272C12.7529 10.8615 12.6619 10.8848 12.565 10.8993V11.0958C12.565 11.213 12.4698 11.3082 12.3526 11.3082C12.2354 11.3082 12.1402 11.213 12.1402 11.0958V10.9058C12.0453 10.8925 11.9532 10.8702 11.865 10.8349C11.7624 10.7947 11.6715 10.7362 11.5923 10.6596C11.5125 10.5824 11.4503 10.4861 11.4027 10.3704C11.378 10.3105 11.3599 10.2458 11.3483 10.1749C11.3264 10.0447 11.4273 9.92487 11.5603 9.92487H11.5791C11.6888 9.92487 11.7725 10.0079 11.791 10.1105C11.7994 10.1572 11.8112 10.1971 11.8274 10.2331C11.8609 10.3061 11.9021 10.3632 11.9528 10.4058C12.0082 10.4521 12.0704 10.4837 12.1414 10.5014V9.47642C12.079 9.45199 12.0189 9.42554 11.9637 9.39797C11.8562 9.34418 11.7647 9.27987 11.6884 9.20486C11.6118 9.12958 11.552 9.04247 11.5103 8.94491C11.4684 8.84657 11.4478 8.73354 11.4478 8.60649C11.4478 8.48591 11.4658 8.37715 11.5023 8.2794L11.5024 8.27906C11.5399 8.18203 11.5919 8.09617 11.6584 8.02311L11.6586 8.02289C11.7264 7.94985 11.8073 7.89125 11.9033 7.8471C11.9765 7.81287 12.0566 7.7896 12.1414 7.77414V7.51554ZM12.1619 10.5697C12.0672 10.5522 11.9847 10.514 11.9127 10.4537C11.8534 10.4039 11.8071 10.3385 11.7706 10.2591L11.7705 10.2589C11.7518 10.2174 11.7386 10.1723 11.7295 10.1216M12.1619 10.5697L12.2039 10.6027V9.43349L12.1838 9.42582C12.1159 9.39989 12.0506 9.37155 11.9917 9.34208C11.8893 9.2909 11.8033 9.23025 11.7322 9.1603C11.6613 9.09061 11.6062 9.01027 11.5678 8.92039C11.5298 8.83127 11.5103 8.72687 11.5103 8.60649C11.5103 8.49221 11.5273 8.39108 11.5608 8.30142C11.5957 8.21113 11.6437 8.13213 11.7045 8.06529C11.7666 7.99844 11.8407 7.94463 11.9295 7.90383L11.9297 7.90374C12.0039 7.86903 12.0872 7.84597 12.1776 7.8313L12.2039 7.82705V7.51554C12.2039 7.43282 12.2711 7.36558 12.3538 7.36558C12.4366 7.36558 12.5038 7.43282 12.5038 7.51554V7.81887L12.5307 7.82265C12.7551 7.85418 12.9273 7.94819 13.0491 8.10342C13.1375 8.2158 13.1958 8.35915 13.2214 8.53477C13.2362 8.63385 13.1615 8.72271 13.0611 8.72271H13.0562C12.9805 8.72271 12.9174 8.66541 12.9046 8.58783C12.8993 8.55375 12.8915 8.52126 12.8825 8.48934L12.8825 8.48906C12.859 8.4082 12.8236 8.33708 12.7771 8.27739C12.7307 8.2177 12.6734 8.16958 12.6051 8.13611C12.5898 8.12846 12.5718 8.1229 12.5573 8.1184C12.5528 8.117 12.5486 8.11571 12.5449 8.11448L12.5038 8.10077V9.21724L12.5247 9.22456C12.6236 9.25916 12.7148 9.29739 12.7959 9.33795C12.8972 9.38919 12.9819 9.44863 13.0517 9.51727C13.1201 9.58439 13.1738 9.66332 13.2096 9.75166L13.2098 9.75199C13.2465 9.83975 13.2648 9.94409 13.2636 10.0633L13.2636 10.0636C13.2636 10.18 13.2442 10.2848 13.2083 10.3757C13.1711 10.468 13.1197 10.5456 13.0541 10.6112C12.9872 10.6769 12.907 10.7297 12.8118 10.7695C12.7274 10.8045 12.6327 10.8277 12.5297 10.8411L12.5026 10.8447V11.0958C12.5026 11.1785 12.4353 11.2458 12.3526 11.2458C12.2699 11.2458 12.2026 11.1785 12.2026 11.0958V10.8507L12.1752 10.8473C12.0748 10.8351 11.9788 10.8131 11.8881 10.7769L11.8879 10.7768C11.793 10.7396 11.709 10.6856 11.6358 10.6147C11.5631 10.5445 11.5054 10.4558 11.4605 10.3466C11.4377 10.2915 11.4208 10.2313 11.4099 10.1648L11.4099 10.1646C11.3944 10.0725 11.4659 9.98735 11.5603 9.98735H11.5791C11.6543 9.98735 11.7155 10.0443 11.7295 10.1216M12.2039 8.1022V9.09858L12.1585 9.07546C12.0878 9.03948 12.0278 8.99922 11.9803 8.95568C11.9297 8.90905 11.892 8.85534 11.8676 8.79725C11.8433 8.73904 11.8315 8.67359 11.8315 8.60024V8.59998C11.8328 8.44496 11.8786 8.31912 11.9716 8.22472C12.0224 8.17264 12.0886 8.13657 12.1637 8.11418L12.2039 8.1022ZM12.1414 8.18791C12.0917 8.20756 12.0495 8.23436 12.0163 8.26838L12.0162 8.26852C11.9368 8.34904 11.8952 8.45807 11.894 8.60037C11.894 8.66693 11.9047 8.7239 11.9253 8.77312C11.946 8.8225 11.9782 8.8688 12.0226 8.90964C12.055 8.93935 12.0947 8.96807 12.1414 8.99512V8.18791ZM12.5051 9.54208L12.5495 9.56292C12.6499 9.60993 12.7332 9.66163 12.7941 9.71985C12.8937 9.81548 12.9438 9.93115 12.9412 10.0664C12.9411 10.1488 12.9267 10.2205 12.8986 10.2848L12.8984 10.2853C12.8691 10.3491 12.8289 10.4041 12.7752 10.4498C12.7217 10.4953 12.6566 10.5297 12.5819 10.552C12.5718 10.5553 12.5594 10.5574 12.5503 10.5589C12.5472 10.5595 12.5445 10.5599 12.5424 10.5603L12.5051 10.5678V9.54208ZM12.5675 9.64128V10.4911C12.6334 10.4709 12.6893 10.4408 12.7347 10.4022C12.7809 10.3629 12.8157 10.3156 12.8414 10.2595C12.8657 10.204 12.8787 10.1409 12.8787 10.0661V10.0655C12.881 9.94841 12.8386 9.84921 12.7508 9.76496C12.7053 9.7214 12.6438 9.68031 12.5675 9.64128Z" fill="#422B0D"/>
<path d="M7.6088 13.548V16.1911C7.6088 17.3795 8.57228 18.3417 9.75946 18.3417H10.1693C11.3578 18.3417 12.32 17.3782 12.32 16.1911V13.5293C9.94441 13.9942 8.17489 13.6793 7.6088 13.548Z" fill="#05E005"/>
<path d="M9.8734 13.2032C9.09987 13.2032 8.33882 13.172 7.60902 13.1108V13.5469C8.17637 13.6781 9.94463 13.993 12.3215 13.5281V13.0933C11.5354 13.1645 10.7119 13.2032 9.8734 13.2032Z" fill="#05E005"/>
<path opacity="0.3" d="M9.8734 13.2032C9.09987 13.2032 8.33882 13.172 7.60902 13.1108V13.5469C8.17637 13.6781 9.94463 13.993 12.3215 13.5281V13.0933C11.5354 13.1645 10.7119 13.2032 9.8734 13.2032Z" fill="#AB3F2E"/>
<path d="M10.9106 16.1092C10.8731 16.0167 10.8169 15.9342 10.7457 15.8643C10.6732 15.793 10.5857 15.7318 10.482 15.6793C10.3995 15.6381 10.307 15.5993 10.2071 15.5643V14.5134C10.2258 14.5196 10.2458 14.5246 10.2633 14.5334C10.327 14.5646 10.3808 14.6096 10.4245 14.6658C10.4682 14.7221 10.502 14.7896 10.5245 14.867C10.5332 14.8983 10.5407 14.9295 10.5457 14.962C10.5607 15.0532 10.6357 15.1232 10.7282 15.1232H10.7332C10.8531 15.1232 10.9419 15.017 10.9244 14.8995C10.8981 14.7208 10.8381 14.5721 10.7457 14.4534C10.6182 14.291 10.4383 14.1935 10.2071 14.161V13.8848C10.2071 13.7848 10.1258 13.7036 10.0259 13.7036C9.9259 13.7036 9.84467 13.7848 9.84467 13.8848V14.1697C9.75219 14.1847 9.66597 14.2085 9.58849 14.2447C9.49601 14.2872 9.41853 14.3434 9.35355 14.4134C9.28982 14.4834 9.23983 14.5659 9.20359 14.6596C9.1686 14.7533 9.15111 14.8583 9.15111 14.9758C9.15111 15.0995 9.1711 15.2082 9.21109 15.3019C9.25108 15.3956 9.30857 15.4794 9.3823 15.5518C9.45602 15.6243 9.54475 15.6868 9.64972 15.7393C9.70971 15.7693 9.77594 15.798 9.84467 15.8243V16.9077C9.84467 16.9077 9.84467 16.9077 9.84342 16.909C9.75219 16.8927 9.67347 16.8565 9.60473 16.799C9.54975 16.7528 9.50601 16.6915 9.47102 16.6153C9.45353 16.5766 9.44103 16.5341 9.43228 16.4853C9.41479 16.3954 9.34231 16.3254 9.24983 16.3254H9.23109C9.11737 16.3254 9.03114 16.4279 9.04989 16.5391C9.06113 16.6078 9.07863 16.6703 9.10237 16.7278C9.14861 16.8402 9.20859 16.9327 9.28482 17.0064C9.36105 17.0802 9.44853 17.1364 9.54725 17.1751C9.64097 17.2126 9.7397 17.2351 9.84217 17.2476V17.4651C9.84217 17.565 9.9234 17.6463 10.0234 17.6463C10.1233 17.6463 10.2046 17.565 10.2046 17.4651V17.2414C10.3095 17.2276 10.407 17.2039 10.4945 17.1677C10.5932 17.1264 10.6769 17.0714 10.7469 17.0027C10.8157 16.934 10.8694 16.8527 10.9081 16.7565C10.9456 16.6615 10.9656 16.5528 10.9656 16.4329C10.9669 16.3104 10.9481 16.2029 10.9106 16.1092ZM9.67222 15.3019C9.62473 15.2582 9.58974 15.2082 9.56724 15.1545C9.54475 15.1007 9.5335 15.0395 9.5335 14.9695C9.53475 14.8208 9.57849 14.7033 9.66472 14.6159C9.71096 14.5684 9.77219 14.5346 9.84342 14.5134V15.4169C9.77469 15.3819 9.7172 15.3432 9.67222 15.3019ZM10.5407 16.6428C10.5132 16.7028 10.4757 16.754 10.4258 16.7965C10.3758 16.839 10.3145 16.8715 10.2433 16.8927C10.2321 16.8965 10.2196 16.8977 10.2071 16.9002V15.9617C10.3058 16.008 10.3858 16.058 10.4433 16.1129C10.537 16.2029 10.5832 16.3104 10.5807 16.4366C10.5807 16.5141 10.567 16.5816 10.5407 16.6428Z" fill="#404040"/>
<path d="M5.76238 6.67571C5.55368 6.85441 5.24377 6.59698 5.43871 6.35205C5.58367 6.1746 5.77862 6.00589 5.99106 5.87843C6.56341 5.50978 7.26821 5.39106 7.8693 5.50978C8.17547 5.57601 8.08174 5.9659 7.80182 5.96715C7.09326 5.95716 6.35471 6.19584 5.76238 6.67571Z" fill="#422B0D"/>
<path d="M14.2322 6.67571C14.4409 6.85441 14.7508 6.59698 14.5559 6.35205C14.4109 6.1746 14.216 6.00589 14.0035 5.87843C13.4312 5.50978 12.7264 5.39106 12.1253 5.50978C11.8191 5.57601 11.9128 5.9659 12.1928 5.96715C12.9013 5.95716 13.6411 6.19584 14.2322 6.67571Z" fill="#422B0D"/>
<path d="M8.37936 9.73993C8.34187 9.64746 8.28564 9.56498 8.21441 9.495C8.14193 9.42377 8.05445 9.36254 7.95073 9.31005C7.86825 9.26881 7.77578 9.23007 7.67581 9.19508V8.14413C7.69455 8.15037 7.71454 8.15537 7.73204 8.16412C7.79577 8.19536 7.84951 8.24035 7.89325 8.29658C7.93698 8.35282 7.97072 8.4203 7.99322 8.49778C8.00197 8.52902 8.00946 8.56026 8.01446 8.59275C8.02946 8.68398 8.10444 8.75396 8.19691 8.75396H8.20191C8.32188 8.75396 8.4106 8.64774 8.39311 8.53027C8.36687 8.35157 8.30688 8.20286 8.21441 8.08414C8.08694 7.92169 7.90699 7.82421 7.67581 7.79172V7.51555C7.67581 7.41558 7.59458 7.33435 7.49461 7.33435C7.39463 7.33435 7.3134 7.41558 7.3134 7.51555V7.80047C7.22093 7.81547 7.1347 7.83921 7.05722 7.87545C6.96475 7.91794 6.88727 7.97417 6.82229 8.04415C6.75856 8.11413 6.70857 8.19661 6.67233 8.29033C6.63734 8.38406 6.61984 8.48903 6.61984 8.6065C6.61984 8.73021 6.63984 8.83893 6.67983 8.93266C6.71982 9.02638 6.7773 9.11011 6.85103 9.18259C6.92476 9.25507 7.01349 9.31755 7.11846 9.37003C7.17844 9.40003 7.24467 9.42877 7.3134 9.45501V10.5385C7.3134 10.5385 7.3134 10.5385 7.31216 10.5397C7.22093 10.5235 7.1422 10.4872 7.07347 10.4297C7.01849 10.3835 6.97475 10.3223 6.93976 10.246C6.92226 10.2073 6.90977 10.1648 6.90102 10.1161C6.88477 10.0261 6.81229 9.95612 6.71982 9.95612H6.70107C6.58735 9.95612 6.50113 10.0586 6.51987 10.1698C6.53112 10.2385 6.54861 10.301 6.57236 10.3585C6.61859 10.471 6.67858 10.5635 6.75481 10.6372C6.83104 10.7109 6.91851 10.7671 7.01724 10.8059C7.11096 10.8434 7.20968 10.8659 7.31216 10.8784V11.0958C7.31216 11.1958 7.39338 11.277 7.49336 11.277C7.59333 11.277 7.67456 11.1958 7.67456 11.0958V10.8721C7.77953 10.8584 7.877 10.8346 7.96448 10.7984C8.0632 10.7571 8.14693 10.7022 8.21691 10.6334C8.28564 10.5647 8.33937 10.4835 8.37811 10.3873C8.4156 10.2923 8.4356 10.1836 8.4356 10.0636C8.43685 9.94113 8.4181 9.83241 8.37936 9.73993ZM7.1422 8.93266C7.09471 8.88892 7.05972 8.83893 7.03723 8.7852C7.01474 8.73146 7.00349 8.67023 7.00349 8.60025C7.00474 8.45154 7.04848 8.33407 7.1347 8.2466C7.18094 8.19911 7.24217 8.16537 7.3134 8.14413V9.04762C7.24467 9.01263 7.18719 8.97389 7.1422 8.93266ZM8.01071 10.2723C7.98322 10.3323 7.94573 10.3835 7.89575 10.426C7.84576 10.4685 7.78453 10.501 7.7133 10.5222C7.70205 10.526 7.68955 10.5272 7.67706 10.5297V9.59122C7.77578 9.63746 7.85576 9.68745 7.91324 9.74243C8.00696 9.83241 8.0532 9.93988 8.0507 10.0661C8.0507 10.1448 8.03696 10.2123 8.01071 10.2723Z" fill="#422B0D"/>
<path d="M6.11538 1.87111H6.60941C6.60941 1.87111 8.63865 1.59552 10.0109 1.60769C11.319 1.61929 13.2424 1.87111 13.2424 1.87111H14.0198C14.8114 3.17565 15.3802 4.5153 15.641 5.89144C13.084 5.16535 10.0109 6.70002 10.0109 6.70002C10.0109 6.70002 6.89172 5.19214 4.40555 5.73409C4.8035 4.32538 5.29396 3.04701 6.11538 1.87111Z" fill="#7F2125"/>
<path d="M6.11538 1.87111H6.60941C6.60941 1.87111 8.63865 1.59552 10.0109 1.60769C11.319 1.61929 13.2424 1.87111 13.2424 1.87111H14.0198M6.11538 1.87111C5.29396 3.04701 4.8035 4.32538 4.40555 5.73409C6.89172 5.19214 10.0109 6.70002 10.0109 6.70002C10.0109 6.70002 13.084 5.16535 15.641 5.89144C15.3802 4.5153 14.8114 3.17565 14.0198 1.87111M6.11538 1.87111C6.75798 2.56773 7.67347 2.13013 10.0109 2.66621C12.1272 2.14633 13.1462 2.60223 14.0198 1.87111" stroke="#67211F" stroke-width="0.0582032"/>
<path d="M10.0271 6.67773L10.0346 2.67016C11.6257 2.18207 12.8337 2.56313 14.0274 1.89526C14.5473 2.69324 15.4073 4.18739 15.6485 5.88044C13.5822 5.34934 11.3973 6.05043 10.0271 6.67773Z" fill="#67211F" stroke="#67211F" stroke-width="0.0365292"/>
<path d="M7.29647 2.32319C6.9352 2.08163 6.59625 2.21253 6.61111 1.8656L6.14578 1.88036C6.50848 2.26897 7.04472 2.26796 7.29647 2.32319Z" fill="#67211F"/>
<path d="M12.6768 2.27877C13.0381 2.03966 13.3272 2.19413 13.3124 1.85071H14.0254C13.6627 2.2354 12.9285 2.2241 12.6768 2.27877Z" fill="#67211F" fill-opacity="0.56"/>
<path d="M10.0805 1.90965L9.99935 2.622L10.1484 2.61173L10.0805 1.90965Z" fill="#67211F" stroke="#67211F" stroke-width="0.0885594"/>
<path d="M8.12832 2.40396C7.86565 2.3893 7.70751 2.37464 7.49037 2.35999C7.35528 3.90977 7.30344 4.29353 7.58488 5.82856C7.9666 5.92832 8.25525 6.02244 8.58476 6.12376C7.81207 4.72083 8.0268 3.81956 8.12832 2.40396Z" fill="#D60000" stroke="#67211F" stroke-width="0.0365292"/>
<path d="M7.70397 2.38218L7.51359 2.36731L7.47551 2.64988L7.70397 2.38218Z" fill="#398F00" stroke="#67211F" stroke-width="0.00737995"/>
<path d="M7.3927 3.42311L8.1057 2.6023L8.11321 2.41909L7.70042 2.38245L7.47526 2.64628L7.3927 3.42311Z" fill="#FF7F00" stroke="#67211F" stroke-width="0.00737995"/>
<path d="M7.85834 2.88081C7.85834 2.88081 7.63067 2.62675 7.55062 2.55835L7.47557 2.64629L7.40051 3.4158C7.51059 3.28633 7.85834 2.88081 7.85834 2.88081Z" fill="#D60000" stroke="#67211F" stroke-width="0.00737995"/>
<path d="M8.07452 3.48892C8.07529 3.17266 8.08275 2.97654 8.10454 2.60217L7.39904 3.41564C7.37391 3.73836 7.36792 3.91638 7.36151 4.2291L8.07452 3.48892Z" fill="#007FFF" stroke="#67211F" stroke-width="0.00590396"/>
<path d="M7.90189 3.66468L7.54914 3.23962L7.39904 3.41551C7.37946 3.73394 7.37006 3.91063 7.36151 4.22899L7.90189 3.66468Z" fill="#398F00" stroke="#67211F" stroke-width="0.00590396"/>
<path d="M7.93191 4.40479L7.58667 3.99438L7.36151 4.2289C7.36902 4.55869 7.39153 4.70526 7.41408 4.97642L7.93191 4.40479Z" fill="#D60000" stroke="#67211F" stroke-width="0.00590396"/>
<path d="M7.902 5.24061L7.55675 4.82288L7.41415 4.97678C7.4742 5.31389 7.48921 5.40184 7.54925 5.65101L7.902 5.24061Z" fill="#007FFF" stroke="#67211F" stroke-width="0.00590396"/>
<path d="M7.99465 5.93865L7.65527 5.52625L7.54968 5.65144L7.59735 5.81555L7.99465 5.93865Z" fill="#FF7F00" stroke="#67211F" stroke-width="0.00590396"/>
<path d="M8.1121 4.2071C8.08539 3.96073 8.07532 3.80876 8.07457 3.48889L7.58673 3.99457C7.81189 4.2584 7.76686 4.19977 7.93197 4.40497L8.1121 4.2071Z" fill="#FF7F00" stroke="#67211F" stroke-width="0.00590396"/>
<path d="M8.20001 4.88859C8.16998 4.6614 8.13246 4.54414 8.10994 4.21436L7.55455 4.82263C7.77426 5.10247 7.73058 5.03962 7.89979 5.23297L8.20001 4.88859Z" fill="#398F00" stroke="#67211F" stroke-width="0.00590396"/>
<path d="M8.37548 5.54092C8.30793 5.29907 8.2704 5.19647 8.20285 4.88867L7.65497 5.52626C7.82759 5.74612 7.82759 5.74612 8.00021 5.94399L8.37548 5.54092Z" fill="#D60000" stroke="#67211F" stroke-width="0.00590396"/>
<path d="M8.5932 6.11158C8.41974 5.89801 8.43063 5.90859 8.24963 5.6803L7.99036 5.9336C8.30851 6.01702 8.30294 6.01517 8.30294 6.01517L8.5932 6.11158Z" fill="#398F00" stroke="#67211F" stroke-width="0.00590396"/>
<path d="M8.37595 5.54077L8.24774 5.68069L8.57958 6.0931H8.58713L8.37595 5.54077Z" fill="#007FFF" stroke="#67211F" stroke-width="0.00590396"/>
<path d="M8.15192 4.55295L8.11421 4.22156L8.06896 4.26574L8.00108 4.33939L8.15192 4.55295Z" fill="#007FFF" stroke="#67211F" stroke-width="0.00590396"/>
<g filter="url(#filter0_d_1200_7629)">
<path d="M9.10332 3.30812L9.22448 3.12106C9.22448 3.12106 9.35612 3.66969 9.26422 4.02065C9.19114 4.29972 8.92173 4.66388 8.92173 4.66388C8.79841 4.9783 8.80631 5.15075 8.87315 5.45577L8.62725 5.74452C8.62725 5.74452 8.55123 5.34471 8.42838 5.14863C8.25014 4.86414 7.95606 4.94151 7.7747 4.69146C7.50618 4.32123 7.64541 3.53959 7.64541 3.53959L7.86329 3.728C7.86329 3.728 7.99534 3.53338 8.12438 3.25408C8.17059 3.15406 8.21642 3.04318 8.25566 2.92648C8.31565 2.7481 8.38244 2.46124 8.38244 2.46124L8.5084 2.71869L8.60969 2.5818C8.60969 2.5818 8.61852 2.77912 8.6559 2.88947C8.7417 3.14271 8.84022 3.2349 9.10332 3.30812Z" fill="url(#paint1_linear_1200_7629)"/>
<path d="M9.10332 3.30812C9.15063 3.23507 9.22448 3.12106 9.22448 3.12106C9.22448 3.12106 9.35612 3.66969 9.26422 4.02065C9.19114 4.29972 8.92173 4.66388 8.92173 4.66388C8.79841 4.9783 8.80631 5.15075 8.87315 5.45577L8.62725 5.74452C8.62725 5.74452 8.55122 5.34471 8.42838 5.14863C8.25014 4.86414 7.95606 4.94151 7.7747 4.69146C7.50618 4.32123 7.64541 3.53959 7.64541 3.53959L7.86329 3.728M9.10332 3.30812C8.84022 3.2349 8.7417 3.14271 8.6559 2.88947C8.61852 2.77912 8.60969 2.5818 8.60969 2.5818L8.5084 2.71869M9.10332 3.30812C9.0961 3.33459 8.88449 3.7912 8.88449 3.7912C8.88449 3.7912 8.71901 3.47475 8.6446 3.26015M7.86329 3.728C7.98794 3.87118 8.0067 3.96475 8.04202 4.13065L8.20379 3.537L8.45061 3.90145L8.49373 3.10812L8.6446 3.26015M7.86329 3.728C7.86329 3.728 7.99534 3.53338 8.12438 3.25408C8.17059 3.15406 8.21642 3.04318 8.25566 2.92648C8.31565 2.7481 8.38244 2.46124 8.38244 2.46124L8.5084 2.71869M8.5084 2.71869C8.5084 2.71869 8.57305 3.05382 8.6446 3.26015" stroke="#F8F7FC" stroke-width="0.0365292"/>
</g>
</g>
<defs>
<filter id="filter0_d_1200_7629" x="7.59102" y="2.40698" width="1.85103" height="3.49059" filterUnits="userSpaceOnUse" color-interpolation-filters="sRGB">
<feFlood flood-opacity="0" result="BackgroundImageFix"/>
<feColorMatrix in="SourceAlpha" type="matrix" values="0 0 0 0 0 0 0 0 0 0 0 0 0 0 0 0 0 0 127 0" result="hardAlpha"/>
<feOffset dx="0.0737995" dy="0.0590396"/>
<feGaussianBlur stdDeviation="0.0265678"/>
<feComposite in2="hardAlpha" operator="out"/>
<feColorMatrix type="matrix" values="0 0 0 0 0 0 0 0 0 0 0 0 0 0 0 0 0 0 0.25 0"/>
<feBlend mode="normal" in2="BackgroundImageFix" result="effect1_dropShadow_1200_7629"/>
<feBlend mode="normal" in="SourceGraphic" in2="effect1_dropShadow_1200_7629" result="shape"/>
</filter>
<radialGradient id="paint0_radial_1200_7629" cx="0" cy="0" r="1" gradientUnits="userSpaceOnUse" gradientTransform="translate(9.99323 10.4384) scale(7.11802 7.11799)">
<stop offset="0.5" stop-color="#FDE030"/>
<stop offset="0.9188" stop-color="#F7C02B"/>
<stop offset="1" stop-color="#F4A223"/>
</radialGradient>
<linearGradient id="paint1_linear_1200_7629" x1="8.7853" y1="2.56738" x2="7.99229" y2="5.57723" gradientUnits="userSpaceOnUse">
<stop stop-color="#C9C9C9"/>
<stop offset="1" stop-color="#939297"/>
</linearGradient>
<clipPath id="clip0_1200_7629">
<rect width="17.996" height="17.996" fill="white" transform="translate(0.97226 0.984131)"/>
</clipPath>
</defs>
</svg>
