<svg width="18" height="18" viewBox="0 0 18 18" fill="none" xmlns="http://www.w3.org/2000/svg">
<path d="M8.78884 15.9888C5.52291 15.9888 1.99945 13.9403 1.99945 9.44527C1.99945 4.95025 5.52291 2.90173 8.78884 2.90173C10.6032 2.90173 12.2772 3.49873 13.518 4.58737C14.8642 5.78136 15.5782 7.46699 15.5782 9.44527C15.5782 11.4235 14.8642 13.0975 13.518 14.2915C12.2772 15.3801 10.5915 15.9888 8.78884 15.9888Z" fill="url(#paint0_radial_1193_1521)"/>
<path d="M14.3956 5.55493C15.0195 6.56163 15.3449 7.7603 15.3449 9.09359C15.3449 11.0719 14.6309 12.7458 13.2847 13.9398C12.0439 15.0284 10.3582 15.6371 8.55552 15.6371C6.44145 15.6371 4.21968 14.7768 2.91565 12.9518C4.1752 15.0191 6.54329 15.9883 8.78964 15.9883C10.5923 15.9883 12.278 15.3796 13.5188 14.291C14.865 13.097 15.579 11.423 15.579 9.44477C15.579 7.95345 15.1728 6.62835 14.3956 5.55493Z" fill="#EB8F00"/>
<path d="M5.4352 13.1606C5.38603 13.5738 5.83788 13.6183 5.83788 13.6183C5.83788 13.6183 9.11551 13.7529 10.1468 13.7541C10.7532 13.7553 10.6548 13.1442 10.0555 12.6912C9.69378 12.4173 9.11083 12.1246 7.74359 12.1246C6.68772 12.1246 5.49021 12.7006 5.4352 13.1606Z" fill="#422B0D"/>
<path d="M6.53161 6.07755C6.53161 6.07755 6.74933 5.95229 6.94131 6.10798C7.04783 6.1946 7.10168 6.35731 6.98462 6.47554C6.51639 7.06317 5.28962 7.41083 4.69379 7.23759C4.58024 7.2013 4.5182 7.07956 4.55566 6.96601C4.58844 6.86535 4.68794 6.8033 4.79329 6.81969C5.5647 6.73424 6.06922 6.48022 6.53161 6.07755Z" fill="#422B0D"/>
<path d="M9.48368 6.01212C9.48368 6.01212 9.26595 5.88686 9.07398 6.04255C8.96745 6.12917 8.91361 6.29188 9.03067 6.41011C9.4989 6.99774 10.7257 7.34541 11.3215 7.17216C11.435 7.13587 11.4971 7.01413 11.4596 6.90058C11.4269 6.79992 11.3274 6.73787 11.222 6.75426C10.4506 6.66881 9.94606 6.41479 9.48368 6.01212Z" fill="#422B0D"/>
<path d="M5.71151 13.3319C5.47388 13.367 5.23626 13.3951 4.99746 13.4185C4.68725 13.4478 4.35832 13.4642 4.07972 13.3237C3.94978 13.2581 3.83741 13.161 3.70864 13.0954C3.3879 12.9315 2.98873 12.976 2.66916 13.1434C2.39174 13.2874 2.15528 13.5297 2.071 13.8305C1.98671 14.1314 2.08036 14.4884 2.33555 14.6687C2.77686 14.9801 2.51699 15.0632 2.63639 15.4974C2.76398 15.9657 3.29426 16.3204 3.76717 16.1846C3.93691 16.1354 4.07972 15.9914 4.24828 15.9587C4.43206 15.9224 4.6217 16.0254 4.80548 16.0242C5.19177 16.0219 5.46335 15.6133 5.50315 15.2282C5.52305 15.0409 5.50666 14.8513 5.53827 14.6663C5.63777 14.0928 6.15985 13.71 6.58477 13.3131C6.78728 13.1235 6.38928 13.2172 6.32022 13.2312C6.1177 13.2698 5.91402 13.3026 5.71151 13.3319Z" fill="white"/>
<path d="M2.07104 13.8277C2.15533 13.5269 2.39296 13.2846 2.66921 13.1406C2.98878 12.9744 3.38795 12.9287 3.70869 13.0926C3.72391 13.1008 3.73913 13.1102 3.75434 13.1195C3.61973 13.102 3.48511 13.0856 3.34581 13.0985C3.1433 13.116 2.93962 13.1851 2.78978 13.3232C2.73125 13.3771 2.68209 13.4414 2.63995 13.5093C2.53108 13.6849 2.47021 13.9015 2.52055 14.1016C2.56035 14.2585 2.69848 14.4341 2.86821 14.4598C3.05551 14.4879 3.22407 14.3147 3.41956 14.3393C3.50384 14.3498 3.59397 14.4388 3.54715 14.5102C3.51906 14.5523 3.46053 14.5582 3.41019 14.5675C3.24982 14.5968 3.10701 14.7103 3.04146 14.8602C3.00868 14.9339 2.99464 15.0147 2.99464 15.0955C2.99346 15.3975 3.20183 15.6901 3.48745 15.7873C3.6724 15.8493 3.88194 15.8283 4.05401 15.7393C4.13596 15.6971 4.18278 15.614 4.26472 15.5742C4.34549 15.5356 4.46255 15.5298 4.55034 15.5344C4.64516 15.5391 4.73881 15.5555 4.83362 15.5485C5.05838 15.5309 5.22226 15.3776 5.3159 15.1833C5.42243 14.9609 5.38146 14.7478 5.41189 14.509C5.43764 14.303 5.53831 14.111 5.66825 13.9483C5.79233 13.7926 5.94334 13.6533 6.09668 13.5269C6.17628 13.4613 6.26759 13.4122 6.35655 13.3583C6.38933 13.3384 6.59184 13.1886 6.61876 13.2015C6.6492 13.2155 6.64803 13.2471 6.58131 13.3092C6.15638 13.706 5.6343 14.0888 5.5348 14.6624C5.50203 14.8473 5.51841 15.0381 5.49969 15.2242C5.45871 15.6094 5.18831 16.0179 4.80202 16.0202C4.61824 16.0214 4.4286 15.9184 4.24482 15.9547C4.07626 15.9875 3.93344 16.1314 3.76371 16.1806C3.29196 16.3176 2.76169 15.9617 2.63292 15.4935C2.51353 15.0592 2.77457 14.9761 2.33208 14.6647C2.08041 14.4856 1.98676 14.1286 2.07104 13.8277Z" fill="#92CBEB"/>
<path d="M6.68365 13.6518C6.68365 13.6518 7.21744 13.2374 7.96544 13.2269C8.87967 13.214 9.67918 13.7502 9.67918 13.7502L6.68365 13.6518Z" fill="#F48FB1"/>
<path fill-rule="evenodd" clip-rule="evenodd" d="M9.02521 8.9163C9.02521 8.75468 9.15623 8.62366 9.31785 8.62366H11.7515C11.9131 8.62366 12.0441 8.75468 12.0441 8.9163C12.0441 9.07793 11.9131 9.20895 11.7515 9.20895H9.31785C9.15623 9.20895 9.02521 9.07793 9.02521 8.9163Z" fill="#422B0D"/>
<path fill-rule="evenodd" clip-rule="evenodd" d="M3.96075 8.9163C3.96075 8.75468 4.09178 8.62366 4.2534 8.62366H6.68704C6.84867 8.62366 6.97969 8.75468 6.97969 8.9163C6.97969 9.07793 6.84867 9.20895 6.68704 9.20895H4.2534C4.09178 9.20895 3.96075 9.07793 3.96075 8.9163Z" fill="#422B0D"/>
<path d="M4.68496 8.98401C4.67911 9.03903 4.6756 9.09404 4.6756 9.15257C4.6756 9.84087 5.06774 10.2564 5.49969 10.2564C5.93163 10.2564 6.32378 9.84087 6.32378 9.15257C6.32378 9.09404 6.32027 9.03786 6.31442 8.98401H4.68496Z" fill="#422B0D"/>
<path d="M9.78963 8.91699C9.77909 8.99191 9.77324 9.07034 9.77324 9.15345C9.77324 9.84175 10.1654 10.2573 10.5973 10.2573C11.0293 10.2573 11.4214 9.84175 11.4214 9.15345C11.4214 9.07034 11.4156 8.99191 11.405 8.91699H9.78963Z" fill="#422B0D"/>
<path d="M9.16285 14.5153C8.93342 14.5668 8.73793 14.5797 8.54478 14.5902C8.35281 14.5984 8.16785 14.5972 7.98407 14.5891C7.80029 14.5809 7.61651 14.5656 7.42921 14.5434C7.23958 14.5188 7.05346 14.4931 6.82519 14.4486L6.81232 14.4158C6.99844 14.335 7.19627 14.2894 7.39644 14.2648C7.59661 14.239 7.79795 14.2309 7.99929 14.2379C8.20063 14.2484 8.4008 14.2742 8.59746 14.3128C8.79529 14.3514 8.98843 14.4064 9.17573 14.4814L9.16285 14.5153Z" fill="#EB8F00"/>
<path d="M3.431 5.22209C3.85783 3.83082 4.3386 2.70412 5.21963 1.54279C5.21963 1.54279 6.63566 0.987808 8.10751 0.999826C9.51053 1.01128 11.5734 1.25998 11.5734 1.25998H12.4074C13.2563 2.54836 13.8664 3.87143 14.1461 5.23052C11.4036 4.51342 8.10751 6.02909 8.10751 6.02909C8.10751 6.02909 5.57431 5.22209 3.431 5.22209Z" fill="#7F2125"/>
<path d="M5.21963 1.54279C4.3386 2.70412 3.85783 3.83082 3.431 5.22209C5.57431 5.22209 8.10751 6.02909 8.10751 6.02909C8.10751 6.02909 11.4036 4.51342 14.1461 5.23052C13.8664 3.87143 13.2563 2.54836 12.4074 1.25998M5.21963 1.54279C5.21963 1.54279 6.63566 0.987808 8.10751 0.999826C9.51053 1.01128 11.5734 1.25998 11.5734 1.25998H12.4074M5.21963 1.54279C6.10257 1.63335 5.58186 1.54279 8.10751 2.04523C10.3774 1.53179 11.4703 1.98205 12.4074 1.25998" stroke="#67211F" stroke-width="0.0633296"/>
<path d="M8.12262 6.00668L8.13067 2.04874C9.83725 1.5667 11.1329 1.94304 12.4132 1.28345C12.9709 2.07154 14.1952 3.93837 14.4539 5.61044C12.2375 5.08592 9.7524 5.48215 8.12262 6.00668Z" fill="#67211F" stroke="#67211F" stroke-width="0.0397466"/>
<path d="M6.73984 1.78155C6.35236 1.54299 6.09428 1.58805 5.86034 1.34656L5.33963 1.52013C6.01127 1.63333 6.46982 1.727 6.73984 1.78155Z" fill="#67211F"/>
<path d="M10.9656 1.66227C11.3531 1.42611 11.6632 1.57867 11.6473 1.2395H12.412C12.023 1.61942 11.2356 1.60827 10.9656 1.66227Z" fill="#67211F" fill-opacity="0.56"/>
<path d="M8.18183 1.29804L8.0948 2.00156L8.25462 1.99143L8.18183 1.29804Z" fill="#67211F" stroke="#67211F" stroke-width="0.0963595"/>
<path d="M6.03883 1.64101C5.75665 1.63844 5.60406 1.57426 5.37065 1.56934C5.30824 3.28312 5.27092 3.7458 5.65396 5.42182C6.06819 5.51196 6.38458 5.56334 6.74297 5.65791C5.84068 4.15275 6.00524 3.20529 6.03883 1.64101Z" fill="#D60000" stroke="#67211F" stroke-width="0.0397466"/>
<path d="M5.57983 1.60347L5.3934 1.57655L5.36798 1.88519L5.57983 1.60347Z" fill="#398F00" stroke="#67211F" stroke-width="0.00802996"/>
<path d="M5.31967 2.74483L6.03994 1.80403L6.03994 1.66329L5.57898 1.60292L5.36686 1.88502L5.31967 2.74483Z" fill="#FF7F00" stroke="#67211F" stroke-width="0.00802996"/>
<path d="M5.78856 2.12335C5.78856 2.12335 5.53117 1.85531 5.44177 1.78412L5.36604 1.88485L5.3265 2.73619C5.43755 2.58792 5.78856 2.12335 5.78856 2.12335Z" fill="#D60000" stroke="#67211F" stroke-width="0.00802996"/>
<path d="M6.05494 2.78229C6.03897 2.43395 6.03655 2.21757 6.04001 1.80414L5.32739 2.73647C5.31761 3.09319 5.32065 3.28956 5.33039 3.6343L6.05494 2.78229Z" fill="#007FFF" stroke="#67211F" stroke-width="0.00642396"/>
<path d="M5.87855 2.98501L5.47807 2.53511L5.3266 2.73657C5.32253 3.08827 5.32185 3.28334 5.3296 3.6344L5.87855 2.98501Z" fill="#398F00" stroke="#67211F" stroke-width="0.00642396"/>
<path d="M5.95095 3.79837L5.55929 3.36422L5.33052 3.63413C5.35608 3.99694 5.38798 4.1572 5.42654 4.45467L5.95095 3.79837Z" fill="#D60000" stroke="#67211F" stroke-width="0.00642396"/>
<path d="M5.96445 4.72086L5.5724 4.27864L5.42781 4.4555C5.51003 4.82367 5.53078 4.91975 5.60834 5.19107L5.96445 4.72086Z" fill="#007FFF" stroke="#67211F" stroke-width="0.00642396"/>
<path d="M6.1147 5.49753L5.71198 5.0484L5.60603 5.19104L5.677 5.41452L6.1147 5.49753Z" fill="#FF7F00" stroke="#67211F" stroke-width="0.00642396"/>
<path d="M6.13585 3.57084C6.09415 3.30089 6.07529 3.13404 6.0575 2.7818L5.56172 3.36392C5.81695 3.64284 5.76559 3.5806 5.95338 3.79806L6.13585 3.57084Z" fill="#FF7F00" stroke="#67211F" stroke-width="0.00642396"/>
<path d="M6.26802 4.31699C6.2238 4.06833 6.17737 3.94113 6.13573 3.5791L5.57303 4.27769C5.82328 4.57453 5.77313 4.50758 5.96469 4.71177L6.26802 4.31699Z" fill="#398F00" stroke="#67211F" stroke-width="0.00642396"/>
<path d="M6.48789 5.02718C6.40268 4.76432 6.35703 4.65326 6.26831 4.31777L5.71521 5.04826C5.91182 5.28147 5.91182 5.28147 6.10726 5.49048L6.48789 5.02718Z" fill="#D60000" stroke="#67211F" stroke-width="0.00642396"/>
<path d="M6.74294 5.64195C6.54672 5.4168 6.55889 5.42783 6.35385 5.18693L6.10586 5.4973L6.43036 5.56522L6.74294 5.64195Z" fill="#398F00" stroke="#67211F" stroke-width="0.00642396"/>
<path d="M6.48406 5.02649L6.35476 5.18643L6.73034 5.62136L6.73838 5.62097L6.48406 5.02649Z" fill="#007FFF" stroke="#67211F" stroke-width="0.00642396"/>
<path d="M6.19171 3.94859L6.13399 3.58732L6.08808 3.63808L6.01961 3.72228L6.19171 3.94859Z" fill="#007FFF" stroke="#67211F" stroke-width="0.00642396"/>
<g filter="url(#filter0_d_1193_1521)">
<path d="M7.1364 2.67922L7.26635 2.49447C7.26635 2.49447 7.40754 3.03631 7.30897 3.38292C7.23059 3.65854 6.94163 4.01818 6.94163 4.01818C6.80937 4.32871 6.81783 4.49902 6.88952 4.80027L6.62578 5.08544C6.62578 5.08544 6.54424 4.69058 6.41248 4.49693C6.22131 4.21596 5.90588 4.29237 5.71137 4.04542C5.42336 3.67978 5.57269 2.90782 5.57269 2.90782L5.80638 3.09389C5.80638 3.09389 5.94801 2.90169 6.08642 2.62585C6.13598 2.52707 6.18514 2.41756 6.22723 2.30231C6.29156 2.12613 6.36321 1.84282 6.36321 1.84282L6.4983 2.09708L6.60695 1.96189C6.60695 1.96189 6.61642 2.15677 6.65652 2.26575C6.74853 2.51586 6.85421 2.60691 7.1364 2.67922Z" fill="url(#paint1_linear_1193_1521)"/>
<path d="M7.1364 2.67922C7.18715 2.60707 7.26635 2.49447 7.26635 2.49447C7.26635 2.49447 7.40754 3.03631 7.30897 3.38292C7.23059 3.65854 6.94163 4.01818 6.94163 4.01818C6.80937 4.32871 6.81783 4.49902 6.88952 4.80027L6.62578 5.08544C6.62578 5.08544 6.54424 4.69058 6.41248 4.49693C6.22131 4.21597 5.90588 4.29237 5.71137 4.04542C5.42336 3.67978 5.57269 2.90782 5.57269 2.90782L5.80638 3.09389M7.1364 2.67922C6.85421 2.60691 6.74853 2.51586 6.65652 2.26575C6.61642 2.15677 6.60695 1.96189 6.60695 1.96189L6.4983 2.09708M7.1364 2.67922C7.12866 2.70536 6.90169 3.15632 6.90169 3.15632C6.90169 3.15632 6.7242 2.84378 6.64439 2.63184M5.80638 3.09389C5.94008 3.2353 5.96019 3.32771 5.99808 3.49156L6.17159 2.90526L6.43633 3.2652L6.48257 2.48169L6.64439 2.63184M5.80638 3.09389C5.80638 3.09389 5.94801 2.90169 6.08642 2.62585C6.13598 2.52707 6.18514 2.41756 6.22723 2.30231C6.29156 2.12613 6.36321 1.84282 6.36321 1.84282L6.4983 2.09708M6.4983 2.09708C6.4983 2.09708 6.56765 2.42806 6.64439 2.63184" stroke="#F8F7FC" stroke-width="0.0397466"/>
</g>
<defs>
<filter id="filter0_d_1193_1521" x="5.51387" y="1.78723" width="1.98829" height="3.46202" filterUnits="userSpaceOnUse" color-interpolation-filters="sRGB">
<feFlood flood-opacity="0" result="BackgroundImageFix"/>
<feColorMatrix in="SourceAlpha" type="matrix" values="0 0 0 0 0 0 0 0 0 0 0 0 0 0 0 0 0 0 127 0" result="hardAlpha"/>
<feOffset dx="0.0802996" dy="0.0642397"/>
<feGaussianBlur stdDeviation="0.0289078"/>
<feComposite in2="hardAlpha" operator="out"/>
<feColorMatrix type="matrix" values="0 0 0 0 0 0 0 0 0 0 0 0 0 0 0 0 0 0 0.25 0"/>
<feBlend mode="normal" in2="BackgroundImageFix" result="effect1_dropShadow_1193_1521"/>
<feBlend mode="normal" in="SourceGraphic" in2="effect1_dropShadow_1193_1521" result="shape"/>
</filter>
<radialGradient id="paint0_radial_1193_1521" cx="0" cy="0" r="1" gradientUnits="userSpaceOnUse" gradientTransform="translate(8.78884 9.44526) scale(6.66761 6.66758)">
<stop offset="0.5" stop-color="#FDE030"/>
<stop offset="0.9188" stop-color="#F7C02B"/>
<stop offset="1" stop-color="#F4A223"/>
</radialGradient>
<linearGradient id="paint1_linear_1193_1521" x1="6.79531" y1="1.94765" x2="6.06695" y2="4.94987" gradientUnits="userSpaceOnUse">
<stop stop-color="#C9C9C9"/>
<stop offset="1" stop-color="#939297"/>
</linearGradient>
</defs>
</svg>
