<svg width="19" height="18" viewBox="0 0 19 18" fill="none" xmlns="http://www.w3.org/2000/svg">
<path d="M9.91667 16.902C6.43012 16.902 2.66865 14.7151 2.66865 9.91647C2.66865 5.1178 6.43012 2.93091 9.91667 2.93091C11.8536 2.93091 13.6407 3.56823 14.9653 4.73041C16.4024 6.00505 17.1647 7.80455 17.1647 9.91647C17.1647 12.0284 16.4024 13.8154 14.9653 15.09C13.6407 16.2522 11.8411 16.902 9.91667 16.902Z" fill="url(#paint0_radial_1206_10590)"/>
<path d="M15.9049 5.76355C16.5709 6.83825 16.9183 8.1179 16.9183 9.54125C16.9183 11.6532 16.156 13.4402 14.7189 14.7148C13.3943 15.877 11.5948 16.5268 9.67031 16.5268C7.41343 16.5268 5.04658 15.6083 3.64946 13.6601C4.99409 15.867 7.5234 16.9017 9.92025 16.9017C11.8447 16.9017 13.6442 16.2519 14.9689 15.0897C16.406 13.8151 17.1683 12.0281 17.1683 9.91615C17.1683 8.32409 16.7346 6.90948 15.9049 5.76355Z" fill="#EB8F00"/>
<path d="M6.26721 14.1442C7.06699 12.7559 8.75153 12.1848 9.96994 12.1848C11.1884 12.1848 12.8729 12.7559 13.6727 14.1442C13.7851 14.3417 14.1063 14.2555 14.0701 14.0305C13.7627 12.156 11.6957 11.1001 9.96994 11.0314C8.14544 10.9651 6.22972 12.261 5.86981 14.0305C5.82608 14.2517 6.15474 14.3417 6.26721 14.1442Z" fill="#422B0D"/>
<path d="M7.46935 7.17188C6.94574 7.17188 6.46962 7.61425 6.46962 8.34905C6.46962 9.08384 6.94574 9.52497 7.46935 9.52497C7.99421 9.52497 8.46908 9.08259 8.46908 8.34905C8.46908 7.6155 7.99921 7.17188 7.46935 7.17188Z" fill="#422B0D"/>
<path d="M7.42536 7.66393C7.24791 7.57895 7.03422 7.65393 6.94799 7.83138C6.88176 7.97009 6.91175 8.1363 7.02297 8.24377C7.20043 8.32874 7.41412 8.25376 7.50034 8.07631C7.56657 7.9376 7.53658 7.7714 7.42536 7.66393Z" fill="#896024"/>
<path d="M12.2671 7.17188C11.7435 7.17188 11.2674 7.61425 11.2674 8.34905C11.2674 9.08384 11.7435 9.52497 12.2671 9.52497C12.7907 9.52497 13.2668 9.08259 13.2668 8.34905C13.2668 7.6155 12.7907 7.17188 12.2671 7.17188Z" fill="#422B0D"/>
<path d="M12.2172 7.66393C12.0397 7.57895 11.8261 7.65393 11.7398 7.83138C11.6736 7.97009 11.7036 8.1363 11.8148 8.24377C11.9923 8.32874 12.2059 8.25376 12.2922 8.07631C12.3584 7.9376 12.3284 7.7714 12.2172 7.66393Z" fill="#896024"/>
<path d="M6.07446 1.3218H6.56736C6.56736 1.3218 8.59197 1.04621 9.9611 1.05837C11.2662 1.06997 13.1852 1.3218 13.1852 1.3218H13.9609C14.7506 2.62633 15.3181 3.96599 15.5783 5.34212C13.0271 4.61604 9.9611 6.15071 9.9611 6.15071C9.9611 6.15071 6.84903 4.64282 4.36854 5.18478C4.76558 3.77607 5.25492 2.49769 6.07446 1.3218Z" fill="#7F2125"/>
<path d="M6.07446 1.3218H6.56736C6.56736 1.3218 8.59197 1.04621 9.9611 1.05837C11.2662 1.06997 13.1852 1.3218 13.1852 1.3218H13.9609M6.07446 1.3218C5.25492 2.49769 4.76558 3.77607 4.36854 5.18478C6.84903 4.64282 9.9611 6.15071 9.9611 6.15071C9.9611 6.15071 13.0271 4.61604 15.5783 5.34212C15.3181 3.96599 14.7506 2.62633 13.9609 1.3218M6.07446 1.3218C6.7156 2.01841 7.629 1.58081 9.9611 2.11689C12.0726 1.59701 13.0892 2.05292 13.9609 1.3218" stroke="#67211F" stroke-width="0.0582032"/>
<path d="M9.9764 6.12854L9.98389 2.12096C11.5714 1.63288 12.7766 2.01394 13.9676 1.34607C14.4863 2.14405 15.3443 3.6382 15.585 5.33124C13.5234 4.80015 11.3435 5.50124 9.9764 6.12854Z" fill="#67211F" stroke="#67211F" stroke-width="0.0365292"/>
<path d="M7.25356 1.77375C6.89311 1.53219 6.55494 1.66309 6.56977 1.31616L6.1055 1.33092C6.46737 1.71953 7.00239 1.71852 7.25356 1.77375Z" fill="#67211F"/>
<path d="M12.6191 1.72958C12.9796 1.49047 13.2681 1.64494 13.2533 1.30151H13.9646C13.6028 1.6862 12.8703 1.67491 12.6191 1.72958Z" fill="#67211F" fill-opacity="0.56"/>
<path d="M10.0303 1.36058L9.94932 2.07292L10.098 2.06266L10.0303 1.36058Z" fill="#67211F" stroke="#67211F" stroke-width="0.0885594"/>
<path d="M8.08565 1.85501C7.82358 1.84035 7.6658 1.82569 7.44915 1.81104C7.31438 3.36082 7.26265 3.74458 7.54345 5.27961C7.92429 5.37937 8.21228 5.47349 8.54104 5.57481C7.77012 4.17188 7.98435 3.27061 8.08565 1.85501Z" fill="#D60000" stroke="#67211F" stroke-width="0.0365292"/>
<path d="M7.65559 1.83299L7.46564 1.81812L7.42765 2.10069L7.65559 1.83299Z" fill="#398F00" stroke="#67211F" stroke-width="0.00737995"/>
<path d="M7.35077 2.87416L8.06215 2.05335L8.06963 1.87014L7.65779 1.8335L7.43314 2.09733L7.35077 2.87416Z" fill="#FF7F00" stroke="#67211F" stroke-width="0.00737995"/>
<path d="M7.81437 2.33149C7.81437 2.33149 7.58723 2.07743 7.50736 2.00903L7.43248 2.09698L7.3576 2.86648C7.46742 2.73701 7.81437 2.33149 7.81437 2.33149Z" fill="#D60000" stroke="#67211F" stroke-width="0.00737995"/>
<path d="M8.02997 2.93973C8.03074 2.62347 8.03819 2.42735 8.05992 2.05298L7.35604 2.86644C7.33097 3.18916 7.32499 3.36719 7.3186 3.67991L8.02997 2.93973Z" fill="#007FFF" stroke="#67211F" stroke-width="0.00590396"/>
<path d="M7.85774 3.11561L7.5058 2.69055L7.35604 2.86644C7.3365 3.18487 7.32713 3.36155 7.3186 3.67992L7.85774 3.11561Z" fill="#398F00" stroke="#67211F" stroke-width="0.00590396"/>
<path d="M7.8877 3.85572L7.54324 3.44531L7.3186 3.67983C7.32608 4.00962 7.34855 4.15619 7.37104 4.42735L7.8877 3.85572Z" fill="#D60000" stroke="#67211F" stroke-width="0.00590396"/>
<path d="M7.85603 4.69117L7.51157 4.27344L7.3693 4.42734C7.4292 4.76446 7.44418 4.8524 7.50408 5.10157L7.85603 4.69117Z" fill="#007FFF" stroke="#67211F" stroke-width="0.00590396"/>
<path d="M7.94877 5.38945L7.61016 4.97705L7.50481 5.10224L7.55238 5.26636L7.94877 5.38945Z" fill="#FF7F00" stroke="#67211F" stroke-width="0.00590396"/>
<path d="M8.06603 3.65778C8.03939 3.41142 8.02933 3.25944 8.02859 2.93958L7.54186 3.44525C7.76651 3.70908 7.72158 3.65045 7.88632 3.85565L8.06603 3.65778Z" fill="#FF7F00" stroke="#67211F" stroke-width="0.00590396"/>
<path d="M8.15562 4.33939C8.12567 4.11221 8.08823 3.99495 8.06576 3.66516L7.51164 4.27344C7.73085 4.55328 7.68726 4.49043 7.85609 4.68377L8.15562 4.33939Z" fill="#398F00" stroke="#67211F" stroke-width="0.00590396"/>
<path d="M8.33092 4.99173C8.26353 4.74988 8.22609 4.64728 8.1587 4.33948L7.61206 4.97707C7.78429 5.19693 7.78429 5.19693 7.95652 5.3948L8.33092 4.99173Z" fill="#D60000" stroke="#67211F" stroke-width="0.00590396"/>
<path d="M8.54793 5.56263C8.37487 5.34906 8.38574 5.35964 8.20514 5.13135L7.94647 5.38465C8.2639 5.46807 8.25834 5.46622 8.25834 5.46622L8.54793 5.56263Z" fill="#398F00" stroke="#67211F" stroke-width="0.00590396"/>
<path d="M8.3308 4.9917L8.20288 5.13162L8.53397 5.54403H8.54149L8.3308 4.9917Z" fill="#007FFF" stroke="#67211F" stroke-width="0.00590396"/>
<path d="M8.10671 4.00388L8.06909 3.67249L8.02394 3.71667L7.95622 3.79031L8.10671 4.00388Z" fill="#007FFF" stroke="#67211F" stroke-width="0.00590396"/>
<g filter="url(#filter0_d_1206_10590)">
<path d="M9.05753 2.75905L9.17841 2.57199C9.17841 2.57199 9.30975 3.12062 9.21806 3.47158C9.14515 3.75065 8.87635 4.11481 8.87635 4.11481C8.75332 4.42923 8.76119 4.60168 8.82788 4.9067L8.58255 5.19545C8.58255 5.19545 8.50669 4.79564 8.38413 4.59956C8.2063 4.31507 7.91289 4.39244 7.73195 4.14239C7.46404 3.77216 7.60295 2.99052 7.60295 2.99052L7.82033 3.17892C7.82033 3.17892 7.95207 2.98431 8.08082 2.70501C8.12693 2.60499 8.17265 2.49411 8.2118 2.37741C8.27165 2.19903 8.33829 1.91217 8.33829 1.91217L8.46396 2.16961L8.56503 2.03272C8.56503 2.03272 8.57384 2.23005 8.61113 2.3404C8.69673 2.59364 8.79503 2.68583 9.05753 2.75905Z" fill="url(#paint1_linear_1206_10590)"/>
<path d="M9.05753 2.75905C9.10473 2.686 9.17841 2.57199 9.17841 2.57199C9.17841 2.57199 9.30975 3.12062 9.21806 3.47158C9.14515 3.75065 8.87635 4.11481 8.87635 4.11481C8.75332 4.42923 8.76119 4.60168 8.82788 4.9067L8.58255 5.19545C8.58255 5.19545 8.50669 4.79564 8.38413 4.59956C8.2063 4.31507 7.91289 4.39244 7.73195 4.14239C7.46404 3.77216 7.60295 2.99052 7.60295 2.99052L7.82033 3.17892M9.05753 2.75905C8.79503 2.68583 8.69673 2.59364 8.61113 2.3404C8.57384 2.23005 8.56503 2.03272 8.56503 2.03272L8.46396 2.16961M9.05753 2.75905C9.05033 2.78552 8.8392 3.24213 8.8392 3.24213C8.8392 3.24213 8.67409 2.92568 8.59985 2.71108M7.82033 3.17892C7.94469 3.32211 7.96341 3.41568 7.99865 3.58158L8.16005 2.98793L8.40631 3.35238L8.44933 2.55905L8.59985 2.71108M7.82033 3.17892C7.82033 3.17892 7.95207 2.98431 8.08082 2.70501C8.12693 2.60499 8.17265 2.49411 8.2118 2.37741C8.27165 2.19903 8.33829 1.91217 8.33829 1.91217L8.46396 2.16961M8.46396 2.16961C8.46396 2.16961 8.52847 2.50474 8.59985 2.71108" stroke="#F8F7FC" stroke-width="0.0365292"/>
</g>
<defs>
<filter id="filter0_d_1206_10590" x="7.54865" y="1.85779" width="1.84716" height="3.49072" filterUnits="userSpaceOnUse" color-interpolation-filters="sRGB">
<feFlood flood-opacity="0" result="BackgroundImageFix"/>
<feColorMatrix in="SourceAlpha" type="matrix" values="0 0 0 0 0 0 0 0 0 0 0 0 0 0 0 0 0 0 127 0" result="hardAlpha"/>
<feOffset dx="0.0737995" dy="0.0590396"/>
<feGaussianBlur stdDeviation="0.0265678"/>
<feComposite in2="hardAlpha" operator="out"/>
<feColorMatrix type="matrix" values="0 0 0 0 0 0 0 0 0 0 0 0 0 0 0 0 0 0 0.25 0"/>
<feBlend mode="normal" in2="BackgroundImageFix" result="effect1_dropShadow_1206_10590"/>
<feBlend mode="normal" in="SourceGraphic" in2="effect1_dropShadow_1206_10590" result="shape"/>
</filter>
<radialGradient id="paint0_radial_1206_10590" cx="0" cy="0" r="1" gradientUnits="userSpaceOnUse" gradientTransform="translate(9.91667 9.91647) scale(7.11802 7.11799)">
<stop offset="0.5" stop-color="#FDE030"/>
<stop offset="0.92" stop-color="#F7C02B"/>
<stop offset="1" stop-color="#F4A223"/>
</radialGradient>
<linearGradient id="paint1_linear_1206_10590" x1="8.74024" y1="2.01831" x2="7.94564" y2="5.02726" gradientUnits="userSpaceOnUse">
<stop stop-color="#C9C9C9"/>
<stop offset="1" stop-color="#939297"/>
</linearGradient>
</defs>
</svg>
