<svg width="18" height="18" viewBox="0 0 18 18" fill="none" xmlns="http://www.w3.org/2000/svg">
<path d="M9.00363 16.8814C5.51709 16.8814 1.75562 14.6945 1.75562 9.89584C1.75562 5.09717 5.51709 2.91028 9.00363 2.91028C10.9406 2.91028 12.7276 3.5476 14.0523 4.70978C15.4894 5.98442 16.2516 7.78392 16.2516 9.89584C16.2516 12.0078 15.4894 13.7948 14.0523 15.0694C12.7276 16.2316 10.9281 16.8814 9.00363 16.8814Z" fill="url(#paint0_radial_1206_10705)"/>
<path d="M14.9879 5.74292C15.654 6.81762 16.0014 8.09727 16.0014 9.52062C16.0014 11.6325 15.2391 13.4195 13.802 14.6942C12.4773 15.8564 10.6778 16.5062 8.75337 16.5062C6.49648 16.5062 4.12463 15.5877 2.73251 13.6395C4.07715 15.8464 6.6052 16.8811 9.0033 16.8811C10.9278 16.8811 12.7273 16.2313 14.0519 15.0691C15.489 13.7944 16.2513 12.0074 16.2513 9.89552C16.2513 8.30346 15.8177 6.88885 14.9879 5.74292Z" fill="#EB8F00"/>
<path opacity="0.8" d="M4.46022 12.9496C5.66801 12.9496 6.64712 11.9705 6.64712 10.7627C6.64712 9.55491 5.66801 8.57581 4.46022 8.57581C3.25242 8.57581 2.27332 9.55491 2.27332 10.7627C2.27332 11.9705 3.25242 12.9496 4.46022 12.9496Z" fill="url(#paint1_radial_1206_10705)"/>
<path opacity="0.8" d="M13.6453 12.9496C14.8531 12.9496 15.8322 11.9705 15.8322 10.7627C15.8322 9.55491 14.8531 8.57581 13.6453 8.57581C12.4375 8.57581 11.4584 9.55491 11.4584 10.7627C11.4584 11.9705 12.4375 12.9496 13.6453 12.9496Z" fill="url(#paint2_radial_1206_10705)"/>
<path d="M6.95137 6.4839C7.24004 6.48765 7.32377 6.09276 7.0176 6.02778C6.78891 5.98154 6.53773 5.97529 6.28905 6.00653C5.59299 6.08276 4.99315 6.44141 4.60201 6.90878C4.40706 7.14871 4.72573 7.40114 4.93817 7.22244C5.48177 6.78132 6.19908 6.49015 6.95137 6.4839Z" fill="#422B0D"/>
<path d="M11.0591 6.57139C10.7729 6.60388 10.6504 6.21899 10.9479 6.12402C11.1715 6.05654 11.4202 6.0253 11.6702 6.03154C12.37 6.03904 13.0023 6.33646 13.4384 6.76384C13.6559 6.98378 13.3634 7.2662 13.1348 7.10874C12.5499 6.7226 11.8076 6.50391 11.0591 6.57139Z" fill="#422B0D"/>
<path d="M9.05323 14.0577C10.4029 14.0577 11.2776 13.0705 11.5151 12.6081C11.6025 12.4332 11.6025 12.2832 11.5275 12.2207C11.4651 12.1707 11.3776 12.1707 11.2651 12.2207C11.2276 12.2332 11.1901 12.2582 11.1527 12.2832C10.5528 12.7081 9.81552 12.9705 9.05323 12.9705C8.29093 12.9705 7.55364 12.7081 6.9538 12.2957C6.91631 12.2707 6.87882 12.2457 6.84133 12.2332C6.72886 12.1832 6.64139 12.1832 6.5789 12.2332C6.50392 12.3082 6.50392 12.4457 6.5914 12.6206C6.82883 13.0705 7.70359 14.0577 9.05323 14.0577Z" fill="#422B0D"/>
<path d="M7.50481 9.71199L7.47981 9.687C7.46732 9.6745 7.42983 9.63701 7.41733 9.62451C7.39234 9.59952 7.36734 9.58702 7.32985 9.54953C7.29237 9.52454 7.25488 9.48705 7.20489 9.46206C7.1549 9.43707 7.10492 9.39958 7.05493 9.37458C7.00494 9.34959 6.94246 9.3246 6.87998 9.2996C6.81749 9.27461 6.75501 9.26211 6.69253 9.24962C6.63005 9.23712 6.56756 9.23712 6.49258 9.23712H6.50508H6.49258H6.46759H6.4301C6.39261 9.23712 6.39261 9.23712 6.38011 9.23712C6.35512 9.23712 6.31763 9.24962 6.29264 9.24962C6.23016 9.26211 6.16767 9.27461 6.10519 9.2996C6.04271 9.3246 5.98022 9.33709 5.93024 9.37458C5.88025 9.39958 5.83026 9.42457 5.78028 9.46206C5.6928 9.52454 5.61782 9.58702 5.56784 9.62451C5.51785 9.6745 5.49286 9.69949 5.49286 9.69949L5.46786 9.72449C5.3179 9.87444 5.06797 9.87444 4.89302 9.74948C4.76806 9.64951 4.73057 9.47455 4.79305 9.34959L4.80555 9.3121C4.81804 9.28711 4.83054 9.24962 4.85553 9.21213C4.90552 9.12465 4.99299 8.99969 5.13046 8.86223C5.19294 8.79974 5.28042 8.72476 5.36789 8.66228C5.45537 8.5998 5.56784 8.53732 5.68031 8.48733C5.79278 8.43734 5.93024 8.38736 6.0552 8.36236C6.11769 8.34987 6.19267 8.33737 6.26765 8.32487C6.30514 8.32487 6.35512 8.31238 6.36762 8.31238H6.46759C6.60505 8.31238 6.74252 8.32487 6.87998 8.34987C7.01744 8.37486 7.14241 8.42485 7.25488 8.47483C7.36734 8.52482 7.47981 8.5873 7.56729 8.64978C7.66726 8.71227 7.74224 8.77475 7.80472 8.84973C7.86721 8.91221 7.92969 8.97469 7.96718 9.03718C7.99217 9.06217 8.00467 9.09966 8.02966 9.12465C8.04216 9.14965 8.06715 9.17464 8.07965 9.19963C8.11714 9.24962 8.11714 9.27461 8.12964 9.2996C8.14213 9.3246 8.14213 9.3246 8.14213 9.3246C8.22961 9.51204 8.12964 9.72449 7.91719 9.79946C7.80473 9.86195 7.61728 9.82446 7.50481 9.71199Z" fill="#422B0D"/>
<path d="M12.6168 9.66836C12.6168 9.66836 12.6081 9.65962 12.5918 9.64337C12.5781 9.62963 12.5468 9.59463 12.5281 9.58089C12.5044 9.56089 12.4756 9.53715 12.4419 9.50966C12.4056 9.48217 12.3644 9.45217 12.3194 9.42093C12.2732 9.39219 12.2232 9.3622 12.1694 9.33596C12.117 9.30721 12.057 9.28722 11.997 9.26473C11.937 9.24348 11.8733 9.23224 11.8095 9.21849C11.7458 9.20849 11.6796 9.20349 11.6133 9.20349C11.6508 9.20349 11.6233 9.20349 11.6308 9.20349H11.6296H11.6271H11.6221H11.6121H11.5921L11.5534 9.20474C11.5209 9.20474 11.5159 9.20724 11.5034 9.20849C11.4834 9.20849 11.4471 9.21474 11.4159 9.21974C11.3522 9.23349 11.2884 9.24473 11.2285 9.26598C11.1697 9.28847 11.1097 9.30846 11.0572 9.33721C11.0035 9.3647 10.9535 9.39344 10.9073 9.42218C10.8173 9.48217 10.7436 9.54215 10.6948 9.58714C10.6449 9.63212 10.6161 9.65962 10.6161 9.65962L10.5849 9.69086C10.4337 9.83707 10.1787 9.84582 10.0138 9.7121C9.88382 9.60588 9.85133 9.44218 9.91631 9.30597C9.91631 9.30597 9.92256 9.29347 9.93506 9.26848C9.94755 9.24473 9.96255 9.20724 9.99004 9.1635C10.0413 9.07478 10.1263 8.94981 10.2612 8.8186C10.3287 8.75362 10.4074 8.68489 10.5012 8.62241C10.5924 8.55742 10.6986 8.49869 10.8161 8.44745C10.9335 8.39747 11.061 8.35373 11.196 8.32624C11.2647 8.31374 11.3284 8.30124 11.4122 8.29375C11.4509 8.29 11.4971 8.28625 11.5171 8.285L11.6133 8.28125C11.7546 8.28375 11.8945 8.29874 12.0307 8.32499C12.1657 8.35248 12.2932 8.39622 12.4106 8.4462C12.5268 8.49744 12.6343 8.55617 12.7255 8.62116C12.8193 8.68364 12.8967 8.75112 12.9642 8.81735C13.0317 8.88233 13.0854 8.94731 13.1304 9.00605C13.1517 9.03604 13.1717 9.06353 13.1904 9.08978C13.2079 9.11852 13.2254 9.14476 13.2392 9.1685C13.2729 9.22099 13.2754 9.24098 13.2879 9.26473C13.2966 9.28472 13.3016 9.29597 13.3016 9.29597C13.3854 9.48217 13.2841 9.69336 13.0754 9.76834C12.9117 9.82707 12.728 9.78208 12.6168 9.66836Z" fill="#422B0D"/>
<path d="M5.15609 1.32228H5.64899C5.64899 1.32228 7.6736 1.04669 9.04273 1.05886C10.3478 1.07046 12.2668 1.32228 12.2668 1.32228H13.0425C13.8322 2.62682 14.3997 3.96648 14.6599 5.34261C12.1088 4.61653 9.04273 6.1512 9.04273 6.1512C9.04273 6.1512 5.93066 4.64331 3.45016 5.18526C3.84721 3.77655 4.33655 2.49818 5.15609 1.32228Z" fill="#7F2125"/>
<path d="M5.15609 1.32228H5.64899C5.64899 1.32228 7.6736 1.04669 9.04273 1.05886C10.3478 1.07046 12.2668 1.32228 12.2668 1.32228H13.0425M5.15609 1.32228C4.33655 2.49818 3.84721 3.77655 3.45016 5.18526C5.93066 4.64331 9.04273 6.1512 9.04273 6.1512C9.04273 6.1512 12.1088 4.61653 14.6599 5.34261C14.3997 3.96648 13.8322 2.62682 13.0425 1.32228M5.15609 1.32228C5.79722 2.0189 6.71062 1.5813 9.04273 2.11738C11.1542 1.5975 12.1709 2.0534 13.0425 1.32228" stroke="#67211F" stroke-width="0.0582032"/>
<path d="M9.06088 6.12841L9.06837 2.12084C10.6559 1.63276 11.8611 2.01381 13.0521 1.34595C13.5708 2.14392 14.4288 3.63808 14.6695 5.33112C12.6078 4.80002 10.4279 5.50112 9.06088 6.12841Z" fill="#67211F" stroke="#67211F" stroke-width="0.0365292"/>
<path d="M6.33665 1.77411C5.97621 1.53256 5.63804 1.66346 5.65286 1.31653L5.1886 1.33129C5.55047 1.7199 6.08548 1.71888 6.33665 1.77411Z" fill="#67211F"/>
<path d="M11.7022 1.7297C12.0627 1.49059 12.3512 1.64506 12.3364 1.30164H13.0477C12.6859 1.68632 11.9534 1.67503 11.7022 1.7297Z" fill="#67211F" fill-opacity="0.56"/>
<path d="M9.11531 1.36058L9.03435 2.07292L9.18302 2.06266L9.11531 1.36058Z" fill="#67211F" stroke="#67211F" stroke-width="0.0885594"/>
<path d="M7.16613 1.85488C6.90407 1.84023 6.74628 1.82557 6.52964 1.81091C6.39486 3.3607 6.34313 3.74446 6.62394 5.27949C7.00478 5.37925 7.29277 5.47336 7.62153 5.57469C6.85061 4.17175 7.06484 3.27049 7.16613 1.85488Z" fill="#D60000" stroke="#67211F" stroke-width="0.0365292"/>
<path d="M6.74109 1.83299L6.55114 1.81812L6.51315 2.10069L6.74109 1.83299Z" fill="#398F00" stroke="#67211F" stroke-width="0.00737995"/>
<path d="M6.42932 2.87392L7.1407 2.05311L7.14818 1.8699L6.73634 1.83325L6.51169 2.09708L6.42932 2.87392Z" fill="#FF7F00" stroke="#67211F" stroke-width="0.00737995"/>
<path d="M6.89388 2.33149C6.89388 2.33149 6.66674 2.07743 6.58687 2.00903L6.51198 2.09698L6.4371 2.86648C6.54693 2.73701 6.89388 2.33149 6.89388 2.33149Z" fill="#D60000" stroke="#67211F" stroke-width="0.00737995"/>
<path d="M7.11241 2.93973C7.11318 2.62347 7.12062 2.42735 7.14236 2.05298L6.43847 2.86644C6.4134 3.18916 6.40743 3.36719 6.40103 3.67991L7.11241 2.93973Z" fill="#007FFF" stroke="#67211F" stroke-width="0.00590396"/>
<path d="M6.94018 3.11586L6.58824 2.6908L6.43847 2.86668C6.41894 3.18511 6.40956 3.3618 6.40103 3.68016L6.94018 3.11586Z" fill="#398F00" stroke="#67211F" stroke-width="0.00590396"/>
<path d="M6.97013 3.85572L6.62568 3.44531L6.40103 3.67983C6.40852 4.00962 6.43098 4.15619 6.45348 4.42735L6.97013 3.85572Z" fill="#D60000" stroke="#67211F" stroke-width="0.00590396"/>
<path d="M6.9375 4.69141L6.59305 4.27368L6.45078 4.42758C6.51068 4.7647 6.52566 4.85264 6.58556 5.10182L6.9375 4.69141Z" fill="#007FFF" stroke="#67211F" stroke-width="0.00590396"/>
<path d="M7.03316 5.38958L6.69455 4.97717L6.5892 5.10237L6.63677 5.26648L7.03316 5.38958Z" fill="#FF7F00" stroke="#67211F" stroke-width="0.00590396"/>
<path d="M7.15042 3.65815C7.12377 3.41178 7.11372 3.25981 7.11298 2.93994L6.62625 3.44562C6.8509 3.70945 6.80597 3.65082 6.97071 3.85602L7.15042 3.65815Z" fill="#FF7F00" stroke="#67211F" stroke-width="0.00590396"/>
<path d="M7.24002 4.33952C7.21007 4.11233 7.17263 3.99507 7.15016 3.66528L6.59604 4.27356C6.81525 4.5534 6.77166 4.49055 6.94049 4.68389L7.24002 4.33952Z" fill="#398F00" stroke="#67211F" stroke-width="0.00590396"/>
<path d="M7.41338 4.99185C7.34599 4.75 7.30855 4.6474 7.24115 4.3396L6.69452 4.97719C6.86675 5.19705 6.86675 5.19705 7.03897 5.39492L7.41338 4.99185Z" fill="#D60000" stroke="#67211F" stroke-width="0.00590396"/>
<path d="M7.62747 5.56226C7.4544 5.3487 7.46527 5.35928 7.28468 5.13098L7.026 5.38428C7.34343 5.46771 7.33787 5.46586 7.33787 5.46586L7.62747 5.56226Z" fill="#398F00" stroke="#67211F" stroke-width="0.00590396"/>
<path d="M7.41326 4.99146L7.28534 5.13138L7.61642 5.54378H7.62395L7.41326 4.99146Z" fill="#007FFF" stroke="#67211F" stroke-width="0.00590396"/>
<path d="M7.18721 4.004L7.14958 3.67261L7.10443 3.71679L7.03671 3.79044L7.18721 4.004Z" fill="#007FFF" stroke="#67211F" stroke-width="0.00590396"/>
<g filter="url(#filter0_d_1206_10705)">
<path d="M8.13965 2.75929L8.26054 2.57223C8.26054 2.57223 8.39187 3.12086 8.30018 3.47183C8.22728 3.75089 7.95848 4.11505 7.95848 4.11505C7.83545 4.42947 7.84332 4.60192 7.91001 4.90695L7.66467 5.1957C7.66467 5.1957 7.58882 4.79588 7.46625 4.5998C7.28842 4.31531 6.99501 4.39268 6.81407 4.14263C6.54617 3.7724 6.68507 2.99077 6.68507 2.99077L6.90246 3.17917C6.90246 3.17917 7.0342 2.98455 7.16295 2.70526C7.20906 2.60523 7.25478 2.49435 7.29393 2.37766C7.35378 2.19927 7.42042 1.91241 7.42042 1.91241L7.54609 2.16986L7.64715 2.03297C7.64715 2.03297 7.65597 2.2303 7.69326 2.34064C7.77886 2.59388 7.87715 2.68608 8.13965 2.75929Z" fill="url(#paint3_linear_1206_10705)"/>
<path d="M8.13965 2.75929C8.18686 2.68624 8.26054 2.57223 8.26054 2.57223C8.26054 2.57223 8.39187 3.12086 8.30018 3.47183C8.22728 3.75089 7.95848 4.11505 7.95848 4.11505C7.83545 4.42947 7.84332 4.60192 7.91001 4.90695L7.66467 5.1957C7.66467 5.1957 7.58882 4.79588 7.46625 4.5998C7.28842 4.31531 6.99501 4.39268 6.81407 4.14263C6.54617 3.7724 6.68507 2.99077 6.68507 2.99077L6.90246 3.17917M8.13965 2.75929C7.87715 2.68608 7.77886 2.59388 7.69326 2.34064C7.65597 2.2303 7.64715 2.03297 7.64715 2.03297L7.54609 2.16986M8.13965 2.75929C8.13246 2.78576 7.92132 3.24238 7.92132 3.24238C7.92132 3.24238 7.75622 2.92592 7.68198 2.71132M6.90246 3.17917C7.02682 3.32235 7.04553 3.41592 7.08078 3.58182L7.24218 2.98817L7.48844 3.35263L7.53145 2.55929L7.68198 2.71132M6.90246 3.17917C6.90246 3.17917 7.0342 2.98456 7.16295 2.70526C7.20906 2.60523 7.25478 2.49435 7.29393 2.37766C7.35378 2.19927 7.42042 1.91241 7.42042 1.91241L7.54609 2.16986M7.54609 2.16986C7.54609 2.16986 7.6106 2.50499 7.68198 2.71132" stroke="#F8F7FC" stroke-width="0.0365292"/>
</g>
<defs>
<filter id="filter0_d_1206_10705" x="6.63077" y="1.85803" width="1.84718" height="3.49072" filterUnits="userSpaceOnUse" color-interpolation-filters="sRGB">
<feFlood flood-opacity="0" result="BackgroundImageFix"/>
<feColorMatrix in="SourceAlpha" type="matrix" values="0 0 0 0 0 0 0 0 0 0 0 0 0 0 0 0 0 0 127 0" result="hardAlpha"/>
<feOffset dx="0.0737995" dy="0.0590396"/>
<feGaussianBlur stdDeviation="0.0265678"/>
<feComposite in2="hardAlpha" operator="out"/>
<feColorMatrix type="matrix" values="0 0 0 0 0 0 0 0 0 0 0 0 0 0 0 0 0 0 0.25 0"/>
<feBlend mode="normal" in2="BackgroundImageFix" result="effect1_dropShadow_1206_10705"/>
<feBlend mode="normal" in="SourceGraphic" in2="effect1_dropShadow_1206_10705" result="shape"/>
</filter>
<radialGradient id="paint0_radial_1206_10705" cx="0" cy="0" r="1" gradientUnits="userSpaceOnUse" gradientTransform="translate(9.00363 9.89583) scale(7.11802 7.11799)">
<stop offset="0.5" stop-color="#FDE030"/>
<stop offset="0.9188" stop-color="#F7C02B"/>
<stop offset="1" stop-color="#F4A223"/>
</radialGradient>
<radialGradient id="paint1_radial_1206_10705" cx="0" cy="0" r="1" gradientUnits="userSpaceOnUse" gradientTransform="translate(4.46029 10.7625) scale(2.3791 2.26003)">
<stop stop-color="#ED7770"/>
<stop offset="0.9" stop-color="#ED7770" stop-opacity="0"/>
</radialGradient>
<radialGradient id="paint2_radial_1206_10705" cx="0" cy="0" r="1" gradientUnits="userSpaceOnUse" gradientTransform="translate(13.6456 10.7625) scale(2.3791 2.26003)">
<stop stop-color="#ED7770"/>
<stop offset="0.9" stop-color="#ED7770" stop-opacity="0"/>
</radialGradient>
<linearGradient id="paint3_linear_1206_10705" x1="7.82236" y1="2.01856" x2="7.02777" y2="5.02751" gradientUnits="userSpaceOnUse">
<stop stop-color="#C9C9C9"/>
<stop offset="1" stop-color="#939297"/>
</linearGradient>
</defs>
</svg>
